<svg xmlns="http://www.w3.org/2000/svg" width="93.959" height="93.959" viewBox="0 0 93.959 93.959">
  <g id="Grupo_1165634" data-name="Grupo 1165634" transform="translate(-729.051 -932)">
    <g id="Grupo_1163803" data-name="Grupo 1163803" transform="translate(-0.224 -169.087)">
      <g id="Grupo_1151642" data-name="Grupo 1151642" transform="translate(729.274 1101.087)">
        <g id="Grupo_1103990" data-name="Grupo 1103990" transform="translate(0)">
          <g id="Trazado_874102" data-name="Trazado 874102" transform="translate(0)" fill="#f0f7e8">
            <path d="M 46.97949600219727 91.45897674560547 C 40.97370910644531 91.45897674560547 35.14888000488281 90.28328704833984 29.66683959960938 87.96457672119141 C 24.37055397033691 85.72444915771484 19.61348152160645 82.51696014404297 15.52775287628174 78.43122863769531 C 11.44202423095703 74.34550476074219 8.234539031982422 69.58843231201172 5.994410514831543 64.29214477539062 C 3.675695896148682 58.81010437011719 2.500010251998901 52.98527526855469 2.500010251998901 46.97948837280273 C 2.500010251998901 40.97369003295898 3.675695896148682 35.14887237548828 5.994410514831543 29.66683197021484 C 8.234539031982422 24.37054634094238 11.44202423095703 19.61346054077148 15.52775287628174 15.52774524688721 C 19.61348152160645 11.4420166015625 24.37055397033691 8.234531402587891 29.66683959960938 5.994388580322266 C 35.14888000488281 3.67568826675415 40.97370910644531 2.50000262260437 46.97949600219727 2.50000262260437 C 52.98529434204102 2.50000262260437 58.81011199951172 3.67568826675415 64.29215240478516 5.994388580322266 C 69.58843994140625 8.234531402587891 74.34552764892578 11.4420166015625 78.43123626708984 15.52774524688721 C 82.5169677734375 19.61346054077148 85.72445678710938 24.37054634094238 87.964599609375 29.66683197021484 C 90.28329467773438 35.14887237548828 91.458984375 40.97369003295898 91.458984375 46.97948837280273 C 91.458984375 52.98527526855469 90.28329467773438 58.81010437011719 87.964599609375 64.29214477539062 C 85.72445678710938 69.58843231201172 82.5169677734375 74.34550476074219 78.43123626708984 78.43122863769531 C 74.34552764892578 82.51696014404297 69.58843994140625 85.72444915771484 64.29215240478516 87.96457672119141 C 58.81011199951172 90.28328704833984 52.98529434204102 91.45897674560547 46.97949600219727 91.45897674560547 Z" stroke="none"/>
            <path d="M 46.97949600219727 5.000007629394531 C 41.31009674072266 5.000007629394531 35.81294631958008 6.109237670898438 30.64072799682617 8.296905517578125 C 25.64242553710938 10.41100311279297 21.1524658203125 13.43856811523438 17.29550933837891 17.29550170898438 C 13.43857574462891 21.15245819091797 10.4110107421875 25.64241790771484 8.296913146972656 30.64072036743164 C 6.109245300292969 35.81293869018555 5.000015258789062 41.31008911132812 5.000015258789062 46.97948837280273 C 5.000015258789062 52.64888763427734 6.109245300292969 58.14603805541992 8.296913146972656 63.31825256347656 C 10.4110107421875 68.31653594970703 13.43857574462891 72.8065185546875 17.29550933837891 76.6634521484375 C 21.1524658203125 80.52040100097656 25.64242553710938 83.5479736328125 30.64072799682617 85.66207122802734 C 35.81294631958008 87.84973907470703 41.31009674072266 88.95896911621094 46.97949600219727 88.95896911621094 C 52.64889526367188 88.95896911621094 58.14604568481445 87.84973907470703 63.31826019287109 85.66207122802734 C 68.31655883789062 83.5479736328125 72.80653381347656 80.52040100097656 76.66348266601562 76.6634521484375 C 80.52041625976562 72.8065185546875 83.54798126220703 68.31653594970703 85.66207885742188 63.31825256347656 C 87.84974670410156 58.14603805541992 88.95897674560547 52.64888763427734 88.95897674560547 46.97948837280273 C 88.95897674560547 41.31008911132812 87.84974670410156 35.81293869018555 85.66207885742188 30.64072036743164 C 83.54798126220703 25.64241790771484 80.52041625976562 21.15245819091797 76.66348266601562 17.29550170898438 C 72.80653381347656 13.43856811523438 68.31655883789062 10.41100311279297 63.31826019287109 8.296905517578125 C 58.14604568481445 6.109237670898438 52.64889526367188 5.000007629394531 46.97949600219727 5.000007629394531 M 46.97949600219727 7.62939453125e-06 C 72.92554473876953 7.62939453125e-06 93.95897674560547 21.03343963623047 93.95897674560547 46.97948837280273 C 93.95897674560547 72.92552185058594 72.92554473876953 93.95896911621094 46.97949600219727 93.95896911621094 C 21.033447265625 93.95896911621094 1.52587890625e-05 72.92552185058594 1.52587890625e-05 46.97948837280273 C 1.52587890625e-05 21.03343963623047 21.033447265625 7.62939453125e-06 46.97949600219727 7.62939453125e-06 Z" stroke="none" fill="#fff"/>
          </g>
        </g>
      </g>
    </g>
    <g id="Page-1" transform="translate(746.051 949)">
      <g id="_060---Natural-Crop-Growth" data-name="060---Natural-Crop-Growth">
        <rect id="Rectangle-path" width="58" height="8" rx="1" transform="translate(1 51)" fill="sienna"/>
        <path id="Shape" d="M58,51H55a1,1,0,0,1,1,1v6a1,1,0,0,1-1,1h3a1,1,0,0,0,1-1V52A1,1,0,0,0,58,51Z" fill="#783e22"/>
        <circle id="Oval" cx="7" cy="7" r="7" transform="translate(7 7)" fill="#ffdc00"/>
        <path id="Shape-2" data-name="Shape" d="M14,7a7,7,0,0,0-1.5.165,7,7,0,0,1,0,13.67A7,7,0,1,0,14,7Z" fill="#fec108"/>
        <path id="Shape-3" data-name="Shape" d="M30,51H27.963a5.081,5.081,0,0,1-4.931-3.748A1.01,1.01,0,0,1,24.025,46h.883A5.048,5.048,0,0,1,30,51Z" fill="#60a917"/>
        <path id="Shape-4" data-name="Shape" d="M35.975,46a1.01,1.01,0,0,1,.993,1.252A5.081,5.081,0,0,1,32.037,51H30a5.048,5.048,0,0,1,5.092-5Z" fill="#549414"/>
        <path id="Shape-5" data-name="Shape" d="M30,42H27.963a5.081,5.081,0,0,1-4.931-3.748A1.01,1.01,0,0,1,24.025,37h.883A5.048,5.048,0,0,1,30,42Z" fill="#60a917"/>
        <path id="Shape-6" data-name="Shape" d="M35.975,37a1.01,1.01,0,0,1,.993,1.252A5.081,5.081,0,0,1,32.037,42H30a5.048,5.048,0,0,1,5.092-5Z" fill="#549414"/>
        <path id="Shape-7" data-name="Shape" d="M30,33H27.963a5.081,5.081,0,0,1-4.931-3.748A1.01,1.01,0,0,1,24.025,28h.883A5.048,5.048,0,0,1,30,33Z" fill="#60a917"/>
        <path id="Shape-8" data-name="Shape" d="M35.975,28a1.01,1.01,0,0,1,.993,1.252A5.081,5.081,0,0,1,32.037,33H30a5.048,5.048,0,0,1,5.092-5Z" fill="#549414"/>
        <path id="Shape-9" data-name="Shape" d="M11,51H8.963a5.079,5.079,0,0,1-4.93-3.748A1.009,1.009,0,0,1,5.025,46h.883A5.048,5.048,0,0,1,11,51Z" fill="#60a917"/>
        <path id="Shape-10" data-name="Shape" d="M16.975,46a1.01,1.01,0,0,1,.993,1.252A5.081,5.081,0,0,1,13.037,51H11a5.048,5.048,0,0,1,5.092-5Z" fill="#549414"/>
        <path id="Shape-11" data-name="Shape" d="M11,42H8.963a5.079,5.079,0,0,1-4.93-3.748A1.009,1.009,0,0,1,5.025,37h.883A5.048,5.048,0,0,1,11,42Z" fill="#60a917"/>
        <path id="Shape-12" data-name="Shape" d="M16.975,37a1.01,1.01,0,0,1,.993,1.252A5.081,5.081,0,0,1,13.037,42H11a5.048,5.048,0,0,1,5.092-5Z" fill="#549414"/>
        <path id="Shape-13" data-name="Shape" d="M49,51H46.963a5.081,5.081,0,0,1-4.931-3.748A1.01,1.01,0,0,1,43.025,46h.883A5.048,5.048,0,0,1,49,51Z" fill="#60a917"/>
        <path id="Shape-14" data-name="Shape" d="M54.975,46a1.01,1.01,0,0,1,.993,1.252A5.081,5.081,0,0,1,51.037,51H49a5.048,5.048,0,0,1,5.092-5Z" fill="#549414"/>
        <path id="Shape-15" data-name="Shape" d="M49,42H46.963a5.081,5.081,0,0,1-4.931-3.748A1.01,1.01,0,0,1,43.025,37h.883A5.048,5.048,0,0,1,49,42Z" fill="#60a917"/>
        <path id="Shape-16" data-name="Shape" d="M54.975,37a1.01,1.01,0,0,1,.993,1.252A5.081,5.081,0,0,1,51.037,42H49a5.048,5.048,0,0,1,5.092-5Z" fill="#549414"/>
        <path id="Shape-17" data-name="Shape" d="M49,33H46.963a5.081,5.081,0,0,1-4.931-3.748A1.01,1.01,0,0,1,43.025,28h.883A5.048,5.048,0,0,1,49,33Z" fill="#60a917"/>
        <path id="Shape-18" data-name="Shape" d="M54.975,28a1.01,1.01,0,0,1,.993,1.252A5.081,5.081,0,0,1,51.037,33H49a5.048,5.048,0,0,1,5.092-5Z" fill="#549414"/>
        <path id="Shape-19" data-name="Shape" d="M49,24H46.963a5.081,5.081,0,0,1-4.931-3.748A1.01,1.01,0,0,1,43.025,19h.883A5.048,5.048,0,0,1,49,24Z" fill="#60a917"/>
        <path id="Shape-20" data-name="Shape" d="M54.975,19a1.01,1.01,0,0,1,.993,1.252A5.081,5.081,0,0,1,51.037,24H49a5.048,5.048,0,0,1,5.092-5Z" fill="#549414"/>
        <g id="Grupo_1165633" data-name="Grupo 1165633">
          <path id="Shape-21" data-name="Shape" d="M58,50H55.568a5.95,5.95,0,0,0,1.367-2.494,1.973,1.973,0,0,0-.351-1.717A2.016,2.016,0,0,0,54.976,45h-.884A6.111,6.111,0,0,0,50,46.568V43h1.037a6.076,6.076,0,0,0,5.9-4.494,1.973,1.973,0,0,0-.351-1.717A2.016,2.016,0,0,0,54.976,36h-.884A6.111,6.111,0,0,0,50,37.568V34h1.037a6.076,6.076,0,0,0,5.9-4.494,1.973,1.973,0,0,0-.351-1.717A2.016,2.016,0,0,0,54.976,27h-.884A6.111,6.111,0,0,0,50,28.568V25h1.037a6.076,6.076,0,0,0,5.9-4.494,1.973,1.973,0,0,0-.351-1.717A2.016,2.016,0,0,0,54.976,18h-.884A6.111,6.111,0,0,0,50,19.568V14a1,1,0,0,0-2,0v5.568A6.111,6.111,0,0,0,43.908,18h-.884a2.016,2.016,0,0,0-1.608.789,1.973,1.973,0,0,0-.351,1.717A6.076,6.076,0,0,0,46.963,25H48v3.568A6.111,6.111,0,0,0,43.908,27h-.884a2.016,2.016,0,0,0-1.608.789,1.973,1.973,0,0,0-.351,1.717A6.076,6.076,0,0,0,46.963,34H48v3.568A6.111,6.111,0,0,0,43.908,36h-.884a2.016,2.016,0,0,0-1.608.789,1.973,1.973,0,0,0-.351,1.717A6.076,6.076,0,0,0,46.963,43H48v3.568A6.111,6.111,0,0,0,43.908,45h-.884a2.016,2.016,0,0,0-1.608.789,1.973,1.973,0,0,0-.351,1.717A5.95,5.95,0,0,0,42.432,50H36.568a5.95,5.95,0,0,0,1.367-2.494,1.973,1.973,0,0,0-.351-1.717A2.016,2.016,0,0,0,35.976,45h-.884A6.111,6.111,0,0,0,31,46.568V43h1.037a6.076,6.076,0,0,0,5.9-4.494,1.973,1.973,0,0,0-.351-1.717A2.016,2.016,0,0,0,35.976,36h-.884A6.111,6.111,0,0,0,31,37.568V34h1.037a6.076,6.076,0,0,0,5.9-4.494,1.973,1.973,0,0,0-.351-1.717A2.016,2.016,0,0,0,35.976,27h-.884A6.111,6.111,0,0,0,31,28.568V26a1,1,0,0,0-2,0v2.569A6.111,6.111,0,0,0,24.908,27h-.884a2.016,2.016,0,0,0-1.608.789,1.973,1.973,0,0,0-.351,1.717A6.076,6.076,0,0,0,27.963,34H29v3.568A6.111,6.111,0,0,0,24.908,36h-.884a2.016,2.016,0,0,0-1.608.789,1.973,1.973,0,0,0-.351,1.717A6.076,6.076,0,0,0,27.963,43H29v3.568A6.111,6.111,0,0,0,24.908,45h-.884a2.016,2.016,0,0,0-1.608.789,1.973,1.973,0,0,0-.351,1.717A5.95,5.95,0,0,0,23.432,50H17.568a5.95,5.95,0,0,0,1.367-2.494,1.973,1.973,0,0,0-.351-1.717A2.016,2.016,0,0,0,16.976,45h-.884A6.111,6.111,0,0,0,12,46.568V43h1.037a6.076,6.076,0,0,0,5.9-4.494,1.973,1.973,0,0,0-.351-1.717A2.016,2.016,0,0,0,16.976,36h-.884A6.111,6.111,0,0,0,12,37.568V32a1,1,0,0,0-2,0v5.568A6.111,6.111,0,0,0,5.908,36H5.024a2.016,2.016,0,0,0-1.608.789,1.973,1.973,0,0,0-.351,1.717A6.076,6.076,0,0,0,8.963,43H10v3.568A6.111,6.111,0,0,0,5.908,45H5.024a2.016,2.016,0,0,0-1.608.789,1.973,1.973,0,0,0-.351,1.717A5.95,5.95,0,0,0,4.432,50H2a2,2,0,0,0-2,2v6a2,2,0,0,0,2,2H58a2,2,0,0,0,2-2V52a2,2,0,0,0-2-2Zm-3.908-3H55a4.075,4.075,0,0,1-3.964,3H50.13a4.081,4.081,0,0,1,3.962-3Zm0-9H55a4.075,4.075,0,0,1-3.964,3H50.13a4.081,4.081,0,0,1,3.962-3Zm0-9H55a4.075,4.075,0,0,1-3.964,3H50.13a4.081,4.081,0,0,1,3.962-3Zm0-9H55a4.075,4.075,0,0,1-3.964,3H50.13a4.081,4.081,0,0,1,3.962-3Zm-7.129,3a4.024,4.024,0,0,1-3.939-3h.884a4.081,4.081,0,0,1,3.962,3Zm0,9a4.024,4.024,0,0,1-3.939-3h.884a4.081,4.081,0,0,1,3.962,3Zm0,9a4.024,4.024,0,0,1-3.939-3h.884a4.081,4.081,0,0,1,3.962,3Zm-3.939,6h.884a4.081,4.081,0,0,1,3.962,3h-.907a4.024,4.024,0,0,1-3.939-3Zm-7.932,0H36a4.075,4.075,0,0,1-3.964,3H31.13a4.081,4.081,0,0,1,3.962-3Zm0-9H36a4.075,4.075,0,0,1-3.964,3H31.13a4.081,4.081,0,0,1,3.962-3Zm0-9H36a4.075,4.075,0,0,1-3.964,3H31.13a4.081,4.081,0,0,1,3.962-3Zm-7.129,3a4.024,4.024,0,0,1-3.939-3h.884a4.081,4.081,0,0,1,3.962,3Zm0,9a4.024,4.024,0,0,1-3.939-3h.884a4.081,4.081,0,0,1,3.962,3Zm-3.939,6h.884a4.081,4.081,0,0,1,3.962,3h-.907a4.024,4.024,0,0,1-3.939-3Zm-7.932,0H17a4.075,4.075,0,0,1-3.964,3H12.13A4.081,4.081,0,0,1,16.092,47Zm0-9H17a4.075,4.075,0,0,1-3.964,3H12.13A4.081,4.081,0,0,1,16.092,38ZM8.963,41a4.024,4.024,0,0,1-3.939-3h.884A4.081,4.081,0,0,1,9.87,41ZM5.024,47h.884A4.081,4.081,0,0,1,9.87,50H8.963A4.024,4.024,0,0,1,5.024,47ZM2,58V56H26a1,1,0,0,0,0-2H2V52H58v2H50a1,1,0,0,0,0,2h8v2Z"/>
          <path id="Shape-22" data-name="Shape" d="M46,54H30a1,1,0,0,0,0,2H46a1,1,0,0,0,0-2Z"/>
          <path id="Shape-23" data-name="Shape" d="M14,22a8,8,0,1,0-8-8A8,8,0,0,0,14,22ZM14,8a6,6,0,1,1-6,6A6,6,0,0,1,14,8Z"/>
          <path id="Shape-24" data-name="Shape" d="M15,3V1a1,1,0,0,0-2,0V3a1,1,0,0,0,2,0Z"/>
          <path id="Shape-25" data-name="Shape" d="M8.5,5.474a1,1,0,0,0,.865-1.5l-1-1.733a1,1,0,0,0-1.732,1l1,1.733a1,1,0,0,0,.867.5Z"/>
          <path id="Shape-26" data-name="Shape" d="M4.974,7.634l-1.733-1a1,1,0,1,0-1,1.732l1.733,1a1,1,0,0,0,1-1.732Z"/>
          <path id="Shape-27" data-name="Shape" d="M0,14a1,1,0,0,0,1,1H3a1,1,0,0,0,0-2H1A1,1,0,0,0,0,14Z"/>
          <path id="Shape-28" data-name="Shape" d="M3.974,18.634l-1.733,1a1,1,0,1,0,1,1.732l1.733-1a1,1,0,1,0-1-1.732Z"/>
          <path id="Shape-29" data-name="Shape" d="M7.634,23.026l-1,1.733a1,1,0,1,0,1.732,1l1-1.733a1,1,0,0,0-1.732-1Z"/>
          <path id="Shape-30" data-name="Shape" d="M13,25v2a1,1,0,0,0,2,0V25a1,1,0,0,0-2,0Z"/>
          <path id="Shape-31" data-name="Shape" d="M19,22.66a1,1,0,0,0-.366,1.366l1,1.733a1,1,0,1,0,1.732-1l-1-1.733A1,1,0,0,0,19,22.66Z"/>
          <path id="Shape-32" data-name="Shape" d="M23.026,20.366l1.733,1a1,1,0,1,0,1-1.732l-1.733-1a1,1,0,0,0-1,1.732Z"/>
          <path id="Shape-33" data-name="Shape" d="M24,14a1,1,0,0,0,1,1h2a1,1,0,0,0,0-2H25A1,1,0,0,0,24,14Z"/>
          <path id="Shape-34" data-name="Shape" d="M24.759,6.634l-1.733,1a1,1,0,1,0,1,1.732l1.733-1a1,1,0,1,0-1-1.732Z"/>
          <path id="Shape-35" data-name="Shape" d="M19.5,5.474a1,1,0,0,0,.867-.5l1-1.733a1,1,0,1,0-1.732-1l-1,1.733a1,1,0,0,0,.865,1.5Z"/>
        </g>
      </g>
    </g>
  </g>
</svg>
