<svg xmlns="http://www.w3.org/2000/svg" width="150.915" height="150.933" viewBox="0 0 150.915 150.933">
  <g id="Grupo_1165644" data-name="Grupo 1165644" transform="translate(-235.051 -2508)">
    <g id="Grupo_1159855" data-name="Grupo 1159855" transform="translate(46 -2159)">
      <rect id="Rectángulo_401557" data-name="Rectángulo 401557" width="144" height="138" rx="12" transform="translate(193.051 4674)" fill="#78b62e"/>
    </g>
    <g id="FILLED_OUTLINE" transform="translate(215.002 2488.041)">
      <circle id="Elipse_11746" data-name="Elipse 11746" cx="74.186" cy="74.186" r="74.186" transform="translate(21.312 21.251)" fill="#ffc9b8"/>
      <path id="Trazado_990021" data-name="Trazado 990021" d="M195.012,102.372l-8.624-34.5A5.116,5.116,0,0,0,181.424,64H164.467a5.116,5.116,0,0,0-5.091,4.607L156,102.372Z" transform="translate(-92.479 -29.958)" fill="#fcb298"/>
      <path id="Trazado_990022" data-name="Trazado 990022" d="M214.493,108.684l-6.77-6.77,2.933-2.933-1.809-1.809-7.674,7.674,1.809,1.809,2.933-2.933,6.77,6.77Z" transform="translate(-123.206 -52.523)" fill="#e37a56"/>
      <path id="Trazado_990023" data-name="Trazado 990023" d="M159.837,88h-.767L156,118.7h8.953V93.116A5.116,5.116,0,0,0,159.837,88Z" transform="translate(-92.479 -46.284)" fill="#fc9470"/>
      <path id="Trazado_990024" data-name="Trazado 990024" d="M242.471,128h-28.14l-8.306,5.933v11.974h36.008l5.554-5.116v-7.674Z" transform="translate(-126.508 -73.493)" fill="#fc9470"/>
      <path id="Trazado_990025" data-name="Trazado 990025" d="M292,144h2.558v5.116H292Z" transform="translate(-184.99 -84.377)" fill="#e37a56"/>
      <circle id="Elipse_11747" data-name="Elipse 11747" cx="15.349" cy="15.349" r="15.349" transform="translate(54.568 57.065)" fill="#e37a56"/>
      <circle id="Elipse_11748" data-name="Elipse 11748" cx="7.674" cy="7.674" r="7.674" transform="translate(62.242 64.739)" fill="#fca98c"/>
      <circle id="Elipse_11749" data-name="Elipse 11749" cx="7.674" cy="7.674" r="7.674" transform="translate(100.614 67.298)" fill="#e37a56"/>
      <path id="Trazado_990026" data-name="Trazado 990026" d="M173.091,211.227a137.933,137.933,0,0,0-144.884,8.236L25.151,221.6a74.188,74.188,0,0,0,148-7.417c0-.991-.025-1.977-.064-2.958Z" transform="translate(-3.471 -118.748)" fill="#f4c762"/>
      <path id="Trazado_990027" data-name="Trazado 990027" d="M313.131,195.835,312,200.166a98.922,98.922,0,0,1,52.474,38.416,74.1,74.1,0,0,0,3.805-23.508c0-.991-.025-1.977-.064-2.958a137.718,137.718,0,0,0-55.083-16.28Z" transform="translate(-198.595 -119.637)" fill="#ffd892"/>
      <path id="Trazado_990028" data-name="Trazado 990028" d="M300.98,294.652A98.92,98.92,0,0,0,245.365,251.4L232,265.66a98.918,98.918,0,0,1,55.84,43.629,74.6,74.6,0,0,0,13.14-14.638Z" transform="translate(-144.176 -157.432)" fill="#ffd892"/>
      <path id="Trazado_990029" data-name="Trazado 990029" d="M203.2,194.869a98.939,98.939,0,0,0-39.288,60.046l-5.663,26.8A73.9,73.9,0,0,0,189.5,288.6c.562,0,1.121-.009,1.68-.021l.029-23.554A98.916,98.916,0,0,1,219.8,196.52a137.988,137.988,0,0,0-16.6-1.652Z" transform="translate(-94.006 -118.979)" fill="#ffd892"/>
      <path id="Trazado_990030" data-name="Trazado 990030" d="M91.543,197.35a98.885,98.885,0,0,0-41.864,51.777l-5.823,16.634A73.887,73.887,0,0,1,25.15,223.52l3.057-2.139a137.733,137.733,0,0,1,63.336-24.03Z" transform="translate(-3.47 -120.667)" fill="#ffd892"/>
      <path id="Trazado_990031" data-name="Trazado 990031" d="M30.821,99.865h8.49a5.116,5.116,0,0,1,3.618,1.5,5.116,5.116,0,0,0,7.235,0l2.558-2.558a5.117,5.117,0,0,0,1.5-3.618V86.635a5.116,5.116,0,0,1,1.5-3.618L60.4,78.34a5.116,5.116,0,0,0,1.5-3.618V71.286a5.116,5.116,0,0,1,1.5-3.618l2.119-2.119a5.116,5.116,0,0,0,1.5-3.618V52.792A74.326,74.326,0,0,0,30.821,99.865Z" transform="translate(-7.328 -22.334)" fill="#fc9470"/>
      <path id="Trazado_990032" data-name="Trazado 990032" d="M294.558,81.744H292V66.4a6.4,6.4,0,0,1,6.4-6.4h2.558v2.558H298.4a3.841,3.841,0,0,0-3.837,3.837Z" transform="translate(-184.99 -27.237)" fill="#e37a56"/>
      <path id="Trazado_990033" data-name="Trazado 990033" d="M268,144h2.558v5.116H268Z" transform="translate(-168.665 -84.377)" fill="#e37a56"/>
      <path id="Trazado_990034" data-name="Trazado 990034" d="M244,144h2.558v5.116H244Z" transform="translate(-152.339 -84.377)" fill="#e37a56"/>
      <path id="Trazado_990035" data-name="Trazado 990035" d="M88,116h5.116v2.558H88Z" transform="translate(-46.223 -65.33)" fill="#ffc9b8"/>
      <path id="Trazado_990036" data-name="Trazado 990036" d="M64,164h5.116v2.558H64Z" transform="translate(-29.897 -97.981)" fill="#ffc9b8"/>
      <path id="Trazado_990037" data-name="Trazado 990037" d="M371.629,48h0a26.053,26.053,0,0,1,13.219,3.413,23.189,23.189,0,0,1,10.644,13.194l.354,1.126a36.879,36.879,0,0,1-7.338,35.246,36.779,36.779,0,0,0-21.735-20.121l-.422-.146a16.817,16.817,0,0,1-11.023-12.706h0A16.817,16.817,0,0,1,371.629,48Z" transform="translate(-227.859 -19.075)" fill="#9b5853"/>
      <path id="Trazado_990038" data-name="Trazado 990038" d="M378.952,61.224,369,58.838a75.3,75.3,0,0,0-5.426-6.236l9.517,1.7.45-2.518-13.27-2.374a75.363,75.363,0,0,0-24.764-15l-.882,2.4a72.9,72.9,0,0,1,20.3,11.409L352.479,65.06l2.532.367,2.216-15.293a72.582,72.582,0,0,1,6.533,6.425l-1.824,12.355,2.531.373,1.5-10.148a73.121,73.121,0,0,1,4.674,6.42L369.6,76.179l2.546.249.706-7.23q.923,1.622,1.771,3.3l2.284-1.152a76.279,76.279,0,0,0-5.553-9.309l7,1.678Z" transform="translate(-213.982 -9.828)" fill="#7f463e"/>
      <path id="Trazado_990039" data-name="Trazado 990039" d="M285.612,199.277a100.072,100.072,0,0,0-28.329,68.747l-.029,23.572q1.285-.007,2.558-.059l.029-23.5a97.538,97.538,0,0,1,28.87-68.26q-1.548-.268-3.1-.5Z" transform="translate(-161.355 -121.978)" fill="#f4c762"/>
      <path id="Trazado_990040" data-name="Trazado 990040" d="M151.961,303.563l-27.59,20.328A53.094,53.094,0,0,1,95.184,334.2a74.185,74.185,0,0,1-71.1-72.207,34.045,34.045,0,0,0,20.606,29.949l15.183,6.507,11.185-7.457a10.232,10.232,0,0,1,8.912-1.193l18.275,6.092L94.2,301.273a10.234,10.234,0,0,1-9.635,3.991l-11.908-1.7,25.725,12.861a10.24,10.24,0,0,0,9.766-.329l29.252-17.21a10.233,10.233,0,0,1,14.342,4.243Z" transform="translate(-2.742 -164.637)" fill="#fc9470"/>
      <g id="Grupo_1162269" data-name="Grupo 1162269" transform="translate(20.049 19.959)">
        <path id="Trazado_990041" data-name="Trazado 990041" d="M24.554,78.809h7.491a3.812,3.812,0,0,1,2.713,1.124,6.4,6.4,0,0,0,9.044,0l2.558-2.558a6.354,6.354,0,0,0,1.873-4.522V64.3a3.812,3.812,0,0,1,1.124-2.713l4.677-4.677a6.353,6.353,0,0,0,1.873-4.522V48.952a3.812,3.812,0,0,1,1.124-2.713l2.119-2.119A6.353,6.353,0,0,0,61.025,39.6V31.205a73.174,73.174,0,0,1,56.8-5.212l.78-2.436a75.489,75.489,0,0,0-98.47,69.279l2.557.087a73.222,73.222,0,0,1,1.859-14.113ZM44.84,43.064A73.257,73.257,0,0,1,58.466,32.651V39.6a3.812,3.812,0,0,1-1.124,2.713L55.223,44.43a6.353,6.353,0,0,0-1.873,4.522v3.436A3.812,3.812,0,0,1,52.226,55.1l-4.677,4.677A6.353,6.353,0,0,0,45.676,64.3v8.553a3.812,3.812,0,0,1-1.124,2.713l-2.558,2.558a3.842,3.842,0,0,1-5.426,0,6.353,6.353,0,0,0-4.522-1.873H25.2A72.578,72.578,0,0,1,44.84,43.064Z" transform="translate(-20.11 -19.959)" fill="#12263f"/>
        <path id="Trazado_990042" data-name="Trazado 990042" d="M268,144h2.558v5.116H268Z" transform="translate(-188.713 -104.336)" fill="#472d2c"/>
        <path id="Trazado_990043" data-name="Trazado 990043" d="M244,144h2.558v5.116H244Z" transform="translate(-172.388 -104.336)" fill="#472d2c"/>
        <path id="Trazado_990044" data-name="Trazado 990044" d="M292,144h2.558v5.116H292Z" transform="translate(-205.039 -104.336)" fill="#472d2c"/>
        <path id="Trazado_990045" data-name="Trazado 990045" d="M88,116h5.116v2.558H88Z" transform="translate(-66.271 -85.289)" fill="#472d2c"/>
        <path id="Trazado_990046" data-name="Trazado 990046" d="M64,164h5.116v2.558H64Z" transform="translate(-49.946 -117.94)" fill="#472d2c"/>
        <path id="Trazado_990047" data-name="Trazado 990047" d="M343.933,44.14a18.1,18.1,0,0,0,8.123,28.536l.422.146a35.586,35.586,0,0,1,20.979,19.421,1.279,1.279,0,0,0,2.139.329A38.158,38.158,0,0,0,383.188,56.1l-.354-1.126A24.394,24.394,0,0,0,371.6,41.057a27.474,27.474,0,0,0-13.868-3.581A18.054,18.054,0,0,0,348.1,40.4a75.78,75.78,0,0,0-12.6-5.994l-.882,2.4A73.245,73.245,0,0,1,345.9,42.081a18.19,18.19,0,0,0-1.969,2.059Zm13.835-4.105a24.806,24.806,0,0,1,12.57,3.245,21.844,21.844,0,0,1,10.057,12.466l.354,1.126a35.6,35.6,0,0,1-5.819,32.481A38.162,38.162,0,0,0,353.312,70.4l-.422-.146a15.533,15.533,0,0,1-4.674-26.787,72.57,72.57,0,0,1,6.7,4.747L352.479,65.06l2.532.367,2.216-15.293a72.585,72.585,0,0,1,6.533,6.425l-1.824,12.355,2.531.373,1.5-10.148a73.114,73.114,0,0,1,4.674,6.42L369.6,76.179l2.546.249.706-7.23q.923,1.622,1.771,3.3l2.284-1.152a76.276,76.276,0,0,0-5.553-9.309l7,1.678.6-2.488L369,58.838a75.306,75.306,0,0,0-5.426-6.236l9.517,1.7.45-2.518-13.27-2.374a75.069,75.069,0,0,0-9.728-7.493,15.515,15.515,0,0,1,7.229-1.884Z" transform="translate(-234.031 -29.787)" fill="#12263f"/>
        <path id="Trazado_990048" data-name="Trazado 990048" d="M169.346,107.063l-2.5.526a73.054,73.054,0,0,1,1.377,9.934,139.013,139.013,0,0,0-50.985-15.137c0-.059.008-.117.008-.176a8.94,8.94,0,0,0-.264-2.156l4.968-4.577a1.279,1.279,0,0,0,.413-.941V86.861a1.279,1.279,0,0,0-.375-.9l-5.116-5.116a1.28,1.28,0,0,0-.9-.375h-6.4V66.4a3.842,3.842,0,0,1,3.837-3.837h2.558V60h-2.558a6.4,6.4,0,0,0-6.4,6.4v14.07H99.055L95.15,64.844A6.386,6.386,0,0,0,88.946,60H71.989a6.375,6.375,0,0,0-6.364,5.759L63.781,84.2a16.619,16.619,0,0,0-6.945,25.711A139.189,139.189,0,0,0,24,126.9l-1.108.775a32.919,32.919,0,0,1-.289-3.6H20.049a35.277,35.277,0,0,0,21.392,31.632l15.181,6.506a1.281,1.281,0,0,0,1.213-.111l11.185-7.456a8.893,8.893,0,0,1,7.8-1.044l16.592,5.531-2.974,3.966a8.949,8.949,0,0,1-8.429,3.492L70.1,164.9a1.279,1.279,0,0,0-.753,2.41L95.07,180.17a11.471,11.471,0,0,0,10.985-.374l29.255-17.209a8.955,8.955,0,0,1,12.269,3.2l-26.706,19.678a51.854,51.854,0,0,1-45.007,8.114A142.875,142.875,0,0,1,61.8,188.749l-1.963,1.963a145.423,145.423,0,0,0,15.323,5.324,54.412,54.412,0,0,0,47.227-8.514l27.589-20.328a1.279,1.279,0,0,0,.385-1.6l-.217-.435a11.511,11.511,0,0,0-16.133-4.774l-2,1.179a99.794,99.794,0,0,0-27.589-20.752q.772-2.106,1.64-4.186a98.154,98.154,0,0,1,5.086-10.383,97,97,0,0,1,44.129,38.174,72.6,72.6,0,0,1-4.466,5.764l1.94,1.668a75.624,75.624,0,0,0,16.6-64.783ZM115.433,83.023l4.367,4.367v6.584l-3.874,3.569a8.95,8.95,0,0,0-16.581,4.274c-1.1.036-2.2.079-3.3.141q-4.934.276-9.815.9a16.622,16.622,0,0,0-4.678-15.064l6.677-4.769Zm-.752,19.14q-6.355-.5-12.765-.407a6.391,6.391,0,0,1,12.765.407ZM68.17,66.014a3.825,3.825,0,0,1,3.818-3.456H88.945a3.832,3.832,0,0,1,3.723,2.906l3.75,15H88.353l-3.837-3.837,4.212-4.212-1.809-1.809L76.687,80.84,78.5,82.649l4.212-4.212,3.144,3.144L79.53,86.1a16.552,16.552,0,0,0-5.776-2.621V74.07A6.4,6.4,0,0,0,68,67.707Zm-.424,4.238A3.842,3.842,0,0,1,71.2,74.07v9.008c-.423-.032-.848-.054-1.279-.054a16.625,16.625,0,0,0-3.484.37Zm-11.9,29.4a14.07,14.07,0,1,1,27.678,3.579q-2.979.439-5.931,1.006a8.948,8.948,0,1,0-12.451,2.983q-2.882.834-5.724,1.8a13.965,13.965,0,0,1-3.571-9.364Zm17.364,5.5q-1.842.415-3.671.877a6.377,6.377,0,1,1,3.663-.889ZM42.448,153.365A32.713,32.713,0,0,1,23.4,130.451L25.47,129a136.553,136.553,0,0,1,44.336-20.4l.11,0v-.032q6.265-1.6,12.683-2.614a100.489,100.489,0,0,0-37.343,48.609Zm29.595-2.611a11.5,11.5,0,0,0-4.442,1.772L56.993,159.6l-9.382-4.021a97.892,97.892,0,0,1,40.883-50.413q3.832-.432,7.7-.653,4.638-.26,9.263-.2a99.5,99.5,0,0,0-33.413,46.446Zm57.7,12.137-24.99,14.7a8.919,8.919,0,0,1-6.328,1.056l.057-5.348a97.119,97.119,0,0,1,5.075-30.056,97.238,97.238,0,0,1,26.187,19.647ZM103.7,135.635a99.718,99.718,0,0,0-7.771,37.636l-.047,4.443-18.343-9.171,4.107.587a11.514,11.514,0,0,0,10.837-4.489l4.039-5.385a1.279,1.279,0,0,0-.619-1.981l-18.275-6.092a11.611,11.611,0,0,0-2.828-.563,97,97,0,0,1,34.787-46.2q6.824.286,13.569,1.249A99.7,99.7,0,0,0,103.7,135.635Zm53.137,26.449a99.519,99.519,0,0,0-44.395-38.071,96.865,96.865,0,0,1,8.655-12.16,97.267,97.267,0,0,1,43.353,34.507,72.87,72.87,0,0,1-7.613,15.723Zm8.584-18.765a99.787,99.787,0,0,0-42.567-33.514q1.647-1.868,3.395-3.659A136.46,136.46,0,0,1,168.37,120.5c.021.724.035,1.449.035,2.174a72.917,72.917,0,0,1-2.983,20.64Z" transform="translate(-20.049 -47.196)" fill="#12263f"/>
      </g>
    </g>
  </g>
</svg>
