<svg xmlns="http://www.w3.org/2000/svg" width="93.959" height="93.959" viewBox="0 0 93.959 93.959">
  <g id="Grupo_1165321" data-name="Grupo 1165321" transform="translate(-625 -867)">
    <g id="Grupo_1158088" data-name="Grupo 1158088" transform="translate(6 -98)">
      <g id="Grupo_1147968" data-name="Grupo 1147968" transform="translate(619 965)">
        <g id="Grupo_1103990" data-name="Grupo 1103990" transform="translate(0)">
          <g id="Trazado_874102" data-name="Trazado 874102" transform="translate(0)" fill="#e4f7fa">
            <path d="M 46.97949600219727 91.45897674560547 C 40.97370910644531 91.45897674560547 35.14888000488281 90.28328704833984 29.66683959960938 87.96457672119141 C 24.37055397033691 85.72444915771484 19.61348152160645 82.51696014404297 15.52775287628174 78.43122863769531 C 11.44202423095703 74.34550476074219 8.234539031982422 69.58843231201172 5.994410514831543 64.29214477539062 C 3.675695896148682 58.81010437011719 2.500010251998901 52.98527526855469 2.500010251998901 46.97948837280273 C 2.500010251998901 40.97369003295898 3.675695896148682 35.14887237548828 5.994410514831543 29.66683197021484 C 8.234539031982422 24.37054634094238 11.44202423095703 19.61346054077148 15.52775287628174 15.52774524688721 C 19.61348152160645 11.4420166015625 24.37055397033691 8.234531402587891 29.66683959960938 5.994388580322266 C 35.14888000488281 3.67568826675415 40.97370910644531 2.50000262260437 46.97949600219727 2.50000262260437 C 52.98529434204102 2.50000262260437 58.81011199951172 3.67568826675415 64.29215240478516 5.994388580322266 C 69.58843994140625 8.234531402587891 74.34552764892578 11.4420166015625 78.43123626708984 15.52774524688721 C 82.5169677734375 19.61346054077148 85.72445678710938 24.37054634094238 87.964599609375 29.66683197021484 C 90.28329467773438 35.14887237548828 91.458984375 40.97369003295898 91.458984375 46.97948837280273 C 91.458984375 52.98527526855469 90.28329467773438 58.81010437011719 87.964599609375 64.29214477539062 C 85.72445678710938 69.58843231201172 82.5169677734375 74.34550476074219 78.43123626708984 78.43122863769531 C 74.34552764892578 82.51696014404297 69.58843994140625 85.72444915771484 64.29215240478516 87.96457672119141 C 58.81011199951172 90.28328704833984 52.98529434204102 91.45897674560547 46.97949600219727 91.45897674560547 Z" stroke="none"/>
            <path d="M 46.97949600219727 5.000007629394531 C 41.31009674072266 5.000007629394531 35.81294631958008 6.109237670898438 30.64072799682617 8.296905517578125 C 25.64242553710938 10.41100311279297 21.1524658203125 13.43856811523438 17.29550933837891 17.29550170898438 C 13.43857574462891 21.15245819091797 10.4110107421875 25.64241790771484 8.296913146972656 30.64072036743164 C 6.109245300292969 35.81293869018555 5.000015258789062 41.31008911132812 5.000015258789062 46.97948837280273 C 5.000015258789062 52.64888763427734 6.109245300292969 58.14603805541992 8.296913146972656 63.31825256347656 C 10.4110107421875 68.31653594970703 13.43857574462891 72.8065185546875 17.29550933837891 76.6634521484375 C 21.1524658203125 80.52040100097656 25.64242553710938 83.5479736328125 30.64072799682617 85.66207122802734 C 35.81294631958008 87.84973907470703 41.31009674072266 88.95896911621094 46.97949600219727 88.95896911621094 C 52.64889526367188 88.95896911621094 58.14604568481445 87.84973907470703 63.31826019287109 85.66207122802734 C 68.31655883789062 83.5479736328125 72.80653381347656 80.52040100097656 76.66348266601562 76.6634521484375 C 80.52041625976562 72.8065185546875 83.54798126220703 68.31653594970703 85.66207885742188 63.31825256347656 C 87.84974670410156 58.14603805541992 88.95897674560547 52.64888763427734 88.95897674560547 46.97948837280273 C 88.95897674560547 41.31008911132812 87.84974670410156 35.81293869018555 85.66207885742188 30.64072036743164 C 83.54798126220703 25.64241790771484 80.52041625976562 21.15245819091797 76.66348266601562 17.29550170898438 C 72.80653381347656 13.43856811523438 68.31655883789062 10.41100311279297 63.31826019287109 8.296905517578125 C 58.14604568481445 6.109237670898438 52.64889526367188 5.000007629394531 46.97949600219727 5.000007629394531 M 46.97949600219727 7.62939453125e-06 C 72.92554473876953 7.62939453125e-06 93.95897674560547 21.03343963623047 93.95897674560547 46.97948837280273 C 93.95897674560547 72.92552185058594 72.92554473876953 93.95896911621094 46.97949600219727 93.95896911621094 C 21.033447265625 93.95896911621094 1.52587890625e-05 72.92552185058594 1.52587890625e-05 46.97948837280273 C 1.52587890625e-05 21.03343963623047 21.033447265625 7.62939453125e-06 46.97949600219727 7.62939453125e-06 Z" stroke="none" fill="#fff"/>
          </g>
        </g>
      </g>
    </g>
    <g id="impacto-ambiental" transform="translate(585.016 878.002)">
      <path id="Trazado_991424" data-name="Trazado 991424" d="M104.72,17.648l2.808-1.883a1.132,1.132,0,0,1,1.443.141l4.346,4.346a1.133,1.133,0,0,1,.141,1.443L111.574,24.5l2.389,5.765,3.317.654a1.132,1.132,0,0,1,.921,1.12v6.146a1.132,1.132,0,0,1-.92,1.12l-3.317.654-2.389,5.765,1.883,2.808a1.133,1.133,0,0,1-.141,1.443l-4.346,4.346a1.132,1.132,0,0,1-1.443.141l-2.808-1.883-5.765,2.389L98.3,58.286a1.132,1.132,0,0,1-1.12.92H91.034a1.133,1.133,0,0,1-1.12-.92l-.654-3.317L83.5,52.581l-2.808,1.883a1.132,1.132,0,0,1-1.443-.141L74.9,49.977a1.132,1.132,0,0,1-.141-1.443l1.883-2.808-2.389-5.765-3.317-.654a1.132,1.132,0,0,1-.92-1.12V32.041a1.132,1.132,0,0,1,.921-1.12l3.317-.654L76.641,24.5l-1.883-2.808a1.133,1.133,0,0,1,.141-1.443l4.346-4.346a1.132,1.132,0,0,1,1.442-.141L83.5,17.648l5.765-2.389.654-3.317a1.133,1.133,0,0,1,1.12-.92h6.146a1.132,1.132,0,0,1,1.12.92l.654,3.317,5.765,2.389Z" transform="translate(-6.99 -6.984)" fill="#fdc72e" fill-rule="evenodd"/>
      <path id="Trazado_991425" data-name="Trazado 991425" d="M104.72,17.648l2.038-1.367,4.634,4.634L108.986,24.5l2.389,5.765,4.237.835v8.023l-4.237.835-2.389,5.765,2.406,3.587-4.634,4.634-4.135-2.773-6,2.485L95.53,59.207h-4.5a1.133,1.133,0,0,1-1.12-.921l-.654-3.317L81.35,51.692l-2.835,1.9L74.9,49.977a1.133,1.133,0,0,1-.141-1.443l1.883-2.808-2.389-5.765-3.317-.654a1.132,1.132,0,0,1-.92-1.12V32.041a1.132,1.132,0,0,1,.92-1.12l3.317-.654L76.641,24.5l-1.883-2.808a1.133,1.133,0,0,1,.141-1.443l3.616-3.616,2.835,1.9,2.146-.889,5.765-2.389.654-3.317a1.133,1.133,0,0,1,1.12-.921h4.5l1.094,5.547,6,2.485,2.1-1.407Z" transform="translate(-6.99 -6.984)" fill="#ffeb87" fill-rule="evenodd"/>
      <circle id="Elipse_11760" data-name="Elipse 11760" cx="14.637" cy="14.637" r="14.637" transform="matrix(0.974, -0.226, 0.226, 0.974, 69.552, 17.173)" fill="#66deff"/>
      <g id="Grupo_1165320" data-name="Grupo 1165320" transform="translate(61.985 2.999)">
        <path id="Trazado_991426" data-name="Trazado 991426" d="M157.653,84.021a14.637,14.637,0,1,0,0,29.274c.169,0,.337,0,.5-.01a12.489,12.489,0,0,0,3.888-1.523c4.237-2.564,6.6-7.79,6.6-13.1s-2.362-10.54-6.6-13.1a12.49,12.49,0,0,0-3.888-1.523c-.168-.006-.336-.01-.5-.01Z" transform="translate(-132.52 -73.526)" fill="#78eaff" fill-rule="evenodd"/>
        <path id="Trazado_991427" data-name="Trazado 991427" d="M211.7,291.285c8.48,7.852,9.1,18.235,0,22.74C202.6,309.52,203.218,299.137,211.7,291.285Z" transform="translate(-186.566 -253.944)" fill="#90ef90" fill-rule="evenodd"/>
        <path id="Trazado_991428" data-name="Trazado 991428" d="M211.7,314.025c-9.1-4.505-8.48-14.888,0-22.74C217.789,298.5,219.06,309.01,211.7,314.025Z" transform="translate(-186.566 -253.944)" fill="#adffad" fill-rule="evenodd"/>
        <path id="Trazado_991429" data-name="Trazado 991429" d="M113.095,358.69c-.481,12.494,7.639,20.579,18.495,15.057C130.164,360.5,118.391,360.334,113.095,358.69Z" transform="translate(-106.457 -312.618)" fill="#75e075" fill-rule="evenodd"/>
        <path id="Trazado_991430" data-name="Trazado 991430" d="M113.091,362c-.21,9.17,4.253,15.868,11.013,16.364a15.35,15.35,0,0,0,5.861-1.737c-1.293-12.021-11.112-13.27-16.875-14.628Z" transform="translate(-106.465 -315.502)" fill="#90ef90" fill-rule="evenodd"/>
        <path id="Trazado_991431" data-name="Trazado 991431" d="M274.511,358.69c.481,12.494-7.639,20.579-18.495,15.057C257.441,360.5,269.214,360.334,274.511,358.69Z" transform="translate(-230.883 -312.618)" fill="#75e075" fill-rule="evenodd"/>
        <path id="Trazado_991432" data-name="Trazado 991432" d="M261.876,378.368a15.349,15.349,0,0,1-5.861-1.736c1.293-12.021,11.112-13.27,16.875-14.628.21,9.17-4.253,15.868-11.013,16.364Z" transform="translate(-230.882 -315.502)" fill="#90ef90" fill-rule="evenodd"/>
        <path id="Trazado_991433" data-name="Trazado 991433" d="M104.593,50.422c-.544.132-1.122.261-1.716.393-5.413,1.205-12.709,2.83-14.47,11.707a41.949,41.949,0,0,0,8.864-4.562,1.036,1.036,0,1,1,1.18,1.7,42.553,42.553,0,0,1-8.589,4.507,10.025,10.025,0,0,0,8.944-.751c3.6-2.3,5.717-7.106,5.787-13Zm-16.442-.793a1.036,1.036,0,1,0-2.072,0v7.518a13.907,13.907,0,0,0-4.416-4.728l-.074-.049c.267-3.523,2.244-7.314,5.526-10.592,3.281,3.278,5.26,7.069,5.526,10.592l-.074.049a13.913,13.913,0,0,0-4.416,4.728V49.629ZM75.519,58.223a1.036,1.036,0,0,1,1.441-.262,41.949,41.949,0,0,0,8.864,4.561c-1.76-8.877-9.057-10.5-14.469-11.707-.595-.132-1.172-.261-1.717-.393.071,5.893,2.19,10.695,5.788,13a10.025,10.025,0,0,0,8.944.751,42.539,42.539,0,0,1-8.589-4.507,1.037,1.037,0,0,1-.262-1.442Zm31.127-9.191c.279,7.23-2.236,13.261-6.723,16.134a11.187,11.187,0,0,1-6.115,1.761,15.023,15.023,0,0,1-5.656-1.186V67.5a1.036,1.036,0,1,1-2.072,0V65.74a15.019,15.019,0,0,1-5.655,1.186,11.191,11.191,0,0,1-6.115-1.76c-4.488-2.873-7-8.9-6.724-16.134a1.037,1.037,0,0,1,1.343-.95c.8.249,1.81.473,2.876.711a34.3,34.3,0,0,1,7.823,2.454c.584-4.027,2.948-8.114,6.785-11.667a1.036,1.036,0,0,1,1.408,0c3.835,3.552,6.2,7.639,6.783,11.667a34.3,34.3,0,0,1,7.822-2.454c1.066-.237,2.073-.462,2.876-.711a1.037,1.037,0,0,1,1.343.95ZM96.9,37.566a13.487,13.487,0,0,0,3.758-8.4H95.815a25.021,25.021,0,0,1-1.184,6.881A15.522,15.522,0,0,1,96.9,37.566ZM93.87,18.26a13.63,13.63,0,0,0,1.445-.954,13.582,13.582,0,0,0-3.083-1.759A13.492,13.492,0,0,1,93.87,18.26Zm-.129,10.906H88.152v5a15.616,15.616,0,0,1,4.591,1.008A23.036,23.036,0,0,0,93.741,29.167Zm-5.589-2.072h5.589a23.2,23.2,0,0,0-1.009-6,15.6,15.6,0,0,1-4.58,1Zm0-7.077a13.547,13.547,0,0,0,3.842-.861c-1-2.19-2.346-3.732-3.842-4.227Zm8.738-1.311a15.672,15.672,0,0,1-2.252,1.5,24.87,24.87,0,0,1,1.177,6.885h4.847A13.539,13.539,0,0,0,96.89,18.707ZM86.08,14.93c-1.5.495-2.843,2.037-3.842,4.227a13.551,13.551,0,0,0,3.842.861Zm0,7.168a15.618,15.618,0,0,1-4.58-1,23.271,23.271,0,0,0-1.009,6H86.08Zm0,7.069H80.49a22.987,22.987,0,0,0,1,6,15.608,15.608,0,0,1,4.589-1.008v-5ZM82,15.547a13.584,13.584,0,0,0-3.083,1.759,13.67,13.67,0,0,0,1.445.954A13.583,13.583,0,0,1,82,15.547Zm-2.4,20.5a25.021,25.021,0,0,1-1.183-6.881H73.571a13.517,13.517,0,0,0,3.762,8.4A15.679,15.679,0,0,1,79.6,36.048Zm-6.03-8.954h4.846a24.871,24.871,0,0,1,1.177-6.885,15.672,15.672,0,0,1-2.253-1.5,13.539,13.539,0,0,0-3.771,8.388ZM93.144,40.308a1.036,1.036,0,1,0,.921,1.857,15.658,15.658,0,1,0-14.091-.1,1.036,1.036,0,1,0,.947-1.844,13.772,13.772,0,0,1-2.012-1.263A13.633,13.633,0,0,1,80.367,38a14.376,14.376,0,0,0,1.172,2.085,1.036,1.036,0,0,0,1.711-1.17,12.454,12.454,0,0,1-1.015-1.807,13.577,13.577,0,0,1,3.844-.862v1.815a1.036,1.036,0,1,0,2.072,0V36.243A13.571,13.571,0,0,1,92,37.105a12.5,12.5,0,0,1-1.014,1.807,1.036,1.036,0,1,0,1.71,1.17A14.272,14.272,0,0,0,93.864,38a13.458,13.458,0,0,1,1.458.964,13.763,13.763,0,0,1-2.178,1.346Zm19.1-15.249a2.157,2.157,0,0,0-1.757-2.138l-2.77-.546-1.964-4.741,1.572-2.346a2.159,2.159,0,0,0-.268-2.755l-4.344-4.343a2.157,2.157,0,0,0-2.755-.269L97.613,9.492,92.873,7.528l-.546-2.771A2.158,2.158,0,0,0,90.189,3H84.045a2.156,2.156,0,0,0-2.138,1.758L81.36,7.528,76.619,9.492,74.272,7.918a2.156,2.156,0,0,0-2.754.27l-4.344,4.343a2.158,2.158,0,0,0-.27,2.755l1.574,2.346-1.965,4.741-2.771.546a2.157,2.157,0,0,0-1.757,2.138V31.2a2.157,2.157,0,0,0,1.757,2.138l2.771.546,1.965,4.741L66.9,40.974a2.157,2.157,0,0,0,.27,2.755l4.344,4.345a2.158,2.158,0,0,0,2.755.269l2.346-1.573,1.909.791a1.036,1.036,0,0,0,.793-1.915l-2.422-1a1.034,1.034,0,0,0-.973.1l-2.808,1.882a.1.1,0,0,1-.135-.013l-4.345-4.344a.1.1,0,0,1-.013-.135l1.882-2.807a1.039,1.039,0,0,0,.1-.974l-2.39-5.766a1.033,1.033,0,0,0-.756-.62l-3.315-.654a.1.1,0,0,1-.087-.1V25.058a.1.1,0,0,1,.087-.1l3.315-.654a1.034,1.034,0,0,0,.756-.62l2.39-5.766a1.039,1.039,0,0,0-.1-.974l-1.882-2.807A.1.1,0,0,1,68.639,14l4.345-4.344a.1.1,0,0,1,.135-.013l2.808,1.882a1.036,1.036,0,0,0,.973.1L82.666,9.23a1.04,1.04,0,0,0,.62-.757l.653-3.316a.1.1,0,0,1,.106-.087h6.144a.1.1,0,0,1,.1.087l.654,3.316a1.034,1.034,0,0,0,.62.757l5.767,2.389a1.038,1.038,0,0,0,.974-.1l2.807-1.882a.1.1,0,0,1,.134.013L105.594,14a.1.1,0,0,1,.013.135l-1.882,2.807a1.037,1.037,0,0,0-.1.974l2.389,5.766a1.035,1.035,0,0,0,.757.62l3.316.654a.1.1,0,0,1,.086.1V31.2a.1.1,0,0,1-.086.1l-3.316.654a1.034,1.034,0,0,0-.757.62l-2.389,5.766a1.038,1.038,0,0,0,.1.974l1.882,2.807a.1.1,0,0,1-.013.135l-4.345,4.344a.1.1,0,0,1-.134.013l-2.808-1.882a1.031,1.031,0,0,0-.972-.1l-2.517,1.042a1.037,1.037,0,0,0,.794,1.915l2-.83,2.346,1.573a2.16,2.16,0,0,0,2.757-.269l4.344-4.345a2.157,2.157,0,0,0,.268-2.755l-1.572-2.346,1.964-4.741,2.77-.546a2.157,2.157,0,0,0,1.757-2.138V25.059Z" transform="translate(-61.985 -2.999)" fill-rule="evenodd"/>
      </g>
    </g>
  </g>
</svg>
