<svg xmlns="http://www.w3.org/2000/svg" width="93.959" height="93.959" viewBox="0 0 93.959 93.959">
  <g id="Grupo_1166262" data-name="Grupo 1166262" transform="translate(-622.333 -309)">
    <g id="Grupo_1158384" data-name="Grupo 1158384">
      <g id="Grupo_1158054" data-name="Grupo 1158054" transform="translate(622.333 309)">
        <g id="Grupo_1103990" data-name="Grupo 1103990" transform="translate(0)">
          <g id="Trazado_874102" data-name="Trazado 874102" transform="translate(0)" fill="#eaeff4">
            <path d="M 46.97949600219727 91.45897674560547 C 40.97370910644531 91.45897674560547 35.14888000488281 90.28328704833984 29.66683959960938 87.96457672119141 C 24.37055397033691 85.72444915771484 19.61348152160645 82.51696014404297 15.52775287628174 78.43122863769531 C 11.44202423095703 74.34550476074219 8.234539031982422 69.58843231201172 5.994410514831543 64.29214477539062 C 3.675695896148682 58.81010437011719 2.500010251998901 52.98527526855469 2.500010251998901 46.97948837280273 C 2.500010251998901 40.97369003295898 3.675695896148682 35.14887237548828 5.994410514831543 29.66683197021484 C 8.234539031982422 24.37054634094238 11.44202423095703 19.61346054077148 15.52775287628174 15.52774524688721 C 19.61348152160645 11.4420166015625 24.37055397033691 8.234531402587891 29.66683959960938 5.994388580322266 C 35.14888000488281 3.67568826675415 40.97370910644531 2.50000262260437 46.97949600219727 2.50000262260437 C 52.98529434204102 2.50000262260437 58.81011199951172 3.67568826675415 64.29215240478516 5.994388580322266 C 69.58843994140625 8.234531402587891 74.34552764892578 11.4420166015625 78.43123626708984 15.52774524688721 C 82.5169677734375 19.61346054077148 85.72445678710938 24.37054634094238 87.964599609375 29.66683197021484 C 90.28329467773438 35.14887237548828 91.458984375 40.97369003295898 91.458984375 46.97948837280273 C 91.458984375 52.98527526855469 90.28329467773438 58.81010437011719 87.964599609375 64.29214477539062 C 85.72445678710938 69.58843231201172 82.5169677734375 74.34550476074219 78.43123626708984 78.43122863769531 C 74.34552764892578 82.51696014404297 69.58843994140625 85.72444915771484 64.29215240478516 87.96457672119141 C 58.81011199951172 90.28328704833984 52.98529434204102 91.45897674560547 46.97949600219727 91.45897674560547 Z" stroke="none"/>
            <path d="M 46.97949600219727 5.000007629394531 C 41.31009674072266 5.000007629394531 35.81294631958008 6.109237670898438 30.64072799682617 8.296905517578125 C 25.64242553710938 10.41100311279297 21.1524658203125 13.43856811523438 17.29550933837891 17.29550170898438 C 13.43857574462891 21.15245819091797 10.4110107421875 25.64241790771484 8.296913146972656 30.64072036743164 C 6.109245300292969 35.81293869018555 5.000015258789062 41.31008911132812 5.000015258789062 46.97948837280273 C 5.000015258789062 52.64888763427734 6.109245300292969 58.14603805541992 8.296913146972656 63.31825256347656 C 10.4110107421875 68.31653594970703 13.43857574462891 72.8065185546875 17.29550933837891 76.6634521484375 C 21.1524658203125 80.52040100097656 25.64242553710938 83.5479736328125 30.64072799682617 85.66207122802734 C 35.81294631958008 87.84973907470703 41.31009674072266 88.95896911621094 46.97949600219727 88.95896911621094 C 52.64889526367188 88.95896911621094 58.14604568481445 87.84973907470703 63.31826019287109 85.66207122802734 C 68.31655883789062 83.5479736328125 72.80653381347656 80.52040100097656 76.66348266601562 76.6634521484375 C 80.52041625976562 72.8065185546875 83.54798126220703 68.31653594970703 85.66207885742188 63.31825256347656 C 87.84974670410156 58.14603805541992 88.95897674560547 52.64888763427734 88.95897674560547 46.97948837280273 C 88.95897674560547 41.31008911132812 87.84974670410156 35.81293869018555 85.66207885742188 30.64072036743164 C 83.54798126220703 25.64241790771484 80.52041625976562 21.15245819091797 76.66348266601562 17.29550170898438 C 72.80653381347656 13.43856811523438 68.31655883789062 10.41100311279297 63.31826019287109 8.296905517578125 C 58.14604568481445 6.109237670898438 52.64889526367188 5.000007629394531 46.97949600219727 5.000007629394531 M 46.97949600219727 7.62939453125e-06 C 72.92554473876953 7.62939453125e-06 93.95897674560547 21.03343963623047 93.95897674560547 46.97948837280273 C 93.95897674560547 72.92552185058594 72.92554473876953 93.95896911621094 46.97949600219727 93.95896911621094 C 21.033447265625 93.95896911621094 1.52587890625e-05 72.92552185058594 1.52587890625e-05 46.97948837280273 C 1.52587890625e-05 21.03343963623047 21.033447265625 7.62939453125e-06 46.97949600219727 7.62939453125e-06 Z" stroke="none" fill="#fff"/>
          </g>
        </g>
      </g>
    </g>
    <g id="jardineria_1_" data-name="jardineria (1)" transform="translate(640.333 326.999)">
      <path id="Trazado_992819" data-name="Trazado 992819" d="M311.46,253.706l1.211.214a3.888,3.888,0,0,0,2.734-.531l4.669-2.916a7.774,7.774,0,0,0,3.538-5.243l1.846-10.467-10.336-1.822-10.335-1.823-1.846,10.467a7.775,7.775,0,0,0,1.531,6.138l3.39,4.337a3.886,3.886,0,0,0,2.387,1.434Zm0,0" transform="translate(-268.179 -204.675)" fill="#e1ebef"/>
      <path id="Trazado_992820" data-name="Trazado 992820" d="M309.53,286.728c4.01-1.8,6.2-8.447,6.2-8.447s-6.541-2.489-10.466-.511a5.15,5.15,0,0,0-1.79,1.466l-.527,2.987a7.772,7.772,0,0,0,.092,3.137C304.206,286.374,306.686,288,309.53,286.728Zm0,0" transform="translate(-268.185 -245.314)" fill="#c4d3d6"/>
      <path id="Trazado_992821" data-name="Trazado 992821" d="M356.361,257.668l-1.558,8.84a7.774,7.774,0,0,1-3.538,5.243l-4.669,2.916a3.888,3.888,0,0,1-2.734.531l-1.211-.213-1.042-.184.6.77a3.888,3.888,0,0,0,2.388,1.435l1.211.213,1.211.214a3.886,3.886,0,0,0,2.734-.531l4.669-2.916a7.774,7.774,0,0,0,3.538-5.243l1.846-10.467Zm0,0" transform="translate(-302.528 -228.189)" fill="#c4d3d6"/>
      <path id="Trazado_992822" data-name="Trazado 992822" d="M391.574,181.623l-2.584-.455-1.249,7.081,2.584.456,2.584.455,1.249-7.081Zm0,0" transform="translate(-343.383 -160.44)" fill="#e1ebef"/>
      <path id="Trazado_992823" data-name="Trazado 992823" d="M392.627,186.773l-.827,4.689a.972.972,0,0,1-1.126.788l-1.627-.286L388,191.778l-.253,1.435,2.584.456,2.584.455,1.249-7.081Zm0,0" transform="translate(-343.383 -165.404)" fill="#c4d3d6"/>
      <path id="Trazado_992824" data-name="Trazado 992824" d="M403.721,58.659l-2.584-.456-2.481,14.068,2.584.455,2.584.456L406.3,59.114Zm0,0" transform="translate(-353.049 -51.543)" fill="#ffd432"/>
      <path id="Trazado_992825" data-name="Trazado 992825" d="M401.14,58.2l-.253,1.435,2.68.472a.972.972,0,0,1,.788,1.126l-1.637,9.283a.972.972,0,0,1-1.126.788l-2.68-.472-.253,1.435,5.167.911,2.481-14.068Zm0,0" transform="translate(-353.052 -51.543)" fill="#f4ac03"/>
      <path id="Trazado_992826" data-name="Trazado 992826" d="M402.095,12.318l.456-2.584L390.3,7.574l-.456,2.584-.455,2.584L401.64,14.9Zm0,0" transform="translate(-344.843 -6.707)" fill="#64aef7"/>
      <path id="Trazado_992827" data-name="Trazado 992827" d="M400.732,23.652l-.422,2.393a.971.971,0,0,1-1.126.788l-9.474-1.67-.32,1.818,12.249,2.16.911-5.168Zm0,0" transform="translate(-344.843 -20.945)" fill="#0a86e3"/>
      <path id="Trazado_992828" data-name="Trazado 992828" d="M54.711,404.264h9.7A4.855,4.855,0,0,0,57.9,399.7a8.551,8.551,0,0,0-8.583-3.883,5.43,5.43,0,0,0-10-1.877,4.5,4.5,0,0,0-6.649,0,5.43,5.43,0,0,0-10,1.877,8.644,8.644,0,0,0-1.352-.107,8.54,8.54,0,0,0-7.231,3.99,4.855,4.855,0,0,0-6.517,4.559Zm0,0" transform="translate(-6.708 -346.555)" fill="#a77554"/>
      <path id="Trazado_992829" data-name="Trazado 992829" d="M59.563,399.411a4.849,4.849,0,0,0-1.665.293,8.547,8.547,0,0,0-8.583-3.883,5.429,5.429,0,0,0-9.985-1.894,8.549,8.549,0,0,1,6.206,3.928,4.859,4.859,0,0,1,5.889,2.17A1.613,1.613,0,0,1,50,402.415H7.94a4.835,4.835,0,0,0-.366,1.848H64.416a4.852,4.852,0,0,0-4.852-4.852Zm0,0" transform="translate(-6.707 -346.555)" fill="#915431"/>
      <path id="Trazado_992830" data-name="Trazado 992830" d="M119.682,252.831s-2.941,3.475-6.518,1.869c-3.63-1.629-5.612-7.646-5.612-7.646s5.921-2.253,9.474-.462C120.526,248.357,119.682,252.831,119.682,252.831Zm0,0" transform="translate(-95.246 -217.768)" fill="#6ec030"/>
      <path id="Trazado_992831" data-name="Trazado 992831" d="M149.739,247.9a6.116,6.116,0,0,0-1.564-.522c2.244,2.032,1.59,5.509,1.59,5.509s-2.283,2.7-5.273,2.241a6.116,6.116,0,0,0,1.386.881c3.577,1.606,6.518-1.869,6.518-1.869S153.241,249.67,149.739,247.9Zm0,0" transform="translate(-127.961 -219.08)" fill="#378900"/>
      <path id="Trazado_992832" data-name="Trazado 992832" d="M297.722,267.979s2.941,3.476,6.518,1.87c3.629-1.629,5.612-7.646,5.612-7.646s-5.921-2.253-9.474-.462c-3.5,1.765-2.657,6.239-2.657,6.239Zm0,0" transform="translate(-263.582 -231.183)" fill="#6ec030"/>
      <path id="Trazado_992833" data-name="Trazado 992833" d="M316.436,265.066c-.537,1.418-2.42,5.842-5.453,7.2a4.661,4.661,0,0,1-3.228.244,5.28,5.28,0,0,0,5.45.893c3.629-1.629,5.612-7.646,5.612-7.646A19.918,19.918,0,0,0,316.436,265.066Zm0,0" transform="translate(-272.546 -234.741)" fill="#378900"/>
      <path id="Trazado_992834" data-name="Trazado 992834" d="M222.015,138.352s4.39-1.046,4.39-4.968-4.39-8.665-4.39-8.665-4.39,4.751-4.39,8.665S222.015,138.352,222.015,138.352Zm0,0" transform="translate(-192.728 -110.45)" fill="#6ec030"/>
      <path id="Trazado_992835" data-name="Trazado 992835" d="M223.169,125.234a11.478,11.478,0,0,1,2.142,5.717,4.729,4.729,0,0,1-2.381,4.077,3.752,3.752,0,0,1-4.031-.009l-.032-.02c.749,2.971,4.248,3.808,4.248,3.808s4.39-1.047,4.39-4.968C227.506,130.18,223.667,125.789,223.169,125.234Zm0,0" transform="translate(-193.828 -110.906)" fill="#378900"/>
      <path id="Trazado_992836" data-name="Trazado 992836" d="M167.555,427.172a2.949,2.949,0,0,0-2.946,2.946.867.867,0,1,0,1.733,0,1.213,1.213,0,0,1,2.426,0,.867.867,0,1,0,1.733,0,2.95,2.95,0,0,0-2.946-2.946Zm0,0" transform="translate(-145.777 -378.301)"/>
      <path id="Trazado_992837" data-name="Trazado 992837" d="M284.7,446.359a2.949,2.949,0,0,0-2.946,2.946.867.867,0,1,0,1.733,0,1.213,1.213,0,0,1,2.426,0,.867.867,0,1,0,1.733,0A2.949,2.949,0,0,0,284.7,446.359Zm0,0" transform="translate(-249.517 -395.293)"/>
      <path id="Trazado_992838" data-name="Trazado 992838" d="M407.855,472.8a.693.693,0,1,1-.693-.693A.693.693,0,0,1,407.855,472.8Zm0,0" transform="translate(-359.967 -418.098)"/>
      <path id="Trazado_992839" data-name="Trazado 992839" d="M112.976,456.647a.693.693,0,1,1-.693-.693A.693.693,0,0,1,112.976,456.647Zm0,0" transform="translate(-98.823 -403.79)"/>
      <path id="Trazado_992840" data-name="Trazado 992840" d="M52.856,51.99a5.745,5.745,0,0,0-1.305.15,9.386,9.386,0,0,0-3.5-2.918l4.307-2.69A8.654,8.654,0,0,0,56.286,40.7l1.846-10.467a.867.867,0,0,0-.7-1l-1.566-.276a.866.866,0,1,0-.3,1.707l.713.126-1.7,9.613a6.918,6.918,0,0,1-3.143,4.659l-4.67,2.916a3.034,3.034,0,0,1-1.272.441,9.495,9.495,0,0,0-1.535-.125q-.345,0-.691.025a6.276,6.276,0,0,0-5.161-4.358l-1.132-1.448a6.869,6.869,0,0,1-1.422-3.469,6.344,6.344,0,0,0,3.172.913h0a5.553,5.553,0,0,0,2.286-.5c3.933-1.766,5.995-7.9,6.081-8.165a.867.867,0,0,0-.515-1.081A20.337,20.337,0,0,0,40.212,29a8.976,8.976,0,0,0-3.273.551l.371-2.1,6.9,1.216h0l5.167.911h0l2.262.4a.867.867,0,1,0,.3-1.707l-1.409-.248,1.1-6.228,2.33-13.214,2.688.474a.883.883,0,0,0,.151.013.867.867,0,0,0,.853-.716l.911-5.168a.867.867,0,0,0-.7-1L45.61.015a.867.867,0,0,0-1,.7l-.911,5.167a.866.866,0,0,0,.7,1l2.688.474-.458,2.6a.866.866,0,1,0,1.706.3l.458-2.6,3.461.61-2.179,12.36-3.461-.61L47.621,14.3a.866.866,0,1,0-1.707-.3l-1.159,6.575-1.1,6.228-6.9-1.216a.866.866,0,0,0-1,.7l-.8,4.524A6.971,6.971,0,0,0,33.2,36.249a10.713,10.713,0,0,0-3.05,2.16V28.544c1.807-.649,4.39-2.39,4.39-5.61,0-4.2-4.432-9.049-4.62-9.253a.866.866,0,0,0-1.273,0c-.189.2-4.62,5.048-4.62,9.253,0,3.22,2.583,4.961,4.39,5.61v8.132a10.725,10.725,0,0,0-3.05-2.16c.106-1.478-.029-4.865-3.2-6.465a8.429,8.429,0,0,0-3.8-.784A20.337,20.337,0,0,0,12,28.477a.867.867,0,0,0-.515,1.081c.086.261,2.148,6.4,6.081,8.165a5.556,5.556,0,0,0,2.287.5,7.3,7.3,0,0,0,4.8-2.133,9.941,9.941,0,0,1,3.775,3.277V45.13a5.4,5.4,0,0,0-2.319.976,6.3,6.3,0,0,0-10.8,2.213c-.231-.017-.461-.026-.69-.026A9.367,9.367,0,0,0,7.025,52.14,5.724,5.724,0,0,0,0,57.709a.866.866,0,0,0,.867.867H57.708a.866.866,0,0,0,.867-.867,5.725,5.725,0,0,0-5.719-5.719ZM46.161,1.872,56.7,3.731l-.61,3.461-2.688-.474-5.167-.911h0l-2.686-.474Zm.149,19.859,3.461.61-.948,5.375-3.461-.61ZM18.272,36.142c-2.488-1.117-4.181-4.7-4.839-6.319A17.848,17.848,0,0,1,18.363,29a6.739,6.739,0,0,1,3.025.6,4.47,4.47,0,0,1,2.275,4.135l-4.169-1.993a.867.867,0,0,0-.748,1.564L22.915,35.3a5.141,5.141,0,0,1-3.067,1.192,3.831,3.831,0,0,1-1.577-.348Zm21.94-5.41a17.919,17.919,0,0,1,4.931.825c-.656,1.62-2.345,5.2-4.839,6.318a3.837,3.837,0,0,1-1.577.348h0a5.162,5.162,0,0,1-3.063-1.195l4.164-1.99a.867.867,0,0,0-.747-1.564l-4.163,1.99a4.489,4.489,0,0,1,2.269-4.133,6.744,6.744,0,0,1,3.025-.6Zm-6.424,7.158a8.579,8.579,0,0,0,1.823,5.688l.357.456a6.226,6.226,0,0,0-3.5,2.07,5.394,5.394,0,0,0-2.318-.976V41.1a10.018,10.018,0,0,1,3.634-3.209ZM25.764,22.934c0-2.667,2.359-5.9,3.524-7.33,1.166,1.431,3.523,4.657,3.523,7.33a4.164,4.164,0,0,1-2.657,3.728V23.281a.867.867,0,1,0-1.733,0v3.376a4.183,4.183,0,0,1-2.657-3.723ZM1.828,56.843a3.99,3.99,0,0,1,5.259-2.878.866.866,0,0,0,1.03-.351,7.651,7.651,0,0,1,6.5-3.587,7.758,7.758,0,0,1,1.216.1.867.867,0,0,0,.99-.708,4.564,4.564,0,0,1,8.4-1.577.866.866,0,0,0,1.38.136,3.639,3.639,0,0,1,5.371,0,.866.866,0,0,0,1.38-.136,4.564,4.564,0,0,1,8.4,1.577.866.866,0,0,0,.99.708,7.758,7.758,0,0,1,1.216-.1,7.651,7.651,0,0,1,6.5,3.587.866.866,0,0,0,1.03.351,3.99,3.99,0,0,1,5.259,2.878Zm0,0" transform="translate(0 0)"/>
    </g>
  </g>
</svg>
