<svg xmlns="http://www.w3.org/2000/svg" xmlns:xlink="http://www.w3.org/1999/xlink" width="105.781" height="105.781" viewBox="0 0 105.781 105.781">
  <defs>
    <filter id="Trazado_985595" x="0" y="0" width="105.781" height="105.781" filterUnits="userSpaceOnUse">
      <feOffset dy="3" input="SourceAlpha"/>
      <feGaussianBlur stdDeviation="3" result="blur"/>
      <feFlood flood-opacity="0.161"/>
      <feComposite operator="in" in2="blur"/>
      <feComposite in="SourceGraphic"/>
    </filter>
  </defs>
  <g id="Grupo_1165450" data-name="Grupo 1165450" transform="translate(-1167.051 -2573)">
    <g id="Grupo_1163753" data-name="Grupo 1163753" transform="translate(-1 1464)">
      <g transform="matrix(1, 0, 0, 1, 1168.05, 1109)" filter="url(#Trazado_985595)">
        <g id="Trazado_985595-2" data-name="Trazado 985595" transform="translate(9 6)" fill="#f3d02c">
          <path d="M 43.8906364440918 85.28125762939453 C 38.30183792114258 85.28125762939453 32.88154220581055 84.18724060058594 27.78030395507812 82.02960205078125 C 22.85183715820312 79.94503021240234 18.42508888244629 76.96026611328125 14.62304973602295 73.15821838378906 C 10.82099628448486 69.35617828369141 7.836236476898193 64.92942810058594 5.751663208007812 60.00096130371094 C 3.59402322769165 54.89972305297852 2.500009775161743 49.47942733764648 2.500009775161743 43.89062881469727 C 2.500009775161743 38.30183029174805 3.59402322769165 32.88153457641602 5.751663208007812 27.78029632568359 C 7.836236476898193 22.85182952880859 10.82099628448486 18.42508125305176 14.62304973602295 14.62304210662842 C 18.42508888244629 10.82098865509033 22.85183715820312 7.836228847503662 27.78030395507812 5.751655578613281 C 32.88154220581055 3.594015598297119 38.30183792114258 2.500002145767212 43.8906364440918 2.500002145767212 C 49.47943496704102 2.500002145767212 54.89973068237305 3.594015598297119 60.00096893310547 5.751655578613281 C 64.92943572998047 7.836228847503662 69.35618591308594 10.82098865509033 73.15822601318359 14.62304210662842 C 76.96027374267578 18.42508125305176 79.94503784179688 22.85182952880859 82.02960968017578 27.78029632568359 C 84.18724822998047 32.88153457641602 85.28126525878906 38.30183029174805 85.28126525878906 43.89062881469727 C 85.28126525878906 49.47942733764648 84.18724822998047 54.89972305297852 82.02960968017578 60.00096130371094 C 79.94503784179688 64.92942810058594 76.96027374267578 69.35617828369141 73.15822601318359 73.15821838378906 C 69.35618591308594 76.96026611328125 64.92943572998047 79.94503021240234 60.00096893310547 82.02960205078125 C 54.89973068237305 84.18724060058594 49.47943496704102 85.28125762939453 43.8906364440918 85.28125762939453 Z" stroke="none"/>
          <path d="M 43.8906364440918 4.999992370605469 C 38.63823699951172 4.999992370605469 33.54560470581055 6.027565002441406 28.75418472290039 8.054161071777344 C 24.12371826171875 10.0126953125 19.96407318115234 12.81754302978516 16.39080047607422 16.39079284667969 C 12.81755065917969 19.96406555175781 10.01270294189453 24.12371063232422 8.054168701171875 28.75417709350586 C 6.027572631835938 33.54559707641602 5 38.63822937011719 5 43.89062881469727 C 5 49.14302825927734 6.027572631835938 54.23566055297852 8.054168701171875 59.02707672119141 C 10.01270294189453 63.65754699707031 12.81755065917969 67.81719970703125 16.39080047607422 71.39046478271484 C 19.96407318115234 74.96371459960938 24.12371826171875 77.76856231689453 28.75418472290039 79.72709655761719 C 33.54560470581055 81.75369262695312 38.63823699951172 82.78126525878906 43.8906364440918 82.78126525878906 C 49.14303588867188 82.78126525878906 54.23566818237305 81.75369262695312 59.02708435058594 79.72709655761719 C 63.65755462646484 77.76856231689453 67.81719970703125 74.96371459960938 71.39047241210938 71.39046478271484 C 74.96372222900391 67.81719970703125 77.76856994628906 63.65754699707031 79.72710418701172 59.02707672119141 C 81.75370025634766 54.23566055297852 82.78127288818359 49.14302825927734 82.78127288818359 43.89062881469727 C 82.78127288818359 38.63822937011719 81.75370025634766 33.54559707641602 79.72710418701172 28.75417709350586 C 77.76856994628906 24.12371063232422 74.96372222900391 19.96406555175781 71.39047241210938 16.39079284667969 C 67.81719970703125 12.81754302978516 63.65755462646484 10.0126953125 59.02708435058594 8.054161071777344 C 54.23566818237305 6.027565002441406 49.14303588867188 4.999992370605469 43.8906364440918 4.999992370605469 M 43.8906364440918 -7.62939453125e-06 C 68.13075256347656 -7.62939453125e-06 87.78127288818359 19.6505126953125 87.78127288818359 43.89062881469727 C 87.78127288818359 68.13074493408203 68.13075256347656 87.78126525878906 43.8906364440918 87.78126525878906 C 19.65052032470703 87.78126525878906 0 68.13074493408203 0 43.89062881469727 C 0 19.6505126953125 19.65052032470703 -7.62939453125e-06 43.8906364440918 -7.62939453125e-06 Z" stroke="none" fill="#fff"/>
        </g>
      </g>
    </g>
    <g id="codigo" transform="translate(1195.551 2580.157)">
      <g id="Grupo_1165449" data-name="Grupo 1165449" transform="translate(1.14 20.129)">
        <g id="Grupo_1165441" data-name="Grupo 1165441" transform="translate(18.089 37.346)">
          <path id="Trazado_991726" data-name="Trazado 991726" d="M194.937,410.536H206.7v6.856H194.937Z" transform="translate(-194.937 -410.536)" fill="#375d78" fill-rule="evenodd"/>
        </g>
        <g id="Grupo_1165442" data-name="Grupo 1165442" transform="translate(27.233 37.346)">
          <path id="Trazado_991727" data-name="Trazado 991727" d="M289.877,410.536H292.5v6.856h-2.619Z" transform="translate(-289.877 -410.536)" fill="#2f4f66" fill-rule="evenodd"/>
        </g>
        <g id="Grupo_1165443" data-name="Grupo 1165443" transform="translate(0 6.115)">
          <path id="Trazado_991728" data-name="Trazado 991728" d="M7.144,86.3H55.085v31.231H7.144Z" transform="translate(-7.144 -86.296)" fill="#77e4f2" fill-rule="evenodd"/>
        </g>
        <g id="Grupo_1165444" data-name="Grupo 1165444" transform="translate(0 33.474)">
          <path id="Trazado_991729" data-name="Trazado 991729" d="M55.085,370.331H7.144V374.2H55.085Z" transform="translate(-7.144 -370.331)" fill="#407093" fill-rule="evenodd"/>
        </g>
        <g id="Grupo_1165445" data-name="Grupo 1165445" transform="translate(2.674 6.558)">
          <path id="Trazado_991730" data-name="Trazado 991730" d="M34.9,90.9h42.59v23.918H34.9Z" transform="translate(-34.905 -90.898)" fill="#f1f1f9" fill-rule="evenodd"/>
        </g>
        <g id="Grupo_1165446" data-name="Grupo 1165446" transform="translate(2.674 0)">
          <path id="Trazado_991731" data-name="Trazado 991731" d="M34.9,22.811h42.59v6.558H34.9Z" transform="translate(-34.905 -22.811)" fill="#31a7fb" fill-rule="evenodd"/>
        </g>
        <g id="Grupo_1165447" data-name="Grupo 1165447" transform="translate(24.39 9.486)">
          <path id="Trazado_991732" data-name="Trazado 991732" d="M270.819,121.428v1.458a7.444,7.444,0,0,1,2.531,1.047l1.029-1.029a8.99,8.99,0,0,1,2.193,2.19l-1.032,1.032a7.4,7.4,0,0,1,1.05,2.528h1.458a9.018,9.018,0,0,1,0,3.1H276.59a7.439,7.439,0,0,1-1.05,2.531l1.032,1.029a8.94,8.94,0,0,1-2.193,2.19l-1.029-1.029a7.446,7.446,0,0,1-2.531,1.05v1.455a8.815,8.815,0,0,1-3.1,0v-1.455a7.471,7.471,0,0,1-2.531-1.05l-1.029,1.029a8.939,8.939,0,0,1-2.193-2.19L263,134.282a7.4,7.4,0,0,1-1.05-2.528h-1.458a9.018,9.018,0,0,1,0-3.1h1.458a7.4,7.4,0,0,1,1.05-2.528l-1.032-1.032a8.989,8.989,0,0,1,2.193-2.19l1.029,1.029a7.466,7.466,0,0,1,2.531-1.047v-1.458a9.005,9.005,0,0,1,3.1,0Z" transform="translate(-260.359 -121.294)" fill="#fd4755" fill-rule="evenodd"/>
        </g>
        <g id="Grupo_1165448" data-name="Grupo 1165448" transform="translate(28.849 13.942)">
          <path id="Trazado_991733" data-name="Trazado 991733" d="M311.1,167.553a4.454,4.454,0,1,1-4.453,4.456A4.455,4.455,0,0,1,311.1,167.553Z" transform="translate(-306.649 -167.553)" fill="#fff" fill-rule="evenodd"/>
        </g>
      </g>
      <path id="Trazado_991734" data-name="Trazado 991734" d="M49,25.938h-1.95V20.561a.718.718,0,0,0-.718-.718H3.883a.718.718,0,0,0-.718.718v5.377H1.218a.718.718,0,0,0-.718.718v31.13a.718.718,0,0,0,.718.718H18.53v5.4H14.519a.718.718,0,1,0,0,1.436H35.7a.718.718,0,1,0,0-1.436H31.691V58.5H49a.718.718,0,0,0,.718-.718V26.656A.718.718,0,0,0,49,25.938ZM4.6,27.816H45.616v22.4H4.6Zm0-6.537H45.616v5.1H4.6Zm-1.436,6.1V50.938a.718.718,0,0,0,.718.718H46.334a.718.718,0,0,0,.718-.718V27.374h1.232V53.208H1.936V27.374ZM30.255,63.9H19.966V58.5H30.255ZM1.936,57.068V54.644H48.285v2.424H1.936ZM9.211,23.831a.718.718,0,0,1-.718.718H8.458a.718.718,0,1,1,0-1.436h.035A.718.718,0,0,1,9.211,23.831Zm33.269,0a.718.718,0,0,1-.718.718H20.236a.718.718,0,1,1,0-1.436H41.762A.718.718,0,0,1,42.48,23.831Zm-30.819,0a.718.718,0,0,1-.718.718h-.035a.718.718,0,1,1,0-1.436h.035A.718.718,0,0,1,11.661,23.831Zm2.45,0a.718.718,0,0,1-.718.718h-.035a.718.718,0,1,1,0-1.436h.035A.718.718,0,0,1,14.112,23.831ZM6.419,35.189a.718.718,0,0,1,0-1.016L9.288,31.3A.718.718,0,1,1,10.3,32.32L7.942,34.681,10.3,37.039a.718.718,0,1,1-1.015,1.016ZM16.473,32.32A.718.718,0,0,1,17.488,31.3l2.869,2.869a.718.718,0,0,1,0,1.016l-2.869,2.866a.718.718,0,0,1-1.015-1.016l2.361-2.358ZM11.34,37.514l2.785-6.252a.718.718,0,1,1,1.312.584L12.651,38.1a.718.718,0,0,1-1.312-.584Zm31.82-.879h-.892a8.047,8.047,0,0,0-.7-1.692l.632-.632a.718.718,0,0,0,.08-.92,9.65,9.65,0,0,0-2.361-2.358.718.718,0,0,0-.92.08l-.63.63a8.091,8.091,0,0,0-1.694-.7V30.15a.718.718,0,0,0-.595-.707,9.739,9.739,0,0,0-3.334,0,.718.718,0,0,0-.595.707v.892a8.094,8.094,0,0,0-1.694.7l-.63-.63a.718.718,0,0,0-.92-.08,9.647,9.647,0,0,0-2.361,2.358.718.718,0,0,0,.08.92l.632.632a8.043,8.043,0,0,0-.7,1.692h-.892a.718.718,0,0,0-.707.6,9.708,9.708,0,0,0,0,3.335.718.718,0,0,0,.707.6h.892a8.04,8.04,0,0,0,.7,1.692l-.632.632a.718.718,0,0,0-.08.92,9.588,9.588,0,0,0,2.362,2.359.718.718,0,0,0,.919-.081l.629-.629a8.111,8.111,0,0,0,1.694.7v.89a.718.718,0,0,0,.591.707,9.508,9.508,0,0,0,3.342,0,.718.718,0,0,0,.591-.707v-.89a8.1,8.1,0,0,0,1.694-.7l.629.629a.718.718,0,0,0,.919.081A9.588,9.588,0,0,0,42.277,44.4a.718.718,0,0,0-.08-.92l-.632-.632a8.053,8.053,0,0,0,.7-1.692h.892a.718.718,0,0,0,.707-.6,9.7,9.7,0,0,0,0-3.335.718.718,0,0,0-.708-.6Zm-.626,3.09h-.827a.718.718,0,0,0-.7.57,6.631,6.631,0,0,1-.945,2.275.718.718,0,0,0,.093.9l.587.587a8.142,8.142,0,0,1-1.17,1.168l-.585-.585a.718.718,0,0,0-.9-.093,6.692,6.692,0,0,1-2.279.945.718.718,0,0,0-.569.7v.827a8.152,8.152,0,0,1-1.651,0v-.827a.718.718,0,0,0-.569-.7,6.69,6.69,0,0,1-2.279-.945.718.718,0,0,0-.9.093l-.585.585a8.142,8.142,0,0,1-1.17-1.168l.587-.587a.718.718,0,0,0,.093-.9,6.635,6.635,0,0,1-.945-2.275.718.718,0,0,0-.7-.57h-.827a8.25,8.25,0,0,1-.042-.825c0-.275.014-.552.042-.828h.827a.718.718,0,0,0,.7-.57,6.635,6.635,0,0,1,.945-2.275.718.718,0,0,0-.093-.9l-.587-.587a8.2,8.2,0,0,1,1.17-1.168l.584.584a.718.718,0,0,0,.9.094,6.679,6.679,0,0,1,2.279-.943.718.718,0,0,0,.571-.7v-.828a8.265,8.265,0,0,1,1.651,0V31.6a.718.718,0,0,0,.571.7,6.679,6.679,0,0,1,2.279.943.718.718,0,0,0,.9-.094l.584-.584a8.2,8.2,0,0,1,1.17,1.168l-.587.587a.718.718,0,0,0-.093.9A6.636,6.636,0,0,1,41,37.5a.718.718,0,0,0,.7.57h.827a8.271,8.271,0,0,1,.042.828c0,.274-.014.55-.042.825Zm-8.123-5.985A5.158,5.158,0,1,0,39.571,38.9,5.165,5.165,0,0,0,34.411,33.739Zm0,8.88a3.722,3.722,0,1,1,3.723-3.72A3.726,3.726,0,0,1,34.411,42.619ZM22.378,41.244a.718.718,0,0,1-.718.718H6.927a.718.718,0,1,1,0-1.436H21.66A.718.718,0,0,1,22.378,41.244Zm0,2.872a.718.718,0,0,1-.718.718H6.927a.718.718,0,1,1,0-1.436H21.66A.718.718,0,0,1,22.378,44.116ZM15.01,46.991a.718.718,0,0,1-.718.718H6.927a.718.718,0,1,1,0-1.436h7.365A.718.718,0,0,1,15.01,46.991Z"/>
    </g>
  </g>
</svg>
