<svg xmlns="http://www.w3.org/2000/svg" width="93.959" height="93.959" viewBox="0 0 93.959 93.959">
  <g id="Grupo_1165460" data-name="Grupo 1165460" transform="translate(-207.051 -3259)">
    <g id="Grupo_1163757" data-name="Grupo 1163757" transform="translate(-522.224 2157.913)">
      <g id="Grupo_1151642" data-name="Grupo 1151642" transform="translate(729.274 1101.087)">
        <g id="Grupo_1103990" data-name="Grupo 1103990" transform="translate(0)">
          <g id="Trazado_874102" data-name="Trazado 874102" transform="translate(0)" fill="#f9f7f4">
            <path d="M 46.97949600219727 91.45897674560547 C 40.97370910644531 91.45897674560547 35.14888000488281 90.28328704833984 29.66683959960938 87.96457672119141 C 24.37055397033691 85.72444915771484 19.61348152160645 82.51696014404297 15.52775287628174 78.43122863769531 C 11.44202423095703 74.34550476074219 8.234539031982422 69.58843231201172 5.994410514831543 64.29214477539062 C 3.675695896148682 58.81010437011719 2.500010251998901 52.98527526855469 2.500010251998901 46.97948837280273 C 2.500010251998901 40.97369003295898 3.675695896148682 35.14887237548828 5.994410514831543 29.66683197021484 C 8.234539031982422 24.37054634094238 11.44202423095703 19.61346054077148 15.52775287628174 15.52774524688721 C 19.61348152160645 11.4420166015625 24.37055397033691 8.234531402587891 29.66683959960938 5.994388580322266 C 35.14888000488281 3.67568826675415 40.97370910644531 2.50000262260437 46.97949600219727 2.50000262260437 C 52.98529434204102 2.50000262260437 58.81011199951172 3.67568826675415 64.29215240478516 5.994388580322266 C 69.58843994140625 8.234531402587891 74.34552764892578 11.4420166015625 78.43123626708984 15.52774524688721 C 82.5169677734375 19.61346054077148 85.72445678710938 24.37054634094238 87.964599609375 29.66683197021484 C 90.28329467773438 35.14887237548828 91.458984375 40.97369003295898 91.458984375 46.97948837280273 C 91.458984375 52.98527526855469 90.28329467773438 58.81010437011719 87.964599609375 64.29214477539062 C 85.72445678710938 69.58843231201172 82.5169677734375 74.34550476074219 78.43123626708984 78.43122863769531 C 74.34552764892578 82.51696014404297 69.58843994140625 85.72444915771484 64.29215240478516 87.96457672119141 C 58.81011199951172 90.28328704833984 52.98529434204102 91.45897674560547 46.97949600219727 91.45897674560547 Z" stroke="none"/>
            <path d="M 46.97949600219727 5.000007629394531 C 41.31009674072266 5.000007629394531 35.81294631958008 6.109237670898438 30.64072799682617 8.296905517578125 C 25.64242553710938 10.41100311279297 21.1524658203125 13.43856811523438 17.29550933837891 17.29550170898438 C 13.43857574462891 21.15245819091797 10.4110107421875 25.64241790771484 8.296913146972656 30.64072036743164 C 6.109245300292969 35.81293869018555 5.000015258789062 41.31008911132812 5.000015258789062 46.97948837280273 C 5.000015258789062 52.64888763427734 6.109245300292969 58.14603805541992 8.296913146972656 63.31825256347656 C 10.4110107421875 68.31653594970703 13.43857574462891 72.8065185546875 17.29550933837891 76.6634521484375 C 21.1524658203125 80.52040100097656 25.64242553710938 83.5479736328125 30.64072799682617 85.66207122802734 C 35.81294631958008 87.84973907470703 41.31009674072266 88.95896911621094 46.97949600219727 88.95896911621094 C 52.64889526367188 88.95896911621094 58.14604568481445 87.84973907470703 63.31826019287109 85.66207122802734 C 68.31655883789062 83.5479736328125 72.80653381347656 80.52040100097656 76.66348266601562 76.6634521484375 C 80.52041625976562 72.8065185546875 83.54798126220703 68.31653594970703 85.66207885742188 63.31825256347656 C 87.84974670410156 58.14603805541992 88.95897674560547 52.64888763427734 88.95897674560547 46.97948837280273 C 88.95897674560547 41.31008911132812 87.84974670410156 35.81293869018555 85.66207885742188 30.64072036743164 C 83.54798126220703 25.64241790771484 80.52041625976562 21.15245819091797 76.66348266601562 17.29550170898438 C 72.80653381347656 13.43856811523438 68.31655883789062 10.41100311279297 63.31826019287109 8.296905517578125 C 58.14604568481445 6.109237670898438 52.64889526367188 5.000007629394531 46.97949600219727 5.000007629394531 M 46.97949600219727 7.62939453125e-06 C 72.92554473876953 7.62939453125e-06 93.95897674560547 21.03343963623047 93.95897674560547 46.97948837280273 C 93.95897674560547 72.92552185058594 72.92554473876953 93.95896911621094 46.97949600219727 93.95896911621094 C 21.033447265625 93.95896911621094 1.52587890625e-05 72.92552185058594 1.52587890625e-05 46.97948837280273 C 1.52587890625e-05 21.03343963623047 21.033447265625 7.62939453125e-06 46.97949600219727 7.62939453125e-06 Z" stroke="none" fill="#fff"/>
          </g>
        </g>
      </g>
    </g>
    <g id="granja" transform="translate(224.051 3238.572)">
      <g id="Grupo_1165458" data-name="Grupo 1165458" transform="translate(0.894 43.321)">
        <g id="Grupo_1165457" data-name="Grupo 1165457" transform="translate(0 0)">
          <g id="Grupo_1165456" data-name="Grupo 1165456">
            <g id="Grupo_1165455" data-name="Grupo 1165455">
              <path id="Trazado_991735" data-name="Trazado 991735" d="M31.154,246.2a1.075,1.075,0,0,1,.45-.873l4.554-3.25.126-.237H29.619a1.191,1.191,0,0,0-.692.222l-4.439,3.168a1.192,1.192,0,0,0-.5.97v5.465h7.047l.119-.223V246.2Z" transform="translate(-22.023 -218.967)" fill="#fe646f"/>
              <path id="Trazado_991736" data-name="Trazado 991736" d="M93.614,253.317V246.2a1.192,1.192,0,0,0-.5-.97l-4.749-3.39-4.749,3.39a1.192,1.192,0,0,0-.5.97v5.466A32.71,32.71,0,0,1,93.614,253.317Z" transform="translate(-74.105 -218.966)" fill="#fd4755"/>
              <g id="Grupo_1165451" data-name="Grupo 1165451" transform="translate(16.267 24.303)">
                <path id="Trazado_991737" data-name="Trazado 991737" d="M146.743,255.814,144,253.857v9.151a29.529,29.529,0,0,1,3.242.9v-7.121A1.192,1.192,0,0,0,146.743,255.814Z" transform="translate(-144 -253.857)" fill="#fb2b3a"/>
              </g>
              <path id="Trazado_991738" data-name="Trazado 991738" d="M115.867,288.718h-2.156a.6.6,0,0,0-.6.6v3.823a32.721,32.721,0,0,1,3.347.508v-4.331A.6.6,0,0,0,115.867,288.718Z" transform="translate(-100.528 -260.26)" fill="#fff"/>
              <g id="Grupo_1165452" data-name="Grupo 1165452" transform="translate(41.445)">
                <path id="Trazado_991739" data-name="Trazado 991739" d="M364.9,50.086a1.807,1.807,0,0,0-1.478,0,13.78,13.78,0,0,0,.191,25.241,1.39,1.39,0,0,0,1.1,0,13.78,13.78,0,0,0,.191-25.241Z" transform="translate(-355.27 -49.928)" fill="#8bc727"/>
                <path id="Trazado_991740" data-name="Trazado 991740" d="M404.789,50.086a1.807,1.807,0,0,0-1.478,0c-.241.108-.477.224-.711.346A13.774,13.774,0,0,1,400.555,73.6a13.775,13.775,0,0,0,2.947,1.73,1.39,1.39,0,0,0,1.1,0,13.78,13.78,0,0,0,.191-25.241Z" transform="translate(-395.158 -49.928)" fill="#81b823"/>
              </g>
              <g id="Grupo_1165454" data-name="Grupo 1165454" transform="translate(11.448 4.02)">
                <path id="Trazado_991741" data-name="Trazado 991741" d="M266.863,114.771a1.777,1.777,0,0,0-1.478,0,12.04,12.04,0,0,0,.191,21.982,1.37,1.37,0,0,0,1.1,0,12.04,12.04,0,0,0,.191-21.982Z" transform="translate(-239.907 -110.922)" fill="#a2e62e"/>
                <path id="Trazado_991742" data-name="Trazado 991742" d="M307.4,114.771a1.777,1.777,0,0,0-1.478,0,12.023,12.023,0,0,0-1.547.852,12.034,12.034,0,0,1,0,20.19,12.015,12.015,0,0,0,1.738.939,1.37,1.37,0,0,0,1.1,0,12.04,12.04,0,0,0,.192-21.982Z" transform="translate(-280.439 -110.922)" fill="#97d729"/>
                <g id="Grupo_1165453" data-name="Grupo 1165453">
                  <circle id="Elipse_11797" data-name="Elipse 11797" cx="4.316" cy="4.316" r="4.316" fill="#fedf30"/>
                  <path id="Trazado_991743" data-name="Trazado 991743" d="M115.166,83.96a4.315,4.315,0,0,1-3.4,6.969,4.351,4.351,0,0,1-.544-.035,4.316,4.316,0,1,0,3.947-6.934Z" transform="translate(-110.306 -83.925)" fill="#fed402"/>
                </g>
              </g>
              <path id="Trazado_991744" data-name="Trazado 991744" d="M43.863,339.663H9.288A1.788,1.788,0,0,1,7.5,337.875V324.293A1.192,1.192,0,0,1,8.692,323.1H16.4C29.527,323.1,38.317,329.56,43.863,339.663Z" transform="translate(-7.5 -290.546)" fill="#a2e62e"/>
              <path id="Trazado_991745" data-name="Trazado 991745" d="M16.4,363.143H7.5v10a1.788,1.788,0,0,0,1.788,1.788H39.36C33.814,367.614,27.32,363.143,16.4,363.143Z" transform="translate(-7.5 -325.816)" fill="#97d729"/>
              <path id="Trazado_991746" data-name="Trazado 991746" d="M7.5,403.186v5.23A1.788,1.788,0,0,0,9.288,410.2H33.466c-5.106-4.442-8.777-7.018-17.065-7.018Z" transform="translate(-7.5 -361.087)" fill="#8bc727"/>
              <path id="Trazado_991747" data-name="Trazado 991747" d="M7.5,403.186v5.23A1.788,1.788,0,0,0,9.288,410.2H33.466c-5.106-4.442-8.777-7.018-17.065-7.018Z" transform="translate(-7.5 -361.087)" fill="#8bc727"/>
              <path id="Trazado_991748" data-name="Trazado 991748" d="M7.5,434.486v1.5a1.788,1.788,0,0,0,1.788,1.788H33.466a49.793,49.793,0,0,0-4.1-3.288Z" transform="translate(-7.5 -388.657)" fill="#81b823"/>
              <path id="Trazado_991749" data-name="Trazado 991749" d="M199.378,339.663h34.575a1.788,1.788,0,0,0,1.788-1.788V324.293a1.192,1.192,0,0,0-1.192-1.192H226.84C213.714,323.1,204.923,329.56,199.378,339.663Z" transform="translate(-176.511 -290.546)" fill="#a2e62e"/>
              <path id="Trazado_991750" data-name="Trazado 991750" d="M234.549,323.1h-2.132v11.487a1.788,1.788,0,0,1-1.788,1.788h-29.24q-1.069,1.57-2.011,3.288h34.575a1.788,1.788,0,0,0,1.788-1.788V324.293A1.192,1.192,0,0,0,234.549,323.1Z" transform="translate(-176.511 -290.546)" fill="#97d729"/>
              <path id="Trazado_991751" data-name="Trazado 991751" d="M248.934,374.933H277.6a1.788,1.788,0,0,0,1.788-1.788v-10h-8.9C259.571,363.143,254.481,367.614,248.934,374.933Z" transform="translate(-220.161 -325.816)" fill="#97d729"/>
              <path id="Trazado_991752" data-name="Trazado 991752" d="M276.066,363.143v6.715a1.788,1.788,0,0,1-1.788,1.788H251.586c-.89,1.019-1.766,2.116-2.653,3.287H277.6a1.788,1.788,0,0,0,1.788-1.788v-10Z" transform="translate(-220.16 -325.816)" fill="#8bc727"/>
              <path id="Trazado_991753" data-name="Trazado 991753" d="M303.109,410.2h22.213a1.788,1.788,0,0,0,1.788-1.788v-5.23h-8.9C309.921,403.186,308.215,405.762,303.109,410.2Z" transform="translate(-267.88 -361.087)" fill="#8bc727"/>
              <path id="Trazado_991754" data-name="Trazado 991754" d="M323.785,403.186v1.943A1.788,1.788,0,0,1,322,406.916H306.829c-1.12.938-2.286,2.039-3.721,3.288h22.213a1.788,1.788,0,0,0,1.788-1.788v-5.23Z" transform="translate(-267.879 -361.087)" fill="#81b823"/>
            </g>
          </g>
        </g>
      </g>
      <g id="Grupo_1165459" data-name="Grupo 1165459" transform="translate(0 42.427)">
        <path id="Trazado_991755" data-name="Trazado 991755" d="M101.27,86.585a5.21,5.21,0,1,0-5.21-5.21A5.216,5.216,0,0,0,101.27,86.585Zm0-8.633a3.423,3.423,0,1,1-3.423,3.423A3.427,3.427,0,0,1,101.27,77.952Z" transform="translate(-84.612 -72.143)"/>
        <path id="Trazado_991756" data-name="Trazado 991756" d="M133.174,44.951a.894.894,0,0,0,.894-.894v-.736a.894.894,0,1,0-1.788,0v.736A.894.894,0,0,0,133.174,44.951Z" transform="translate(-116.516 -42.427)"/>
        <path id="Trazado_991757" data-name="Trazado 991757" d="M132.28,177.054v.736a.894.894,0,0,0,1.788,0v-.736a.894.894,0,1,0-1.788,0Z" transform="translate(-116.516 -160.223)"/>
        <path id="Trazado_991758" data-name="Trazado 991758" d="M63.218,114.172h.737a.894.894,0,1,0,0-1.788h-.737a.894.894,0,0,0,0,1.788Z" transform="translate(-54.897 -104.047)"/>
        <path id="Trazado_991759" data-name="Trazado 991759" d="M196.057,113.278a.894.894,0,0,0,.894.894h.736a.894.894,0,1,0,0-1.788h-.736A.894.894,0,0,0,196.057,113.278Z" transform="translate(-172.692 -104.047)"/>
        <path id="Trazado_991760" data-name="Trazado 991760" d="M97.79,53.777a.894.894,0,0,0,1.548-.894l-.368-.638a.894.894,0,0,0-1.548.894Z" transform="translate(-85.706 -50.682)"/>
        <path id="Trazado_991761" data-name="Trazado 991761" d="M164.615,167.735a.894.894,0,0,0-.327,1.221l.368.638a.894.894,0,1,0,1.548-.894l-.368-.638A.894.894,0,0,0,164.615,167.735Z" transform="translate(-144.603 -152.696)"/>
        <path id="Trazado_991762" data-name="Trazado 991762" d="M72.78,144.39l-.638.368a.894.894,0,1,0,.894,1.548l.638-.368a.894.894,0,1,0-.894-1.548Z" transform="translate(-63.151 -132.134)"/>
        <path id="Trazado_991763" data-name="Trazado 991763" d="M188.407,79.56a.89.89,0,0,0,.446-.12l.638-.368a.894.894,0,1,0-.894-1.548l-.638.368a.894.894,0,0,0,.448,1.668Z" transform="translate(-165.165 -73.236)"/>
        <path id="Trazado_991764" data-name="Trazado 991764" d="M72.143,79.072l.638.368a.894.894,0,1,0,.894-1.548l-.638-.368a.894.894,0,0,0-.894,1.548Z" transform="translate(-63.151 -73.236)"/>
        <path id="Trazado_991765" data-name="Trazado 991765" d="M187.958,145.939l.638.368a.894.894,0,0,0,.894-1.548l-.638-.368a.894.894,0,1,0-.894,1.548Z" transform="translate(-165.165 -132.134)"/>
        <path id="Trazado_991766" data-name="Trazado 991766" d="M97.79,168.06l-.368.638a.894.894,0,1,0,1.548.894l.368-.638a.894.894,0,0,0-1.548-.894Z" transform="translate(-85.706 -152.694)"/>
        <path id="Trazado_991767" data-name="Trazado 991767" d="M164.615,54.1a.894.894,0,0,0,1.221-.327l.368-.638a.894.894,0,0,0-1.548-.894l-.368.638A.894.894,0,0,0,164.615,54.1Z" transform="translate(-144.603 -50.681)"/>
        <path id="Trazado_991768" data-name="Trazado 991768" d="M58.932,74.986H52.125V69.547l.007,0a14.673,14.673,0,0,0,.2-26.878,2.7,2.7,0,0,0-2.209,0,14.691,14.691,0,0,0-8.055,9.149,12.876,12.876,0,0,0-2.4-1.435,2.665,2.665,0,0,0-2.223,0,12.89,12.89,0,0,0-7.125,8.455.894.894,0,0,0,1.729.456,11.108,11.108,0,0,1,6.141-7.286.879.879,0,0,1,.733,0,11.145,11.145,0,0,1,.527,20.012v-3.4L42.3,65.767A.894.894,0,0,0,41.04,64.5l-1.588,1.588V63.02l2.2-2.2a.894.894,0,1,0-1.264-1.264l-.932.932v-3.3a.894.894,0,1,0-1.788,0v3.3l-.932-.932a.894.894,0,0,0-1.264,1.264l2.2,2.2v3.07L36.077,64.5a.894.894,0,1,0-1.264,1.264l2.852,2.852v3.4a11.134,11.134,0,0,1-5.934-8.864.894.894,0,1,0-1.78.16,12.924,12.924,0,0,0,7.7,10.679l.012,0v3.72A28.412,28.412,0,0,0,30.5,82.37,28.508,28.508,0,0,0,21.3,76.9V70.555a2.089,2.089,0,0,0-.874-1.7l-4.749-3.39a.894.894,0,0,0-.521-.166H8.49a2.073,2.073,0,0,0-1.211.388L2.839,68.857a2.089,2.089,0,0,0-.874,1.7v4.437A2.087,2.087,0,0,0,0,77.071V90.654a2.685,2.685,0,0,0,2.681,2.681H58.336a2.685,2.685,0,0,0,2.681-2.681V77.071A2.088,2.088,0,0,0,58.932,74.986ZM47.222,62.142a12.83,12.83,0,0,0-.157-1.994l3.273,3.273v4.154a13.052,13.052,0,0,1-3.447-2.527,12.915,12.915,0,0,0,.332-2.907Zm-3.655-9a12.9,12.9,0,0,1,7.29-8.844.915.915,0,0,1,.747,0,12.884,12.884,0,0,1,.52,23.277V63.421l3.3-3.3a.894.894,0,0,0-1.264-1.264l-2.038,2.038V57.013l2.551-2.551A.894.894,0,0,0,53.412,53.2l-1.287,1.287V50.392a.894.894,0,0,0-1.788,0v4.093L49.05,53.2a.894.894,0,0,0-1.264,1.264l2.551,2.551v3.879L48.3,58.855a.892.892,0,0,0-1.442.257,13,13,0,0,0-3.29-5.97ZM39.452,74l.012,0a12.937,12.937,0,0,0,6.828-7.043,14.794,14.794,0,0,0,4.038,2.593l.007,0V75a33.029,33.029,0,0,0-10.885,1.986ZM19.384,70.312a.3.3,0,0,1,.125.243v5.757q-.88-.258-1.788-.464v-3.47a1.491,1.491,0,0,0-1.49-1.49H14.076a1.491,1.491,0,0,0-1.49,1.49v2.709Q11.7,75.023,10.8,75V70.555a.3.3,0,0,1,.125-.243l4.23-3.019Zm-3.45,5.176q-.771-.132-1.56-.228V72.676h1.56ZM3.877,70.312l4.439-3.168a.3.3,0,0,1,.173-.055h3.874L9.886,68.857a2.089,2.089,0,0,0-.874,1.7v4.431H3.753V70.555a.3.3,0,0,1,.125-.243ZM2.086,76.773H9.794c7.681,0,14.2,2.3,19.4,6.828q-.914.91-1.773,1.915A24.743,24.743,0,0,0,19.555,81.2a.894.894,0,0,0-.562,1.7,22.992,22.992,0,0,1,7.3,4q-.9,1.174-1.738,2.462C20.574,86.293,16.7,84.53,9.794,84.53H1.788V81.545H9.794a33.014,33.014,0,0,1,5.28.4.9.9,0,0,0,.145.012.894.894,0,0,0,.143-1.776,34.792,34.792,0,0,0-5.567-.427H1.788V77.071a.3.3,0,0,1,.3-.3Zm-.3,13.88V86.317H9.794c6.522,0,10.007,1.606,13.816,4.581q-.189.321-.374.649H2.681a.9.9,0,0,1-.894-.894Zm49.435-13.88h7.709a.3.3,0,0,1,.3.3v2.687H52.317a.894.894,0,0,0,0,1.788H59.23V84.53H51.223c-7.613,0-10,2.144-13.952,5.7-.472.424-.961.863-1.485,1.322H31.492a30.49,30.49,0,0,1,6.475-6.379,20.514,20.514,0,0,1,10.258-3.5.894.894,0,1,0-.158-1.781c-8.823.78-13.64,4.864-18.842,11.656H25.3c5.867-9.806,14.58-14.774,25.92-14.774Zm7.113,14.774H38.475c3.875-3.482,5.826-5.23,12.748-5.23H59.23v4.336a.9.9,0,0,1-.894.894Z" transform="translate(0 -42.43)"/>
      </g>
    </g>
  </g>
</svg>
