<svg xmlns="http://www.w3.org/2000/svg" width="93.959" height="93.959" viewBox="0 0 93.959 93.959">
  <g id="Grupo_1165461" data-name="Grupo 1165461" transform="translate(-204.186 -4166.029)">
    <g id="Grupo_1163768" data-name="Grupo 1163768" transform="translate(-515.865 3714.029)">
      <g id="Grupo_1154510" data-name="Grupo 1154510" transform="translate(720.051 452)">
        <g id="Grupo_1103990" data-name="Grupo 1103990" transform="translate(0)">
          <g id="Trazado_874102" data-name="Trazado 874102" transform="translate(0)" fill="#f0f7e8">
            <path d="M 46.97949600219727 91.45897674560547 C 40.97370910644531 91.45897674560547 35.14888000488281 90.28328704833984 29.66683959960938 87.96457672119141 C 24.37055397033691 85.72444915771484 19.61348152160645 82.51696014404297 15.52775287628174 78.43122863769531 C 11.44202423095703 74.34550476074219 8.234539031982422 69.58843231201172 5.994410514831543 64.29214477539062 C 3.675695896148682 58.81010437011719 2.500010251998901 52.98527526855469 2.500010251998901 46.97948837280273 C 2.500010251998901 40.97369003295898 3.675695896148682 35.14887237548828 5.994410514831543 29.66683197021484 C 8.234539031982422 24.37054634094238 11.44202423095703 19.61346054077148 15.52775287628174 15.52774524688721 C 19.61348152160645 11.4420166015625 24.37055397033691 8.234531402587891 29.66683959960938 5.994388580322266 C 35.14888000488281 3.67568826675415 40.97370910644531 2.50000262260437 46.97949600219727 2.50000262260437 C 52.98529434204102 2.50000262260437 58.81011199951172 3.67568826675415 64.29215240478516 5.994388580322266 C 69.58843994140625 8.234531402587891 74.34552764892578 11.4420166015625 78.43123626708984 15.52774524688721 C 82.5169677734375 19.61346054077148 85.72445678710938 24.37054634094238 87.964599609375 29.66683197021484 C 90.28329467773438 35.14887237548828 91.458984375 40.97369003295898 91.458984375 46.97948837280273 C 91.458984375 52.98527526855469 90.28329467773438 58.81010437011719 87.964599609375 64.29214477539062 C 85.72445678710938 69.58843231201172 82.5169677734375 74.34550476074219 78.43123626708984 78.43122863769531 C 74.34552764892578 82.51696014404297 69.58843994140625 85.72444915771484 64.29215240478516 87.96457672119141 C 58.81011199951172 90.28328704833984 52.98529434204102 91.45897674560547 46.97949600219727 91.45897674560547 Z" stroke="none"/>
            <path d="M 46.97949600219727 5.000007629394531 C 41.31009674072266 5.000007629394531 35.81294631958008 6.109237670898438 30.64072799682617 8.296905517578125 C 25.64242553710938 10.41100311279297 21.1524658203125 13.43856811523438 17.29550933837891 17.29550170898438 C 13.43857574462891 21.15245819091797 10.4110107421875 25.64241790771484 8.296913146972656 30.64072036743164 C 6.109245300292969 35.81293869018555 5.000015258789062 41.31008911132812 5.000015258789062 46.97948837280273 C 5.000015258789062 52.64888763427734 6.109245300292969 58.14603805541992 8.296913146972656 63.31825256347656 C 10.4110107421875 68.31653594970703 13.43857574462891 72.8065185546875 17.29550933837891 76.6634521484375 C 21.1524658203125 80.52040100097656 25.64242553710938 83.5479736328125 30.64072799682617 85.66207122802734 C 35.81294631958008 87.84973907470703 41.31009674072266 88.95896911621094 46.97949600219727 88.95896911621094 C 52.64889526367188 88.95896911621094 58.14604568481445 87.84973907470703 63.31826019287109 85.66207122802734 C 68.31655883789062 83.5479736328125 72.80653381347656 80.52040100097656 76.66348266601562 76.6634521484375 C 80.52041625976562 72.8065185546875 83.54798126220703 68.31653594970703 85.66207885742188 63.31825256347656 C 87.84974670410156 58.14603805541992 88.95897674560547 52.64888763427734 88.95897674560547 46.97948837280273 C 88.95897674560547 41.31008911132812 87.84974670410156 35.81293869018555 85.66207885742188 30.64072036743164 C 83.54798126220703 25.64241790771484 80.52041625976562 21.15245819091797 76.66348266601562 17.29550170898438 C 72.80653381347656 13.43856811523438 68.31655883789062 10.41100311279297 63.31826019287109 8.296905517578125 C 58.14604568481445 6.109237670898438 52.64889526367188 5.000007629394531 46.97949600219727 5.000007629394531 M 46.97949600219727 7.62939453125e-06 C 72.92554473876953 7.62939453125e-06 93.95897674560547 21.03343963623047 93.95897674560547 46.97948837280273 C 93.95897674560547 72.92552185058594 72.92554473876953 93.95896911621094 46.97949600219727 93.95896911621094 C 21.033447265625 93.95896911621094 1.52587890625e-05 72.92552185058594 1.52587890625e-05 46.97948837280273 C 1.52587890625e-05 21.03343963623047 21.033447265625 7.62939453125e-06 46.97949600219727 7.62939453125e-06 Z" stroke="none" fill="#fff"/>
          </g>
        </g>
      </g>
    </g>
    <g id="XMLID_2341_" transform="translate(223.868 4169.179)">
      <g id="XMLID_1325_" transform="translate(0.8 19.306)">
        <g id="XMLID_2619_" transform="translate(0 0)">
          <circle id="XMLID_2783_" cx="13.091" cy="13.091" r="13.091" transform="translate(1.714)" fill="#72f2eb"/>
          <g id="XMLID_1353_" transform="translate(0 14.698)">
            <g id="XMLID_1385_">
              <g id="XMLID_1419_">
                <circle id="XMLID_1420_" cx="1.714" cy="1.714" r="1.714" fill="#f9b767"/>
              </g>
            </g>
          </g>
          <g id="XMLID_1387_" transform="translate(8.256 6.442)">
            <g id="XMLID_1391_">
              <g id="XMLID_2785_">
                <circle id="XMLID_2786_" cx="1.714" cy="1.714" r="1.714" fill="#f9b767"/>
              </g>
            </g>
          </g>
          <g id="XMLID_1393_" transform="translate(17.012 15.199)">
            <g id="XMLID_1397_">
              <g id="XMLID_2798_">
                <circle id="XMLID_2799_" cx="1.714" cy="1.714" r="1.714" fill="#f9b767"/>
              </g>
            </g>
          </g>
          <g id="XMLID_1399_" transform="translate(28.383 3.828)">
            <g id="XMLID_1403_">
              <g id="XMLID_2801_">
                <circle id="XMLID_2802_" cx="1.714" cy="1.714" r="1.714" fill="#f9b767"/>
              </g>
            </g>
          </g>
          <g id="XMLID_1405_" transform="translate(35.933 11.378)">
            <g id="XMLID_1409_">
              <g id="XMLID_2803_">
                <circle id="XMLID_2804_" cx="1.714" cy="1.714" r="1.714" fill="#f9b767"/>
              </g>
            </g>
          </g>
        </g>
        <g id="XMLID_1352_" transform="translate(7.674 13.091)">
          <rect id="XMLID_2771_" width="4.687" height="13.186" transform="translate(0 22.771)" fill="#ff6a66"/>
          <rect id="XMLID_2770_" width="4.687" height="13.186" transform="translate(7.896 22.771)" fill="#ff6a66"/>
          <rect id="XMLID_2769_" width="4.687" height="17.087" transform="translate(15.793 18.87)" fill="#f9b767"/>
          <rect id="XMLID_2768_" width="4.687" height="22.901" transform="translate(23.689 13.056)" fill="#72f2eb"/>
          <rect id="XMLID_2767_" width="4.687" height="28.914" transform="translate(31.585 7.043)" fill="#72f2eb"/>
          <rect id="XMLID_2766_" width="4.687" height="35.957" transform="translate(39.482)" fill="#72f2eb"/>
        </g>
      </g>
      <g id="XMLID_1496_" transform="translate(0 18.506)">
        <path id="XMLID_1515_" d="M2.976,38.187A13.836,13.836,0,0,0,5.89,42.325a.8.8,0,0,0,1.119-1.143A12.248,12.248,0,0,1,4.376,37.4,2.507,2.507,0,0,0,4.762,34.6L9.648,29.71a2.506,2.506,0,0,0,2.179.03L17.2,35.114c.015.015.031.028.046.042a2.513,2.513,0,1,0,4.616.143l5.708-5.708a12.295,12.295,0,0,1-18.1,13.461.8.8,0,1,0-.8,1.386,13.894,13.894,0,0,0,20.2-16.15l1.1-1.1a2.507,2.507,0,0,0,2.117-.13L36.238,31.2a2.517,2.517,0,1,0,1.172-1.09l-4.225-4.225a2.513,2.513,0,1,0-4.435.268l-.5.5A13.89,13.89,0,0,0,1.714,32.4c0,.309.011.619.032.928a2.513,2.513,0,0,0,1.23,4.863Zm35.47-6.7a.914.914,0,1,1-.914.914A.915.915,0,0,1,38.446,31.483Zm-7.55-7.55a.914.914,0,1,1-.914.914A.915.915,0,0,1,30.9,23.933ZM9.856,27.462a.914.914,0,1,1,.914.914A.915.915,0,0,1,9.856,27.462Zm9.67,9.67a.914.914,0,1,1,.914-.914A.915.915,0,0,1,19.526,37.132ZM15.6,20.105A12.311,12.311,0,0,1,27.032,27.87l-6.2,6.2A2.508,2.508,0,0,0,18.347,34l-.014-.016-5.344-5.344a2.513,2.513,0,1,0-4.47-.061L3.63,33.467a2.5,2.5,0,0,0-.28-.119c-.024-.316-.036-.634-.036-.951A12.305,12.305,0,0,1,15.6,20.105ZM1.6,35.718a.914.914,0,1,1,.914.914A.915.915,0,0,1,1.6,35.718Z" transform="translate(0 -18.506)"/>
        <path id="XMLID_1506_" d="M60.056,178.835a.8.8,0,1,0,0-1.6H59.7V159.729a.8.8,0,1,0-1.6,0v17.507H55.017V142.878H58.1v13.586a.8.8,0,0,0,1.6,0V142.079a.8.8,0,0,0-.8-.8H54.217a.8.8,0,0,0-.8.8v35.157h-1.61V149.121a.8.8,0,0,0-.8-.8H46.321a.8.8,0,0,0-.8.8v28.114h-1.61v-22.1a.8.8,0,0,0-.8-.8H38.425a.8.8,0,0,0-.8.8v22.1h-1.61V160.949a.8.8,0,0,0-.8-.8H30.528a.8.8,0,0,0-.8.8v16.287h-1.61V164.85a.8.8,0,0,0-.8-.8H22.632a.8.8,0,0,0-.8.8v4.623a.8.8,0,0,0,1.6,0V165.65H26.52v11.586H23.432v-4.5a.8.8,0,1,0-1.6,0v4.5h-1.61V164.85a.8.8,0,0,0-.8-.8H14.736a.8.8,0,0,0-.8.8v12.386H7.809a.8.8,0,1,0,0,1.6H60.056ZM47.121,149.921h3.088v27.315H47.121Zm-7.9,6.013h3.088v21.3H39.225Zm-7.9,5.814h3.088v15.487H31.328Zm-15.793,3.9h3.088v11.586H15.536Z" transform="translate(-6.262 -128.188)"/>
        <path id="XMLID_1505_" d="M487,32.548a.8.8,0,0,0,.8-.8v-.176a.8.8,0,1,0-1.6,0v.176A.8.8,0,0,0,487,32.548Z" transform="translate(-434.362 -29.465)"/>
        <path id="XMLID_1501_" d="M461.469,32.548a.8.8,0,0,0,.8-.8v-.176a.8.8,0,1,0-1.6,0v.176A.8.8,0,0,0,461.469,32.548Z" transform="translate(-411.549 -29.465)"/>
        <path id="XMLID_1500_" d="M461.469,63.938h2.7a.8.8,0,0,0,0-1.6h-2.7a.8.8,0,1,0,0,1.6Z" transform="translate(-411.549 -57.665)"/>
        <path id="XMLID_1497_" d="M419.216,88.141h7.209a.8.8,0,1,0,0-1.6h-7.209a.8.8,0,0,0,0,1.6Z" transform="translate(-373.801 -79.287)"/>
      </g>
    </g>
  </g>
</svg>
