<svg xmlns="http://www.w3.org/2000/svg" xmlns:xlink="http://www.w3.org/1999/xlink" width="105.781" height="105.781" viewBox="0 0 105.781 105.781">
  <defs>
    <filter id="Trazado_985594" x="0" y="0" width="105.781" height="105.781" filterUnits="userSpaceOnUse">
      <feOffset dy="3" input="SourceAlpha"/>
      <feGaussianBlur stdDeviation="3" result="blur"/>
      <feFlood flood-opacity="0.161"/>
      <feComposite operator="in" in2="blur"/>
      <feComposite in="SourceGraphic"/>
    </filter>
  </defs>
  <g id="Grupo_1165439" data-name="Grupo 1165439" transform="translate(-327.051 -2573)">
    <g id="Grupo_1163751" data-name="Grupo 1163751" transform="translate(-1 1464.332)">
      <g transform="matrix(1, 0, 0, 1, 328.05, 1108.67)" filter="url(#Trazado_985594)">
        <g id="Trazado_985594-2" data-name="Trazado 985594" transform="translate(9 6)" fill="#f3d02c">
          <path d="M 43.8906364440918 85.28125762939453 C 38.30183792114258 85.28125762939453 32.88154220581055 84.18724060058594 27.78030395507812 82.02960205078125 C 22.85183715820312 79.94503021240234 18.42508888244629 76.96026611328125 14.62304973602295 73.15821838378906 C 10.82099628448486 69.35617828369141 7.836236476898193 64.92942810058594 5.751663208007812 60.00096130371094 C 3.59402322769165 54.89972305297852 2.500009775161743 49.47942733764648 2.500009775161743 43.89062881469727 C 2.500009775161743 38.30183029174805 3.59402322769165 32.88153457641602 5.751663208007812 27.78029632568359 C 7.836236476898193 22.85182952880859 10.82099628448486 18.42508125305176 14.62304973602295 14.62304210662842 C 18.42508888244629 10.82098865509033 22.85183715820312 7.836228847503662 27.78030395507812 5.751655578613281 C 32.88154220581055 3.594015598297119 38.30183792114258 2.500002145767212 43.8906364440918 2.500002145767212 C 49.47943496704102 2.500002145767212 54.89973068237305 3.594015598297119 60.00096893310547 5.751655578613281 C 64.92943572998047 7.836228847503662 69.35618591308594 10.82098865509033 73.15822601318359 14.62304210662842 C 76.96027374267578 18.42508125305176 79.94503784179688 22.85182952880859 82.02960968017578 27.78029632568359 C 84.18724822998047 32.88153457641602 85.28126525878906 38.30183029174805 85.28126525878906 43.89062881469727 C 85.28126525878906 49.47942733764648 84.18724822998047 54.89972305297852 82.02960968017578 60.00096130371094 C 79.94503784179688 64.92942810058594 76.96027374267578 69.35617828369141 73.15822601318359 73.15821838378906 C 69.35618591308594 76.96026611328125 64.92943572998047 79.94503021240234 60.00096893310547 82.02960205078125 C 54.89973068237305 84.18724060058594 49.47943496704102 85.28125762939453 43.8906364440918 85.28125762939453 Z" stroke="none"/>
          <path d="M 43.8906364440918 4.999992370605469 C 38.63823699951172 4.999992370605469 33.54560470581055 6.027565002441406 28.75418472290039 8.054161071777344 C 24.12371826171875 10.0126953125 19.96407318115234 12.81754302978516 16.39080047607422 16.39079284667969 C 12.81755065917969 19.96406555175781 10.01270294189453 24.12371063232422 8.054168701171875 28.75417709350586 C 6.027572631835938 33.54559707641602 5 38.63822937011719 5 43.89062881469727 C 5 49.14302825927734 6.027572631835938 54.23566055297852 8.054168701171875 59.02707672119141 C 10.01270294189453 63.65754699707031 12.81755065917969 67.81719970703125 16.39080047607422 71.39046478271484 C 19.96407318115234 74.96371459960938 24.12371826171875 77.76856231689453 28.75418472290039 79.72709655761719 C 33.54560470581055 81.75369262695312 38.63823699951172 82.78126525878906 43.8906364440918 82.78126525878906 C 49.14303588867188 82.78126525878906 54.23566818237305 81.75369262695312 59.02708435058594 79.72709655761719 C 63.65755462646484 77.76856231689453 67.81719970703125 74.96371459960938 71.39047241210938 71.39046478271484 C 74.96372222900391 67.81719970703125 77.76856994628906 63.65754699707031 79.72710418701172 59.02707672119141 C 81.75370025634766 54.23566055297852 82.78127288818359 49.14302825927734 82.78127288818359 43.89062881469727 C 82.78127288818359 38.63822937011719 81.75370025634766 33.54559707641602 79.72710418701172 28.75417709350586 C 77.76856994628906 24.12371063232422 74.96372222900391 19.96406555175781 71.39047241210938 16.39079284667969 C 67.81719970703125 12.81754302978516 63.65755462646484 10.0126953125 59.02708435058594 8.054161071777344 C 54.23566818237305 6.027565002441406 49.14303588867188 4.999992370605469 43.8906364440918 4.999992370605469 M 43.8906364440918 -7.62939453125e-06 C 68.13075256347656 -7.62939453125e-06 87.78127288818359 19.6505126953125 87.78127288818359 43.89062881469727 C 87.78127288818359 68.13074493408203 68.13075256347656 87.78126525878906 43.8906364440918 87.78126525878906 C 19.65052032470703 87.78126525878906 0 68.13074493408203 0 43.89062881469727 C 0 19.6505126953125 19.65052032470703 -7.62939453125e-06 43.8906364440918 -7.62939453125e-06 Z" stroke="none" fill="#fff"/>
        </g>
      </g>
    </g>
    <g id="irrigacion" transform="translate(355.051 2573.591)">
      <g id="Grupo_1165437" data-name="Grupo 1165437" transform="translate(0.755 33.911)">
        <g id="Grupo_1165436" data-name="Grupo 1165436">
          <path id="Trazado_991672" data-name="Trazado 991672" d="M342.314,220.413a3.9,3.9,0,0,0-1.083,3.452.492.492,0,0,0,.4.4,3.908,3.908,0,0,0,4.536-4.536.492.492,0,0,0-.4-.4A3.9,3.9,0,0,0,342.314,220.413Z" transform="translate(-307.566 -208.247)" fill="#9be69d"/>
          <path id="Trazado_991673" data-name="Trazado 991673" d="M294.906,220.413a3.9,3.9,0,0,1,1.083,3.452.492.492,0,0,1-.4.4,3.908,3.908,0,0,1-4.536-4.536.491.491,0,0,1,.4-.4,3.9,3.9,0,0,1,3.452,1.083Z" transform="translate(-262.446 -208.247)" fill="#bbf49b"/>
          <path id="Trazado_991674" data-name="Trazado 991674" d="M171.974,220.413a3.9,3.9,0,0,0-1.083,3.452.492.492,0,0,0,.4.4,3.908,3.908,0,0,0,4.536-4.536.491.491,0,0,0-.4-.4A3.9,3.9,0,0,0,171.974,220.413Z" transform="translate(-154.38 -208.247)" fill="#9be69d"/>
          <path id="Trazado_991675" data-name="Trazado 991675" d="M124.565,220.413a3.9,3.9,0,0,1,1.083,3.452.492.492,0,0,1-.4.4,3.908,3.908,0,0,1-4.536-4.536.491.491,0,0,1,.4-.4A3.9,3.9,0,0,1,124.565,220.413Z" transform="translate(-109.26 -208.247)" fill="#bbf49b"/>
          <path id="Trazado_991676" data-name="Trazado 991676" d="M169.218,331.176H138.108a2.518,2.518,0,0,0-2.518,2.518v11.091a1.007,1.007,0,0,0,1.007,1.007h34.132a1.007,1.007,0,0,0,1.007-1.007V333.694A2.518,2.518,0,0,0,169.218,331.176Z" transform="translate(-122.69 -308.884)" fill="#9be69d"/>
          <path id="Trazado_991677" data-name="Trazado 991677" d="M452.521,331.176H449.5a2.518,2.518,0,0,1,2.518,2.518v11.091a1.007,1.007,0,0,1-1.007,1.007h3.021c.556,0,1.007-6.147,1.007-6.7v-5.394A2.518,2.518,0,0,0,452.521,331.176Z" transform="translate(-404.986 -308.884)" fill="#6fd7a3"/>
          <path id="Trazado_991678" data-name="Trazado 991678" d="M86.8,282.146a3.9,3.9,0,0,0-1.083,3.452.492.492,0,0,0,.4.4,3.908,3.908,0,0,0,4.536-4.536.492.492,0,0,0-.4-.4A3.9,3.9,0,0,0,86.8,282.146Z" transform="translate(-77.788 -263.763)" fill="#9be69d"/>
          <path id="Trazado_991679" data-name="Trazado 991679" d="M39.395,282.146a3.9,3.9,0,0,1,1.083,3.452.492.492,0,0,1-.4.4,3.908,3.908,0,0,1-4.536-4.536.492.492,0,0,1,.4-.4A3.9,3.9,0,0,1,39.395,282.146Z" transform="translate(-32.667 -263.763)" fill="#bbf49b"/>
          <path id="Trazado_991680" data-name="Trazado 991680" d="M257.144,282.146a3.9,3.9,0,0,0-1.083,3.452.492.492,0,0,0,.4.4,3.908,3.908,0,0,0,4.536-4.536.492.492,0,0,0-.4-.4A3.9,3.9,0,0,0,257.144,282.146Z" transform="translate(-230.973 -263.763)" fill="#9be69d"/>
          <path id="Trazado_991681" data-name="Trazado 991681" d="M209.736,282.146a3.9,3.9,0,0,1,1.083,3.452.492.492,0,0,1-.4.4,3.908,3.908,0,0,1-4.536-4.536.492.492,0,0,1,.4-.4A3.9,3.9,0,0,1,209.736,282.146Z" transform="translate(-185.853 -263.763)" fill="#bbf49b"/>
          <path id="Trazado_991682" data-name="Trazado 991682" d="M427.485,282.146A3.9,3.9,0,0,0,426.4,285.6a.491.491,0,0,0,.4.4,3.908,3.908,0,0,0,4.536-4.536.492.492,0,0,0-.4-.4A3.9,3.9,0,0,0,427.485,282.146Z" transform="translate(-384.159 -263.763)" fill="#9be69d"/>
          <path id="Trazado_991683" data-name="Trazado 991683" d="M380.076,282.146a3.9,3.9,0,0,1,1.083,3.452.492.492,0,0,1-.4.4,3.908,3.908,0,0,1-4.536-4.536.492.492,0,0,1,.4-.4A3.9,3.9,0,0,1,380.076,282.146Z" transform="translate(-339.039 -263.763)" fill="#bbf49b"/>
          <path id="Trazado_991684" data-name="Trazado 991684" d="M66.906,114.241l-.214-1.924a.945.945,0,0,0-1.637,0l-.2.136-1.032,1.788a2.367,2.367,0,0,0,1.032,3.32,2.34,2.34,0,0,0,1.015.123C67.693,117.684,67.816,115.816,66.906,114.241Z" transform="translate(-57.867 -111.641)" fill="#c3ddff"/>
          <path id="Trazado_991685" data-name="Trazado 991685" d="M80,112.43,78.769,110.3a.945.945,0,0,0-1.637,0l-.2.339,1.032,1.788a2.366,2.366,0,0,1-1.032,3.319A2.366,2.366,0,0,0,80,112.43Z" transform="translate(-69.943 -109.83)" fill="#a4ccff"/>
          <path id="Trazado_991686" data-name="Trazado 991686" d="M235.9,114.241l-.214-1.924a.945.945,0,0,0-1.637,0l-.2.136-1.032,1.788a2.367,2.367,0,0,0,1.032,3.32,2.339,2.339,0,0,0,1.015.123C236.687,117.684,236.81,115.816,235.9,114.241Z" transform="translate(-209.841 -111.641)" fill="#c3ddff"/>
          <path id="Trazado_991687" data-name="Trazado 991687" d="M248.991,112.43l-1.228-2.127a.945.945,0,0,0-1.637,0l-.2.339,1.032,1.788a2.366,2.366,0,0,1-1.032,3.319,2.366,2.366,0,0,0,3.061-3.319Z" transform="translate(-221.918 -109.83)" fill="#a4ccff"/>
          <path id="Trazado_991688" data-name="Trazado 991688" d="M404.895,114.241l-.214-1.924a.945.945,0,0,0-1.637,0l-.2.136-1.032,1.788a2.367,2.367,0,0,0,1.032,3.32,2.339,2.339,0,0,0,1.015.123C405.682,117.684,405.8,115.816,404.895,114.241Z" transform="translate(-361.816 -111.641)" fill="#c3ddff"/>
          <path id="Trazado_991689" data-name="Trazado 991689" d="M417.986,112.43l-1.228-2.127a.945.945,0,0,0-1.637,0l-.2.339,1.032,1.788a2.366,2.366,0,0,1-1.032,3.319,2.366,2.366,0,0,0,3.061-3.319Z" transform="translate(-373.893 -109.83)" fill="#a4ccff"/>
          <path id="Trazado_991690" data-name="Trazado 991690" d="M54.028,384.738H10.018A2.518,2.518,0,0,0,7.5,387.256v6.055a1.007,1.007,0,0,0,1.007,1.007H55.539a1.007,1.007,0,0,0,1.007-1.007v-6.055A2.518,2.518,0,0,0,54.028,384.738Z" transform="translate(-7.5 -357.052)" fill="#bbf49b"/>
          <path id="Trazado_991691" data-name="Trazado 991691" d="M452.521,384.738H449.5a2.518,2.518,0,0,1,2.518,2.518v6.055a1.007,1.007,0,0,1-1.007,1.007h3.021a1.007,1.007,0,0,0,1.007-1.007v-6.055A2.518,2.518,0,0,0,452.521,384.738Z" transform="translate(-404.986 -357.052)" fill="#9be69d"/>
        </g>
      </g>
      <g id="Grupo_1165438" data-name="Grupo 1165438" transform="translate(0 25.409)">
        <path id="Trazado_991692" data-name="Trazado 991692" d="M58.858,425.956a.755.755,0,0,0-.755-.755H47.61a.755.755,0,1,0,0,1.511H58.1A.755.755,0,0,0,58.858,425.956Z" transform="translate(-42.136 -384.938)"/>
        <path id="Trazado_991693" data-name="Trazado 991693" d="M292.828,426.712a.755.755,0,1,0,0-1.511H282.336a.755.755,0,1,0,0,1.511Z" transform="translate(-253.223 -384.938)"/>
        <path id="Trazado_991694" data-name="Trazado 991694" d="M440.391,425.956a.755.755,0,1,0-.755.755A.755.755,0,0,0,440.391,425.956Z" transform="translate(-394.68 -384.938)"/>
        <path id="Trazado_991695" data-name="Trazado 991695" d="M217.818,425.956a.755.755,0,1,0-.755.755A.755.755,0,0,0,217.818,425.956Z" transform="translate(-194.523 -384.938)"/>
        <path id="Trazado_991696" data-name="Trazado 991696" d="M51.564,225.544a3.277,3.277,0,0,0-3.273-3.273h-.774a4.67,4.67,0,0,0,1.156-3.973,1.249,1.249,0,0,0-1.007-1.007,4.645,4.645,0,0,0-4.729,2.05,4.645,4.645,0,0,0-4.729-2.05A1.249,1.249,0,0,0,37.2,218.3a4.67,4.67,0,0,0,1.156,3.973H35.115v-4.723c.129.011.259.017.387.017A4.662,4.662,0,0,0,40.1,212.08a1.249,1.249,0,0,0-1.007-1.007,4.645,4.645,0,0,0-4.729,2.05,4.645,4.645,0,0,0-4.729-2.05,1.249,1.249,0,0,0-1.007,1.007,4.662,4.662,0,0,0,4.593,5.484c.129,0,.258-.006.388-.017v4.723H30.361a4.67,4.67,0,0,0,1.156-3.973,1.249,1.249,0,0,0-1.007-1.007,4.645,4.645,0,0,0-4.729,2.05,4.645,4.645,0,0,0-4.729-2.05,1.249,1.249,0,0,0-1.007,1.007,4.67,4.67,0,0,0,1.156,3.973H17.96v-4.723c.129.011.259.017.388.017a4.662,4.662,0,0,0,4.593-5.484,1.249,1.249,0,0,0-1.007-1.007,4.645,4.645,0,0,0-4.729,2.05,4.645,4.645,0,0,0-4.729-2.05,1.249,1.249,0,0,0-1.007,1.007,4.662,4.662,0,0,0,4.593,5.484c.129,0,.258-.006.387-.017v4.723h-.276a3.277,3.277,0,0,0-3.273,3.273v2.121H9.382v-3.9c.129.011.259.017.388.017a4.662,4.662,0,0,0,4.593-5.484,1.249,1.249,0,0,0-1.007-1.007,4.645,4.645,0,0,0-4.729,2.05,4.645,4.645,0,0,0-4.729-2.05A1.249,1.249,0,0,0,2.891,218.3a4.662,4.662,0,0,0,4.593,5.484c.129,0,.258-.006.388-.017v3.9h-4.6A3.277,3.277,0,0,0,0,230.939v6.055a1.765,1.765,0,0,0,1.762,1.762H9.074a.755.755,0,0,0,0-1.511H1.762a.252.252,0,0,1-.252-.252v-6.055a1.765,1.765,0,0,1,1.762-1.762h29.44a.755.755,0,1,0,0-1.511H26.537v-3.884H42.182v3.884H36.005a.755.755,0,1,0,0,1.511H48.291a1.765,1.765,0,0,1,1.762,1.762v6.055a.252.252,0,0,1-.252.252H45.387a.755.755,0,0,0,0,1.511H49.8a1.765,1.765,0,0,0,1.762-1.762Zm-15.526-12.11a3.159,3.159,0,0,1,2.6-.9,3.152,3.152,0,0,1-3.5,3.5,3.158,3.158,0,0,1,.9-2.6Zm-2.455,2.6a3.152,3.152,0,0,1-3.5-3.5,3.152,3.152,0,0,1,3.5,3.5Zm-14.7-2.6a3.159,3.159,0,0,1,2.6-.9,3.152,3.152,0,0,1-3.5,3.5A3.157,3.157,0,0,1,18.883,213.435Zm-2.455,2.6a3.152,3.152,0,0,1-3.5-3.5,3.152,3.152,0,0,1,3.5,3.5Zm-6.123,3.619a3.159,3.159,0,0,1,2.6-.9,3.152,3.152,0,0,1-3.5,3.5,3.158,3.158,0,0,1,.9-2.6Zm-2.455,2.6a3.152,3.152,0,0,1-3.5-3.5,3.152,3.152,0,0,1,3.5,3.5Zm36.765-2.6a3.158,3.158,0,0,1,2.6-.9,3.152,3.152,0,0,1-3.5,3.5,3.158,3.158,0,0,1,.9-2.6Zm-5.955-.9a3.152,3.152,0,0,1,3.5,3.5,3.152,3.152,0,0,1-3.5-3.5Zm-11.2.9a3.159,3.159,0,0,1,2.6-.9,3.152,3.152,0,0,1-3.5,3.5,3.158,3.158,0,0,1,.9-2.6Zm-5.955-.9a3.152,3.152,0,0,1,3.5,3.5,3.152,3.152,0,0,1-3.5-3.5Zm3.521,8.915H14.411v-2.121a1.764,1.764,0,0,1,1.762-1.762h8.853Zm23.264,0h-4.6v-3.884h4.6a1.764,1.764,0,0,1,1.762,1.762v2.638A3.252,3.252,0,0,0,48.291,227.665Z" transform="translate(0 -192.31)"/>
        <path id="Trazado_991697" data-name="Trazado 991697" d="M.755,26.92H8.007v2.165a.755.755,0,1,0,1.511,0V26.92H25.027v2.165a.755.755,0,1,0,1.511,0V26.92H42.046v2.165a.755.755,0,1,0,1.511,0V26.92h7.252a.755.755,0,0,0,0-1.511H.755a.755.755,0,0,0,0,1.511Z" transform="translate(0 -25.409)"/>
        <path id="Trazado_991698" data-name="Trazado 991698" d="M59.116,101.559a1.684,1.684,0,0,0-1.473.85l-1.228,2.127a3.118,3.118,0,1,0,5.4,0l-1.228-2.127A1.683,1.683,0,0,0,59.116,101.559Zm1.392,5.34a1.608,1.608,0,1,1-2.785-1.608l1.228-2.127a.19.19,0,0,1,.329,0l1.228,2.127a1.591,1.591,0,0,1,0,1.608Z" transform="translate(-50.353 -93.89)"/>
        <path id="Trazado_991699" data-name="Trazado 991699" d="M228.111,101.559a1.683,1.683,0,0,0-1.473.85l-1.228,2.127a3.118,3.118,0,1,0,5.4,0l-1.228-2.127A1.683,1.683,0,0,0,228.111,101.559Zm1.392,5.34a1.608,1.608,0,0,1-2.785-1.608l1.228-2.127a.19.19,0,0,1,.329,0l1.228,2.127A1.591,1.591,0,0,1,229.5,106.9Z" transform="translate(-202.329 -93.89)"/>
        <path id="Trazado_991700" data-name="Trazado 991700" d="M397.1,101.559a1.683,1.683,0,0,0-1.473.85l-1.228,2.127a3.118,3.118,0,1,0,5.4,0l-1.228-2.127A1.683,1.683,0,0,0,397.1,101.559Zm1.392,5.34a1.608,1.608,0,1,1-2.785-1.608l1.228-2.127a.19.19,0,0,1,.329,0l1.228,2.127a1.591,1.591,0,0,1,0,1.608Z" transform="translate(-354.303 -93.89)"/>
        <path id="Trazado_991701" data-name="Trazado 991701" d="M145.724,471.591h-29.68a.755.755,0,1,0,0,1.511h29.68a.755.755,0,1,0,0-1.511Z" transform="translate(-103.677 -426.656)"/>
      </g>
    </g>
  </g>
</svg>
