<svg xmlns="http://www.w3.org/2000/svg" width="93.959" height="93.959" viewBox="0 0 93.959 93.959">
  <g id="Grupo_1165324" data-name="Grupo 1165324" transform="translate(-729.051 -1122)">
    <g id="Grupo_1158409" data-name="Grupo 1158409" transform="translate(-0.224 20.913)">
      <g id="Grupo_1151642" data-name="Grupo 1151642" transform="translate(729.274 1101.087)">
        <g id="Grupo_1103990" data-name="Grupo 1103990" transform="translate(0)">
          <g id="Trazado_874102" data-name="Trazado 874102" transform="translate(0)" fill="#f0f7e8">
            <path d="M 46.97949600219727 91.45897674560547 C 40.97370910644531 91.45897674560547 35.14888000488281 90.28328704833984 29.66683959960938 87.96457672119141 C 24.37055397033691 85.72444915771484 19.61348152160645 82.51696014404297 15.52775287628174 78.43122863769531 C 11.44202423095703 74.34550476074219 8.234539031982422 69.58843231201172 5.994410514831543 64.29214477539062 C 3.675695896148682 58.81010437011719 2.500010251998901 52.98527526855469 2.500010251998901 46.97948837280273 C 2.500010251998901 40.97369003295898 3.675695896148682 35.14887237548828 5.994410514831543 29.66683197021484 C 8.234539031982422 24.37054634094238 11.44202423095703 19.61346054077148 15.52775287628174 15.52774524688721 C 19.61348152160645 11.4420166015625 24.37055397033691 8.234531402587891 29.66683959960938 5.994388580322266 C 35.14888000488281 3.67568826675415 40.97370910644531 2.50000262260437 46.97949600219727 2.50000262260437 C 52.98529434204102 2.50000262260437 58.81011199951172 3.67568826675415 64.29215240478516 5.994388580322266 C 69.58843994140625 8.234531402587891 74.34552764892578 11.4420166015625 78.43123626708984 15.52774524688721 C 82.5169677734375 19.61346054077148 85.72445678710938 24.37054634094238 87.964599609375 29.66683197021484 C 90.28329467773438 35.14887237548828 91.458984375 40.97369003295898 91.458984375 46.97948837280273 C 91.458984375 52.98527526855469 90.28329467773438 58.81010437011719 87.964599609375 64.29214477539062 C 85.72445678710938 69.58843231201172 82.5169677734375 74.34550476074219 78.43123626708984 78.43122863769531 C 74.34552764892578 82.51696014404297 69.58843994140625 85.72444915771484 64.29215240478516 87.96457672119141 C 58.81011199951172 90.28328704833984 52.98529434204102 91.45897674560547 46.97949600219727 91.45897674560547 Z" stroke="none"/>
            <path d="M 46.97949600219727 5.000007629394531 C 41.31009674072266 5.000007629394531 35.81294631958008 6.109237670898438 30.64072799682617 8.296905517578125 C 25.64242553710938 10.41100311279297 21.1524658203125 13.43856811523438 17.29550933837891 17.29550170898438 C 13.43857574462891 21.15245819091797 10.4110107421875 25.64241790771484 8.296913146972656 30.64072036743164 C 6.109245300292969 35.81293869018555 5.000015258789062 41.31008911132812 5.000015258789062 46.97948837280273 C 5.000015258789062 52.64888763427734 6.109245300292969 58.14603805541992 8.296913146972656 63.31825256347656 C 10.4110107421875 68.31653594970703 13.43857574462891 72.8065185546875 17.29550933837891 76.6634521484375 C 21.1524658203125 80.52040100097656 25.64242553710938 83.5479736328125 30.64072799682617 85.66207122802734 C 35.81294631958008 87.84973907470703 41.31009674072266 88.95896911621094 46.97949600219727 88.95896911621094 C 52.64889526367188 88.95896911621094 58.14604568481445 87.84973907470703 63.31826019287109 85.66207122802734 C 68.31655883789062 83.5479736328125 72.80653381347656 80.52040100097656 76.66348266601562 76.6634521484375 C 80.52041625976562 72.8065185546875 83.54798126220703 68.31653594970703 85.66207885742188 63.31825256347656 C 87.84974670410156 58.14603805541992 88.95897674560547 52.64888763427734 88.95897674560547 46.97948837280273 C 88.95897674560547 41.31008911132812 87.84974670410156 35.81293869018555 85.66207885742188 30.64072036743164 C 83.54798126220703 25.64241790771484 80.52041625976562 21.15245819091797 76.66348266601562 17.29550170898438 C 72.80653381347656 13.43856811523438 68.31655883789062 10.41100311279297 63.31826019287109 8.296905517578125 C 58.14604568481445 6.109237670898438 52.64889526367188 5.000007629394531 46.97949600219727 5.000007629394531 M 46.97949600219727 7.62939453125e-06 C 72.92554473876953 7.62939453125e-06 93.95897674560547 21.03343963623047 93.95897674560547 46.97948837280273 C 93.95897674560547 72.92552185058594 72.92554473876953 93.95896911621094 46.97949600219727 93.95896911621094 C 21.033447265625 93.95896911621094 1.52587890625e-05 72.92552185058594 1.52587890625e-05 46.97948837280273 C 1.52587890625e-05 21.03343963623047 21.033447265625 7.62939453125e-06 46.97949600219727 7.62939453125e-06 Z" stroke="none" fill="#fff"/>
          </g>
        </g>
      </g>
    </g>
    <g id="plantando_1_" data-name="plantando (1)" transform="translate(747.051 1125.399)">
      <g id="Grupo_1165322" data-name="Grupo 1165322" transform="translate(0.856 16.457)">
        <path id="Trazado_991434" data-name="Trazado 991434" d="M113.5,52.359l-2.96-4.057a1.2,1.2,0,0,0-1.939,0l-.325.446-2.84,3.893,2.181,2.989,1.954,2.68,4.135-5.669Z" transform="translate(-94.261 -44.989)" fill="#9be69d"/>
        <path id="Trazado_991435" data-name="Trazado 991435" d="M130.639,52.642,126.5,58.311l-1.954-2.68a5.966,5.966,0,0,1,3.5-2.988h0l-2.84-3.893.325-.446a1.2,1.2,0,0,1,1.939,0l2.96,4.057Z" transform="translate(-111.19 -44.989)" fill="#6fd7a3"/>
        <path id="Trazado_991436" data-name="Trazado 991436" d="M29.286,197.832h5.983a7.875,7.875,0,0,0-7.875-7.875H22.953a1.391,1.391,0,0,0-1.359,1.69A7.9,7.9,0,0,0,29.286,197.832Z" transform="translate(-19.955 -170.912)" fill="#9be69d"/>
        <path id="Trazado_991437" data-name="Trazado 991437" d="M60.428,197.833H57.834a7.876,7.876,0,0,0-7.874-7.874h2.592a7.876,7.876,0,0,1,7.876,7.874Z" transform="translate(-45.114 -170.914)" fill="#6fd7a3"/>
        <path id="Trazado_991438" data-name="Trazado 991438" d="M147.648,177.722h-5.983a7.875,7.875,0,0,1,7.875-7.875h4.441a1.391,1.391,0,0,1,1.359,1.69A7.9,7.9,0,0,1,147.648,177.722Z" transform="translate(-126.351 -153.097)" fill="#9be69d"/>
        <path id="Trazado_991439" data-name="Trazado 991439" d="M181.823,171.536a7.9,7.9,0,0,1-7.693,6.185h-2.57a7.9,7.9,0,0,0,7.674-6.185,1.393,1.393,0,0,0-1.359-1.69h2.59A1.392,1.392,0,0,1,181.823,171.536Z" transform="translate(-152.834 -153.096)" fill="#6fd7a3"/>
        <path id="Trazado_991440" data-name="Trazado 991440" d="M56.727,93.626h4.522A5.952,5.952,0,0,0,55.3,87.674H51.94a1.052,1.052,0,0,0-1.027,1.277A5.972,5.972,0,0,0,56.727,93.626Z" transform="translate(-45.936 -80.303)" fill="#9be69d"/>
        <path id="Trazado_991441" data-name="Trazado 991441" d="M75.363,93.622H72.772A5.951,5.951,0,0,0,66.82,87.67h2.591a5.951,5.951,0,0,1,5.952,5.952Z" transform="translate(-60.049 -80.3)" fill="#6fd7a3"/>
        <path id="Trazado_991442" data-name="Trazado 991442" d="M298.749,122.55a3.361,3.361,0,0,1-2.412,3.364l-3.923,1.151-6.247,1.832a1.707,1.707,0,0,1-2.117-2.117l2.982-10.17A3.362,3.362,0,0,1,290.4,114.2l8.022.331Z" transform="translate(-252.422 -103.797)" fill="#eaf6ff"/>
        <path id="Trazado_991443" data-name="Trazado 991443" d="M304.782,124.5a3.361,3.361,0,0,1-2.412,3.364L292.2,130.85a1.678,1.678,0,0,1-1.411-.208l9.462-2.775a3.359,3.359,0,0,0,2.412-3.364l-.194-8.1,1.981.082Z" transform="translate(-258.455 -105.751)" fill="#c8effe"/>
        <path id="Trazado_991444" data-name="Trazado 991444" d="M295.817,208.444l-6.247,1.832a1.69,1.69,0,0,1-1.75-.5,2.552,2.552,0,0,1,.516-.74l2.231-2.23a2.546,2.546,0,0,1,1.824-.748h2.21v1.17Z" transform="translate(-255.824 -185.176)" fill="#c8effe"/>
        <path id="Trazado_991445" data-name="Trazado 991445" d="M429.364,31.076a2.309,2.309,0,0,1,0-3.265l4.035-4.036a2.309,2.309,0,0,1,3.265,3.265l-4.036,4.036A2.309,2.309,0,0,1,429.364,31.076Z" transform="translate(-380.614 -23.099)" fill="#ffd15b"/>
        <path id="Trazado_991446" data-name="Trazado 991446" d="M447.034,25.413a2.307,2.307,0,0,1-.676,1.633l-4.036,4.036a2.308,2.308,0,0,1-2.693.419,2.317,2.317,0,0,0,.572-.419l4.035-4.036a2.308,2.308,0,0,0,0-3.266,2.251,2.251,0,0,0-.572-.417,2.307,2.307,0,0,1,3.369,2.049Z" transform="translate(-390.307 -23.105)" fill="#ffc344"/>
        <path id="Trazado_991447" data-name="Trazado 991447" d="M257.308,301.794l-1.413-1.413a1.618,1.618,0,0,1,0-2.288l1.413-1.413a1.618,1.618,0,0,1,2.288,0l1.413,1.413a1.618,1.618,0,0,1,0,2.288l-1.413,1.413A1.618,1.618,0,0,1,257.308,301.794Z" transform="translate(-227.123 -265.033)" fill="#ffcebf"/>
        <path id="Trazado_991448" data-name="Trazado 991448" d="M276.165,300.381l-1.413,1.413a1.617,1.617,0,0,1-2.222.062q.033-.029.065-.062l1.413-1.413a1.618,1.618,0,0,0,0-2.287l-1.413-1.413q-.033-.033-.065-.062a1.617,1.617,0,0,1,2.222.062l1.413,1.413A1.618,1.618,0,0,1,276.165,300.381Z" transform="translate(-242.28 -265.034)" fill="#ffb09e"/>
        <path id="Trazado_991449" data-name="Trazado 991449" d="M308.289,214.875l-2.231-2.231a2.554,2.554,0,0,1,0-3.612l2.231-2.231a2.554,2.554,0,0,1,3.612,0l2.231,2.231a2.554,2.554,0,0,1,0,3.612l-2.231,2.231A2.554,2.554,0,0,1,308.289,214.875Z" transform="translate(-271.318 -185.171)" fill="#e49280"/>
        <path id="Trazado_991450" data-name="Trazado 991450" d="M342.621,212.648l-2.231,2.231a2.553,2.553,0,0,1-2.92.492,2.516,2.516,0,0,0,.692-.492l2.231-2.231a2.555,2.555,0,0,0,0-3.611l-2.231-2.23a2.516,2.516,0,0,0-.692-.492,2.553,2.553,0,0,1,2.92.492l2.231,2.23a2.553,2.553,0,0,1,0,3.611Z" transform="translate(-299.807 -185.176)" fill="#dd7f66"/>
        <path id="Trazado_991451" data-name="Trazado 991451" d="M203.477,267.015,202.465,266a1.159,1.159,0,0,1,0-1.639l1.012-1.012a1.159,1.159,0,0,1,1.639,0l1.012,1.012a1.159,1.159,0,0,1,0,1.639l-1.012,1.012A1.159,1.159,0,0,1,203.477,267.015Z" transform="translate(-179.911 -235.629)" fill="#ffcebf"/>
        <path id="Trazado_991452" data-name="Trazado 991452" d="M215.327,266l-1.012,1.012a1.159,1.159,0,0,1-1.638,0l-.167-.167.846-.846a1.16,1.16,0,0,0,0-1.639l-.846-.845.167-.167a1.157,1.157,0,0,1,1.638,0l1.012,1.011A1.16,1.16,0,0,1,215.327,266Z" transform="translate(-189.11 -235.628)" fill="#ffb09e"/>
        <path id="Trazado_991453" data-name="Trazado 991453" d="M64.227,323.959v18.826H7.5V323.959h7.679a2.258,2.258,0,0,1,2.134,1.521l1.2,3.487a2.874,2.874,0,0,0,2.717,1.936h29.26a2.874,2.874,0,0,0,2.717-1.936l1.2-3.487a2.258,2.258,0,0,1,2.134-1.521Z" transform="translate(-7.5 -289.619)" fill="#e49280"/>
        <path id="Trazado_991454" data-name="Trazado 991454" d="M60.379,330.9H57.745a2.873,2.873,0,0,1-2.717-1.936l-1.2-3.487a2.257,2.257,0,0,0-2.134-1.521h2.635a2.257,2.257,0,0,1,2.134,1.521l1.2,3.487A2.873,2.873,0,0,0,60.379,330.9Z" transform="translate(-46.646 -289.62)" fill="#dd7f66"/>
        <path id="Trazado_991455" data-name="Trazado 991455" d="M481.41,323.959h2.635v18.826H481.41Z" transform="translate(-427.318 -289.619)" fill="#dd7f66"/>
        <path id="Trazado_991456" data-name="Trazado 991456" d="M146.188,93.626h-4.522a5.952,5.952,0,0,1,5.952-5.952h3.357A1.052,1.052,0,0,1,152,88.951,5.972,5.972,0,0,1,146.188,93.626Z" transform="translate(-126.352 -80.303)" fill="#9be69d"/>
        <path id="Trazado_991457" data-name="Trazado 991457" d="M167.127,88.946a5.97,5.97,0,0,1-5.814,4.675H158.74a5.973,5.973,0,0,0,5.8-4.675,1.052,1.052,0,0,0-1.027-1.277h2.59A1.051,1.051,0,0,1,167.127,88.946Z" transform="translate(-141.478 -80.299)" fill="#6fd7a3"/>
      </g>
      <g id="Grupo_1165323" data-name="Grupo 1165323" transform="translate(0 15.601)">
        <path id="Trazado_991458" data-name="Trazado 991458" d="M250.067,289.44l-1.413,1.413a2.477,2.477,0,0,0,0,3.5l1.413,1.413a2.477,2.477,0,0,0,3.5,0l1.413-1.413a2.477,2.477,0,0,0,0-3.5l-1.413-1.413A2.477,2.477,0,0,0,250.067,289.44Zm3.7,3.7-1.413,1.413a.762.762,0,0,1-1.077,0l-1.413-1.413a.762.762,0,0,1,0-1.077l1.413-1.413a.762.762,0,0,1,1.077,0l1.413,1.413A.762.762,0,0,1,253.768,293.141Z" transform="translate(-219.632 -257.544)"/>
        <path id="Trazado_991459" data-name="Trazado 991459" d="M199.085,260.983l1.012-1.012a2.017,2.017,0,0,0,0-2.849l-1.012-1.012a2.017,2.017,0,0,0-2.849,0l-1.012,1.012a2.017,2.017,0,0,0,0,2.849l1.012,1.012h0a2.018,2.018,0,0,0,2.849,0Zm-2.651-2.223a.3.3,0,0,1,0-.428l1.012-1.012a.3.3,0,0,1,.428,0l1.012,1.012a.3.3,0,0,1,0,.428l-1.012,1.012a.3.3,0,0,1-.428,0Z" transform="translate(-172.419 -228.136)"/>
        <path id="Trazado_991460" data-name="Trazado 991460" d="M278.927,42.48a3.393,3.393,0,0,0,.978,2.055l2.231,2.231h0a3.414,3.414,0,0,0,4.822,0l2.231-2.231a3.453,3.453,0,0,0-.078-4.9,4.41,4.41,0,0,0,3.842-4.459l-.315-7.647,1.966-1.966a3.166,3.166,0,0,0,3.787-.522.856.856,0,1,0-1.211-1.21,1.453,1.453,0,0,1-2.054-2.054l4.036-4.036a1.453,1.453,0,0,1,2.054,2.055L300.03,20.98a.856.856,0,1,0,1.211,1.211L302.427,21a3.165,3.165,0,1,0-4.476-4.476l-4.036,4.035a3.17,3.17,0,0,0-.521,3.787l-1.967,1.967L283.78,26a4.207,4.207,0,0,0-4.22,3.027L276.578,39.2a2.563,2.563,0,0,0,2.349,3.281Zm9.052.845-2.231,2.231a1.7,1.7,0,0,1-2.4,0l-2.231-2.231a1.7,1.7,0,0,1,0-2.4l2.231-2.231a1.7,1.7,0,0,1,2.4,0l2.231,2.231A1.7,1.7,0,0,1,287.979,43.324Zm-9.758-3.644L281.2,29.51a2.508,2.508,0,0,1,2.507-1.8l6.072.25-4.943,4.943a.856.856,0,0,0,1.211,1.211l4.943-4.943.25,6.072a2.5,2.5,0,0,1-1.8,2.507l-1.713.5-.773-.773a3.41,3.41,0,0,0-4.822,0l-2.231,2.231a3.392,3.392,0,0,0-.711,1.042.85.85,0,0,1-.974-1.074Z" transform="translate(-244.915 -15.601)"/>
        <path id="Trazado_991461" data-name="Trazado 991461" d="M57.583,481.4H.856a.856.856,0,0,0,0,1.712H57.583a.856.856,0,1,0,0-1.712Z" transform="translate(0 -428.234)"/>
        <path id="Trazado_991462" data-name="Trazado 991462" d="M245.957,316.459h-7.679a3.115,3.115,0,0,0-2.944,2.1l-1.2,3.487a2.019,2.019,0,0,1-1.907,1.359H213.5a.856.856,0,1,0,0,1.712h18.722a3.732,3.732,0,0,0,3.526-2.513l1.2-3.487a1.4,1.4,0,0,1,1.325-.945h7.679a.856.856,0,1,0,0-1.712Z" transform="translate(-188.374 -282.119)"/>
        <path id="Trazado_991463" data-name="Trazado 991463" d="M.856,73.542H8.535a1.4,1.4,0,0,1,1.325.945l1.2,3.487a3.732,3.732,0,0,0,3.526,2.513h6.458a.856.856,0,1,0,0-1.712H17.026V63.827h5.146a8.777,8.777,0,0,0,8.509-6.857,2.247,2.247,0,0,0-2.2-2.731s-4.791.005-4.965.016a.856.856,0,1,0,.1,1.709c.141-.008,4.865-.013,4.865-.013a.536.536,0,0,1,.524.649,7.055,7.055,0,0,1-6.84,5.514H19.378l4.072-2.339a.856.856,0,0,0-.853-1.485l-5.393,3.1a6.987,6.987,0,0,1,3.112-4.366.856.856,0,1,0-.911-1.45,8.774,8.774,0,0,0-2.38,2.2V52.525h3.681a6.844,6.844,0,0,0,6.636-5.346,1.908,1.908,0,0,0-1.863-2.318H22.122a6.806,6.806,0,0,0-1.47.162l-2.821-3.867a2.057,2.057,0,0,0-3.323,0l-2.821,3.867a6.8,6.8,0,0,0-1.47-.162H6.861A1.908,1.908,0,0,0,5,47.178a6.843,6.843,0,0,0,6.636,5.346h3.68V60.08a8.724,8.724,0,0,0-7.019-3.545H3.853a2.247,2.247,0,0,0-2.2,2.731,8.776,8.776,0,0,0,8.509,6.857h5.146V78.774H14.59a2.019,2.019,0,0,1-1.907-1.359l-1.2-3.487a3.115,3.115,0,0,0-2.944-2.1H.856a.856.856,0,0,0,0,1.712Zm24.622-26.97a.191.191,0,0,1,.153.074.189.189,0,0,1,.038.163,5.121,5.121,0,0,1-4.964,4H19.378l2.4-1.378a.856.856,0,0,0-.853-1.485L17.3,50.034a5.1,5.1,0,0,1,4.826-3.462h3.356Zm-9.587-4.408a.344.344,0,0,1,.557,0l2.53,3.469a6.855,6.855,0,0,0-2.808,2.736,6.855,6.855,0,0,0-2.808-2.736Zm-4.244,8.649h-.015a5.121,5.121,0,0,1-4.964-4,.189.189,0,0,1,.038-.163.191.191,0,0,1,.153-.074h3.356a5.1,5.1,0,0,1,4.826,3.462L11.415,47.95a.856.856,0,1,0-.853,1.484l2.4,1.378H11.648Zm-1.461,13.6h-.019A7.054,7.054,0,0,1,3.33,58.9a.535.535,0,0,1,.523-.649H8.294a7.03,7.03,0,0,1,6.838,5.436l-5.39-3.1a.856.856,0,0,0-.853,1.485l4.072,2.339Z" transform="translate(0 -37.49)"/>
        <path id="Trazado_991464" data-name="Trazado 991464" d="M259.893,447.243H229.232a.856.856,0,0,0,0,1.712h30.661a.856.856,0,1,0,0-1.712Z" transform="translate(-202.309 -397.976)"/>
        <path id="Trazado_991465" data-name="Trazado 991465" d="M.856,448.955H13.907a.856.856,0,0,0,0-1.712H.856a.856.856,0,0,0,0,1.712Z" transform="translate(0 -397.976)"/>
        <path id="Trazado_991466" data-name="Trazado 991466" d="M153.471,412.846a.856.856,0,0,0-.856-.856H135.668a.856.856,0,1,0,0,1.712h16.947A.856.856,0,0,0,153.471,412.846Z" transform="translate(-119.425 -366.746)"/>
        <path id="Trazado_991467" data-name="Trazado 991467" d="M395.676,411.99H382.511a.856.856,0,1,0,0,1.712h13.165a.856.856,0,1,0,0-1.712Z" transform="translate(-338.093 -366.746)"/>
        <path id="Trazado_991468" data-name="Trazado 991468" d="M.856,413.7h6.97a.856.856,0,1,0,0-1.712H.856a.856.856,0,1,0,0,1.712Z" transform="translate(0 -366.746)"/>
        <circle id="Elipse_11761" data-name="Elipse 11761" cx="0.856" cy="0.856" r="0.856" transform="translate(50.909 40.568)"/>
        <circle id="Elipse_11762" data-name="Elipse 11762" cx="0.856" cy="0.856" r="0.856" transform="translate(22.045 49.267)"/>
        <circle id="Elipse_11763" data-name="Elipse 11763" cx="0.856" cy="0.856" r="0.856" transform="translate(37.663 25.667)"/>
      </g>
    </g>
  </g>
</svg>
