<svg xmlns="http://www.w3.org/2000/svg" width="93.959" height="93.959" viewBox="0 0 93.959 93.959">
  <g id="Grupo_1165328" data-name="Grupo 1165328" transform="translate(-205.051 -439)">
    <g id="Grupo_1158420" data-name="Grupo 1158420" transform="translate(-0.498 19.85)">
      <g id="Grupo_1157323" data-name="Grupo 1157323" transform="translate(205.549 419.15)">
        <g id="Grupo_1103990" data-name="Grupo 1103990" transform="translate(0)">
          <g id="Trazado_874102" data-name="Trazado 874102" transform="translate(0)" fill="#e4f7fa">
            <path d="M 46.97949600219727 91.45897674560547 C 40.97370910644531 91.45897674560547 35.14888000488281 90.28328704833984 29.66683959960938 87.96457672119141 C 24.37055397033691 85.72444915771484 19.61348152160645 82.51696014404297 15.52775287628174 78.43122863769531 C 11.44202423095703 74.34550476074219 8.234539031982422 69.58843231201172 5.994410514831543 64.29214477539062 C 3.675695896148682 58.81010437011719 2.500010251998901 52.98527526855469 2.500010251998901 46.97948837280273 C 2.500010251998901 40.97369003295898 3.675695896148682 35.14887237548828 5.994410514831543 29.66683197021484 C 8.234539031982422 24.37054634094238 11.44202423095703 19.61346054077148 15.52775287628174 15.52774524688721 C 19.61348152160645 11.4420166015625 24.37055397033691 8.234531402587891 29.66683959960938 5.994388580322266 C 35.14888000488281 3.67568826675415 40.97370910644531 2.50000262260437 46.97949600219727 2.50000262260437 C 52.98529434204102 2.50000262260437 58.81011199951172 3.67568826675415 64.29215240478516 5.994388580322266 C 69.58843994140625 8.234531402587891 74.34552764892578 11.4420166015625 78.43123626708984 15.52774524688721 C 82.5169677734375 19.61346054077148 85.72445678710938 24.37054634094238 87.964599609375 29.66683197021484 C 90.28329467773438 35.14887237548828 91.458984375 40.97369003295898 91.458984375 46.97948837280273 C 91.458984375 52.98527526855469 90.28329467773438 58.81010437011719 87.964599609375 64.29214477539062 C 85.72445678710938 69.58843231201172 82.5169677734375 74.34550476074219 78.43123626708984 78.43122863769531 C 74.34552764892578 82.51696014404297 69.58843994140625 85.72444915771484 64.29215240478516 87.96457672119141 C 58.81011199951172 90.28328704833984 52.98529434204102 91.45897674560547 46.97949600219727 91.45897674560547 Z" stroke="none"/>
            <path d="M 46.97949600219727 5.000007629394531 C 41.31009674072266 5.000007629394531 35.81294631958008 6.109237670898438 30.64072799682617 8.296905517578125 C 25.64242553710938 10.41100311279297 21.1524658203125 13.43856811523438 17.29550933837891 17.29550170898438 C 13.43857574462891 21.15245819091797 10.4110107421875 25.64241790771484 8.296913146972656 30.64072036743164 C 6.109245300292969 35.81293869018555 5.000015258789062 41.31008911132812 5.000015258789062 46.97948837280273 C 5.000015258789062 52.64888763427734 6.109245300292969 58.14603805541992 8.296913146972656 63.31825256347656 C 10.4110107421875 68.31653594970703 13.43857574462891 72.8065185546875 17.29550933837891 76.6634521484375 C 21.1524658203125 80.52040100097656 25.64242553710938 83.5479736328125 30.64072799682617 85.66207122802734 C 35.81294631958008 87.84973907470703 41.31009674072266 88.95896911621094 46.97949600219727 88.95896911621094 C 52.64889526367188 88.95896911621094 58.14604568481445 87.84973907470703 63.31826019287109 85.66207122802734 C 68.31655883789062 83.5479736328125 72.80653381347656 80.52040100097656 76.66348266601562 76.6634521484375 C 80.52041625976562 72.8065185546875 83.54798126220703 68.31653594970703 85.66207885742188 63.31825256347656 C 87.84974670410156 58.14603805541992 88.95897674560547 52.64888763427734 88.95897674560547 46.97948837280273 C 88.95897674560547 41.31008911132812 87.84974670410156 35.81293869018555 85.66207885742188 30.64072036743164 C 83.54798126220703 25.64241790771484 80.52041625976562 21.15245819091797 76.66348266601562 17.29550170898438 C 72.80653381347656 13.43856811523438 68.31655883789062 10.41100311279297 63.31826019287109 8.296905517578125 C 58.14604568481445 6.109237670898438 52.64889526367188 5.000007629394531 46.97949600219727 5.000007629394531 M 46.97949600219727 7.62939453125e-06 C 72.92554473876953 7.62939453125e-06 93.95897674560547 21.03343963623047 93.95897674560547 46.97948837280273 C 93.95897674560547 72.92552185058594 72.92554473876953 93.95896911621094 46.97949600219727 93.95896911621094 C 21.033447265625 93.95896911621094 1.52587890625e-05 72.92552185058594 1.52587890625e-05 46.97948837280273 C 1.52587890625e-05 21.03343963623047 21.033447265625 7.62939453125e-06 46.97949600219727 7.62939453125e-06 Z" stroke="none" fill="#fff"/>
          </g>
        </g>
      </g>
    </g>
    <g id="configuracion" transform="translate(199.051 440)">
      <g id="Grupo_1165327" data-name="Grupo 1165327" transform="translate(57.305 33.318)">
        <circle id="Elipse_11764" data-name="Elipse 11764" cx="1.998" cy="1.998" r="1.998" transform="translate(9.325 37.301)" fill="#c7312e"/>
        <ellipse id="Elipse_11765" data-name="Elipse 11765" cx="1.332" cy="1.998" rx="1.332" ry="1.998" transform="translate(0 37.301)" fill="#c7312e"/>
        <circle id="Elipse_11766" data-name="Elipse 11766" cx="1.998" cy="1.998" r="1.998" transform="translate(19.983 19.983)" fill="#c7312e"/>
        <circle id="Elipse_11767" data-name="Elipse 11767" cx="1.998" cy="1.998" r="1.998" transform="translate(19.983 0)" fill="#c7312e"/>
      </g>
      <path id="Trazado_991469" data-name="Trazado 991469" d="M59.722,81.424h-5.94V74.7A22.606,22.606,0,0,1,48.7,72.642l-4.822,4.822L34.97,68.553l4.822-4.822a22.606,22.606,0,0,1-2.057-5.079H32V46.772h5.735a22.606,22.606,0,0,1,2.057-5.079L34.97,36.871l8.911-8.911L48.7,32.782a22.606,22.606,0,0,1,5.079-2.057V24h5.94Z" transform="translate(-7.01 -7.01)" fill="#3397e8"/>
      <circle id="Elipse_11768" data-name="Elipse 11768" cx="16.652" cy="16.652" r="16.652" transform="translate(35.99 29.322)" fill="#2978b8"/>
      <circle id="Elipse_11769" data-name="Elipse 11769" cx="12.656" cy="12.656" r="12.656" transform="translate(39.986 33.318)" fill="#e9eef2"/>
      <circle id="Elipse_11770" data-name="Elipse 11770" cx="1.998" cy="1.998" r="1.998" transform="translate(77.287 43.976)" fill="#c7312e"/>
      <circle id="Elipse_11771" data-name="Elipse 11771" cx="1.998" cy="1.998" r="1.998" transform="translate(66.63 17.332)" fill="#c7312e"/>
      <ellipse id="Elipse_11772" data-name="Elipse 11772" cx="1.332" cy="1.998" rx="1.332" ry="1.998" transform="translate(57.305 17.332)" fill="#c7312e"/>
      <path id="Trazado_991470" data-name="Trazado 991470" d="M52.712,31.841A13.861,13.861,0,1,0,66.573,45.7,13.877,13.877,0,0,0,52.712,31.841Zm0,25.742A11.881,11.881,0,1,1,64.593,45.7,11.894,11.894,0,0,1,52.712,57.583ZM76.644,46.692a2.97,2.97,0,1,0,0-1.98H70.505a17.718,17.718,0,0,0-.672-3.96h1.69a.99.99,0,0,0,.885-.547l1.707-3.413h2.529a2.97,2.97,0,1,0,0-1.98H73.5a.99.99,0,0,0-.885.547l-1.707,3.413H69.131a17.878,17.878,0,0,0-3.548-5.383V27.5L69,25.8a.99.99,0,0,0,.547-.885V21.77a2.97,2.97,0,1,0-1.98,0V24.3L64.15,26.005a.99.99,0,0,0-.547.885v4.715a17.832,17.832,0,0,0-3.96-2.322V21.77a2.97,2.97,0,1,0-1.98,0v6.811a17.732,17.732,0,0,0-3.96-.672V16.99a.99.99,0,0,0-.99-.99h-5.94a.99.99,0,0,0-.99.99v5.979a23.624,23.624,0,0,0-3.908,1.584l-4.3-4.3a.99.99,0,0,0-1.4,0L27.26,29.161a.99.99,0,0,0,0,1.4l4.3,4.3a23.634,23.634,0,0,0-1.583,3.908H24.99a.99.99,0,0,0-.99.99V51.642a.99.99,0,0,0,.99.99h4.989a23.646,23.646,0,0,0,1.583,3.908l-4.3,4.3a.99.99,0,0,0,0,1.4l8.911,8.911a.99.99,0,0,0,1.4,0l4.3-4.3a23.634,23.634,0,0,0,3.908,1.584v5.98a.99.99,0,0,0,.99.99h5.94a.99.99,0,0,0,.99-.99V63.5a17.718,17.718,0,0,0,3.96-.672v6.811a2.97,2.97,0,1,0,1.98,0V62.121A17.832,17.832,0,0,0,63.6,59.8v4.715a.99.99,0,0,0,.547.885l3.413,1.707v2.529a2.97,2.97,0,1,0,1.98,0V66.494A.99.99,0,0,0,69,65.608L65.583,63.9V58.016a17.878,17.878,0,0,0,3.548-5.383h1.781l1.707,3.413a.99.99,0,0,0,.885.547h3.141a2.97,2.97,0,1,0,0-1.98H74.115L72.409,51.2a.99.99,0,0,0-.885-.547h-1.69a17.732,17.732,0,0,0,.672-3.96Zm2.8-11.881a.99.99,0,1,1-.99.99A.991.991,0,0,1,79.444,34.811ZM68.553,17.98a.99.99,0,1,1-.99.99A.991.991,0,0,1,68.553,17.98Zm-9.9,0a.99.99,0,1,1-.99.99A.991.991,0,0,1,58.652,17.98Zm0,55.444a.99.99,0,1,1,.99-.99A.991.991,0,0,1,58.652,73.424Zm9.9,0a.99.99,0,1,1,.99-.99A.991.991,0,0,1,68.553,73.424ZM79.444,54.613a.99.99,0,1,1-.99.99A.991.991,0,0,1,79.444,54.613Zm0-9.9a.99.99,0,1,1-.99.99A.991.991,0,0,1,79.444,44.712Zm-42.573.99A15.841,15.841,0,1,1,52.712,61.543,15.859,15.859,0,0,1,36.871,45.7ZM47.762,73.424V67.689a.99.99,0,0,0-.732-.956,21.639,21.639,0,0,1-4.857-1.967.99.99,0,0,0-1.18.166l-4.122,4.122-7.511-7.51,4.122-4.122a.99.99,0,0,0,.166-1.18,21.645,21.645,0,0,1-1.967-4.857.99.99,0,0,0-.956-.732H25.98v-9.9h4.745a.99.99,0,0,0,.956-.732,21.645,21.645,0,0,1,1.967-4.857.99.99,0,0,0-.166-1.18L29.36,29.861l7.511-7.511,4.122,4.122a.991.991,0,0,0,1.18.166,21.651,21.651,0,0,1,4.857-1.967.99.99,0,0,0,.732-.956V17.98h3.96v9.929a17.821,17.821,0,0,0,0,35.587v9.929Zm9.9-32.672v9.9a.99.99,0,1,1-1.98,0v-9.9a.99.99,0,1,1,1.98,0Zm-6.972-.285a.99.99,0,0,0-1.9,0l-2.97,9.9a.99.99,0,1,0,1.9.569l.679-2.265h2.685l.679,2.265a.99.99,0,1,0,1.9-.569Zm-1.7,6.225.748-2.495.749,2.495Z" transform="translate(0)"/>
    </g>
  </g>
</svg>
