<svg xmlns="http://www.w3.org/2000/svg" xmlns:xlink="http://www.w3.org/1999/xlink" width="105.781" height="105.781" viewBox="0 0 105.781 105.781">
  <defs>
    <filter id="Trazado_986931" x="0" y="0" width="105.781" height="105.781" filterUnits="userSpaceOnUse">
      <feOffset dy="3" input="SourceAlpha"/>
      <feGaussianBlur stdDeviation="3" result="blur"/>
      <feFlood flood-opacity="0.161"/>
      <feComposite operator="in" in2="blur"/>
      <feComposite in="SourceGraphic"/>
    </filter>
  </defs>
  <g id="Grupo_1165429" data-name="Grupo 1165429" transform="translate(-196.051 -3747)">
    <g id="Grupo_1159819" data-name="Grupo 1159819" transform="translate(0 799)">
      <g transform="matrix(1, 0, 0, 1, 196.05, 2948)" filter="url(#Trazado_986931)">
        <g id="Trazado_986931-2" data-name="Trazado 986931" transform="translate(9 6)" fill="#f3d02c">
          <path d="M 43.8906364440918 85.28125762939453 C 38.30183792114258 85.28125762939453 32.88154220581055 84.18724060058594 27.78030395507812 82.02960205078125 C 22.85183715820312 79.94503021240234 18.42508888244629 76.96026611328125 14.62304973602295 73.15821838378906 C 10.82099628448486 69.35617828369141 7.836236476898193 64.92942810058594 5.751663208007812 60.00096130371094 C 3.59402322769165 54.89972305297852 2.500009775161743 49.47942733764648 2.500009775161743 43.89062881469727 C 2.500009775161743 38.30183029174805 3.59402322769165 32.88153457641602 5.751663208007812 27.78029632568359 C 7.836236476898193 22.85182952880859 10.82099628448486 18.42508125305176 14.62304973602295 14.62304210662842 C 18.42508888244629 10.82098865509033 22.85183715820312 7.836228847503662 27.78030395507812 5.751655578613281 C 32.88154220581055 3.594015598297119 38.30183792114258 2.500002145767212 43.8906364440918 2.500002145767212 C 49.47943496704102 2.500002145767212 54.89973068237305 3.594015598297119 60.00096893310547 5.751655578613281 C 64.92943572998047 7.836228847503662 69.35618591308594 10.82098865509033 73.15822601318359 14.62304210662842 C 76.96027374267578 18.42508125305176 79.94503784179688 22.85182952880859 82.02960968017578 27.78029632568359 C 84.18724822998047 32.88153457641602 85.28126525878906 38.30183029174805 85.28126525878906 43.89062881469727 C 85.28126525878906 49.47942733764648 84.18724822998047 54.89972305297852 82.02960968017578 60.00096130371094 C 79.94503784179688 64.92942810058594 76.96027374267578 69.35617828369141 73.15822601318359 73.15821838378906 C 69.35618591308594 76.96026611328125 64.92943572998047 79.94503021240234 60.00096893310547 82.02960205078125 C 54.89973068237305 84.18724060058594 49.47943496704102 85.28125762939453 43.8906364440918 85.28125762939453 Z" stroke="none"/>
          <path d="M 43.8906364440918 4.999992370605469 C 38.63823699951172 4.999992370605469 33.54560470581055 6.027565002441406 28.75418472290039 8.054161071777344 C 24.12371826171875 10.0126953125 19.96407318115234 12.81754302978516 16.39080047607422 16.39079284667969 C 12.81755065917969 19.96406555175781 10.01270294189453 24.12371063232422 8.054168701171875 28.75417709350586 C 6.027572631835938 33.54559707641602 5 38.63822937011719 5 43.89062881469727 C 5 49.14302825927734 6.027572631835938 54.23566055297852 8.054168701171875 59.02707672119141 C 10.01270294189453 63.65754699707031 12.81755065917969 67.81719970703125 16.39080047607422 71.39046478271484 C 19.96407318115234 74.96371459960938 24.12371826171875 77.76856231689453 28.75418472290039 79.72709655761719 C 33.54560470581055 81.75369262695312 38.63823699951172 82.78126525878906 43.8906364440918 82.78126525878906 C 49.14303588867188 82.78126525878906 54.23566818237305 81.75369262695312 59.02708435058594 79.72709655761719 C 63.65755462646484 77.76856231689453 67.81719970703125 74.96371459960938 71.39047241210938 71.39046478271484 C 74.96372222900391 67.81719970703125 77.76856994628906 63.65754699707031 79.72710418701172 59.02707672119141 C 81.75370025634766 54.23566055297852 82.78127288818359 49.14302825927734 82.78127288818359 43.89062881469727 C 82.78127288818359 38.63822937011719 81.75370025634766 33.54559707641602 79.72710418701172 28.75417709350586 C 77.76856994628906 24.12371063232422 74.96372222900391 19.96406555175781 71.39047241210938 16.39079284667969 C 67.81719970703125 12.81754302978516 63.65755462646484 10.0126953125 59.02708435058594 8.054161071777344 C 54.23566818237305 6.027565002441406 49.14303588867188 4.999992370605469 43.8906364440918 4.999992370605469 M 43.8906364440918 -7.62939453125e-06 C 68.13075256347656 -7.62939453125e-06 87.78127288818359 19.6505126953125 87.78127288818359 43.89062881469727 C 87.78127288818359 68.13074493408203 68.13075256347656 87.78126525878906 43.8906364440918 87.78126525878906 C 19.65052032470703 87.78126525878906 0 68.13074493408203 0 43.89062881469727 C 0 19.6505126953125 19.65052032470703 -7.62939453125e-06 43.8906364440918 -7.62939453125e-06 Z" stroke="none" fill="#fff"/>
        </g>
      </g>
    </g>
    <g id="Layer_32" data-name="Layer 32" transform="translate(216.051 3764)">
      <circle id="Elipse_11792" data-name="Elipse 11792" cx="12.5" cy="12.5" r="12.5" transform="translate(21 18.598)" fill="#e2e7f6"/>
      <path id="Trazado_991655" data-name="Trazado 991655" d="M42.922,29.461a12.48,12.48,0,0,0-5.909-10.609,12.49,12.49,0,0,0-11.1,22.26A12.481,12.481,0,0,0,42.922,29.461Z" transform="translate(0.796 0.713)" fill="#f2f2f2"/>
      <path id="Trazado_991656" data-name="Trazado 991656" d="M11.439,30.326A21.88,21.88,0,0,1,33.124,11.377V14.5l6.251-6.251L33.124,2V5.126A28.132,28.132,0,0,0,5.186,29.941v0l2.932-2.932Z" transform="translate(0.175 0.042)" fill="#4d8c28"/>
      <path id="Trazado_991657" data-name="Trazado 991657" d="M30.326,53.937l-3.321,3.321,2.932,2.932h0A28.132,28.132,0,0,1,5.126,32.251H2L8.251,26,14.5,32.251H11.377A21.881,21.881,0,0,0,30.329,53.937Z" transform="translate(0.042 1.048)" fill="#559b2d"/>
      <path id="Trazado_991658" data-name="Trazado 991658" d="M60.189,35.2l-2.932,2.932-3.321-3.321h0A21.88,21.88,0,0,1,32.251,53.762V50.637L26,56.888l6.251,6.251V60.014A28.132,28.132,0,0,0,60.19,35.2Z" transform="translate(1.048 1.417)" fill="#6bc13b"/>
      <path id="Trazado_991659" data-name="Trazado 991659" d="M35.2,5.186l2.932,2.932-3.321,3.321h0A21.88,21.88,0,0,1,53.762,33.124H50.637l6.251,6.251,6.251-6.251H60.014A28.132,28.132,0,0,0,35.2,5.186Z" transform="translate(1.417 0.175)" fill="#7bdf45"/>
      <path id="Trazado_991660" data-name="Trazado 991660" d="M29.739,53.381,32.67,50.45v3.126a21.833,21.833,0,0,0,16.656-7.69h0a5.184,5.184,0,0,0-6.179-4.714,5.238,5.238,0,0,0-2.539-1.9l.015-.011a12.5,12.5,0,0,1-15.892.011h0a5.238,5.238,0,0,0-2.538,1.906,5.184,5.184,0,0,0-6.179,4.714h0a21.843,21.843,0,0,0,13.725,7.5Z" transform="translate(0.629 1.604)" fill="#976947"/>
      <path id="Trazado_991661" data-name="Trazado 991661" d="M24,26h0a8.335,8.335,0,0,1,8.335,8.335V38.5h0A8.335,8.335,0,0,1,24,30.168Z" transform="translate(0.964 1.048)" fill="#559b2d"/>
      <path id="Trazado_991662" data-name="Trazado 991662" d="M8.335,0h0V4.168A8.335,8.335,0,0,1,0,12.5H0V8.335A8.335,8.335,0,0,1,8.335,0Z" transform="translate(41.635 39.551) rotate(180)" fill="#6bc13b"/>
      <path id="Trazado_991663" data-name="Trazado 991663" d="M65.519,32.9a1.042,1.042,0,0,0-.963-.643h-2.1A29.157,29.157,0,0,0,37.108,4.378L34.036,1.305a1.042,1.042,0,0,0-1.779.737v2.1A29.157,29.157,0,0,0,4.378,29.49L1.305,32.563a1.042,1.042,0,0,0,.737,1.779h2.1A29.157,29.157,0,0,0,29.49,62.221l3.073,3.073a1.042,1.042,0,0,0,.737.305,1.029,1.029,0,0,0,.4-.079,1.042,1.042,0,0,0,.643-.963v-2.1A29.158,29.158,0,0,0,62.221,37.108l3.073-3.073a1.042,1.042,0,0,0,.226-1.136Zm-5.13.4a1.042,1.042,0,0,0,1.042,1.042h.611l-3.736,3.736-3.736-3.736h.611A1.042,1.042,0,0,0,56.221,33.3,23,23,0,0,0,38.372,10.945L40.287,9.03a1.042,1.042,0,0,0,0-1.473l-.579-.579A27.081,27.081,0,0,1,60.389,33.3ZM33.7,51.091a1.042,1.042,0,0,0-1.136.226l-2.547,2.546a20.734,20.734,0,0,1-12.258-6.722,4.12,4.12,0,0,1,4.87-3.342,1.054,1.054,0,0,0,1.042-.417,4.188,4.188,0,0,1,1.558-1.317,13.441,13.441,0,0,0,16.15,0,4.188,4.188,0,0,1,1.563,1.317,1.052,1.052,0,0,0,1.042.417,4.121,4.121,0,0,1,4.871,3.346,20.871,20.871,0,0,1-14.511,6.967V52.054a1.042,1.042,0,0,0-.643-.963Zm-.4-8.414A11.461,11.461,0,1,1,44.76,31.215,11.461,11.461,0,0,1,33.3,42.676Zm17.087,2.5a6.21,6.21,0,0,0-6.172-3.519,6.284,6.284,0,0,0-1.188-1.042,13.545,13.545,0,1,0-19.461,0,6.284,6.284,0,0,0-1.188,1.042,6.2,6.2,0,0,0-6.168,3.509,20.762,20.762,0,0,1-3.723-10.826h2.058a1.042,1.042,0,0,0,.737-1.779l-2.546-2.547A20.887,20.887,0,0,1,32.257,12.487v2.058a1.042,1.042,0,0,0,1.779.737l2.547-2.546A20.887,20.887,0,0,1,54.111,32.257H52.054a1.042,1.042,0,0,0-.737,1.779l2.546,2.547A20.591,20.591,0,0,1,50.387,45.177ZM33.3,6.21a1.042,1.042,0,0,0,1.042-1.042V4.557l3.736,3.736L34.341,12.03v-.611A1.042,1.042,0,0,0,33.3,10.377,23,23,0,0,0,10.945,28.226L9.03,26.311a1.042,1.042,0,0,0-1.473,0l-.579.579A27.081,27.081,0,0,1,33.3,6.21ZM6.21,33.3a1.042,1.042,0,0,0-1.042-1.042H4.557l3.736-3.736,3.736,3.736h-.611A1.042,1.042,0,0,0,10.377,33.3,23,23,0,0,0,28.226,55.653l-1.915,1.915a1.042,1.042,0,0,0,0,1.473l.579.579A27.081,27.081,0,0,1,6.21,33.3ZM33.3,60.389a1.042,1.042,0,0,0-1.042,1.042v.611l-3.736-3.736,3.736-3.736v.611A1.042,1.042,0,0,0,33.3,56.221,23,23,0,0,0,55.653,38.372l1.915,1.915a1.042,1.042,0,0,0,1.473,0l.579-.579A27.09,27.09,0,0,1,33.3,60.389Z" transform="translate(0)"/>
      <path id="Trazado_991664" data-name="Trazado 991664" d="M40.712,25a9.377,9.377,0,0,0-8.335,5.105A9.377,9.377,0,0,0,24.042,25,1.042,1.042,0,0,0,23,26.042V30.21a9.377,9.377,0,0,0,18.754,0V26.042A1.042,1.042,0,0,0,40.712,25ZM25.084,30.21V27.158a7.3,7.3,0,0,1,6.251,7.219v3.052a7.3,7.3,0,0,1-6.251-7.219Zm14.587,0a7.3,7.3,0,0,1-6.251,7.219V34.377a7.3,7.3,0,0,1,6.251-7.219Z" transform="translate(0.922 1.006)"/>
    </g>
  </g>
</svg>
