<svg xmlns="http://www.w3.org/2000/svg" width="93.959" height="93.959" viewBox="0 0 93.959 93.959">
  <g id="Grupo_1165428" data-name="Grupo 1165428" transform="translate(-735.051 -4522)">
    <g id="Grupo_1159824" data-name="Grupo 1159824" transform="translate(107.776 3632.913)">
      <g id="Grupo_1151642" data-name="Grupo 1151642" transform="translate(729.274 1101.087)">
        <g id="Grupo_1103990" data-name="Grupo 1103990" transform="translate(0)">
          <g id="Trazado_874102" data-name="Trazado 874102" transform="translate(-102 -212)" fill="#f9f7f4">
            <path d="M 46.97949600219727 91.45897674560547 C 40.97370910644531 91.45897674560547 35.14888000488281 90.28328704833984 29.66683959960938 87.96457672119141 C 24.37055397033691 85.72444915771484 19.61348152160645 82.51696014404297 15.52775287628174 78.43122863769531 C 11.44202423095703 74.34550476074219 8.234539031982422 69.58843231201172 5.994410514831543 64.29214477539062 C 3.675695896148682 58.81010437011719 2.500010251998901 52.98527526855469 2.500010251998901 46.97948837280273 C 2.500010251998901 40.97369003295898 3.675695896148682 35.14887237548828 5.994410514831543 29.66683197021484 C 8.234539031982422 24.37054634094238 11.44202423095703 19.61346054077148 15.52775287628174 15.52774524688721 C 19.61348152160645 11.4420166015625 24.37055397033691 8.234531402587891 29.66683959960938 5.994388580322266 C 35.14888000488281 3.67568826675415 40.97370910644531 2.50000262260437 46.97949600219727 2.50000262260437 C 52.98529434204102 2.50000262260437 58.81011199951172 3.67568826675415 64.29215240478516 5.994388580322266 C 69.58843994140625 8.234531402587891 74.34552764892578 11.4420166015625 78.43123626708984 15.52774524688721 C 82.5169677734375 19.61346054077148 85.72445678710938 24.37054634094238 87.964599609375 29.66683197021484 C 90.28329467773438 35.14887237548828 91.458984375 40.97369003295898 91.458984375 46.97948837280273 C 91.458984375 52.98527526855469 90.28329467773438 58.81010437011719 87.964599609375 64.29214477539062 C 85.72445678710938 69.58843231201172 82.5169677734375 74.34550476074219 78.43123626708984 78.43122863769531 C 74.34552764892578 82.51696014404297 69.58843994140625 85.72444915771484 64.29215240478516 87.96457672119141 C 58.81011199951172 90.28328704833984 52.98529434204102 91.45897674560547 46.97949600219727 91.45897674560547 Z" stroke="none"/>
            <path d="M 46.97949600219727 5.000007629394531 C 41.31009674072266 5.000007629394531 35.81294631958008 6.109237670898438 30.64072799682617 8.296905517578125 C 25.64242553710938 10.41100311279297 21.1524658203125 13.43856811523438 17.29550933837891 17.29550170898438 C 13.43857574462891 21.15245819091797 10.4110107421875 25.64241790771484 8.296913146972656 30.64072036743164 C 6.109245300292969 35.81293869018555 5.000015258789062 41.31008911132812 5.000015258789062 46.97948837280273 C 5.000015258789062 52.64888763427734 6.109245300292969 58.14603805541992 8.296913146972656 63.31825256347656 C 10.4110107421875 68.31653594970703 13.43857574462891 72.8065185546875 17.29550933837891 76.6634521484375 C 21.1524658203125 80.52040100097656 25.64242553710938 83.5479736328125 30.64072799682617 85.66207122802734 C 35.81294631958008 87.84973907470703 41.31009674072266 88.95896911621094 46.97949600219727 88.95896911621094 C 52.64889526367188 88.95896911621094 58.14604568481445 87.84973907470703 63.31826019287109 85.66207122802734 C 68.31655883789062 83.5479736328125 72.80653381347656 80.52040100097656 76.66348266601562 76.6634521484375 C 80.52041625976562 72.8065185546875 83.54798126220703 68.31653594970703 85.66207885742188 63.31825256347656 C 87.84974670410156 58.14603805541992 88.95897674560547 52.64888763427734 88.95897674560547 46.97948837280273 C 88.95897674560547 41.31008911132812 87.84974670410156 35.81293869018555 85.66207885742188 30.64072036743164 C 83.54798126220703 25.64241790771484 80.52041625976562 21.15245819091797 76.66348266601562 17.29550170898438 C 72.80653381347656 13.43856811523438 68.31655883789062 10.41100311279297 63.31826019287109 8.296905517578125 C 58.14604568481445 6.109237670898438 52.64889526367188 5.000007629394531 46.97949600219727 5.000007629394531 M 46.97949600219727 7.62939453125e-06 C 72.92554473876953 7.62939453125e-06 93.95897674560547 21.03343963623047 93.95897674560547 46.97948837280273 C 93.95897674560547 72.92552185058594 72.92554473876953 93.95896911621094 46.97949600219727 93.95896911621094 C 21.033447265625 93.95896911621094 1.52587890625e-05 72.92552185058594 1.52587890625e-05 46.97948837280273 C 1.52587890625e-05 21.03343963623047 21.033447265625 7.62939453125e-06 46.97949600219727 7.62939453125e-06 Z" stroke="none" fill="#fff"/>
          </g>
        </g>
      </g>
    </g>
    <g id="asistente-de-ai" transform="translate(750.932 4538)">
      <g id="Grupo_1165426" data-name="Grupo 1165426" transform="translate(1.026 0.907)">
        <g id="Grupo_1165425" data-name="Grupo 1165425">
          <g id="Grupo_1165399" data-name="Grupo 1165399" transform="translate(12.87)">
            <g id="Grupo_1165397" data-name="Grupo 1165397">
              <g id="Grupo_1165396" data-name="Grupo 1165396">
                <path id="Trazado_991631" data-name="Trazado 991631" d="M142.953,67.579H119.522a5.44,5.44,0,0,1-5.44-5.44V12.94a5.44,5.44,0,0,1,5.44-5.44h23.432a5.44,5.44,0,0,1,5.44,5.44v49.2A5.44,5.44,0,0,1,142.953,67.579Z" transform="translate(-114.082 -7.5)" fill="#f9f7f8"/>
              </g>
            </g>
            <g id="Grupo_1165398" data-name="Grupo 1165398" transform="translate(0.122 0.086)">
              <path id="Trazado_991632" data-name="Trazado 991632" d="M144.8,8.209V59.68a4.231,4.231,0,0,1-4.231,4.231H115.1a5.441,5.441,0,0,0,5.317,4.291h23.432a5.44,5.44,0,0,0,5.44-5.44v-49.2A5.44,5.44,0,0,0,144.8,8.209Z" transform="translate(-115.095 -8.209)" fill="#efedef"/>
            </g>
          </g>
          <g id="Grupo_1165403" data-name="Grupo 1165403" transform="translate(20.486 25.214)">
            <g id="Grupo_1165402" data-name="Grupo 1165402">
              <g id="Grupo_1165400" data-name="Grupo 1165400" transform="translate(0 0)">
                <path id="Trazado_991633" data-name="Trazado 991633" d="M177.084,233.056V218.191a2.107,2.107,0,0,1,2.107-2.107h14.865a2.107,2.107,0,0,1,2.107,2.107v14.865a2.107,2.107,0,0,1-2.107,2.107H179.191A2.107,2.107,0,0,1,177.084,233.056Z" transform="translate(-177.084 -216.084)" fill="#b9acac"/>
              </g>
              <g id="Grupo_1165401" data-name="Grupo 1165401">
                <path id="Trazado_991634" data-name="Trazado 991634" d="M194.056,216.084h-.562v15.2a1.209,1.209,0,0,1-1.209,1.209h-15.2v.562a2.107,2.107,0,0,0,2.107,2.107h14.865a2.107,2.107,0,0,0,2.107-2.107V218.191A2.107,2.107,0,0,0,194.056,216.084Z" transform="translate(-177.084 -216.084)" fill="#9e9797"/>
              </g>
            </g>
          </g>
          <g id="Grupo_1165421" data-name="Grupo 1165421" transform="translate(0 4.034)">
            <g id="Grupo_1165411" data-name="Grupo 1165411" transform="translate(44.894)">
              <g id="Grupo_1165404" data-name="Grupo 1165404">
                <circle id="Elipse_11787" data-name="Elipse 11787" cx="7.578" cy="7.578" r="7.578" fill="#ffdfcf"/>
              </g>
              <g id="Grupo_1165405" data-name="Grupo 1165405" transform="translate(2.134 0.512)">
                <path id="Trazado_991635" data-name="Trazado 991635" d="M404.837,45.1a7.577,7.577,0,0,1-8.183,12.335A7.577,7.577,0,1,0,404.837,45.1Z" transform="translate(-396.654 -45.104)" fill="#ffcebf"/>
              </g>
              <g id="Grupo_1165410" data-name="Grupo 1165410" transform="translate(2.928 3.884)">
                <g id="Grupo_1165406" data-name="Grupo 1165406" transform="translate(0 6.904)">
                  <path id="Trazado_991636" data-name="Trazado 991636" d="M407.874,134.479a7.543,7.543,0,0,0,4.65-1.6,3.829,3.829,0,0,0-3.03-2.772,3.585,3.585,0,0,1-3.241,0,3.829,3.829,0,0,0-3.03,2.772A7.544,7.544,0,0,0,407.874,134.479Z" transform="translate(-403.224 -130.111)" fill="#fe5694"/>
                </g>
                <g id="Grupo_1165407" data-name="Grupo 1165407" transform="translate(0 7.247)">
                  <path id="Trazado_991637" data-name="Trazado 991637" d="M410.535,132.948a7.577,7.577,0,0,1-7.17,2.011,3.781,3.781,0,0,0-.141.418,7.57,7.57,0,0,0,9.3,0A3.833,3.833,0,0,0,410.535,132.948Z" transform="translate(-403.224 -132.948)" fill="#fd3581"/>
                </g>
                <g id="Grupo_1165408" data-name="Grupo 1165408" transform="translate(0.956)">
                  <circle id="Elipse_11788" data-name="Elipse 11788" cx="3.694" cy="3.694" r="3.694" fill="#d78878"/>
                </g>
                <g id="Grupo_1165409" data-name="Grupo 1165409" transform="translate(1.449 0.038)">
                  <path id="Trazado_991638" data-name="Trazado 991638" d="M418.939,73.309a3.694,3.694,0,0,1-3.2,5.538,3.715,3.715,0,0,1-.526-.038,3.694,3.694,0,1,0,3.727-5.5Z" transform="translate(-415.212 -73.309)" fill="#c96e59"/>
                </g>
              </g>
            </g>
            <g id="Grupo_1165420" data-name="Grupo 1165420" transform="translate(0 36.855)">
              <g id="Grupo_1165412" data-name="Grupo 1165412">
                <circle id="Elipse_11789" data-name="Elipse 11789" cx="7.578" cy="7.578" r="7.578" fill="#0593fc"/>
              </g>
              <g id="Grupo_1165413" data-name="Grupo 1165413">
                <circle id="Elipse_11790" data-name="Elipse 11790" cx="7.578" cy="7.578" r="7.578" fill="#0593fc"/>
              </g>
              <g id="Grupo_1165414" data-name="Grupo 1165414" transform="translate(2.173 0.486)">
                <path id="Trazado_991639" data-name="Trazado 991639" d="M33.667,349.771a7.578,7.578,0,0,1-8.077,12.4,7.578,7.578,0,1,0,8.077-12.4Z" transform="translate(-25.59 -349.771)" fill="#0182fc"/>
              </g>
              <g id="Grupo_1165419" data-name="Grupo 1165419" transform="translate(2.928 3.884)">
                <g id="Grupo_1165415" data-name="Grupo 1165415" transform="translate(0 6.904)">
                  <path id="Trazado_991640" data-name="Trazado 991640" d="M36.493,439.364a7.543,7.543,0,0,0,4.65-1.6,3.829,3.829,0,0,0-3.03-2.772,3.584,3.584,0,0,1-3.241,0,3.829,3.829,0,0,0-3.03,2.772A7.543,7.543,0,0,0,36.493,439.364Z" transform="translate(-31.843 -434.995)" fill="#ffd15b"/>
                </g>
                <g id="Grupo_1165416" data-name="Grupo 1165416" transform="translate(0 7.242)">
                  <path id="Trazado_991641" data-name="Trazado 991641" d="M39.144,437.791a7.574,7.574,0,0,1-7.167,2.035,3.8,3.8,0,0,0-.134.4,7.57,7.57,0,0,0,9.3,0A3.834,3.834,0,0,0,39.144,437.791Z" transform="translate(-31.843 -437.791)" fill="#ffc344"/>
                </g>
                <g id="Grupo_1165417" data-name="Grupo 1165417" transform="translate(0.955)">
                  <circle id="Elipse_11791" data-name="Elipse 11791" cx="3.694" cy="3.694" r="3.694" fill="#ffdfcf"/>
                </g>
                <g id="Grupo_1165418" data-name="Grupo 1165418" transform="translate(1.464 0.027)">
                  <path id="Trazado_991642" data-name="Trazado 991642" d="M47.573,378.1a3.694,3.694,0,0,1-3.186,5.564,3.719,3.719,0,0,1-.437-.027,3.694,3.694,0,1,0,3.623-5.537Z" transform="translate(-43.95 -378.1)" fill="#ffcebf"/>
                </g>
              </g>
            </g>
          </g>
          <g id="Grupo_1165424" data-name="Grupo 1165424" transform="translate(19.273 9.927)">
            <g id="Grupo_1165422" data-name="Grupo 1165422" transform="translate(0 0)">
              <path id="Trazado_991643" data-name="Trazado 991643" d="M184.952,89.62h-14.3a3.6,3.6,0,0,0,0,7.206h4.918a.5.5,0,0,1,.352.144l1.528,1.5a.5.5,0,0,0,.7,0l1.528-1.5a.5.5,0,0,1,.352-.144h4.918a3.6,3.6,0,0,0,0-7.206Z" transform="translate(-167.05 -89.62)" fill="#00f2a6"/>
            </g>
            <g id="Grupo_1165423" data-name="Grupo 1165423" transform="translate(0.036)">
              <path id="Trazado_991644" data-name="Trazado 991644" d="M185.215,89.62h-.054a3.6,3.6,0,0,1-3.567,4.109H167.349a3.6,3.6,0,0,0,3.567,3.1h4.918a.5.5,0,0,1,.352.144l1.528,1.5a.5.5,0,0,0,.7,0l1.528-1.5a.5.5,0,0,1,.352-.144h4.918a3.6,3.6,0,1,0,0-7.206Z" transform="translate(-167.349 -89.62)" fill="#05e39c"/>
            </g>
          </g>
        </g>
      </g>
      <g id="Grupo_1165427" data-name="Grupo 1165427" transform="translate(0.119)">
        <path id="Trazado_991645" data-name="Trazado 991645" d="M217.353,31.171a.907.907,0,1,0,0-1.813h-10.22a.907.907,0,0,0,0,1.813Z" transform="translate(-181.311 -25.809)"/>
        <path id="Trazado_991646" data-name="Trazado 991646" d="M226.761,456.5a.907.907,0,1,0,0,1.813h5.475a.907.907,0,1,0,0-1.813Z" transform="translate(-198.566 -401.317)"/>
        <path id="Trazado_991647" data-name="Trazado 991647" d="M149.407,206.943a.907.907,0,1,0,0,1.813h1.759a3.025,3.025,0,0,0,2.068,2.068v1.759a.907.907,0,0,0,1.813,0v-1.642h3.09v1.642a.907.907,0,1,0,1.813,0v-1.642h3.09v1.642a.907.907,0,1,0,1.813,0v-1.642h3.09v1.642a.907.907,0,0,0,1.813,0v-1.759a3.025,3.025,0,0,0,2.068-2.068h1.759a.907.907,0,1,0,0-1.813h-1.642v-3.09h1.642a.907.907,0,1,0,0-1.813h-1.642v-3.09h1.642a.907.907,0,0,0,0-1.813h-1.642v-3.09h1.642a.907.907,0,0,0,0-1.813h-1.759a3.025,3.025,0,0,0-2.068-2.068v-1.759a.907.907,0,1,0-1.813,0v1.642h-3.09v-1.642a.907.907,0,1,0-1.813,0v1.642h-3.09v-1.642a.907.907,0,1,0-1.813,0v1.642h-3.09v-1.642a.907.907,0,1,0-1.813,0v1.759a3.025,3.025,0,0,0-2.068,2.068h-1.759a.907.907,0,1,0,0,1.813h1.642v3.09h-1.642a.907.907,0,1,0,0,1.813h1.642v3.09h-1.642a.907.907,0,1,0,0,1.813h1.642v3.09h-1.642Zm3.455-13.881a1.2,1.2,0,0,1,1.2-1.2h14.865a1.2,1.2,0,0,1,1.2,1.2v14.865a1.2,1.2,0,0,1-1.2,1.2H154.063a1.2,1.2,0,0,1-1.2-1.2Z" transform="translate(-130.563 -164.834)"/>
        <path id="Trazado_991648" data-name="Trazado 991648" d="M206.735,262.411a.907.907,0,0,0,1.17-.525l.578-1.518H212.4l.572,1.515a.907.907,0,1,0,1.7-.64l-3.185-8.439-.01-.025a1.1,1.1,0,0,0-1.018-.682h0a1.1,1.1,0,0,0-1.018.684l-.008.02-3.214,8.438A.907.907,0,0,0,206.735,262.411Zm3.713-7.2,1.263,3.346h-2.537Z" transform="translate(-181.245 -221.624)"/>
        <path id="Trazado_991649" data-name="Trazado 991649" d="M286.914,262.47a.906.906,0,0,0,.907-.907V253a.907.907,0,1,0-1.813,0v8.559A.906.906,0,0,0,286.914,262.47Z" transform="translate(-251.448 -221.623)"/>
        <path id="Trazado_991650" data-name="Trazado 991650" d="M147.091,4.033a8.432,8.432,0,0,0-4.471,1.278A6.356,6.356,0,0,0,136.36,0H112.928a6.354,6.354,0,0,0-6.346,6.346V11.6a.907.907,0,1,0,1.813,0V6.346a4.538,4.538,0,0,1,4.533-4.533H136.36a4.538,4.538,0,0,1,4.533,4.533v.386a8.463,8.463,0,0,0,0,11.572V46.178a.907.907,0,0,0,1.813,0V26.806h2.572a2.723,2.723,0,0,0,2.72-2.72V20.954a8.485,8.485,0,0,0-.907-16.921Zm-.907,20.053a.908.908,0,0,1-.907.907h-2.572V19.78a8.425,8.425,0,0,0,3.478,1.174Zm.907-4.9a6.63,6.63,0,0,1-3.551-1.028,2.956,2.956,0,0,1,1.689-1.438,4.585,4.585,0,0,0,3.723,0,2.954,2.954,0,0,1,1.69,1.438A6.629,6.629,0,0,1,147.091,19.19ZM144.3,12.518a2.788,2.788,0,1,1,2.788,2.788A2.791,2.791,0,0,1,144.3,12.518Zm7.748,4.456a4.693,4.693,0,0,0-1.463-1.471,4.6,4.6,0,1,0-6.994,0,4.706,4.706,0,0,0-1.463,1.471,6.672,6.672,0,1,1,9.921,0Z" transform="translate(-93.712)"/>
        <path id="Trazado_991651" data-name="Trazado 991651" d="M159.55,86.63a4.515,4.515,0,0,0,4.51,4.51h4.753l1.41,1.383a1.417,1.417,0,0,0,1.974,0l1.41-1.382h4.753a4.51,4.51,0,1,0,0-9.019h-14.3A4.515,4.515,0,0,0,159.55,86.63Zm21.505,0a2.7,2.7,0,0,1-2.7,2.7h-4.918a1.4,1.4,0,0,0-.987.4l-1.245,1.221-1.245-1.221a1.4,1.4,0,0,0-.987-.4H164.06a2.7,2.7,0,1,1,0-5.393h14.3a2.7,2.7,0,0,1,2.7,2.7Z" transform="translate(-140.277 -72.193)"/>
        <path id="Trazado_991652" data-name="Trazado 991652" d="M292.753,113.738h1.685a.907.907,0,0,0,0-1.813h-1.685a.907.907,0,0,0,0,1.813Z" transform="translate(-256.581 -98.395)"/>
        <path id="Trazado_991653" data-name="Trazado 991653" d="M191.218,112.832a.907.907,0,0,0,.907.907h8.738a.907.907,0,1,0,0-1.813h-8.738A.907.907,0,0,0,191.218,112.832Z" transform="translate(-168.117 -98.395)"/>
        <path id="Trazado_991654" data-name="Trazado 991654" d="M48.206,158.073a.906.906,0,0,0-.907.907v5.138a4.538,4.538,0,0,1-4.533,4.533H19.335a4.538,4.538,0,0,1-4.533-4.533v-.386a8.463,8.463,0,0,0,0-11.572V124.407a.907.907,0,0,0-1.813,0v19.251H10.417a2.723,2.723,0,0,0-2.72,2.72v3.132a8.484,8.484,0,1,0,5.377,15.643,6.356,6.356,0,0,0,6.261,5.311H42.767a6.354,6.354,0,0,0,6.346-6.346v-5.138A.906.906,0,0,0,48.206,158.073Zm-38.7-11.7a.908.908,0,0,1,.907-.907h2.572v5.213a8.425,8.425,0,0,0-3.478-1.174ZM8.6,164.617a6.63,6.63,0,0,1-3.551-1.028,2.957,2.957,0,0,1,1.689-1.438,4.585,4.585,0,0,0,3.723,0,2.955,2.955,0,0,1,1.69,1.438A6.63,6.63,0,0,1,8.6,164.617Zm-2.788-6.672A2.788,2.788,0,1,1,8.6,160.733a2.791,2.791,0,0,1-2.788-2.788ZM12.1,160.93a4.6,4.6,0,1,0-6.994,0A4.705,4.705,0,0,0,3.644,162.4a6.672,6.672,0,1,1,9.921,0A4.7,4.7,0,0,0,12.1,160.93Z" transform="translate(-0.119 -108.571)"/>
      </g>
    </g>
  </g>
</svg>
