<svg xmlns="http://www.w3.org/2000/svg" xmlns:xlink="http://www.w3.org/1999/xlink" width="172.228" height="150.271" viewBox="0 0 172.228 150.271">
  <defs>
    <filter id="Trazado_979554" x="0" y="0" width="172.228" height="150.271" filterUnits="userSpaceOnUse">
      <feOffset dy="3" input="SourceAlpha"/>
      <feGaussianBlur stdDeviation="3" result="blur"/>
      <feFlood flood-opacity="0.161"/>
      <feComposite operator="in" in2="blur"/>
      <feComposite in="SourceGraphic"/>
    </filter>
  </defs>
  <g id="Grupo_1165349" data-name="Grupo 1165349" transform="translate(-231.051 -5290)">
    <g id="Grupo_1160573" data-name="Grupo 1160573" transform="translate(52 619)">
      <rect id="Rectángulo_401557" data-name="Rectángulo 401557" width="144" height="138" rx="12" transform="translate(193.051 4674)" fill="#01b9d1"/>
    </g>
    <g id="Grupo_1165348" data-name="Grupo 1165348" transform="translate(-4.554 0.19)">
      <g transform="matrix(1, 0, 0, 1, 235.6, 5289.81)" filter="url(#Trazado_979554)">
        <path id="Trazado_979554-2" data-name="Trazado 979554" d="M382.792,70.311q.8-2.174,1.752-4.323c8.094-18.227,24.45-34.72,44.17-40.975,20.675-6.558,45.1-3.885,61.778,9.46,20.66,16.53,30,56.858,2.169,71.832a32.926,32.926,0,0,1-24.89,2.39c-12.5-3.857-22.4-15.156-35.542-15.315-7.347-.091-14.123,3.412-20.89,6.137s-14.674,4.7-21.29,1.662c-5.473-2.517-8.873-8.126-9.741-13.85S380.789,75.771,382.792,70.311Z" transform="matrix(0.92, 0.39, -0.39, 0.92, -297.81, -162.36)" fill="#e3f0d4" opacity="0.85"/>
      </g>
      <g id="control-de-plagas" transform="translate(260.051 5304.945)">
        <path id="Trazado_991544" data-name="Trazado 991544" d="M87.7,413.562H61.666A16.876,16.876,0,0,1,44.79,396.686V396.4a8.59,8.59,0,0,0-8.59-8.59H61.952A25.744,25.744,0,0,1,87.7,413.566Z" transform="translate(-28.426 -304.524)" fill="#64be32"/>
        <path id="Trazado_991545" data-name="Trazado 991545" d="M84.208,411.156H58.174a17.825,17.825,0,0,1-17.795-17.8v-.286a7.671,7.671,0,0,0-7.663-7.663.919.919,0,1,1,0-1.836H58.46a26.693,26.693,0,0,1,26.662,26.66.919.919,0,0,1-.915.919ZM38.326,385.412a9.492,9.492,0,0,1,3.889,7.663v.286a15.976,15.976,0,0,0,15.957,15.957H83.267a24.854,24.854,0,0,0-24.807-23.9Z" transform="translate(-24.934 -301.199)" fill="#2d2d2d"/>
        <path id="Trazado_991546" data-name="Trazado 991546" d="M169.629,442.344a17.5,17.5,0,0,1-12.589-5.369,18.111,18.111,0,0,1-5.2-12.718.919.919,0,1,1,1.836,0A16.118,16.118,0,0,0,169.629,440.5a.919.919,0,1,1,0,1.836Z" transform="translate(-119.227 -332.387)" fill="#2d2d2d"/>
        <circle id="Elipse_11781" data-name="Elipse 11781" cx="9.439" cy="9.439" r="9.439" transform="translate(33.526 62.701)" fill="#fa5a3c"/>
        <path id="Trazado_991547" data-name="Trazado 991547" d="M162.188,308.4a10.358,10.358,0,1,1,10.358-10.358A10.358,10.358,0,0,1,162.188,308.4Zm0-18.877a8.52,8.52,0,1,0,8.52,8.52A8.52,8.52,0,0,0,162.188,289.518Z" transform="translate(-119.223 -225.898)" fill="#2d2d2d"/>
        <circle id="Elipse_11782" data-name="Elipse 11782" cx="7.723" cy="7.723" r="7.723" transform="translate(69.567 42.108)" fill="#fa5a3c"/>
        <path id="Trazado_991548" data-name="Trazado 991548" d="M328.284,209.064a8.642,8.642,0,1,1,8.64-8.646A8.642,8.642,0,0,1,328.284,209.064Zm0-15.446a6.8,6.8,0,1,0,6.8,6.8A6.8,6.8,0,0,0,328.284,193.618Z" transform="translate(-250.994 -150.593)" fill="#2d2d2d"/>
        <path id="Trazado_991549" data-name="Trazado 991549" d="M286.591,140.13h9.449v3.436a20.592,20.592,0,0,1-20.6,20.589H266v-3.436a20.592,20.592,0,0,1,20.587-20.589Z" transform="translate(-208.874 -110.036)" fill="#64be32"/>
        <path id="Trazado_991550" data-name="Trazado 991550" d="M272.076,161.714h-9.437a.919.919,0,0,1-.919-.919v-3.436a21.536,21.536,0,0,1,21.51-21.508h9.449a.919.919,0,0,1,.919.919v3.436a21.538,21.538,0,0,1-21.523,21.508Zm-8.52-1.836h8.52A19.7,19.7,0,0,0,291.752,140.2v-2.513H283.23a19.7,19.7,0,0,0-19.674,19.67Z" transform="translate(-205.513 -106.675)" fill="#2d2d2d"/>
        <path id="Trazado_991551" data-name="Trazado 991551" d="M161.916,218.665A22.6,22.6,0,0,0,139.31,196.07H124.15a25.743,25.743,0,0,0,25.737,25.741h1.72V263h10.308Z" transform="translate(-97.488 -153.962)" fill="#64be32"/>
        <path id="Trazado_991552" data-name="Trazado 991552" d="M158.555,260.558H148.246a.919.919,0,0,1-.919-.919v-40.27h-.8a26.693,26.693,0,0,1-26.658-26.66.919.919,0,0,1,.919-.919h15.16A23.542,23.542,0,0,1,159.465,215.3v44.335a.919.919,0,0,1-.911.919Zm-9.379-1.836h8.459V215.3a21.7,21.7,0,0,0-21.689-21.678H121.723a24.854,24.854,0,0,0,24.8,23.907h1.718a.919.919,0,0,1,.919.919Z" transform="translate(-94.127 -150.601)" fill="#2d2d2d"/>
        <path id="Trazado_991553" data-name="Trazado 991553" d="M275.64,407.58a7.826,7.826,0,0,1-7.66,6.013h13.73a25.743,25.743,0,0,0,25.743-25.743h-6.872c-17.658,0-23.2,12.123-24.94,19.73Z" transform="translate(-210.429 -304.555)" fill="#64be32"/>
        <path id="Trazado_991554" data-name="Trazado 991554" d="M278.529,411.159H264.8a.919.919,0,0,1,0-1.836,6.944,6.944,0,0,0,6.765-5.3c1.746-7.635,7.424-20.445,25.844-20.445h6.872a.919.919,0,0,1,.919.919A26.693,26.693,0,0,1,278.529,411.159Zm-8.343-1.836h8.343a24.854,24.854,0,0,0,24.807-23.907h-5.93c-17.144,0-22.43,11.915-24.053,19.017a8.59,8.59,0,0,1-3.17,4.888Z" transform="translate(-207.246 -301.202)" fill="#2d2d2d"/>
        <path id="Trazado_991555" data-name="Trazado 991555" d="M252,293.739v8.59a8.59,8.59,0,0,1,8.59-8.59h6.578a22.6,22.6,0,0,0,22.588-22.595V268H277.743A25.743,25.743,0,0,0,252,293.739Z" transform="translate(-197.881 -210.444)" fill="#a0fa78"/>
        <path id="Trazado_991556" data-name="Trazado 991556" d="M248.639,299.871a.919.919,0,0,1-.919-.919v-8.59a26.693,26.693,0,0,1,26.662-26.652H286.4a.919.919,0,0,1,.919.919v3.146A23.542,23.542,0,0,1,263.8,291.289h-6.57a7.671,7.671,0,0,0-7.663,7.663.919.919,0,0,1-.928.919Zm25.743-34.325a24.852,24.852,0,0,0-24.824,24.824v2.972a9.492,9.492,0,0,1,7.671-3.889h6.578a21.7,21.7,0,0,0,21.669-21.678v-2.229Z" transform="translate(-194.52 -207.076)" fill="#2d2d2d"/>
        <circle id="Elipse_11783" data-name="Elipse 11783" cx="36.039" cy="36.039" r="36.039" transform="translate(0.919 0.919)" fill="#1eb4f0"/>
        <path id="Trazado_991557" data-name="Trazado 991557" d="M36.958,73.916A36.958,36.958,0,1,1,55.44,4.939a.919.919,0,0,1-.919,1.589A35.268,35.268,0,1,0,58.67,9.351a.919.919,0,1,1,1.136-1.443A36.959,36.959,0,0,1,36.958,73.916Z" fill="#2d2d2d"/>
        <path id="Trazado_991558" data-name="Trazado 991558" d="M94.639,65.417A29.167,29.167,0,1,1,87.928,46.8,29.165,29.165,0,0,1,94.639,65.417Z" transform="translate(-28.506 -28.459)" fill="#fff"/>
        <path id="Trazado_991559" data-name="Trazado 991559" d="M62.086,92.18A30.09,30.09,0,1,1,92.18,62.086,30.086,30.086,0,0,1,62.086,92.18Zm0-58.35A28.256,28.256,0,1,0,90.342,62.086,28.285,28.285,0,0,0,62.086,33.83Z" transform="translate(-25.128 -25.128)" fill="#2d2d2d"/>
        <path id="Trazado_991560" data-name="Trazado 991560" d="M197.956,173.652H192.8a.919.919,0,0,1,0-1.836h5.154a.919.919,0,1,1,0,1.836Z" transform="translate(-150.709 -134.916)" fill="#2d2d2d"/>
        <path id="Trazado_991561" data-name="Trazado 991561" d="M153.244,172.027a5.154,5.154,0,0,1-5.154-5.154V160h10.3v6.872A5.154,5.154,0,0,1,153.244,172.027Z" transform="translate(-116.286 -125.638)" fill="#fa5a3c"/>
        <path id="Trazado_991562" data-name="Trazado 991562" d="M149.907,169.648a6.073,6.073,0,0,1-6.067-6.067v-6.872a.919.919,0,0,1,.919-.919h10.3a.919.919,0,0,1,.919.919v6.872A6.073,6.073,0,0,1,149.907,169.648Zm-4.231-12.014v5.947a4.231,4.231,0,1,0,8.459,0v-5.947Z" transform="translate(-112.949 -122.333)" fill="#2d2d2d"/>
        <path id="Trazado_991563" data-name="Trazado 991563" d="M158.418,141.264h-10.3a5.154,5.154,0,1,1,10.308,0Z" transform="translate(-116.31 -106.879)" fill="#b47846"/>
        <path id="Trazado_991564" data-name="Trazado 991564" d="M155.057,138.836h-10.3a.919.919,0,0,1-.919-.919,6.067,6.067,0,1,1,12.134,0A.919.919,0,0,1,155.057,138.836ZM145.779,137h8.26a4.231,4.231,0,0,0-8.26,0Z" transform="translate(-112.949 -103.534)" fill="#2d2d2d"/>
        <path id="Trazado_991565" data-name="Trazado 991565" d="M135.572,147.554l-3.432-3.434" transform="translate(-103.762 -113.169)" fill="#a0fa78"/>
        <path id="Trazado_991566" data-name="Trazado 991566" d="M132.509,145.431a.915.915,0,0,1-.644-.268l-3.436-3.436a.919.919,0,0,1,1.289-1.289l3.436,3.436a.919.919,0,0,1-.644,1.568Z" transform="translate(-100.698 -110.129)" fill="#2d2d2d"/>
        <path id="Trazado_991567" data-name="Trazado 991567" d="M135.572,192.07,132.14,195.5" transform="translate(-103.762 -150.821)" fill="#a0fa78"/>
        <path id="Trazado_991568" data-name="Trazado 991568" d="M128.8,193.342a.919.919,0,0,1-.644-1.568l3.436-3.436a.919.919,0,0,1,1.289,1.289l-3.436,3.436A.915.915,0,0,1,128.8,193.342Z" transform="translate(-100.426 -147.742)" fill="#2d2d2d"/>
        <path id="Trazado_991569" data-name="Trazado 991569" d="M125.751,173.652H120.6a.919.919,0,1,1,0-1.836h5.154a.919.919,0,1,1,0,1.836Z" transform="translate(-93.941 -134.916)" fill="#2d2d2d"/>
        <path id="Trazado_991570" data-name="Trazado 991570" d="M196.07,147.554l3.432-3.434" transform="translate(-153.962 -113.169)" fill="#a0fa78"/>
        <path id="Trazado_991571" data-name="Trazado 991571" d="M192.735,145.392a.919.919,0,0,1-.644-1.568l3.436-3.436a.919.919,0,0,1,1.289,1.289l-3.436,3.436A.915.915,0,0,1,192.735,145.392Z" transform="translate(-150.627 -110.09)" fill="#2d2d2d"/>
        <path id="Trazado_991572" data-name="Trazado 991572" d="M196.07,192.07,199.5,195.5" transform="translate(-153.962 -150.821)" fill="#a0fa78"/>
        <path id="Trazado_991573" data-name="Trazado 991573" d="M196.389,193.381a.915.915,0,0,1-.644-.268l-3.436-3.436a.919.919,0,0,1,1.289-1.289l3.436,3.436a.919.919,0,0,1-.644,1.568Z" transform="translate(-150.859 -147.781)" fill="#2d2d2d"/>
        <path id="Trazado_991574" data-name="Trazado 991574" d="M157.826,129.856l-1.716-1.716" transform="translate(-122.584 -100.621)" fill="#a0fa78"/>
        <path id="Trazado_991575" data-name="Trazado 991575" d="M154.144,127.117a.915.915,0,0,1-.644-.268l-1.718-1.718a.919.919,0,1,1,1.289-1.289l1.718,1.718a.919.919,0,0,1-.644,1.568Z" transform="translate(-118.902 -96.962)" fill="#2d2d2d"/>
        <path id="Trazado_991576" data-name="Trazado 991576" d="M180.08,129.856l1.718-1.716" transform="translate(-141.406 -100.621)" fill="#a0fa78"/>
        <g id="Grupo_1165347" data-name="Grupo 1165347" transform="translate(20.592 12.859)">
          <path id="Trazado_991577" data-name="Trazado 991577" d="M176.745,127.077a.919.919,0,0,1-.644-1.568l1.718-1.718a.919.919,0,1,1,1.289,1.289l-1.718,1.718A.915.915,0,0,1,176.745,127.077Z" transform="translate(-158.663 -109.782)" fill="#2d2d2d"/>
          <path id="Trazado_991578" data-name="Trazado 991578" d="M168.725,169.518a.919.919,0,0,1-.919-.919V156.587a.919.919,0,1,1,1.836,0v12a.919.919,0,0,1-.917.928Z" transform="translate(-152.359 -135.06)" fill="#2d2d2d"/>
          <path id="Trazado_991579" data-name="Trazado 991579" d="M101.955,214.555H96.8a.919.919,0,0,1-.915-.923v-5.154a.919.919,0,1,1,1.836,0v4.231h4.231a.919.919,0,1,1,0,1.836Z" transform="translate(-95.885 -175.806)" fill="#2d2d2d"/>
          <path id="Trazado_991580" data-name="Trazado 991580" d="M221.956,214.554H216.8a.919.919,0,0,1,0-1.836h4.231v-4.242a.919.919,0,1,1,1.836,0v5.154A.919.919,0,0,1,221.956,214.554Z" transform="translate(-190.147 -175.806)" fill="#2d2d2d"/>
          <path id="Trazado_991581" data-name="Trazado 991581" d="M221.956,110.866a.919.919,0,0,1-.919-.919v-4.231H216.8a.919.919,0,0,1,0-1.836h5.154a.919.919,0,0,1,.919.919v5.154A.919.919,0,0,1,221.956,110.866Z" transform="translate(-190.147 -94.429)" fill="#2d2d2d"/>
          <path id="Trazado_991582" data-name="Trazado 991582" d="M96.809,110.839a.919.919,0,0,1-.919-.919v-5.154a.919.919,0,0,1,.919-.919h5.154a.919.919,0,1,1,0,1.836H97.733v4.231a.919.919,0,0,1-.923.926Z" transform="translate(-95.889 -94.402)" fill="#2d2d2d"/>
          <path id="Trazado_991583" data-name="Trazado 991583" d="M296.8,442.375a.919.919,0,0,1,0-1.836A16.116,16.116,0,0,0,312.758,424.3a.919.919,0,1,1,1.836,0A18.108,18.108,0,0,1,309.385,437,17.5,17.5,0,0,1,296.8,442.375Z" transform="translate(-252.966 -345.277)" fill="#2d2d2d"/>
          <path id="Trazado_991584" data-name="Trazado 991584" d="M248.639,346.612a.919.919,0,0,1-.919-.919,18.112,18.112,0,0,1,5.216-12.72,17.5,17.5,0,0,1,12.587-5.367.919.919,0,1,1,0,1.836,16.116,16.116,0,0,0-15.957,16.242.919.919,0,0,1-.928.928Z" transform="translate(-215.112 -270.107)" fill="#2d2d2d"/>
          <path id="Trazado_991585" data-name="Trazado 991585" d="M240.639,71.164a.919.919,0,0,1-.414-1.74l18.663-9.449a.919.919,0,0,1,.414-.1H271.53a.919.919,0,1,1,0,1.836H259.525l-18.469,9.34A.915.915,0,0,1,240.639,71.164Z" transform="translate(-208.83 -59.875)" fill="#2d2d2d"/>
        </g>
        <circle id="Elipse_11784" data-name="Elipse 11784" cx="12.871" cy="12.871" r="12.871" transform="translate(83.297 0.919)" fill="#fa5a3c"/>
        <path id="Trazado_991586" data-name="Trazado 991586" d="M397.37,27.579a13.79,13.79,0,1,1,13.79-13.79,13.79,13.79,0,0,1-13.79,13.79Zm0-25.743A11.954,11.954,0,1,0,409.323,13.79,11.954,11.954,0,0,0,397.37,1.836Z" transform="translate(-301.202 0)" fill="#2d2d2d"/>
        <path id="Trazado_991587" data-name="Trazado 991587" d="M435.8,20.26h5.148V39.137H435.8Z" transform="translate(-342.208 -15.909)" fill="#fff"/>
        <path id="Trazado_991588" data-name="Trazado 991588" d="M437.573,36.711h-5.154a.919.919,0,0,1-.919-.919V16.915a.919.919,0,0,1,.923-.915h5.154a.919.919,0,0,1,.919.919V35.8a.919.919,0,0,1-.923.915Zm-4.231-1.836h3.312V17.834h-3.312Z" transform="translate(-338.831 -12.564)" fill="#2d2d2d"/>
        <path id="Trazado_991589" data-name="Trazado 991589" d="M437.736,81.752h-5.154a.919.919,0,0,1,0-1.836h5.154a.919.919,0,1,1,0,1.836Z" transform="translate(-338.994 -62.753)" fill="#2d2d2d"/>
      </g>
    </g>
  </g>
</svg>
