<svg xmlns="http://www.w3.org/2000/svg" xmlns:xlink="http://www.w3.org/1999/xlink" width="167.336" height="141.46" viewBox="0 0 167.336 141.46">
  <defs>
    <filter id="Trazado_979554" x="0" y="2.54" width="167.336" height="138.92" filterUnits="userSpaceOnUse">
      <feOffset dy="3" input="SourceAlpha"/>
      <feGaussianBlur stdDeviation="3" result="blur"/>
      <feFlood flood-opacity="0.161"/>
      <feComposite operator="in" in2="blur"/>
      <feComposite in="SourceGraphic"/>
    </filter>
  </defs>
  <g id="Grupo_1165352" data-name="Grupo 1165352" transform="translate(5037 6324.4)">
    <g id="Grupo_1160573" data-name="Grupo 1160573" transform="translate(-5221.051 -10998.4)">
      <rect id="Rectángulo_401557" data-name="Rectángulo 401557" width="144" height="138" rx="12" transform="translate(193.051 4674)" fill="#01b9d1"/>
    </g>
    <g id="Grupo_1165351" data-name="Grupo 1165351">
      <g transform="matrix(1, 0, 0, 1, -5037, -6324.4)" filter="url(#Trazado_979554)">
        <path id="Trazado_979554-2" data-name="Trazado 979554" d="M382.792,70.311q.8-2.174,1.752-4.323c8.094-18.227,24.45-34.72,44.17-40.975,20.675-6.558,45.1-3.885,61.778,9.46,20.66,16.53,30,56.858,2.169,71.832a32.926,32.926,0,0,1-24.89,2.39c-12.5-3.857-22.4-15.156-35.542-15.315-7.347-.091-14.123,3.412-20.89,6.137s-14.674,4.7-21.29,1.662c-5.473-2.517-8.873-8.126-9.741-13.85S380.789,75.771,382.792,70.311Z" transform="translate(-325.97 -116.96) rotate(16)" fill="#e3f0d4" opacity="0.85"/>
      </g>
      <g id="Layer_x0020_1" transform="translate(-5021.987 -6326.054)">
        <g id="_376349776" transform="translate(9.144 17.732)">
          <g id="Grupo_1165350" data-name="Grupo 1165350">
            <path id="_452893024" d="M108.719,129.662H79.56a1.3,1.3,0,1,1,0-2.6h29.159a1.3,1.3,0,0,1,0,2.6Z" transform="translate(-25.224 -43.169)" fill-rule="evenodd"/>
            <path id="_452892952" d="M39.592,68.859a1.3,1.3,0,0,1-1.3-1.3v-35a1.3,1.3,0,1,1,2.6,0v35A1.3,1.3,0,0,1,39.592,68.859Zm80.44,22.562a1.3,1.3,0,0,1-1.3-1.3V77.673a6.383,6.383,0,0,0-4.691-6.055L96.6,66.1a1.3,1.3,0,0,1-.885-1l-6.125-32.3a1.3,1.3,0,1,1,2.552-.485l5.982,31.535,16.705,5.284a8.94,8.94,0,0,1,6.5,8.532V90.122A1.3,1.3,0,0,1,120.033,91.421Z" transform="translate(-15.926 -20.88)" fill-rule="evenodd"/>
            <path id="_452892640" d="M36.658,28.115h56.92c.284,0,.384-.092.449-.192a.8.8,0,0,0,.095-.625l-2.8-6.61a.562.562,0,0,0-.542-.357H37.249a.59.59,0,0,0-.591.587Zm56.92,2.6H35.36a1.3,1.3,0,0,1-1.3-1.3v-8.5a3.19,3.19,0,0,1,3.188-3.186H90.777a3.145,3.145,0,0,1,2.934,1.941l2.8,6.61a3.385,3.385,0,0,1-.317,3.075,3.03,3.03,0,0,1-2.617,1.356Z" transform="translate(-14.941 -17.732)" fill-rule="evenodd"/>
            <path id="_452892808" d="M28.564,126.722a1.311,1.311,0,0,1,.605.149,23.961,23.961,0,0,0,4.006,1.665,1.3,1.3,0,0,1,.912,1.24v3.367a.991.991,0,0,0,.99.991H45.649a.992.992,0,0,0,.99-.991v-3.367a1.294,1.294,0,0,1,.911-1.24,24.286,24.286,0,0,0,4.009-1.662,1.3,1.3,0,0,1,1.521.23l2.383,2.382a.991.991,0,0,0,1.4,0l7.474-7.471a1,1,0,0,0,0-1.4l-2.384-2.382a1.3,1.3,0,0,1-.231-1.524,24.056,24.056,0,0,0,1.662-4.009,1.3,1.3,0,0,1,1.24-.912H68a.99.99,0,0,0,.99-.991V100.227a.991.991,0,0,0-.991-.99H64.627a1.3,1.3,0,0,1-1.24-.912,24.1,24.1,0,0,0-1.662-4.009,1.3,1.3,0,0,1,.23-1.524l2.386-2.382a1,1,0,0,0,0-1.4l-7.473-7.474a1.023,1.023,0,0,0-1.4,0l-2.381,2.382a1.305,1.305,0,0,1-1.525.233,23.7,23.7,0,0,0-4.006-1.662,1.3,1.3,0,0,1-.912-1.242V77.879a1,1,0,0,0-.992-.991H35.079a1,1,0,0,0-.991.991v3.367a1.3,1.3,0,0,1-.912,1.242,23.727,23.727,0,0,0-4.006,1.662,1.3,1.3,0,0,1-1.524-.233l-2.381-2.382a1.024,1.024,0,0,0-1.4,0L16.388,89.01a.994.994,0,0,0,0,1.4l2.385,2.385A1.3,1.3,0,0,1,19,94.316a24.369,24.369,0,0,0-1.662,4.009,1.3,1.3,0,0,1-1.24.912H12.734a.992.992,0,0,0-.991.991V110.8a.991.991,0,0,0,.99.991H16.1a1.3,1.3,0,0,1,1.24.912A24.213,24.213,0,0,0,19,116.707a1.3,1.3,0,0,1-.23,1.524l-2.384,2.382a1,1,0,0,0,0,1.4l7.475,7.471a.99.99,0,0,0,1.4,0l2.382-2.382a1.3,1.3,0,0,1,.919-.382Zm17.085,10.01H35.079a3.594,3.594,0,0,1-3.589-3.589v-2.431a26.607,26.607,0,0,1-2.67-1.107L27.1,131.324a3.592,3.592,0,0,1-5.075,0l-7.471-7.474a3.592,3.592,0,0,1,0-5.075l1.719-1.719a26.549,26.549,0,0,1-1.107-2.672h-2.43a3.6,3.6,0,0,1-3.59-3.589V100.227a3.594,3.594,0,0,1,3.589-3.589h2.432a26.6,26.6,0,0,1,1.106-2.672l-1.719-1.719a3.592,3.592,0,0,1,0-5.075L22.024,79.7a3.6,3.6,0,0,1,5.075,0l1.722,1.719a26.594,26.594,0,0,1,2.668-1.107V77.879a3.593,3.593,0,0,1,3.588-3.589H45.649a3.593,3.593,0,0,1,3.589,3.59V80.31a26.7,26.7,0,0,1,2.669,1.107L53.627,79.7a3.6,3.6,0,0,1,5.078,0l7.471,7.473a3.591,3.591,0,0,1,0,5.076l-1.718,1.719a26.5,26.5,0,0,1,1.107,2.672H68a3.593,3.593,0,0,1,3.588,3.589V110.8a3.594,3.594,0,0,1-3.589,3.589H65.566a26.969,26.969,0,0,1-1.11,2.672l1.719,1.719a3.593,3.593,0,0,1,0,5.076l-7.47,7.474a3.6,3.6,0,0,1-5.079,0l-1.718-1.719a26.682,26.682,0,0,1-2.67,1.107v2.431a3.594,3.594,0,0,1-3.59,3.589Z" transform="translate(-9.144 -30.891)" fill-rule="evenodd"/>
            <path id="_460521016" d="M127.394,134.838a1.3,1.3,0,0,1,.646.173,13.271,13.271,0,0,0,3.145,1.3,1.3,1.3,0,0,1,.961,1.256v.909a.786.786,0,0,0,.776.777h3.5a.787.787,0,0,0,.776-.777v-.91a1.3,1.3,0,0,1,.958-1.253,13.276,13.276,0,0,0,3.146-1.3,1.3,1.3,0,0,1,1.567.206l.645.647a.787.787,0,0,0,1.1,0l2.477-2.477a.784.784,0,0,0,0-1.1l-.643-.647a1.294,1.294,0,0,1-.21-1.565,13.347,13.347,0,0,0,1.3-3.145,1.3,1.3,0,0,1,1.253-.961h.912a.785.785,0,0,0,.777-.777v-3.5a.788.788,0,0,0-.777-.777H148.8a1.3,1.3,0,0,1-1.257-.961,13.342,13.342,0,0,0-1.3-3.145,1.3,1.3,0,0,1,.208-1.565l.644-.647a.78.78,0,0,0,0-1.1l-2.476-2.48a.793.793,0,0,0-1.1,0l-.644.647a1.3,1.3,0,0,1-1.568.209,13.13,13.13,0,0,0-3.146-1.3,1.3,1.3,0,0,1-.958-1.253v-.912a.787.787,0,0,0-.777-.777h-3.5a.785.785,0,0,0-.775.777v.912a1.3,1.3,0,0,1-.961,1.253,13.153,13.153,0,0,0-3.145,1.3,1.3,1.3,0,0,1-1.567-.208l-.643-.647a.794.794,0,0,0-1.1,0l-2.476,2.479a.781.781,0,0,0,0,1.1l.645.647a1.3,1.3,0,0,1,.208,1.565,13.415,13.415,0,0,0-1.3,3.145,1.294,1.294,0,0,1-1.253.961h-.912a.79.79,0,0,0-.777.777v3.5a.788.788,0,0,0,.777.777h.913a1.3,1.3,0,0,1,1.253.961,13.325,13.325,0,0,0,1.3,3.145,1.3,1.3,0,0,1-.208,1.567l-.644.644a.788.788,0,0,0,0,1.1l2.477,2.477a.788.788,0,0,0,1.1,0l.645-.647a1.306,1.306,0,0,1,.92-.379Zm9.033,7.016h-3.5a3.378,3.378,0,0,1-3.376-3.324,15.385,15.385,0,0,1-1.917-.8,3.382,3.382,0,0,1-4.74-.033l-2.477-2.477a3.381,3.381,0,0,1-.036-4.739,16.329,16.329,0,0,1-.8-1.917,3.381,3.381,0,0,1-3.324-3.375v-3.5a3.382,3.382,0,0,1,3.326-3.375,16.167,16.167,0,0,1,.793-1.917,3.383,3.383,0,0,1,.035-4.737l2.478-2.477a3.38,3.38,0,0,1,4.739-.035,15.836,15.836,0,0,1,1.917-.8,3.377,3.377,0,0,1,3.373-3.324h3.506a3.379,3.379,0,0,1,3.375,3.324,15.893,15.893,0,0,1,1.914.8,3.379,3.379,0,0,1,4.74.035l2.477,2.477a3.383,3.383,0,0,1,.035,4.737,15.95,15.95,0,0,1,.8,1.917,3.379,3.379,0,0,1,3.324,3.375v3.5a3.378,3.378,0,0,1-3.327,3.376,15.9,15.9,0,0,1-.793,1.917,3.383,3.383,0,0,1-.035,4.737l-2.476,2.479a3.382,3.382,0,0,1-4.738.035,15.934,15.934,0,0,1-1.916.793A3.381,3.381,0,0,1,136.427,141.854Z" transform="translate(-34.065 -38.043)" fill-rule="evenodd"/>
            <path id="_376343368" d="M83.906,70.338H98.685L93.325,42.064H78.489V65.671A39.165,39.165,0,0,1,83.906,70.338Zm16.349,2.6H83.35a1.305,1.305,0,0,1-.947-.409,36.483,36.483,0,0,0-5.95-5.108,1.305,1.305,0,0,1-.563-1.072V40.765a1.3,1.3,0,0,1,1.3-1.3H94.4a1.3,1.3,0,0,1,1.277,1.058L101.53,71.4a1.3,1.3,0,0,1-1.275,1.54Z" transform="translate(-24.673 -22.789)" fill-rule="evenodd"/>
            <path id="_376343272" d="M49.094,58.452A38.6,38.6,0,0,1,63.51,61.224V42.064H49.094ZM64.81,64.5a1.327,1.327,0,0,1-.545-.119A36.04,36.04,0,0,0,49.052,61.05c-.359,0-.747.005-1.215.022a1.315,1.315,0,0,1-.945-.365,1.3,1.3,0,0,1-.4-.934V40.765a1.3,1.3,0,0,1,1.3-1.3H64.81a1.3,1.3,0,0,1,1.3,1.3V63.2a1.3,1.3,0,0,1-1.3,1.3Z" transform="translate(-17.834 -22.789)" fill-rule="evenodd"/>
            <path id="_376343176" d="M44.789,95.917a14.022,14.022,0,1,0,14.024,14.022A14.039,14.039,0,0,0,44.789,95.917Zm0,30.642a16.62,16.62,0,1,1,16.623-16.62A16.64,16.64,0,0,1,44.789,126.559Z" transform="translate(-13.57 -35.318)" fill-rule="evenodd"/>
            <path id="_376342864" d="M137.481,119.686a6.562,6.562,0,1,0,6.558,6.562A6.57,6.57,0,0,0,137.481,119.686Zm0,15.722a9.16,9.16,0,1,1,9.157-9.16A9.17,9.17,0,0,1,137.481,135.408Z" transform="translate(-36.872 -40.848)" fill-rule="evenodd"/>
            <path id="_376342840" d="M133.673,78.774a1.3,1.3,0,0,1-1.3-1.3V66.656a.86.86,0,0,0-.85-.847H129a.858.858,0,0,0-.847.848v8.662a1.3,1.3,0,0,1-2.6,0V66.656A3.449,3.449,0,0,1,129,63.21h2.526a3.45,3.45,0,0,1,3.448,3.446V77.475a1.3,1.3,0,0,1-1.3,1.3Z" transform="translate(-36.227 -28.313)" fill-rule="evenodd"/>
            <path id="_376343392" d="M130.219,62.33a1.3,1.3,0,0,1-1.3-1.3v-8.67l-2.905-1.676a1.3,1.3,0,0,1,1.3-2.252l3.554,2.052a1.3,1.3,0,0,1,.65,1.126v9.42A1.3,1.3,0,0,1,130.219,62.33Z" transform="translate(-36.184 -24.835)" fill-rule="evenodd"/>
            <path id="_376343080" d="M138.753,92.789H123.786a5.039,5.039,0,0,1-5.035-5.035V77.685a1.3,1.3,0,1,1,2.6,0V87.754a2.44,2.44,0,0,0,2.436,2.437h14.967a1.3,1.3,0,0,1,0,2.6Z" transform="translate(-34.645 -31.378)" fill-rule="evenodd"/>
            <path id="_376343056" d="M97.925,109.572a.182.182,0,0,0-.179.176v4.358a.184.184,0,0,0,.179.176h10.449a.183.183,0,0,0,.175-.176v-4.358a.181.181,0,0,0-.176-.176Zm10.449,7.309H97.925a2.779,2.779,0,0,1-2.778-2.774v-4.358a2.779,2.779,0,0,1,2.777-2.775h10.449a2.778,2.778,0,0,1,2.774,2.775v4.358A2.779,2.779,0,0,1,108.374,116.881Z" transform="translate(-29.153 -38.495)" fill-rule="evenodd"/>
            <path id="_376343464" d="M98.193,97.846a1.3,1.3,0,0,1-1.3-1.3V93.136a1.3,1.3,0,1,1,2.6,0v3.413A1.3,1.3,0,0,1,98.193,97.846Z" transform="translate(-29.56 -34.973)" fill-rule="evenodd"/>
            <path id="_376343488" d="M105.182,97.846a1.3,1.3,0,0,1-1.3-1.3V93.136a1.3,1.3,0,0,1,2.6,0v3.413A1.3,1.3,0,0,1,105.182,97.846Z" transform="translate(-31.186 -34.973)" fill-rule="evenodd"/>
            <path id="_376343320" d="M112.166,97.846a1.3,1.3,0,0,1-1.3-1.3V93.136a1.3,1.3,0,0,1,2.6,0v3.413A1.3,1.3,0,0,1,112.166,97.846Z" transform="translate(-32.811 -34.973)" fill-rule="evenodd"/>
          </g>
          <path id="_376342288" d="M84.048,79.831a1.3,1.3,0,1,1,2.6,0v3.413a1.3,1.3,0,0,1-2.6,0Zm5.362,3.414V79.831a1.3,1.3,0,0,1,2.6,0v3.413a1.3,1.3,0,0,1-2.6,0Zm6.659,1.3a1.3,1.3,0,0,1-1.3-1.3V79.831a1.3,1.3,0,0,1,2.6,0v3.413a1.3,1.3,0,0,1-1.3,1.3ZM56.808,71.088a26.7,26.7,0,0,1,2.669,1.107L61.2,70.476a3.6,3.6,0,0,1,5.078,0l7.471,7.473a3.591,3.591,0,0,1,0,5.076l-1.718,1.719a26.5,26.5,0,0,1,1.107,2.672h2.432a3.593,3.593,0,0,1,3.588,3.589v10.568a3.594,3.594,0,0,1-3.589,3.589H73.136q-.071.2-.145.4H98.908v-.246a3.382,3.382,0,0,1,3.326-3.375,16.168,16.168,0,0,1,.793-1.917,3.383,3.383,0,0,1,.035-4.737l2.478-2.477a3.38,3.38,0,0,1,4.739-.035,15.834,15.834,0,0,1,1.917-.8,3.377,3.377,0,0,1,3.373-3.324h3.506a3.393,3.393,0,0,1,.446.029V83.079H105.854a5.039,5.039,0,0,1-5.035-5.035V67.975l-3.433-1.086a1.3,1.3,0,0,1-.885-1L90.577,34.65h-48.9V65.2a3.578,3.578,0,0,1,.969-.133H53.219a3.593,3.593,0,0,1,3.589,3.59v2.431Zm17.635.32a36.483,36.483,0,0,0-5.95-5.108,1.305,1.305,0,0,1-.563-1.072V39.645a1.3,1.3,0,0,1,1.3-1.3H86.441A1.3,1.3,0,0,1,87.718,39.4l5.853,30.872a1.3,1.3,0,0,1-1.275,1.54h-16.9a1.305,1.305,0,0,1-.947-.409Zm8.264,21.514a2.779,2.779,0,0,1,2.777-2.775H95.934a2.778,2.778,0,0,1,2.774,2.775V97.28a2.779,2.779,0,0,1-2.775,2.775H85.485a2.779,2.779,0,0,1-2.778-2.774ZM63.145,63.257A36.04,36.04,0,0,0,47.932,59.93c-.359,0-.747.005-1.215.022a1.315,1.315,0,0,1-.945-.365,1.3,1.3,0,0,1-.4-.934V39.645a1.3,1.3,0,0,1,1.3-1.3H63.69a1.3,1.3,0,0,1,1.3,1.3V62.077a1.3,1.3,0,0,1-1.3,1.3A1.327,1.327,0,0,1,63.145,63.257Z" transform="translate(-16.714 -21.668)" fill="#fd481e" fill-rule="evenodd"/>
          <path id="_376342144" d="M64.175,99.113A24.1,24.1,0,0,0,62.513,95.1a1.3,1.3,0,0,1,.23-1.524L65.129,91.2a1,1,0,0,0,0-1.4l-7.473-7.474a1.023,1.023,0,0,0-1.4,0l-2.381,2.382a1.305,1.305,0,0,1-1.525.233,23.7,23.7,0,0,0-4.006-1.662,1.3,1.3,0,0,1-.912-1.242V78.667a1,1,0,0,0-.992-.991H35.867a1,1,0,0,0-.975.817q0,.042-.011.083t0,.091v3.367a1.3,1.3,0,0,1-.912,1.242,23.727,23.727,0,0,0-4.006,1.662,1.3,1.3,0,0,1-1.524-.233l-2.381-2.382a1.024,1.024,0,0,0-1.4,0L17.176,89.8a.994.994,0,0,0,0,1.4l2.385,2.385A1.3,1.3,0,0,1,19.79,95.1a24.369,24.369,0,0,0-1.662,4.009,1.3,1.3,0,0,1-1.24.912H13.522a.992.992,0,0,0-.991.991v10.568a.991.991,0,0,0,.99.991h3.367a1.3,1.3,0,0,1,1.24.912,24.213,24.213,0,0,0,1.662,4.009,1.3,1.3,0,0,1-.23,1.524L17.176,121.4a1,1,0,0,0,0,1.4l7.475,7.471a.99.99,0,0,0,1.4,0l2.382-2.382a1.3,1.3,0,0,1,1.524-.233,23.961,23.961,0,0,0,4.006,1.665,1.3,1.3,0,0,1,.912,1.24v3.367a.991.991,0,0,0,.99.991H46.437a.992.992,0,0,0,.99-.991v-3.367a1.294,1.294,0,0,1,.911-1.24,24.286,24.286,0,0,0,4.009-1.662,1.3,1.3,0,0,1,1.521.23l2.383,2.382a.991.991,0,0,0,1.4,0l7.474-7.471a1,1,0,0,0,0-1.4l-2.384-2.382a1.3,1.3,0,0,1-.231-1.524,24.056,24.056,0,0,0,1.662-4.009,1.3,1.3,0,0,1,1.24-.912h3.368a.99.99,0,0,0,.99-.991V101.015a.991.991,0,0,0-.991-.99H65.415a1.3,1.3,0,0,1-1.24-.912ZM41.15,89.679A16.62,16.62,0,1,1,24.53,106.3a16.64,16.64,0,0,1,16.62-16.62Z" transform="translate(-9.932 -31.679)" fill="#8c808a" fill-rule="evenodd"/>
          <path id="_376342096" d="M59.6,110.727a14.023,14.023,0,1,0-14.025,14.022A14.039,14.039,0,0,0,59.6,110.727Z" transform="translate(-14.358 -36.106)" fill="#cdc8cd" fill-rule="evenodd"/>
          <path id="_376342576" d="M138.269,120.474a6.562,6.562,0,1,0,6.558,6.562A6.57,6.57,0,0,0,138.269,120.474Z" transform="translate(-37.659 -41.636)" fill="#cdc8cd" fill-rule="evenodd"/>
          <path id="_376342624" d="M126.3,124.23a9.159,9.159,0,1,1,9.161,9.16,9.17,9.17,0,0,1-9.161-9.16Zm7.407-15.814a.785.785,0,0,0-.775.777v.912a1.3,1.3,0,0,1-.961,1.253,13.153,13.153,0,0,0-3.145,1.3,1.3,1.3,0,0,1-1.567-.208l-.643-.647a.794.794,0,0,0-1.1,0l-2.476,2.479a.781.781,0,0,0,0,1.1l.645.647a1.3,1.3,0,0,1,.208,1.565,13.415,13.415,0,0,0-1.3,3.145,1.3,1.3,0,0,1-1.253.961h-.912a.79.79,0,0,0-.777.777v3.5a.788.788,0,0,0,.777.777h.913a1.3,1.3,0,0,1,1.253.961,13.325,13.325,0,0,0,1.3,3.145,1.3,1.3,0,0,1-.208,1.567l-.644.644a.788.788,0,0,0,0,1.1l2.477,2.477a.788.788,0,0,0,1.1,0l.645-.647a1.3,1.3,0,0,1,1.566-.206,13.271,13.271,0,0,0,3.145,1.3,1.3,1.3,0,0,1,.961,1.256v.909a.786.786,0,0,0,.776.777h3.5a.787.787,0,0,0,.776-.777v-.91a1.3,1.3,0,0,1,.958-1.253,13.277,13.277,0,0,0,3.146-1.3,1.3,1.3,0,0,1,1.567.206l.645.647a.787.787,0,0,0,1.1,0l2.477-2.477a.784.784,0,0,0,0-1.1l-.643-.647a1.294,1.294,0,0,1-.21-1.565,13.347,13.347,0,0,0,1.3-3.145,1.3,1.3,0,0,1,1.253-.961h.912a.785.785,0,0,0,.777-.777v-3.5a.788.788,0,0,0-.777-.777h-.909a1.3,1.3,0,0,1-1.257-.961,13.342,13.342,0,0,0-1.3-3.145,1.3,1.3,0,0,1,.208-1.565l.644-.647a.78.78,0,0,0,0-1.1l-2.476-2.48a.793.793,0,0,0-1.1,0l-.644.647a1.3,1.3,0,0,1-1.568.209,13.13,13.13,0,0,0-3.146-1.3,1.3,1.3,0,0,1-.958-1.253v-.912a.787.787,0,0,0-.777-.777Z" transform="translate(-34.853 -38.831)" fill="#8c808a" fill-rule="evenodd"/>
          <path id="_376342600" d="M109.336,114.894v-4.358a.181.181,0,0,0-.176-.176H98.712a.182.182,0,0,0-.179.176v4.358a.184.184,0,0,0,.179.176h10.449A.183.183,0,0,0,109.336,114.894Z" transform="translate(-29.941 -39.283)" fill="#ff9801" fill-rule="evenodd"/>
          <path id="_376342552" d="M84.694,71.125H99.473L94.113,42.852H79.277V66.459A39.165,39.165,0,0,1,84.694,71.125Z" transform="translate(-25.461 -23.576)" fill="#62dbfb" fill-rule="evenodd"/>
          <path id="_376349728" d="M64.3,62.011V42.852H49.882V59.24A38.6,38.6,0,0,1,64.3,62.011Z" transform="translate(-18.622 -23.576)" fill="#62dbfb" fill-rule="evenodd"/>
          <path id="_376350016" d="M39.395,28.9H90.622q.047,0,.093,0h3.652c.284,0,.384-.092.449-.192a.8.8,0,0,0,.095-.625l-2.8-6.61a.562.562,0,0,0-.542-.357H38.037a.59.59,0,0,0-.591.587v7.2Z" transform="translate(-15.729 -18.52)" fill="#fd481e" fill-rule="evenodd"/>
          <path id="_376349704" d="M125.639,80.257l-3.5-1.108V88.4a2.44,2.44,0,0,0,2.436,2.437H138.24V88.814a6.383,6.383,0,0,0-4.691-6.055l-7.861-2.486-.049-.016Z" transform="translate(-35.433 -32.021)" fill="#ffe600" fill-rule="evenodd"/>
          <path id="_376349872" d="M128.938,67.444v7.711l4.222,1.335V67.444a.86.86,0,0,0-.85-.847h-2.525A.858.858,0,0,0,128.938,67.444Z" transform="translate(-37.015 -29.101)" fill="#ff9801" fill-rule="evenodd"/>
        </g>
      </g>
    </g>
  </g>
</svg>
