<svg xmlns="http://www.w3.org/2000/svg" xmlns:xlink="http://www.w3.org/1999/xlink" width="105.781" height="105.781" viewBox="0 0 105.781 105.781">
  <defs>
    <filter id="Trazado_985594" x="0" y="0" width="105.781" height="105.781" filterUnits="userSpaceOnUse">
      <feOffset dy="3" input="SourceAlpha"/>
      <feGaussianBlur stdDeviation="3" result="blur"/>
      <feFlood flood-opacity="0.161"/>
      <feComposite operator="in" in2="blur"/>
      <feComposite in="SourceGraphic"/>
    </filter>
  </defs>
  <g id="Grupo_1165333" data-name="Grupo 1165333" transform="translate(-327.051 -1738)">
    <g id="Grupo_1158425" data-name="Grupo 1158425" transform="translate(336.051 1744)">
      <g transform="matrix(1, 0, 0, 1, -9, -6)" filter="url(#Trazado_985594)">
        <g id="Trazado_985594-2" data-name="Trazado 985594" transform="translate(9 6)" fill="#f3d02c">
          <path d="M 43.89063262939453 85.28125762939453 C 38.30183410644531 85.28125762939453 32.88153839111328 84.18724060058594 27.78030014038086 82.02960205078125 C 22.85183334350586 79.94503021240234 18.42508506774902 76.96026611328125 14.62304592132568 73.15821838378906 C 10.8209924697876 69.35617828369141 7.836232662200928 64.92942810058594 5.751659393310547 60.00096130371094 C 3.594019412994385 54.89972305297852 2.500005960464478 49.47942733764648 2.500005960464478 43.89062881469727 C 2.500005960464478 38.30183029174805 3.594019412994385 32.88153457641602 5.751659393310547 27.78030967712402 C 7.836232662200928 22.85184288024902 10.8209924697876 18.42509460449219 14.62304592132568 14.62305545806885 C 18.42508506774902 10.82100200653076 22.85183334350586 7.836242198944092 27.78030014038086 5.751668930053711 C 32.88153839111328 3.59402871131897 38.30183410644531 2.500015497207642 43.89063262939453 2.500015497207642 C 49.47943115234375 2.500015497207642 54.89972686767578 3.59402871131897 60.00095367431641 5.751668930053711 C 64.92942047119141 7.836242198944092 69.35616302490234 10.82100200653076 73.15821838378906 14.62305545806885 C 76.96027374267578 18.42509460449219 79.94503021240234 22.85184288024902 82.02960968017578 27.78030967712402 C 84.18724822998047 32.88153457641602 85.28125762939453 38.30183029174805 85.28125762939453 43.89062881469727 C 85.28125762939453 49.47942733764648 84.18724822998047 54.89972305297852 82.02960968017578 60.00096130371094 C 79.94503021240234 64.92942810058594 76.96027374267578 69.35617828369141 73.15821838378906 73.15821838378906 C 69.35616302490234 76.96026611328125 64.92942047119141 79.94503021240234 60.00095367431641 82.02960205078125 C 54.89972686767578 84.18724060058594 49.47943115234375 85.28125762939453 43.89063262939453 85.28125762939453 Z" stroke="none"/>
          <path d="M 43.89063262939453 82.78124237060547 C 49.14303207397461 82.78124237060547 54.23566436767578 81.75367736816406 59.02708435058594 79.72708129882812 C 63.65755081176758 77.76856231689453 67.81719970703125 74.96371459960938 71.39046478271484 71.39044189453125 C 74.96371459960938 67.81717681884766 77.76856231689453 63.65754699707031 79.72709655761719 59.02708053588867 C 81.75370025634766 54.23566055297852 82.78126525878906 49.14302825927734 82.78126525878906 43.89062881469727 C 82.78126525878906 38.63822937011719 81.75370025634766 33.54559707641602 79.72709655761719 28.75419616699219 C 77.76856231689453 24.12371253967285 74.96371459960938 19.96407890319824 71.39046478271484 16.39081192016602 C 67.81719970703125 12.81756210327148 63.65755081176758 10.0127124786377 59.02708435058594 8.054179191589355 C 54.23566436767578 6.027578830718994 49.14303207397461 5.000011920928955 43.89063262939453 5.000011920928955 C 38.63823318481445 5.000011920928955 33.54560089111328 6.027578830718994 28.75418281555176 8.054179191589355 C 24.12371635437012 10.0127124786377 19.96408271789551 12.81756210327148 16.39081573486328 16.39081192016602 C 12.81754970550537 19.96407890319824 10.01269912719727 24.12371253967285 8.054183006286621 28.75419616699219 C 6.02758264541626 33.54559707641602 5.000015735626221 38.63822937011719 5.000015735626221 43.89062881469727 C 5.000015735626221 49.14302825927734 6.02758264541626 54.23566055297852 8.054183006286621 59.02708053588867 C 10.01269912719727 63.65754699707031 12.81754970550537 67.81717681884766 16.39081573486328 71.39044189453125 C 19.96408271789551 74.96371459960938 24.12371635437012 77.76856231689453 28.75418281555176 79.72708129882812 C 33.54560089111328 81.75367736816406 38.63823318481445 82.78124237060547 43.89063262939453 82.78124237060547 M 43.89063262939453 87.78124237060547 C 19.65051651000977 87.78124237060547 1.596272704773583e-05 68.13074493408203 1.596272704773583e-05 43.89062881469727 C 1.596272704773583e-05 19.65052795410156 19.65051651000977 1.214803069160553e-05 43.89063262939453 1.214803069160553e-05 C 68.13075256347656 1.214803069160553e-05 87.78126525878906 19.65052795410156 87.78126525878906 43.89062881469727 C 87.78126525878906 68.13074493408203 68.13075256347656 87.78124237060547 43.89063262939453 87.78124237060547 Z" stroke="none" fill="#fff"/>
        </g>
      </g>
    </g>
    <g id="internet-de-las-cosas" transform="translate(350.051 1754)">
      <g id="Grupo_1165332" data-name="Grupo 1165332" transform="translate(0.94 0.94)">
        <g id="Grupo_1165330" data-name="Grupo 1165330" transform="translate(0)">
          <g id="Grupo_1165329" data-name="Grupo 1165329" transform="translate(4.839 7.825)">
            <ellipse id="Elipse_11773" data-name="Elipse 11773" cx="2.718" cy="2.718" rx="2.718" ry="2.718" transform="translate(21.747 51.218)" fill="#fdcd56"/>
            <ellipse id="Elipse_11774" data-name="Elipse 11774" cx="2.718" cy="2.718" rx="2.718" ry="2.718" transform="translate(0 0)" fill="#fdcd56"/>
            <ellipse id="Elipse_11775" data-name="Elipse 11775" cx="2.718" cy="2.718" rx="2.718" ry="2.718" transform="translate(42.879 0.564)" fill="#fdcd56"/>
          </g>
          <ellipse id="Elipse_11776" data-name="Elipse 11776" cx="2.718" cy="2.718" rx="2.718" ry="2.718" transform="translate(26.586 0)" fill="#66d4f1"/>
          <ellipse id="Elipse_11777" data-name="Elipse 11777" cx="2.718" cy="2.718" rx="2.718" ry="2.718" transform="translate(53.177 44.884)" fill="#66d4f1"/>
          <ellipse id="Elipse_11778" data-name="Elipse 11778" cx="2.718" cy="2.718" rx="2.718" ry="2.718" transform="translate(0 44.911)" fill="#66d4f1"/>
        </g>
        <g id="Grupo_1165331" data-name="Grupo 1165331" transform="translate(16.483 19.418)">
          <path id="Trazado_991471" data-name="Trazado 991471" d="M172.394,159.554a12.821,12.821,0,1,0,12.821,12.821A12.847,12.847,0,0,0,172.394,159.554Z" transform="translate(-159.573 -159.554)" fill="#66d4f1" fill-rule="evenodd"/>
        </g>
      </g>
      <path id="Trazado_991472" data-name="Trazado 991472" d="M78.041,21.882a3.658,3.658,0,1,1,1.33,1.33l-8.932,8.932a13.749,13.749,0,0,1-9.425,22.765V67.164a3.658,3.658,0,1,1-1.881,0V54.909A13.749,13.749,0,0,1,49.7,32.156l-9.533-9.511a3.658,3.658,0,1,1,1.328-1.331l9.533,9.511a13.717,13.717,0,0,1,18.083-.011ZM64.172,52.33a11.91,11.91,0,0,0,3.7-2.2,18.351,18.351,0,0,0-2-.6,12.323,12.323,0,0,1-1.216,2.178q-.233.328-.48.62Zm5.113-3.66a11.825,11.825,0,0,0,2.634-6.55H67.456a22,22,0,0,1-.931,5.64A19.2,19.2,0,0,1,69.285,48.67Zm2.634-8.431a11.829,11.829,0,0,0-2.735-6.673,19.413,19.413,0,0,1-2.705.88,21.9,21.9,0,0,1,.979,5.793ZM60.074,68.923A1.778,1.778,0,1,0,61.851,70.7a1.778,1.778,0,0,0-1.778-1.778ZM50.965,33.566a11.83,11.83,0,0,0-2.735,6.673h4.46a21.893,21.893,0,0,1,.979-5.793A19.386,19.386,0,0,1,50.965,33.566ZM48.23,42.12a11.825,11.825,0,0,0,2.634,6.55,19.228,19.228,0,0,1,2.758-.91,21.987,21.987,0,0,1-.931-5.641Zm4.049,8.014a11.9,11.9,0,0,0,3.7,2.2q-.247-.292-.48-.619a12.318,12.318,0,0,1-1.216-2.178,18.372,18.372,0,0,0-2,.6ZM67.733,32.109a11.9,11.9,0,0,0-3.562-2.08q.247.292.48.62A12.167,12.167,0,0,1,65.8,32.677a18.616,18.616,0,0,0,1.933-.568Zm-11.757-2.08a11.9,11.9,0,0,0-3.562,2.081,18.628,18.628,0,0,0,1.932.568,12.168,12.168,0,0,1,1.15-2.03q.233-.327.48-.619Zm5.038,22.413a4.873,4.873,0,0,0,2.1-1.822,10.124,10.124,0,0,0,.853-1.458,25.735,25.735,0,0,0-2.957-.269Zm3.668-5.068a19.911,19.911,0,0,0,.892-5.255h-4.56v4.893A27.345,27.345,0,0,1,64.683,47.374Zm.892-7.135a19.783,19.783,0,0,0-.943-5.41,27.358,27.358,0,0,1-3.617.354v5.056Zm-10.059-5.41a19.771,19.771,0,0,0-.944,5.41h4.562V35.183A27.355,27.355,0,0,1,55.516,34.829Zm-.944,7.291a19.905,19.905,0,0,0,.893,5.255,27.337,27.337,0,0,1,3.669-.362V42.12Zm1.6,7.044a10.137,10.137,0,0,0,.853,1.457,4.874,4.874,0,0,0,2.105,1.822V48.894A25.714,25.714,0,0,0,56.176,49.163ZM63.9,33.042a9.966,9.966,0,0,0-.778-1.3,4.873,4.873,0,0,0-2.1-1.822V33.3A25.717,25.717,0,0,0,63.9,33.042Zm-4.763-3.126a4.874,4.874,0,0,0-2.105,1.822,9.963,9.963,0,0,0-.778,1.3,25.7,25.7,0,0,0,2.883.259Zm22.072-8.092a1.778,1.778,0,1,0-1.778-1.778A1.778,1.778,0,0,0,81.206,21.825ZM38.327,21.26a1.778,1.778,0,1,0-1.778-1.778A1.779,1.779,0,0,0,38.327,21.26Zm20.792-6.07A3.658,3.658,0,1,1,61,15.2V17.62a.94.94,0,1,1-1.881,0Zm.955-1.754a1.786,1.786,0,1,0-.015,0Zm-24,40.549L39,52.294a.94.94,0,0,1,.942,1.628l-2.919,1.69a3.664,3.664,0,1,1-.944-1.627Zm-2.588,4.362a1.778,1.778,0,1,0-1.778-1.778A1.778,1.778,0,0,0,33.488,58.347Zm50.586-4.386a3.645,3.645,0,1,1-.942,1.628L80.22,53.907a.94.94,0,1,1,.94-1.629Zm2.591,4.359a1.778,1.778,0,1,0-1.778-1.778A1.778,1.778,0,0,0,86.666,58.32ZM52.172,27.49a.94.94,0,0,1-.942-1.628,17.689,17.689,0,0,1,17.689,0,.94.94,0,0,1-.942,1.628,15.808,15.808,0,0,0-15.8,0ZM75.88,41.36a.94.94,0,0,1,1.881.021A17.689,17.689,0,0,1,68.744,56.6a.94.94,0,1,1-.924-1.638,15.81,15.81,0,0,0,8.059-13.6ZM52.229,54.9a.94.94,0,0,1-.935,1.631,17.688,17.688,0,0,1-8.906-15.18.94.94,0,0,1,1.881-.018A15.809,15.809,0,0,0,52.229,54.9Zm-2.25-31.21a.94.94,0,0,1-.942-1.627,22.075,22.075,0,0,1,22.075,0,.94.94,0,1,1-.942,1.627,20.195,20.195,0,0,0-20.19,0Zm30.286,17.67a.94.94,0,1,1,1.88.017A22.075,22.075,0,0,1,70.939,60.393a.94.94,0,0,1-.928-1.636A20.2,20.2,0,0,0,80.266,41.362ZM50.037,58.7a.94.94,0,1,1-.937,1.631A22.074,22.074,0,0,1,38,41.352a.94.94,0,0,1,1.881-.014A20.2,20.2,0,0,0,50.037,58.7Z" transform="translate(-29.83 -8)" fill-rule="evenodd"/>
    </g>
  </g>
</svg>
