<svg xmlns="http://www.w3.org/2000/svg" xmlns:xlink="http://www.w3.org/1999/xlink" width="105.781" height="105.781" viewBox="0 0 105.781 105.781">
  <defs>
    <filter id="Trazado_985595" x="0" y="0" width="105.781" height="105.781" filterUnits="userSpaceOnUse">
      <feOffset dy="3" input="SourceAlpha"/>
      <feGaussianBlur stdDeviation="3" result="blur"/>
      <feFlood flood-opacity="0.161"/>
      <feComposite operator="in" in2="blur"/>
      <feComposite in="SourceGraphic"/>
    </filter>
  </defs>
  <g id="Grupo_1165337" data-name="Grupo 1165337" transform="translate(-1167.051 -1738)">
    <g id="Grupo_1158427" data-name="Grupo 1158427" transform="translate(-1 629)">
      <g transform="matrix(1, 0, 0, 1, 1168.05, 1109)" filter="url(#Trazado_985595)">
        <g id="Trazado_985595-2" data-name="Trazado 985595" transform="translate(9 6)" fill="#f3d02c">
          <path d="M 43.8906364440918 85.28125762939453 C 38.30183792114258 85.28125762939453 32.88154220581055 84.18724060058594 27.78030395507812 82.02960205078125 C 22.85183715820312 79.94503021240234 18.42508888244629 76.96026611328125 14.62304973602295 73.15821838378906 C 10.82099628448486 69.35617828369141 7.836236476898193 64.92942810058594 5.751663208007812 60.00096130371094 C 3.59402322769165 54.89972305297852 2.500009775161743 49.47942733764648 2.500009775161743 43.89062881469727 C 2.500009775161743 38.30183029174805 3.59402322769165 32.88153457641602 5.751663208007812 27.78029632568359 C 7.836236476898193 22.85182952880859 10.82099628448486 18.42508125305176 14.62304973602295 14.62304210662842 C 18.42508888244629 10.82098865509033 22.85183715820312 7.836228847503662 27.78030395507812 5.751655578613281 C 32.88154220581055 3.594015598297119 38.30183792114258 2.500002145767212 43.8906364440918 2.500002145767212 C 49.47943496704102 2.500002145767212 54.89973068237305 3.594015598297119 60.00096893310547 5.751655578613281 C 64.92943572998047 7.836228847503662 69.35618591308594 10.82098865509033 73.15822601318359 14.62304210662842 C 76.96027374267578 18.42508125305176 79.94503784179688 22.85182952880859 82.02960968017578 27.78029632568359 C 84.18724822998047 32.88153457641602 85.28126525878906 38.30183029174805 85.28126525878906 43.89062881469727 C 85.28126525878906 49.47942733764648 84.18724822998047 54.89972305297852 82.02960968017578 60.00096130371094 C 79.94503784179688 64.92942810058594 76.96027374267578 69.35617828369141 73.15822601318359 73.15821838378906 C 69.35618591308594 76.96026611328125 64.92943572998047 79.94503021240234 60.00096893310547 82.02960205078125 C 54.89973068237305 84.18724060058594 49.47943496704102 85.28125762939453 43.8906364440918 85.28125762939453 Z" stroke="none"/>
          <path d="M 43.8906364440918 4.999992370605469 C 38.63823699951172 4.999992370605469 33.54560470581055 6.027565002441406 28.75418472290039 8.054161071777344 C 24.12371826171875 10.0126953125 19.96407318115234 12.81754302978516 16.39080047607422 16.39079284667969 C 12.81755065917969 19.96406555175781 10.01270294189453 24.12371063232422 8.054168701171875 28.75417709350586 C 6.027572631835938 33.54559707641602 5 38.63822937011719 5 43.89062881469727 C 5 49.14302825927734 6.027572631835938 54.23566055297852 8.054168701171875 59.02707672119141 C 10.01270294189453 63.65754699707031 12.81755065917969 67.81719970703125 16.39080047607422 71.39046478271484 C 19.96407318115234 74.96371459960938 24.12371826171875 77.76856231689453 28.75418472290039 79.72709655761719 C 33.54560470581055 81.75369262695312 38.63823699951172 82.78126525878906 43.8906364440918 82.78126525878906 C 49.14303588867188 82.78126525878906 54.23566818237305 81.75369262695312 59.02708435058594 79.72709655761719 C 63.65755462646484 77.76856231689453 67.81719970703125 74.96371459960938 71.39047241210938 71.39046478271484 C 74.96372222900391 67.81719970703125 77.76856994628906 63.65754699707031 79.72710418701172 59.02707672119141 C 81.75370025634766 54.23566055297852 82.78127288818359 49.14302825927734 82.78127288818359 43.89062881469727 C 82.78127288818359 38.63822937011719 81.75370025634766 33.54559707641602 79.72710418701172 28.75417709350586 C 77.76856994628906 24.12371063232422 74.96372222900391 19.96406555175781 71.39047241210938 16.39079284667969 C 67.81719970703125 12.81754302978516 63.65755462646484 10.0126953125 59.02708435058594 8.054161071777344 C 54.23566818237305 6.027565002441406 49.14303588867188 4.999992370605469 43.8906364440918 4.999992370605469 M 43.8906364440918 -7.62939453125e-06 C 68.13075256347656 -7.62939453125e-06 87.78127288818359 19.6505126953125 87.78127288818359 43.89062881469727 C 87.78127288818359 68.13074493408203 68.13075256347656 87.78126525878906 43.8906364440918 87.78126525878906 C 19.65052032470703 87.78126525878906 0 68.13074493408203 0 43.89062881469727 C 0 19.6505126953125 19.65052032470703 -7.62939453125e-06 43.8906364440918 -7.62939453125e-06 Z" stroke="none" fill="#fff"/>
        </g>
      </g>
    </g>
    <g id="database" transform="translate(1191.051 1759)">
      <path id="Trazado_991509" data-name="Trazado 991509" d="M35.118,28v8.922c0,2.462-7.191,4.461-16.059,4.461S3,39.384,3,36.922V28c0,2.462,7.191,4.461,16.059,4.461S35.118,30.462,35.118,28Z" transform="translate(-0.108 -2.804)" fill="#c0ab91"/>
      <path id="Trazado_991510" data-name="Trazado 991510" d="M58.628,28.49v5.353l-4.068.678a11.675,11.675,0,0,1-.874,2.123L56.076,40l-3.783,3.783-2.846-2.025A1.8,1.8,0,0,0,50.6,40.089V32.951a1.757,1.757,0,0,0-.1-.58,7.654,7.654,0,0,0,.1-1.2A7.137,7.137,0,0,0,39,25.6V20.461a11.606,11.606,0,0,1,1.106-.393L40.784,16h5.353l.678,4.068a11.675,11.675,0,0,1,2.123.874l3.355-2.391,3.783,3.783-2.391,3.355a11.675,11.675,0,0,1,.874,2.123Z" transform="translate(-3.99 -1.51)" fill="#ffeb99"/>
      <rect id="Rect치ngulo_412363" data-name="Rect치ngulo 412363" width="36" height="11" rx="2" transform="translate(11 44)" fill="#57a4ff"/>
      <path id="Trazado_991511" data-name="Trazado 991511" d="M51.353,50.784v7.137a1.79,1.79,0,0,1-1.784,1.784H46a1.79,1.79,0,0,0,1.784-1.784V50.784A1.79,1.79,0,0,0,46,49h3.569A1.79,1.79,0,0,1,51.353,50.784Z" transform="translate(-4.744 -5.068)" fill="#2488ff"/>
      <path id="Trazado_991512" data-name="Trazado 991512" d="M50.6,32.138a7.654,7.654,0,0,1-.1,1.2,1.8,1.8,0,0,0-1.686-1.2H39V26.571a7.137,7.137,0,0,1,11.6,5.567Z" transform="translate(-3.99 -2.481)" fill="#c6c5ca"/>
      <path id="Trazado_991513" data-name="Trazado 991513" d="M50.924,32.137a7.654,7.654,0,0,1-.1,1.2,1.8,1.8,0,0,0-1.686-1.2H47.355a7.153,7.153,0,0,0-5.335-6.914,7.137,7.137,0,0,1,8.9,6.914Z" transform="translate(-4.315 -2.48)" fill="#acabb1"/>
      <path id="Trazado_991514" data-name="Trazado 991514" d="M42,45h5.353v3.569H42Z" transform="translate(-4.313 -4.637)" fill="#c6c5ca"/>
      <path id="Trazado_991515" data-name="Trazado 991515" d="M35.118,18v8.922c0,2.462-7.191,4.461-16.059,4.461S3,29.384,3,26.922V18c0,2.462,7.191,4.461,16.059,4.461S35.118,20.462,35.118,18Z" transform="translate(-0.108 -1.725)" fill="#c0ab91"/>
      <path id="Trazado_991516" data-name="Trazado 991516" d="M35.118,8v8.922c0,2.462-7.191,4.461-16.059,4.461S3,19.384,3,16.922V8c0,2.462,7.191,4.461,16.059,4.461S35.118,10.462,35.118,8Z" transform="translate(-0.108 -0.647)" fill="#c0ab91"/>
      <ellipse id="Elipse_11780" data-name="Elipse 11780" cx="16" cy="4.5" rx="16" ry="4.5" transform="translate(3 3)" fill="#ffcd00"/>
      <g id="Grupo_1165336" data-name="Grupo 1165336" transform="translate(17.167 7.353)">
        <path id="Trazado_991517" data-name="Trazado 991517" d="M36.843,28v8.922c0,2.462-7.191,4.461-16.059,4.461-.607,0-1.2-.009-1.784-.036,8.03-.241,14.275-2.132,14.275-4.425V30.8C35.505,30.034,36.843,29.062,36.843,28Z" transform="translate(-19 -10.157)" fill="#b39a7c"/>
        <path id="Trazado_991518" data-name="Trazado 991518" d="M38.569,18v8.922c0,1.062-1.338,2.034-3.569,2.8V20.8C37.23,20.034,38.569,19.062,38.569,18Z" transform="translate(-20.725 -9.078)" fill="#b39a7c"/>
        <path id="Trazado_991519" data-name="Trazado 991519" d="M38.569,8v8.922c0,1.062-1.338,2.034-3.569,2.8V10.8c2.23-.767,3.569-1.74,3.569-2.8Z" transform="translate(-20.725 -8)" fill="#b39a7c"/>
      </g>
      <path id="Trazado_991520" data-name="Trazado 991520" d="M36.843,7.461c0,2.462-7.191,4.461-16.059,4.461-.607,0-1.2-.009-1.784-.036,8.03-.241,14.275-2.132,14.275-4.425S27.03,3.277,19,3.036C19.589,3.009,20.178,3,20.784,3,29.653,3,36.843,5,36.843,7.461Z" transform="translate(-1.833 -0.108)" fill="#ebbf00"/>
      <path id="Trazado_991521" data-name="Trazado 991521" d="M24,53h3.569v3.569H24Z" transform="translate(-2.372 -5.499)" fill="#ffeb99"/>
      <rect id="Rect치ngulo_412364" data-name="Rect치ngulo 412364" width="36" height="10" rx="2" transform="translate(11 30)" fill="#57a4ff"/>
      <path id="Trazado_991522" data-name="Trazado 991522" d="M51.353,34.784v7.137a1.79,1.79,0,0,1-1.784,1.784H46a1.79,1.79,0,0,0,1.784-1.784V34.784A1.79,1.79,0,0,0,46,33h3.569A1.79,1.79,0,0,1,51.353,34.784Z" transform="translate(-4.744 -3.343)" fill="#2488ff"/>
      <path id="Trazado_991523" data-name="Trazado 991523" d="M24,37h3.569v3.569H24Z" transform="translate(-2.372 -3.774)" fill="#ffeb99"/>
      <path id="Trazado_991524" data-name="Trazado 991524" d="M16,45h5.353v3.569H16Z" transform="translate(-1.51 -4.637)" fill="#c6c5ca"/>
      <path id="Trazado_991525" data-name="Trazado 991525" d="M16,53h3.569v3.569H16Z" transform="translate(-1.51 -5.499)" fill="#ffeb99"/>
      <path id="Trazado_991526" data-name="Trazado 991526" d="M16,37h3.569v3.569H16Z" transform="translate(-1.51 -3.774)" fill="#ffeb99"/>
      <path id="Trazado_991527" data-name="Trazado 991527" d="M19.461,36H15.892a.892.892,0,0,0-.892.892v3.569a.892.892,0,0,0,.892.892h3.569a.892.892,0,0,0,.892-.892V36.892A.892.892,0,0,0,19.461,36Zm-.892,3.569H16.784V37.784h1.784Z" transform="translate(-1.402 -3.666)"/>
      <path id="Trazado_991528" data-name="Trazado 991528" d="M27.461,36H23.892a.892.892,0,0,0-.892.892v3.569a.892.892,0,0,0,.892.892h3.569a.892.892,0,0,0,.892-.892V36.892A.892.892,0,0,0,27.461,36Zm-.892,3.569H24.784V37.784h1.784Z" transform="translate(-2.264 -3.666)"/>
      <path id="Trazado_991529" data-name="Trazado 991529" d="M31,36H43.49v1.784H31Z" transform="translate(-3.127 -3.666)"/>
      <path id="Trazado_991530" data-name="Trazado 991530" d="M47,36h1.784v1.784H47Z" transform="translate(-4.852 -3.666)"/>
      <path id="Trazado_991531" data-name="Trazado 991531" d="M31,40H43.49v1.784H31Z" transform="translate(-3.127 -4.097)"/>
      <path id="Trazado_991532" data-name="Trazado 991532" d="M47,40h1.784v1.784H47Z" transform="translate(-4.852 -4.097)"/>
      <path id="Trazado_991533" data-name="Trazado 991533" d="M15.892,57.353h3.569a.892.892,0,0,0,.892-.892V52.892A.892.892,0,0,0,19.461,52H15.892a.892.892,0,0,0-.892.892v3.569A.892.892,0,0,0,15.892,57.353Zm.892-3.569h1.784v1.784H16.784Z" transform="translate(-1.402 -5.391)"/>
      <path id="Trazado_991534" data-name="Trazado 991534" d="M23.892,57.353h3.569a.892.892,0,0,0,.892-.892V52.892A.892.892,0,0,0,27.461,52H23.892a.892.892,0,0,0-.892.892v3.569A.892.892,0,0,0,23.892,57.353Zm.892-3.569h1.784v1.784H24.784Z" transform="translate(-2.264 -5.391)"/>
      <path id="Trazado_991535" data-name="Trazado 991535" d="M31,52H43.49v1.784H31Z" transform="translate(-3.127 -5.391)"/>
      <path id="Trazado_991536" data-name="Trazado 991536" d="M47,52h1.784v1.784H47Z" transform="translate(-4.852 -5.391)"/>
      <path id="Trazado_991537" data-name="Trazado 991537" d="M31,56H43.49v1.784H31Z" transform="translate(-3.127 -5.823)"/>
      <path id="Trazado_991538" data-name="Trazado 991538" d="M47,56h1.784v1.784H47Z" transform="translate(-4.852 -5.823)"/>
      <path id="Trazado_991539" data-name="Trazado 991539" d="M54.781,26.1l-3.533-.589a10.218,10.218,0,0,0-.517-1.249l2.079-2.917a.892.892,0,0,0-.089-1.151l-3.783-3.783a.892.892,0,0,0-1.151-.089L44.869,18.4a12.693,12.693,0,0,0-1.249-.517l-.589-3.533a.892.892,0,0,0-.883-.749H36.795a.892.892,0,0,0-.883.749l-.009.071V7.353C35.9,3.838,27.373,2,18.951,2S2,3.838,2,7.353V34.118c0,2.7,4.746,4.024,8.047,4.621a2.668,2.668,0,0,0,2.659,2.516H13.6V43.04h-.892a2.685,2.685,0,0,0-2.677,2.677v7.137a2.685,2.685,0,0,0,2.677,2.677H44.824A2.685,2.685,0,0,0,47.5,52.854V45.716a2.685,2.685,0,0,0-2.677-2.677h-.892V41.256h.892a2.439,2.439,0,0,0,.446-.045L47.786,43a.93.93,0,0,0,.517.161.914.914,0,0,0,.633-.259l3.783-3.783a.892.892,0,0,0,.089-1.151L50.73,35.055a10.217,10.217,0,0,0,.517-1.249l3.533-.589a.892.892,0,0,0,.749-.883V26.981a.892.892,0,0,0-.749-.883ZM35.9,24.563a6.209,6.209,0,0,1,9.769,4.354,2.687,2.687,0,0,0-.848-.152H35.9ZM18.951,3.784c9.814,0,15.167,2.355,15.167,3.569s-5.353,3.569-15.167,3.569S3.784,8.566,3.784,7.353,9.137,3.784,18.951,3.784ZM3.784,9.869c2.935,1.865,9.064,2.837,15.167,2.837s12.232-.972,15.167-2.837v6.406c0,1.213-5.353,3.569-15.167,3.569S3.784,17.488,3.784,16.275ZM10.03,31.442V36.92c-4.523-.856-6.245-2.15-6.245-2.8V27.712a19.166,19.166,0,0,0,6.745,2.177,2.663,2.663,0,0,0-.5,1.552ZM3.784,25.2V18.791c2.935,1.865,9.064,2.837,15.167,2.837s12.232-.972,15.167-2.837V25.2c0,1.213-5.353,3.569-15.167,3.569S3.784,26.41,3.784,25.2Zm30.334,2.516v1.053H31.906a11.124,11.124,0,0,0,2.213-1.053ZM44.824,44.824a.892.892,0,0,1,.892.892v7.137a.892.892,0,0,1-.892.892H12.706a.892.892,0,0,1-.892-.892V45.716a.892.892,0,0,1,.892-.892ZM15.383,43.04V41.256h3.569V43.04Zm5.353,0V41.256H36.795V43.04Zm17.843,0V41.256h3.569V43.04Zm7.137-4.461a.892.892,0,0,1-.892.892H12.706a.892.892,0,0,1-.892-.892V31.442a.892.892,0,0,1,.892-.892H44.824a.892.892,0,0,1,.892.892Zm8.03-7-3.319.553a.914.914,0,0,0-.714.625,10.536,10.536,0,0,1-.8,1.963.871.871,0,0,0,.062.937l1.945,2.739L48.206,41.1l-1.267-.9a2.652,2.652,0,0,0,.562-1.624V31.442a2.537,2.537,0,0,0-.089-.642,8.313,8.313,0,0,0,.089-1.142,8.012,8.012,0,0,0-11.6-7.182V19.585a4.4,4.4,0,0,1,.482-.17A.917.917,0,0,0,37,18.7l.553-3.319h3.836l.553,3.319a.914.914,0,0,0,.625.714,10.8,10.8,0,0,1,1.963.8.892.892,0,0,0,.937-.062l2.739-1.945,2.712,2.712-1.945,2.739a.871.871,0,0,0-.062.937,10.537,10.537,0,0,1,.8,1.963.914.914,0,0,0,.714.625l3.319.553Z"/>
      <path id="Trazado_991540" data-name="Trazado 991540" d="M5.784,48H4v7.137a.892.892,0,0,0,.892.892H8.461V54.245H5.784Z" transform="translate(-0.216 -4.96)"/>
      <path id="Trazado_991541" data-name="Trazado 991541" d="M59.275,4H45V5.784H58.383v8.552l-2.415,2.415,1.262,1.262,2.677-2.677a.892.892,0,0,0,.261-.631V4.892A.892.892,0,0,0,59.275,4Z" transform="translate(-4.637 -0.216)"/>
      <path id="Trazado_991542" data-name="Trazado 991542" d="M41,4h1.784V5.784H41Z" transform="translate(-4.205 -0.216)"/>
      <path id="Trazado_991543" data-name="Trazado 991543" d="M4,44H5.784v1.784H4Z" transform="translate(-0.216 -4.529)"/>
    </g>
  </g>
</svg>
