<svg xmlns="http://www.w3.org/2000/svg" width="49" height="48" viewBox="0 0 49 48">
  <g id="Grupo_1162398" data-name="Grupo 1162398" transform="translate(-179.975 -4192.429)">
    <rect id="Rectángulo_4788" data-name="Rectángulo 4788" width="49" height="48" transform="translate(179.975 4192.429)" fill="#006df0"/>
    <g id="tocar" transform="translate(189.167 4201.121)">
      <path id="Trazado_984708" data-name="Trazado 984708" d="M15.308,0A15.308,15.308,0,1,0,30.616,15.308,15.308,15.308,0,0,0,15.308,0Zm0,28.575A13.267,13.267,0,1,1,28.575,15.308,13.267,13.267,0,0,1,15.308,28.575Z" fill="#fff"/>
      <path id="Trazado_984709" data-name="Trazado 984709" d="M197.829,136.684,186.4,129.54a1.021,1.021,0,0,0-1.561.865v14.287a1.02,1.02,0,0,0,1.561.865l11.43-7.144a1.02,1.02,0,0,0,0-1.735v0Zm-10.95,6.172V132.243l8.484,5.307Z" transform="translate(-174.633 -122.242)" fill="#fff"/>
    </g>
  </g>
</svg>
