<svg xmlns="http://www.w3.org/2000/svg" width="93.959" height="93.959" viewBox="0 0 93.959 93.959">
  <g id="Grupo_1166198" data-name="Grupo 1166198" transform="translate(-735.051 -2659)">
    <g id="Grupo_1165212" data-name="Grupo 1165212" transform="translate(524 1569)">
      <g id="Grupo_1153772" data-name="Grupo 1153772" transform="translate(211.051 1090)">
        <g id="Grupo_1103990" data-name="Grupo 1103990" transform="translate(0)">
          <g id="Trazado_874102" data-name="Trazado 874102" transform="translate(0)" fill="#f9f7f4">
            <path d="M 46.97949600219727 91.45897674560547 C 40.97370910644531 91.45897674560547 35.14888000488281 90.28328704833984 29.66683959960938 87.96457672119141 C 24.37055397033691 85.72444915771484 19.61348152160645 82.51696014404297 15.52775287628174 78.43122863769531 C 11.44202423095703 74.34550476074219 8.234539031982422 69.58843231201172 5.994410514831543 64.29214477539062 C 3.675695896148682 58.81010437011719 2.500010251998901 52.98527526855469 2.500010251998901 46.97948837280273 C 2.500010251998901 40.97369003295898 3.675695896148682 35.14887237548828 5.994410514831543 29.66683197021484 C 8.234539031982422 24.37054634094238 11.44202423095703 19.61346054077148 15.52775287628174 15.52774524688721 C 19.61348152160645 11.4420166015625 24.37055397033691 8.234531402587891 29.66683959960938 5.994388580322266 C 35.14888000488281 3.67568826675415 40.97370910644531 2.50000262260437 46.97949600219727 2.50000262260437 C 52.98529434204102 2.50000262260437 58.81011199951172 3.67568826675415 64.29215240478516 5.994388580322266 C 69.58843994140625 8.234531402587891 74.34552764892578 11.4420166015625 78.43123626708984 15.52774524688721 C 82.5169677734375 19.61346054077148 85.72445678710938 24.37054634094238 87.964599609375 29.66683197021484 C 90.28329467773438 35.14887237548828 91.458984375 40.97369003295898 91.458984375 46.97948837280273 C 91.458984375 52.98527526855469 90.28329467773438 58.81010437011719 87.964599609375 64.29214477539062 C 85.72445678710938 69.58843231201172 82.5169677734375 74.34550476074219 78.43123626708984 78.43122863769531 C 74.34552764892578 82.51696014404297 69.58843994140625 85.72444915771484 64.29215240478516 87.96457672119141 C 58.81011199951172 90.28328704833984 52.98529434204102 91.45897674560547 46.97949600219727 91.45897674560547 Z" stroke="none"/>
            <path d="M 46.97949600219727 5.000007629394531 C 41.31009674072266 5.000007629394531 35.81294631958008 6.109237670898438 30.64072799682617 8.296905517578125 C 25.64242553710938 10.41100311279297 21.1524658203125 13.43856811523438 17.29550933837891 17.29550170898438 C 13.43857574462891 21.15245819091797 10.4110107421875 25.64241790771484 8.296913146972656 30.64072036743164 C 6.109245300292969 35.81293869018555 5.000015258789062 41.31008911132812 5.000015258789062 46.97948837280273 C 5.000015258789062 52.64888763427734 6.109245300292969 58.14603805541992 8.296913146972656 63.31825256347656 C 10.4110107421875 68.31653594970703 13.43857574462891 72.8065185546875 17.29550933837891 76.6634521484375 C 21.1524658203125 80.52040100097656 25.64242553710938 83.5479736328125 30.64072799682617 85.66207122802734 C 35.81294631958008 87.84973907470703 41.31009674072266 88.95896911621094 46.97949600219727 88.95896911621094 C 52.64889526367188 88.95896911621094 58.14604568481445 87.84973907470703 63.31826019287109 85.66207122802734 C 68.31655883789062 83.5479736328125 72.80653381347656 80.52040100097656 76.66348266601562 76.6634521484375 C 80.52041625976562 72.8065185546875 83.54798126220703 68.31653594970703 85.66207885742188 63.31825256347656 C 87.84974670410156 58.14603805541992 88.95897674560547 52.64888763427734 88.95897674560547 46.97948837280273 C 88.95897674560547 41.31008911132812 87.84974670410156 35.81293869018555 85.66207885742188 30.64072036743164 C 83.54798126220703 25.64241790771484 80.52041625976562 21.15245819091797 76.66348266601562 17.29550170898438 C 72.80653381347656 13.43856811523438 68.31655883789062 10.41100311279297 63.31826019287109 8.296905517578125 C 58.14604568481445 6.109237670898438 52.64889526367188 5.000007629394531 46.97949600219727 5.000007629394531 M 46.97949600219727 7.62939453125e-06 C 72.92554473876953 7.62939453125e-06 93.95897674560547 21.03343963623047 93.95897674560547 46.97948837280273 C 93.95897674560547 72.92552185058594 72.92554473876953 93.95896911621094 46.97949600219727 93.95896911621094 C 21.033447265625 93.95896911621094 1.52587890625e-05 72.92552185058594 1.52587890625e-05 46.97948837280273 C 1.52587890625e-05 21.03343963623047 21.033447265625 7.62939453125e-06 46.97949600219727 7.62939453125e-06 Z" stroke="none" fill="#fff"/>
          </g>
        </g>
      </g>
    </g>
    <g id="Layer_44" transform="translate(751.055 2676.211)">
      <g id="Grupo_1166197" data-name="Grupo 1166197" transform="translate(-0.004 -0.211)">
        <g id="Grupo_1166188" data-name="Grupo 1166188" transform="translate(0 21.152)">
          <path id="Trazado_992557" data-name="Trazado 992557" d="M100.033,194.6a3.939,3.939,0,0,1,1.914,3.57,24.593,24.593,0,0,1-48.877.564,4.533,4.533,0,0,1,2.29-4.286c7.434-4.979,16.523-9.548,23.464-9.548C84.532,184.9,92.928,189.609,100.033,194.6Z" transform="translate(-46.81 -184.313)" fill="#9a5645"/>
          <path id="Trazado_992558" data-name="Trazado 992558" d="M114.8,270.629a24.6,24.6,0,0,1-47.2,6.964,41.59,41.59,0,0,0,16.641,3.3c13.529,0,24.955-5.86,28.549-13.893l.094.047A3.994,3.994,0,0,1,114.8,270.629Z" transform="translate(-59.661 -256.771)" fill="#87483c"/>
          <path id="Trazado_992559" data-name="Trazado 992559" d="M73.045,216.482a25.181,25.181,0,0,1-24.991-22.09,5.117,5.117,0,0,1,2.548-4.85c5.39-3.605,15.643-9.642,23.793-9.642,6.248,0,15.161,5.332,21.538,9.806a4.51,4.51,0,0,1,2.173,4.11A25.16,25.16,0,0,1,73.045,216.482ZM74.4,181.074c-7.833,0-17.862,5.919-23.135,9.442a4,4,0,0,0-2.043,3.735,24.009,24.009,0,0,0,47.715-.552,3.382,3.382,0,0,0-1.668-3.042C86.445,184.48,79.034,181.074,74.4,181.074Z" transform="translate(-42.382 -179.9)"/>
          <g id="Grupo_1166181" data-name="Grupo 1166181" transform="translate(31.312 11.521)">
            <g id="Grupo_1166176" data-name="Grupo 1166176" transform="translate(0 18.923)">
              <path id="Trazado_992560" data-name="Trazado 992560" d="M279.085,451.794l-2.419,1.186a2.354,2.354,0,0,1-2.842-1.268l-.986-2.22a2.865,2.865,0,0,1,1.28-3.7l1.3-.693" transform="translate(-271.889 -444.399)" fill="#ffc9a3"/>
              <path id="Trazado_992561" data-name="Trazado 992561" d="M270.709,448.522a3.058,3.058,0,0,1-2.783-1.8l-1-2.208a3.6,3.6,0,0,1,1.6-4.615l1.3-.693a.714.714,0,0,1,.951.294.692.692,0,0,1-.27.94c-.012,0-.012.012-.023.012l-1.3.693a2.152,2.152,0,0,0-.963,2.795l.986,2.208a1.654,1.654,0,0,0,1.938.9l2.36-1.163a.721.721,0,0,1,.951.329.7.7,0,0,1-.329.94l-2.466,1.21-.047.023A3.365,3.365,0,0,1,270.709,448.522Z" transform="translate(-266.625 -439.13)"/>
            </g>
            <g id="Grupo_1166177" data-name="Grupo 1166177" transform="translate(2.466 16.808)">
              <path id="Trazado_992562" data-name="Trazado 992562" d="M303.327,434.946l-2.818,1.82a2.992,2.992,0,0,1-3.875-1.21l-2.736-5.109a2.138,2.138,0,0,1,.787-2.842l.587-.352a2.124,2.124,0,0,1,2.912.74c.012.012.012.023.024.035l.646,1.116" transform="translate(-292.936 -426.27)" fill="#ffc9a3"/>
              <path id="Trazado_992563" data-name="Trazado 992563" d="M293.928,432.62a3.715,3.715,0,0,1-3.218-1.867H290.7l-2.736-5.108a2.84,2.84,0,0,1,1.045-3.781l.587-.341a2.852,2.852,0,0,1,3.9,1,.041.041,0,0,0,.012.023l.646,1.116a.705.705,0,0,1-1.221.7l-.646-1.116a1.421,1.421,0,0,0-.869-.669,1.4,1.4,0,0,0-1.1.153l-.575.341a1.439,1.439,0,0,0-.529,1.914l2.725,5.1a2.317,2.317,0,0,0,2.924.94l2.783-1.809a.705.705,0,0,1,.763,1.186l-2.865,1.844-.047.023a3.614,3.614,0,0,1-1.562.352Z" transform="translate(-287.624 -421.126)"/>
            </g>
            <g id="Grupo_1166178" data-name="Grupo 1166178" transform="translate(6.321 13.556)">
              <path id="Trazado_992564" data-name="Trazado 992564" d="M337.372,408.364l-3.183,2.055a3.353,3.353,0,0,1-4.369-1.386l-3.089-5.754a2.4,2.4,0,0,1,.893-3.206l.658-.4a2.417,2.417,0,0,1,3.312.857c0,.012.012.012.012.023l.716,1.257" transform="translate(-325.739 -398.643)" fill="#ffc9a3"/>
              <path id="Trazado_992565" data-name="Trazado 992565" d="M327.463,406.226a4.09,4.09,0,0,1-3.547-2.055H323.9l-3.089-5.766a3.112,3.112,0,0,1,1.151-4.146l.658-.388a3.109,3.109,0,0,1,4.3,1.127l.716,1.257a.69.69,0,0,1-.235.951c-.012,0-.012.012-.023.012a.719.719,0,0,1-.963-.258l-.728-1.268a1.7,1.7,0,0,0-2.349-.611l-.658.388a1.718,1.718,0,0,0-.622,2.278l3.077,5.731a2.679,2.679,0,0,0,3.417,1.1l3.147-2.032a.705.705,0,1,1,.763,1.186l-3.23,2.079-.047.023A3.988,3.988,0,0,1,327.463,406.226Z" transform="translate(-320.446 -393.429)"/>
            </g>
            <g id="Grupo_1166179" data-name="Grupo 1166179" transform="translate(11.661 11.901)">
              <path id="Trazado_992566" data-name="Trazado 992566" d="M384.213,387.451l-1.527,5.931a3.719,3.719,0,0,1-3.23,2.783l-.258.035a3.72,3.72,0,0,1-3.429-1.562l-3.3-4.674a2.888,2.888,0,0,1,.552-3.934l.035-.035a2.914,2.914,0,0,1,4.1.458.9.9,0,0,1,.094.129l2.02,2.865" transform="translate(-371.227 -384.648)" fill="#ffc9a3"/>
              <path id="Trazado_992567" data-name="Trazado 992567" d="M373.517,391.6a4.442,4.442,0,0,1-3.629-1.867l-3.3-4.674a3.6,3.6,0,0,1,.681-4.9l.047-.035a3.6,3.6,0,0,1,5.05.54c.047.059.106.129.153.2l2.02,2.854a.713.713,0,0,1-.176.986.7.7,0,0,1-.975-.176l-2.02-2.854a2.186,2.186,0,0,0-3.042-.54c-.047.035-.082.059-.129.094l-.047.023a2.2,2.2,0,0,0-.411,2.983l3.3,4.674a3.02,3.02,0,0,0,2.783,1.268l.258-.023A3.049,3.049,0,0,0,376.7,387.9l1.527-5.942a.709.709,0,0,1,.834-.552.7.7,0,0,1,.552.834.167.167,0,0,1-.023.07l-1.527,5.931a4.435,4.435,0,0,1-3.84,3.312l-.258.023A2.849,2.849,0,0,1,373.517,391.6Z" transform="translate(-365.922 -379.336)"/>
            </g>
            <g id="Grupo_1166180" data-name="Grupo 1166180" transform="translate(17.814)">
              <path id="Trazado_992568" data-name="Trazado 992568" d="M429.7,292.7l4.439,5.1a4.934,4.934,0,0,1-1.151,6.882l-3.946,1.985a3.243,3.243,0,0,1-4.357-1.433c-.012-.023-.023-.035-.023-.059a3.165,3.165,0,0,1,1.1-4l2.572-2.22a17.861,17.861,0,0,0,.928-2.807C429.526,294.9,429.7,292.7,429.7,292.7Z" transform="translate(-423.644 -290.974)" fill="#ffc9a3"/>
              <path id="Trazado_992569" data-name="Trazado 992569" d="M422.257,294.747a3.966,3.966,0,0,1-1.28-.223,3.871,3.871,0,0,1-2.278-2.02,3.83,3.83,0,0,1,1.315-4.862l2.407-2.09a16.918,16.918,0,0,0,.822-2.537c.223-1.045.423-3.323.423-3.347L423.8,278l5.59,6.4a5.357,5.357,0,0,1,.928,4.51,5.622,5.622,0,0,1-2.337,3.429l-3.946,1.985a3.9,3.9,0,0,1-1.773.423Zm2.654-13.329c-.07.646-.176,1.351-.294,1.9a18.264,18.264,0,0,1-.963,2.936l-.07.153-2.748,2.372a2.451,2.451,0,0,0-.869,3.112,2.529,2.529,0,0,0,1.456,1.3,2.56,2.56,0,0,0,1.973-.129l3.946-1.985a4.35,4.35,0,0,0,1.6-2.5,3.881,3.881,0,0,0-.681-3.323Z" transform="translate(-418.312 -278)"/>
            </g>
          </g>
          <g id="Grupo_1166187" data-name="Grupo 1166187" transform="translate(0 11.521)">
            <g id="Grupo_1166182" data-name="Grupo 1166182" transform="translate(22.071 18.9)">
              <path id="Trazado_992570" data-name="Trazado 992570" d="M194,451.794l2.407,1.186a2.354,2.354,0,0,0,2.842-1.268l.986-2.22a2.853,2.853,0,0,0-1.28-3.7l-1.3-.693" transform="translate(-193.288 -444.376)" fill="#ffc9a3"/>
              <path id="Trazado_992571" data-name="Trazado 992571" d="M191.747,448.351a3.28,3.28,0,0,1-.893-.129l-.059-.023-2.466-1.21a.7.7,0,0,1-.329-.928.011.011,0,0,1,.012-.012.7.7,0,0,1,.94-.329l2.36,1.163a1.654,1.654,0,0,0,1.938-.9l.986-2.208a2.152,2.152,0,0,0-.963-2.795l-1.3-.693a.707.707,0,0,1,.6-1.28c.023.012.035.023.059.023l1.3.693a3.6,3.6,0,0,1,1.6,4.615l-.986,2.208A3.066,3.066,0,0,1,191.747,448.351Z" transform="translate(-187.935 -438.937)"/>
            </g>
            <g id="Grupo_1166183" data-name="Grupo 1166183" transform="translate(16.411 16.797)">
              <path id="Trazado_992572" data-name="Trazado 992572" d="M145.7,434.946l2.83,1.82a2.978,2.978,0,0,0,3.864-1.21l2.736-5.109a2.127,2.127,0,0,0-.787-2.842l-.575-.352a2.138,2.138,0,0,0-2.924.74c-.012.012-.012.023-.023.035l-.646,1.116" transform="translate(-145 -426.259)" fill="#ffc9a3"/>
              <path id="Trazado_992573" data-name="Trazado 992573" d="M144.526,432.532a3.613,3.613,0,0,1-1.562-.352l-.035-.023-2.865-1.844a.705.705,0,0,1,.763-1.186l2.783,1.8a2.3,2.3,0,0,0,2.912-.939l2.736-5.1a1.439,1.439,0,0,0-.528-1.914l-.587-.341a1.434,1.434,0,0,0-1.961.5l-.012.012-.646,1.116a.676.676,0,0,1-.928.27.041.041,0,0,1-.023-.012.709.709,0,0,1-.27-.963l.646-1.116a2.841,2.841,0,0,1,3.887-1.033.041.041,0,0,1,.023.012l.587.341a2.84,2.84,0,0,1,1.045,3.781l-2.736,5.12A3.748,3.748,0,0,1,144.526,432.532Z" transform="translate(-139.739 -421.026)"/>
            </g>
            <g id="Grupo_1166184" data-name="Grupo 1166184" transform="translate(11.314 13.545)">
              <path id="Trazado_992574" data-name="Trazado 992574" d="M102.3,408.337l3.194,2.055a3.364,3.364,0,0,0,4.369-1.386l3.077-5.754a2.406,2.406,0,0,0-.881-3.206l-.658-.4a2.409,2.409,0,0,0-3.3.834c-.012.012-.012.023-.023.047l-.728,1.257" transform="translate(-101.6 -398.606)" fill="#ffc9a3"/>
              <path id="Trazado_992575" data-name="Trazado 992575" d="M101.654,406.15a3.988,3.988,0,0,1-1.726-.388l-.047-.023-3.218-2.079a.705.705,0,1,1,.763-1.186l3.147,2.032a2.681,2.681,0,0,0,3.406-1.1l3.089-5.743a1.708,1.708,0,0,0-.634-2.278l-.658-.388a1.7,1.7,0,0,0-2.349.611l-.728,1.268a.705.705,0,1,1-1.221-.7l.728-1.257a3.125,3.125,0,0,1,4.251-1.163c.012.012.035.023.047.035l.646.388a3.112,3.112,0,0,1,1.151,4.146l-3.089,5.778A4.123,4.123,0,0,1,101.654,406.15Z" transform="translate(-96.339 -393.342)"/>
            </g>
            <g id="Grupo_1166185" data-name="Grupo 1166185" transform="translate(4.606 11.896)">
              <path id="Trazado_992576" data-name="Trazado 992576" d="M45.3,387.451l1.527,5.931a3.719,3.719,0,0,0,3.23,2.783l.258.035a3.72,3.72,0,0,0,3.429-1.562l3.312-4.674a2.9,2.9,0,0,0-.564-3.934l-.035-.035a2.914,2.914,0,0,0-4.1.458.9.9,0,0,0-.094.129l-2.008,2.865" transform="translate(-44.585 -384.644)" fill="#ffc9a3"/>
              <path id="Trazado_992577" data-name="Trazado 992577" d="M45.331,391.569a2.992,2.992,0,0,1-.458-.023l-.258-.023a4.463,4.463,0,0,1-3.84-3.312l-1.527-5.931a.7.7,0,1,1,1.339-.423c.012.023.012.047.023.07l1.527,5.942a3.062,3.062,0,0,0,2.619,2.255l.258.023A3.009,3.009,0,0,0,47.8,388.88l3.312-4.674a2.225,2.225,0,0,0-.423-2.983l-.047-.023a2.172,2.172,0,0,0-1.679-.47,2.22,2.22,0,0,0-1.491.916L45.46,384.5a.7.7,0,1,1-1.151-.81l2.008-2.854a3.6,3.6,0,0,1,5.026-.881c.07.047.129.094.188.141l.035.035a3.626,3.626,0,0,1,.693,4.9L48.948,389.7A4.437,4.437,0,0,1,45.331,391.569Z" transform="translate(-39.214 -379.297)"/>
            </g>
            <g id="Grupo_1166186" data-name="Grupo 1166186">
              <path id="Trazado_992578" data-name="Trazado 992578" d="M11.372,292.7l-4.439,5.1a4.934,4.934,0,0,0,1.151,6.882l3.958,1.985a3.262,3.262,0,0,0,4.369-1.456c0-.012.012-.023.012-.035a3.179,3.179,0,0,0-1.116-4l-2.56-2.22a16.722,16.722,0,0,1-.928-2.807A34.46,34.46,0,0,1,11.372,292.7Z" transform="translate(-5.277 -290.974)" fill="#ffc9a3"/>
              <path id="Trazado_992579" data-name="Trazado 992579" d="M8.206,294.747a3.82,3.82,0,0,1-1.762-.423l-3.958-1.985A5.622,5.622,0,0,1,.149,288.91a5.363,5.363,0,0,1,.939-4.51l.035-.047L6.667,278l.129,1.668c0,.023.176,2.173.423,3.347a17.324,17.324,0,0,0,.834,2.537l2.4,2.09a3.834,3.834,0,0,1,1.327,4.862,3.943,3.943,0,0,1-2.278,2.02A4.036,4.036,0,0,1,8.206,294.747Zm-6-9.489a3.92,3.92,0,0,0-.681,3.323,4.409,4.409,0,0,0,1.6,2.5l3.958,1.985a2.534,2.534,0,0,0,3.394-1.116c.012-.023.023-.035.023-.059a2.434,2.434,0,0,0-.857-3.112l-.035-.023-2.725-2.349-.059-.153a17.213,17.213,0,0,1-.975-2.936c-.117-.552-.211-1.257-.294-1.9Z" transform="translate(0.004 -278)"/>
            </g>
          </g>
        </g>
        <g id="Grupo_1166189" data-name="Grupo 1166189" transform="translate(15.432 28.523)">
          <path id="Trazado_992580" data-name="Trazado 992580" d="M0,0H1.409V2.372H0Z" transform="translate(4.589 1.893) rotate(-56.58)"/>
          <path id="Trazado_992581" data-name="Trazado 992581" d="M0,0H2.372V1.409H0Z" transform="translate(25.496 2.306) rotate(-76.52)"/>
          <path id="Trazado_992582" data-name="Trazado 992582" d="M0,0H2.372V1.409H0Z" transform="translate(0 11.389) rotate(-76.52)"/>
          <path id="Trazado_992583" data-name="Trazado 992583" d="M0,0H2.372V1.409H0Z" transform="translate(16.406 4.636) rotate(-81.781)"/>
          <path id="Trazado_992584" data-name="Trazado 992584" d="M0,0H2.372V1.409H0Z" transform="translate(28.746 10.84) rotate(-81.781)"/>
          <path id="Trazado_992585" data-name="Trazado 992585" d="M0,0H2.372V1.409H0Z" transform="translate(8.299 9.747) rotate(-7.587)"/>
          <path id="Trazado_992586" data-name="Trazado 992586" d="M0,0H2.372V1.409H0Z" transform="translate(22.601 6.522) rotate(-7.587)"/>
        </g>
        <g id="Grupo_1166196" data-name="Grupo 1166196" transform="translate(18.649)">
          <g id="Grupo_1166192" data-name="Grupo 1166192" transform="translate(0 10.353)">
            <g id="Grupo_1166190" data-name="Grupo 1166190" transform="translate(11.347)">
              <path id="Trazado_992587" data-name="Trazado 992587" d="M268.9,100.865a9.134,9.134,0,0,1-7.5,1.186,10.237,10.237,0,0,1,3.9-6.154c3.147-2.29,7.316-1.444,7.316-1.444A8.62,8.62,0,0,1,268.9,100.865Z" transform="translate(-260.697 -93.554)" fill="#719b29"/>
              <path id="Trazado_992588" data-name="Trazado 992588" d="M258.691,97.486a10.132,10.132,0,0,1-2.783-.376.711.711,0,0,1-.481-.787,10.876,10.876,0,0,1,4.181-6.612,10.354,10.354,0,0,1,7.868-1.562.7.7,0,0,1,.564.693,9.268,9.268,0,0,1-4,6.976A8.962,8.962,0,0,1,258.691,97.486Zm-1.726-1.574a8.221,8.221,0,0,0,6.248-1.233,8.113,8.113,0,0,0,3.359-5.226,9.28,9.28,0,0,0-6.142,1.409A9.833,9.833,0,0,0,256.965,95.912Z" transform="translate(-255.417 -87.944)"/>
            </g>
            <g id="Grupo_1166191" data-name="Grupo 1166191" transform="translate(0 0.04)">
              <path id="Trazado_992589" data-name="Trazado 992589" d="M168.511,100.865a9.134,9.134,0,0,0,7.5,1.186A10.22,10.22,0,0,0,172.1,95.9c-3.147-2.29-7.3-1.444-7.3-1.444A8.574,8.574,0,0,0,168.511,100.865Z" transform="translate(-164.095 -93.594)" fill="#8dc63f"/>
              <path id="Trazado_992590" data-name="Trazado 992590" d="M168.145,97.788a8.962,8.962,0,0,1-5.343-1.668,9.223,9.223,0,0,1-4-6.976.684.684,0,0,1,.564-.693c.176-.035,4.51-.869,7.868,1.562a11.479,11.479,0,0,1,4.181,6.612.711.711,0,0,1-.481.787A10.132,10.132,0,0,1,168.145,97.788Zm-4.521-2.807a8.221,8.221,0,0,0,6.248,1.233,9.611,9.611,0,0,0-3.476-5.05,9.091,9.091,0,0,0-6.13-1.421A8.081,8.081,0,0,0,163.624,94.982Z" transform="translate(-158.797 -88.286)"/>
            </g>
          </g>
          <g id="Grupo_1166195" data-name="Grupo 1166195" transform="translate(2.196)">
            <g id="Grupo_1166193" data-name="Grupo 1166193" transform="translate(9.13)">
              <path id="Trazado_992591" data-name="Trazado 992591" d="M267.336,11.5a6.789,6.789,0,0,1-6.036,1.045,9.22,9.22,0,0,1,3.136-5.414,7.245,7.245,0,0,1,5.9-1.28A7.869,7.869,0,0,1,267.336,11.5Z" transform="translate(-260.589 -4.994)" fill="#719b29"/>
              <path id="Trazado_992592" data-name="Trazado 992592" d="M258.02,8.351a7.643,7.643,0,0,1-2.3-.341.707.707,0,0,1-.47-.763,9.935,9.935,0,0,1,3.406-5.872,8.013,8.013,0,0,1,6.483-1.409.7.7,0,0,1,.552.693,8.518,8.518,0,0,1-3.253,6.189A6.936,6.936,0,0,1,258.02,8.351Zm-1.233-1.527a5.862,5.862,0,0,0,4.768-1.08,7.3,7.3,0,0,0,2.666-4.486,6.738,6.738,0,0,0-4.686,1.221A9.014,9.014,0,0,0,256.787,6.824Z" transform="translate(-255.242 0.211)"/>
            </g>
            <g id="Grupo_1166194" data-name="Grupo 1166194" transform="translate(0 0.025)">
              <path id="Trazado_992593" data-name="Trazado 992593" d="M186.483,11.5a6.813,6.813,0,0,0,6.048,1.045,9.273,9.273,0,0,0-3.147-5.414,7.219,7.219,0,0,0-5.884-1.28A7.83,7.83,0,0,0,186.483,11.5Z" transform="translate(-182.795 -5.019)" fill="#8dc63f"/>
              <path id="Trazado_992594" data-name="Trazado 992594" d="M185.154,8.542a6.972,6.972,0,0,1-4.4-1.5A8.518,8.518,0,0,1,177.5.85a.692.692,0,0,1,.552-.693,8.353,8.353,0,0,1,6.483,1.409,10.182,10.182,0,0,1,3.394,5.872.7.7,0,0,1-.458.763A7.719,7.719,0,0,1,185.154,8.542Zm-6.189-7.093a7.169,7.169,0,0,0,2.666,4.486,5.855,5.855,0,0,0,4.768,1.08,8.47,8.47,0,0,0-2.748-4.345,6.345,6.345,0,0,0-4.686-1.221Z" transform="translate(-177.496 -0.005)"/>
            </g>
          </g>
          <path id="Trazado_992595" data-name="Trazado 992595" d="M254.8,58h1.409V76.778H254.8Z" transform="translate(-243.526 -51.164)"/>
        </g>
      </g>
    </g>
  </g>
</svg>
