<svg xmlns="http://www.w3.org/2000/svg" width="93.959" height="93.959" viewBox="0 0 93.959 93.959">
  <g id="Grupo_1165462" data-name="Grupo 1165462" transform="translate(-211.051 -543)">
    <g id="Grupo_1158189" data-name="Grupo 1158189" transform="translate(0 -547)">
      <g id="Grupo_1153772" data-name="Grupo 1153772" transform="translate(211.051 1090)">
        <g id="Grupo_1103990" data-name="Grupo 1103990" transform="translate(0)">
          <g id="Trazado_874102" data-name="Trazado 874102" transform="translate(0)" fill="#f0f7e8">
            <path d="M 46.97949600219727 91.45897674560547 C 40.97370910644531 91.45897674560547 35.14888000488281 90.28328704833984 29.66683959960938 87.96457672119141 C 24.37055397033691 85.72444915771484 19.61348152160645 82.51696014404297 15.52775287628174 78.43122863769531 C 11.44202423095703 74.34550476074219 8.234539031982422 69.58843231201172 5.994410514831543 64.29214477539062 C 3.675695896148682 58.81010437011719 2.500010251998901 52.98527526855469 2.500010251998901 46.97948837280273 C 2.500010251998901 40.97369003295898 3.675695896148682 35.14887237548828 5.994410514831543 29.66683197021484 C 8.234539031982422 24.37054634094238 11.44202423095703 19.61346054077148 15.52775287628174 15.52774524688721 C 19.61348152160645 11.4420166015625 24.37055397033691 8.234531402587891 29.66683959960938 5.994388580322266 C 35.14888000488281 3.67568826675415 40.97370910644531 2.50000262260437 46.97949600219727 2.50000262260437 C 52.98529434204102 2.50000262260437 58.81011199951172 3.67568826675415 64.29215240478516 5.994388580322266 C 69.58843994140625 8.234531402587891 74.34552764892578 11.4420166015625 78.43123626708984 15.52774524688721 C 82.5169677734375 19.61346054077148 85.72445678710938 24.37054634094238 87.964599609375 29.66683197021484 C 90.28329467773438 35.14887237548828 91.458984375 40.97369003295898 91.458984375 46.97948837280273 C 91.458984375 52.98527526855469 90.28329467773438 58.81010437011719 87.964599609375 64.29214477539062 C 85.72445678710938 69.58843231201172 82.5169677734375 74.34550476074219 78.43123626708984 78.43122863769531 C 74.34552764892578 82.51696014404297 69.58843994140625 85.72444915771484 64.29215240478516 87.96457672119141 C 58.81011199951172 90.28328704833984 52.98529434204102 91.45897674560547 46.97949600219727 91.45897674560547 Z" stroke="none"/>
            <path d="M 46.97949600219727 5.000007629394531 C 41.31009674072266 5.000007629394531 35.81294631958008 6.109237670898438 30.64072799682617 8.296905517578125 C 25.64242553710938 10.41100311279297 21.1524658203125 13.43856811523438 17.29550933837891 17.29550170898438 C 13.43857574462891 21.15245819091797 10.4110107421875 25.64241790771484 8.296913146972656 30.64072036743164 C 6.109245300292969 35.81293869018555 5.000015258789062 41.31008911132812 5.000015258789062 46.97948837280273 C 5.000015258789062 52.64888763427734 6.109245300292969 58.14603805541992 8.296913146972656 63.31825256347656 C 10.4110107421875 68.31653594970703 13.43857574462891 72.8065185546875 17.29550933837891 76.6634521484375 C 21.1524658203125 80.52040100097656 25.64242553710938 83.5479736328125 30.64072799682617 85.66207122802734 C 35.81294631958008 87.84973907470703 41.31009674072266 88.95896911621094 46.97949600219727 88.95896911621094 C 52.64889526367188 88.95896911621094 58.14604568481445 87.84973907470703 63.31826019287109 85.66207122802734 C 68.31655883789062 83.5479736328125 72.80653381347656 80.52040100097656 76.66348266601562 76.6634521484375 C 80.52041625976562 72.8065185546875 83.54798126220703 68.31653594970703 85.66207885742188 63.31825256347656 C 87.84974670410156 58.14603805541992 88.95897674560547 52.64888763427734 88.95897674560547 46.97948837280273 C 88.95897674560547 41.31008911132812 87.84974670410156 35.81293869018555 85.66207885742188 30.64072036743164 C 83.54798126220703 25.64241790771484 80.52041625976562 21.15245819091797 76.66348266601562 17.29550170898438 C 72.80653381347656 13.43856811523438 68.31655883789062 10.41100311279297 63.31826019287109 8.296905517578125 C 58.14604568481445 6.109237670898438 52.64889526367188 5.000007629394531 46.97949600219727 5.000007629394531 M 46.97949600219727 7.62939453125e-06 C 72.92554473876953 7.62939453125e-06 93.95897674560547 21.03343963623047 93.95897674560547 46.97948837280273 C 93.95897674560547 72.92552185058594 72.92554473876953 93.95896911621094 46.97949600219727 93.95896911621094 C 21.033447265625 93.95896911621094 1.52587890625e-05 72.92552185058594 1.52587890625e-05 46.97948837280273 C 1.52587890625e-05 21.03343963623047 21.033447265625 7.62939453125e-06 46.97949600219727 7.62939453125e-06 Z" stroke="none" fill="#fff"/>
          </g>
        </g>
      </g>
    </g>
    <g id="Filled_outline" data-name="Filled outline" transform="translate(220.819 557.979)">
      <path id="Trazado_991769" data-name="Trazado 991769" d="M29,11H47V29H29Z" fill="#ffd782"/>
      <path id="Trazado_991770" data-name="Trazado 991770" d="M29,33H47V61H29Z" fill="#7fcac9"/>
      <path id="Trazado_991771" data-name="Trazado 991771" d="M47,11V25l-8-4a3,3,0,0,0,0-6V11Z" fill="#394d5c"/>
      <path id="Trazado_991772" data-name="Trazado 991772" d="M21,45l2,2H35V36a3,3,0,0,1,6,0V49a4,4,0,0,1-4,4H17V45Z" fill="#ffd782"/>
      <path id="Trazado_991773" data-name="Trazado 991773" d="M41,37V49a4,4,0,0,1-4,4H35V39a5,5,0,0,1-5,5H29V61H47V37Z" fill="#5f79ba"/>
      <path id="Trazado_991774" data-name="Trazado 991774" d="M35,36V47H23v6H37a4,4,0,0,0,4-4V36a3,3,0,0,0-6,0Z" fill="#98ede8"/>
      <path id="Trazado_991775" data-name="Trazado 991775" d="M17,29a4,4,0,0,1,4,4V45H17Z" fill="#50b4f8"/>
      <path id="Trazado_991776" data-name="Trazado 991776" d="M13,29h4v4H13Z" fill="#2d75bb"/>
      <path id="Trazado_991777" data-name="Trazado 991777" d="M47,51H57v4a2,2,0,0,1-2,2H47Z" fill="#fcf05a"/>
      <path id="Trazado_991778" data-name="Trazado 991778" d="M53,33l3-3-3-3-6,6V51H57V37A4,4,0,0,0,53,33Z" fill="#c8d952"/>
      <path id="Trazado_991779" data-name="Trazado 991779" d="M53.879,23.464h4.243v7.071H53.879Z" transform="translate(-2.69 47.506) rotate(-45)" fill="#8ec13f"/>
      <path id="Trazado_991780" data-name="Trazado 991780" d="M51,45a2,2,0,0,0,2,2h4v8a2,2,0,0,1-2,2H25a4,4,0,0,1-4-4H17a8,8,0,0,0,8,8H55a6,6,0,0,0,6-6V47a4,4,0,0,0-4-4H53A2,2,0,0,0,51,45Z" fill="#50b4f8"/>
      <rect id="Rectángulo_412365" data-name="Rectángulo 412365" width="28" height="4" rx="2" transform="translate(24 7)" fill="#ad6327"/>
      <path id="Trazado_991781" data-name="Trazado 991781" d="M31,3H45a2,2,0,0,1,2,2V7H29V5A2,2,0,0,1,31,3Z" fill="#d3843d"/>
      <path id="Trazado_991782" data-name="Trazado 991782" d="M29,19h8V29H29Z" fill="#7fcac9"/>
      <path id="Trazado_991783" data-name="Trazado 991783" d="M41,55h6v6H41Z" fill="#c8d952"/>
      <circle id="Elipse_11798" data-name="Elipse 11798" cx="2" cy="2" r="2" transform="translate(51 43)" fill="#2d75bb"/>
      <path id="Trazado_991784" data-name="Trazado 991784" d="M32,14h2v2H32Z"/>
      <path id="Trazado_991785" data-name="Trazado 991785" d="M50,36h2v4H50Z"/>
      <path id="Trazado_991786" data-name="Trazado 991786" d="M58,42.1V37a5,5,0,0,0-3-4.583l1-1,.293.293a1,1,0,0,0,1.414,0l3-3a1,1,0,0,0,0-1.414l-5-5a1,1,0,0,0-1.414,0l-3,3a1,1,0,0,0,0,1.414l.293.293-5,5H29a1,1,0,0,0-1,1V46H23.414L22,44.586V33a5.006,5.006,0,0,0-5-5H13a1,1,0,0,0-1,1v4a1,1,0,0,0,1,1h3V53a8.988,8.988,0,0,0,9,9H55a7.008,7.008,0,0,0,7-7V47A5.009,5.009,0,0,0,58,42.1ZM16,32H14V30h2Zm14,2h4.556A3.959,3.959,0,0,0,34,36v3a4,4,0,0,1-4,4Zm0,11a5.969,5.969,0,0,0,4-1.54V46H30Zm-6,3H35a1,1,0,0,0,1-1V36a2,2,0,0,1,4,0V49a3,3,0,0,1-3,3H24Zm4,6v2H25a3,3,0,0,1-2.816-2ZM18,30.171A3.006,3.006,0,0,1,20,33V44H18ZM18,46h2.586L22,47.414V52H18ZM40,60H25a6.99,6.99,0,0,1-6.93-6H20.1A5.008,5.008,0,0,0,25,58H40Zm6,0H42V56h4Zm0-6H41a1,1,0,0,0-1,1v1H30V54h7a5.006,5.006,0,0,0,5-5V38h4Zm0-18H42a3.959,3.959,0,0,0-.556-2H46Zm9-11.586L58.586,28,57,29.586,53.414,26Zm-7,9,5-5L54.586,30l-2.293,2.293A1,1,0,0,0,53,34a3,3,0,0,1,3,3v5H53a3,3,0,0,0,0,6h3v2H48ZM54,45a1,1,0,1,1-1-1A1,1,0,0,1,54,45Zm-6,7h8v3a1,1,0,0,1-1,1H48Zm12,3a5.006,5.006,0,0,1-5,5H48V58h7a3,3,0,0,0,3-3V47a1,1,0,0,0-1-1H55.816a2.809,2.809,0,0,0,0-2H57a3,3,0,0,1,3,3Z"/>
      <path id="Trazado_991787" data-name="Trazado 991787" d="M5.5,18.55h2v9.9h-2Z" transform="translate(-14.713 11.479) rotate(-45)"/>
      <path id="Trazado_991788" data-name="Trazado 991788" d="M3,30H9v2H3Z"/>
      <path id="Trazado_991789" data-name="Trazado 991789" d="M1.757,37h8.485v2H1.757Z" transform="translate(-25.113 15.373) rotate(-45)"/>
      <path id="Trazado_991790" data-name="Trazado 991790" d="M26,12h2V29a1,1,0,0,0,1,1H47a1,1,0,0,0,1-1V12h2a3,3,0,1,0,0-6H48V5a3,3,0,0,0-3-3H31a3,3,0,0,0-3,3V6H26a3,3,0,0,0,0,6ZM36,24H33v2h3v2H30V20h6Zm-6-6V12h8v2.764L36.382,18ZM46,28H38V19.236l1.572-3.143A1.995,1.995,0,0,1,39,20a1,1,0,0,0-.447,1.9L46,25.618Zm0-4.618-4.509-2.255a4,4,0,0,0-1.491-7V12h6ZM30,5a1,1,0,0,1,1-1H45a1,1,0,0,1,1,1V6H30ZM26,8H50a1,1,0,0,1,0,2H26a1,1,0,0,1,0-2Z"/>
    </g>
  </g>
</svg>
