<svg xmlns="http://www.w3.org/2000/svg" xmlns:xlink="http://www.w3.org/1999/xlink" width="105.781" height="105.781" viewBox="0 0 105.781 105.781">
  <defs>
    <filter id="Trazado_985594" x="0" y="0" width="105.781" height="105.781" filterUnits="userSpaceOnUse">
      <feOffset dy="3" input="SourceAlpha"/>
      <feGaussianBlur stdDeviation="3" result="blur"/>
      <feFlood flood-opacity="0.161"/>
      <feComposite operator="in" in2="blur"/>
      <feComposite in="SourceGraphic"/>
    </filter>
  </defs>
  <g id="Grupo_1165469" data-name="Grupo 1165469" transform="translate(-327.107 -1376)">
    <g id="Grupo_1163783" data-name="Grupo 1163783" transform="translate(-0.943 267.332)">
      <g transform="matrix(1, 0, 0, 1, 328.05, 1108.67)" filter="url(#Trazado_985594)">
        <g id="Trazado_985594-2" data-name="Trazado 985594" transform="translate(9 6)" fill="#f3d02c">
          <path d="M 43.8906364440918 85.28125762939453 C 38.30183792114258 85.28125762939453 32.88154220581055 84.18724060058594 27.78030395507812 82.02960205078125 C 22.85183715820312 79.94503021240234 18.42508888244629 76.96026611328125 14.62304973602295 73.15821838378906 C 10.82099628448486 69.35617828369141 7.836236476898193 64.92942810058594 5.751663208007812 60.00096130371094 C 3.59402322769165 54.89972305297852 2.500009775161743 49.47942733764648 2.500009775161743 43.89062881469727 C 2.500009775161743 38.30183029174805 3.59402322769165 32.88153457641602 5.751663208007812 27.78029632568359 C 7.836236476898193 22.85182952880859 10.82099628448486 18.42508125305176 14.62304973602295 14.62304210662842 C 18.42508888244629 10.82098865509033 22.85183715820312 7.836228847503662 27.78030395507812 5.751655578613281 C 32.88154220581055 3.594015598297119 38.30183792114258 2.500002145767212 43.8906364440918 2.500002145767212 C 49.47943496704102 2.500002145767212 54.89973068237305 3.594015598297119 60.00096893310547 5.751655578613281 C 64.92943572998047 7.836228847503662 69.35618591308594 10.82098865509033 73.15822601318359 14.62304210662842 C 76.96027374267578 18.42508125305176 79.94503784179688 22.85182952880859 82.02960968017578 27.78029632568359 C 84.18724822998047 32.88153457641602 85.28126525878906 38.30183029174805 85.28126525878906 43.89062881469727 C 85.28126525878906 49.47942733764648 84.18724822998047 54.89972305297852 82.02960968017578 60.00096130371094 C 79.94503784179688 64.92942810058594 76.96027374267578 69.35617828369141 73.15822601318359 73.15821838378906 C 69.35618591308594 76.96026611328125 64.92943572998047 79.94503021240234 60.00096893310547 82.02960205078125 C 54.89973068237305 84.18724060058594 49.47943496704102 85.28125762939453 43.8906364440918 85.28125762939453 Z" stroke="none"/>
          <path d="M 43.8906364440918 4.999992370605469 C 38.63823699951172 4.999992370605469 33.54560470581055 6.027565002441406 28.75418472290039 8.054161071777344 C 24.12371826171875 10.0126953125 19.96407318115234 12.81754302978516 16.39080047607422 16.39079284667969 C 12.81755065917969 19.96406555175781 10.01270294189453 24.12371063232422 8.054168701171875 28.75417709350586 C 6.027572631835938 33.54559707641602 5 38.63822937011719 5 43.89062881469727 C 5 49.14302825927734 6.027572631835938 54.23566055297852 8.054168701171875 59.02707672119141 C 10.01270294189453 63.65754699707031 12.81755065917969 67.81719970703125 16.39080047607422 71.39046478271484 C 19.96407318115234 74.96371459960938 24.12371826171875 77.76856231689453 28.75418472290039 79.72709655761719 C 33.54560470581055 81.75369262695312 38.63823699951172 82.78126525878906 43.8906364440918 82.78126525878906 C 49.14303588867188 82.78126525878906 54.23566818237305 81.75369262695312 59.02708435058594 79.72709655761719 C 63.65755462646484 77.76856231689453 67.81719970703125 74.96371459960938 71.39047241210938 71.39046478271484 C 74.96372222900391 67.81719970703125 77.76856994628906 63.65754699707031 79.72710418701172 59.02707672119141 C 81.75370025634766 54.23566055297852 82.78127288818359 49.14302825927734 82.78127288818359 43.89062881469727 C 82.78127288818359 38.63822937011719 81.75370025634766 33.54559707641602 79.72710418701172 28.75417709350586 C 77.76856994628906 24.12371063232422 74.96372222900391 19.96406555175781 71.39047241210938 16.39079284667969 C 67.81719970703125 12.81754302978516 63.65755462646484 10.0126953125 59.02708435058594 8.054161071777344 C 54.23566818237305 6.027565002441406 49.14303588867188 4.999992370605469 43.8906364440918 4.999992370605469 M 43.8906364440918 -7.62939453125e-06 C 68.13075256347656 -7.62939453125e-06 87.78127288818359 19.6505126953125 87.78127288818359 43.89062881469727 C 87.78127288818359 68.13074493408203 68.13075256347656 87.78126525878906 43.8906364440918 87.78126525878906 C 19.65052032470703 87.78126525878906 0 68.13074493408203 0 43.89062881469727 C 0 19.6505126953125 19.65052032470703 -7.62939453125e-06 43.8906364440918 -7.62939453125e-06 Z" stroke="none" fill="#fff"/>
        </g>
      </g>
    </g>
    <g id="agua-subterranea" transform="translate(355.107 1401)">
      <g id="Grupo_1165467" data-name="Grupo 1165467" transform="translate(0.736 0.727)">
        <g id="Grupo_1165466" data-name="Grupo 1165466">
          <path id="Trazado_991791" data-name="Trazado 991791" d="M301,7.406h2.945v3.818H301Z" transform="translate(-272.183 -7.406)" fill="#a9baca"/>
          <path id="Trazado_991792" data-name="Trazado 991792" d="M56.3,264.159H7.5v-4.418l4.6-.4,44.2.4Z" transform="translate(-7.5 -234.606)" fill="#e3994b"/>
          <path id="Trazado_991793" data-name="Trazado 991793" d="M9.723,265.6v-2.195H7.5v4.418H56.3V265.6Z" transform="translate(-7.5 -238.271)" fill="#c38340"/>
          <path id="Trazado_991794" data-name="Trazado 991794" d="M7.5,218.6H56.3v4.418H7.5Z" transform="translate(-7.5 -197.863)" fill="#c3f839"/>
          <path id="Trazado_991795" data-name="Trazado 991795" d="M9.723,220.793V218.6H7.5v4.418H56.3v-2.223Z" transform="translate(-7.5 -197.863)" fill="#abe700"/>
          <path id="Trazado_991796" data-name="Trazado 991796" d="M7.5,308.4H56.3v7.046H7.5Z" transform="translate(-7.5 -278.851)" fill="#b6e6fa"/>
          <path id="Trazado_991797" data-name="Trazado 991797" d="M55.083,310.97a2.153,2.153,0,0,1-1.945,1.189,1.986,1.986,0,0,1-1.848-1.189H46.882a2.032,2.032,0,0,1-3.7,0H38.775a2.03,2.03,0,0,1-3.7,0H30.67a2.031,2.031,0,0,1-3.7,0H22.564a2.032,2.032,0,0,1-3.7,0H14.456a2.028,2.028,0,0,1-3.692,0V308.4H8.583v6.746H57.262V310.97Z" transform="translate(-8.477 -278.851)" fill="#8ad8f6"/>
          <path id="Trazado_991798" data-name="Trazado 991798" d="M8.583,334.342a1.951,1.951,0,0,0,.131.7,4.176,4.176,0,0,0,7.947-.508,4.176,4.176,0,0,0,8.108,0,4.175,4.175,0,0,0,8.106,0,4.174,4.174,0,0,0,8.1,0,4.176,4.176,0,0,0,8.108,0,4.166,4.166,0,0,0,4.052,3.173,4.306,4.306,0,0,0,3.993-2.665,1.95,1.95,0,0,0,.131-.7v10.09H8.583Z" transform="translate(-8.477 -302.243)" fill="#54c9f3"/>
          <path id="Trazado_991799" data-name="Trazado 991799" d="M55.083,344.011a2.164,2.164,0,0,1-1.945,1.2,2,2,0,0,1-1.848-1.2H46.882a2.023,2.023,0,0,1-3.7,0H38.775a2.021,2.021,0,0,1-3.7,0H30.67a2.022,2.022,0,0,1-3.7,0H22.564a2.023,2.023,0,0,1-3.7,0H14.456a2.009,2.009,0,0,1-3.68,0v-5.775A4.2,4.2,0,0,1,8.714,336a1.95,1.95,0,0,1-.131-.7V348.2H57.262v-4.192H55.083Z" transform="translate(-8.477 -303.103)" fill="#00adeb"/>
          <path id="Trazado_991800" data-name="Trazado 991800" d="M8.583,423.854a1.951,1.951,0,0,0,.131.7,4.176,4.176,0,0,0,7.947-.508,4.176,4.176,0,0,0,8.108,0,4.175,4.175,0,0,0,8.106,0,4.174,4.174,0,0,0,8.1,0,4.176,4.176,0,0,0,8.108,0,4.166,4.166,0,0,0,4.052,3.173,4.306,4.306,0,0,0,3.993-2.665,1.95,1.95,0,0,0,.131-.7v7.823H8.583Z" transform="translate(-8.477 -382.966)" fill="#009de6"/>
          <path id="Trazado_991801" data-name="Trazado 991801" d="M10.8,430.444V427.9a4.176,4.176,0,0,1-2.088-2.255,1.95,1.95,0,0,1-.131-.7v7.814H57.262v-2.31Z" transform="translate(-8.477 -383.945)" fill="#0089cb"/>
          <g id="Grupo_1165463" data-name="Grupo 1165463" transform="translate(2.3 37.677)">
            <path id="Trazado_991802" data-name="Trazado 991802" d="M30.925,391.147H32.4v1.473H30.925Z" transform="translate(-30.925 -391.147)" fill="#fff"/>
          </g>
          <g id="Grupo_1165464" data-name="Grupo 1165464" transform="translate(5.261 37.677)">
            <path id="Trazado_991803" data-name="Trazado 991803" d="M61.085,391.147h1.473v1.473H61.085Z" transform="translate(-61.085 -391.147)" fill="#fff"/>
          </g>
          <path id="Trazado_991804" data-name="Trazado 991804" d="M233.5,53.026V90.049h4.418V53.026a3.682,3.682,0,1,1,7.364,0V53.8H249.7v-.772a8.1,8.1,0,1,0-16.2,0Z" transform="translate(-211.311 -41.242)" fill="#79787d"/>
          <g id="Grupo_1165465" data-name="Grupo 1165465" transform="translate(22.189 5.146)">
            <path id="Trazado_991805" data-name="Trazado 991805" d="M235.7,101.183V64.16a8.059,8.059,0,0,1,1.265-4.344,8.089,8.089,0,0,0-3.461,6.638v37.023h4.418v-2.294H235.7Z" transform="translate(-233.5 -59.816)" fill="#58565b"/>
          </g>
          <path id="Trazado_991806" data-name="Trazado 991806" d="M356.454,140.81l1.4-1.4,1.4,1.4a1.976,1.976,0,1,1-2.794,0Z" transform="translate(-321.671 -126.452)" fill="#54c9f3"/>
        </g>
      </g>
      <g id="Grupo_1165468" data-name="Grupo 1165468" transform="translate(0 0)">
        <path id="Trazado_991807" data-name="Trazado 991807" d="M28.08,20.726V12.511a2.945,2.945,0,0,1,5.891,0v1.508h1.573L35,14.564a2.694,2.694,0,0,0-.794,1.918,2.712,2.712,0,0,0,5.425,0,2.694,2.694,0,0,0-.794-1.918l-.545-.546h1.573V12.511a8.852,8.852,0,0,0-6.627-8.557V1.464h2.209V0H26.608V1.464h2.209V3.954a8.852,8.852,0,0,0-6.627,8.557v8.215H0V50.27H42.834V48.8H28.08V45.591a4.968,4.968,0,0,0,5.2-2,4.955,4.955,0,0,0,8.143,0,4.943,4.943,0,0,0,7.378.857V48.8H44.28V50.27H50.27V20.726Zm8.836-3a1.246,1.246,0,0,1-.876-2.116l.876-.877.876.877A1.246,1.246,0,0,1,36.917,17.722ZM48.8,29.544H28.08V26.6H48.8Zm0-7.345v2.927H28.08V22.2ZM30.289,1.464h1.473V3.706c-.243-.02-1.23-.02-1.473,0ZM22.189,22.2v2.927H5.989V26.6h16.2v2.945H1.473V26.6H4.516V25.126H1.473V22.2ZM1.473,31.016H22.189v4.255a3.467,3.467,0,0,1-4.48-2.425H16.278a3.463,3.463,0,0,1-6.713,0H8.134A3.432,3.432,0,0,1,4.78,35.457a3.324,3.324,0,0,1-3.307-2.631Zm0,4.64A4.943,4.943,0,0,0,8.85,34.8a4.955,4.955,0,0,0,8.142,0,4.967,4.967,0,0,0,5.2,2V44.06a3.467,3.467,0,0,1-4.48-2.425H16.278a3.463,3.463,0,0,1-6.713,0H8.134A3.432,3.432,0,0,1,4.78,44.246a3.325,3.325,0,0,1-3.307-2.631Zm0,13.142V44.445a4.943,4.943,0,0,0,7.378-.857,4.955,4.955,0,0,0,8.142,0,4.967,4.967,0,0,0,5.2,2V48.8H1.473Zm22.189,0V12.511a7.364,7.364,0,1,1,14.727.035H35.444a4.418,4.418,0,1,0-8.836-.035V48.8ZM45.49,44.246a3.433,3.433,0,0,1-3.355-2.611H40.7a3.463,3.463,0,0,1-6.713,0H32.561a3.467,3.467,0,0,1-4.48,2.424V36.8a4.968,4.968,0,0,0,5.2-2,4.955,4.955,0,0,0,8.143,0,4.943,4.943,0,0,0,7.378.857v5.959c0,1.257-1.216,2.631-3.307,2.631Zm0-8.789a3.433,3.433,0,0,1-3.355-2.611H40.7a3.463,3.463,0,0,1-6.713,0H32.561a3.467,3.467,0,0,1-4.48,2.424V31.016H48.8v1.81c0,1.341-1.535,2.631-3.307,2.631Z" transform="translate(0 0)"/>
      </g>
    </g>
  </g>
</svg>
