<svg xmlns="http://www.w3.org/2000/svg" xmlns:xlink="http://www.w3.org/1999/xlink" width="385.695" height="475.732" viewBox="0 0 385.695 475.732">
  <defs>
    <clipPath id="clip-path">
      <path id="Trazado_991842" data-name="Trazado 991842" d="M81.078,155.522c-5.827,8.58-11.328,18.239-10.729,28.594.827,14.3,13.123,25.444,26.13,31.453,3.507,1.62,7.358,3.184,9.411,6.457,2.947,4.7,1,10.846-1.355,15.869-9.1,19.423-23.257,36.279-31.185,56.212a100.941,100.941,0,0,0,7.764,88.845c1.761,2.854,3.763,5.71,6.654,7.41,2.709,1.592,5.938,2.011,9.075,2.194,38.164,2.229,72.773-25.152,111-25.781,3.09-.05,6.467.185,8.756,2.261,1.788,1.622,2.553,4.056,3.245,6.369q3.981,13.321,7.964,26.643c1.328,4.445,2.912,9.246,6.768,11.823,2.85,1.9,6.443,2.23,9.868,2.374,59.839,2.5,114.887-33.217,157.477-75.326C419.568,323.467,436.1,304.378,446.837,282c5.3-11.053,8.633-25.543.323-34.554-8.281-8.979-23.543-7.272-32.924-15.094-8.45-7.044-9.579-19.722-7.5-30.524,2.963-15.407,10.93-29.387,15.2-44.485s3.985-33.247-7.228-44.22c-7.074-6.921-17.088-9.651-26.207-13.5s-18.481-10.079-20.6-19.744c-1.3-5.894.372-12.011.2-18.043-1.364-47.292-76.639-42.106-107.316-32.325-44.991,14.344-88.5,36.893-125.063,66.857A281.133,281.133,0,0,0,81.078,155.522Z" transform="translate(-66.496 -22.966)"/>
    </clipPath>
  </defs>
  <g id="OBJECTS" transform="translate(-66.496 -22.966)">
    <g id="Grupo_1165632" data-name="Grupo 1165632" transform="translate(66.496 22.966)">
      <g id="Grupo_1165487" data-name="Grupo 1165487">
        <path id="Trazado_991833" data-name="Trazado 991833" d="M81.078,155.522c-5.827,8.58-11.328,18.239-10.729,28.594.827,14.3,13.123,25.444,26.13,31.453,3.507,1.62,7.358,3.184,9.411,6.457,2.947,4.7,1,10.846-1.355,15.869-9.1,19.423-23.257,36.279-31.185,56.212a100.941,100.941,0,0,0,7.764,88.845c1.761,2.854,3.763,5.71,6.654,7.41,2.709,1.592,5.938,2.011,9.075,2.194,38.164,2.229,72.773-25.152,111-25.781,3.09-.05,6.467.185,8.756,2.261,1.788,1.622,2.553,4.056,3.245,6.369q3.981,13.321,7.964,26.643c1.328,4.445,2.912,9.246,6.768,11.823,2.85,1.9,6.443,2.23,9.868,2.374,59.839,2.5,114.887-33.217,157.477-75.326C419.568,323.467,436.1,304.378,446.837,282c5.3-11.053,8.633-25.543.323-34.554-8.281-8.979-23.543-7.272-32.924-15.094-8.45-7.044-9.579-19.722-7.5-30.524,2.963-15.407,10.93-29.387,15.2-44.485s3.985-33.247-7.228-44.22c-7.074-6.921-17.088-9.651-26.207-13.5s-18.481-10.079-20.6-19.744c-1.3-5.894.372-12.011.2-18.043-1.364-47.292-76.639-42.106-107.316-32.325-44.991,14.344-88.5,36.893-125.063,66.857A281.133,281.133,0,0,0,81.078,155.522Z" transform="translate(-66.496 -22.966)" fill="#98e2ec"/>
        <g id="Grupo_1165486" data-name="Grupo 1165486">
          <g id="Grupo_1165485" data-name="Grupo 1165485" clip-path="url(#clip-path)">
            <g id="Grupo_1165483" data-name="Grupo 1165483" transform="translate(-42.559 79.556)">
              <path id="Trazado_991834" data-name="Trazado 991834" d="M125.9,375.616c-1.523-27.414-2.994-55.369,4.055-81.906,3.537-13.315,9.147-25.968,14.417-38.7C165.015,205.168,180.864,152.6,182.757,98.68c20.9,40.983,27.487,89.975,13.748,133.88-5.625,17.973-14.435,34.759-21.578,52.184-18.737,45.707-25.755,97.415-12.313,144.949a157.544,157.544,0,0,1-30.448-40.023" transform="translate(-20.987 -98.68)" fill="#7ea390"/>
              <path id="Trazado_991835" data-name="Trazado 991835" d="M139.754,401.566c-6.922-25.561-13.927-51.639-15-77.672-.539-13.063.434-25.817,1.166-38.59,2.869-50.02,1.985-101.881-8.4-152.893,22.645,35.391,37.566,80.485,37.972,123.873.166,17.762-2.028,34.888-2.983,52.364-2.5,45.839,4.022,95.549,23.156,138.234a158.814,158.814,0,0,1-28.74-33.042" transform="translate(-21.348 -96.968)" fill="#787c43"/>
              <path id="Trazado_991836" data-name="Trazado 991836" d="M114.033,424.2c7.56-25.38,15.321-51.242,28.1-73.948,6.414-11.392,13.95-21.727,21.292-32.206,28.754-41.031,55.284-85.6,73.286-134.447.64,42.011-10.392,88.21-32.872,125.324-9.2,15.193-20.078,28.6-30.083,42.963-26.245,37.666-46.843,83.376-53.026,129.742a158.795,158.795,0,0,1-7.06-43.219" transform="translate(-21.543 -94.37)" fill="#7ea390"/>
              <path id="Trazado_991837" data-name="Trazado 991837" d="M159.35,236.637c9.254-4.208,19.692-4.787,29.538-7.32,15.079-3.879,28.579-12.3,41.183-21.438-3.768,12.384-7.575,24.864-13.716,36.259S201.5,265.91,190.013,271.882c-19.193,9.979-43.591,6.614-61.94,18.072a11.964,11.964,0,0,0-4.388,4.1c-1.069,1.947-1.133,4.267-1.173,6.487q-.211,11.941-.423,23.88c1.842-8.295,9.318-14.323,17.289-17.264s16.6-3.438,24.984-4.786a122.724,122.724,0,0,0,41.31-14.576c-6.13,11.194-6.547,24.978-13.458,35.708-9.661,15-29.817,20.078-47.495,17.667-7.448-1.015-15.962-2.842-21.748,1.954-4.392,3.641-5.478,9.832-6.273,15.482q-4.123,29.289-8.247,58.578c-.281,1.994-.832,4.344-2.715,5.056-3.239,1.224-5.331-3.453-5.586-6.907a269.262,269.262,0,0,1,1.7-55.8c-15.757,2.579-32.629-7.642-37.64-22.8-1.576-4.768-2.079-9.842-3.7-14.6-5.183-15.225-20.423-24.277-34.521-32.016,17.9-5.862,38.307.343,52.466,12.759,3.842,3.369,7.369,7.262,9.387,11.955,2.274,5.289,2.48,11.2,3.678,16.833s3.84,11.515,9.033,14c4.392-9.734,5.692-20.533,6.939-31.139q1.942-16.507,3.883-33.014c.515-4.375,1.011-8.935-.469-13.084-2.507-7.037-9.934-10.985-17.034-13.308S79.1,251.288,73.365,246.5c-9.874-8.239-10.576-22.895-10.49-35.754l.23-34.372a42.456,42.456,0,0,0,27.144,20.308c6.032,1.386,12.545,1.5,17.87,4.653,8.636,5.115,11.236,16.374,11.545,26.406s-.731,20.6,3.693,29.613c-.9-37.243,16.859-74.474,46.366-97.214q-4.006,19.631-8.581,39.139c-2.1,8.959-4.386,18.114-9.559,25.724-4.189,6.165-10.078,11.011-14.378,17.1-6.322,8.947-10.05,21.458-10.574,32.336C137.661,260.834,141.895,244.575,159.35,236.637Z" transform="translate(-25.993 -95.561)" fill="#f0c630"/>
            </g>
            <g id="Grupo_1165484" data-name="Grupo 1165484" transform="translate(114.385 49.657)">
              <path id="Trazado_991838" data-name="Trazado 991838" d="M267.514,404.492c-.634-2.392-1.31-4.867-2.895-6.768-3.262-3.913-9.059-4.115-14.136-4.52-22.985-1.836-44.459-14.506-58.961-32.432a98.259,98.259,0,0,1-16.166-28.859c9.156,9.93,18.846,20.219,31.6,24.676,6.017,2.1,12.481,2.806,18.373,5.234,12.485,5.146,20.75,17.249,32.47,23.956-2.031-20.918-4.993-43.8-20.374-58.126-9.84-9.163-23.328-13.294-34.194-21.213a59.306,59.306,0,0,1-22.306-32.878c18.888,3.969,39.615,9.11,50.615,24.969,5.527,7.968,8.431,18.442,16.817,23.311q-5.271-14.436-9.326-29.276c-1.873-6.856-3.563-13.955-2.7-21.01.838-6.836,4.012-13.128,6.952-19.357A343.492,343.492,0,0,0,262.9,200.008c6,11.463,12.173,24.331,8.8,36.821-1.786,6.623-6.079,12.233-9.268,18.306-6.594,12.56-8.43,27.183-7.575,41.343s4.263,28.027,7.657,41.8a25.519,25.519,0,0,1,8.5-17.734c3.926-3.463,8.817-5.614,13.113-8.6,15.4-10.71,21.223-30.362,26.022-48.493,3.056,9.919,6.14,20.009,6.232,30.388s-3.23,21.275-11.1,28.041c-7.335,6.308-17.572,8.281-25.171,14.267a29.5,29.5,0,0,0-10.755,18.307c-1.566,9.784,1.9,19.606,5.465,28.848,4.741-12.759,20.087-17.173,31.2-25.031a49.993,49.993,0,0,0,19.785-29.918c-2.406,13.48,2.78,28.043-2.363,40.734-2.457,6.064-7.053,11-11.918,15.378-7.528,6.766-16.787,12.8-26.9,12.3-1.351-.066-2.83-.219-3.941.554a5.159,5.159,0,0,0-1.718,3.394c-2.866,14.468,3.183,29.009,5.634,43.553.552,3.275.16,7.739-3.09,8.423-3.006.634-5.214-2.735-6.251-5.628-2.57-7.161-3.213-13.829-3.329-21.261C271.832,418.541,269.389,411.566,267.514,404.492Z" transform="translate(-175.357 -63.639)" fill="#c1961e"/>
              <path id="Trazado_991839" data-name="Trazado 991839" d="M345.728,203.01c4.82-31.265-4.339-63.067-2.725-94.661.656-12.834,3.084-25.5,5.506-38.124-10.15,18.067-21.717,35.326-31.409,53.643s-17.555,37.968-19.547,58.6c-1.272,13.173-.128,26.442.235,39.672.252,9.168.13,18.383,1.5,27.451,2.094,13.854,7.646,27.194,7.93,41.2C317.152,278,322.929,263.6,329.928,249.2,337.053,234.534,343.23,219.207,345.728,203.01Z" transform="translate(-169.185 -70.225)" fill="#7ea390"/>
              <path id="Trazado_991840" data-name="Trazado 991840" d="M335.839,296c-11.985-34.615-38.569-62.217-54.014-95.432-6.274-13.494-10.644-27.778-14.993-42.008-.615,23.989-3.117,47.916-3.126,71.912s2.575,48.369,11.7,70.563c5.825,14.175,14.178,27.139,21.71,40.485,5.218,9.249,10.082,18.749,16.392,27.289,9.642,13.049,22.544,23.7,30.414,37.89,3.246-18.467,1.368-36.334.739-54.867C344.016,332.965,342.046,313.93,335.839,296Z" transform="translate(-170.873 -65.742)" fill="#f0c630"/>
              <path id="Trazado_991841" data-name="Trazado 991841" d="M358.739,327.016c-.634-2.392-1.31-4.867-2.895-6.768-3.262-3.913-9.059-4.115-14.136-4.52-22.985-1.836-44.459-14.506-58.961-32.432a98.26,98.26,0,0,1-16.166-28.859c9.156,9.93,18.846,20.218,31.6,24.676,6.017,2.1,12.481,2.806,18.373,5.234,12.485,5.145,20.75,17.249,32.47,23.956-2.031-20.918-4.993-43.8-20.374-58.126-9.84-9.163-23.328-13.294-34.195-21.213a59.306,59.306,0,0,1-22.306-32.878c18.888,3.969,39.615,9.11,50.615,24.969,5.527,7.968,8.431,18.442,16.817,23.311q-5.271-14.436-9.326-29.276c-1.873-6.856-3.563-13.955-2.7-21.01.838-6.836,4.012-13.128,6.952-19.357a343.5,343.5,0,0,0,19.622-52.191c6,11.463,12.173,24.331,8.8,36.821-1.786,6.623-6.079,12.233-9.268,18.306-6.594,12.561-8.43,27.183-7.575,41.343s4.263,28.026,7.657,41.8a25.519,25.519,0,0,1,8.5-17.735c3.926-3.463,8.817-5.614,13.113-8.6,15.4-10.71,21.223-30.362,26.022-48.493,3.056,9.919,6.139,20.009,6.232,30.388s-3.229,21.275-11.1,28.041c-7.335,6.308-17.572,8.281-25.171,14.267a29.5,29.5,0,0,0-10.755,18.307c-1.566,9.784,1.9,19.606,5.465,28.848,4.741-12.759,20.087-17.173,31.2-25.031a49.993,49.993,0,0,0,19.785-29.918c-2.406,13.48,2.78,28.043-2.363,40.734-2.457,6.064-7.053,11-11.918,15.378-7.528,6.766-16.787,12.8-26.9,12.3-1.351-.066-2.83-.219-3.941.554a5.16,5.16,0,0,0-1.718,3.394c-2.866,14.468,3.183,29.008,5.634,43.553.552,3.275.16,7.739-3.09,8.423-3.006.634-5.214-2.736-6.251-5.628-2.57-7.161-3.213-13.829-3.329-21.261C363.057,341.064,360.614,334.09,358.739,327.016Z" transform="translate(-170.727 -67.57)" fill="#787c43"/>
            </g>
          </g>
        </g>
      </g>
      <g id="Grupo_1165567" data-name="Grupo 1165567" transform="translate(112.882 44.997)">
        <ellipse id="Elipse_11805" data-name="Elipse 11805" cx="86.753" cy="28.069" rx="86.753" ry="28.069" transform="translate(8.516 374.598)" fill="#f4d38c"/>
        <g id="Grupo_1165566" data-name="Grupo 1165566">
          <g id="Grupo_1165501" data-name="Grupo 1165501" transform="translate(46.306 232.705)">
            <path id="Trazado_991843" data-name="Trazado 991843" d="M277.19,412.617c4.211-.03,11.188,2.448,15.4,2.418,5.017-6.017.692-18.747,1.8-26.5a435.27,435.27,0,0,0,3.827-82.134,76.5,76.5,0,0,0-14.541-1.012c-21.161.552-15.6,18.3-15.231,31.888C269.057,359.914,272.109,382.768,277.19,412.617Z" transform="translate(-215.483 -286.336)" fill="#2d2a47"/>
            <path id="Trazado_991844" data-name="Trazado 991844" d="M234.968,422.82c3.078.021,9.322,1.126,12.4,1.147,12.752-38.561,14.056-81.969,13.12-123.435-.1-4.349-.556-9.37-4.136-11.841-2.906-2.007-6.8-1.53-10.268-.841-4.109.816-8.441,1.962-11.272,5.05-3.643,3.973-3.77,9.936-3.69,15.325C231.226,315.385,235.673,422.82,234.968,422.82Z" transform="translate(-217.33 -287.255)" fill="#2d2a47"/>
            <g id="Grupo_1165500" data-name="Grupo 1165500" transform="translate(0 102.605)">
              <path id="Trazado_991845" data-name="Trazado 991845" d="M257.444,386.671c.65,5.275-3.76,32.007-5.1,40.085-.784,4.738,1.178,6.966-.606,11.426-1.412,3.529-6.173,9.337-8.067,12.634-2.325,4.051-4.6,8.315-8.3,11.163s-11.379,3.244-15.015.313c-4.556-3.671-1.525-10.3.832-15.656,2.092-4.754,11.7-13.018,12.293-15.016.357-1.2-2.008-34.883-1.711-44.976C242.612,383.116,257.522,387.309,257.444,386.671Z" transform="translate(-217.996 -384.889)" fill="#f5a607"/>
              <path id="Trazado_991846" data-name="Trazado 991846" d="M298.123,385.28c-1.44,13.533-1.738,27.066-3.179,40.6a8.484,8.484,0,0,0,.3,4.353,8.757,8.757,0,0,0,3.124,3.2,131.913,131.913,0,0,1,11.29,9.243c3.771,3.453,7.946,6.1,7.947,11.209,0,3.709-3.641,4.735-5.462,4.757-5.146.063-12.885-2.856-18.762-5.772s-13.046-7.447-15.486-13.537c-.953-2.378-.186-8.078-.673-10.593L273.3,408.528c-.742-3.828-2.771-21.533-2.771-21.533C274.488,384.883,294.233,384.5,298.123,385.28Z" transform="translate(-215.329 -384.905)" fill="#f5a607"/>
              <g id="Grupo_1165488" data-name="Grupo 1165488" transform="translate(18.69 46.425)">
                <path id="Trazado_991847" data-name="Trazado 991847" d="M236.288,430.209a19.9,19.9,0,0,1,9.5,2.093.437.437,0,0,0,.441-.754,15.169,15.169,0,0,0-9.943-2.39c-.664.059-.685,1.079,0,1.052Z" transform="translate(-235.782 -429.087)" fill="#ce8606"/>
              </g>
              <g id="Grupo_1165489" data-name="Grupo 1165489" transform="translate(18.875 41.978)">
                <path id="Trazado_991848" data-name="Trazado 991848" d="M236.73,426.5a15.374,15.374,0,0,1,5.765-.014c1.547.3,2.954,1.06,4.492,1.323.456.079.879-.463.485-.834-2.689-2.539-7.71-2.378-11.071-1.661-.78.165-.443,1.326.328,1.186Z" transform="translate(-235.959 -424.856)" fill="#ce8606"/>
              </g>
              <g id="Grupo_1165490" data-name="Grupo 1165490" transform="translate(69.145 46.55)">
                <path id="Trazado_991849" data-name="Trazado 991849" d="M284.623,435.56c1.389-3.1,4.043-4.771,7.24-5.615a.376.376,0,0,0-.1-.736c-3.652-.106-6.78,2.7-7.939,6.014-.16.461.6.79.8.336Z" transform="translate(-283.801 -429.206)" fill="#ce8606"/>
              </g>
              <g id="Grupo_1165491" data-name="Grupo 1165491" transform="translate(68.197 43.853)">
                <path id="Trazado_991850" data-name="Trazado 991850" d="M283.706,429.26c.979-.316,1.968-.6,2.973-.823a20.332,20.332,0,0,0,3.012-.628.582.582,0,0,0-.154-1.138c-1.938-.213-4.366.711-6.182,1.318-.8.266-.462,1.534.351,1.271Z" transform="translate(-282.898 -426.639)" fill="#ce8606"/>
              </g>
              <g id="Grupo_1165492" data-name="Grupo 1165492" transform="translate(67.423 55.963)">
                <path id="Trazado_991851" data-name="Trazado 991851" d="M282.321,439.049c6.736,5.366,15.492,11.39,24.221,12.669.4.059.735-.5.3-.717-4.026-2.058-8.415-3.3-12.453-5.411a78.88,78.88,0,0,1-11.454-7.338c-.454-.348-1.068.438-.616.8Z" transform="translate(-282.162 -438.164)" fill="#ce8606"/>
              </g>
              <g id="Grupo_1165493" data-name="Grupo 1165493" transform="translate(94.712 68.861)">
                <path id="Trazado_991852" data-name="Trazado 991852" d="M308.8,451.835a5.838,5.838,0,0,0,2.693.046.48.48,0,0,0,.112-.864,6.237,6.237,0,0,0-2.807-.574c-.892-.095-.876,1.288,0,1.391Z" transform="translate(-308.133 -450.44)" fill="#ce8606"/>
              </g>
              <g id="Grupo_1165494" data-name="Grupo 1165494" transform="translate(3.306 70.413)">
                <path id="Trazado_991853" data-name="Trazado 991853" d="M221.3,455.088c3.93,3.74,11.283,2.983,13.2-2.545.157-.45-.509-.854-.82-.477-3.162,3.843-7.37,5.293-11.716,2.153-.512-.369-1.117.442-.669.869Z" transform="translate(-221.142 -451.917)" fill="#ce8606"/>
              </g>
              <g id="Grupo_1165495" data-name="Grupo 1165495" transform="translate(18.957 58.321)">
                <path id="Trazado_991854" data-name="Trazado 991854" d="M236.943,450.723a66.716,66.716,0,0,0,6.447-9.766.375.375,0,0,0-.647-.378c-2.321,3.135-4.329,6.5-6.617,9.667-.358.5.458.957.816.477Z" transform="translate(-236.037 -440.409)" fill="#ce8606"/>
              </g>
              <g id="Grupo_1165496" data-name="Grupo 1165496" transform="translate(28.391 54.311)">
                <path id="Trazado_991855" data-name="Trazado 991855" d="M245.784,439.166a2.053,2.053,0,0,0,1.008-2.276.423.423,0,0,0-.808,0,2.632,2.632,0,0,1-.74,1.352c-.537.4-.035,1.322.54.924Z" transform="translate(-245.015 -436.593)" fill="#ce8606"/>
              </g>
              <g id="Grupo_1165497" data-name="Grupo 1165497" transform="translate(16.448 4.91)">
                <path id="Trazado_991856" data-name="Trazado 991856" d="M234.231,391.587a61.707,61.707,0,0,1,17.3.129c.711.089.853-1.081.168-1.244a39.917,39.917,0,0,0-17.719.221c-.593.133-.328.981.247.894Z" transform="translate(-233.65 -389.577)" fill="#ce8606"/>
              </g>
              <g id="Grupo_1165498" data-name="Grupo 1165498" transform="translate(59.835 4.465)">
                <path id="Trazado_991857" data-name="Trazado 991857" d="M275.273,391c5.245.819,11.375.026,16.658-.361a.732.732,0,0,0,0-1.463c-5.3.025-11.5-.3-16.658.929-.422.1-.462.824,0,.9Z" transform="translate(-274.941 -389.154)" fill="#ce8606"/>
              </g>
              <g id="Grupo_1165499" data-name="Grupo 1165499" transform="translate(98.83 66.095)">
                <path id="Trazado_991858" data-name="Trazado 991858" d="M313.053,450.544a21.527,21.527,0,0,0,.344-2.206.546.546,0,0,0-1.069-.145,21.387,21.387,0,0,0-.273,2.215c-.063.564.9.7,1,.136Z" transform="translate(-312.052 -447.807)" fill="#ce8606"/>
              </g>
            </g>
          </g>
          <g id="Grupo_1165531" data-name="Grupo 1165531" transform="translate(21.571)">
            <path id="Trazado_991859" data-name="Trazado 991859" d="M240.711,70.314c4.224-3.341,11.169-4.475,16.556-4.475,5.735,0,9.777-.65,14.359,2.8,5.727,4.312,7.993,13.816,10.442,20.553.291.8-13.823,1.161-21.359.069a107.528,107.528,0,0,0-15.7-1.111c-4.406.012-10.79,1.053-14.4,3.423C231.419,84.149,235.588,74.367,240.711,70.314Z" transform="translate(-192.62 -65.79)" fill="#ea9f32"/>
            <path id="Trazado_991860" data-name="Trazado 991860" d="M195.017,87.2c.93-2.922,6.149-6.9,9.13-7.622,25.156-6.086,53.044,9.393,77.161,0,9.414-3.666,17.9-9.875,27.838-8.071,13.071,2.373,9.9,15.7,2.892,21.879-9.2,8.118-17.1,8.569-30.729,9.507,0,0-29.8,2.884-48.617,2.853C221.331,105.723,189.881,103.333,195.017,87.2Z" transform="translate(-194.455 -65.516)" fill="#fbb442"/>
            <path id="Trazado_991861" data-name="Trazado 991861" d="M288.783,144.695c1.427,3.012,2.294,6.871.228,9.484-1.278,1.609-3.343,2.317-5.3,2.956-10.671,3.458-21.684,6.974-32.88,6.106-10.169-.787-20.1-5.17-30.244-3.972-.2-6.254,3.871-13.838,7.351-19.043,4.451-6.676-8.583-15.751-1.012-24.088,5.693-6.269,2.425-12.21,4.183-19.731v-.012c.446-1.883.97-.171,1.575-1.7,1.267-.434,2.465-.878,3.481-1.209a19.12,19.12,0,0,1,1.906-.547c2.009-.4,4.017-.742,6.049-1a114.386,114.386,0,0,1,13.41-.981c1.655-.035,11.482.594,20.84,1.278,1.369.1,2.728.206,4.052.3,1.45,3.8,2.077,5.387,1.861,9.062-.194,3.2-2.111,6.425-1,9.427,1.164,3.184,5.318,4.3,6.893,7.3,2.831,5.387-4.348,10.945-4.622,17.028C285.393,138.68,287.356,141.682,288.783,144.695Z" transform="translate(-193.129 -64.513)" fill="#765120"/>
            <path id="Trazado_991862" data-name="Trazado 991862" d="M243.76,137.076c-4.613.873-11.143,2.53-16.172,3.181-.522,8.036,8.506,23.221,9.573,24.46,11.193,13,26.427,9.287,37.811,7.095,2.627-.505,9.081-9.933,10.807-32.311.05-.649-15.081-2.889-15.978-3.335-3.663-1.828-1.1-10.112-2-13.375a76.174,76.174,0,0,1-21.9.689C246.692,130.656,248.688,136.144,243.76,137.076Z" transform="translate(-192.775 -62.897)" fill="#ef6a30"/>
            <path id="Trazado_991863" data-name="Trazado 991863" d="M276.973,113.441a54.532,54.532,0,0,1-4.595,13.722,19.228,19.228,0,0,1-10.122,8.95c-4.679,1.6-10.032.1-13.935-2.934s-6.54-7.441-8.491-11.984a58.226,58.226,0,0,1-2.362-6.608c-2.191-7.5-2.45-11.375-2.043-21.1a19.122,19.122,0,0,1,1.906-.547c2.009-.4,4.017-.742,6.049-1a114.387,114.387,0,0,1,13.41-.981c1.655-.035,11.482.594,20.84,1.278C277.96,93.645,278.468,106.878,276.973,113.441Z" transform="translate(-192.384 -64.513)" fill="#fe7b36"/>
            <path id="Trazado_991864" data-name="Trazado 991864" d="M243.529,95.778c.525,2.944,1.649,5.542,1.651,8.537.007,9.494-5.473,5.877-7.482,10.226-.742,1.632-1.141,3.012-.868,3.892-5-4.588-5.125-10.431-5.98-17.165a36.205,36.205,0,0,1,0-5.991,1.588,1.588,0,0,1,.045-.216c.434-.137.856-.274,1.278-.411,1.267-.434,2.465-.878,3.481-1.209a19.119,19.119,0,0,1,1.906-.547c2.009-.4,4.017-.742,6.049-1A8.741,8.741,0,0,0,243.529,95.778Z" transform="translate(-192.614 -64.465)" fill="#765120"/>
            <path id="Trazado_991865" data-name="Trazado 991865" d="M280.46,101.277a2.654,2.654,0,0,0-3.648-.7c-1.471,1.609-2.986,4.614-2.929,6.793,0,0-1.684,5.6.044,7.056,1.243,1.042,3.911.047,5.119-1.035s1.775-3.405,2.13-4.988C281.707,106.024,282.277,104.273,280.46,101.277Z" transform="translate(-190.461 -64.047)" fill="#fe7b36"/>
            <g id="Grupo_1165502" data-name="Grupo 1165502" transform="translate(69.128 31.59)">
              <path id="Trazado_991866" data-name="Trazado 991866" d="M261.567,98.955c3.06-2.629,6.214-.64,9.193.807a.7.7,0,0,0,.951-.952c-2.122-3.644-8.528-3.869-11.242-.952a.777.777,0,0,0,1.1,1.1Z" transform="translate(-260.244 -95.854)" fill="#765220"/>
            </g>
            <g id="Grupo_1165503" data-name="Grupo 1165503" transform="translate(50.279 31.584)">
              <path id="Trazado_991867" data-name="Trazado 991867" d="M253.74,97.858c-2.559-2.744-9.86-2.959-11.4,1.118a.7.7,0,0,0,1.021.785c2.662-1.861,6.453-3.235,9.279-.807a.776.776,0,0,0,1.1-1.1Z" transform="translate(-242.306 -95.848)" fill="#765220"/>
            </g>
            <g id="Grupo_1165504" data-name="Grupo 1165504" transform="translate(56.048 41.152)">
              <path id="Trazado_991868" data-name="Trazado 991868" d="M252.119,107.457a2.829,2.829,0,0,0-.3-1.6,1.927,1.927,0,0,0-2.59-.679,2.944,2.944,0,0,0-1.126,1.186,2.178,2.178,0,0,0,1.289,3.17,2.2,2.2,0,0,0,2.732-2.082Z" transform="translate(-247.796 -104.954)" fill="#765220"/>
            </g>
            <g id="Grupo_1165505" data-name="Grupo 1165505" transform="translate(70.361 40.904)">
              <path id="Trazado_991869" data-name="Trazado 991869" d="M263.52,109.069c2.8,0,2.8-4.351,0-4.351s-2.8,4.351,0,4.351Z" transform="translate(-261.418 -104.718)" fill="#765220"/>
            </g>
            <g id="Grupo_1165506" data-name="Grupo 1165506" transform="translate(61.433 56.119)">
              <path id="Trazado_991870" data-name="Trazado 991870" d="M253.233,122.354c3.368,1.959,10.442,1.984,11.692-2.625a.422.422,0,0,0-.7-.408,8.454,8.454,0,0,1-10.344,1.924.642.642,0,0,0-.647,1.109Z" transform="translate(-252.921 -119.198)" fill="#d15226"/>
            </g>
            <g id="Grupo_1165507" data-name="Grupo 1165507" transform="translate(63.791 39.673)">
              <path id="Trazado_991871" data-name="Trazado 991871" d="M256.827,103.972c-.579,2.869,1.476,5.888,2.647,8.369.771,1.636,1.812,2.993-.481,3.483-1.081.231-2.6-.092-3.582.4a.514.514,0,0,0-.1.8c1.2,1.329,6.353.271,6.681-1.653.243-1.427-1.065-3.347-1.659-4.535-1-2.008-2.5-4.374-2.328-6.7a.6.6,0,0,0-1.174-.16Z" transform="translate(-255.165 -103.546)" fill="#d15226"/>
            </g>
            <g id="Grupo_1165508" data-name="Grupo 1165508" transform="translate(51.512 48.041)">
              <path id="Trazado_991872" data-name="Trazado 991872" d="M245.883,115.626c-.246.034.143-.007.221-.014.173-.015.347-.026.52-.037.349-.021.7-.026,1.047-.026a2.017,2.017,0,0,0,0-4.035,13.959,13.959,0,0,0-2.793.464,1.915,1.915,0,0,0-1.321,2.326,1.955,1.955,0,0,0,2.326,1.321Z" transform="translate(-243.479 -111.51)" fill="#f24a2f"/>
            </g>
            <g id="Grupo_1165509" data-name="Grupo 1165509" transform="translate(73.434 46.969)">
              <path id="Trazado_991873" data-name="Trazado 991873" d="M264.795,113.594a3.09,3.09,0,0,0,2.321.764,3.688,3.688,0,0,0,2.336-.291,1.892,1.892,0,0,0,0-3.233,3.688,3.688,0,0,0-2.336-.292,3.086,3.086,0,0,0-2.321.764,1.673,1.673,0,0,0,0,2.289Z" transform="translate(-264.342 -110.49)" fill="#f24a2f"/>
            </g>
            <g id="Grupo_1165510" data-name="Grupo 1165510" transform="translate(59.345 55.176)">
              <path id="Trazado_991874" data-name="Trazado 991874" d="M251.737,118.933c.822,1.227,1.823,2.647,1.112,4.125a19.168,19.168,0,0,1-1.856,2.5c-.2.283.138.755.473.616a5.224,5.224,0,0,0,2.561-3.188c.515-1.642-.611-3.231-1.535-4.5-.325-.444-1.072-.033-.754.441Z" transform="translate(-250.934 -118.301)" fill="#d15226"/>
            </g>
            <g id="Grupo_1165511" data-name="Grupo 1165511" transform="translate(84.971 39.021)">
              <path id="Trazado_991875" data-name="Trazado 991875" d="M276.136,105.527c.095-.448.927-1.051,1.3-1.252,1.014-.553,1.553.264,1.829,1.267.4,1.468-.085,6.294-2.516,5.6a.36.36,0,0,0-.347.6c.957,1.2,2.41.051,2.875-1a10.645,10.645,0,0,0,.819-5.608c-.2-1.031-1.138-2.429-2.322-2.168a4.243,4.243,0,0,0-2.444,2.346c-.08.52.695.76.808.223Z" transform="translate(-275.323 -102.926)" fill="#d15226"/>
            </g>
            <g id="Grupo_1165512" data-name="Grupo 1165512" transform="translate(52.672 81.958)">
              <path id="Trazado_991876" data-name="Trazado 991876" d="M245.252,145.325a22.6,22.6,0,0,1,6.594.388c1.808.5,2.935,1.652,4.53,2.5.383.2,1-.145.812-.624-1.649-4.148-8.388-3.972-11.937-3.655-.876.077-.909,1.413,0,1.39Z" transform="translate(-244.583 -143.789)" fill="#d15226"/>
            </g>
            <g id="Grupo_1165513" data-name="Grupo 1165513" transform="translate(67.828 80.929)">
              <path id="Trazado_991877" data-name="Trazado 991877" d="M259.763,147.909a11.472,11.472,0,0,1,4.084-2.9,35.659,35.659,0,0,1,4.5-1.081.521.521,0,0,0,0-1c-3.407-.7-7.173,1.835-9.227,4.34-.365.443.24,1.08.643.643Z" transform="translate(-259.007 -142.81)" fill="#d15226"/>
            </g>
            <g id="Grupo_1165514" data-name="Grupo 1165514" transform="translate(66.365 93.22)">
              <path id="Trazado_991878" data-name="Trazado 991878" d="M257.628,155.334a13.4,13.4,0,0,0,.69,2.819.529.529,0,0,0,1.033-.14,14.132,14.132,0,0,0-.451-3.03c-.174-.835-1.425-.476-1.273.351Z" transform="translate(-257.615 -154.507)" fill="#d15226"/>
            </g>
            <g id="Grupo_1165515" data-name="Grupo 1165515" transform="translate(65.752 2.895)">
              <path id="Trazado_991879" data-name="Trazado 991879" d="M257.714,69.737a7.762,7.762,0,0,1,4.065.4,27.837,27.837,0,0,1,3.226,1.993.387.387,0,0,0,.524-.524c-1.254-2.762-5.474-3.392-8.1-2.919-.691.124-.393,1.16.289,1.049Z" transform="translate(-257.032 -68.545)" fill="#fbb442"/>
            </g>
            <g id="Grupo_1165516" data-name="Grupo 1165516" transform="translate(76.209 8.53)">
              <path id="Trazado_991880" data-name="Trazado 991880" d="M267.094,74.957q.561.919,1.121,1.837a2.675,2.675,0,0,0,1.285,1.336.532.532,0,0,0,.666-.508,2.745,2.745,0,0,0-.711-1.692q-.564-.846-1.13-1.694c-.5-.758-1.714-.071-1.231.721Z" transform="translate(-266.983 -73.908)" fill="#fbb442"/>
            </g>
            <g id="Grupo_1165517" data-name="Grupo 1165517" transform="translate(6.382 21.006)">
              <path id="Trazado_991881" data-name="Trazado 991881" d="M202.988,85.887c-7.433,5.249,3.772,14.922,9.985,13.325a.4.4,0,0,0,0-.773c-2.82-1.151-5.614-1.391-8.086-3.444-2.419-2.01-3.993-5.681-1.1-8.07.573-.473-.187-1.47-.8-1.037Z" transform="translate(-200.529 -85.781)" fill="#ea9f32"/>
            </g>
            <g id="Grupo_1165518" data-name="Grupo 1165518" transform="translate(11.706 22.92)">
              <path id="Trazado_991882" data-name="Trazado 991882" d="M206.183,87.955a5.1,5.1,0,0,0,.624,5.65c1.072,1.31,3.278,2.552,4.9,1.526a.486.486,0,0,0,0-.831c-1.09-.57-2.349-.653-3.265-1.559a4.525,4.525,0,0,1-.974-4.242c.138-.748-.873-1.28-1.287-.543Z" transform="translate(-205.596 -87.602)" fill="#ea9f32"/>
            </g>
            <g id="Grupo_1165519" data-name="Grupo 1165519" transform="translate(15.998 23.309)">
              <path id="Trazado_991883" data-name="Trazado 991883" d="M209.7,88.72a3.268,3.268,0,0,0,.558,2.185c.415.6,1.172,1.286,1.964,1.022a.626.626,0,0,0,.43-.757,3.97,3.97,0,0,0-.882-1.187,2.484,2.484,0,0,1-.518-1.262.776.776,0,0,0-1.552,0Z" transform="translate(-209.68 -87.972)" fill="#ea9f32"/>
            </g>
            <g id="Grupo_1165520" data-name="Grupo 1165520" transform="translate(107.303 9.063)">
              <path id="Trazado_991884" data-name="Trazado 991884" d="M297.08,76.623a7.326,7.326,0,0,1,8.456.152c2.262,1.773,2.67,4.275,2.685,6.975a.439.439,0,0,0,.858.117c.936-2.862-.594-6.238-2.941-7.978a7.97,7.97,0,0,0-9.409.134c-.356.256-.033.845.351.6Z" transform="translate(-296.576 -74.415)" fill="#ea9f32"/>
            </g>
            <g id="Grupo_1165521" data-name="Grupo 1165521" transform="translate(109.194 12.498)">
              <path id="Trazado_991885" data-name="Trazado 991885" d="M298.83,78.635c2.532.231,4.18,1.857,5.34,3.989.278.512.964.137.881-.371-.467-2.833-3.5-4.678-6.22-4.563a.473.473,0,0,0,0,.946Z" transform="translate(-298.375 -77.684)" fill="#ea9f32"/>
            </g>
            <g id="Grupo_1165522" data-name="Grupo 1165522" transform="translate(108.68 15.768)">
              <path id="Trazado_991886" data-name="Trazado 991886" d="M298.478,82.027c1.349.108,1.869,1.16,2.7,2.043a.422.422,0,0,0,.7-.185c.279-1.816-1.825-3.012-3.4-3.088-.8-.038-.781,1.167,0,1.23Z" transform="translate(-297.886 -80.796)" fill="#ea9f32"/>
            </g>
            <g id="Grupo_1165523" data-name="Grupo 1165523" transform="translate(43.573 31.248)">
              <path id="Trazado_991887" data-name="Trazado 991887" d="M239.261,96.1c-.635,3.9,3.022,10.892-2.881,11.807-.7.109-.51,1.034,0,1.238,2.127.85,4.178-.785,4.933-2.758,1.224-3.2-.517-6.829-.494-10.077.007-.866-1.411-1.115-1.558-.21Z" transform="translate(-235.923 -95.529)" fill="#915b20"/>
            </g>
            <g id="Grupo_1165524" data-name="Grupo 1165524" transform="translate(39.227 31.966)">
              <path id="Trazado_991888" data-name="Trazado 991888" d="M234.573,96.869a15.273,15.273,0,0,1-.012,6.87c-.546,2.156-1.869,3.7-2.728,5.669-.186.427.221.993.7.7,4.05-2.546,4.61-9.466,3.076-13.518a.535.535,0,0,0-1.032.284Z" transform="translate(-231.787 -96.211)" fill="#915b20"/>
            </g>
            <g id="Grupo_1165525" data-name="Grupo 1165525" transform="translate(34.335 52.112)">
              <path id="Trazado_991889" data-name="Trazado 991889" d="M230.953,115.512c-2.3,1.824-4.3,4.705-3.72,7.8.316,1.689,1.448,3.118,1.951,4.75.711,2.307.435,4.595.774,6.927a.5.5,0,0,0,.9.117,10.236,10.236,0,0,0,.046-6.9c-.4-1.436-1.139-2.633-1.645-4.02-1.122-3.077.067-5.772,2.455-7.912.521-.471-.231-1.176-.758-.758Z" transform="translate(-227.132 -115.385)" fill="#915b20"/>
            </g>
            <g id="Grupo_1165526" data-name="Grupo 1165526" transform="translate(38.279 53.654)">
              <path id="Trazado_991890" data-name="Trazado 991890" d="M233.21,116.936c-2.079,1.456-2.6,3.648-2.2,6.117a12.9,12.9,0,0,0,1.461,3.928c1.1,2.127,1.918,4.235,2.829,6.437.13.315.647.41.74,0,1.153-5.151-7.47-11.048-2.2-15.67.436-.382-.143-1.151-.627-.812Z" transform="translate(-230.885 -116.852)" fill="#915b20"/>
            </g>
            <g id="Grupo_1165527" data-name="Grupo 1165527" transform="translate(42.446 56.307)">
              <path id="Trazado_991891" data-name="Trazado 991891" d="M235.107,119.743a10.018,10.018,0,0,0,.614,6.39c1.531,3.357,5.123,5.3,5.087,9.358a.421.421,0,0,0,.823.111c.675-2.1-.095-3.892-1.4-5.6-2.574-3.355-4.664-5.585-4.1-10.125.07-.576-.9-.7-1.016-.137Z" transform="translate(-234.851 -119.377)" fill="#915b20"/>
            </g>
            <g id="Grupo_1165528" data-name="Grupo 1165528" transform="translate(89.23 52.515)">
              <path id="Trazado_991892" data-name="Trazado 991892" d="M281.155,132.245c-1.967-5.1,4.923-11.953.647-16.354a.44.44,0,0,0-.73.424c1.209,3.732-.078,6.318-1.13,9.816a8.433,8.433,0,0,0,.187,6.546c.277.562,1.256.165,1.026-.433Z" transform="translate(-279.375 -115.768)" fill="#915b20"/>
            </g>
            <g id="Grupo_1165529" data-name="Grupo 1165529" transform="translate(84.946 54.538)">
              <path id="Trazado_991893" data-name="Trazado 991893" d="M276.86,131.2a11.349,11.349,0,0,1-.136-5.482,25.564,25.564,0,0,1,1.988-4.146c.632-1.366.878-2.6-.193-3.77a.4.4,0,0,0-.656.381c.883,2.522-1.829,5.159-2.352,7.633a9.4,9.4,0,0,0,.551,5.72c.2.474.9.122.8-.336Z" transform="translate(-275.298 -117.693)" fill="#915b20"/>
            </g>
            <g id="Grupo_1165530" data-name="Grupo 1165530" transform="translate(80.728 65.495)">
              <path id="Trazado_991894" data-name="Trazado 991894" d="M273.325,132.577a12.968,12.968,0,0,1-.554-2.127,12.692,12.692,0,0,0-.3-2.029.424.424,0,0,0-.766-.1c-.857,1.392-.277,3.444.643,4.667.336.446,1.179.215.978-.412Z" transform="translate(-271.284 -128.121)" fill="#915b20"/>
            </g>
          </g>
          <g id="Grupo_1165535" data-name="Grupo 1165535" transform="translate(117.545 44.558)">
            <path id="Trazado_991895" data-name="Trazado 991895" d="M313.614,160.651q9.356,14.392,17.706,29.4c2.03,3.65,3.609,7.715.506,10.513-1.4,1.263-3.239,2.594-5.109,2.342-4.383-.592-7.9-3.787-11.054-6.89q-6.128-6.035-11.945-12.374c-5.189-5.654-10.24-11.566-13.649-18.441-2.894-5.837-8.712-22.986,1.571-24.4C300.983,139.513,309.629,154.521,313.614,160.651Z" transform="translate(-285.794 -106.544)" fill="#fe7b36"/>
            <path id="Trazado_991896" data-name="Trazado 991896" d="M314.478,185.572c-.043,4.168.021,8.5,1.835,12.253s5.893,6.745,9.983,5.945c5.708-1.115,7.8-8.183,7.949-14,.408-16.373-5.582-32.34-5.755-48.717,3.727.434,8.677-3.838,9.856-7.292.866-5.5,1.044-5.976-1.414-10.973-5.066.857.608,12.577-10.6,9.807-5.77-1.427-7.181-4.642-9.331,2.9-1.695,5.943-.521,13.453-.954,19.609C315.331,165.265,314.582,175.377,314.478,185.572Z" transform="translate(-284.339 -107.454)" fill="#fe7b36"/>
            <g id="Grupo_1165533" data-name="Grupo 1165533" transform="translate(32.465)">
              <path id="Trazado_991897" data-name="Trazado 991897" d="M319.75,121.647a5.43,5.43,0,0,0,.968-1.892c.282-.657.815-1.325,1.53-1.316-.165-.891-.16-2.093.7-2.375a2.579,2.579,0,0,0,.533-.159c.632-.373.022-1.424.374-2.067a3.08,3.08,0,0,1,1.578-1.174,2.087,2.087,0,0,1,2.066,1.085,6.113,6.113,0,0,1,.661,2.379q.189,1.389.377,2.776a8.848,8.848,0,0,1,.07,2.923,6.724,6.724,0,0,1-2.578,3.725,5.237,5.237,0,0,1-3.293,1.386,5.67,5.67,0,0,1-3.547-1.87c-.546-.519-2.241-1.71-2.339-2.508C316.624,120.693,318.777,121.15,319.75,121.647Z" transform="translate(-316.683 -107.97)" fill="#ef6535"/>
              <path id="Trazado_991898" data-name="Trazado 991898" d="M325.908,135.911a11.219,11.219,0,0,0,7.136-.71c3.557-1.819,7.041-5.179,7.9-9.082.98-4.468-.608-10.726-5.844-13.307-4.771-2.353-11.731-1.184-10.314.716,1.284,1.722-.09,3.181-.1,3.943-.021,1.722,2.279,3.031-2.04,2.538-1.344-.153-1.284,4.657-2.994,2.437-.806-1.047-1.541.092-2.7-.351C315.3,129.527,321.819,135.149,325.908,135.911Z" transform="translate(-316.691 -108.027)" fill="#e00b16"/>
              <path id="Trazado_991899" data-name="Trazado 991899" d="M330.98,132.668a13.15,13.15,0,0,0,.148-5.6,2.674,2.674,0,0,1,.018-1.267.878.878,0,0,1,.982-.619,38.2,38.2,0,0,1,2.274,8.095c1.375-4.013-2.1-12.028.214-12.613,2.294,3.726,2.2,6.96,3.679,10.449-.192-4.542-1.146-7.055-1.82-10.116-.132-.6-.076-1.483.54-1.529.349-.025.625.275.834.555a15.743,15.743,0,0,1,2.355,13.912,5.641,5.641,0,0,1-1.44,2.552,13.12,13.12,0,0,1-10.855,4.739c-1.378-.042-2.968-.841-1.182-3.226C327.629,136.794,330.554,134.091,330.98,132.668Z" transform="translate(-316.222 -107.623)" fill="#fe7b36"/>
              <path id="Trazado_991900" data-name="Trazado 991900" d="M330.323,110.234a12.781,12.781,0,0,0-2.823.393,3.208,3.208,0,0,1-2.7-.555c1.219,1.088,2.124,2.526,3.479,3.437a5.835,5.835,0,0,0,4.646.8,10.909,10.909,0,0,0-1.845,2.581,3.7,3.7,0,0,0-.118,3.081c.133-.875,1.213-1.164,2.057-1.431a6.959,6.959,0,0,0,3.367-2.341,7.966,7.966,0,0,0,6.839,4.07c-.356-.386-.713-.771-1.036-1.185-.993-1.273-.893-3.522-1.978-4.718s-3.234-2.551-4.707-1.89C334.527,110.761,332.376,110.374,330.323,110.234Z" transform="translate(-316.279 -108.1)" fill="#68785c"/>
              <g id="Grupo_1165532" data-name="Grupo 1165532" transform="translate(18.03)">
                <path id="Trazado_991901" data-name="Trazado 991901" d="M335.067,114.118a8.456,8.456,0,0,1,1.975-3.411c1.317-1.134,2.73-.413,4.19-.808a.7.7,0,0,0,.165-1.26c-1.457-.883-3.842-.344-5.11.681a8.418,8.418,0,0,0-2.409,4.471c-.223.777.907,1.048,1.188.327Z" transform="translate(-333.85 -108.195)" fill="#68785c"/>
              </g>
            </g>
            <g id="Grupo_1165534" data-name="Grupo 1165534" transform="translate(29.483 62.053)">
              <path id="Trazado_991902" data-name="Trazado 991902" d="M314.476,167.643c-.775,6.071-1.059,12.649.544,18.616a.26.26,0,0,0,.508-.068c-.128-6.23-.69-12.3-.232-18.548.04-.536-.754-.51-.82,0Z" transform="translate(-313.853 -167.251)" fill="#d15226"/>
            </g>
          </g>
          <g id="Grupo_1165537" data-name="Grupo 1165537" transform="translate(0 80.414)">
            <path id="Trazado_991903" data-name="Trazado 991903" d="M176.3,185.3c-1.556,2.2-2.844,6.519-2.216,9.137a18.07,18.07,0,0,0,4.28,6.848c14.776,12.855,26.661,22.735,41.436,35.589a8.167,8.167,0,0,0,3.7,1.772c1.673.058,2.906-1.775,2.853-3.448a9.274,9.274,0,0,0-1.912-4.571C217,219.2,204.928,204.71,197.484,193.289c11.885-9.771,25.213-20.283,29.118-35.165,1.408-5.362,2.962-14.8-5.122-15.761-5.537-.66-13.163,6.591-16.8,10.1A224.763,224.763,0,0,0,176.3,185.3Z" transform="translate(-173.926 -142.32)" fill="#fe7b36"/>
            <g id="Grupo_1165536" data-name="Grupo 1165536" transform="translate(18.192 45.755)">
              <path id="Trazado_991904" data-name="Trazado 991904" d="M191.6,186.934a12.679,12.679,0,0,1,3.966,2.787.385.385,0,0,0,.6-.464,7.9,7.9,0,0,0-4.283-3.354c-.653-.243-.91.779-.285,1.032Z" transform="translate(-191.24 -185.865)" fill="#d15226"/>
            </g>
          </g>
          <g id="Grupo_1165554" data-name="Grupo 1165554" transform="translate(29.339 73.29)">
            <g id="Grupo_1165538" data-name="Grupo 1165538">
              <path id="Trazado_991905" data-name="Trazado 991905" d="M218.492,140.551c1.075,13.791-2.588,28.4,2.543,41.244,1.056,2.643,6.238,12.177,7.026,14.911.931,3.229,3.193,8.842,3.424,12.194.966,13.953-2.905,26.971-5.171,40.772a248.62,248.62,0,0,0,73.8-1.407c1.525-.26-1.1-14.081-2.451-16.254-7.784-12.545-2.874-26.525-1.141-41.186,1.016-8.6,8.809-20.162,10.3-26.552,2.8-11.969-7.321-12.858-10.821-24.64-5.34-1.016-14.407-4.267-18.994-4.085.076,7.483.076,7.483-1.886,15-3.024,11.6-17.028,13.352-23.52,9.052-9.608-6.364-10.005-11.049-12.978-23.1Z" transform="translate(-201.017 -135.54)" fill="#fff"/>
              <path id="Trazado_991906" data-name="Trazado 991906" d="M201.848,152.218c0,2.657,11.306,16.907,15.334,26.2,12.554-8.845,15.408-27.962,6.646-36.749-3.245-3.254-8.49-.019-13.494,3.082C209.223,145.435,201.848,152.218,201.848,152.218Z" transform="translate(-201.848 -135.298)" fill="#fff"/>
              <path id="Trazado_991907" data-name="Trazado 991907" d="M299.314,181.6c5.165-8.588,13.784-22.191,12.923-27.248-.3-1.745-6.209-8.355-8.09-9.892a23.781,23.781,0,0,0-11.687-5.023c-3.243-.479-3.279,6.582-3.773,9.822C287.1,159.639,288.7,173.488,299.314,181.6Z" transform="translate(-197.467 -135.343)" fill="#fff"/>
            </g>
            <g id="Grupo_1165553" data-name="Grupo 1165553" transform="translate(20.559 18.445)">
              <g id="Grupo_1165542" data-name="Grupo 1165542" transform="translate(67.163 8.483)">
                <g id="Grupo_1165539" data-name="Grupo 1165539" transform="translate(0.449)">
                  <path id="Trazado_991908" data-name="Trazado 991908" d="M291.925,171.335a60.242,60.242,0,0,1-5.254-9.918c-.231-.522-1.025-.143-.9.378a28.891,28.891,0,0,0,5.072,10.171c.469.632,1.539.041,1.078-.632Z" transform="translate(-285.761 -161.167)" fill="#d8d8d8"/>
                </g>
                <g id="Grupo_1165540" data-name="Grupo 1165540" transform="translate(0 7.875)">
                  <path id="Trazado_991909" data-name="Trazado 991909" d="M285.433,169.6a24.819,24.819,0,0,0,2.789,3.706,8.9,8.9,0,0,0,3.361,2.667.45.45,0,0,0,.5-.655,23.742,23.742,0,0,0-2.776-2.8,22.963,22.963,0,0,1-2.783-3.559c-.438-.683-1.526-.058-1.094.639Z" transform="translate(-285.333 -168.662)" fill="#d8d8d8"/>
                </g>
                <g id="Grupo_1165541" data-name="Grupo 1165541" transform="translate(1.275 13.45)">
                  <path id="Trazado_991910" data-name="Trazado 991910" d="M286.809,175.252a5.36,5.36,0,0,0,3.107,1.5c.659.022.747-.8.306-1.13-.734-.551-1.6-.885-2.317-1.469-.765-.624-1.867.456-1.1,1.1Z" transform="translate(-286.547 -173.967)" fill="#d8d8d8"/>
                </g>
              </g>
              <g id="Grupo_1165546" data-name="Grupo 1165546" transform="translate(0 2.627)">
                <g id="Grupo_1165543" data-name="Grupo 1165543">
                  <path id="Trazado_991911" data-name="Trazado 991911" d="M222.477,170.833c1.9-4.3,3.94-10.23,2.728-14.971a.377.377,0,0,0-.722,0c-.513,2.423-.341,4.939-.819,7.394a36.1,36.1,0,0,1-2.213,7.144c-.246.581.769,1.015,1.026.433Z" transform="translate(-221.414 -155.594)" fill="#d8d8d8"/>
                </g>
                <g id="Grupo_1165544" data-name="Grupo 1165544" transform="translate(0.159 12.403)">
                  <path id="Trazado_991912" data-name="Trazado 991912" d="M222.6,175.185c2.028-1.737,4.473-4.4,4.878-7.153a.511.511,0,0,0-.929-.392c-.764,1.078-1.255,2.357-2,3.462a18.755,18.755,0,0,1-2.8,3.238c-.568.53.267,1.34.845.845Z" transform="translate(-221.565 -167.398)" fill="#d8d8d8"/>
                </g>
                <g id="Grupo_1165545" data-name="Grupo 1165545" transform="translate(3.037 18.994)">
                  <path id="Trazado_991913" data-name="Trazado 991913" d="M225.2,176.681a15.616,15.616,0,0,0,3.173-2.18c.316-.331.005-.965-.469-.8a15.517,15.517,0,0,0-3.317,1.938c-.649.423-.054,1.463.613,1.048Z" transform="translate(-224.305 -173.671)" fill="#d8d8d8"/>
                </g>
              </g>
              <g id="Grupo_1165549" data-name="Grupo 1165549" transform="translate(19.266)">
                <g id="Grupo_1165547" data-name="Grupo 1165547">
                  <path id="Trazado_991914" data-name="Trazado 991914" d="M239.824,153.845c1.973,2.927,5.291,6.88,8.992,7.484.374.061.723-.378.4-.685-1.37-1.3-3.164-2.1-4.631-3.292a25.2,25.2,0,0,1-3.991-4.1c-.339-.437-1.08.134-.77.595Z" transform="translate(-239.749 -153.094)" fill="#d8d8d8"/>
                </g>
                <g id="Grupo_1165548" data-name="Grupo 1165548" transform="translate(1.148 5.816)">
                  <path id="Trazado_991915" data-name="Trazado 991915" d="M241.043,159.63c1.177,1.054,2.63,2.436,4.219,2.767a.557.557,0,0,0,.538-.924,9.987,9.987,0,0,0-1.854-1.27,21.226,21.226,0,0,1-2.047-1.43c-.6-.472-1.45.326-.856.857Z" transform="translate(-240.842 -158.629)" fill="#d8d8d8"/>
                </g>
              </g>
              <g id="Grupo_1165552" data-name="Grupo 1165552" transform="translate(49.077 4.554)">
                <g id="Grupo_1165550" data-name="Grupo 1165550">
                  <path id="Trazado_991916" data-name="Trazado 991916" d="M268.928,161.043l1.219-1.5a7.983,7.983,0,0,0,1.085-1.485.43.43,0,0,0-.673-.519,7.938,7.938,0,0,0-1.2,1.372l-1.13,1.437c-.383.49.292,1.188.694.695Z" transform="translate(-268.121 -157.428)" fill="#d8d8d8"/>
                </g>
                <g id="Grupo_1165551" data-name="Grupo 1165551" transform="translate(2.845 3.02)">
                  <path id="Trazado_991917" data-name="Trazado 991917" d="M271.711,162.094a5.5,5.5,0,0,0,.782-1.331.314.314,0,0,0-.49-.378,5.511,5.511,0,0,0-1.09,1.094c-.344.458.438,1.068.8.616Z" transform="translate(-270.828 -160.302)" fill="#d8d8d8"/>
                </g>
              </g>
            </g>
          </g>
          <g id="Grupo_1165565" data-name="Grupo 1165565" transform="translate(45.019 73.047)">
            <g id="Grupo_1165564" data-name="Grupo 1165564" transform="translate(2.442)">
              <path id="Trazado_991918" data-name="Trazado 991918" d="M234.711,192.015c.184,2.177-8.6,4.023-7.972,5.9,4.7,14.135,4.769,15.359,1.279,25.7-7.358,21.789-6.216,38.137-7.358,71.355-1.006,29.221-2.952,65.608,0,89.229,28.144,7.941,63.928,11.5,90.812,0,1.714-.733-1.131-47.435-2.911-89.229-1.141-26.8-1.154-38.935-7.574-65.86-2.544-10.667-7.426-16.236-3.457-34.169a1.24,1.24,0,0,0-.955-1.483c-5.069-1.039-6.663-1.534-7.054-2.617-4.146-11.493-5.03-52.094-5.078-54.4a4.129,4.129,0,0,0-4.277-.906c.582,12.243-.228,19.445-.108,30.119-14.865-.343-25.977-.862-40.64,1.6.159-.026-3.407-28.042-3.662-30.149,0,0-4.927-.842-4.663.368C233.419,148.122,233.706,180.116,234.711,192.015Z" transform="translate(-219.095 -135.308)" fill="#68785c"/>
              <g id="Grupo_1165559" data-name="Grupo 1165559" transform="translate(4.032 100.118)">
                <g id="Grupo_1165555" data-name="Grupo 1165555" transform="translate(22.456)">
                  <path id="Trazado_991919" data-name="Trazado 991919" d="M244.346,231.1c11.072,20.9,24.142,41.751,40.285,59.152.337.363.815-.161.53-.53-14.69-18.982-28.691-37.84-40.229-58.965-.21-.384-.789-.043-.585.343Z" transform="translate(-244.303 -230.591)" fill="#556349"/>
                </g>
                <g id="Grupo_1165556" data-name="Grupo 1165556" transform="translate(25.355 37.299)">
                  <path id="Trazado_991920" data-name="Trazado 991920" d="M247.157,266.807c7.729,10.738,15.358,21.612,23.513,32.031.353.452,1.124-.142.8-.616-7.473-10.865-15.545-21.365-23.449-31.92-.378-.505-1.241-.022-.863.5Z" transform="translate(-247.063 -266.089)" fill="#556349"/>
                </g>
                <g id="Grupo_1165557" data-name="Grupo 1165557" transform="translate(30.665 66.258)">
                  <path id="Trazado_991921" data-name="Trazado 991921" d="M252.213,294.38c6.748,9.18,13.39,18.445,20.4,27.431.277.356.891-.113.63-.487-6.5-9.3-13.383-18.343-20.147-27.458-.387-.518-1.268-.016-.878.514Z" transform="translate(-252.115 -293.649)" fill="#556349"/>
                </g>
                <g id="Grupo_1165558" data-name="Grupo 1165558" transform="translate(0 141.322)">
                  <path id="Trazado_991922" data-name="Trazado 991922" d="M223.226,366.407a103.845,103.845,0,0,0,42.9,9.083c13.708-.063,30.958-2.069,42.745-9.6a.43.43,0,0,0-.33-.782c-6.567,1.825-12.72,4.726-19.421,6.274a104.753,104.753,0,0,1-22.018,2.657,106.912,106.912,0,0,1-43.306-8.6c-.654-.278-1.231.673-.567.969Z" transform="translate(-222.932 -365.087)" fill="#556349"/>
                </g>
              </g>
              <g id="Grupo_1165560" data-name="Grupo 1165560" transform="translate(15.885 29.538)">
                <path id="Trazado_991923" data-name="Trazado 991923" d="M234.6,164.222c-.546,1.037-.65,2.707.6,3.3,1.561.742,2.721-1.147,2.263-2.5-.2-.6-.819-1.772-1.607-1.578a.675.675,0,0,0-.509.668c0,.387.313.676.495.989.13.224.365.691.109.933-.087.082-.086.091-.175.044-.12-.063-.115-.537-.126-.646a6.66,6.66,0,0,1-.05-.938.54.54,0,0,0-1-.269Z" transform="translate(-234.213 -163.42)" fill="#556349"/>
              </g>
              <g id="Grupo_1165561" data-name="Grupo 1165561" transform="translate(62.573 28.478)">
                <path id="Trazado_991924" data-name="Trazado 991924" d="M279.447,162.822a2.253,2.253,0,0,0-.646,2.616c.292.872,1.173,1.959,2.182,1.29a2.391,2.391,0,0,0,.657-2.519c-.191-.713-1.009-2.116-1.928-1.735a.67.67,0,0,0-.478.627c.054.533.367.628.651,1.012a1.455,1.455,0,0,1,.268,1.012,1.933,1.933,0,0,1-.078.3q.561.093.32-.18c-.014-.185-.181-.413-.208-.616a12.621,12.621,0,0,1,.023-1.367.512.512,0,0,0-.764-.439Z" transform="translate(-278.645 -162.411)" fill="#556349"/>
              </g>
              <g id="Grupo_1165563" data-name="Grupo 1165563" transform="translate(21.715 37.324)">
                <path id="Trazado_991925" data-name="Trazado 991925" d="M277.763,172.922c1.665,7.627,3.409,26.646,2.742,28.067-1.431,3.051-37.084,4.246-39.354,1.49-.6-.724-1.808-23.973-.671-27.9C241.55,170.88,273.815,170.1,277.763,172.922Z" transform="translate(-239.748 -170.81)" fill="#78896a"/>
                <path id="Trazado_991926" data-name="Trazado 991926" d="M280.843,189.725c-.445-5.671-1.391-16.213-2.516-16.935-5-3.212-32.112-2.218-38.026,1.109-.888.5-.478,12.386-.21,17.921.118,2.434-.667,8.887.834,10.949.7.967,1.411.885,2.713,1.077a105.376,105.376,0,0,0,13.619.867,88.4,88.4,0,0,0,15.5-.876c2.094-.338,6.8-.283,7.906-2.424C281.737,199.335,281.039,192.218,280.843,189.725Zm-3.279,11.793a33.928,33.928,0,0,1-8.817,1.59,116.613,116.613,0,0,1-16.56.254c-1.942-.09-8.657.459-10.2-.922-1.019-.914-.725-8.714-.83-10.62-.3-5.509-.547-11.071-.3-16.589,6.558-2.574,13.753-3.09,20.741-3.138,3.928-.026,8.25-.09,12.106.76,4.209.928,4.326,2.863,4.989,6.756a103.687,103.687,0,0,1,1.433,17.514C280.12,199.676,280.235,200.481,277.564,201.517Z" transform="translate(-239.761 -170.829)" fill="#556349"/>
                <g id="Grupo_1165562" data-name="Grupo 1165562" transform="translate(2.625 5.998)">
                  <path id="Trazado_991927" data-name="Trazado 991927" d="M242.8,178.591c10.612.2,21.306-.218,31.912-.591a.732.732,0,0,0,0-1.463c-10.615.132-21.32.227-31.912.929a.563.563,0,0,0,0,1.124Z" transform="translate(-242.259 -176.538)" fill="#68785c"/>
                </g>
              </g>
            </g>
            <path id="Trazado_991928" data-name="Trazado 991928" d="M226.578,224.093c.565.36-1.015,3.232-1.015,3.742,0,2.415,1.951,2.769,2.85,3.271,1.969,1.1,3.711,1.262,5.783,2.154,2.914,1.255,2.925,1.8,2.914,2.839-3.358,1.016-6.974-1.215-10.267-2.425,2.854,2.892,10.695,8.132,9.283,9.843-3.5.77-7.448-3.365-10.564-5.136,1.549,1.69,2.442,4.333,3.99,6.023,1.082,1.181,4.989,5.483,3.134,5.483-3.645-1.077-7.1-5.6-9.441-8.6,1.159,2.828,3.6,6.009,3.175,8.6-1.6,1.907-6.375-8.648-7.21-12.073a51.091,51.091,0,0,0-1.893-5.872c-.9-2.16-.947-4.135,1.893-6.255C221.071,224.3,224.826,222.974,226.578,224.093Z" transform="translate(-216.771 -130.824)" fill="#fe7b36"/>
          </g>
        </g>
      </g>
      <g id="Grupo_1165631" data-name="Grupo 1165631" transform="translate(6.446 296.726)">
        <ellipse id="Elipse_11806" data-name="Elipse 11806" cx="70.686" cy="21.794" rx="70.686" ry="21.794" transform="translate(6.853 126.077)" fill="#f4d38c"/>
        <g id="Grupo_1165630" data-name="Grupo 1165630">
          <g id="Grupo_1165586" data-name="Grupo 1165586" transform="translate(31.054 0.104)">
            <path id="Trazado_991929" data-name="Trazado 991929" d="M170.643,332.663c-3.056-9.533-7.971-20.953-17.529-25.6a16.725,16.725,0,0,0-5.507-1.6,42.686,42.686,0,0,1-1.158,6.719c7.02.8,12.176,8.079,15.426,15.535a90.636,90.636,0,0,1,5.8,20.274c1.371,7.672,1.146,15.324,2.019,23.009.348,3.06,5.458,4.519,5.979.809C177.435,359.3,174.458,344.567,170.643,332.663Z" transform="translate(-99.939 -305.46)" fill="#b06c3b"/>
            <path id="Trazado_991930" data-name="Trazado 991930" d="M172.547,349.154a13.607,13.607,0,0,1,3.858,16.275c-.689,1.411-1.662,2.853-1.416,4.4a20.8,20.8,0,0,1,.742,2.7c.037,1.8-1.865,2.931-3.5,3.671-5.786,2.616-11.635,5.254-17.862,6.5a83.983,83.983,0,0,1-15.939,1.126,34.918,34.918,0,0,1-9.984-.893c-2.795-.809-5.335-2.3-8-3.473-3.549-1.561-7.345-2.567-10.754-4.414s-6.518-4.786-7.284-8.588a23.171,23.171,0,0,0,.24-11.166c-.348-1.531-.827-3.241-.015-4.583.909-1.5,2.961-1.769,4.378-2.808,2.963-2.17,2.612-7.2,5.679-9.224,1.655-1.09,3.885-.97,5.548-2.046a21.686,21.686,0,0,0,2.819-2.831c2.075-1.973,5.054-2.592,7.867-3.129,5.168-.987,10.477-1.974,15.654-1.036,2.717.493,6.575-1.756,9.889-1.153,3.847.7,6.508,2.579,9.425,5C168.55,337.357,175.8,341.666,172.547,349.154Z" transform="translate(-102.186 -304.297)" fill="#fff"/>
            <g id="Grupo_1165568" data-name="Grupo 1165568" transform="translate(40.021 38.209)">
              <path id="Trazado_991931" data-name="Trazado 991931" d="M154.237,341.936a3.886,3.886,0,0,1,1.672,5.023,4.466,4.466,0,0,1-2.268,2.25c-1.388.681-2.537.29-3.908.607-1.062.246-.865.27-1.384,1.347a10.785,10.785,0,0,1-.833,1.627,4.942,4.942,0,0,1-3.05,2.1c-2,.355-4.165-.711-4.192-2.879a.825.825,0,0,1,1.393-.577c2.029,1.968,3.8.588,4.659-1.617.336-.866.5-1.637,1.388-2.093a4.321,4.321,0,0,1,2.4-.174,5.328,5.328,0,0,0,2.746-.412c1.275-.708,2.159-2.636.5-3.689a.875.875,0,0,1,.882-1.51Z" transform="translate(-140.274 -341.823)" fill="#9fa156"/>
            </g>
            <g id="Grupo_1165569" data-name="Grupo 1165569" transform="translate(44.926 51.526)">
              <path id="Trazado_991932" data-name="Trazado 991932" d="M166.4,354.829c.745,2.3-.8,3.988-3.074,4.365-1.981.328-1.865.141-3.375,1.19a6.562,6.562,0,0,1-2.834,1.467c-1.98.33-3.239-.063-5.135.91-1.179.605-2.026,1.468-3.423,1.518-2.065.076-3.866-1.2-3.585-3.353.055-.421.717-.779.941-.255,1.654,3.855,4.7.58,6.985-.185,2.5-.834,5.5.9,7.008-2.472a.623.623,0,0,1,.554-.317q3.111.594,5-2.741c-.043-.556.777-.616.935-.126Z" transform="translate(-144.941 -354.497)" fill="#9fa156"/>
            </g>
            <g id="Grupo_1165570" data-name="Grupo 1165570" transform="translate(13.6 52.064)">
              <path id="Trazado_991933" data-name="Trazado 991933" d="M130.141,363.359a3.542,3.542,0,0,1-4.425,3.05c-2.871-.6-3.626-3.72-3.246-6.231l1.028,1.028c-2.372.939-5.378,1.208-7.241-.9a3.821,3.821,0,0,1-.276-5.094.7.7,0,0,1,1.169.681c-1.351,4.084,2.881,4.9,5.9,3.7a.84.84,0,0,1,1.058.806,4.216,4.216,0,0,0,1.03,3.471c1.16,1.117,2.968,1.144,3.605-.7.246-.712,1.452-.657,1.393.188Z" transform="translate(-115.129 -355.009)" fill="#9fa156"/>
            </g>
            <g id="Grupo_1165571" data-name="Grupo 1165571" transform="translate(23.056 42.137)">
              <path id="Trazado_991934" data-name="Trazado 991934" d="M133.627,355.37c-1.328.662-2.878,1.359-4.315.6a2.706,2.706,0,0,1-1.2-1.221c-.246-.537.123-1.522-.113-1.905s-1.358-.762-1.773-1.139a6.655,6.655,0,0,1-1.373-1.774,4.331,4.331,0,0,1-.335-4.131.5.5,0,0,1,.906.119,14.927,14.927,0,0,0,.74,3.247,6.754,6.754,0,0,0,2.588,2.394,2.177,2.177,0,0,1,.833,1.167c.422,1-.851-.243.68,1.383a1.074,1.074,0,0,0,1.742.575q.58-.2,1.14-.45c.645-.273,1.1.823.477,1.136Z" transform="translate(-124.128 -345.561)" fill="#9fa156"/>
            </g>
            <g id="Grupo_1165572" data-name="Grupo 1165572" transform="translate(31.882 33.345)">
              <path id="Trazado_991935" data-name="Trazado 991935" d="M138.544,340.667a3.451,3.451,0,0,1-4.261.861c-1.295-.71-2.316-2.663-1.411-4.024a.647.647,0,0,1,1.195.324c.106.913.081,1.86.972,2.408a2.047,2.047,0,0,0,2.571-.5c.576-.641,1.463.289.934.935Z" transform="translate(-132.527 -337.195)" fill="#9fa156"/>
            </g>
            <g id="Grupo_1165573" data-name="Grupo 1165573" transform="translate(46.054 64.323)">
              <path id="Trazado_991936" data-name="Trazado 991936" d="M159.626,366.82a2.719,2.719,0,0,1-2.251,4.274,7.7,7.7,0,0,1-1.469-.489c-2.158-.531-3.581.523-5.315,1.5-1.42.8-2.967,1.339-4.351.3-.353-.265-.31-1.025.26-.959,3,.344,4.454-1.931,7.136-2.458a4.746,4.746,0,0,1,1.858.066c.622.107,1.1.385,1.78.485q1.278.684,1.529-.728a1.225,1.225,0,0,0,.286-1.676.312.312,0,0,1,.538-.314Z" transform="translate(-146.015 -366.677)" fill="#9fa156"/>
            </g>
            <g id="Grupo_1165574" data-name="Grupo 1165574" transform="translate(35.068 62.317)">
              <path id="Trazado_991937" data-name="Trazado 991937" d="M140.106,365.234a3.948,3.948,0,0,1-.7,3.651c-.667.871-2.41,2-3.484,1.226a.769.769,0,0,1,0-1.308,5.033,5.033,0,0,1,1.18-.368,2.7,2.7,0,0,0,.927-.621,2.444,2.444,0,0,0,.8-2.23.661.661,0,0,1,1.275-.351Z" transform="translate(-135.56 -364.767)" fill="#9fa156"/>
            </g>
            <g id="Grupo_1165575" data-name="Grupo 1165575" transform="translate(4.176 58.091)">
              <path id="Trazado_991938" data-name="Trazado 991938" d="M113.992,366.177c-2.126.552-4.761,1.021-6.565-.6-1.323-1.19-1.851-3.353-.393-4.648a.645.645,0,0,1,1.008.777,2.343,2.343,0,0,0,1.281,2.816c1.27.6,2.9.236,4.216.006,1.063-.186,1.537,1.367.454,1.649Z" transform="translate(-106.16 -360.745)" fill="#9fa156"/>
            </g>
            <g id="Grupo_1165576" data-name="Grupo 1165576" transform="translate(13.134 41.596)">
              <path id="Trazado_991939" data-name="Trazado 991939" d="M118.915,350.113c-2.608.676-5.618-2.617-3.533-4.89.407-.443,1.043.033.941.548-.24,1.221.729,3.131,2.177,2.843.972-.194,1.392,1.245.414,1.5Z" transform="translate(-114.685 -345.047)" fill="#9fa156"/>
            </g>
            <g id="Grupo_1165577" data-name="Grupo 1165577" transform="translate(61.337 36.843)">
              <path id="Trazado_991940" data-name="Trazado 991940" d="M165.428,340.8c.243,1.03.418,2.071.606,3.111a.786.786,0,0,1-.53.932c-1.257.489-3.163,1.269-4.51.8a.61.61,0,0,1-.144-1.1,6.777,6.777,0,0,1,2.053-.538,16.224,16.224,0,0,0,2.2-.627l-.556.73c.025-1.071.038-2.141.119-3.21.032-.412.657-.553.764-.1Z" transform="translate(-160.561 -340.524)" fill="#9fa156"/>
            </g>
            <g id="Grupo_1165578" data-name="Grupo 1165578" transform="translate(39.837 32.931)">
              <path id="Trazado_991941" data-name="Trazado 991941" d="M151.4,336.931a2.373,2.373,0,0,1-.336,3.664c-1.781,1.42-4.143.234-5.462-1.2l.8-.1c-1.166,1.783-3.894,3.877-6.081,2.667a.452.452,0,0,1,.107-.816c.867-.326,1.784-.26,2.665-.577a5.528,5.528,0,0,0,2.51-1.889.488.488,0,0,1,.495-.13c.48.2.958.4,1.438.594,1.054.429,4.336.709,3.04-1.572a.527.527,0,0,1,.825-.636Z" transform="translate(-140.099 -336.8)" fill="#9fa156"/>
            </g>
            <g id="Grupo_1165579" data-name="Grupo 1165579" transform="translate(29.505 43.381)">
              <path id="Trazado_991942" data-name="Trazado 991942" d="M135.4,348.726A3.017,3.017,0,0,1,132.178,350a2.348,2.348,0,0,1-1.783-2.922.473.473,0,0,1,.852-.111,3.086,3.086,0,0,0,1.354,1.5,1.517,1.517,0,0,0,1.686-.605c.5-.624,1.575.2,1.114.859Z" transform="translate(-130.266 -346.745)" fill="#9fa156"/>
            </g>
            <g id="Grupo_1165580" data-name="Grupo 1165580" transform="translate(60.912 46.266)">
              <path id="Trazado_991943" data-name="Trazado 991943" d="M165.4,350.111a3.512,3.512,0,0,1-2.164,2.287c-.928.384-2.372.62-3.006-.359a.55.55,0,0,1,.325-.8c.677-.224,1.4.077,2.1-.111a3.3,3.3,0,0,0,1.818-1.407.508.508,0,0,1,.924.39Z" transform="translate(-160.156 -349.491)" fill="#9fa156"/>
            </g>
            <g id="Grupo_1165581" data-name="Grupo 1165581" transform="translate(66.327 61.488)">
              <path id="Trazado_991944" data-name="Trazado 991944" d="M169.885,364.57c.115,2-2.379,4.226-4.286,2.953-.479-.319-.359-1.264.324-1.195,1.2.122,2.7-.285,2.738-1.758a.612.612,0,0,1,1.224,0Z" transform="translate(-165.309 -363.979)" fill="#9fa156"/>
            </g>
            <g id="Grupo_1165582" data-name="Grupo 1165582" transform="translate(19.466 67.663)">
              <path id="Trazado_991945" data-name="Trazado 991945" d="M132.087,372.594a4.292,4.292,0,0,1-2.573,3.834c-1.754.63-2-.6-2.37-1.908-.758-2.692-6.155-.617-6.431-4.137a.54.54,0,0,1,.912-.378c1.39,1.518,3.365,1.436,5.148,2.182a3.383,3.383,0,0,1,1.613,1.15c.174.258.285,1.131.436,1.26.777.663,1.742-1.731,1.855-2.2.184-.771,1.483-.627,1.411.192Z" transform="translate(-120.712 -369.855)" fill="#9fa156"/>
            </g>
            <g id="Grupo_1165583" data-name="Grupo 1165583" transform="translate(21.432 34.147)">
              <path id="Trazado_991946" data-name="Trazado 991946" d="M128.269,339.39c-1.36,1.741-5.171,1.934-5.674-.635-.1-.5.426-1.017.913-.7,1.119.722,2.61,1.459,3.744.32.672-.676,1.57.308,1.017,1.016Z" transform="translate(-122.583 -337.958)" fill="#9fa156"/>
            </g>
            <g id="Grupo_1165584" data-name="Grupo 1165584" transform="translate(36.833 68.99)">
              <path id="Trazado_991947" data-name="Trazado 991947" d="M142.164,371.522a2.8,2.8,0,0,1-1.561,3.132c-1.1.6-2.8.707-3.334-.664a.557.557,0,0,1,.534-.7,4.574,4.574,0,0,0,2-.007,2.01,2.01,0,0,0,1.258-1.61.566.566,0,0,1,1.106-.15Z" transform="translate(-137.24 -371.118)" fill="#9fa156"/>
            </g>
            <g id="Grupo_1165585" data-name="Grupo 1165585" transform="translate(35.49 54.716)">
              <path id="Trazado_991948" data-name="Trazado 991948" d="M139.929,358.526a2.478,2.478,0,0,1-1.414,1.35,2.917,2.917,0,0,1-2,.408.776.776,0,0,1-.458-1.127,2.7,2.7,0,0,1,1.471-1.2,2.528,2.528,0,0,1,1.889-.334.749.749,0,0,1,.516.908Z" transform="translate(-135.961 -357.534)" fill="#9fa156"/>
            </g>
          </g>
          <g id="Grupo_1165594" data-name="Grupo 1165594" transform="translate(83.924 15.314)">
            <path id="Trazado_991949" data-name="Trazado 991949" d="M180.207,381.093c1.955-.073,4.385-.491,4.935-2.368l-1.743-2.194a44.575,44.575,0,0,0,20.315-22.368l-1.959-1.03a100.838,100.838,0,0,0,5.211-13.423c.474-1.539.9-3.241.268-4.721s-2.84-2.307-3.9-1.094a32.045,32.045,0,0,0,.83-11.537c-.11-1-.467-2.213-1.454-2.4a2.516,2.516,0,0,0-2.015.961l-7.058,6.679c-1.972-1.809-3-5.57-5.638-5.1-2.739.491-2.5,5.019-4.937,6.355-1.217.666-2.742.317-4.073.711-2.586.767-3.547,3.978-3.4,6.671s.972,5.434.261,8.036a3.059,3.059,0,0,1-1.2,1.869c-1.267.78-2.942-.088-4.388.263-1.865.453-2.63,2.636-3.09,4.5q-1.753,7.094-3.5,14.187a1.317,1.317,0,0,0-1.557-.121,2.578,2.578,0,0,0-.807,1.114l-4.033,8.449q-2.383,4.995-4.767,9.988c4.424-.228,8.255-2.264,12.488-2.867C169.916,380.954,175.228,381.278,180.207,381.093Z" transform="translate(-152.502 -319.935)" fill="#f5a607"/>
            <g id="Grupo_1165587" data-name="Grupo 1165587" transform="translate(9.292 8.904)">
              <path id="Trazado_991950" data-name="Trazado 991950" d="M197.44,328.735A163.6,163.6,0,0,1,181.389,356.2c-6.007,8.232-13.463,14.9-19.922,22.659-.372.447.182,1.161.688.8,8.2-5.883,15.031-15.088,20.867-23.22a151.322,151.322,0,0,0,15.48-27.161c.308-.7-.735-1.242-1.061-.542Z" transform="translate(-161.345 -328.409)" fill="#847d00"/>
            </g>
            <g id="Grupo_1165588" data-name="Grupo 1165588" transform="translate(34.766 21.883)">
              <path id="Trazado_991951" data-name="Trazado 991951" d="M200.26,341.3c-3.21-1.617-4.557.695-5.883,3.074-1.2,2.162-3.146,2-4.994,3.352a12.634,12.634,0,0,0-3.741,5.139.505.505,0,0,0,.9.459,28.564,28.564,0,0,1,2.855-4.075c1.516-1.561,3.469-1.3,5.037-2.45,1.877-1.379,1.556-5.968,5.248-4.37.745.323,1.316-.759.578-1.13Z" transform="translate(-185.588 -340.761)" fill="#847d00"/>
            </g>
            <g id="Grupo_1165589" data-name="Grupo 1165589" transform="translate(29.273 33.487)">
              <path id="Trazado_991952" data-name="Trazado 991952" d="M196.581,352.652c-2.635-2.188-4.319.3-5.576,2.464-1.558,2.682-3.774,2.465-6.221,3.91a12.042,12.042,0,0,0-4.345,4.231c-.327.545.458.991.869.595a23.979,23.979,0,0,1,4.293-3.584c1.626-.96,3.465-1.018,5.077-1.825,1.524-.762,3.061-5.891,5.119-4.645.68.411,1.392-.64.784-1.145Z" transform="translate(-180.361 -351.804)" fill="#847d00"/>
            </g>
            <g id="Grupo_1165590" data-name="Grupo 1165590" transform="translate(22.016 46.561)">
              <path id="Trazado_991953" data-name="Trazado 991953" d="M185.23,364.336c-3.833,2.037-8.5,4.336-11.636,7.353-.376.361.079,1,.546.837,4.111-1.442,8.276-4.587,11.816-7.087a.661.661,0,0,0-.726-1.1Z" transform="translate(-173.454 -364.247)" fill="#847d00"/>
            </g>
            <g id="Grupo_1165591" data-name="Grupo 1165591" transform="translate(29.231 11.211)">
              <path id="Trazado_991954" data-name="Trazado 991954" d="M185.939,330.827a10.082,10.082,0,0,0-2.266,3.517c-.53,1.78.63,3.656-.1,5.343-.821,1.895-4.037,3.356-3.071,5.789a.536.536,0,0,0,1.024-.049c.662-2.258,2.791-3.361,3.534-5.52a5.129,5.129,0,0,0,.088-2.367,6.4,6.4,0,0,1,1.759-5.849c.531-.64-.419-1.5-.967-.864Z" transform="translate(-180.322 -330.604)" fill="#847d00"/>
            </g>
            <g id="Grupo_1165592" data-name="Grupo 1165592" transform="translate(22.285 27.647)">
              <path id="Trazado_991955" data-name="Trazado 991955" d="M178.076,346.369c-1.467,1.434-1.521,3.347-1.838,5.266a19.4,19.4,0,0,1-1.116,4.125,23.887,23.887,0,0,0-1.4,3.235c-.107.444.427.615.715.365,1.467-1.275,2.117-3.62,2.562-5.462.545-2.259.023-5.172,1.674-6.995.351-.387-.232-.893-.6-.535Z" transform="translate(-173.711 -346.247)" fill="#847d00"/>
            </g>
            <g id="Grupo_1165593" data-name="Grupo 1165593" transform="translate(12.498 35.482)">
              <path id="Trazado_991956" data-name="Trazado 991956" d="M169.75,353.928c-.923,1.237-2.481,3.056-2.791,4.6-.19.947.121,1.185.521,1.955,1.493,2.874-.417,3.934-1.985,5.931a4.052,4.052,0,0,0-1.1,2.731c.006.35.462.331.563.048.887-2.479,3.713-4.159,4.016-6.842a6.061,6.061,0,0,0-.335-1.9c-.364-2.214,1.238-3.909,2.1-5.842.267-.6-.562-1.265-1-.682Z" transform="translate(-164.396 -353.703)" fill="#847d00"/>
            </g>
          </g>
          <g id="Grupo_1165602" data-name="Grupo 1165602" transform="translate(0 21.387)">
            <path id="Trazado_991957" data-name="Trazado 991957" d="M137.429,348.774c-.921-3.259-2.383-6.765-5.46-8.181s-7.7,1.146-6.8,4.411c-4.229-6.871-9.059-14.232-16.713-16.78a34.8,34.8,0,0,0-7.516-1.324l-8.812-.892c-4.057-.411-8.491-.732-11.871,1.547s-4.262,8.277-.619,10.107c-5.38.3-8.5,7.3-6.3,12.221s7.946,7.438,13.333,7.505a10.512,10.512,0,0,0,13.165,14.4,10.481,10.481,0,0,0,6.58,9.505c1.665.635,3.479.827,5.125,1.513,2.759,1.152,4.758,3.551,6.82,5.715A58.263,58.263,0,0,0,134.235,400.3c1.088.55,2.449,1.052,3.456.366a3.325,3.325,0,0,0,1.109-2.47c.5-4.293-1.435-7.693-1.6-11.764-.126-3.213,1.127-6.265,1.686-9.42A63.694,63.694,0,0,0,137.429,348.774Z" transform="translate(-72.631 -325.715)" fill="#4d5523"/>
            <g id="Grupo_1165595" data-name="Grupo 1165595" transform="translate(16.867 10.549)">
              <path id="Trazado_991958" data-name="Trazado 991958" d="M89.043,336.786c5.4,1.593,11.36,3.522,13.8,9.043.7,1.59.844,3.588,1.893,5.034,1.082,1.491,2.569,2.171,3.759,3.632,5.659,6.951,5.934,20.448,15.93,23.591a.69.69,0,0,0,.588-1.227c-5.609-4.184-8.564-9.754-11.309-16.057-.982-2.256-1.592-5.186-2.937-7.225s-3.8-2.526-5.09-4.609c-1.9-3.083-1.868-5.983-4.949-8.466-3.236-2.608-7.415-3.729-11.363-4.73-.657-.165-.988.818-.327,1.013Z" transform="translate(-88.683 -335.754)" fill="#c6c93b"/>
            </g>
            <g id="Grupo_1165596" data-name="Grupo 1165596" transform="translate(13.637 22.296)">
              <path id="Trazado_991959" data-name="Trazado 991959" d="M86.134,348.081a13.589,13.589,0,0,1,11.186,5.288c1.576,2,2.738,4.225,5.54,4.227.605,0,.862-.982.2-1.112-3.566-.7-5.44-5.541-8.578-7.452a14.825,14.825,0,0,0-8.3-2.092c-.725.021-.787,1.15-.048,1.14Z" transform="translate(-85.609 -346.934)" fill="#c6c93b"/>
            </g>
            <g id="Grupo_1165597" data-name="Grupo 1165597" transform="translate(22.708 34.407)">
              <path id="Trazado_991960" data-name="Trazado 991960" d="M94.785,360.025c6.007,1.718,9.944,5.176,14.014,9.733a.611.611,0,0,0,1-.683c-2.958-5.377-8.755-8.92-14.515-10.579-.992-.285-1.491,1.244-.495,1.529Z" transform="translate(-94.242 -358.461)" fill="#c6c93b"/>
            </g>
            <g id="Grupo_1165598" data-name="Grupo 1165598" transform="translate(34.913 9.949)">
              <path id="Trazado_991961" data-name="Trazado 991961" d="M106.047,336.686a74.988,74.988,0,0,1,6.847,11.953.65.65,0,0,0,1.209-.434,28.678,28.678,0,0,0-6.723-12.71c-.789-.875-1.99.276-1.333,1.19Z" transform="translate(-105.858 -335.183)" fill="#c6c93b"/>
            </g>
            <g id="Grupo_1165599" data-name="Grupo 1165599" transform="translate(46.908 22.478)">
              <path id="Trazado_991962" data-name="Trazado 991962" d="M117.434,348.308a12.517,12.517,0,0,1,2.789,7.887c-.034,2.241-1.031,4.077-1.424,6.223-.423,2.308-.012,5.088,2.647,5.593.517.1,1.139-.522.641-.985-3.206-2.979.077-8.031-.234-11.881a13.678,13.678,0,0,0-3.356-7.786c-.6-.709-1.619.232-1.062.949Z" transform="translate(-117.273 -347.107)" fill="#c6c93b"/>
            </g>
            <g id="Grupo_1165600" data-name="Grupo 1165600" transform="translate(55.357 30.193)">
              <path id="Trazado_991963" data-name="Trazado 991963" d="M125.321,355.472c.763,6.276,2.163,13.038,5.257,18.62.373.673,1.6.324,1.33-.477-2.053-6.177-4.126-12-4.916-18.511-.133-1.091-1.8-.718-1.671.368Z" transform="translate(-125.314 -354.449)" fill="#c6c93b"/>
            </g>
            <g id="Grupo_1165601" data-name="Grupo 1165601" transform="translate(40.998 53.047)">
              <path id="Trazado_991964" data-name="Trazado 991964" d="M111.829,376.993c2.96,2.172,5.887,4.39,8.952,6.413.493.326.956-.407.5-.758-2.912-2.237-5.962-4.28-8.981-6.37-.455-.315-.911.391-.47.715Z" transform="translate(-111.649 -376.2)" fill="#c6c93b"/>
            </g>
          </g>
          <g id="Grupo_1165604" data-name="Grupo 1165604" transform="translate(80.297 42.296)">
            <ellipse id="Elipse_11807" data-name="Elipse 11807" cx="13.014" cy="16.01" rx="13.014" ry="16.01" transform="matrix(0.274, -0.962, 0.962, 0.274, 0, 28.344)" fill="#e00b16"/>
            <path id="Trazado_991965" data-name="Trazado 991965" d="M166.84,349.471c-1.409-.4-8.722,5.295-11.264,3.48a7.545,7.545,0,0,0,5.592,4.369,10.813,10.813,0,0,0,7.135-1.31,4.454,4.454,0,0,0-2.2,4.6,10.947,10.947,0,0,0,2.27,4.9,17.6,17.6,0,0,0,3.935-2.846,5.947,5.947,0,0,0,1.8-4.376,5.357,5.357,0,0,0,3.337,5.453c2.117.888,6.275,1.636,8.305.563-1.483-.214-4.1-2.836-4.437-4.294a38.533,38.533,0,0,0-.8-4.414,5.234,5.234,0,0,0-3.106-3.17,6.309,6.309,0,0,0-5.258.962C171.163,350.935,169.114,350.114,166.84,349.471Z" transform="translate(-148.719 -345.419)" fill="#425831"/>
            <g id="Grupo_1165603" data-name="Grupo 1165603" transform="translate(21.747)">
              <path id="Trazado_991966" data-name="Trazado 991966" d="M171.121,357.088c1.517-2.453,5.056-9.385,1.107-11.4a.549.549,0,0,0-.806.6c.3,1.813.961,2.99.536,4.923a18.8,18.8,0,0,1-2.108,5.112.744.744,0,0,0,1.27.772Z" transform="translate(-169.747 -345.614)" fill="#425831"/>
            </g>
          </g>
          <g id="Grupo_1165606" data-name="Grupo 1165606" transform="translate(47.441 43.798)">
            <path id="Trazado_991967" data-name="Trazado 991967" d="M149.983,360.675c2.471,6.749-2.257,14.684-10.56,17.724s-17.037.033-19.507-6.716,2.257-14.684,10.56-17.724S147.513,353.926,149.983,360.675Z" transform="translate(-117.706 -346.752)" fill="#d63b00"/>
            <path id="Trazado_991968" data-name="Trazado 991968" d="M124.849,353.762c-1.374.506-3.947,9.41-7.068,9.436a7.547,7.547,0,0,0,7.092.249,10.817,10.817,0,0,0,5-5.253,4.453,4.453,0,0,0,.924,5.019,10.961,10.961,0,0,0,4.717,2.632,17.647,17.647,0,0,0,1.511-4.616,5.947,5.947,0,0,0-1.112-4.6,5.357,5.357,0,0,0,5.9,2.451c2.235-.525,6.04-2.364,7.051-4.425-1.325.7-4.981.112-6.114-.868a38.657,38.657,0,0,0-3.238-3.1,5.231,5.231,0,0,0-4.376-.74,6.308,6.308,0,0,0-3.688,3.869C129.208,352.405,127.068,352.946,124.849,353.762Z" transform="translate(-117.781 -346.906)" fill="#547c32"/>
            <g id="Grupo_1165605" data-name="Grupo 1165605" transform="translate(9.187)">
              <path id="Trazado_991969" data-name="Trazado 991969" d="M132.815,356.965c-.214-2.876-1.425-10.565-5.805-9.879a.549.549,0,0,0-.3.957c1.311,1.287,2.535,1.856,3.327,3.669a18.771,18.771,0,0,1,1.3,5.375.744.744,0,0,0,1.482-.122Z" transform="translate(-126.525 -347.043)" fill="#547c32"/>
            </g>
          </g>
          <g id="Grupo_1165609" data-name="Grupo 1165609" transform="translate(116.213 38.736)">
            <path id="Trazado_991970" data-name="Trazado 991970" d="M191.058,391.113a6.5,6.5,0,0,0,4.025-2.7c2.607-3.334,3.611-7.613,5.479-11.411,2.822-5.743,7.566-10.292,11.1-15.63,1.921-2.9,3.515-6.164,3.644-9.642s-1.492-7.187-4.613-8.728a9.228,9.228,0,0,0-8.076.356,19.077,19.077,0,0,0-6.215,5.516c-5.5,7.024-8.609,15.583-11.628,23.98C182.878,378.117,180.866,392.465,191.058,391.113Z" transform="translate(-183.231 -342.225)" fill="#547c32"/>
            <g id="Grupo_1165607" data-name="Grupo 1165607" transform="translate(10.119 7.457)">
              <path id="Trazado_991971" data-name="Trazado 991971" d="M206.8,349.671c-5.682,8.015-10.837,16.676-13.912,26.053-.189.577.719,1.052,1,.472,4.284-8.907,8.556-17.539,14.282-25.636.607-.858-.761-1.745-1.368-.889Z" transform="translate(-192.862 -349.322)" fill="#c6c93b"/>
            </g>
            <g id="Grupo_1165608" data-name="Grupo 1165608" transform="translate(5.747 7.654)">
              <path id="Trazado_991972" data-name="Trazado 991972" d="M200.025,349.731c-5.232,7.248-9.829,15.691-11.318,24.6-.086.514.691.6.859.154,3.227-8.489,6.258-16.564,11.326-24.186.372-.557-.479-1.1-.868-.564Z" transform="translate(-188.701 -349.51)" fill="#c6c93b"/>
            </g>
          </g>
          <g id="Grupo_1165629" data-name="Grupo 1165629" transform="translate(13.407)">
            <path id="Trazado_991973" data-name="Trazado 991973" d="M211.849,366.923c.289,22.045-5.142,49.759-10.317,73.28-.476,2.162-.993,4.414-2.4,6.125-1.984,2.413-5.275,3.226-8.339,3.833a216.061,216.061,0,0,1-83.65,0,11.263,11.263,0,0,1-5.1-1.941c-1.753-1.443-2.485-3.752-3.119-5.933-3.917-13.463-13.07-65.43-13.535-74.568-.106-2.1,23.405,1.934,29.292,1.881q22.124-.2,44.249-.4C175.994,369.047,194.786,367.078,211.849,366.923Z" transform="translate(-85.391 -302.236)" fill="#b06c3b"/>
            <g id="Grupo_1165610" data-name="Grupo 1165610" transform="translate(31.596)">
              <path id="Trazado_991974" data-name="Trazado 991974" d="M127.828,315.562c-7.918,9.086-11.143,21.285-12.09,33.064-1.157,14.392,1.611,29.113,2.554,43.466a2.139,2.139,0,0,0,4.274,0c1.5-13.444-1.474-27.056-.8-40.541.68-13.536,4.894-29.347,17.137-36.937a14.107,14.107,0,0,1,9.114-2.43,42.666,42.666,0,0,0,1.158-6.719C141.155,304.574,133.1,309.51,127.828,315.562Z" transform="translate(-115.46 -305.361)" fill="#b06c3b"/>
            </g>
            <g id="Grupo_1165611" data-name="Grupo 1165611" transform="translate(9.588 72.525)">
              <path id="Trazado_991975" data-name="Trazado 991975" d="M94.958,375.7a433.019,433.019,0,0,0,108.615-.1c.762-.1.771-1.305,0-1.209a458.683,458.683,0,0,1-108.615.375c-.6-.067-.584.857,0,.933Z" transform="translate(-94.515 -374.383)" fill="#c67b47"/>
            </g>
            <g id="Grupo_1165612" data-name="Grupo 1165612" transform="translate(9.462 80.089)">
              <path id="Trazado_991976" data-name="Trazado 991976" d="M94.839,382.9a433.018,433.018,0,0,0,108.615-.1c.762-.1.771-1.305,0-1.209a458.628,458.628,0,0,1-108.615.375c-.6-.067-.585.858,0,.933Z" transform="translate(-94.395 -381.582)" fill="#c67b47"/>
            </g>
            <g id="Grupo_1165613" data-name="Grupo 1165613" transform="translate(9.337 87.656)">
              <path id="Trazado_991977" data-name="Trazado 991977" d="M94.72,390.1a433.021,433.021,0,0,0,108.615-.1c.762-.1.771-1.3,0-1.208a458.679,458.679,0,0,1-108.615.375c-.6-.068-.585.857,0,.932Z" transform="translate(-94.276 -388.783)" fill="#c67b47"/>
            </g>
            <g id="Grupo_1165614" data-name="Grupo 1165614" transform="translate(9.211 95.22)">
              <path id="Trazado_991978" data-name="Trazado 991978" d="M94.6,397.294a433.02,433.02,0,0,0,108.615-.1c.762-.1.771-1.305,0-1.208a458.681,458.681,0,0,1-108.615.375c-.6-.068-.584.857,0,.932Z" transform="translate(-94.157 -395.982)" fill="#c67b47"/>
            </g>
            <g id="Grupo_1165615" data-name="Grupo 1165615" transform="translate(10.191 102.767)">
              <path id="Trazado_991979" data-name="Trazado 991979" d="M95.533,404.513a422.951,422.951,0,0,0,106.405-.136c.762-.1.771-1.305,0-1.208a448.544,448.544,0,0,1-106.405.412c-.6-.068-.585.857,0,.932Z" transform="translate(-95.089 -403.164)" fill="#c67b47"/>
            </g>
            <g id="Grupo_1165616" data-name="Grupo 1165616" transform="translate(12.796 110.307)">
              <path id="Trazado_991980" data-name="Trazado 991980" d="M97.9,411.743a375.814,375.814,0,0,0,101.2-.231c.767-.1.44-1.269-.322-1.165a396.335,396.335,0,0,1-100.757.481c-.516-.063-.644.845-.123.915Z" transform="translate(-97.569 -410.34)" fill="#c67b47"/>
            </g>
            <g id="Grupo_1165617" data-name="Grupo 1165617" transform="translate(13.776 117.853)">
              <path id="Trazado_991981" data-name="Trazado 991981" d="M98.834,418.962a366.341,366.341,0,0,0,98.992-.268c.767-.1.44-1.269-.322-1.165a386.777,386.777,0,0,1-98.547.517c-.517-.062-.644.845-.124.916Z" transform="translate(-98.502 -417.522)" fill="#c67b47"/>
            </g>
            <g id="Grupo_1165618" data-name="Grupo 1165618" transform="translate(15.585 125.385)">
              <path id="Trazado_991982" data-name="Trazado 991982" d="M100.555,426.195a332.763,332.763,0,0,0,95.124-.332c.767-.111.441-1.277-.322-1.165a350.748,350.748,0,0,1-94.679.581c-.516-.065-.644.842-.124.916Z" transform="translate(-100.223 -424.69)" fill="#c67b47"/>
            </g>
            <g id="Grupo_1165619" data-name="Grupo 1165619" transform="translate(17.67 132.913)">
              <path id="Trazado_991983" data-name="Trazado 991983" d="M102.539,433.432a303.09,303.09,0,0,0,90.7-.4c.767-.117.441-1.282-.322-1.165a319.372,319.372,0,0,1-90.258.655c-.516-.068-.643.837-.124.915Z" transform="translate(-102.207 -431.854)" fill="#c67b47"/>
            </g>
            <g id="Grupo_1165620" data-name="Grupo 1165620" transform="translate(17.555 140.125)">
              <path id="Trazado_991984" data-name="Trazado 991984" d="M102.435,439.714c30.066,5.26,60.366,3.718,90.534.216.764-.088.772-1.3,0-1.208-30.147,3.5-60.182,4.82-90.286.094-.584-.092-.843.794-.248.9Z" transform="translate(-102.097 -438.717)" fill="#c67b47"/>
            </g>
            <g id="Grupo_1165621" data-name="Grupo 1165621" transform="translate(14.218 72.123)">
              <path id="Trazado_991985" data-name="Trazado 991985" d="M98.926,374.7c2.729,24.03,8.054,48.025,13.81,71.488.27,1.1,1.97.635,1.7-.469-5.8-23.565-9.8-47.351-14.1-71.21-.141-.785-1.5-.615-1.408.191Z" transform="translate(-98.922 -374)" fill="#c67b47"/>
            </g>
            <g id="Grupo_1165622" data-name="Grupo 1165622" transform="translate(29.218 72.334)">
              <path id="Trazado_991986" data-name="Trazado 991986" d="M122.236,445.325c-2.712-23.495-5.431-46.985-7.773-70.521-.08-.8-1.343-.807-1.261,0,2.392,23.532,4.931,47.067,8,70.521.084.648,1.113.666,1.036,0Z" transform="translate(-113.197 -374.201)" fill="#c67b47"/>
            </g>
            <g id="Grupo_1165623" data-name="Grupo 1165623" transform="translate(42.67 75.858)">
              <path id="Trazado_991987" data-name="Trazado 991987" d="M131.4,448.059c-.439-11.649-1.846-23.291-2.584-34.929-.74-11.664-1.069-23.338-1.642-35.009a.588.588,0,0,0-1.175,0c.135,12.034.9,24.1,1.7,36.1.752,11.28,1.306,22.747,3.1,33.916.055.337.607.256.595-.08Z" transform="translate(-126 -377.555)" fill="#c67b47"/>
            </g>
            <g id="Grupo_1165624" data-name="Grupo 1165624" transform="translate(55.132 74.861)">
              <path id="Trazado_991988" data-name="Trazado 991988" d="M141.8,449.615c-1.172-24.137-2.9-48.244-2.717-72.425a.6.6,0,0,0-1.208,0c-.184,24.159,1.345,48.333,2.993,72.425.041.594.962.6.933,0Z" transform="translate(-137.86 -376.606)" fill="#c67b47"/>
            </g>
            <g id="Grupo_1165625" data-name="Grupo 1165625" transform="translate(69.189 76.565)">
              <path id="Trazado_991989" data-name="Trazado 991989" d="M152.239,449.925c.7-23.678,1.306-47.426,1.345-71.114a.6.6,0,0,0-1.208,0c-.787,23.674-1.012,47.427-1.138,71.114a.5.5,0,0,0,1,0Z" transform="translate(-151.238 -378.228)" fill="#c67b47"/>
            </g>
            <g id="Grupo_1165626" data-name="Grupo 1165626" transform="translate(79.921 73.67)">
              <path id="Trazado_991990" data-name="Trazado 991990" d="M162.557,448.008c3.876-23.721,5.205-47.892,5.221-71.9a.657.657,0,0,0-1.312,0c-.015,24.117-2.1,47.837-5.011,71.753-.077.622,1,.773,1.1.149Z" transform="translate(-161.451 -375.473)" fill="#c67b47"/>
            </g>
            <g id="Grupo_1165627" data-name="Grupo 1165627" transform="translate(87.999 72.004)">
              <path id="Trazado_991991" data-name="Trazado 991991" d="M170.041,447.616c4.925-23.909,6.96-48.768,9.138-73.05.081-.907-1.336-.9-1.416,0-2.177,24.412-6.109,48.576-8.62,72.928-.054.512.8.625.9.122Z" transform="translate(-169.14 -373.887)" fill="#c67b47"/>
            </g>
            <g id="Grupo_1165628" data-name="Grupo 1165628" transform="translate(98.188 70.756)">
              <path id="Trazado_991992" data-name="Trazado 991992" d="M179.811,446.153c2.862-13.921,4.811-28.01,7.213-42.013,1.755-10.233,4.642-20.593,4.351-31.057-.012-.416-.7-.555-.763-.1-3.308,24.353-7.375,48.7-11.767,72.908-.114.626.835.9.966.265Z" transform="translate(-178.836 -372.699)" fill="#c67b47"/>
            </g>
          </g>
        </g>
      </g>
    </g>
  </g>
</svg>
