<svg xmlns="http://www.w3.org/2000/svg" width="93.959" height="93.959" viewBox="0 0 93.959 93.959">
  <g id="Grupo_1165652" data-name="Grupo 1165652" transform="translate(-211.051 -434)">
    <g id="Grupo_1162378" data-name="Grupo 1162378">
      <g id="Grupo_1160604" data-name="Grupo 1160604" transform="translate(-509 -18)">
        <g id="Grupo_1154510" data-name="Grupo 1154510" transform="translate(720.051 452)">
          <g id="Grupo_1103990" data-name="Grupo 1103990" transform="translate(0)">
            <g id="Trazado_874102" data-name="Trazado 874102" transform="translate(0)" fill="#f0f7e8">
              <path d="M 46.97949600219727 91.45897674560547 C 40.97370910644531 91.45897674560547 35.14888000488281 90.28328704833984 29.66683959960938 87.96457672119141 C 24.37055397033691 85.72444915771484 19.61348152160645 82.51696014404297 15.52775287628174 78.43122863769531 C 11.44202423095703 74.34550476074219 8.234539031982422 69.58843231201172 5.994410514831543 64.29214477539062 C 3.675695896148682 58.81010437011719 2.500010251998901 52.98527526855469 2.500010251998901 46.97948837280273 C 2.500010251998901 40.97369003295898 3.675695896148682 35.14887237548828 5.994410514831543 29.66683197021484 C 8.234539031982422 24.37054634094238 11.44202423095703 19.61346054077148 15.52775287628174 15.52774524688721 C 19.61348152160645 11.4420166015625 24.37055397033691 8.234531402587891 29.66683959960938 5.994388580322266 C 35.14888000488281 3.67568826675415 40.97370910644531 2.50000262260437 46.97949600219727 2.50000262260437 C 52.98529434204102 2.50000262260437 58.81011199951172 3.67568826675415 64.29215240478516 5.994388580322266 C 69.58843994140625 8.234531402587891 74.34552764892578 11.4420166015625 78.43123626708984 15.52774524688721 C 82.5169677734375 19.61346054077148 85.72445678710938 24.37054634094238 87.964599609375 29.66683197021484 C 90.28329467773438 35.14887237548828 91.458984375 40.97369003295898 91.458984375 46.97948837280273 C 91.458984375 52.98527526855469 90.28329467773438 58.81010437011719 87.964599609375 64.29214477539062 C 85.72445678710938 69.58843231201172 82.5169677734375 74.34550476074219 78.43123626708984 78.43122863769531 C 74.34552764892578 82.51696014404297 69.58843994140625 85.72444915771484 64.29215240478516 87.96457672119141 C 58.81011199951172 90.28328704833984 52.98529434204102 91.45897674560547 46.97949600219727 91.45897674560547 Z" stroke="none"/>
              <path d="M 46.97949600219727 5.000007629394531 C 41.31009674072266 5.000007629394531 35.81294631958008 6.109237670898438 30.64072799682617 8.296905517578125 C 25.64242553710938 10.41100311279297 21.1524658203125 13.43856811523438 17.29550933837891 17.29550170898438 C 13.43857574462891 21.15245819091797 10.4110107421875 25.64241790771484 8.296913146972656 30.64072036743164 C 6.109245300292969 35.81293869018555 5.000015258789062 41.31008911132812 5.000015258789062 46.97948837280273 C 5.000015258789062 52.64888763427734 6.109245300292969 58.14603805541992 8.296913146972656 63.31825256347656 C 10.4110107421875 68.31653594970703 13.43857574462891 72.8065185546875 17.29550933837891 76.6634521484375 C 21.1524658203125 80.52040100097656 25.64242553710938 83.5479736328125 30.64072799682617 85.66207122802734 C 35.81294631958008 87.84973907470703 41.31009674072266 88.95896911621094 46.97949600219727 88.95896911621094 C 52.64889526367188 88.95896911621094 58.14604568481445 87.84973907470703 63.31826019287109 85.66207122802734 C 68.31655883789062 83.5479736328125 72.80653381347656 80.52040100097656 76.66348266601562 76.6634521484375 C 80.52041625976562 72.8065185546875 83.54798126220703 68.31653594970703 85.66207885742188 63.31825256347656 C 87.84974670410156 58.14603805541992 88.95897674560547 52.64888763427734 88.95897674560547 46.97948837280273 C 88.95897674560547 41.31008911132812 87.84974670410156 35.81293869018555 85.66207885742188 30.64072036743164 C 83.54798126220703 25.64241790771484 80.52041625976562 21.15245819091797 76.66348266601562 17.29550170898438 C 72.80653381347656 13.43856811523438 68.31655883789062 10.41100311279297 63.31826019287109 8.296905517578125 C 58.14604568481445 6.109237670898438 52.64889526367188 5.000007629394531 46.97949600219727 5.000007629394531 M 46.97949600219727 7.62939453125e-06 C 72.92554473876953 7.62939453125e-06 93.95897674560547 21.03343963623047 93.95897674560547 46.97948837280273 C 93.95897674560547 72.92552185058594 72.92554473876953 93.95896911621094 46.97949600219727 93.95896911621094 C 21.033447265625 93.95896911621094 1.52587890625e-05 72.92552185058594 1.52587890625e-05 46.97948837280273 C 1.52587890625e-05 21.03343963623047 21.033447265625 7.62939453125e-06 46.97949600219727 7.62939453125e-06 Z" stroke="none" fill="#fff"/>
            </g>
          </g>
        </g>
      </g>
    </g>
    <g id="planta_1_" data-name="planta (1)" transform="translate(230.051 452.978)">
      <circle id="Elipse_11808" data-name="Elipse 11808" cx="1.729" cy="1.729" r="1.729" transform="translate(0.865 13.836)" fill="#fdf57a"/>
      <path id="Trazado_992034" data-name="Trazado 992034" d="M62.323,4V8.323H58V4Z" transform="translate(-7.856 -0.539)" fill="#f14950"/>
      <path id="Trazado_992035" data-name="Trazado 992035" d="M51.144,56.645H54.6v4.323H1V56.645H8.781L15.7,50.594h6.916L25.207,48H35.582L39.9,52.323h6.916Z" transform="translate(-0.135 -6.499)" fill="#cc8964"/>
      <path id="Trazado_992036" data-name="Trazado 992036" d="M54.6,56.645v4.323H1V58.375H23.262a9.726,9.726,0,0,0,9.726-9.726V48h2.594L39.9,52.323h6.916l4.323,4.323Z" transform="translate(-0.135 -6.499)" fill="#9a4738"/>
      <path id="Trazado_992037" data-name="Trazado 992037" d="M12,29s13.746,3.821,16.841,7.15C16.219,42.513,12,29,12,29Z" transform="translate(-1.625 -3.925)" fill="#879a39"/>
      <path id="Trazado_992038" data-name="Trazado 992038" d="M16,1c3.406,2.55,13.513,15.156,13.824,15.553C29.4,16.4,16,11.21,16,1Z" transform="translate(-2.167 -0.132)" fill="#879a39"/>
      <path id="Trazado_992039" data-name="Trazado 992039" d="M32,17.222C32.086,16.694,33.963,6,43.239,6L32,17.239Z" transform="translate(-4.334 -0.81)" fill="#aac348"/>
      <path id="Trazado_992040" data-name="Trazado 992040" d="M12,28.8c9.51-5.187,17.291,6.916,17.291,6.916-.147.078-.3.156-.45.233C25.746,32.619,12,28.8,12,28.8Z" transform="translate(-1.625 -3.723)" fill="#aac348"/>
      <path id="Trazado_992041" data-name="Trazado 992041" d="M29.833,16.545v.017l-.009-.009C29.513,16.156,19.406,3.55,16,1c0,0,13.807,3.45,13.833,15.527Z" transform="translate(-2.167 -0.132)" fill="#aac348"/>
      <path id="Trazado_992042" data-name="Trazado 992042" d="M32.01,34.818c.147-.432,5.352-14.671,16.418-13.824C45.021,26.1,32.408,34.559,32.01,34.818Z" transform="translate(-4.336 -2.836)" fill="#aac348"/>
      <path id="Trazado_992043" data-name="Trazado 992043" d="M32,17.239,43.239,6S41.51,17.239,32,17.239Z" transform="translate(-4.334 -0.81)" fill="#879a39"/>
      <path id="Trazado_992044" data-name="Trazado 992044" d="M32.009,34.824c.4-.259,13.011-8.715,16.418-13.824,0,0-1.729,24.207-16.426,13.833Z" transform="translate(-4.334 -2.841)" fill="#879a39"/>
      <path id="Trazado_992045" data-name="Trazado 992045" d="M43.767,24.34a5.366,5.366,0,0,0-2,1.353c-.377.408.233,1.021.611.611A4.394,4.394,0,0,1,44,25.173C44.508,24.97,44.285,24.134,43.767,24.34Z" transform="translate(-5.642 -3.289)" fill="#fff"/>
      <path id="Trazado_992046" data-name="Trazado 992046" d="M40.56,26.875a.433.433,0,0,0,0,.865A.433.433,0,0,0,40.56,26.875Z" transform="translate(-5.437 -3.637)" fill="#fff"/>
      <g id="Grupo_1165651" data-name="Grupo 1165651" transform="translate(17.291 44.095)">
        <circle id="Elipse_11809" data-name="Elipse 11809" cx="0.865" cy="0.865" r="0.865" transform="translate(0 2.594)" fill="#cf735b"/>
        <circle id="Elipse_11810" data-name="Elipse 11810" cx="0.865" cy="0.865" r="0.865" transform="translate(6.052 2.594)" fill="#cf735b"/>
        <circle id="Elipse_11811" data-name="Elipse 11811" cx="0.865" cy="0.865" r="0.865" transform="translate(10.375)" fill="#cf735b"/>
        <circle id="Elipse_11812" data-name="Elipse 11812" cx="0.865" cy="0.865" r="0.865" transform="translate(13.833 2.594)" fill="#cf735b"/>
        <circle id="Elipse_11813" data-name="Elipse 11813" cx="0.865" cy="0.865" r="0.865" transform="translate(19.02 2.594)" fill="#cf735b"/>
      </g>
      <circle id="Elipse_11814" data-name="Elipse 11814" cx="0.865" cy="0.865" r="0.865" transform="translate(0 30.262)"/>
      <circle id="Elipse_11815" data-name="Elipse 11815" cx="0.865" cy="0.865" r="0.865" transform="translate(0 38.908)"/>
      <circle id="Elipse_11816" data-name="Elipse 11816" cx="0.865" cy="0.865" r="0.865" transform="translate(53.602 33.72)"/>
      <path id="Trazado_992047" data-name="Trazado 992047" d="M14.043.028S12.966-.1,12.968.868C13,10.62,24.118,15.887,26.8,17.013V29.429c-1.838-2.169-5.146-5.358-9.327-6.265a.864.864,0,0,0-.367,1.689,15.151,15.151,0,0,1,7.181,4.4,76.005,76.005,0,0,0-11.266-4.3,8.858,8.858,0,0,1,.937-.212.865.865,0,1,0-.255-1.711A11.32,11.32,0,0,0,9.96,24.316a.882.882,0,0,0-.411,1.017c.083.265,2.087,6.5,7.47,8.71a10.1,10.1,0,0,0,3.868.752,14.4,14.4,0,0,0,5.914-1.42V41.5a.865.865,0,0,0,.865.865h7.423l4.069,4.069a.866.866,0,0,0,.612.253h6.558l2.594,2.594H47.55a.865.865,0,0,0,0,1.729H53.6v2.594H1.729V51.011h12.1a.865.865,0,1,0,0-1.729H.865A.865.865,0,0,0,0,50.147V54.47a.865.865,0,0,0,.865.865h53.6a.865.865,0,0,0,.865-.865V50.147a.865.865,0,0,0-.865-.865h-3.1L47.3,45.213a.862.862,0,0,0-.611-.253H40.127L36.058,40.89a.862.862,0,0,0-.611-.253H28.53V33.578A11.438,11.438,0,0,0,34.3,35.442a7.008,7.008,0,0,0,3.035-.677c6.586-3.12,7.579-16,7.618-16.545,0,0,.094-.924-.8-.924C36,16.671,30.94,23.548,28.53,28.027V17.262c9.38-.652,11.211-11.824,11.229-11.94a.794.794,0,0,0-.854-1c-5.627-.014-8.726,3.654-10.375,6.925V7.784a.865.865,0,1,0-1.729,0V9.4a15.87,15.87,0,0,0-2.85-3.775.864.864,0,1,0-1.215,1.23,13.182,13.182,0,0,1,3.775,6.776c-2.206-2.7-5.971-7.22-8.945-10.382A22.171,22.171,0,0,1,20.26,4.822a.865.865,0,1,0,.98-1.426,24.552,24.552,0,0,0-7.2-3.368ZM36.595,33.2c-2.021.956-4.5.532-7.366-1.229,2.688-1.849,9.654-6.793,13.617-10.956C42.193,24.859,40.533,31.339,36.595,33.2Zm5.737-14.185c-3.041,3.51-9.149,8.045-12.608,10.5,1.922-3.739,6.087-10,12.608-10.5Zm-12.28-3.752L37.14,8.178C36.111,10.794,34.029,14.252,30.052,15.267Zm6.467-8.913L29.43,13.442C30.459,10.826,32.541,7.368,36.518,6.353ZM14.936,3.016c2.731,2.7,6.947,7.713,9.6,10.939-3.479-1.96-8.488-5.639-9.6-10.939Zm2.749,29.431c-3.086-1.261-4.927-4.2-5.82-6.042,4.779,1.43,11.026,3.69,13.757,5.591C22.668,33.232,20,33.392,17.685,32.447Z"/>
      <path id="Trazado_992048" data-name="Trazado 992048" d="M10.052,35H4.865a.865.865,0,0,0,0,1.729h5.187a.865.865,0,1,0,0-1.729Z" transform="translate(-0.542 -4.738)"/>
      <path id="Trazado_992049" data-name="Trazado 992049" d="M16.715,45.253A.862.862,0,0,0,16.1,45H4.865a.865.865,0,0,0,0,1.729H15.746L17.222,48.2a.864.864,0,0,0,1.222-1.222Z" transform="translate(-0.542 -6.092)"/>
      <path id="Trazado_992050" data-name="Trazado 992050" d="M49.865,36a.865.865,0,0,0,0,1.729H52.1l2.34,2.34a.862.862,0,0,0,.611.253h2.594a.865.865,0,1,0,0-1.729H55.41l-2.34-2.34A.862.862,0,0,0,52.458,36Z" transform="translate(-6.637 -4.873)"/>
      <path id="Trazado_992051" data-name="Trazado 992051" d="M27.308,47.253a.864.864,0,0,0-1.222,0l-2.34,2.34H17.187a.865.865,0,0,0-.57.214L12.295,53.59a.864.864,0,1,0,1.139,1.3l4.079-3.568H24.1a.862.862,0,0,0,.611-.253l2.594-2.594A.864.864,0,0,0,27.308,47.253Z" transform="translate(-1.625 -6.363)"/>
      <path id="Trazado_992052" data-name="Trazado 992052" d="M23.865,57a.865.865,0,1,0,0,1.729h4.323a.865.865,0,0,0,0-1.729Z" transform="translate(-3.115 -7.718)"/>
      <path id="Trazado_992053" data-name="Trazado 992053" d="M46.968,58.729a.865.865,0,1,0,0-1.729h-12.1a.865.865,0,0,0,0,1.729Z" transform="translate(-4.605 -7.718)"/>
      <path id="Trazado_992054" data-name="Trazado 992054" d="M60.7,3H56.375a.865.865,0,0,0-.865.865V5.594H53.781a.862.862,0,0,0-.611.253L49.1,9.916H46.865a.865.865,0,0,0,0,1.729h2.594a.862.862,0,0,0,.611-.253l4.069-4.069H55.51v.865a.865.865,0,0,0,.865.865H60.7a.865.865,0,0,0,.865-.865V3.865A.865.865,0,0,0,60.7,3Zm-.865,4.323H57.239V4.729h2.594Z" transform="translate(-6.231 -0.403)"/>
      <path id="Trazado_992055" data-name="Trazado 992055" d="M61.645,14H53.865a.865.865,0,1,0,0,1.729h7.781a.865.865,0,1,0,0-1.729Z" transform="translate(-7.179 -1.893)"/>
      <path id="Trazado_992056" data-name="Trazado 992056" d="M53.865,19.729h6.052a.865.865,0,0,0,0-1.729H53.865a.865.865,0,0,0,0,1.729Z" transform="translate(-7.179 -2.435)"/>
      <path id="Trazado_992057" data-name="Trazado 992057" d="M53.865,23.729h4.323a.865.865,0,1,0,0-1.729H53.865a.865.865,0,1,0,0,1.729Z" transform="translate(-7.179 -2.977)"/>
      <path id="Trazado_992058" data-name="Trazado 992058" d="M.865,24.729H6.916a.865.865,0,1,0,0-1.729H.865a.865.865,0,0,0,0,1.729Z" transform="translate(0 -3.112)"/>
      <path id="Trazado_992059" data-name="Trazado 992059" d="M.865,28.729H5.187a.865.865,0,1,0,0-1.729H.865a.865.865,0,0,0,0,1.729Z" transform="translate(0 -3.654)"/>
      <path id="Trazado_992060" data-name="Trazado 992060" d="M2.594,18.562a2.59,2.59,0,0,0,2.435-1.729h11.9l7.528,7.528a.864.864,0,0,0,1.222-1.222L17.9,15.357a.862.862,0,0,0-.611-.253H10.375V9.916a.862.862,0,0,0-.253-.611L4.069,3.253A.864.864,0,0,0,2.847,4.476l5.8,5.8V15.1H5.028a2.589,2.589,0,1,0-2.435,3.458Zm0-3.458a.865.865,0,1,1-.865.865A.866.866,0,0,1,2.594,15.1Z" transform="translate(0 -0.403)"/>
      <path id="Trazado_992061" data-name="Trazado 992061" d="M40.926,35.012c.254-.193.5-.4.733-.608a.866.866,0,0,1,1.459.74,1.762,1.762,0,0,1-1.379,1.368.866.866,0,0,1-.814-1.5Z" transform="translate(-5.498 -4.625)" fill="#65732b"/>
      <path id="Trazado_992062" data-name="Trazado 992062" d="M44,31.323,47.458,27S46.594,32.187,44,31.323Z" transform="translate(-5.96 -3.654)" fill="#65732b"/>
    </g>
  </g>
</svg>
