<svg xmlns="http://www.w3.org/2000/svg" width="93.959" height="93.959" viewBox="0 0 93.959 93.959">
  <g id="Grupo_1166258" data-name="Grupo 1166258" transform="translate(-212.774 -441)">
    <g id="Grupo_1165229" data-name="Grupo 1165229" transform="translate(-523.276 -1212)">
      <g id="Grupo_1155243" data-name="Grupo 1155243" transform="translate(736.051 1653)">
        <g id="Grupo_1103990" data-name="Grupo 1103990" transform="translate(0)">
          <g id="Trazado_874102" data-name="Trazado 874102" transform="translate(0)" fill="#e4f7fa">
            <path d="M 46.97949600219727 91.45897674560547 C 40.97370910644531 91.45897674560547 35.14888000488281 90.28328704833984 29.66683959960938 87.96457672119141 C 24.37055397033691 85.72444915771484 19.61348152160645 82.51696014404297 15.52775287628174 78.43122863769531 C 11.44202423095703 74.34550476074219 8.234539031982422 69.58843231201172 5.994410514831543 64.29214477539062 C 3.675695896148682 58.81010437011719 2.500010251998901 52.98527526855469 2.500010251998901 46.97948837280273 C 2.500010251998901 40.97369003295898 3.675695896148682 35.14887237548828 5.994410514831543 29.66683197021484 C 8.234539031982422 24.37054634094238 11.44202423095703 19.61346054077148 15.52775287628174 15.52774524688721 C 19.61348152160645 11.4420166015625 24.37055397033691 8.234531402587891 29.66683959960938 5.994388580322266 C 35.14888000488281 3.67568826675415 40.97370910644531 2.50000262260437 46.97949600219727 2.50000262260437 C 52.98529434204102 2.50000262260437 58.81011199951172 3.67568826675415 64.29215240478516 5.994388580322266 C 69.58843994140625 8.234531402587891 74.34552764892578 11.4420166015625 78.43123626708984 15.52774524688721 C 82.5169677734375 19.61346054077148 85.72445678710938 24.37054634094238 87.964599609375 29.66683197021484 C 90.28329467773438 35.14887237548828 91.458984375 40.97369003295898 91.458984375 46.97948837280273 C 91.458984375 52.98527526855469 90.28329467773438 58.81010437011719 87.964599609375 64.29214477539062 C 85.72445678710938 69.58843231201172 82.5169677734375 74.34550476074219 78.43123626708984 78.43122863769531 C 74.34552764892578 82.51696014404297 69.58843994140625 85.72444915771484 64.29215240478516 87.96457672119141 C 58.81011199951172 90.28328704833984 52.98529434204102 91.45897674560547 46.97949600219727 91.45897674560547 Z" stroke="none"/>
            <path d="M 46.97949600219727 5.000007629394531 C 41.31009674072266 5.000007629394531 35.81294631958008 6.109237670898438 30.64072799682617 8.296905517578125 C 25.64242553710938 10.41100311279297 21.1524658203125 13.43856811523438 17.29550933837891 17.29550170898438 C 13.43857574462891 21.15245819091797 10.4110107421875 25.64241790771484 8.296913146972656 30.64072036743164 C 6.109245300292969 35.81293869018555 5.000015258789062 41.31008911132812 5.000015258789062 46.97948837280273 C 5.000015258789062 52.64888763427734 6.109245300292969 58.14603805541992 8.296913146972656 63.31825256347656 C 10.4110107421875 68.31653594970703 13.43857574462891 72.8065185546875 17.29550933837891 76.6634521484375 C 21.1524658203125 80.52040100097656 25.64242553710938 83.5479736328125 30.64072799682617 85.66207122802734 C 35.81294631958008 87.84973907470703 41.31009674072266 88.95896911621094 46.97949600219727 88.95896911621094 C 52.64889526367188 88.95896911621094 58.14604568481445 87.84973907470703 63.31826019287109 85.66207122802734 C 68.31655883789062 83.5479736328125 72.80653381347656 80.52040100097656 76.66348266601562 76.6634521484375 C 80.52041625976562 72.8065185546875 83.54798126220703 68.31653594970703 85.66207885742188 63.31825256347656 C 87.84974670410156 58.14603805541992 88.95897674560547 52.64888763427734 88.95897674560547 46.97948837280273 C 88.95897674560547 41.31008911132812 87.84974670410156 35.81293869018555 85.66207885742188 30.64072036743164 C 83.54798126220703 25.64241790771484 80.52041625976562 21.15245819091797 76.66348266601562 17.29550170898438 C 72.80653381347656 13.43856811523438 68.31655883789062 10.41100311279297 63.31826019287109 8.296905517578125 C 58.14604568481445 6.109237670898438 52.64889526367188 5.000007629394531 46.97949600219727 5.000007629394531 M 46.97949600219727 7.62939453125e-06 C 72.92554473876953 7.62939453125e-06 93.95897674560547 21.03343963623047 93.95897674560547 46.97948837280273 C 93.95897674560547 72.92552185058594 72.92554473876953 93.95896911621094 46.97949600219727 93.95896911621094 C 21.033447265625 93.95896911621094 1.52587890625e-05 72.92552185058594 1.52587890625e-05 46.97948837280273 C 1.52587890625e-05 21.03343963623047 21.033447265625 7.62939453125e-06 46.97949600219727 7.62939453125e-06 Z" stroke="none" fill="#fff"/>
          </g>
        </g>
      </g>
    </g>
    <g id="tecnologia_1_" data-name="tecnologia (1)" transform="translate(230.774 460)">
      <g id="Grupo_1166256" data-name="Grupo 1166256" transform="translate(0.913 0.913)">
        <g id="Grupo_1166245" data-name="Grupo 1166245" transform="translate(37.413)">
          <path id="Trazado_992767" data-name="Trazado 992767" d="M51.125,1V8.3H42V1Z" transform="translate(-42 -1)" fill="#f0d0b4"/>
        </g>
        <g id="Grupo_1166246" data-name="Grupo 1166246" transform="translate(8.213)">
          <path id="Trazado_992768" data-name="Trazado 992768" d="M19.125,1V8.3H10V1Z" transform="translate(-10 -1)" fill="#f0d0b4"/>
        </g>
        <g id="Grupo_1166247" data-name="Grupo 1166247" transform="translate(22.813)">
          <path id="Trazado_992769" data-name="Trazado 992769" d="M35.125,1V8.3H26V1Z" transform="translate(-26 -1)" fill="#f0d0b4"/>
        </g>
        <g id="Grupo_1166248" data-name="Grupo 1166248" transform="translate(3.65 12.775)">
          <path id="Trazado_992770" data-name="Trazado 992770" d="M52.451,49.676H5V18.65A3.65,3.65,0,0,1,8.65,15H48.8a3.65,3.65,0,0,1,3.65,3.65Z" transform="translate(-5 -15)" fill="#ccd1d9"/>
        </g>
        <g id="Grupo_1166249" data-name="Grupo 1166249" transform="translate(7.3 16.425)">
          <path id="Trazado_992771" data-name="Trazado 992771" d="M48.238,46.376H9.913A.913.913,0,0,1,9,45.463V19.913A.913.913,0,0,1,9.913,19H48.238a.913.913,0,0,1,.913.913V45.463A.913.913,0,0,1,48.238,46.376Z" transform="translate(-9 -19)" fill="#69d6f4"/>
        </g>
        <g id="Grupo_1166250" data-name="Grupo 1166250" transform="translate(0 47.451)">
          <path id="Trazado_992772" data-name="Trazado 992772" d="M53.926,53H2.825a1.784,1.784,0,0,0-1.287.538A1.784,1.784,0,0,0,1,54.825,5.479,5.479,0,0,0,6.475,60.3h43.8a5.483,5.483,0,0,0,5.475-5.475A1.83,1.83,0,0,0,53.926,53Z" transform="translate(-1 -53)" fill="#969faa"/>
        </g>
        <g id="Grupo_1166251" data-name="Grupo 1166251" transform="translate(45.626 51.101)">
          <path id="Trazado_992773" data-name="Trazado 992773" d="M51,57h3.65v3.65H51Z" transform="translate(-51 -57)" fill="#ff826e"/>
        </g>
        <g id="Grupo_1166252" data-name="Grupo 1166252" transform="translate(38.326 51.101)">
          <path id="Trazado_992774" data-name="Trazado 992774" d="M43,57h3.65v3.65H43Z" transform="translate(-43 -57)" fill="#ff826e"/>
        </g>
        <g id="Grupo_1166253" data-name="Grupo 1166253" transform="translate(20.988 47.451)">
          <path id="Trazado_992775" data-name="Trazado 992775" d="M36.775,53v1.825A1.83,1.83,0,0,1,34.95,56.65H25.825A1.83,1.83,0,0,1,24,54.825V53Z" transform="translate(-24 -53)" fill="#ff826e"/>
        </g>
        <g id="Grupo_1166254" data-name="Grupo 1166254" transform="translate(12.775 26.463)">
          <path id="Trazado_992776" data-name="Trazado 992776" d="M44.2,41.863v5.475H38.315V47.31a9.126,9.126,0,1,0-17.84-2.71,9.041,9.041,0,0,0,.42,2.738H15V41.863l2.318-.739a13.258,13.258,0,0,1,1.132-2.756l-1.113-2.154,3.878-3.878,2.154,1.113a13.258,13.258,0,0,1,2.756-1.132L26.863,30h5.475l.739,2.318a13.258,13.258,0,0,1,2.756,1.132l2.154-1.113,3.878,3.878-1.113,2.154a13.258,13.258,0,0,1,1.132,2.756Z" transform="translate(-15 -30)" fill="#ffc729"/>
        </g>
        <g id="Grupo_1166255" data-name="Grupo 1166255" transform="translate(18.25 31.938)">
          <path id="Trazado_992777" data-name="Trazado 992777" d="M39.25,45.125a9.147,9.147,0,0,1-.411,2.71v.027H32.534a3.6,3.6,0,0,0,1.241-2.738,3.65,3.65,0,1,0-7.3,0,3.6,3.6,0,0,0,1.241,2.738h-6.3A9.125,9.125,0,1,1,39.25,45.125Z" transform="translate(-21 -36)" fill="#fcd770"/>
        </g>
      </g>
      <g id="Grupo_1166257" data-name="Grupo 1166257">
        <path id="Trazado_992778" data-name="Trazado 992778" d="M53.839,48.676h-.913V18.563A4.568,4.568,0,0,0,48.364,14H45.626v1.825h2.738A2.741,2.741,0,0,1,51.1,18.563V48.676H5.475V18.563a2.741,2.741,0,0,1,2.738-2.738H10.95V14H8.213A4.568,4.568,0,0,0,3.65,18.563V48.676H2.738A2.741,2.741,0,0,0,0,51.413,6.4,6.4,0,0,0,6.388,57.8h43.8a6.4,6.4,0,0,0,6.388-6.388A2.741,2.741,0,0,0,53.839,48.676ZM22.813,50.5h10.95v.913a.913.913,0,0,1-.913.913H23.725a.913.913,0,0,1-.913-.913Zm19.163,5.475H40.151V54.151h1.825Zm7.3,0H47.451V54.151h1.825Zm1.825-.092V52.326H45.626v3.65H43.8v-3.65H38.326v3.65H6.388a4.568,4.568,0,0,1-4.563-4.563.913.913,0,0,1,.913-.913h18.25v.913a2.741,2.741,0,0,0,2.738,2.738h9.125a2.741,2.741,0,0,0,2.738-2.738V50.5h18.25a.913.913,0,0,1,.913.913,4.571,4.571,0,0,1-3.65,4.47Z" transform="translate(0 -1.225)"/>
        <path id="Trazado_992779" data-name="Trazado 992779" d="M20.775,19.825V18H9.825A1.827,1.827,0,0,0,8,19.825V45.376A1.827,1.827,0,0,0,9.825,47.2H48.151a1.827,1.827,0,0,0,1.825-1.825V19.825A1.827,1.827,0,0,0,48.151,18H37.2v1.825h10.95V45.376H44.5V40.148l-2.495-.8a13.743,13.743,0,0,0-.839-2.034l1.2-2.326-4.813-4.813-2.326,1.2a13.784,13.784,0,0,0-2.034-.839l-.8-2.5H25.584l-.8,2.495a13.743,13.743,0,0,0-2.034.839l-2.326-1.2-4.813,4.813,1.2,2.326a13.784,13.784,0,0,0-.839,2.034l-2.5.8v5.228H9.825V19.825Zm0,23.725a8.213,8.213,0,1,1,16.2,1.825H33.166a4.563,4.563,0,1,0-8.357,0H21A8.219,8.219,0,0,1,20.775,43.551Zm5.475,0a2.738,2.738,0,1,1,4.756,1.825H26.969a2.729,2.729,0,0,1-.718-1.825ZM15.3,41.478l2.15-.688.133-.472a11.762,11.762,0,0,1,1.052-2.552l.239-.428-1.031-2,2.931-2.931,2,1.031L23.2,33.2a11.762,11.762,0,0,1,2.552-1.052l.472-.133.687-2.149h4.144l.688,2.15.472.133A11.762,11.762,0,0,1,34.771,33.2l.428.239,2-1.031,2.931,2.931-1.031,2,.239.428a11.762,11.762,0,0,1,1.052,2.552l.133.472,2.15.687v3.9H38.853a10.038,10.038,0,1,0-19.73,0H15.3Z" transform="translate(-0.7 -1.575)"/>
        <path id="Trazado_992780" data-name="Trazado 992780" d="M13,4h3.65V5.825H13Z" transform="translate(-1.137 -0.35)"/>
        <path id="Trazado_992781" data-name="Trazado 992781" d="M29,4h3.65V5.825H29Z" transform="translate(-2.537 -0.35)"/>
        <path id="Trazado_992782" data-name="Trazado 992782" d="M45,4h3.65V5.825H45Z" transform="translate(-3.937 -0.35)"/>
        <path id="Trazado_992783" data-name="Trazado 992783" d="M29.563,24.638h1.825V9.125H35.95V0H25V9.125h4.563ZM26.825,1.825h7.3V7.3h-7.3Z" transform="translate(-2.187)"/>
        <path id="Trazado_992784" data-name="Trazado 992784" d="M45.125,12.775H36V24.638h1.825V14.6H46.95V9.125h4.563V0H40.563V9.125h4.563ZM42.388,1.825h7.3V7.3h-7.3Z" transform="translate(-3.149)"/>
        <path id="Trazado_992785" data-name="Trazado 992785" d="M13.563,14.6h9.125V24.638h1.825V12.775H15.388V9.125H19.95V0H9V9.125h4.563ZM10.825,1.825h7.3V7.3h-7.3Z" transform="translate(-0.787)"/>
      </g>
    </g>
  </g>
</svg>
