<svg xmlns="http://www.w3.org/2000/svg" xmlns:xlink="http://www.w3.org/1999/xlink" width="105.781" height="105.781" viewBox="0 0 105.781 105.781">
  <defs>
    <filter id="Trazado_985596" x="0" y="0" width="105.781" height="105.781" filterUnits="userSpaceOnUse">
      <feOffset dy="3" input="SourceAlpha"/>
      <feGaussianBlur stdDeviation="3" result="blur"/>
      <feFlood flood-opacity="0.161"/>
      <feComposite operator="in" in2="blur"/>
      <feComposite in="SourceGraphic"/>
    </filter>
  </defs>
  <g id="Grupo_1165440" data-name="Grupo 1165440" transform="translate(-747.051 -2573)">
    <g id="Grupo_1163752" data-name="Grupo 1163752" transform="translate(-0.949 1464.332)">
      <g transform="matrix(1, 0, 0, 1, 748, 1108.67)" filter="url(#Trazado_985596)">
        <g id="Trazado_985596-2" data-name="Trazado 985596" transform="translate(9 6)" fill="#f3d02c">
          <path d="M 43.8906364440918 85.28125762939453 C 38.30183792114258 85.28125762939453 32.88154220581055 84.18724060058594 27.78030395507812 82.02960205078125 C 22.85183715820312 79.94503021240234 18.42508888244629 76.96026611328125 14.62304973602295 73.15821838378906 C 10.82099628448486 69.35617828369141 7.836236476898193 64.92942810058594 5.751663208007812 60.00096130371094 C 3.59402322769165 54.89972305297852 2.500009775161743 49.47942733764648 2.500009775161743 43.89062881469727 C 2.500009775161743 38.30183029174805 3.59402322769165 32.88153457641602 5.751663208007812 27.78029632568359 C 7.836236476898193 22.85182952880859 10.82099628448486 18.42508125305176 14.62304973602295 14.62304210662842 C 18.42508888244629 10.82098865509033 22.85183715820312 7.836228847503662 27.78030395507812 5.751655578613281 C 32.88154220581055 3.594015598297119 38.30183792114258 2.500002145767212 43.8906364440918 2.500002145767212 C 49.47943496704102 2.500002145767212 54.89973068237305 3.594015598297119 60.00096893310547 5.751655578613281 C 64.92943572998047 7.836228847503662 69.35618591308594 10.82098865509033 73.15822601318359 14.62304210662842 C 76.96027374267578 18.42508125305176 79.94503784179688 22.85182952880859 82.02960968017578 27.78029632568359 C 84.18724822998047 32.88153457641602 85.28126525878906 38.30183029174805 85.28126525878906 43.89062881469727 C 85.28126525878906 49.47942733764648 84.18724822998047 54.89972305297852 82.02960968017578 60.00096130371094 C 79.94503784179688 64.92942810058594 76.96027374267578 69.35617828369141 73.15822601318359 73.15821838378906 C 69.35618591308594 76.96026611328125 64.92943572998047 79.94503021240234 60.00096893310547 82.02960205078125 C 54.89973068237305 84.18724060058594 49.47943496704102 85.28125762939453 43.8906364440918 85.28125762939453 Z" stroke="none"/>
          <path d="M 43.8906364440918 4.999992370605469 C 38.63823699951172 4.999992370605469 33.54560470581055 6.027565002441406 28.75418472290039 8.054161071777344 C 24.12371826171875 10.0126953125 19.96407318115234 12.81754302978516 16.39080047607422 16.39079284667969 C 12.81755065917969 19.96406555175781 10.01270294189453 24.12371063232422 8.054168701171875 28.75417709350586 C 6.027572631835938 33.54559707641602 5 38.63822937011719 5 43.89062881469727 C 5 49.14302825927734 6.027572631835938 54.23566055297852 8.054168701171875 59.02707672119141 C 10.01270294189453 63.65754699707031 12.81755065917969 67.81719970703125 16.39080047607422 71.39046478271484 C 19.96407318115234 74.96371459960938 24.12371826171875 77.76856231689453 28.75418472290039 79.72709655761719 C 33.54560470581055 81.75369262695312 38.63823699951172 82.78126525878906 43.8906364440918 82.78126525878906 C 49.14303588867188 82.78126525878906 54.23566818237305 81.75369262695312 59.02708435058594 79.72709655761719 C 63.65755462646484 77.76856231689453 67.81719970703125 74.96371459960938 71.39047241210938 71.39046478271484 C 74.96372222900391 67.81719970703125 77.76856994628906 63.65754699707031 79.72710418701172 59.02707672119141 C 81.75370025634766 54.23566055297852 82.78127288818359 49.14302825927734 82.78127288818359 43.89062881469727 C 82.78127288818359 38.63822937011719 81.75370025634766 33.54559707641602 79.72710418701172 28.75417709350586 C 77.76856994628906 24.12371063232422 74.96372222900391 19.96406555175781 71.39047241210938 16.39079284667969 C 67.81719970703125 12.81754302978516 63.65755462646484 10.0126953125 59.02708435058594 8.054161071777344 C 54.23566818237305 6.027565002441406 49.14303588867188 4.999992370605469 43.8906364440918 4.999992370605469 M 43.8906364440918 -7.62939453125e-06 C 68.13075256347656 -7.62939453125e-06 87.78127288818359 19.6505126953125 87.78127288818359 43.89062881469727 C 87.78127288818359 68.13074493408203 68.13075256347656 87.78126525878906 43.8906364440918 87.78126525878906 C 19.65052032470703 87.78126525878906 0 68.13074493408203 0 43.89062881469727 C 0 19.6505126953125 19.65052032470703 -7.62939453125e-06 43.8906364440918 -7.62939453125e-06 Z" stroke="none" fill="#fff"/>
        </g>
      </g>
    </g>
    <g id="codigo-binario" transform="translate(775.051 2598)">
      <path id="Trazado_991702" data-name="Trazado 991702" d="M45.484,53.954H2V26H45.484Z" transform="translate(-0.223 -5.587)" fill="#e6e9ed"/>
      <path id="Trazado_991703" data-name="Trazado 991703" d="M2,18H20.636v6.212H2Z" transform="translate(-0.223 -3.799)" fill="#b4dd7f"/>
      <path id="Trazado_991704" data-name="Trazado 991704" d="M50.848,2H29.106A3.105,3.105,0,0,0,26,5.106v15.53a3.105,3.105,0,0,0,3.106,3.106H50.848a3.105,3.105,0,0,0,3.106-3.106V5.106A3.105,3.105,0,0,0,50.848,2Z" transform="translate(-5.587 -0.223)" fill="#fcd770"/>
      <path id="Trazado_991705" data-name="Trazado 991705" d="M48.413,6.335l-1.16,1.033,5.753,6.472-5.753,6.472,1.16,1.033,6.671-7.5Z" transform="translate(-10.337 -1.192)"/>
      <path id="Trazado_991706" data-name="Trazado 991706" d="M37.333,6.335l-6.671,7.5,6.671,7.5,1.16-1.033L32.74,13.84l5.753-6.472Z" transform="translate(-6.629 -1.192)"/>
      <path id="Trazado_991707" data-name="Trazado 991707" d="M0,0H17.154V1.553H0Z" transform="translate(32.835 21.113) rotate(-84.837)"/>
      <path id="Trazado_991708" data-name="Trazado 991708" d="M21.253,39.367l5.753,6.473-5.753,6.473,1.16,1.031,6.671-7.5-6.671-7.5Z" transform="translate(-4.527 -8.345)"/>
      <path id="Trazado_991709" data-name="Trazado 991709" d="M11.333,38.336l-6.671,7.5,6.671,7.5,1.16-1.031L6.74,45.84l5.753-6.473Z" transform="translate(-0.818 -8.345)"/>
      <path id="Trazado_991710" data-name="Trazado 991710" d="M0,0H17.154V1.553H0Z" transform="translate(12.654 45.972) rotate(-84.78)"/>
      <path id="Trazado_991711" data-name="Trazado 991711" d="M5,21H6.553v1.553H5Z" transform="translate(-0.894 -4.47)"/>
      <path id="Trazado_991712" data-name="Trazado 991712" d="M9,21h1.553v1.553H9Z" transform="translate(-1.788 -4.47)"/>
      <path id="Trazado_991713" data-name="Trazado 991713" d="M13,21h1.553v1.553H13Z" transform="translate(-2.682 -4.47)"/>
      <path id="Trazado_991714" data-name="Trazado 991714" d="M21,29h1.553v1.553H21Z" transform="translate(-4.47 -6.258)"/>
      <path id="Trazado_991715" data-name="Trazado 991715" d="M17,29h1.553v1.553H17Z" transform="translate(-3.576 -6.258)"/>
      <path id="Trazado_991716" data-name="Trazado 991716" d="M5,29h7.765v1.553H5Z" transform="translate(-0.894 -6.258)"/>
      <path id="Trazado_991717" data-name="Trazado 991717" d="M41,39h1.553v6.212H41Z" transform="translate(-8.94 -8.493)"/>
      <path id="Trazado_991718" data-name="Trazado 991718" d="M53,39h1.553v6.212H53Z" transform="translate(-11.622 -8.493)"/>
      <path id="Trazado_991719" data-name="Trazado 991719" d="M37.659,43.659V40.553A1.555,1.555,0,0,0,36.106,39H34.553A1.555,1.555,0,0,0,33,40.553v3.106a1.555,1.555,0,0,0,1.553,1.553h1.553A1.555,1.555,0,0,0,37.659,43.659Zm-3.106-3.106h1.553l0,3.106H34.553Z" transform="translate(-7.152 -8.493)"/>
      <path id="Trazado_991720" data-name="Trazado 991720" d="M49.659,43.659V40.553A1.555,1.555,0,0,0,48.106,39H46.553A1.555,1.555,0,0,0,45,40.553v3.106a1.555,1.555,0,0,0,1.553,1.553h1.553A1.555,1.555,0,0,0,49.659,43.659Zm-3.106-3.106h1.553l0,3.106H46.553Z" transform="translate(-9.834 -8.493)"/>
      <path id="Trazado_991721" data-name="Trazado 991721" d="M33,49h1.553v6.212H33Z" transform="translate(-7.152 -10.728)"/>
      <path id="Trazado_991722" data-name="Trazado 991722" d="M40.106,49H38.553A1.555,1.555,0,0,0,37,50.553v3.106a1.555,1.555,0,0,0,1.553,1.553h1.553a1.555,1.555,0,0,0,1.553-1.553V50.553A1.555,1.555,0,0,0,40.106,49Zm0,4.659H38.553V50.553h1.553Z" transform="translate(-8.046 -10.728)"/>
      <path id="Trazado_991723" data-name="Trazado 991723" d="M45,49h1.553v6.212H45Z" transform="translate(-9.834 -10.728)"/>
      <path id="Trazado_991724" data-name="Trazado 991724" d="M52.106,49H50.553A1.555,1.555,0,0,0,49,50.553v3.106a1.555,1.555,0,0,0,1.553,1.553h1.553a1.555,1.555,0,0,0,1.553-1.553V50.553A1.555,1.555,0,0,0,52.106,49Zm0,4.659H50.553V50.553h1.553Z" transform="translate(-10.728 -10.728)"/>
      <path id="Trazado_991725" data-name="Trazado 991725" d="M45.261,1H23.519a3.887,3.887,0,0,0-3.883,3.883v8.542H1V49.143H46.037V24.217a3.889,3.889,0,0,0,3.106-3.8V4.883A3.887,3.887,0,0,0,45.261,1ZM19.636,14.977v4.659H2.553V14.977ZM2.553,47.59v-26.4H19.714a3.889,3.889,0,0,0,3.8,3.106H44.484v23.3ZM47.59,20.413a2.332,2.332,0,0,1-2.33,2.33H23.519a2.332,2.332,0,0,1-2.33-2.33V4.883a2.332,2.332,0,0,1,2.33-2.33H45.261a2.332,2.332,0,0,1,2.33,2.33Z"/>
      <circle id="Elipse_11793" data-name="Elipse 11793" cx="1" cy="1" r="1" transform="translate(44 19.143)"/>
      <circle id="Elipse_11794" data-name="Elipse 11794" cx="1" cy="1" r="1" transform="translate(44 4.143)"/>
      <ellipse id="Elipse_11795" data-name="Elipse 11795" cx="0.5" cy="1" rx="0.5" ry="1" transform="translate(23 19.143)"/>
      <ellipse id="Elipse_11796" data-name="Elipse 11796" cx="0.5" cy="1" rx="0.5" ry="1" transform="translate(23 4.143)"/>
    </g>
  </g>
</svg>
