<svg xmlns="http://www.w3.org/2000/svg" width="93.959" height="93.959" viewBox="0 0 93.959 93.959">
  <g id="Grupo_1165435" data-name="Grupo 1165435" transform="translate(-212.051 -1006)">
    <g id="Grupo_1162383" data-name="Grupo 1162383" transform="translate(-524 -647)">
      <g id="Grupo_1155243" data-name="Grupo 1155243" transform="translate(736.051 1653)">
        <g id="Grupo_1103990" data-name="Grupo 1103990" transform="translate(0)">
          <g id="Trazado_874102" data-name="Trazado 874102" transform="translate(0)" fill="#e4f7fa">
            <path d="M 46.97949600219727 91.45897674560547 C 40.97370910644531 91.45897674560547 35.14888000488281 90.28328704833984 29.66683959960938 87.96457672119141 C 24.37055397033691 85.72444915771484 19.61348152160645 82.51696014404297 15.52775287628174 78.43122863769531 C 11.44202423095703 74.34550476074219 8.234539031982422 69.58843231201172 5.994410514831543 64.29214477539062 C 3.675695896148682 58.81010437011719 2.500010251998901 52.98527526855469 2.500010251998901 46.97948837280273 C 2.500010251998901 40.97369003295898 3.675695896148682 35.14887237548828 5.994410514831543 29.66683197021484 C 8.234539031982422 24.37054634094238 11.44202423095703 19.61346054077148 15.52775287628174 15.52774524688721 C 19.61348152160645 11.4420166015625 24.37055397033691 8.234531402587891 29.66683959960938 5.994388580322266 C 35.14888000488281 3.67568826675415 40.97370910644531 2.50000262260437 46.97949600219727 2.50000262260437 C 52.98529434204102 2.50000262260437 58.81011199951172 3.67568826675415 64.29215240478516 5.994388580322266 C 69.58843994140625 8.234531402587891 74.34552764892578 11.4420166015625 78.43123626708984 15.52774524688721 C 82.5169677734375 19.61346054077148 85.72445678710938 24.37054634094238 87.964599609375 29.66683197021484 C 90.28329467773438 35.14887237548828 91.458984375 40.97369003295898 91.458984375 46.97948837280273 C 91.458984375 52.98527526855469 90.28329467773438 58.81010437011719 87.964599609375 64.29214477539062 C 85.72445678710938 69.58843231201172 82.5169677734375 74.34550476074219 78.43123626708984 78.43122863769531 C 74.34552764892578 82.51696014404297 69.58843994140625 85.72444915771484 64.29215240478516 87.96457672119141 C 58.81011199951172 90.28328704833984 52.98529434204102 91.45897674560547 46.97949600219727 91.45897674560547 Z" stroke="none"/>
            <path d="M 46.97949600219727 5.000007629394531 C 41.31009674072266 5.000007629394531 35.81294631958008 6.109237670898438 30.64072799682617 8.296905517578125 C 25.64242553710938 10.41100311279297 21.1524658203125 13.43856811523438 17.29550933837891 17.29550170898438 C 13.43857574462891 21.15245819091797 10.4110107421875 25.64241790771484 8.296913146972656 30.64072036743164 C 6.109245300292969 35.81293869018555 5.000015258789062 41.31008911132812 5.000015258789062 46.97948837280273 C 5.000015258789062 52.64888763427734 6.109245300292969 58.14603805541992 8.296913146972656 63.31825256347656 C 10.4110107421875 68.31653594970703 13.43857574462891 72.8065185546875 17.29550933837891 76.6634521484375 C 21.1524658203125 80.52040100097656 25.64242553710938 83.5479736328125 30.64072799682617 85.66207122802734 C 35.81294631958008 87.84973907470703 41.31009674072266 88.95896911621094 46.97949600219727 88.95896911621094 C 52.64889526367188 88.95896911621094 58.14604568481445 87.84973907470703 63.31826019287109 85.66207122802734 C 68.31655883789062 83.5479736328125 72.80653381347656 80.52040100097656 76.66348266601562 76.6634521484375 C 80.52041625976562 72.8065185546875 83.54798126220703 68.31653594970703 85.66207885742188 63.31825256347656 C 87.84974670410156 58.14603805541992 88.95897674560547 52.64888763427734 88.95897674560547 46.97948837280273 C 88.95897674560547 41.31008911132812 87.84974670410156 35.81293869018555 85.66207885742188 30.64072036743164 C 83.54798126220703 25.64241790771484 80.52041625976562 21.15245819091797 76.66348266601562 17.29550170898438 C 72.80653381347656 13.43856811523438 68.31655883789062 10.41100311279297 63.31826019287109 8.296905517578125 C 58.14604568481445 6.109237670898438 52.64889526367188 5.000007629394531 46.97949600219727 5.000007629394531 M 46.97949600219727 7.62939453125e-06 C 72.92554473876953 7.62939453125e-06 93.95897674560547 21.03343963623047 93.95897674560547 46.97948837280273 C 93.95897674560547 72.92552185058594 72.92554473876953 93.95896911621094 46.97949600219727 93.95896911621094 C 21.033447265625 93.95896911621094 1.52587890625e-05 72.92552185058594 1.52587890625e-05 46.97948837280273 C 1.52587890625e-05 21.03343963623047 21.033447265625 7.62939453125e-06 46.97949600219727 7.62939453125e-06 Z" stroke="none" fill="#fff"/>
          </g>
        </g>
      </g>
    </g>
    <g id="agricultura" transform="translate(217.067 1010.932)">
      <g id="Grupo_1165434" data-name="Grupo 1165434" transform="translate(9.915 10.079)">
        <g id="Grupo_1165432" data-name="Grupo 1165432" transform="translate(6.526 0)">
          <path id="Trazado_991665" data-name="Trazado 991665" d="M216.946,30.561a9.562,9.562,0,0,1-4.184-1.539,5.9,5.9,0,0,1-1.792-4.015.4.4,0,0,1,.422-.42,6.145,6.145,0,0,1,4.014,1.79c.981,1.1,1.227,2.784,1.538,4.179v0a9.563,9.563,0,0,0,4.184-1.539,5.9,5.9,0,0,0,1.791-4.015.4.4,0,0,0-.422-.42,6.145,6.145,0,0,0-4.014,1.79c-.981,1.1-1.228,2.784-1.538,4.179Zm0,8.208a9.562,9.562,0,0,1-4.184-1.539,5.9,5.9,0,0,1-1.792-4.015.4.4,0,0,1,.422-.42,6.144,6.144,0,0,1,4.014,1.79c.981,1.1,1.227,2.784,1.538,4.18v0a9.563,9.563,0,0,0,4.184-1.539,5.9,5.9,0,0,0,1.791-4.015.4.4,0,0,0-.422-.42,6.144,6.144,0,0,0-4.014,1.79c-.981,1.1-1.228,2.784-1.538,4.18Zm0-15.173a8.01,8.01,0,0,0,1.567-3.39,4.918,4.918,0,0,0-1.265-3.38.4.4,0,0,0-.6,0,5.133,5.133,0,0,0-1.265,3.378,7.7,7.7,0,0,0,1.565,3.387Z" transform="translate(-191.621 -16.689)" fill="#c6ea94" fill-rule="evenodd"/>
          <path id="Trazado_991666" data-name="Trazado 991666" d="M71.147,40.561a9.562,9.562,0,0,1-4.184-1.539,5.9,5.9,0,0,1-1.792-4.015.4.4,0,0,1,.422-.42,6.145,6.145,0,0,1,4.014,1.79c.981,1.1,1.228,2.784,1.538,4.179v0a9.563,9.563,0,0,0,4.184-1.539,5.9,5.9,0,0,0,1.791-4.015.4.4,0,0,0-.422-.42,6.145,6.145,0,0,0-4.014,1.79c-.981,1.1-1.228,2.784-1.538,4.179Zm0,8.208a9.562,9.562,0,0,1-4.184-1.539,5.9,5.9,0,0,1-1.792-4.015.4.4,0,0,1,.422-.42,6.144,6.144,0,0,1,4.014,1.79c.981,1.1,1.228,2.784,1.538,4.18v0a9.563,9.563,0,0,0,4.184-1.539,5.9,5.9,0,0,0,1.791-4.015.4.4,0,0,0-.422-.42,6.144,6.144,0,0,0-4.014,1.79c-.981,1.1-1.228,2.784-1.538,4.18Zm0-15.173a8.012,8.012,0,0,0,1.567-3.39,4.918,4.918,0,0,0-1.265-3.38.4.4,0,0,0-.6,0,5.133,5.133,0,0,0-1.265,3.378,7.7,7.7,0,0,0,1.565,3.387Z" transform="translate(-65.171 -25.362)" fill="#c6ea94" fill-rule="evenodd"/>
          <path id="Trazado_991667" data-name="Trazado 991667" d="M362.746,40.561a9.562,9.562,0,0,1-4.184-1.539,5.9,5.9,0,0,1-1.792-4.015.4.4,0,0,1,.422-.42,6.145,6.145,0,0,1,4.014,1.79c.981,1.1,1.227,2.784,1.538,4.179v0a9.563,9.563,0,0,0,4.184-1.539,5.9,5.9,0,0,0,1.792-4.015.4.4,0,0,0-.422-.42,6.145,6.145,0,0,0-4.014,1.79c-.981,1.1-1.228,2.784-1.538,4.179Zm0,8.208a9.562,9.562,0,0,1-4.184-1.539,5.9,5.9,0,0,1-1.792-4.015.4.4,0,0,1,.422-.42,6.144,6.144,0,0,1,4.014,1.79c.981,1.1,1.227,2.784,1.538,4.18v0a9.563,9.563,0,0,0,4.184-1.539,5.9,5.9,0,0,0,1.792-4.015.4.4,0,0,0-.422-.42,6.144,6.144,0,0,0-4.014,1.79c-.981,1.1-1.228,2.784-1.538,4.18Zm0-15.173a8.012,8.012,0,0,0,1.567-3.39,4.918,4.918,0,0,0-1.265-3.38.4.4,0,0,0-.6,0,5.132,5.132,0,0,0-1.265,3.378,7.7,7.7,0,0,0,1.565,3.387Z" transform="translate(-318.07 -25.362)" fill="#c6ea94" fill-rule="evenodd"/>
        </g>
        <path id="Trazado_991668" data-name="Trazado 991668" d="M77.445,227.676l-27.323-7.652c6.1-5.33,11.036-3.98,15.868-2.687a23.329,23.329,0,0,1,11.455-2.713,20.952,20.952,0,0,1,10.843,2.713c4.832-1.292,10.2-2.643,16.437,2.687Z" transform="translate(-45.594 -188.355)" fill="#937661" fill-rule="evenodd"/>
        <g id="Grupo_1165433" data-name="Grupo 1165433" transform="translate(0 31.669)">
          <path id="Trazado_991669" data-name="Trazado 991669" d="M77.61,260.59a7.053,7.053,0,0,0-4.985,12.034,2.093,2.093,0,0,1,0,2.959l-4.5,4.5a2.093,2.093,0,0,1-2.959,0,7.053,7.053,0,0,0-12.034,4.985,2.092,2.092,0,0,1-2.092,2.092h-6.37a2.092,2.092,0,0,1-2.092-2.092,7.049,7.049,0,0,0-12.034-4.985,2.093,2.093,0,0,1-2.959,0l-4.5-4.5a2.093,2.093,0,0,1,0-2.959,7.053,7.053,0,0,0-4.984-12.034A2.092,2.092,0,0,1,16,258.5v-2.521a.665.665,0,0,1,.664-.664H79.039a.665.665,0,0,1,.664.664V258.5A2.092,2.092,0,0,1,77.61,260.59Z" transform="translate(-16 -255.313)" fill="#fdcd56" fill-rule="evenodd"/>
          <path id="Trazado_991670" data-name="Trazado 991670" d="M171.293,255.313a15.3,15.3,0,0,1-30.607,0Z" transform="translate(-124.138 -255.313)" fill="#f4f6f8" fill-rule="evenodd"/>
        </g>
      </g>
      <path id="Trazado_991671" data-name="Trazado 991671" d="M44.3,53.308a.927.927,0,0,1-.93.929h-3.2a.929.929,0,1,1,0-1.858h3.2A.927.927,0,0,1,44.3,53.308ZM41.948,9.068h-.367a.912.912,0,0,0-.461.244,6.089,6.089,0,0,0-1.848,4.422,7.2,7.2,0,0,0,1.455,3.443l.112.169v1.8a7.135,7.135,0,0,0-5.071-2.023.927.927,0,0,0-.912.915A6.855,6.855,0,0,0,36.98,23.2a8.7,8.7,0,0,0,3.859,1.6v2.554a7.134,7.134,0,0,0-5.071-2.022.926.926,0,0,0-.912.914,6.857,6.857,0,0,0,2.123,5.165A8.7,8.7,0,0,0,40.839,33v2.512a24.019,24.019,0,0,0-10.654,2.63,23.994,23.994,0,0,0-6.838-1.085v-2.73a8.727,8.727,0,0,0,3.859-1.6A6.856,6.856,0,0,0,29.33,27.57a.927.927,0,0,0-.912-.914,7.118,7.118,0,0,0-5.071,2.025V26.124a8.725,8.725,0,0,0,3.859-1.6,6.856,6.856,0,0,0,2.123-5.165.927.927,0,0,0-.912-.914,7.123,7.123,0,0,0-5.071,2.025V18.677a8.029,8.029,0,0,0,1.561-3.6,5.907,5.907,0,0,0-1.848-4.437.927.927,0,0,0-1.293,0,6.088,6.088,0,0,0-1.848,4.421A7.264,7.264,0,0,0,21.38,18.5c.037.057.069.112.106.169v1.8a7.11,7.11,0,0,0-4.971-2.023h-.094a.928.928,0,0,0-.918.914,6.879,6.879,0,0,0,2.123,5.165,8.726,8.726,0,0,0,3.859,1.6v2.554a7.109,7.109,0,0,0-5.065-2.022.928.928,0,0,0-.918.914,6.879,6.879,0,0,0,2.123,5.165,8.725,8.725,0,0,0,3.859,1.6v2.905A15.164,15.164,0,0,0,14.1,40.9H9.914a.931.931,0,0,0-.93.929v3.185a3.025,3.025,0,0,0,3.023,3.021,6.123,6.123,0,0,1,4.328,10.448,3.032,3.032,0,0,0,0,4.273l4.509,4.5a3.02,3.02,0,0,0,4.272,0,6.12,6.12,0,0,1,10.448,4.328,3.025,3.025,0,0,0,3.023,3.021h6.37a3.029,3.029,0,0,0,3.023-3.021,6.12,6.12,0,0,1,10.441-4.328,3.027,3.027,0,0,0,4.278,0l4.5-4.5a3.021,3.021,0,0,0,0-4.273,6.123,6.123,0,0,1,4.328-10.448,3.025,3.025,0,0,0,3.023-3.021V41.83a.931.931,0,0,0-.93-.929H69.385a15.9,15.9,0,0,0-7.338-3.621V34.332a8.727,8.727,0,0,0,3.859-1.6A6.856,6.856,0,0,0,68.03,27.57a.927.927,0,0,0-.912-.915,7.1,7.1,0,0,0-5.071,2.025V26.124a8.725,8.725,0,0,0,3.859-1.6,6.856,6.856,0,0,0,2.123-5.165.927.927,0,0,0-.912-.914,7.1,7.1,0,0,0-5.071,2.025v-1.8a8.023,8.023,0,0,0,1.561-3.6,5.9,5.9,0,0,0-1.848-4.437.927.927,0,0,0-1.293,0,6.087,6.087,0,0,0-1.848,4.421A7.26,7.26,0,0,0,60.08,18.5c.037.057.069.113.106.17v1.8a7.114,7.114,0,0,0-5.065-2.022.928.928,0,0,0-.918.914,6.879,6.879,0,0,0,2.123,5.165,8.725,8.725,0,0,0,3.859,1.6v2.554a7.111,7.111,0,0,0-4.971-2.023h-.094a.928.928,0,0,0-.918.914,6.879,6.879,0,0,0,2.123,5.165,8.725,8.725,0,0,0,3.859,1.6v2.733a23.888,23.888,0,0,0-7.444,1.082,21.672,21.672,0,0,0-10.048-2.628V33a8.74,8.74,0,0,0,3.866-1.6,6.88,6.88,0,0,0,2.123-5.165.928.928,0,0,0-.918-.914,7.123,7.123,0,0,0-5.071,2.025V24.8a8.734,8.734,0,0,0,3.866-1.6,6.877,6.877,0,0,0,2.123-5.165.929.929,0,0,0-.918-.915,7.129,7.129,0,0,0-5.071,2.025V17.35a8.034,8.034,0,0,0,1.567-3.6,5.907,5.907,0,0,0-1.848-4.438.936.936,0,0,0-.465-.244ZM52.711,46.585H30.829a.929.929,0,1,1,0-1.859H52.711a.929.929,0,1,1,0,1.859Zm-1.311,2.9a.927.927,0,0,1-.93.929h-17.4a.929.929,0,1,1,0-1.858h17.4A.927.927,0,0,1,51.4,49.482Zm21.289-4.467V42.759H57.975a16.232,16.232,0,0,1-32.411,0H10.845v2.256a1.162,1.162,0,0,0,1.162,1.163A7.982,7.982,0,0,1,17.652,59.8a1.16,1.16,0,0,0,0,1.645l4.5,4.5a1.155,1.155,0,0,0,.824.34,1.14,1.14,0,0,0,.818-.34,7.884,7.884,0,0,1,5.6-2.357,8.1,8.1,0,0,1,3.1.628,7.855,7.855,0,0,1,4.921,7.371,1.168,1.168,0,0,0,1.168,1.164h6.37a1.166,1.166,0,0,0,1.162-1.164,7.982,7.982,0,0,1,13.62-5.642,1.161,1.161,0,0,0,1.642,0l4.509-4.5a1.172,1.172,0,0,0,0-1.645,7.982,7.982,0,0,1,5.639-13.62A1.162,1.162,0,0,0,72.688,45.015Zm-16.58-2.256H27.425a14.371,14.371,0,0,0,28.683,0Zm-26.1-2.735.063.016a.92.92,0,0,0,.712-.1A22.3,22.3,0,0,1,41.77,37.359a20.082,20.082,0,0,1,10.367,2.583.928.928,0,0,0,.712.1c3.953-1.057,8.362-2.236,13.37.861H17.2C21.917,37.859,25.864,38.914,30.011,40.024ZM41.77,11.453a3.756,3.756,0,0,1,.637,2.156,4.479,4.479,0,0,1-.643,1.732,3.993,3.993,0,0,1-.637-1.716,3.952,3.952,0,0,1,.643-2.171ZM22.417,12.78a3.711,3.711,0,0,1,.637,2.156,4.466,4.466,0,0,1-.637,1.732,4.013,4.013,0,0,1-.643-1.717,4.006,4.006,0,0,1,.643-2.171ZM18.838,31.325A4.8,4.8,0,0,1,17.446,28.6,5.055,5.055,0,0,1,20.187,30a5.39,5.39,0,0,1,1.018,2.36A6.032,6.032,0,0,1,18.838,31.325Zm0-8.208a4.8,4.8,0,0,1-1.393-2.724,5.05,5.05,0,0,1,2.741,1.4,5.39,5.39,0,0,1,1.018,2.36A6.035,6.035,0,0,1,18.838,23.117Zm5.814-1.323a5.007,5.007,0,0,1,2.741-1.4,4.77,4.77,0,0,1-1.4,2.724,6.045,6.045,0,0,1-2.361,1.037A5.392,5.392,0,0,1,24.652,21.794Zm0,8.208a5.012,5.012,0,0,1,2.741-1.4,4.768,4.768,0,0,1-1.4,2.724,6.045,6.045,0,0,1-2.361,1.037A5.391,5.391,0,0,1,24.652,30Zm13.539,0a4.77,4.77,0,0,1-1.4-2.724,5.011,5.011,0,0,1,2.741,1.4,5.387,5.387,0,0,1,1.018,2.359A6,6,0,0,1,38.191,30Zm0-8.208a4.77,4.77,0,0,1-1.4-2.725,5.012,5.012,0,0,1,2.741,1.4,5.387,5.387,0,0,1,1.018,2.359A6.044,6.044,0,0,1,38.191,21.79ZM44,20.467a5.034,5.034,0,0,1,2.741-1.4,4.8,4.8,0,0,1-1.393,2.725,6.021,6.021,0,0,1-2.367,1.036A5.392,5.392,0,0,1,44,20.467Zm0,8.208a5.033,5.033,0,0,1,2.741-1.4A4.8,4.8,0,0,1,45.348,30a6.023,6.023,0,0,1-2.367,1.036A5.392,5.392,0,0,1,44,28.675Zm17.117-15.9a3.711,3.711,0,0,1,.637,2.156,4.463,4.463,0,0,1-.637,1.732,4.013,4.013,0,0,1-.643-1.717A3.954,3.954,0,0,1,61.116,12.78ZM57.538,31.325A4.8,4.8,0,0,1,56.145,28.6,5.055,5.055,0,0,1,58.887,30a5.463,5.463,0,0,1,1.018,2.36A6.032,6.032,0,0,1,57.538,31.325Zm0-8.208a4.8,4.8,0,0,1-1.393-2.724,5.05,5.05,0,0,1,2.741,1.4,5.463,5.463,0,0,1,1.018,2.36A6.036,6.036,0,0,1,57.538,23.117Zm5.814-1.323a5.01,5.01,0,0,1,2.735-1.4,4.727,4.727,0,0,1-1.393,2.724,6.032,6.032,0,0,1-2.367,1.037A5.471,5.471,0,0,1,63.352,21.794Zm0,8.208a5.015,5.015,0,0,1,2.735-1.4,4.726,4.726,0,0,1-1.393,2.724,6.032,6.032,0,0,1-2.367,1.037A5.47,5.47,0,0,1,63.352,30Z" fill-rule="evenodd"/>
    </g>
  </g>
</svg>
