<svg xmlns="http://www.w3.org/2000/svg" xmlns:xlink="http://www.w3.org/1999/xlink" width="105.781" height="105.781" viewBox="0 0 105.781 105.781">
  <defs>
    <filter id="Trazado_985594" x="0" y="0" width="105.781" height="105.781" filterUnits="userSpaceOnUse">
      <feOffset dy="3" input="SourceAlpha"/>
      <feGaussianBlur stdDeviation="3" result="blur"/>
      <feFlood flood-opacity="0.161"/>
      <feComposite operator="in" in2="blur"/>
      <feComposite in="SourceGraphic"/>
    </filter>
  </defs>
  <g id="Grupo_1166240" data-name="Grupo 1166240" transform="translate(-321.774 -1246)">
    <g id="Grupo_1165222" data-name="Grupo 1165222" transform="translate(-6.276 137.332)">
      <g transform="matrix(1, 0, 0, 1, 328.05, 1108.67)" filter="url(#Trazado_985594)">
        <g id="Trazado_985594-2" data-name="Trazado 985594" transform="translate(9 6)" fill="#f3d02c">
          <path d="M 43.8906364440918 85.28125762939453 C 38.30183792114258 85.28125762939453 32.88154220581055 84.18724060058594 27.78030395507812 82.02960205078125 C 22.85183715820312 79.94503021240234 18.42508888244629 76.96026611328125 14.62304973602295 73.15821838378906 C 10.82099628448486 69.35617828369141 7.836236476898193 64.92942810058594 5.751663208007812 60.00096130371094 C 3.59402322769165 54.89972305297852 2.500009775161743 49.47942733764648 2.500009775161743 43.89062881469727 C 2.500009775161743 38.30183029174805 3.59402322769165 32.88153457641602 5.751663208007812 27.78029632568359 C 7.836236476898193 22.85182952880859 10.82099628448486 18.42508125305176 14.62304973602295 14.62304210662842 C 18.42508888244629 10.82098865509033 22.85183715820312 7.836228847503662 27.78030395507812 5.751655578613281 C 32.88154220581055 3.594015598297119 38.30183792114258 2.500002145767212 43.8906364440918 2.500002145767212 C 49.47943496704102 2.500002145767212 54.89973068237305 3.594015598297119 60.00096893310547 5.751655578613281 C 64.92943572998047 7.836228847503662 69.35618591308594 10.82098865509033 73.15822601318359 14.62304210662842 C 76.96027374267578 18.42508125305176 79.94503784179688 22.85182952880859 82.02960968017578 27.78029632568359 C 84.18724822998047 32.88153457641602 85.28126525878906 38.30183029174805 85.28126525878906 43.89062881469727 C 85.28126525878906 49.47942733764648 84.18724822998047 54.89972305297852 82.02960968017578 60.00096130371094 C 79.94503784179688 64.92942810058594 76.96027374267578 69.35617828369141 73.15822601318359 73.15821838378906 C 69.35618591308594 76.96026611328125 64.92943572998047 79.94503021240234 60.00096893310547 82.02960205078125 C 54.89973068237305 84.18724060058594 49.47943496704102 85.28125762939453 43.8906364440918 85.28125762939453 Z" stroke="none"/>
          <path d="M 43.8906364440918 4.999992370605469 C 38.63823699951172 4.999992370605469 33.54560470581055 6.027565002441406 28.75418472290039 8.054161071777344 C 24.12371826171875 10.0126953125 19.96407318115234 12.81754302978516 16.39080047607422 16.39079284667969 C 12.81755065917969 19.96406555175781 10.01270294189453 24.12371063232422 8.054168701171875 28.75417709350586 C 6.027572631835938 33.54559707641602 5 38.63822937011719 5 43.89062881469727 C 5 49.14302825927734 6.027572631835938 54.23566055297852 8.054168701171875 59.02707672119141 C 10.01270294189453 63.65754699707031 12.81755065917969 67.81719970703125 16.39080047607422 71.39046478271484 C 19.96407318115234 74.96371459960938 24.12371826171875 77.76856231689453 28.75418472290039 79.72709655761719 C 33.54560470581055 81.75369262695312 38.63823699951172 82.78126525878906 43.8906364440918 82.78126525878906 C 49.14303588867188 82.78126525878906 54.23566818237305 81.75369262695312 59.02708435058594 79.72709655761719 C 63.65755462646484 77.76856231689453 67.81719970703125 74.96371459960938 71.39047241210938 71.39046478271484 C 74.96372222900391 67.81719970703125 77.76856994628906 63.65754699707031 79.72710418701172 59.02707672119141 C 81.75370025634766 54.23566055297852 82.78127288818359 49.14302825927734 82.78127288818359 43.89062881469727 C 82.78127288818359 38.63822937011719 81.75370025634766 33.54559707641602 79.72710418701172 28.75417709350586 C 77.76856994628906 24.12371063232422 74.96372222900391 19.96406555175781 71.39047241210938 16.39079284667969 C 67.81719970703125 12.81754302978516 63.65755462646484 10.0126953125 59.02708435058594 8.054161071777344 C 54.23566818237305 6.027565002441406 49.14303588867188 4.999992370605469 43.8906364440918 4.999992370605469 M 43.8906364440918 -7.62939453125e-06 C 68.13075256347656 -7.62939453125e-06 87.78127288818359 19.6505126953125 87.78127288818359 43.89062881469727 C 87.78127288818359 68.13074493408203 68.13075256347656 87.78126525878906 43.8906364440918 87.78126525878906 C 19.65052032470703 87.78126525878906 0 68.13074493408203 0 43.89062881469727 C 0 19.6505126953125 19.65052032470703 -7.62939453125e-06 43.8906364440918 -7.62939453125e-06 Z" stroke="none" fill="#fff"/>
        </g>
      </g>
    </g>
    <g id="asegurado" transform="translate(343.774 1256.422)">
      <g id="Grupo_1166238" data-name="Grupo 1166238" transform="translate(0.903 10.287)">
        <g id="Grupo_1166234" data-name="Grupo 1166234" transform="translate(0 2.681)">
          <path id="Trazado_992737" data-name="Trazado 992737" d="M67.264,63.022a6.976,6.976,0,0,0-7.881-6.927,9.722,9.722,0,0,0-9.639-11.066,9.689,9.689,0,0,0-6.1,2.154A14.784,14.784,0,0,0,15.518,56.11a6.986,6.986,0,1,0-1.016,13.9H60.278a6.986,6.986,0,0,0,6.986-6.986" transform="translate(-7.516 -37.775)" fill="#eaf9fa"/>
        </g>
        <g id="Grupo_1166236" data-name="Grupo 1166236" transform="translate(20.292 2.681)">
          <g id="Grupo_1166235" data-name="Grupo 1166235">
            <path id="Trazado_992738" data-name="Trazado 992738" d="M308.552,114.346a1.6,1.6,0,0,0,.225-.174C308.7,114.228,308.626,114.287,308.552,114.346Z" transform="translate(-292.654 -104.988)" fill="#dcf5f8"/>
            <path id="Trazado_992739" data-name="Trazado 992739" d="M188.559,47.188l3.506.028.056-.082a14.791,14.791,0,0,0-15.813-9.216,14.8,14.8,0,0,1,11.53,8.79A.791.791,0,0,0,188.559,47.188Z" transform="translate(-176.309 -37.775)" fill="#dcf5f8"/>
            <path id="Trazado_992740" data-name="Trazado 992740" d="M354.277,109.125a7.048,7.048,0,0,0-.9.059,9.733,9.733,0,0,0-11.693-10.847,9.734,9.734,0,0,1,7.68,9.513q0,.226-.011.449a.793.793,0,0,0,.8.825h.009a6.986,6.986,0,1,1,0,13.972h4a6.986,6.986,0,1,0,.1-13.972Z" transform="translate(-321.808 -90.864)" fill="#dcf5f8"/>
          </g>
        </g>
        <circle id="Elipse_11829" data-name="Elipse 11829" cx="9.775" cy="9.775" r="9.775" transform="translate(35.763 0)" fill="#bbec6c"/>
        <path id="Trazado_992741" data-name="Trazado 992741" d="M371.291,15.473a9.809,9.809,0,0,0-2.053.218,9.775,9.775,0,0,1,0,19.114,9.775,9.775,0,1,0,2.053-19.332Z" transform="translate(-325.753 -15.473)" fill="#a2e62e"/>
        <path id="Trazado_992742" data-name="Trazado 992742" d="M159.047,199.254h-3.125a.567.567,0,0,1-.526-.355l-1.423-3.529a1.909,1.909,0,0,0-1.771-1.2H138.17a1.909,1.909,0,0,0-1.771,1.2l-1.423,3.529a.567.567,0,0,1-.526.355h-3.125a1.284,1.284,0,0,0-1.284,1.284l.013,7.686c0,10.861,2.068,13.819,13.855,21.716a2.3,2.3,0,0,0,2.566,0c11.786-7.9,13.855-10.855,13.855-21.716v-7.686A1.283,1.283,0,0,0,159.047,199.254Z" transform="translate(-115.312 -172.692)" fill="#d9b1ee"/>
        <path id="Trazado_992743" data-name="Trazado 992743" d="M240.578,236.723v7.687c0,10.86-2.068,13.819-13.854,21.716a2.309,2.309,0,0,1-2.567,0q-1.562-1.046-2.9-1.986c12.958-8.9,14.547-10.067,14.547-20.765v-8.069a.567.567,0,0,0,.367.135H239.3A1.283,1.283,0,0,1,240.578,236.723Z" transform="translate(-195.561 -208.878)" fill="#cb97e7"/>
        <path id="Trazado_992744" data-name="Trazado 992744" d="M179.428,232.611c0,8.93-1.746,11.193-11.855,17.9a.5.5,0,0,1-.554,0q-.57-.379-1.1-.738c-9.134-6.151-10.75-8.571-10.75-17.166V226.1a.256.256,0,0,1,.255-.256h2.621a1.4,1.4,0,0,0,1.3-.875l1.431-3.548a.393.393,0,0,1,.365-.246h12.311a.393.393,0,0,1,.365.246l1.431,3.548a1.4,1.4,0,0,0,1.3.875h2.622a.257.257,0,0,1,.256.255Z" transform="translate(-137.416 -196.447)" fill="#61a1f8"/>
        <path id="Trazado_992745" data-name="Trazado 992745" d="M258.1,266.782c0,8.93-1.746,11.193-11.855,17.9a.5.5,0,0,1-.554,0q-.57-.379-1.1-.738c10.389-7.2,11.743-8.962,11.743-18.833v-5.1h1.5a.257.257,0,0,1,.256.255Z" transform="translate(-216.086 -230.618)" fill="#548ff8"/>
        <g id="Grupo_1166237" data-name="Grupo 1166237" transform="translate(23.804 30.824)">
          <path id="Trazado_992746" data-name="Trazado 992746" d="M216,286.491h-8.8a1.669,1.669,0,0,1-1.669-1.669V273.55a1.669,1.669,0,0,1,1.669-1.669h7.016l3.455,4.67v8.271A1.669,1.669,0,0,1,216,286.491Z" transform="translate(-205.527 -271.881)" fill="#dcf5f8"/>
        </g>
        <path id="Trazado_992747" data-name="Trazado 992747" d="M254.837,271.881H251.7l3.1,4.188a1.819,1.819,0,0,1,.357,1.082v7.671a1.669,1.669,0,0,1-1.669,1.669h3.133a1.669,1.669,0,0,0,1.669-1.669v-8.271Z" transform="translate(-222.349 -241.057)" fill="#d4f2f6"/>
      </g>
      <g id="Grupo_1166239" data-name="Grupo 1166239" transform="translate(0 9.578)">
        <path id="Trazado_992748" data-name="Trazado 992748" d="M53.758,30.328a11.27,11.27,0,0,0-.175-2.336A10.673,10.673,0,0,0,48.564,9.6a.9.9,0,1,0-.357,1.768,8.873,8.873,0,1,1-3.828.065.9.9,0,1,0-.418-1.754,10.67,10.67,0,0,0-8.072,8.782,15.685,15.685,0,0,0-28.1,11.871,7.887,7.887,0,0,0,.1,15.774h6.856c.017,5.014.484,8.816,2.651,12.174C19,60.767,21.418,63.2,29,68.283a3.2,3.2,0,0,0,3.569,0c5.741-3.847,9.48-6.717,11.6-10.007,1.614-2.5,2.623-5.426,2.65-12.174h6.844a7.887,7.887,0,0,0,.093-15.774ZM45.02,45.818c0,10.388-1.76,13.131-13.455,20.967a1.4,1.4,0,0,1-1.562,0C18.309,58.95,16.548,56.206,16.548,45.817l-.013-7.685a.382.382,0,0,1,.382-.382h3.125a1.462,1.462,0,0,0,1.362-.919L22.827,33.3a1,1,0,0,1,.934-.631H37.794a1,1,0,0,1,.934.631l1.423,3.529a1.462,1.462,0,0,0,1.362.919h3.125a.382.382,0,0,1,.382.382v7.686Zm8.645-1.52H46.823V38.132a2.188,2.188,0,0,0-2.185-2.185h-2.9L40.4,32.628a2.8,2.8,0,0,0-2.607-1.76H23.761a2.8,2.8,0,0,0-2.607,1.76l-1.338,3.319h-2.9a2.188,2.188,0,0,0-2.185,2.187l.011,6.165H7.889a6.084,6.084,0,1,1,5.5-8.7.9.9,0,0,0,1.628-.776,7.937,7.937,0,0,0-5.354-4.291,13.879,13.879,0,0,1,26.271-8.44,9.2,9.2,0,0,0-2.283,3.989.9.9,0,1,0,1.74.475,7.533,7.533,0,0,1,1.18-2.439,10.67,10.67,0,0,0,15.365,5.1,9.4,9.4,0,0,1-.054,1.948c-.079.918.816,1.126,1.789.966a6.084,6.084,0,0,1,0,12.168Z" transform="translate(0 -9.578)"/>
        <path id="Trazado_992749" data-name="Trazado 992749" d="M342.792,66.354a.9.9,0,1,0-1.339,1.208l2.614,2.9a.9.9,0,0,0,.646.3h.023a.9.9,0,0,0,.638-.264l6.338-6.338a.9.9,0,1,0-1.275-1.275l-5.667,5.667Z" transform="translate(-300.201 -56.24)"/>
        <path id="Trazado_992750" data-name="Trazado 992750" d="M211.969,278.224v-8.271a.9.9,0,0,0-.177-.536l-3.455-4.67a.9.9,0,0,0-.725-.365H200.6a2.573,2.573,0,0,0-2.57,2.57v11.273a2.574,2.574,0,0,0,2.57,2.571h8.8a2.574,2.574,0,0,0,2.57-2.571Zm-12.139,0V266.951a.768.768,0,0,1,.767-.767h6.561l3.008,4.066v7.974a.768.768,0,0,1-.767.767h-8.8A.768.768,0,0,1,199.829,278.224Z" transform="translate(-174.22 -233.749)"/>
        <path id="Trazado_992751" data-name="Trazado 992751" d="M231.574,358.914h-5.648a.9.9,0,1,0,0,1.8h5.648a.9.9,0,1,0,0-1.8Z" transform="translate(-197.973 -316.918)"/>
        <path id="Trazado_992752" data-name="Trazado 992752" d="M231.574,331.737h-5.648a.9.9,0,1,0,0,1.8h5.648a.9.9,0,1,0,0-1.8Z" transform="translate(-197.973 -293.008)"/>
        <path id="Trazado_992753" data-name="Trazado 992753" d="M172.558,218.346h-2.622a.5.5,0,0,1-.461-.311l-1.431-3.548a1.289,1.289,0,0,0-1.2-.811H154.532a1.289,1.289,0,0,0-1.2.811l-1.431,3.548a.5.5,0,0,1-.461.311h-2.621a1.158,1.158,0,0,0-1.157,1.157v6.51a21.661,21.661,0,0,0,1.057,7.921,14.286,14.286,0,0,0,4.5,5.885.9.9,0,0,0,1.169-1.373c-4.182-3.563-4.927-6.355-4.927-12.433v-5.864h1.975a2.29,2.29,0,0,0,2.133-1.44l1.3-3.23H166.5l1.3,3.23a2.29,2.29,0,0,0,2.133,1.44h1.976l.011,5.864c0,8.329-1.37,10.443-11.229,17.005-1.232-.82-2.215-1.492-3.08-2.1a.9.9,0,0,0-1.043,1.471c.932.66,2,1.386,3.348,2.284a1.4,1.4,0,0,0,1.55,0c5.078-3.371,8.171-5.7,9.967-8.367,1.915-2.841,2.29-5.923,2.29-10.29l-.012-6.51A1.158,1.158,0,0,0,172.558,218.346Z" transform="translate(-129.91 -189.14)"/>
        <circle id="Elipse_11830" data-name="Elipse 11830" cx="0.902" cy="0.902" r="0.902" transform="translate(27.052 33.819)"/>
      </g>
    </g>
  </g>
</svg>
