<svg xmlns="http://www.w3.org/2000/svg" width="93.959" height="93.959" viewBox="0 0 93.959 93.959">
  <g id="Grupo_1165326" data-name="Grupo 1165326" transform="translate(-206.051 -1676)">
    <g id="Grupo_1158412" data-name="Grupo 1158412" transform="translate(-523.224 574.913)">
      <g id="Grupo_1151642" data-name="Grupo 1151642" transform="translate(729.274 1101.087)">
        <g id="Grupo_1103990" data-name="Grupo 1103990" transform="translate(0)">
          <g id="Trazado_874102" data-name="Trazado 874102" transform="translate(0)" fill="#f9f7f4">
            <path d="M 46.97949600219727 91.45897674560547 C 40.97370910644531 91.45897674560547 35.14888000488281 90.28328704833984 29.66683959960938 87.96457672119141 C 24.37055397033691 85.72444915771484 19.61348152160645 82.51696014404297 15.52775287628174 78.43122863769531 C 11.44202423095703 74.34550476074219 8.234539031982422 69.58843231201172 5.994410514831543 64.29214477539062 C 3.675695896148682 58.81010437011719 2.500010251998901 52.98527526855469 2.500010251998901 46.97948837280273 C 2.500010251998901 40.97369003295898 3.675695896148682 35.14887237548828 5.994410514831543 29.66683197021484 C 8.234539031982422 24.37054634094238 11.44202423095703 19.61346054077148 15.52775287628174 15.52774524688721 C 19.61348152160645 11.4420166015625 24.37055397033691 8.234531402587891 29.66683959960938 5.994388580322266 C 35.14888000488281 3.67568826675415 40.97370910644531 2.50000262260437 46.97949600219727 2.50000262260437 C 52.98529434204102 2.50000262260437 58.81011199951172 3.67568826675415 64.29215240478516 5.994388580322266 C 69.58843994140625 8.234531402587891 74.34552764892578 11.4420166015625 78.43123626708984 15.52774524688721 C 82.5169677734375 19.61346054077148 85.72445678710938 24.37054634094238 87.964599609375 29.66683197021484 C 90.28329467773438 35.14887237548828 91.458984375 40.97369003295898 91.458984375 46.97948837280273 C 91.458984375 52.98527526855469 90.28329467773438 58.81010437011719 87.964599609375 64.29214477539062 C 85.72445678710938 69.58843231201172 82.5169677734375 74.34550476074219 78.43123626708984 78.43122863769531 C 74.34552764892578 82.51696014404297 69.58843994140625 85.72444915771484 64.29215240478516 87.96457672119141 C 58.81011199951172 90.28328704833984 52.98529434204102 91.45897674560547 46.97949600219727 91.45897674560547 Z" stroke="none"/>
            <path d="M 46.97949600219727 5.000007629394531 C 41.31009674072266 5.000007629394531 35.81294631958008 6.109237670898438 30.64072799682617 8.296905517578125 C 25.64242553710938 10.41100311279297 21.1524658203125 13.43856811523438 17.29550933837891 17.29550170898438 C 13.43857574462891 21.15245819091797 10.4110107421875 25.64241790771484 8.296913146972656 30.64072036743164 C 6.109245300292969 35.81293869018555 5.000015258789062 41.31008911132812 5.000015258789062 46.97948837280273 C 5.000015258789062 52.64888763427734 6.109245300292969 58.14603805541992 8.296913146972656 63.31825256347656 C 10.4110107421875 68.31653594970703 13.43857574462891 72.8065185546875 17.29550933837891 76.6634521484375 C 21.1524658203125 80.52040100097656 25.64242553710938 83.5479736328125 30.64072799682617 85.66207122802734 C 35.81294631958008 87.84973907470703 41.31009674072266 88.95896911621094 46.97949600219727 88.95896911621094 C 52.64889526367188 88.95896911621094 58.14604568481445 87.84973907470703 63.31826019287109 85.66207122802734 C 68.31655883789062 83.5479736328125 72.80653381347656 80.52040100097656 76.66348266601562 76.6634521484375 C 80.52041625976562 72.8065185546875 83.54798126220703 68.31653594970703 85.66207885742188 63.31825256347656 C 87.84974670410156 58.14603805541992 88.95897674560547 52.64888763427734 88.95897674560547 46.97948837280273 C 88.95897674560547 41.31008911132812 87.84974670410156 35.81293869018555 85.66207885742188 30.64072036743164 C 83.54798126220703 25.64241790771484 80.52041625976562 21.15245819091797 76.66348266601562 17.29550170898438 C 72.80653381347656 13.43856811523438 68.31655883789062 10.41100311279297 63.31826019287109 8.296905517578125 C 58.14604568481445 6.109237670898438 52.64889526367188 5.000007629394531 46.97949600219727 5.000007629394531 M 46.97949600219727 7.62939453125e-06 C 72.92554473876953 7.62939453125e-06 93.95897674560547 21.03343963623047 93.95897674560547 46.97948837280273 C 93.95897674560547 72.92552185058594 72.92554473876953 93.95896911621094 46.97949600219727 93.95896911621094 C 21.033447265625 93.95896911621094 1.52587890625e-05 72.92552185058594 1.52587890625e-05 46.97948837280273 C 1.52587890625e-05 21.03343963623047 21.033447265625 7.62939453125e-06 46.97949600219727 7.62939453125e-06 Z" stroke="none" fill="#fff"/>
          </g>
        </g>
      </g>
    </g>
    <g id="Page-1" transform="translate(220.05 1690)">
      <g id="_046---Give-Crops" data-name="046---Give-Crops" transform="translate(0 0)">
        <g id="Grupo_1165325" data-name="Grupo 1165325" transform="translate(1.091 3.274)">
          <path id="Shape" d="M10.821,36.182V59.1a2.182,2.182,0,0,1-2.182,2.182H3.182A2.189,2.189,0,0,1,1,59.1V36.182A2.189,2.189,0,0,1,3.182,34H8.639A2.189,2.189,0,0,1,10.821,36.182Z" transform="translate(-1 -0.171)" fill="#02a9f4"/>
          <path id="Shape-2" data-name="Shape" d="M8.274,34H5a2.189,2.189,0,0,1,2.182,2.182V59.1A2.182,2.182,0,0,1,5,61.281H8.274A2.182,2.182,0,0,0,10.456,59.1V36.182A2.189,2.189,0,0,0,8.274,34Z" transform="translate(-0.635 -0.171)" fill="#0377bc"/>
          <path id="Shape-3" data-name="Shape" d="M62.055,46.443,41.605,58.894a7.639,7.639,0,0,1-3.972,1.113H9.73c.421-.719.295.946.295-24.007H13.08a10.019,10.019,0,0,1,6.22,2.182,9.995,9.995,0,0,0,6.22,2.182h5.707c4.182,0,7.059,4.759,4.179,7.639h2.564c1.017,0-.19.3,21.585-6.962A3.006,3.006,0,0,1,62.9,42.089V42.1a2.979,2.979,0,0,1-.84,4.343Z" transform="translate(-0.203 0.011)" fill="#ffe0b2"/>
          <path id="Shape-4" data-name="Shape" d="M30.609,47.639a19.665,19.665,0,0,0,3.337-.075C36.683,44.692,33.879,40,29.7,40H26.43C30.673,40,33.441,44.807,30.609,47.639Z" transform="translate(1.32 0.376)" fill="#dfc49c"/>
          <path id="Shape-5" data-name="Shape" d="M60.836,41.691V41.68A3.006,3.006,0,0,0,57.5,40.633l-.817.273a2.984,2.984,0,0,1,.883.775v.011a2.979,2.979,0,0,1-.84,4.343L36.272,58.485A7.639,7.639,0,0,1,32.3,59.6c3.264,0,5,.252,7.246-1.113L60,46.034a2.979,2.979,0,0,0,.84-4.343Z" transform="translate(1.856 0.42)" fill="#dfc49c"/>
          <path id="Shape-6" data-name="Shape" d="M56.821,42.025c-19.655,6.552-18.467,6.253-19.457,6.253H34.8c2.886-2.886-.01-7.639-4.179-7.639H24.914a9.995,9.995,0,0,1-6.22-2.182,9.745,9.745,0,0,0-2.313-1.375,7.639,7.639,0,0,1,7.912-1.342,7.626,7.626,0,0,1,12.331.862.011.011,0,0,1,.011.011,7.616,7.616,0,0,1,10.29,1.309,7.626,7.626,0,0,1,9.9,4.1Z" transform="translate(0.403 -0.263)" fill="sienna"/>
          <path id="Shape-7" data-name="Shape" d="M48.254,37a7.639,7.639,0,0,0-1.661.191,7.6,7.6,0,0,1,5.415,4.474L33.937,47.683a4.273,4.273,0,0,1-.613.154c-.023.024-.039.051-.063.075h2.564a4.292,4.292,0,0,0,1.386-.229L55.281,41.66A7.609,7.609,0,0,0,48.254,37Z" transform="translate(1.944 0.102)" fill="#783e22"/>
          <path id="Shape-8" data-name="Shape" d="M43.73,4.091a5.44,5.44,0,0,1-5.456,5.456H35V8.456A5.456,5.456,0,0,1,40.456,3h2.182A1.091,1.091,0,0,1,43.73,4.091Z" transform="translate(2.102 -3)" fill="#60a917"/>
          <path id="Shape-9" data-name="Shape" d="M42.639,3H40.456a5.516,5.516,0,0,0-.729.073,1.091,1.091,0,0,1,.729,1.018A5.44,5.44,0,0,1,35,9.547h3.274A5.44,5.44,0,0,0,43.73,4.091,1.091,1.091,0,0,0,42.639,3Z" transform="translate(2.102 -3)" fill="#549414"/>
          <path id="Shape-10" data-name="Shape" d="M35.73,8.456V9.547H32.456A5.44,5.44,0,0,1,27,4.091,1.091,1.091,0,0,1,28.091,3h2.182A5.456,5.456,0,0,1,35.73,8.456Z" transform="translate(1.372 -3)" fill="#60a917"/>
          <path id="Shape-11" data-name="Shape" d="M30.213,3H28.03a1.091,1.091,0,0,0-.362.073A5.443,5.443,0,0,1,32.4,8.456V9.547h3.274V8.456A5.456,5.456,0,0,0,30.213,3Z" transform="translate(1.433 -3)" fill="#549414"/>
          <path id="Shape-12" data-name="Shape" d="M44.821,14.091a5.44,5.44,0,0,1-5.456,5.456H35V18.456A5.456,5.456,0,0,1,40.456,13H43.73a1.091,1.091,0,0,1,1.091,1.091Z" transform="translate(2.102 -2.088)" fill="#60a917"/>
          <path id="Shape-13" data-name="Shape" d="M43.639,13H40.365a1.091,1.091,0,0,1,1.091,1.091A5.44,5.44,0,0,1,36,19.547h3.274a5.44,5.44,0,0,0,5.456-5.456A1.091,1.091,0,0,0,43.639,13Z" transform="translate(2.194 -2.088)" fill="#549414"/>
          <path id="Shape-14" data-name="Shape" d="M35.821,18.456v1.091H31.456A5.44,5.44,0,0,1,26,14.091,1.091,1.091,0,0,1,27.091,13h3.274a5.456,5.456,0,0,1,5.456,5.456Z" transform="translate(1.281 -2.088)" fill="#60a917"/>
          <path id="Shape-15" data-name="Shape" d="M30.274,13H27a5.456,5.456,0,0,1,5.456,5.456v1.091H35.73V18.456A5.456,5.456,0,0,0,30.274,13Z" transform="translate(1.372 -2.088)" fill="#549414"/>
          <path id="Shape-16" data-name="Shape" d="M45.912,24.091a5.44,5.44,0,0,1-5.456,5.456H35V28.456A5.456,5.456,0,0,1,40.456,23h4.365a1.091,1.091,0,0,1,1.091,1.091Z" transform="translate(2.102 -1.175)" fill="#60a917"/>
          <path id="Shape-17" data-name="Shape" d="M44.639,23H41.365a1.091,1.091,0,0,1,1.091,1.091A5.44,5.44,0,0,1,37,29.547h3.274a5.44,5.44,0,0,0,5.456-5.456A1.091,1.091,0,0,0,44.639,23Z" transform="translate(2.285 -1.175)" fill="#549414"/>
          <path id="Shape-18" data-name="Shape" d="M35.912,28.456v1.091H30.456A5.44,5.44,0,0,1,25,24.091,1.091,1.091,0,0,1,26.091,23h4.365a5.456,5.456,0,0,1,5.456,5.456Z" transform="translate(1.19 -1.175)" fill="#60a917"/>
          <path id="Shape-19" data-name="Shape" d="M30.274,23H27a5.456,5.456,0,0,1,5.456,5.456v1.091H35.73V28.456A5.456,5.456,0,0,0,30.274,23Z" transform="translate(1.372 -1.175)" fill="#549414"/>
        </g>
        <path id="Shape-20" data-name="Shape" d="M34.1,37.064a7.7,7.7,0,0,1,.909-.764" transform="translate(3.111 3.312)" fill="none" stroke="#000" stroke-linecap="round" stroke-linejoin="round" stroke-width="2" fill-rule="evenodd"/>
        <path id="Shape-21" data-name="Shape" d="M44.37,37.51a7.591,7.591,0,0,1,1.043,1.626" transform="translate(4.048 3.423)" fill="none" stroke="#000" stroke-linecap="round" stroke-linejoin="round" stroke-width="2" fill-rule="evenodd"/>
        <path id="Shape-22" data-name="Shape" d="M23.63,35.511a7.711,7.711,0,0,1,1.066.533" transform="translate(2.156 3.24)" fill="none" stroke="#000" stroke-linecap="round" stroke-linejoin="round" stroke-width="2" fill-rule="evenodd"/>
        <path id="Shape-23" data-name="Shape" d="M3.274,65.475H8.73a3.257,3.257,0,0,0,2.423-1.091H38.521a8.73,8.73,0,0,0,4.54-1.271l20.45-12.45a4.086,4.086,0,0,0-3.409-7.37l-1.239.412A8.686,8.686,0,0,0,48.74,39.667a8.694,8.694,0,0,0-9.456-1.917V32.737H43.65A6.554,6.554,0,0,0,50.2,26.19a2.182,2.182,0,0,0-2.182-2.182H43.65a6.514,6.514,0,0,0-4.365,1.681V21.825h3.274a6.554,6.554,0,0,0,6.547-6.547,2.182,2.182,0,0,0-2.182-2.182H43.65a6.514,6.514,0,0,0-4.365,1.681V10.912h2.182a6.554,6.554,0,0,0,6.547-6.547,2.182,2.182,0,0,0-2.182-2.182c-2.469,0-4.416-.232-6.547,1.681V1.091a1.091,1.091,0,0,0-2.182,0V3.863C34.92,1.9,32.746,2.182,30.555,2.182a2.182,2.182,0,0,0-2.182,2.182,6.554,6.554,0,0,0,6.547,6.547H37.1v3.863a6.514,6.514,0,0,0-4.365-1.681H29.464a2.182,2.182,0,0,0-2.182,2.182,6.554,6.554,0,0,0,6.547,6.547H37.1v3.863a6.514,6.514,0,0,0-4.365-1.681H28.372A2.182,2.182,0,0,0,26.19,26.19a6.554,6.554,0,0,0,6.547,6.547H37.1v4.105a8.719,8.719,0,0,0-11.636.642A8.768,8.768,0,0,0,17.7,38.848a15.085,15.085,0,0,0-5.893-.655A3.274,3.274,0,0,0,8.73,36.011H3.274A3.274,3.274,0,0,0,0,39.285V62.2a3.274,3.274,0,0,0,3.274,3.274ZM43.65,26.19h4.365a4.365,4.365,0,0,1-4.365,4.365H39.285A4.365,4.365,0,0,1,43.65,26.19Zm0-10.912h3.274a4.365,4.365,0,0,1-4.365,4.365H39.285A4.365,4.365,0,0,1,43.65,15.277Zm0-10.912h2.182A4.365,4.365,0,0,1,41.467,8.73H39.285A4.365,4.365,0,0,1,43.65,4.365Zm-13.095,0h2.182A4.365,4.365,0,0,1,37.1,8.73H34.92A4.365,4.365,0,0,1,30.555,4.365ZM29.464,15.277h3.274A4.365,4.365,0,0,1,37.1,19.642H33.829A4.365,4.365,0,0,1,29.464,15.277ZM28.372,26.19h4.365A4.365,4.365,0,0,1,37.1,30.555H32.737A4.365,4.365,0,0,1,28.372,26.19Zm-3,13.573c.894.363.982.612,1.473.612a1.075,1.075,0,0,0,.743-1.863,6.518,6.518,0,0,1,9.048.924c-.061.056-.132.1-.192.16a1.091,1.091,0,0,0,1.528,1.558,6.564,6.564,0,0,1,10.5,1.873,1.091,1.091,0,1,0,1.971-.938c-.084-.177-.189-.342-.285-.513a6.477,6.477,0,0,1,6.583,2.837C38.019,50.651,39.805,50.2,38.236,50.2c1.364-3.787-2.126-7.639-6.119-7.639H26.408c-3.487,0-5.347-1.88-6.423-2.575a6.65,6.65,0,0,1,5.392-.22ZM19.506,42.32a11.088,11.088,0,0,0,6.9,2.421h5.708c2.9,0,5.4,3.137,3.677,5.456H29.159a11.468,11.468,0,0,0-6.852,2.368,1.091,1.091,0,1,0,1.218,1.811,9.336,9.336,0,0,1,5.634-2c10.611,0,10.317.095,11.431-.286l20.192-6.732A1.905,1.905,0,0,1,62.371,48.8L41.926,61.248a6.547,6.547,0,0,1-3.4.953H12V40.376c2.479,0,4.835-.191,7.5,1.944ZM2.182,39.285a1.091,1.091,0,0,1,1.091-1.091H8.73a1.091,1.091,0,0,1,1.091,1.091V62.2A1.091,1.091,0,0,1,8.73,63.292H3.274A1.091,1.091,0,0,1,2.182,62.2Z" transform="translate(0 0)"/>
        <path id="Shape-24" data-name="Shape" d="M37.723,42.21a1.091,1.091,0,0,0,1.395-.655.751.751,0,0,1,.437-.437,1.091,1.091,0,1,0-.74-2.052,2.921,2.921,0,0,0-1.746,1.746,1.091,1.091,0,0,0,.655,1.4Z" transform="translate(3.376 3.557)"/>
      </g>
    </g>
  </g>
</svg>
