<svg xmlns="http://www.w3.org/2000/svg" width="93.959" height="93.959" viewBox="0 0 93.959 93.959">
  <g id="Grupo_1166244" data-name="Grupo 1166244" transform="translate(-204.774 -1856)">
    <g id="Grupo_1165227" data-name="Grupo 1165227" transform="translate(-524.5 754.913)">
      <g id="Grupo_1151642" data-name="Grupo 1151642" transform="translate(729.274 1101.087)">
        <g id="Grupo_1103990" data-name="Grupo 1103990" transform="translate(0)">
          <g id="Trazado_874102" data-name="Trazado 874102" transform="translate(0)" fill="#f0f7e8">
            <path d="M 46.97949600219727 91.45897674560547 C 40.97370910644531 91.45897674560547 35.14888000488281 90.28328704833984 29.66683959960938 87.96457672119141 C 24.37055397033691 85.72444915771484 19.61348152160645 82.51696014404297 15.52775287628174 78.43122863769531 C 11.44202423095703 74.34550476074219 8.234539031982422 69.58843231201172 5.994410514831543 64.29214477539062 C 3.675695896148682 58.81010437011719 2.500010251998901 52.98527526855469 2.500010251998901 46.97948837280273 C 2.500010251998901 40.97369003295898 3.675695896148682 35.14887237548828 5.994410514831543 29.66683197021484 C 8.234539031982422 24.37054634094238 11.44202423095703 19.61346054077148 15.52775287628174 15.52774524688721 C 19.61348152160645 11.4420166015625 24.37055397033691 8.234531402587891 29.66683959960938 5.994388580322266 C 35.14888000488281 3.67568826675415 40.97370910644531 2.50000262260437 46.97949600219727 2.50000262260437 C 52.98529434204102 2.50000262260437 58.81011199951172 3.67568826675415 64.29215240478516 5.994388580322266 C 69.58843994140625 8.234531402587891 74.34552764892578 11.4420166015625 78.43123626708984 15.52774524688721 C 82.5169677734375 19.61346054077148 85.72445678710938 24.37054634094238 87.964599609375 29.66683197021484 C 90.28329467773438 35.14887237548828 91.458984375 40.97369003295898 91.458984375 46.97948837280273 C 91.458984375 52.98527526855469 90.28329467773438 58.81010437011719 87.964599609375 64.29214477539062 C 85.72445678710938 69.58843231201172 82.5169677734375 74.34550476074219 78.43123626708984 78.43122863769531 C 74.34552764892578 82.51696014404297 69.58843994140625 85.72444915771484 64.29215240478516 87.96457672119141 C 58.81011199951172 90.28328704833984 52.98529434204102 91.45897674560547 46.97949600219727 91.45897674560547 Z" stroke="none"/>
            <path d="M 46.97949600219727 5.000007629394531 C 41.31009674072266 5.000007629394531 35.81294631958008 6.109237670898438 30.64072799682617 8.296905517578125 C 25.64242553710938 10.41100311279297 21.1524658203125 13.43856811523438 17.29550933837891 17.29550170898438 C 13.43857574462891 21.15245819091797 10.4110107421875 25.64241790771484 8.296913146972656 30.64072036743164 C 6.109245300292969 35.81293869018555 5.000015258789062 41.31008911132812 5.000015258789062 46.97948837280273 C 5.000015258789062 52.64888763427734 6.109245300292969 58.14603805541992 8.296913146972656 63.31825256347656 C 10.4110107421875 68.31653594970703 13.43857574462891 72.8065185546875 17.29550933837891 76.6634521484375 C 21.1524658203125 80.52040100097656 25.64242553710938 83.5479736328125 30.64072799682617 85.66207122802734 C 35.81294631958008 87.84973907470703 41.31009674072266 88.95896911621094 46.97949600219727 88.95896911621094 C 52.64889526367188 88.95896911621094 58.14604568481445 87.84973907470703 63.31826019287109 85.66207122802734 C 68.31655883789062 83.5479736328125 72.80653381347656 80.52040100097656 76.66348266601562 76.6634521484375 C 80.52041625976562 72.8065185546875 83.54798126220703 68.31653594970703 85.66207885742188 63.31825256347656 C 87.84974670410156 58.14603805541992 88.95897674560547 52.64888763427734 88.95897674560547 46.97948837280273 C 88.95897674560547 41.31008911132812 87.84974670410156 35.81293869018555 85.66207885742188 30.64072036743164 C 83.54798126220703 25.64241790771484 80.52041625976562 21.15245819091797 76.66348266601562 17.29550170898438 C 72.80653381347656 13.43856811523438 68.31655883789062 10.41100311279297 63.31826019287109 8.296905517578125 C 58.14604568481445 6.109237670898438 52.64889526367188 5.000007629394531 46.97949600219727 5.000007629394531 M 46.97949600219727 7.62939453125e-06 C 72.92554473876953 7.62939453125e-06 93.95897674560547 21.03343963623047 93.95897674560547 46.97948837280273 C 93.95897674560547 72.92552185058594 72.92554473876953 93.95896911621094 46.97949600219727 93.95896911621094 C 21.033447265625 93.95896911621094 1.52587890625e-05 72.92552185058594 1.52587890625e-05 46.97948837280273 C 1.52587890625e-05 21.03343963623047 21.033447265625 7.62939453125e-06 46.97949600219727 7.62939453125e-06 Z" stroke="none" fill="#fff"/>
          </g>
        </g>
      </g>
    </g>
    <g id="el-planeta-tierra_1_" data-name="el-planeta-tierra (1)" transform="translate(218.773 1870)">
      <path id="Trazado_992754" data-name="Trazado 992754" d="M91.611,153.2a21.175,21.175,0,1,0-21.175,21.231A21.2,21.2,0,0,0,91.611,153.2Zm0,0" transform="translate(-42.961 -115.088)" fill="#97c9e8"/>
      <path id="Trazado_992755" data-name="Trazado 992755" d="M193.025,131.965a21.289,21.289,0,0,0-3.2.241,21.242,21.242,0,0,1,0,41.98,21.227,21.227,0,1,0,3.2-42.221Zm0,0" transform="translate(-165.55 -115.088)" fill="#60b6ff"/>
      <g id="Grupo_1166243" data-name="Grupo 1166243" transform="translate(6.301 16.919)">
        <path id="Trazado_992756" data-name="Trazado 992756" d="M162.605,140.5c-3.262,2.044-5.708,5.314-3.873,8.994s5.912,2.249,9.684,1.738.917,11.14,3.16,14,8.562-2.862,7.951-6.541c-.905-5.447-1.223-7.359,6.116-11.242l.02-.007A21.2,21.2,0,0,0,166.684,132.3v.032s-.815,6.132-4.077,8.176Zm0,0" transform="translate(-144.183 -132.296)" fill="#baeb6c"/>
        <path id="Trazado_992757" data-name="Trazado 992757" d="M318.566,168.6l0,0Zm0,0" transform="translate(-284.125 -163.955)" fill="#baeb6c"/>
        <path id="Trazado_992758" data-name="Trazado 992758" d="M338.809,187.961h0Zm0,0" transform="translate(-301.779 -180.842)" fill="#baeb6c"/>
        <path id="Trazado_992759" data-name="Trazado 992759" d="M56.37,257.13c-.98-1.494,1.733-5.008,2.344-7.665s-3.058-2.453-4.179-3.373-2.65-4.906-3.772-5.825l-.179-.142a21.291,21.291,0,0,0,7.308,24.5l.006-.445A9.773,9.773,0,0,0,56.37,257.13Zm0,0" transform="translate(-49.262 -226.335)" fill="#baeb6c"/>
        <path id="Trazado_992760" data-name="Trazado 992760" d="M313.53,338.185c0-.026-.009-.052-.013-.079a21.131,21.131,0,0,1-1.76,4.66C312.963,341.345,313.767,339.612,313.53,338.185Zm0,0" transform="translate(-278.187 -311.785)" fill="#baeb6c"/>
      </g>
      <path id="Trazado_992761" data-name="Trazado 992761" d="M223.533,132.3v.032s-.068.512-.243,1.288A21.239,21.239,0,0,1,236.9,151.535c.936-1.28,2.647-2.521,5.594-4.08l.02-.007A21.2,21.2,0,0,0,223.533,132.3Zm0,0" transform="translate(-194.732 -115.377)" fill="#96d629"/>
      <path id="Trazado_992762" data-name="Trazado 992762" d="M55.928,30.936c-10.24-1.738-16.592-14.63-16.592-14.63S49.586,6.23,59.825,7.967,76.417,22.6,76.417,22.6,66.167,32.673,55.928,30.936Zm0,0" transform="translate(-34.305 -6.773)" fill="#49cb5c"/>
      <path id="Trazado_992763" data-name="Trazado 992763" d="M160.033,7.973a15.9,15.9,0,0,0-5.795.145C164.049,10.322,170.1,22.6,170.1,22.6s-6.71,6.594-14.695,8.193c.241.054.483.1.728.146,10.239,1.737,20.489-8.339,20.489-8.339S170.273,9.71,160.033,7.973Zm0,0" transform="translate(-134.512 -6.778)" fill="#07b128"/>
      <path id="Trazado_992764" data-name="Trazado 992764" d="M378.171,31.837c2.747-6.5,12.264-8.689,12.264-8.689S395.5,31.5,392.753,38s-12.264,8.688-12.264,8.688-5.064-8.35-2.317-14.85Zm0,0" transform="translate(-329.094 -20.188)" fill="#49cb5c"/>
      <path id="Trazado_992765" data-name="Trazado 992765" d="M405.665,23.148a25.464,25.464,0,0,0-4.727,1.724c1.314,2.785,3.4,8.437,1.417,13.126-1.437,3.4-4.727,5.62-7.538,6.965.508,1.075.9,1.724.9,1.724S405.235,44.5,407.982,38s-2.317-14.85-2.317-14.85Zm0,0" transform="translate(-344.323 -20.188)" fill="#07b128"/>
      <path id="Trazado_992766" data-name="Trazado 992766" d="M64.444,7.631a26.345,26.345,0,0,0-2.283-5.195A.978.978,0,0,0,61.126,2a26.368,26.368,0,0,0-5.315,1.983c-3.77,1.882-6.4,4.4-7.617,7.266a14.074,14.074,0,0,0-.439,8.542A27.209,27.209,0,0,0,42.64,15.34,39.615,39.615,0,0,0,38.2,8.527a.96.96,0,0,0-1.489,1.21,38.375,38.375,0,0,1,3.539,5.206l-8.737-1.7-8.3-11.324a13.558,13.558,0,0,1,2.42.247,16.562,16.562,0,0,1,7.493,3.862.96.96,0,0,0,1.244-1.46A18.453,18.453,0,0,0,26,.28C21.6-.58,16.474.549,11.17,3.547A38.277,38.277,0,0,0,4.462,8.338a1.015,1.015,0,0,0-.114,1.317,39.143,39.143,0,0,0,4.3,6.753,30,30,0,0,0,4.535,4.661q-.67.561-1.3,1.178a22.176,22.176,0,0,0,7.174,36.4.96.96,0,0,0,.721-1.777,20.251,20.251,0,0,1-4.149-2.283A10.808,10.808,0,0,0,14,47.02c-.3-.474.6-2.333,1.148-3.445a18.014,18.014,0,0,0,1.409-3.444,2.625,2.625,0,0,0-.933-2.876,7.079,7.079,0,0,0-2.281-1.011,4.9,4.9,0,0,1-1.253-.491,12.764,12.764,0,0,1-1.624-2.643,16.408,16.408,0,0,0-1.753-2.882,20.4,20.4,0,0,1,6.055-7.978,16.774,16.774,0,0,0,8.083,3c-3.39,2.627-4.487,5.981-2.919,9.2,1.83,3.762,5.6,3.161,8.922,2.632.575-.092,1.17-.187,1.74-.258.214-.027.278.031.321.069.728.647.706,3.74.691,6-.021,3.123-.041,6.073,1.122,7.588a2.928,2.928,0,0,0,2.409,1.167,4.838,4.838,0,0,0,1.894-.428c2.893-1.239,5.9-4.968,5.442-7.918-.4-2.579-.666-4.283-.041-5.657.579-1.271,1.976-2.448,4.729-3.95A20.256,20.256,0,0,1,25.15,58.223a.96.96,0,0,0-.21,1.907,22.3,22.3,0,0,0,17.954-6.189A22.161,22.161,0,0,0,39.482,19.52c1.267-.9,2.212-1.685,2.735-2.139A25.468,25.468,0,1,1,2.266,33.945a.96.96,0,0,0-1.892-.313A27.379,27.379,0,0,0,22.927,65.107a27.726,27.726,0,0,0,4.52.372A27.4,27.4,0,0,0,52.5,27.166a27.609,27.609,0,0,0,4.423-1.742c3.77-1.882,6.4-4.4,7.617-7.266s1.18-6.511-.1-10.526ZM8.769,34.007a11.943,11.943,0,0,0,2.09,3.219,5.5,5.5,0,0,0,1.92.853c1.875.577,2.093.859,1.913,1.6a16.752,16.752,0,0,1-1.267,3.053c-.991,2.027-1.926,3.941-1.04,5.323a9.122,9.122,0,0,1,1.452,5.09A20.445,20.445,0,0,1,7.925,32.46c.282.484.579,1.046.844,1.548ZM55.18,15.157,52.453,8.55A17.953,17.953,0,0,1,56.63,5.719a25.629,25.629,0,0,1,3.031-1.276Zm6.25-9.97a25.642,25.642,0,0,1,1.2,3.067,18.337,18.337,0,0,1,.869,4.625l-6.388,2.636ZM49.961,12a9.114,9.114,0,0,1,1.071-1.862l3.1,7.52L51.35,24.313a25.517,25.517,0,0,1-1.243-3.159c-.784-2.48-1.446-6.082-.146-9.158Zm6.145,11.692a25.511,25.511,0,0,1-2.935,1.242l2.89-6.909,7.356-3.035a9.265,9.265,0,0,1-.641,2.424c-1.3,3.075-4.344,5.112-6.669,6.278Zm-34.589-.546c-.339-.066-.673-.147-1-.24L31.13,15.121l8.741,1.7c-3.184,2.509-10.934,7.772-18.355,6.318Zm-9.7-6A37.35,37.35,0,0,1,6.924,10.4l11.124,2.169Zm1.965-12.8,4.654,6.349L7.237,8.509a37.79,37.79,0,0,1,6.542-4.166Zm7.43,6.89-5.643-7.7a21.576,21.576,0,0,1,5.361-1.484L28.733,12.7Zm-.6,1.838,7.956,1.551L18.357,22.106a19.844,19.844,0,0,1-5.175-3.589ZM46.64,31.8c-3.458,1.842-5.152,3.29-5.955,5.055-.863,1.9-.547,3.93-.109,6.746.258,1.661-1.715,4.752-4.3,5.86-.957.41-1.638.361-2.026-.144-.762-.992-.741-3.994-.725-6.406.022-3.337.042-6.219-1.334-7.444a2.261,2.261,0,0,0-1.832-.54c-.6.075-1.215.172-1.806.267-3.526.562-5.745.787-6.895-1.576-1.862-3.828,1.908-6.663,3.615-7.7a6.073,6.073,0,0,0,.97-.74,27.889,27.889,0,0,0,11.5-4.481A20.36,20.36,0,0,1,46.64,31.8Zm0,0" transform="translate(0 0)"/>
    </g>
  </g>
</svg>
