<svg xmlns="http://www.w3.org/2000/svg" xmlns:xlink="http://www.w3.org/1999/xlink" width="105.781" height="105.781" viewBox="0 0 105.781 105.781">
  <defs>
    <filter id="Trazado_985596" x="0" y="0" width="105.781" height="105.781" filterUnits="userSpaceOnUse">
      <feOffset dy="3" input="SourceAlpha"/>
      <feGaussianBlur stdDeviation="3" result="blur"/>
      <feFlood flood-opacity="0.161"/>
      <feComposite operator="in" in2="blur"/>
      <feComposite in="SourceGraphic"/>
    </filter>
  </defs>
  <g id="Grupo_1165476" data-name="Grupo 1165476" transform="translate(-747.107 -1376)">
    <g id="Grupo_1163784" data-name="Grupo 1163784" transform="translate(-0.893 267.332)">
      <g transform="matrix(1, 0, 0, 1, 748, 1108.67)" filter="url(#Trazado_985596)">
        <g id="Trazado_985596-2" data-name="Trazado 985596" transform="translate(9 6)" fill="#f3d02c">
          <path d="M 43.8906364440918 85.28125762939453 C 38.30183792114258 85.28125762939453 32.88154220581055 84.18724060058594 27.78030395507812 82.02960205078125 C 22.85183715820312 79.94503021240234 18.42508888244629 76.96026611328125 14.62304973602295 73.15821838378906 C 10.82099628448486 69.35617828369141 7.836236476898193 64.92942810058594 5.751663208007812 60.00096130371094 C 3.59402322769165 54.89972305297852 2.500009775161743 49.47942733764648 2.500009775161743 43.89062881469727 C 2.500009775161743 38.30183029174805 3.59402322769165 32.88153457641602 5.751663208007812 27.78029632568359 C 7.836236476898193 22.85182952880859 10.82099628448486 18.42508125305176 14.62304973602295 14.62304210662842 C 18.42508888244629 10.82098865509033 22.85183715820312 7.836228847503662 27.78030395507812 5.751655578613281 C 32.88154220581055 3.594015598297119 38.30183792114258 2.500002145767212 43.8906364440918 2.500002145767212 C 49.47943496704102 2.500002145767212 54.89973068237305 3.594015598297119 60.00096893310547 5.751655578613281 C 64.92943572998047 7.836228847503662 69.35618591308594 10.82098865509033 73.15822601318359 14.62304210662842 C 76.96027374267578 18.42508125305176 79.94503784179688 22.85182952880859 82.02960968017578 27.78029632568359 C 84.18724822998047 32.88153457641602 85.28126525878906 38.30183029174805 85.28126525878906 43.89062881469727 C 85.28126525878906 49.47942733764648 84.18724822998047 54.89972305297852 82.02960968017578 60.00096130371094 C 79.94503784179688 64.92942810058594 76.96027374267578 69.35617828369141 73.15822601318359 73.15821838378906 C 69.35618591308594 76.96026611328125 64.92943572998047 79.94503021240234 60.00096893310547 82.02960205078125 C 54.89973068237305 84.18724060058594 49.47943496704102 85.28125762939453 43.8906364440918 85.28125762939453 Z" stroke="none"/>
          <path d="M 43.8906364440918 4.999992370605469 C 38.63823699951172 4.999992370605469 33.54560470581055 6.027565002441406 28.75418472290039 8.054161071777344 C 24.12371826171875 10.0126953125 19.96407318115234 12.81754302978516 16.39080047607422 16.39079284667969 C 12.81755065917969 19.96406555175781 10.01270294189453 24.12371063232422 8.054168701171875 28.75417709350586 C 6.027572631835938 33.54559707641602 5 38.63822937011719 5 43.89062881469727 C 5 49.14302825927734 6.027572631835938 54.23566055297852 8.054168701171875 59.02707672119141 C 10.01270294189453 63.65754699707031 12.81755065917969 67.81719970703125 16.39080047607422 71.39046478271484 C 19.96407318115234 74.96371459960938 24.12371826171875 77.76856231689453 28.75418472290039 79.72709655761719 C 33.54560470581055 81.75369262695312 38.63823699951172 82.78126525878906 43.8906364440918 82.78126525878906 C 49.14303588867188 82.78126525878906 54.23566818237305 81.75369262695312 59.02708435058594 79.72709655761719 C 63.65755462646484 77.76856231689453 67.81719970703125 74.96371459960938 71.39047241210938 71.39046478271484 C 74.96372222900391 67.81719970703125 77.76856994628906 63.65754699707031 79.72710418701172 59.02707672119141 C 81.75370025634766 54.23566055297852 82.78127288818359 49.14302825927734 82.78127288818359 43.89062881469727 C 82.78127288818359 38.63822937011719 81.75370025634766 33.54559707641602 79.72710418701172 28.75417709350586 C 77.76856994628906 24.12371063232422 74.96372222900391 19.96406555175781 71.39047241210938 16.39079284667969 C 67.81719970703125 12.81754302978516 63.65755462646484 10.0126953125 59.02708435058594 8.054161071777344 C 54.23566818237305 6.027565002441406 49.14303588867188 4.999992370605469 43.8906364440918 4.999992370605469 M 43.8906364440918 -7.62939453125e-06 C 68.13075256347656 -7.62939453125e-06 87.78127288818359 19.6505126953125 87.78127288818359 43.89062881469727 C 87.78127288818359 68.13074493408203 68.13075256347656 87.78126525878906 43.8906364440918 87.78126525878906 C 19.65052032470703 87.78126525878906 0 68.13074493408203 0 43.89062881469727 C 0 19.6505126953125 19.65052032470703 -7.62939453125e-06 43.8906364440918 -7.62939453125e-06 Z" stroke="none" fill="#fff"/>
        </g>
      </g>
    </g>
    <g id="cambio-climatico" transform="translate(795.491 1385)">
      <g id="Grupo_1165475" data-name="Grupo 1165475" transform="translate(-27.384 9.369)">
        <g id="Grupo_1165471" data-name="Grupo 1165471" transform="translate(0 0)">
          <circle id="Elipse_11799" data-name="Elipse 11799" cx="22.435" cy="22.435" r="22.435" transform="translate(0 31.723) rotate(-45)" fill="#a4d4ff"/>
          <g id="Grupo_1165470" data-name="Grupo 1165470" transform="translate(13.821 9.289)">
            <path id="Trazado_991808" data-name="Trazado 991808" d="M112.927,119.417c-2.562-2.259-1.486-3.359.532-3.917,2.321-.643,5.889-.569,6.6-.719,1.656-.352,2.133-1.517.867-2.615-1.487-1.289-4.09-2.706-4.7-3.86-.838-1.6-.229-2.071.852-2.405,2.29-.708,6.7-.78,3.972-9.5a22.467,22.467,0,0,0-25,7.777,13.049,13.049,0,0,1,2.651,5.108c.348,7.112,3.708,7.051,4.7,7.436,2.5.973,4.37,6.769,5.929,8.576.9,1.046,2.8,3.241,5.81,1.649C118.777,125.013,114,120.367,112.927,119.417Z" transform="translate(-96.052 -95.255)" fill="#89c053" fill-rule="evenodd"/>
            <path id="Trazado_991809" data-name="Trazado 991809" d="M116.144,426.766c.242-5.656-6.622-1.735-7.594-2.243a22.454,22.454,0,0,0,9.3,6.062c.033-.3-.029-.255-.008-.6C118.026,427.017,116.092,427.992,116.144,426.766Z" transform="translate(-107.151 -386.898)" fill="#89c053" fill-rule="evenodd"/>
            <path id="Trazado_991810" data-name="Trazado 991810" d="M369.422,263.548c-2.074,2.027.9,6.4-3.719,9.248-2.662,1.641,1.485,4.919,0,8.753a2.094,2.094,0,0,0,.568,2.408,22.475,22.475,0,0,0,8.469-21.494C371.822,262.349,370.207,262.781,369.422,263.548Z" transform="translate(-334.7 -243.725)" fill="#89c053" fill-rule="evenodd"/>
          </g>
        </g>
        <g id="Grupo_1165472" data-name="Grupo 1165472" transform="translate(5.279 0.835)">
          <path id="Trazado_991811" data-name="Trazado 991811" d="M34.2,21.31a3.166,3.166,0,0,0,3.037,3.038.336.336,0,0,1,.285.493,3.166,3.166,0,0,0,1.112,4.148.336.336,0,0,1,0,.569,3.181,3.181,0,0,0-1.111,4.148.336.336,0,0,1-.285.493A3.166,3.166,0,0,0,34.2,37.236a.336.336,0,0,1-.493.285,3.166,3.166,0,0,0-4.148,1.112.336.336,0,0,1-.569,0,3.182,3.182,0,0,0-4.148-1.112.336.336,0,0,1-.492-.285A3.166,3.166,0,0,0,21.316,34.2a.336.336,0,0,1-.285-.493,3.166,3.166,0,0,0-1.112-4.148.336.336,0,0,1,0-.569A3.182,3.182,0,0,0,21.03,24.84a.336.336,0,0,1,.285-.492,3.165,3.165,0,0,0,3.037-3.037.336.336,0,0,1,.493-.285,3.166,3.166,0,0,0,4.148-1.112.336.336,0,0,1,.569,0,3.182,3.182,0,0,0,4.149,1.111.336.336,0,0,1,.492.285Z" transform="translate(-19.761 -19.756)" fill="#f5b945" fill-rule="evenodd"/>
          <circle id="Elipse_11800" data-name="Elipse 11800" cx="5.068" cy="5.068" r="5.068" transform="translate(3.42 5.746) rotate(-13.3)" fill="#fdcd56"/>
        </g>
        <g id="Grupo_1165474" data-name="Grupo 1165474" transform="translate(50.144 17.633)">
          <g id="Grupo_1165473" data-name="Grupo 1165473">
            <path id="Trazado_991812" data-name="Trazado 991812" d="M424.7,169.778a3.069,3.069,0,0,1,3.06,3.06v17.975a4.228,4.228,0,1,1-6.12,0V172.838A3.069,3.069,0,0,1,424.7,169.778Z" transform="translate(-420.473 -169.778)" fill="#c7e0ec" fill-rule="evenodd"/>
            <path id="Trazado_991813" data-name="Trazado 991813" d="M435.52,236.187h-3.88V249.57a1.659,1.659,0,0,1-.41,1.1,3.109,3.109,0,1,0,4.7,0,1.658,1.658,0,0,1-.41-1.1Z" transform="translate(-429.352 -228.751)" fill="#f76c82" fill-rule="evenodd"/>
          </g>
        </g>
      </g>
      <path id="Trazado_991814" data-name="Trazado 991814" d="M15.437,19.721a4.284,4.284,0,1,1,4.285,4.284A4.29,4.29,0,0,1,15.437,19.721Zm10.136,0a5.852,5.852,0,1,0-5.851,5.852A5.858,5.858,0,0,0,25.573,19.721Zm28.943,3.605a.784.784,0,0,1,1.108-1.108l1.853,1.853a.784.784,0,0,1-1.109,1.109Zm6.6,1.854a.783.783,0,0,1,0-1.109l1.853-1.853a.784.784,0,1,1,1.108,1.108L62.228,25.18a.785.785,0,0,1-1.109,0Zm-2.605-1.538V21.021a.784.784,0,1,1,1.567,0v2.621a.784.784,0,1,1-1.567,0ZM59.3,54.4a3.445,3.445,0,0,1-2.492-5.823.784.784,0,0,0,.217-.541V46.179h1.308a.784.784,0,0,0,0-1.568H57.023V41.876h1.308a.784.784,0,0,0,0-1.568H57.023V37.573h1.308a.784.784,0,0,0,0-1.568H57.023V34.1h4.552V48.037a.784.784,0,0,0,.217.541A3.445,3.445,0,0,1,59.3,54.4ZM50.42,57.818c-.2-.336-.12-.59.061-1.054.82-2.119.157-4.038-.377-5.581-.627-1.813-.685-2.33.057-2.788,3.135-1.932,3.182-4.623,3.217-6.586.024-1.353.068-2.21.639-2.769a2.927,2.927,0,0,1,1.439-.671v9.368a5,5,0,0,0-.726,5.275,21.812,21.812,0,0,1-4.31,4.806ZM36.655,62.743a21.573,21.573,0,0,0,12.519-3.973,2.536,2.536,0,0,1-.155-2.573c.613-1.583.1-3.067-.4-4.5-.561-1.62-1.2-3.456.717-4.635,2.405-1.482,2.438-3.326,2.472-5.279.025-1.389.05-2.825,1.11-3.862a4.71,4.71,0,0,1,2.535-1.147V30.349a21.7,21.7,0,0,0-10.54-9.264c.681,2.764.621,4.825-.181,6.266-.956,1.719-2.725,2.174-4.017,2.506-.258.066-.5.129-.715.195-.574.177-.666.306-.681.34,0,.009-.087.231.291.952a10.225,10.225,0,0,0,2.529,2.14c.695.49,1.414,1,1.986,1.492a2.234,2.234,0,0,1,.934,2.29,2.57,2.57,0,0,1-2.151,1.684,11.99,11.99,0,0,1-1.54.122,25.519,25.519,0,0,0-5.011.586c-.994.275-1.4.608-1.452.827-.021.092-.062.609,1.229,1.747.691.609,4.118,3.781,3.8,6.465A3.01,3.01,0,0,1,38.2,51.038a5.126,5.126,0,0,1-2.418.654c-2.21,0-3.692-1.718-4.353-2.483a18.241,18.241,0,0,1-1.919-3.235c-1.059-2.052-2.377-4.606-3.7-5.123-.075-.029-.212-.065-.355-.1-1.348-.354-4.5-1.18-4.839-8.025a8.794,8.794,0,0,0-.9-2.282.784.784,0,0,1-.723-.509,2.389,2.389,0,0,0-.431-.727A21.634,21.634,0,0,0,20.54,55.535c.289-.04.819-.182,1.227-.292,1.742-.469,4.128-1.111,5.616.082a3.686,3.686,0,0,1,1.141,3.205c.048.028.117.064.173.092.8.408,1.65,1.021,1.527,3.146A21.557,21.557,0,0,0,36.655,62.743Zm-8.667-2.724c.36.183.655.334.679,1.2a21.7,21.7,0,0,1-6.843-4.366l.35-.094c1.338-.361,3.36-.9,4.229-.209a2.293,2.293,0,0,1,.553,1.944,1.548,1.548,0,0,0,1.031,1.527Zm-11.253-33.2a4.038,4.038,0,0,1,1.045.139,3.924,3.924,0,0,1,1.939,1.19,3.977,3.977,0,0,1,4.216-1.131,3.974,3.974,0,0,1,3.088-3.086,3.995,3.995,0,0,1,1.129-4.213,3.969,3.969,0,0,1-1.131-4.216,3.971,3.971,0,0,1-3.086-3.088,4,4,0,0,1-4.213-1.129,3.977,3.977,0,0,1-4.216,1.131,3.975,3.975,0,0,1-3.088,3.086,3.993,3.993,0,0,1-1.129,4.213,3.972,3.972,0,0,1,1.131,4.216,3.974,3.974,0,0,1,3.086,3.088A3.868,3.868,0,0,1,16.736,26.824Zm12.27-1.742a.782.782,0,0,1-.808.381A2.375,2.375,0,0,0,25.463,28.2a.784.784,0,0,1-1.272.734,2.38,2.38,0,0,0-3.34.314,10.872,10.872,0,0,1,1.328,3.4c.279,5.7,2.486,6.275,3.671,6.586a4.8,4.8,0,0,1,.526.159c1.875.731,3.283,3.458,4.526,5.864a17.952,17.952,0,0,0,1.712,2.93c1.157,1.34,2.581,2.67,4.849,1.468a1.45,1.45,0,0,0,.921-1.141c.187-1.586-2.065-4.032-3.282-5.1-1.384-1.22-1.946-2.292-1.72-3.275.21-.918,1.049-1.568,2.561-1.986a26.707,26.707,0,0,1,5.353-.641c.553-.027,1.126-.055,1.289-.09.6-.127.915-.37.96-.542.032-.125-.065-.386-.443-.715-.513-.445-1.2-.928-1.862-1.4a10.048,10.048,0,0,1-3.014-2.692,2.769,2.769,0,0,1-.351-2.282,2.427,2.427,0,0,1,1.665-1.237c.249-.077.511-.144.787-.215,1.185-.3,2.41-.62,3.039-1.75.682-1.225.6-3.3-.251-6.158a21.652,21.652,0,0,0-13.554.2,2.39,2.39,0,0,0-.628,3.559.784.784,0,0,1,.074.891Zm30.292,2.7a2.279,2.279,0,0,1,2.276,2.276v2.472H57.023V30.061A2.278,2.278,0,0,1,59.3,27.785Zm3.844,2.276a3.842,3.842,0,0,0-7.191-1.885,23.239,23.239,0,0,0-26.186-9.259,2.374,2.374,0,0,1-.833-3.665A.784.784,0,0,0,28.2,13.98a2.374,2.374,0,0,1-2.734-2.734.784.784,0,0,0-1.272-.734,2.385,2.385,0,0,1-3.736-1,.783.783,0,0,0-1.468,0,2.376,2.376,0,0,1-3.737,1,.784.784,0,0,0-1.272.734,2.374,2.374,0,0,1-2.734,2.734.784.784,0,0,0-.734,1.272,2.385,2.385,0,0,1-1,3.735.784.784,0,0,0,0,1.469,2.375,2.375,0,0,1,1,3.735.783.783,0,0,0,.734,1.271A2.375,2.375,0,0,1,13.979,28.2a.784.784,0,0,0,1.272.734,2.338,2.338,0,0,1,1.937-.5,23.223,23.223,0,0,0,30.846,32.9,23.37,23.37,0,0,0,7.638-6.925,5.011,5.011,0,0,0,7.469-6.673Z" transform="translate(-32.31 0)" fill-rule="evenodd"/>
    </g>
  </g>
</svg>
