<svg xmlns="http://www.w3.org/2000/svg" xmlns:xlink="http://www.w3.org/1999/xlink" width="105.781" height="105.781" viewBox="0 0 105.781 105.781">
  <defs>
    <filter id="Trazado_985594" x="0" y="0" width="105.781" height="105.781" filterUnits="userSpaceOnUse">
      <feOffset dy="3" input="SourceAlpha"/>
      <feGaussianBlur stdDeviation="3" result="blur"/>
      <feFlood flood-opacity="0.161"/>
      <feComposite operator="in" in2="blur"/>
      <feComposite in="SourceGraphic"/>
    </filter>
  </defs>
  <g id="Grupo_1165647" data-name="Grupo 1165647" transform="translate(-327.051 -2111)">
    <g id="Grupo_1163821" data-name="Grupo 1163821" transform="translate(-1 1002.332)">
      <g transform="matrix(1, 0, 0, 1, 328.05, 1108.67)" filter="url(#Trazado_985594)">
        <g id="Trazado_985594-2" data-name="Trazado 985594" transform="translate(9 6)" fill="#f3d02c">
          <path d="M 43.8906364440918 85.28125762939453 C 38.30183792114258 85.28125762939453 32.88154220581055 84.18724060058594 27.78030395507812 82.02960205078125 C 22.85183715820312 79.94503021240234 18.42508888244629 76.96026611328125 14.62304973602295 73.15821838378906 C 10.82099628448486 69.35617828369141 7.836236476898193 64.92942810058594 5.751663208007812 60.00096130371094 C 3.59402322769165 54.89972305297852 2.500009775161743 49.47942733764648 2.500009775161743 43.89062881469727 C 2.500009775161743 38.30183029174805 3.59402322769165 32.88153457641602 5.751663208007812 27.78029632568359 C 7.836236476898193 22.85182952880859 10.82099628448486 18.42508125305176 14.62304973602295 14.62304210662842 C 18.42508888244629 10.82098865509033 22.85183715820312 7.836228847503662 27.78030395507812 5.751655578613281 C 32.88154220581055 3.594015598297119 38.30183792114258 2.500002145767212 43.8906364440918 2.500002145767212 C 49.47943496704102 2.500002145767212 54.89973068237305 3.594015598297119 60.00096893310547 5.751655578613281 C 64.92943572998047 7.836228847503662 69.35618591308594 10.82098865509033 73.15822601318359 14.62304210662842 C 76.96027374267578 18.42508125305176 79.94503784179688 22.85182952880859 82.02960968017578 27.78029632568359 C 84.18724822998047 32.88153457641602 85.28126525878906 38.30183029174805 85.28126525878906 43.89062881469727 C 85.28126525878906 49.47942733764648 84.18724822998047 54.89972305297852 82.02960968017578 60.00096130371094 C 79.94503784179688 64.92942810058594 76.96027374267578 69.35617828369141 73.15822601318359 73.15821838378906 C 69.35618591308594 76.96026611328125 64.92943572998047 79.94503021240234 60.00096893310547 82.02960205078125 C 54.89973068237305 84.18724060058594 49.47943496704102 85.28125762939453 43.8906364440918 85.28125762939453 Z" stroke="none"/>
          <path d="M 43.8906364440918 4.999992370605469 C 38.63823699951172 4.999992370605469 33.54560470581055 6.027565002441406 28.75418472290039 8.054161071777344 C 24.12371826171875 10.0126953125 19.96407318115234 12.81754302978516 16.39080047607422 16.39079284667969 C 12.81755065917969 19.96406555175781 10.01270294189453 24.12371063232422 8.054168701171875 28.75417709350586 C 6.027572631835938 33.54559707641602 5 38.63822937011719 5 43.89062881469727 C 5 49.14302825927734 6.027572631835938 54.23566055297852 8.054168701171875 59.02707672119141 C 10.01270294189453 63.65754699707031 12.81755065917969 67.81719970703125 16.39080047607422 71.39046478271484 C 19.96407318115234 74.96371459960938 24.12371826171875 77.76856231689453 28.75418472290039 79.72709655761719 C 33.54560470581055 81.75369262695312 38.63823699951172 82.78126525878906 43.8906364440918 82.78126525878906 C 49.14303588867188 82.78126525878906 54.23566818237305 81.75369262695312 59.02708435058594 79.72709655761719 C 63.65755462646484 77.76856231689453 67.81719970703125 74.96371459960938 71.39047241210938 71.39046478271484 C 74.96372222900391 67.81719970703125 77.76856994628906 63.65754699707031 79.72710418701172 59.02707672119141 C 81.75370025634766 54.23566055297852 82.78127288818359 49.14302825927734 82.78127288818359 43.89062881469727 C 82.78127288818359 38.63822937011719 81.75370025634766 33.54559707641602 79.72710418701172 28.75417709350586 C 77.76856994628906 24.12371063232422 74.96372222900391 19.96406555175781 71.39047241210938 16.39079284667969 C 67.81719970703125 12.81754302978516 63.65755462646484 10.0126953125 59.02708435058594 8.054161071777344 C 54.23566818237305 6.027565002441406 49.14303588867188 4.999992370605469 43.8906364440918 4.999992370605469 M 43.8906364440918 -7.62939453125e-06 C 68.13075256347656 -7.62939453125e-06 87.78127288818359 19.6505126953125 87.78127288818359 43.89062881469727 C 87.78127288818359 68.13074493408203 68.13075256347656 87.78126525878906 43.8906364440918 87.78126525878906 C 19.65052032470703 87.78126525878906 0 68.13074493408203 0 43.89062881469727 C 0 19.6505126953125 19.65052032470703 -7.62939453125e-06 43.8906364440918 -7.62939453125e-06 Z" stroke="none" fill="#fff"/>
        </g>
      </g>
    </g>
    <g id="formula_1_" data-name="formula (1)" transform="translate(354.051 2137)">
      <path id="Trazado_991993" data-name="Trazado 991993" d="M55.223,26.153V12.059A3.523,3.523,0,0,0,51.7,8.535H12.059a3.523,3.523,0,0,0-3.524,3.524V44.652a3.524,3.524,0,0,0,3.524,3.524H29.677Zm0,0" transform="translate(-7.655 -7.654)" fill="#607d8b"/>
      <path id="Trazado_991994" data-name="Trazado 991994" d="M48.412,22.629l4.155,3.524V12.059a3.427,3.427,0,0,0-3.324-3.524h-37.4a3.427,3.427,0,0,0-3.324,3.524V44.652a3.428,3.428,0,0,0,3.324,3.524H28.468Zm0,0" transform="translate(-7.642 -7.654)" fill="#cfd8dc"/>
      <path id="Trazado_991995" data-name="Trazado 991995" d="M89.078,102.669V94.741a.881.881,0,0,0-.881-.881H52.081a.847.847,0,0,0-.881.8v24.824a.847.847,0,0,0,.881.8H67.937Zm0,0" transform="translate(-45.915 -84.17)" fill="#02a9f4"/>
      <path id="Trazado_991996" data-name="Trazado 991996" d="M215.093,179.2H241.52a1.762,1.762,0,0,1,1.762,1.762v26.427a1.762,1.762,0,0,1-1.762,1.762H215.093a1.762,1.762,0,0,1-1.762-1.762V180.961A1.762,1.762,0,0,1,215.093,179.2Zm0,0" transform="translate(-191.31 -160.7)" fill="#ff5722"/>
      <path id="Trazado_991997" data-name="Trazado 991997" d="M215.093,179.2h23.785a1.762,1.762,0,0,1,1.762,1.762v26.427a1.762,1.762,0,0,1-1.762,1.762H215.093a1.762,1.762,0,0,1-1.762-1.762V180.961A1.762,1.762,0,0,1,215.093,179.2Zm0,0" transform="translate(-191.31 -160.7)" fill="#ff9801"/>
      <path id="Trazado_991998" data-name="Trazado 991998" d="M52.08,44.43h1.762a.881.881,0,0,0,0-1.762H52.08a.881.881,0,1,0,0,1.762Zm0,0" transform="translate(-45.914 -38.263)"/>
      <path id="Trazado_991999" data-name="Trazado 991999" d="M103.28,44.43h1.762a.881.881,0,1,0,0-1.762H103.28a.881.881,0,1,0,0,1.762Zm0,0" transform="translate(-91.829 -38.263)"/>
      <path id="Trazado_992000" data-name="Trazado 992000" d="M154.482,44.43h3.524a.881.881,0,1,0,0-1.762h-3.524a.881.881,0,0,0,0,1.762Zm0,0" transform="translate(-137.746 -38.263)"/>
      <path id="Trazado_992001" data-name="Trazado 992001" d="M222.747,44.43h19.38a.881.881,0,1,0,0-1.762h-19.38a.881.881,0,0,0,0,1.762Zm0,0" transform="translate(-198.964 -38.263)"/>
      <path id="Trazado_992002" data-name="Trazado 992002" d="M50.211,17.618H48.449V4.4a4.41,4.41,0,0,0-4.4-4.4H4.4A4.41,4.41,0,0,0,0,4.4V37a4.41,4.41,0,0,0,4.4,4.4H21.141v5.285a2.643,2.643,0,0,0,2.642,2.643H50.211a2.643,2.643,0,0,0,2.643-2.643V20.261a2.643,2.643,0,0,0-2.643-2.642ZM4.4,39.641A2.643,2.643,0,0,1,1.761,37V4.4A2.643,2.643,0,0,1,4.4,1.762H44.045A2.643,2.643,0,0,1,46.687,4.4V17.618H44.045V10.571a1.762,1.762,0,0,0-1.762-1.762H6.166A1.726,1.726,0,0,0,4.4,10.492V35.316A1.725,1.725,0,0,0,6.166,37H21.141v2.643Zm19.38-22.022A2.642,2.642,0,0,0,21.3,19.38H14.094V15.856H42.283v1.762ZM6.166,35.229V31.712h6.166v3.524ZM42.283,10.571v3.524H14.094V10.571ZM12.332,14.095H6.166V10.571h6.166ZM6.166,26.427h6.166v3.524H6.166Zm7.928,0h7.047v3.524H14.094Zm7.047-1.762H14.094V21.142h7.047Zm-8.809,0H6.166V21.142h6.166ZM6.166,19.38V15.857h6.166V19.38Zm7.928,12.332h7.047v3.524H14.094Zm37,14.975a.881.881,0,0,1-.881.881H23.784a.881.881,0,0,1-.881-.881V20.261a.881.881,0,0,1,.881-.881H50.211a.881.881,0,0,1,.881.881Zm0,0"/>
      <path id="Trazado_992003" data-name="Trazado 992003" d="M250.385,216h-3.347l.7-7.047a1.762,1.762,0,1,1,3.524,0,.881.881,0,0,0,1.762,0,3.524,3.524,0,0,0-7.043-.088L245.276,216h-2.819a.881.881,0,0,0,0,1.762H245.1l-.881,8.809a1.762,1.762,0,0,1-3.524,0,.881.881,0,1,0-1.762,0,3.524,3.524,0,0,0,7.043.088l.886-8.9h3.524a.881.881,0,0,0,0-1.762Zm0,0" transform="translate(-214.269 -184.287)"/>
      <path id="Trazado_992004" data-name="Trazado 992004" d="M367.739,341.594a.882.882,0,0,0-1.246,0l-3.341,3.341-3.341-3.341a.881.881,0,0,0-1.246,1.246l3.341,3.341-3.341,3.341a.881.881,0,1,0,1.246,1.246l3.341-3.341,3.341,3.341a.881.881,0,0,0,1.246-1.246L364.4,346.18l3.341-3.341A.881.881,0,0,0,367.739,341.594Zm0,0" transform="translate(-321.309 -306.099)"/>
    </g>
  </g>
</svg>
