<svg xmlns="http://www.w3.org/2000/svg" width="93.959" height="93.959" viewBox="0 0 93.959 93.959">
  <g id="Grupo_1166260" data-name="Grupo 1166260" transform="translate(-713.774 -2245)">
    <g id="Grupo_1165240" data-name="Grupo 1165240" transform="translate(-22.276 592)">
      <g id="Grupo_1155243" data-name="Grupo 1155243" transform="translate(736.051 1653)">
        <g id="Grupo_1103990" data-name="Grupo 1103990" transform="translate(0)">
          <g id="Trazado_874102" data-name="Trazado 874102" transform="translate(0)" fill="#e4f7fa">
            <path d="M 46.97949600219727 91.45897674560547 C 40.97370910644531 91.45897674560547 35.14888000488281 90.28328704833984 29.66683959960938 87.96457672119141 C 24.37055397033691 85.72444915771484 19.61348152160645 82.51696014404297 15.52775287628174 78.43122863769531 C 11.44202423095703 74.34550476074219 8.234539031982422 69.58843231201172 5.994410514831543 64.29214477539062 C 3.675695896148682 58.81010437011719 2.500010251998901 52.98527526855469 2.500010251998901 46.97948837280273 C 2.500010251998901 40.97369003295898 3.675695896148682 35.14887237548828 5.994410514831543 29.66683197021484 C 8.234539031982422 24.37054634094238 11.44202423095703 19.61346054077148 15.52775287628174 15.52774524688721 C 19.61348152160645 11.4420166015625 24.37055397033691 8.234531402587891 29.66683959960938 5.994388580322266 C 35.14888000488281 3.67568826675415 40.97370910644531 2.50000262260437 46.97949600219727 2.50000262260437 C 52.98529434204102 2.50000262260437 58.81011199951172 3.67568826675415 64.29215240478516 5.994388580322266 C 69.58843994140625 8.234531402587891 74.34552764892578 11.4420166015625 78.43123626708984 15.52774524688721 C 82.5169677734375 19.61346054077148 85.72445678710938 24.37054634094238 87.964599609375 29.66683197021484 C 90.28329467773438 35.14887237548828 91.458984375 40.97369003295898 91.458984375 46.97948837280273 C 91.458984375 52.98527526855469 90.28329467773438 58.81010437011719 87.964599609375 64.29214477539062 C 85.72445678710938 69.58843231201172 82.5169677734375 74.34550476074219 78.43123626708984 78.43122863769531 C 74.34552764892578 82.51696014404297 69.58843994140625 85.72444915771484 64.29215240478516 87.96457672119141 C 58.81011199951172 90.28328704833984 52.98529434204102 91.45897674560547 46.97949600219727 91.45897674560547 Z" stroke="none"/>
            <path d="M 46.97949600219727 5.000007629394531 C 41.31009674072266 5.000007629394531 35.81294631958008 6.109237670898438 30.64072799682617 8.296905517578125 C 25.64242553710938 10.41100311279297 21.1524658203125 13.43856811523438 17.29550933837891 17.29550170898438 C 13.43857574462891 21.15245819091797 10.4110107421875 25.64241790771484 8.296913146972656 30.64072036743164 C 6.109245300292969 35.81293869018555 5.000015258789062 41.31008911132812 5.000015258789062 46.97948837280273 C 5.000015258789062 52.64888763427734 6.109245300292969 58.14603805541992 8.296913146972656 63.31825256347656 C 10.4110107421875 68.31653594970703 13.43857574462891 72.8065185546875 17.29550933837891 76.6634521484375 C 21.1524658203125 80.52040100097656 25.64242553710938 83.5479736328125 30.64072799682617 85.66207122802734 C 35.81294631958008 87.84973907470703 41.31009674072266 88.95896911621094 46.97949600219727 88.95896911621094 C 52.64889526367188 88.95896911621094 58.14604568481445 87.84973907470703 63.31826019287109 85.66207122802734 C 68.31655883789062 83.5479736328125 72.80653381347656 80.52040100097656 76.66348266601562 76.6634521484375 C 80.52041625976562 72.8065185546875 83.54798126220703 68.31653594970703 85.66207885742188 63.31825256347656 C 87.84974670410156 58.14603805541992 88.95897674560547 52.64888763427734 88.95897674560547 46.97948837280273 C 88.95897674560547 41.31008911132812 87.84974670410156 35.81293869018555 85.66207885742188 30.64072036743164 C 83.54798126220703 25.64241790771484 80.52041625976562 21.15245819091797 76.66348266601562 17.29550170898438 C 72.80653381347656 13.43856811523438 68.31655883789062 10.41100311279297 63.31826019287109 8.296905517578125 C 58.14604568481445 6.109237670898438 52.64889526367188 5.000007629394531 46.97949600219727 5.000007629394531 M 46.97949600219727 7.62939453125e-06 C 72.92554473876953 7.62939453125e-06 93.95897674560547 21.03343963623047 93.95897674560547 46.97948837280273 C 93.95897674560547 72.92552185058594 72.92554473876953 93.95896911621094 46.97949600219727 93.95896911621094 C 21.033447265625 93.95896911621094 1.52587890625e-05 72.92552185058594 1.52587890625e-05 46.97948837280273 C 1.52587890625e-05 21.03343963623047 21.033447265625 7.62939453125e-06 46.97949600219727 7.62939453125e-06 Z" stroke="none" fill="#fff"/>
          </g>
        </g>
      </g>
    </g>
    <g id="agricultor_2_" data-name="agricultor (2)" transform="translate(728.774 2259.996)">
      <rect id="Rectángulo_412384" data-name="Rectángulo 412384" width="48" height="30" rx="2" transform="translate(6 21)" fill="#92d7ef"/>
      <path id="Trazado_992786" data-name="Trazado 992786" d="M54,45v4a2,2,0,0,1-2,2H8a2,2,0,0,1-2-2V23a2,2,0,0,1,2-2h6v6A18,18,0,0,0,32,45Z" fill="#54c4e2"/>
      <path id="Trazado_992787" data-name="Trazado 992787" d="M40.38,61H19.62a1,1,0,0,1-.9-1.45l1-2a1,1,0,0,1,.9-.55H39.38a1,1,0,0,1,.9.55l1,2a1,1,0,0,1-.9,1.45Z" fill="#fbb03b"/>
      <path id="Trazado_992788" data-name="Trazado 992788" d="M38,57H22l2-6H36Z" fill="#fbb03b"/>
      <path id="Trazado_992789" data-name="Trazado 992789" d="M40.38,61H19.62a1,1,0,0,1-.9-1.45l1-2a1,1,0,0,1,.9-.55H25l-.28.55a1,1,0,0,0,.9,1.45H41l.27.55A1,1,0,0,1,40.38,61Z" fill="#f7931e"/>
      <path id="Trazado_992790" data-name="Trazado 992790" d="M38,57H22l2-6h5.34a3,3,0,0,0,2.84,4h5.17Z" fill="#f7931e"/>
      <path id="Trazado_992791" data-name="Trazado 992791" d="M35,44a72.15,72.15,0,0,1-12,1,72.23,72.23,0,0,1-12-1q.83-6.57,1.64-13.14a4,4,0,0,1,3.19-3.43L23,26l7.17,1.43a4,4,0,0,1,3.19,3.43Z" fill="#fbb03b"/>
      <path id="Trazado_992792" data-name="Trazado 992792" d="M35,44a72.15,72.15,0,0,1-12,1,72.23,72.23,0,0,1-12-1q.83-6.57,1.64-13.14a4,4,0,0,1,3.19-3.43l3.84-.77v.2c-.39,3.07-.77,6.15-1.15,9.22A4,4,0,0,0,22,40.56,73.279,73.279,0,0,0,30,41a45.815,45.815,0,0,0,4.61-.15Z" fill="#f7931e"/>
      <path id="Trazado_992793" data-name="Trazado 992793" d="M21,21h4v6a2,2,0,0,1-4,0Z" fill="#efc7b0"/>
      <path id="Trazado_992794" data-name="Trazado 992794" d="M25,27a2,2,0,0,1-4,0V21h2v4A2,2,0,0,0,25,27Z" fill="#e4b69d"/>
      <path id="Trazado_992795" data-name="Trazado 992795" d="M18,13H28v5a5,5,0,0,1-10,0Z" fill="#efc7b0"/>
      <path id="Trazado_992796" data-name="Trazado 992796" d="M27.39,20.39A5,5,0,0,1,18,18V13h2v3a5,5,0,0,0,5,5A4.93,4.93,0,0,0,27.39,20.39Z" fill="#e4b69d"/>
      <ellipse id="Elipse_11831" data-name="Elipse 11831" cx="12" cy="3" rx="12" ry="3" transform="translate(11 9)" fill="#fbb03b"/>
      <path id="Trazado_992797" data-name="Trazado 992797" d="M35,12c0,1.66-5.37,3-12,3s-12-1.34-12-3c0-.76,1.13-1.46,3-2,0,1.66,5.38,3,12,3a35.24,35.24,0,0,0,9-1Z" fill="#f7931e"/>
      <path id="Trazado_992798" data-name="Trazado 992798" d="M28,10a13,13,0,0,1-5,1,13.07,13.07,0,0,1-5-1c.33-2.67.67-4.33,1-7a8.49,8.49,0,0,0,4,1,8.52,8.52,0,0,0,4-1C27.33,5.67,27.67,7.33,28,10Z" fill="#fbb03b"/>
      <path id="Trazado_992799" data-name="Trazado 992799" d="M28,10a13,13,0,0,1-5,1,13.07,13.07,0,0,1-5-1c.33-2.67.67-4.33,1-7a8.33,8.33,0,0,0,2.6.88,2.891,2.891,0,0,1-.08.5A4,4,0,0,0,25.14,9H26a11.93,11.93,0,0,0,1.86-.14A9.868,9.868,0,0,1,28,10Z" fill="#f7931e"/>
      <path id="Trazado_992800" data-name="Trazado 992800" d="M12.25,34h21.5L35,44a72.15,72.15,0,0,1-12,1,72.23,72.23,0,0,1-12-1Z" fill="#ea4450"/>
      <path id="Trazado_992801" data-name="Trazado 992801" d="M35,44a72.15,72.15,0,0,1-12,1,72.23,72.23,0,0,1-12-1c.42-3.33.83-6.67,1.25-10h4.5l-.26,2.08A4,4,0,0,0,20,40.56,73.279,73.279,0,0,0,28,41c2.34,0,4.55-.11,6.59-.3Z" fill="#ce293d"/>
      <path id="Trazado_992802" data-name="Trazado 992802" d="M27,41v3.89H24.54L23,45H20.32l-1.23-.06H19V40.3a3.89,3.89,0,0,0,1,.26A64.85,64.85,0,0,0,27,41Z" fill="#aa0924"/>
      <path id="Trazado_992803" data-name="Trazado 992803" d="M27,44.88c-1.28.08-2.62.12-4,.12s-2.59,0-4-.11Z" fill="#ce293d"/>
      <path id="Trazado_992804" data-name="Trazado 992804" d="M27,39v5.88c-1.28.08-2.62.12-4,.12s-2.59,0-4-.11V39Z" fill="#ce293d"/>
      <path id="Trazado_992805" data-name="Trazado 992805" d="M27,44.88c-1.28.08-2.62.12-4,.12s-2.59,0-4-.11Z" fill="#aa0924"/>
      <path id="Trazado_992806" data-name="Trazado 992806" d="M27,41v3.89H24.54L23,45H20.32l-1.23-.06H19V40.3a3.89,3.89,0,0,0,1,.26A64.85,64.85,0,0,0,27,41Z" fill="#aa0924"/>
      <path id="Trazado_992807" data-name="Trazado 992807" d="M54,40a6,6,0,0,0-12,0Z" fill="#efc7b0"/>
      <path id="Trazado_992808" data-name="Trazado 992808" d="M54,40H42a6,6,0,0,1,5.51-6,7,7,0,0,0-.68.94,2,2,0,0,0,1.71,3h5.11A5.8,5.8,0,0,1,54,40Z" fill="#e4b69d"/>
      <path id="Trazado_992809" data-name="Trazado 992809" d="M54,16h4a6,6,0,0,1-6,6H48A6,6,0,0,1,54,16Z" fill="#099688"/>
      <path id="Trazado_992810" data-name="Trazado 992810" d="M38,16h4a6,6,0,0,1,6,6H44A6,6,0,0,1,38,16Z" transform="translate(86 38) rotate(180)" fill="#099688"/>
      <path id="Trazado_992811" data-name="Trazado 992811" d="M57.12,19.12a5.3,5.3,0,0,1-.88,1.12A5.94,5.94,0,0,1,52,22H48a5.94,5.94,0,0,1,1.76-4.24,5.3,5.3,0,0,1,1.12-.88l-.09.15a2,2,0,0,0,1.76,3H54a5.91,5.91,0,0,0,3.12-.91Z" fill="#0a7c6e"/>
      <path id="Trazado_992812" data-name="Trazado 992812" d="M48,22H44a6,6,0,0,1-6-6h2.35a5.77,5.77,0,0,0,1.41,2.24A5.94,5.94,0,0,0,46,20h1.65A5.8,5.8,0,0,1,48,22Z" fill="#0a7c6e"/>
      <g id="Grupo_1166259" data-name="Grupo 1166259">
        <path id="Trazado_992813" data-name="Trazado 992813" d="M31.48,20a1,1,0,1,0,0,2h3.86a1,1,0,0,0,0-2Z" fill="#1a1a1a"/>
        <path id="Trazado_992814" data-name="Trazado 992814" d="M54,43a1,1,0,0,0-1,1v5a1,1,0,0,1-1,1H8a1,1,0,0,1-1-1V23a1,1,0,0,1,1-1h6.52a1,1,0,1,0,0-2H8a3,3,0,0,0-3,3V49a3,3,0,0,0,3,3H22.61l-1.33,4H20a1,1,0,0,0-.89.55l-2,4A1,1,0,0,0,18,62h8a1,1,0,0,0,0-2H19.62l1-2H39.38l1,2H30a1,1,0,0,0,0,2H42a1,1,0,0,0,.89-1.45l-2-4A1,1,0,0,0,40,56H38.72l-1.33-4H52a3,3,0,0,0,3-3V44a1,1,0,0,0-1-1ZM36.61,56H23.39l1.33-4H35.28Z" fill="#1a1a1a"/>
        <path id="Trazado_992815" data-name="Trazado 992815" d="M54,24.8a1,1,0,0,0-1,1V32a1,1,0,0,0,2,0V25.8A1,1,0,0,0,54,24.8Z" fill="#1a1a1a"/>
        <path id="Trazado_992816" data-name="Trazado 992816" d="M17,15.6V18a6,6,0,0,0,3,5.19v2.39l-4.37.87a5,5,0,0,0-4,4.29L10,43.88A1,1,0,0,0,10.83,45a73.489,73.489,0,0,0,8.19.9l1.25.06H23c1.14,0,2.15,0,3.06-.07h1A72,72,0,0,0,35.17,45,1,1,0,0,0,36,43.88L34.35,30.73a5,5,0,0,0-4-4.28L26,25.58V23.19A6,6,0,0,0,29,18V15.6c3.38-.46,7-1.45,7-3.6s-3.76-3.18-7.21-3.63c-.1-.71-.2-1.37-.3-2-.17-1.08-.33-2.15-.5-3.47a1,1,0,0,0-1.46-.77A7.51,7.51,0,0,1,23,3a7.58,7.58,0,0,1-3.53-.88,1,1,0,0,0-1.46.77c-.17,1.32-.33,2.39-.5,3.47-.1.65-.2,1.31-.3,2C13.76,8.82,10,9.81,10,12s3.62,3.15,7,3.6ZM33.89,43.17c-1.95.3-3.92.5-5.89.63V39a1,1,0,0,0-1-1H19a1,1,0,0,0-1,1v4.81c-1.94-.14-3.91-.34-5.89-.64l1-8.17H32.87ZM28,33H18V28l2.06-.41a3,3,0,0,0,5.88,0L28,28Zm-4-6a1,1,0,0,1-2,0V23.92a6.1,6.1,0,0,0,2,0Zm-8,1.42V33H13.38l.25-2A3,3,0,0,1,16,28.42ZM23,44H20V40h6v3.93C25.08,44,24.11,44,23,44Zm9.37-13,.25,2H30V28.42A3,3,0,0,1,32.37,31ZM24.6,21.67A4,4,0,0,1,19,18V15.81c1.28.11,2.61.19,4,.19s2.72-.08,4-.19V18A4,4,0,0,1,24.6,21.67Zm-5.11-15c.11-.71.22-1.42.33-2.2A9.39,9.39,0,0,0,23,5a9.58,9.58,0,0,0,3.18-.55c.11.78.22,1.49.33,2.2s.26,1.71.4,2.7a12,12,0,0,1-7.82,0c.14-.99.27-1.84.4-2.7ZM17.1,10.41a1,1,0,0,0,.52.51A13.79,13.79,0,0,0,23,12a13.79,13.79,0,0,0,5.38-1.08,1,1,0,0,0,.52-.51c3.24.47,4.75,1.21,5.07,1.59-.35.42-2.12,1.29-6.09,1.73a44.33,44.33,0,0,1-9.77,0c-4-.45-5.73-1.31-6.08-1.73.32-.38,1.83-1.12,5.07-1.59Z" fill="#1a1a1a"/>
        <path id="Trazado_992817" data-name="Trazado 992817" d="M58,15H54a7,7,0,0,0-6,3.41A7,7,0,0,0,42,15H38a1,1,0,0,0-1,1,7,7,0,0,0,7,7h3V33.08A7,7,0,0,0,41,40a1,1,0,0,0,1,1H54a1,1,0,0,0,1-1,7,7,0,0,0-6-6.92V23h3a7,7,0,0,0,7-7,1,1,0,0,0-1-1ZM44,21a5,5,0,0,1-4.9-4H42a5,5,0,0,1,4.9,4Zm8.9,18H43.1a5,5,0,0,1,9.8,0ZM52,21H49.1A5,5,0,0,1,54,17h2.9A5,5,0,0,1,52,21Z" fill="#1a1a1a"/>
      </g>
    </g>
  </g>
</svg>
