<svg xmlns="http://www.w3.org/2000/svg" xmlns:xlink="http://www.w3.org/1999/xlink" width="105.781" height="105.781" viewBox="0 0 105.781 105.781">
  <defs>
    <filter id="Trazado_985595" x="0" y="0" width="105.781" height="105.781" filterUnits="userSpaceOnUse">
      <feOffset dy="3" input="SourceAlpha"/>
      <feGaussianBlur stdDeviation="3" result="blur"/>
      <feFlood flood-opacity="0.161"/>
      <feComposite operator="in" in2="blur"/>
      <feComposite in="SourceGraphic"/>
    </filter>
  </defs>
  <g id="Grupo_1165482" data-name="Grupo 1165482" transform="translate(-1167.107 -1376)">
    <g id="Grupo_1163785" data-name="Grupo 1163785" transform="translate(-0.943 267)">
      <g transform="matrix(1, 0, 0, 1, 1168.05, 1109)" filter="url(#Trazado_985595)">
        <g id="Trazado_985595-2" data-name="Trazado 985595" transform="translate(9 6)" fill="#f3d02c">
          <path d="M 43.8906364440918 85.28125762939453 C 38.30183792114258 85.28125762939453 32.88154220581055 84.18724060058594 27.78030395507812 82.02960205078125 C 22.85183715820312 79.94503021240234 18.42508888244629 76.96026611328125 14.62304973602295 73.15821838378906 C 10.82099628448486 69.35617828369141 7.836236476898193 64.92942810058594 5.751663208007812 60.00096130371094 C 3.59402322769165 54.89972305297852 2.500009775161743 49.47942733764648 2.500009775161743 43.89062881469727 C 2.500009775161743 38.30183029174805 3.59402322769165 32.88153457641602 5.751663208007812 27.78029632568359 C 7.836236476898193 22.85182952880859 10.82099628448486 18.42508125305176 14.62304973602295 14.62304210662842 C 18.42508888244629 10.82098865509033 22.85183715820312 7.836228847503662 27.78030395507812 5.751655578613281 C 32.88154220581055 3.594015598297119 38.30183792114258 2.500002145767212 43.8906364440918 2.500002145767212 C 49.47943496704102 2.500002145767212 54.89973068237305 3.594015598297119 60.00096893310547 5.751655578613281 C 64.92943572998047 7.836228847503662 69.35618591308594 10.82098865509033 73.15822601318359 14.62304210662842 C 76.96027374267578 18.42508125305176 79.94503784179688 22.85182952880859 82.02960968017578 27.78029632568359 C 84.18724822998047 32.88153457641602 85.28126525878906 38.30183029174805 85.28126525878906 43.89062881469727 C 85.28126525878906 49.47942733764648 84.18724822998047 54.89972305297852 82.02960968017578 60.00096130371094 C 79.94503784179688 64.92942810058594 76.96027374267578 69.35617828369141 73.15822601318359 73.15821838378906 C 69.35618591308594 76.96026611328125 64.92943572998047 79.94503021240234 60.00096893310547 82.02960205078125 C 54.89973068237305 84.18724060058594 49.47943496704102 85.28125762939453 43.8906364440918 85.28125762939453 Z" stroke="none"/>
          <path d="M 43.8906364440918 4.999992370605469 C 38.63823699951172 4.999992370605469 33.54560470581055 6.027565002441406 28.75418472290039 8.054161071777344 C 24.12371826171875 10.0126953125 19.96407318115234 12.81754302978516 16.39080047607422 16.39079284667969 C 12.81755065917969 19.96406555175781 10.01270294189453 24.12371063232422 8.054168701171875 28.75417709350586 C 6.027572631835938 33.54559707641602 5 38.63822937011719 5 43.89062881469727 C 5 49.14302825927734 6.027572631835938 54.23566055297852 8.054168701171875 59.02707672119141 C 10.01270294189453 63.65754699707031 12.81755065917969 67.81719970703125 16.39080047607422 71.39046478271484 C 19.96407318115234 74.96371459960938 24.12371826171875 77.76856231689453 28.75418472290039 79.72709655761719 C 33.54560470581055 81.75369262695312 38.63823699951172 82.78126525878906 43.8906364440918 82.78126525878906 C 49.14303588867188 82.78126525878906 54.23566818237305 81.75369262695312 59.02708435058594 79.72709655761719 C 63.65755462646484 77.76856231689453 67.81719970703125 74.96371459960938 71.39047241210938 71.39046478271484 C 74.96372222900391 67.81719970703125 77.76856994628906 63.65754699707031 79.72710418701172 59.02707672119141 C 81.75370025634766 54.23566055297852 82.78127288818359 49.14302825927734 82.78127288818359 43.89062881469727 C 82.78127288818359 38.63822937011719 81.75370025634766 33.54559707641602 79.72710418701172 28.75417709350586 C 77.76856994628906 24.12371063232422 74.96372222900391 19.96406555175781 71.39047241210938 16.39079284667969 C 67.81719970703125 12.81754302978516 63.65755462646484 10.0126953125 59.02708435058594 8.054161071777344 C 54.23566818237305 6.027565002441406 49.14303588867188 4.999992370605469 43.8906364440918 4.999992370605469 M 43.8906364440918 -7.62939453125e-06 C 68.13075256347656 -7.62939453125e-06 87.78127288818359 19.6505126953125 87.78127288818359 43.89062881469727 C 87.78127288818359 68.13074493408203 68.13075256347656 87.78126525878906 43.8906364440918 87.78126525878906 C 19.65052032470703 87.78126525878906 0 68.13074493408203 0 43.89062881469727 C 0 19.6505126953125 19.65052032470703 -7.62939453125e-06 43.8906364440918 -7.62939453125e-06 Z" stroke="none" fill="#fff"/>
        </g>
      </g>
    </g>
    <g id="sembrar" transform="translate(1194.107 1399.151)">
      <g id="Grupo_1165479" data-name="Grupo 1165479" transform="translate(0 1.907)">
        <path id="Trazado_991815" data-name="Trazado 991815" d="M0,21.095H11.506l4.235-4.418,10.494-5.616A4.751,4.751,0,0,1,25.027,16.9l-2.751,2.263q0,.092,0,.183h13.4a2.071,2.071,0,0,1,0,4.142h2.992a2.071,2.071,0,1,1,0,4.142H36.682a2.071,2.071,0,0,1,0,4.142H33.829a2.071,2.071,0,0,1,0,4.142H19.518A13.556,13.556,0,0,1,11.936,33.6l-.522-.351H0Z" transform="translate(0 -11.061)" fill="#ffceb7"/>
        <path id="Trazado_991816" data-name="Trazado 991816" d="M53.022,311.969H49.547l-5.077,3.173s-.476,4.839-4.116,4.839c-1.165,0-1.9.873-2.18,4.121-.247,2.906-.764,4.937-8.092,4.937-7.029,0-8.194-2.63-8.194-5.7a4.6,4.6,0,0,0-3.753-4.473c-4.05,0-5.552-6.108-5.552-6.108l-7.827-3.9H0v20.925H53.022Z" transform="translate(0 -278.027)" fill="#e6cc9f"/>
        <path id="Trazado_991817" data-name="Trazado 991817" d="M382.223,243.762c1.573,3.61.1,7.734.1,7.734s-4.022-1.73-5.594-5.341-.1-7.734-.1-7.734S380.65,240.151,382.223,243.762Z" transform="translate(-337.065 -214.876)" fill="#8ae897"/>
        <g id="Grupo_1165478" data-name="Grupo 1165478" transform="translate(19.777 13.82)">
          <g id="Grupo_1165477" data-name="Grupo 1165477" transform="translate(0 0)">
            <ellipse id="Elipse_11801" data-name="Elipse 11801" cx="2.589" cy="4.194" rx="2.589" ry="4.194" transform="translate(0.589 16.722)" fill="#e6cc9f"/>
            <ellipse id="Elipse_11802" data-name="Elipse 11802" cx="4.194" cy="2.589" rx="4.194" ry="2.589" transform="translate(0 5.93) rotate(-45)" fill="#e6cc9f"/>
            <ellipse id="Elipse_11803" data-name="Elipse 11803" cx="1.918" cy="3.107" rx="1.918" ry="3.107" transform="translate(11.018 25.028)" fill="#e6cc9f"/>
            <ellipse id="Elipse_11804" data-name="Elipse 11804" cx="1.918" cy="3.107" rx="1.918" ry="3.107" transform="translate(7.547 9.576)" fill="#e6cc9f"/>
          </g>
          <path id="Trazado_991818" data-name="Trazado 991818" d="M207.319,164.146c-.871-.871-.5-3.158,1.135-4.8a5.72,5.72,0,0,1,2-1.3c-.988-.642-3.066-.215-4.585,1.3-1.638,1.638-2.006,3.925-1.135,4.8a2.723,2.723,0,0,0,2.8.169A1.3,1.3,0,0,1,207.319,164.146Z" transform="translate(-202.896 -156.385)" fill="#dfba7f"/>
          <path id="Trazado_991819" data-name="Trazado 991819" d="M199.256,310.178a5.174,5.174,0,0,1,1.294-3.546,1.889,1.889,0,0,0-1.294-.648c-1.232,0-2.589,1.878-2.589,4.194s1.357,4.194,2.589,4.194a1.889,1.889,0,0,0,1.294-.648A5.173,5.173,0,0,1,199.256,310.178Z" transform="translate(-196.078 -289.262)" fill="#dfba7f"/>
        </g>
        <path id="Trazado_991820" data-name="Trazado 991820" d="M0,308.867H2.589v20.925H0Z" transform="translate(0 -278.027)" fill="#dfba7f"/>
        <path id="Trazado_991821" data-name="Trazado 991821" d="M379.317,246.154a10.957,10.957,0,0,1-.453-6.395,12.549,12.549,0,0,0-2.237-1.339s-1.472,4.123.1,7.734,5.594,5.341,5.594,5.341a10.849,10.849,0,0,0,.352-1.339A10.229,10.229,0,0,1,379.317,246.154Z" transform="translate(-337.064 -214.875)" fill="#54e072"/>
        <path id="Trazado_991822" data-name="Trazado 991822" d="M430.033,279c-1.42,2.54-.011,6.032-.011,6.032s3.712-.628,5.132-3.168.011-6.032.011-6.032S431.453,276.46,430.033,279Z" transform="translate(-384.931 -248.413)" fill="#8ae897"/>
        <path id="Trazado_991823" data-name="Trazado 991823" d="M432.622,279a6.1,6.1,0,0,1,2.794-2.4c-.133-.476-.251-.769-.251-.769s-3.712.628-5.132,3.168-.011,6.032-.011,6.032a10.089,10.089,0,0,0,2.338-.769,7.276,7.276,0,0,1,.262-5.262Z" transform="translate(-384.931 -248.413)" fill="#54e072"/>
        <path id="Trazado_991824" data-name="Trazado 991824" d="M0,107.951V120.1H2.568l.021-12.152Z" transform="translate(0 -97.917)" fill="#ffaa81"/>
      </g>
      <g id="Grupo_1165480" data-name="Grupo 1165480" transform="translate(11.496 47.526)">
        <path id="Trazado_991825" data-name="Trazado 991825" d="M111.01,451.581h1.553v1.553H111.01Z" transform="translate(-111.01 -451.581)" fill="#fff"/>
        <path id="Trazado_991826" data-name="Trazado 991826" d="M141.01,451.581h1.553v1.553H141.01Z" transform="translate(-137.903 -451.581)" fill="#fff"/>
      </g>
      <g id="Grupo_1165481" data-name="Grupo 1165481" transform="translate(0 0.849)">
        <path id="Trazado_991827" data-name="Trazado 991827" d="M40.676,14.392a2.825,2.825,0,0,0-2.014-.835h-.455A2.854,2.854,0,0,0,35.67,9.415H24.22l1.3-1.07a5.559,5.559,0,0,0,1.4-6.793l-.361-.7L15.266,6.9l-4.091,4.268H7.421v1.553h4.417l4.378-4.568L25.833,3a4,4,0,0,1-1.3,4.143L21.5,9.641a5.7,5.7,0,0,1-5.667,6.034v1.553a7.232,7.232,0,0,0,7.156-6.26H35.67a1.294,1.294,0,0,1,0,2.589H24.578v1.553H38.661a1.283,1.283,0,0,1,.915.379,1.3,1.3,0,0,1-.915,2.21h-10.1c-1.039-2.2-4.261-1.61-6.359.442a6.277,6.277,0,0,0-1.719,3.074c-.79,4.129,3.407,4.269,5.924,2.18h7.426a1.294,1.294,0,1,1,0,2.589H31.311c-1.1-1.933-3.043-1.932-4.139,0H19.518a13.138,13.138,0,0,1-7.867-2.669H0v1.553H11.177a14.377,14.377,0,0,0,8.34,2.669h7.105c-.442,2.1.9,4.8,2.619,4.755,1.723.041,3.061-2.658,2.619-4.755h1.969a2.861,2.861,0,0,0,2.538-4.142A2.871,2.871,0,0,0,39.194,19.2a2.857,2.857,0,0,0,1.481-4.811ZM29.242,30.739c-.339,0-1.141-.9-1.141-2.33s.8-2.33,1.141-2.33,1.141.9,1.141,2.33S29.58,30.739,29.242,30.739ZM25.859,21.8c-1.476,1.476-3.258,1.575-3.7,1.135a1.611,1.611,0,0,1-.163-1.4,4.777,4.777,0,0,1,1.3-2.3c1.039-1.072,2.866-1.757,3.7-1.135.44.44.34,2.223-1.135,3.7Zm10.823.039H27.819a5.716,5.716,0,0,0,.949-2.589h7.915a1.294,1.294,0,0,1,0,2.589Z" transform="translate(0 -0.849)"/>
        <path id="Trazado_991828" data-name="Trazado 991828" d="M0,100.451H5.868V102H0Z" transform="translate(0 -90.136)"/>
        <path id="Trazado_991829" data-name="Trazado 991829" d="M30.083,321.544c-6.844,0-7.417-2.539-7.417-4.918a5.342,5.342,0,0,0-4.53-5.25c-3.544-.042-4.86-5.747-4.885-5.866l-8.313-4.136H0v1.553H4.574l4.706,2.342H2.192v1.553H12a11.671,11.671,0,0,0,2.591,4.554H8.855v1.553h9.281a3.87,3.87,0,0,1,2.977,3.7,5.83,5.83,0,0,0,1.722,4.577c1.433,1.275,3.8,1.895,7.249,1.895,5.525,0,7.943-1.1,8.622-3.932l-1.511-.362C36.861,320.19,36.038,321.544,30.083,321.544Z" transform="translate(0 -270.251)"/>
        <path id="Trazado_991830" data-name="Trazado 991830" d="M189.167,303.455c0,2.648,1.573,4.971,3.366,4.971s3.366-2.323,3.366-4.971-1.573-4.971-3.366-4.971S189.167,300.807,189.167,303.455Zm5.178,0c0,2.087-1.19,3.417-1.812,3.417s-1.812-1.331-1.812-3.417,1.19-3.417,1.812-3.417S194.345,301.368,194.345,303.455Z" transform="translate(-169.577 -267.661)"/>
        <path id="Trazado_991831" data-name="Trazado 991831" d="M373.985,240.587h2.749v-1.553h-1.811a9.3,9.3,0,0,0-.49-6.617,10.074,10.074,0,0,0-4.865,2,12.449,12.449,0,0,0-6.745-6.04c-1.79,4.612-1.512,10.622,4.624,14.185-.1,1.528-1.006,4.571-3.379,4.488h0c-2.26-.006-2.762,2.5-2.959,4.891l1.55.107c.262-3.341,1.051-3.484,1.409-3.445.016-.006,10.683,0,10.7,0v-1.553h-7.413a7.468,7.468,0,0,0,1.5-3.285h5.361v-1.553H371.9A7.264,7.264,0,0,0,373.985,240.587Zm-9.9-3.751a10.471,10.471,0,0,1-.321-6.3c1.268.669,3.892,2.668,4.622,5.133a6.976,6.976,0,0,0-.845,5.1A9.777,9.777,0,0,1,364.087,236.836Zm5.229,4.731c-1.107-3.861.257-6.284,4.115-7.36C374.538,238.068,373.174,240.491,369.316,241.567Z" transform="translate(-323.711 -204.81)"/>
        <path id="Trazado_991832" data-name="Trazado 991832" d="M289.871,382.569c0,2.069,1.259,3.883,2.694,3.883s2.694-1.815,2.694-3.883-1.259-3.883-2.694-3.883S289.871,380.5,289.871,382.569Zm3.835,0c0,1.426-.8,2.33-1.141,2.33s-1.141-.9-1.141-2.33.8-2.33,1.141-2.33S293.706,381.144,293.706,382.569Z" transform="translate(-259.852 -339.558)"/>
      </g>
    </g>
  </g>
</svg>
