<svg xmlns="http://www.w3.org/2000/svg" xmlns:xlink="http://www.w3.org/1999/xlink" width="105.781" height="105.781" viewBox="0 0 105.781 105.781">
  <defs>
    <filter id="Trazado_985596" x="0" y="0" width="105.781" height="105.781" filterUnits="userSpaceOnUse">
      <feOffset dy="3" input="SourceAlpha"/>
      <feGaussianBlur stdDeviation="3" result="blur"/>
      <feFlood flood-opacity="0.161"/>
      <feComposite operator="in" in2="blur"/>
      <feComposite in="SourceGraphic"/>
    </filter>
  </defs>
  <g id="Grupo_1165649" data-name="Grupo 1165649" transform="translate(-747.051 -2111)">
    <g id="Grupo_1163822" data-name="Grupo 1163822" transform="translate(-0.949 1002.332)">
      <g transform="matrix(1, 0, 0, 1, 748, 1108.67)" filter="url(#Trazado_985596)">
        <g id="Trazado_985596-2" data-name="Trazado 985596" transform="translate(9 6)" fill="#f3d02c">
          <path d="M 43.8906364440918 85.28125762939453 C 38.30183792114258 85.28125762939453 32.88154220581055 84.18724060058594 27.78030395507812 82.02960205078125 C 22.85183715820312 79.94503021240234 18.42508888244629 76.96026611328125 14.62304973602295 73.15821838378906 C 10.82099628448486 69.35617828369141 7.836236476898193 64.92942810058594 5.751663208007812 60.00096130371094 C 3.59402322769165 54.89972305297852 2.500009775161743 49.47942733764648 2.500009775161743 43.89062881469727 C 2.500009775161743 38.30183029174805 3.59402322769165 32.88153457641602 5.751663208007812 27.78029632568359 C 7.836236476898193 22.85182952880859 10.82099628448486 18.42508125305176 14.62304973602295 14.62304210662842 C 18.42508888244629 10.82098865509033 22.85183715820312 7.836228847503662 27.78030395507812 5.751655578613281 C 32.88154220581055 3.594015598297119 38.30183792114258 2.500002145767212 43.8906364440918 2.500002145767212 C 49.47943496704102 2.500002145767212 54.89973068237305 3.594015598297119 60.00096893310547 5.751655578613281 C 64.92943572998047 7.836228847503662 69.35618591308594 10.82098865509033 73.15822601318359 14.62304210662842 C 76.96027374267578 18.42508125305176 79.94503784179688 22.85182952880859 82.02960968017578 27.78029632568359 C 84.18724822998047 32.88153457641602 85.28126525878906 38.30183029174805 85.28126525878906 43.89062881469727 C 85.28126525878906 49.47942733764648 84.18724822998047 54.89972305297852 82.02960968017578 60.00096130371094 C 79.94503784179688 64.92942810058594 76.96027374267578 69.35617828369141 73.15822601318359 73.15821838378906 C 69.35618591308594 76.96026611328125 64.92943572998047 79.94503021240234 60.00096893310547 82.02960205078125 C 54.89973068237305 84.18724060058594 49.47943496704102 85.28125762939453 43.8906364440918 85.28125762939453 Z" stroke="none"/>
          <path d="M 43.8906364440918 4.999992370605469 C 38.63823699951172 4.999992370605469 33.54560470581055 6.027565002441406 28.75418472290039 8.054161071777344 C 24.12371826171875 10.0126953125 19.96407318115234 12.81754302978516 16.39080047607422 16.39079284667969 C 12.81755065917969 19.96406555175781 10.01270294189453 24.12371063232422 8.054168701171875 28.75417709350586 C 6.027572631835938 33.54559707641602 5 38.63822937011719 5 43.89062881469727 C 5 49.14302825927734 6.027572631835938 54.23566055297852 8.054168701171875 59.02707672119141 C 10.01270294189453 63.65754699707031 12.81755065917969 67.81719970703125 16.39080047607422 71.39046478271484 C 19.96407318115234 74.96371459960938 24.12371826171875 77.76856231689453 28.75418472290039 79.72709655761719 C 33.54560470581055 81.75369262695312 38.63823699951172 82.78126525878906 43.8906364440918 82.78126525878906 C 49.14303588867188 82.78126525878906 54.23566818237305 81.75369262695312 59.02708435058594 79.72709655761719 C 63.65755462646484 77.76856231689453 67.81719970703125 74.96371459960938 71.39047241210938 71.39046478271484 C 74.96372222900391 67.81719970703125 77.76856994628906 63.65754699707031 79.72710418701172 59.02707672119141 C 81.75370025634766 54.23566055297852 82.78127288818359 49.14302825927734 82.78127288818359 43.89062881469727 C 82.78127288818359 38.63822937011719 81.75370025634766 33.54559707641602 79.72710418701172 28.75417709350586 C 77.76856994628906 24.12371063232422 74.96372222900391 19.96406555175781 71.39047241210938 16.39079284667969 C 67.81719970703125 12.81754302978516 63.65755462646484 10.0126953125 59.02708435058594 8.054161071777344 C 54.23566818237305 6.027565002441406 49.14303588867188 4.999992370605469 43.8906364440918 4.999992370605469 M 43.8906364440918 -7.62939453125e-06 C 68.13075256347656 -7.62939453125e-06 87.78127288818359 19.6505126953125 87.78127288818359 43.89062881469727 C 87.78127288818359 68.13074493408203 68.13075256347656 87.78126525878906 43.8906364440918 87.78126525878906 C 19.65052032470703 87.78126525878906 0 68.13074493408203 0 43.89062881469727 C 0 19.6505126953125 19.65052032470703 -7.62939453125e-06 43.8906364440918 -7.62939453125e-06 Z" stroke="none" fill="#fff"/>
        </g>
      </g>
    </g>
    <g id="Filled_outline" data-name="Filled outline" transform="translate(759.051 2120)">
      <rect id="Rectángulo_412366" data-name="Rectángulo 412366" width="35.629" height="49.485" rx="17.815" transform="translate(23.918 16.809)" fill="#35546d"/>
      <path id="Trazado_992005" data-name="Trazado 992005" d="M88,64h35.533v40.609H88Z" transform="translate(-64.386 -42.924)" fill="#4db6e4"/>
      <path id="Trazado_992006" data-name="Trazado 992006" d="M37.681,304.315l-4.375,4.375a8.074,8.074,0,0,1,1.2,7.4l-.072,1.063H24v-7.614A16.92,16.92,0,0,1,30.768,296v8.46l3.529-3.529a2.393,2.393,0,0,1,3.384,3.384Z" transform="translate(-7.154 -250.39)" fill="#fdc8a2"/>
      <path id="Trazado_992007" data-name="Trazado 992007" d="M0,0H3.589V1.692H0Z" transform="translate(20.472 56.008) rotate(-45)" fill="#fdbf92"/>
      <g id="Grupo_1165648" data-name="Grupo 1165648" transform="translate(37.773 25.716)">
        <rect id="Rectángulo_412367" data-name="Rectángulo 412367" width="8.907" height="3.959" rx="1.979" transform="translate(0 0)" fill="#4aafdb"/>
        <path id="Trazado_992008" data-name="Trazado 992008" d="M228.23,173.076,224,170.538,228.23,168l4.23,2.538Z" transform="translate(-223.777 -161.642)" fill="#4aafdb"/>
        <path id="Trazado_992009" data-name="Trazado 992009" d="M224,240h8.46v5.076H224Z" transform="translate(-223.777 -226.028)" fill="#4aafdb"/>
        <rect id="Rectángulo_412368" data-name="Rectángulo 412368" width="8.907" height="3.959" rx="1.979" transform="translate(0 25.732)" fill="#4aafdb"/>
      </g>
      <rect id="Rectángulo_412369" data-name="Rectángulo 412369" width="7.918" height="3.959" rx="1.979" transform="translate(37.773 24.727)" fill="#96b268"/>
      <path id="Trazado_992010" data-name="Trazado 992010" d="M220.23,165.076,216,162.538,220.23,160l4.23,2.538Z" transform="translate(-178.85 -128.772)" fill="#ffb431"/>
      <path id="Trazado_992011" data-name="Trazado 992011" d="M216,232h8.46v5.076H216Z" transform="translate(-178.85 -193.158)" fill="#e25740"/>
      <rect id="Rectángulo_412370" data-name="Rectángulo 412370" width="7.918" height="3.959" rx="1.979" transform="translate(37.773 50.459)" fill="#348ed8"/>
      <path id="Trazado_992012" data-name="Trazado 992012" d="M278.419,302.768a2.115,2.115,0,0,0-2.115,2.115,2.115,2.115,0,0,0-4.23,0,2.115,2.115,0,0,0-4.23,0v-6.768a2.115,2.115,0,0,0-4.23,0v12.267l-3.546-3.546a2.335,2.335,0,0,0-1.651-.684h-.081a2.335,2.335,0,0,0-1.552,4.08l6.831,6.072h16.92V304.883A2.115,2.115,0,0,0,278.419,302.768Z" transform="translate(-214.62 -250.39)" fill="#fdc8a2"/>
      <path id="Trazado_992013" data-name="Trazado 992013" d="M360,376h1.692v3.384H360Z" transform="translate(-307.621 -321.929)" fill="#fdbf92"/>
      <path id="Trazado_992014" data-name="Trazado 992014" d="M400,376h1.692v3.384H400Z" transform="translate(-343.391 -321.929)" fill="#fdbf92"/>
      <path id="Trazado_992015" data-name="Trazado 992015" d="M440,376h1.692v3.384H440Z" transform="translate(-379.161 -321.929)" fill="#fdbf92"/>
      <path id="Trazado_992016" data-name="Trazado 992016" d="M88,64h35.533v1.692H88Z" transform="translate(-64.386 -42.924)" fill="#4aafdb"/>
      <path id="Trazado_992017" data-name="Trazado 992017" d="M58.3,49.84h1.692V20.23A4.235,4.235,0,0,0,55.763,16H27a4.235,4.235,0,0,0-4.23,4.23V27H24.46V21.922H58.3ZM24.46,20.23A2.541,2.541,0,0,1,27,17.692H55.763A2.541,2.541,0,0,1,58.3,20.23ZM17.692,66.761H16V59.147A17.854,17.854,0,0,1,22.768,45.2V28.69H24.46V52.028l2.085-2.085a3.239,3.239,0,0,1,4.581,4.58L27.247,58.4a8.911,8.911,0,0,1,1.062,2.437H40.534v1.692H28.591a8.908,8.908,0,0,1-.189,2.538H45.61v1.692H27.3a.846.846,0,0,1-.817-1.063l.071-.267a7.228,7.228,0,0,0-1.075-6.622.846.846,0,0,1,.079-1.106l4.375-4.375a1.547,1.547,0,1,0-2.188-2.188l-6.067,6.067-1.2-1.2,2.29-2.29V47.426a16.163,16.163,0,0,0-5.076,11.721ZM39.265,49.84a2.961,2.961,0,0,0,0,5.922h1.269V54.071H39.265a1.269,1.269,0,1,1,0-2.538H43.5A1.27,1.27,0,0,1,44.764,52.8a1.256,1.256,0,0,1-.254.761l1.353,1.016A2.961,2.961,0,0,0,43.5,49.84H42.226V48.148h4.23V46.456h-4.23V44.764H45.61a.846.846,0,0,0,.846-.846V38.842A.846.846,0,0,0,45.61,38H42.226V36.783l3.618-2.171h4v8.46h1.692V33.766a.846.846,0,0,0-.846-.846H45.845l-3.618-2.171V29.536H43.5a2.961,2.961,0,1,0,0-5.922h-4.23a2.961,2.961,0,1,0,0,5.922h1.269v1.213l-3.819,2.292a.846.846,0,0,0,0,1.451l3.819,2.292V38H37.15a.846.846,0,0,0-.846.846v5.076a.846.846,0,0,0,.846.846h3.384V49.84Zm0-22a1.269,1.269,0,1,1,0-2.538H43.5a1.269,1.269,0,1,1,0,2.538Zm-.471,5.922,2.586-1.551,2.586,1.551L41.38,35.318ZM38,43.072V39.688h6.768v3.384Zm21.573,8.46a2.952,2.952,0,0,0-2.115.891,2.957,2.957,0,0,0-3.384-.6V47.725a2.961,2.961,0,0,0-5.922,0V57.95l-2.1-2.1a3.16,3.16,0,0,0-2.249-.932h-.081A3.181,3.181,0,0,0,41.6,60.476l6.83,6.071a.845.845,0,0,0,.562.214h16.92a.846.846,0,0,0,.846-.846V54.494a2.96,2.96,0,0,0-5.076-2.07,2.952,2.952,0,0,0-2.115-.891Zm2.961,4.23V54.494a1.269,1.269,0,0,1,2.538,0V65.069H49.316l-6.59-5.858a1.489,1.489,0,0,1,.989-2.6H43.8a1.48,1.48,0,0,1,1.053.436L48.4,60.591a.846.846,0,0,0,1.444-.6V47.725a1.269,1.269,0,0,1,2.538,0v8.037a.846.846,0,0,0,1.692,0V54.494a1.269,1.269,0,0,1,2.538,0v1.269a.846.846,0,0,0,1.692,0V54.494a1.269,1.269,0,0,1,2.538,0v1.269a.846.846,0,0,0,1.692,0ZM26.152,25.306V23.614h1.692v1.692Zm5.076-1.692v1.692H29.536V23.614Zm3.384,1.692H32.92V23.614h1.692Zm19.458.846H48.994V24.46h5.076Zm-5.076,1.692h5.076v1.692H48.994ZM33.766,32.92H28.69V31.228h5.076Zm0,3.384H28.69V34.612h5.076Zm0,4.23H28.69V38.842h5.076ZM28.69,42.226h5.076v1.692H28.69Z"/>
    </g>
  </g>
</svg>
