<svg xmlns="http://www.w3.org/2000/svg" xmlns:xlink="http://www.w3.org/1999/xlink" width="105.781" height="105.781" viewBox="0 0 105.781 105.781">
  <defs>
    <filter id="Trazado_985596" x="0" y="0" width="105.781" height="105.781" filterUnits="userSpaceOnUse">
      <feOffset dy="3" input="SourceAlpha"/>
      <feGaussianBlur stdDeviation="3" result="blur"/>
      <feFlood flood-opacity="0.161"/>
      <feComposite operator="in" in2="blur"/>
      <feComposite in="SourceGraphic"/>
    </filter>
  </defs>
  <g id="Grupo_1165335" data-name="Grupo 1165335" transform="translate(-747 -1738)">
    <g id="Grupo_1158426" data-name="Grupo 1158426" transform="translate(-1 629.332)">
      <g transform="matrix(1, 0, 0, 1, 748, 1108.67)" filter="url(#Trazado_985596)">
        <g id="Trazado_985596-2" data-name="Trazado 985596" transform="translate(9 6)" fill="#f3d02c">
          <path d="M 43.8906364440918 85.28125762939453 C 38.30183792114258 85.28125762939453 32.88154220581055 84.18724060058594 27.78030395507812 82.02960205078125 C 22.85183715820312 79.94503021240234 18.42508888244629 76.96026611328125 14.62304973602295 73.15821838378906 C 10.82099628448486 69.35617828369141 7.836236476898193 64.92942810058594 5.751663208007812 60.00096130371094 C 3.59402322769165 54.89972305297852 2.500009775161743 49.47942733764648 2.500009775161743 43.89062881469727 C 2.500009775161743 38.30183029174805 3.59402322769165 32.88153457641602 5.751663208007812 27.78029632568359 C 7.836236476898193 22.85182952880859 10.82099628448486 18.42508125305176 14.62304973602295 14.62304210662842 C 18.42508888244629 10.82098865509033 22.85183715820312 7.836228847503662 27.78030395507812 5.751655578613281 C 32.88154220581055 3.594015598297119 38.30183792114258 2.500002145767212 43.8906364440918 2.500002145767212 C 49.47943496704102 2.500002145767212 54.89973068237305 3.594015598297119 60.00096893310547 5.751655578613281 C 64.92943572998047 7.836228847503662 69.35618591308594 10.82098865509033 73.15822601318359 14.62304210662842 C 76.96027374267578 18.42508125305176 79.94503784179688 22.85182952880859 82.02960968017578 27.78029632568359 C 84.18724822998047 32.88153457641602 85.28126525878906 38.30183029174805 85.28126525878906 43.89062881469727 C 85.28126525878906 49.47942733764648 84.18724822998047 54.89972305297852 82.02960968017578 60.00096130371094 C 79.94503784179688 64.92942810058594 76.96027374267578 69.35617828369141 73.15822601318359 73.15821838378906 C 69.35618591308594 76.96026611328125 64.92943572998047 79.94503021240234 60.00096893310547 82.02960205078125 C 54.89973068237305 84.18724060058594 49.47943496704102 85.28125762939453 43.8906364440918 85.28125762939453 Z" stroke="none"/>
          <path d="M 43.8906364440918 4.999992370605469 C 38.63823699951172 4.999992370605469 33.54560470581055 6.027565002441406 28.75418472290039 8.054161071777344 C 24.12371826171875 10.0126953125 19.96407318115234 12.81754302978516 16.39080047607422 16.39079284667969 C 12.81755065917969 19.96406555175781 10.01270294189453 24.12371063232422 8.054168701171875 28.75417709350586 C 6.027572631835938 33.54559707641602 5 38.63822937011719 5 43.89062881469727 C 5 49.14302825927734 6.027572631835938 54.23566055297852 8.054168701171875 59.02707672119141 C 10.01270294189453 63.65754699707031 12.81755065917969 67.81719970703125 16.39080047607422 71.39046478271484 C 19.96407318115234 74.96371459960938 24.12371826171875 77.76856231689453 28.75418472290039 79.72709655761719 C 33.54560470581055 81.75369262695312 38.63823699951172 82.78126525878906 43.8906364440918 82.78126525878906 C 49.14303588867188 82.78126525878906 54.23566818237305 81.75369262695312 59.02708435058594 79.72709655761719 C 63.65755462646484 77.76856231689453 67.81719970703125 74.96371459960938 71.39047241210938 71.39046478271484 C 74.96372222900391 67.81719970703125 77.76856994628906 63.65754699707031 79.72710418701172 59.02707672119141 C 81.75370025634766 54.23566055297852 82.78127288818359 49.14302825927734 82.78127288818359 43.89062881469727 C 82.78127288818359 38.63822937011719 81.75370025634766 33.54559707641602 79.72710418701172 28.75417709350586 C 77.76856994628906 24.12371063232422 74.96372222900391 19.96406555175781 71.39047241210938 16.39079284667969 C 67.81719970703125 12.81754302978516 63.65755462646484 10.0126953125 59.02708435058594 8.054161071777344 C 54.23566818237305 6.027565002441406 49.14303588867188 4.999992370605469 43.8906364440918 4.999992370605469 M 43.8906364440918 -7.62939453125e-06 C 68.13075256347656 -7.62939453125e-06 87.78127288818359 19.6505126953125 87.78127288818359 43.89062881469727 C 87.78127288818359 68.13074493408203 68.13075256347656 87.78126525878906 43.8906364440918 87.78126525878906 C 19.65052032470703 87.78126525878906 0 68.13074493408203 0 43.89062881469727 C 0 19.6505126953125 19.65052032470703 -7.62939453125e-06 43.8906364440918 -7.62939453125e-06 Z" stroke="none" fill="#fff"/>
        </g>
      </g>
    </g>
    <g id="_2-drone" data-name="2-drone" transform="translate(775.915 1763)">
      <path id="Trazado_991473" data-name="Trazado 991473" d="M7.788,51h3.017a5.28,5.28,0,0,1,5.28,5.28A5.28,5.28,0,0,1,21.365,51H27.4a5.28,5.28,0,0,1,5.28,5.28A5.28,5.28,0,0,1,37.958,51h4.525a5.28,5.28,0,0,1,5.28,5.28v3.771H1V56.28A5.28,5.28,0,0,1,6.28,51Z" transform="translate(-0.246 -12.533)" fill="#736357"/>
      <path id="Trazado_991474" data-name="Trazado 991474" d="M16.751,52.546A5.248,5.248,0,0,0,13.017,51H10a5.28,5.28,0,0,1,5.28,5.28H18.3a5.248,5.248,0,0,0-1.546-3.734Z" transform="translate(-2.458 -12.533)" fill="#564a41"/>
      <path id="Trazado_991475" data-name="Trazado 991475" d="M38.751,52.546A5.248,5.248,0,0,0,35.017,51H32a5.28,5.28,0,0,1,5.28,5.28H40.3A5.248,5.248,0,0,0,38.751,52.546Z" transform="translate(-7.864 -12.533)" fill="#564a41"/>
      <path id="Trazado_991476" data-name="Trazado 991476" d="M44.546,52.546A5.248,5.248,0,0,1,48.28,51H51.3a5.28,5.28,0,0,0-5.28,5.28H43A5.248,5.248,0,0,1,44.546,52.546Z" transform="translate(-10.567 -12.533)" fill="#8f8279"/>
      <path id="Trazado_991477" data-name="Trazado 991477" d="M22.546,52.546A5.248,5.248,0,0,1,26.28,51H29.3a5.28,5.28,0,0,0-5.28,5.28H21A5.248,5.248,0,0,1,22.546,52.546Z" transform="translate(-5.161 -12.533)" fill="#8f8279"/>
      <path id="Trazado_991478" data-name="Trazado 991478" d="M9.3,51H6.28A5.28,5.28,0,0,0,1,56.28v3.771H4.017V56.28A5.28,5.28,0,0,1,9.3,51Z" transform="translate(-0.246 -12.533)" fill="#8f8279"/>
      <path id="Trazado_991479" data-name="Trazado 991479" d="M52,51h3.017a5.28,5.28,0,0,1,5.28,5.28v3.771H57.28V56.28A5.28,5.28,0,0,0,52,51Z" transform="translate(-12.779 -12.533)" fill="#564a41"/>
      <path id="Trazado_991480" data-name="Trazado 991480" d="M27.69,18.805H17.884L14.46,14.28a3.009,3.009,0,0,0,.407-1.508V9l5.28,3.771.256-.377a4.329,4.329,0,0,1,1.524-1.388,4.28,4.28,0,0,1,1.991-.5h7.542a4.229,4.229,0,0,1,3.515,1.886l.256.377L40.512,9v3.771a3.009,3.009,0,0,0,.407,1.508l-3.424,4.525H27.69a2.263,2.263,0,1,0-2.263-2.263A2.263,2.263,0,0,0,27.69,18.805Z" transform="translate(-3.554 -2.212)" fill="#ccc"/>
      <path id="Trazado_991481" data-name="Trazado 991481" d="M24.782,12.886A4.329,4.329,0,0,1,26.306,11.5,4.28,4.28,0,0,1,28.3,11H25.28a4.28,4.28,0,0,0-1.991.5,4.329,4.329,0,0,0-1.524,1.388l-.256.377L20,15.525h3.017l1.508-2.263Z" transform="translate(-4.915 -2.703)" fill="#e0e0e0"/>
      <path id="Trazado_991482" data-name="Trazado 991482" d="M36.515,12.886A4.329,4.329,0,0,0,34.991,11.5,4.28,4.28,0,0,0,33,11h3.017a4.28,4.28,0,0,1,1.991.5,4.329,4.329,0,0,1,1.524,1.388l.256.377L41.3,15.525H38.28l-1.508-2.263Z" transform="translate(-8.11 -2.703)" fill="#999"/>
      <path id="Trazado_991483" data-name="Trazado 991483" d="M54.017,2.508V4.017H51V2.508a1.475,1.475,0,0,1,.445-1.063A1.475,1.475,0,0,1,52.508,1a1.513,1.513,0,0,1,1.508,1.508Z" transform="translate(-12.533 -0.246)" fill="#999"/>
      <path id="Trazado_991484" data-name="Trazado 991484" d="M56.954,5a1.131,1.131,0,1,1,0,2.263H44.131a1.131,1.131,0,1,1,0-2.263Z" transform="translate(-10.567 -1.229)" fill="#5e93b7"/>
      <path id="Trazado_991485" data-name="Trazado 991485" d="M55.034,8v4.525a3.017,3.017,0,1,1-6.034,0V8Z" transform="translate(-12.042 -1.966)" fill="#999"/>
      <path id="Trazado_991486" data-name="Trazado 991486" d="M31.263,26h2.263A2.263,2.263,0,0,1,29,26Z" transform="translate(-7.127 -6.39)" fill="#999"/>
      <path id="Trazado_991487" data-name="Trazado 991487" d="M34.839,22H38.61a3.017,3.017,0,0,1-3.017,3.017H22.017A3.017,3.017,0,0,1,19,22Z" transform="translate(-4.669 -5.407)" fill="#999"/>
      <path id="Trazado_991488" data-name="Trazado 991488" d="M22.771,22H19a3.017,3.017,0,0,0,3.017,3.017h3.771A3.017,3.017,0,0,1,22.771,22Z" transform="translate(-4.669 -5.407)" fill="#c2c2c2"/>
      <path id="Trazado_991489" data-name="Trazado 991489" d="M39.017,22h3.771a3.017,3.017,0,0,1-3.017,3.017H36A3.017,3.017,0,0,0,39.017,22Z" transform="translate(-8.847 -5.407)" fill="#737373"/>
      <circle id="Elipse_11779" data-name="Elipse 11779" cx="2" cy="2" r="2" transform="translate(22 12.272)" fill="#dd5757"/>
      <path id="Trazado_991490" data-name="Trazado 991490" d="M14.954,5a1.131,1.131,0,1,1,0,2.263H2.131A1.131,1.131,0,1,1,2.131,5Z" transform="translate(-0.246 -1.229)" fill="#5e93b7"/>
      <path id="Trazado_991491" data-name="Trazado 991491" d="M12.017,2.508V4.017H9V2.508A1.513,1.513,0,0,1,10.509,1a1.475,1.475,0,0,1,1.063.445A1.475,1.475,0,0,1,12.017,2.508Z" transform="translate(-2.212 -0.246)" fill="#999"/>
      <path id="Trazado_991492" data-name="Trazado 991492" d="M13.034,8.754v3.771a3.017,3.017,0,1,1-6.034,0V8h6.034Z" transform="translate(-1.72 -1.966)" fill="#999"/>
      <path id="Trazado_991493" data-name="Trazado 991493" d="M10.145,14.66a3.036,3.036,0,0,1-.882-2.135V8H7v4.525a3.017,3.017,0,0,0,4.153,2.791,3.087,3.087,0,0,1-1.008-.656Z" transform="translate(-1.72 -1.966)" fill="#c2c2c2"/>
      <path id="Trazado_991494" data-name="Trazado 991494" d="M52.5,14.66a3.036,3.036,0,0,0,.882-2.135V8h2.263v4.525a3.017,3.017,0,0,1-4.153,2.791A3.087,3.087,0,0,0,52.5,14.66Z" transform="translate(-12.655 -1.966)" fill="#737373"/>
      <path id="Trazado_991495" data-name="Trazado 991495" d="M53.99,47.833c.06-2.187.792-7.784,6.8-5.951-.618,5.28-4.322,3.771-6.788,6.788a1.412,1.412,0,0,1-.008-.158v-.121C54,48.248,54,48.059,53.99,47.833Z" transform="translate(-13.268 -10.203)" fill="#009245"/>
      <path id="Trazado_991496" data-name="Trazado 991496" d="M51.768,48.67c-2.466-3.017-6.17-1.508-6.788-6.788,6-1.833,6.735,3.764,6.8,5.951-.008.226-.008.415,0,.558v.121A1.413,1.413,0,0,1,51.768,48.67Z" transform="translate(-11.054 -10.203)" fill="#8cc63f"/>
      <path id="Trazado_991497" data-name="Trazado 991497" d="M38.786,41.882c-.618,5.28-4.322,3.771-6.788,6.788a1.413,1.413,0,0,1-.008-.158v-.121c.008-.143.008-.332,0-.558C32.05,45.645,32.782,40.049,38.786,41.882Z" transform="translate(-7.862 -10.203)" fill="#009245"/>
      <path id="Trazado_991498" data-name="Trazado 991498" d="M29.768,48.67c-2.466-3.017-6.17-1.508-6.788-6.788,6-1.833,6.735,3.764,6.8,5.951-.008.226-.008.415,0,.558v.121a1.412,1.412,0,0,1-.008.158Z" transform="translate(-5.647 -10.203)" fill="#8cc63f"/>
      <path id="Trazado_991499" data-name="Trazado 991499" d="M10.01,47.833c.06-2.187.792-7.784,6.8-5.951-.618,5.28-4.322,3.771-6.788,6.788a1.413,1.413,0,0,1-.008-.158v-.121C10.018,48.248,10.018,48.059,10.01,47.833Z" transform="translate(-2.46 -10.203)" fill="#009245"/>
      <path id="Trazado_991500" data-name="Trazado 991500" d="M7.788,48.67C5.322,45.653,1.618,47.162,1,41.882c6-1.833,6.735,3.764,6.8,5.951-.008.226-.008.415,0,.558v.121A1.413,1.413,0,0,1,7.788,48.67Z" transform="translate(-0.246 -10.203)" fill="#8cc63f"/>
      <g id="Grupo_1165334" data-name="Grupo 1165334" transform="translate(0 0)">
        <path id="Trazado_991501" data-name="Trazado 991501" d="M42.746,47.694A13.119,13.119,0,0,1,44.173,47c1.8-.784,3.663-1.594,4.094-5.28a.754.754,0,0,0-.528-.809c-2.142-.652-3.906-.5-5.244.465a5.386,5.386,0,0,0-1.772,2.353,5.382,5.382,0,0,0-1.772-2.353c-1.338-.962-3.1-1.119-5.244-.465a.754.754,0,0,0-.528.809c.431,3.685,2.294,4.5,4.094,5.28a13.593,13.593,0,0,1,1.382.668h-.942a6.039,6.039,0,0,0-5.28,3.115,6.039,6.039,0,0,0-5.28-3.115H26.2A13.592,13.592,0,0,1,27.579,47c1.8-.784,3.663-1.594,4.094-5.28a.754.754,0,0,0-.528-.809c-2.141-.652-3.906-.5-5.244.465a5.386,5.386,0,0,0-1.772,2.353,5.382,5.382,0,0,0-1.772-2.353c-1.338-.962-3.1-1.119-5.244-.465a.754.754,0,0,0-.528.809c.431,3.685,2.294,4.5,4.094,5.28a13.594,13.594,0,0,1,1.382.668h-.942a6.039,6.039,0,0,0-5.28,3.115,6.039,6.039,0,0,0-5.28-3.115H9.617A13.592,13.592,0,0,1,11,47c1.8-.784,3.663-1.594,4.094-5.28a.754.754,0,0,0-.528-.809c-2.141-.652-3.907-.5-5.244.465a5.386,5.386,0,0,0-1.772,2.353,5.386,5.386,0,0,0-1.772-2.353c-1.337-.962-3.1-1.117-5.244-.465a.754.754,0,0,0-.528.809C.438,45.407,2.3,46.218,4.1,47a13.148,13.148,0,0,1,1.429.693A6.039,6.039,0,0,0,0,53.7v3.771a.754.754,0,0,0,.754.754H47.518a.754.754,0,0,0,.754-.754V53.7a6.026,6.026,0,0,0-5.526-6.009Zm.629-5.091a3.282,3.282,0,0,1,1.966-.575,6.046,6.046,0,0,1,1.331.161c-.431,2.267-1.571,2.763-3.1,3.429a11.859,11.859,0,0,0-2.03,1.056c.142-1.306.569-3.162,1.834-4.071Zm-8.6-.413a3.974,3.974,0,0,1,3.3.413c1.264.905,1.693,2.764,1.834,4.068a11.917,11.917,0,0,0-2.03-1.056c-1.533-.661-2.673-1.159-3.106-3.425Zm-7.991.413a3.282,3.282,0,0,1,1.966-.575,6.046,6.046,0,0,1,1.331.161c-.431,2.267-1.571,2.763-3.1,3.429a11.859,11.859,0,0,0-2.03,1.056c.138-1.306.566-3.162,1.831-4.071Zm-8.6-.413a3.973,3.973,0,0,1,3.3.413c1.264.905,1.693,2.764,1.834,4.068a11.917,11.917,0,0,0-2.03-1.056c-1.537-.661-2.677-1.159-3.11-3.425ZM10.21,42.6a3.282,3.282,0,0,1,1.966-.575,6.046,6.046,0,0,1,1.331.161c-.431,2.267-1.571,2.763-3.1,3.429a11.947,11.947,0,0,0-2.031,1.056c.134-1.306.563-3.163,1.828-4.071Zm-8.6-.413a3.974,3.974,0,0,1,3.3.413c1.264.905,1.693,2.763,1.834,4.068a11.806,11.806,0,0,0-2.03-1.056C3.172,44.954,2.032,44.456,1.6,42.19ZM46.763,56.72H1.509V53.7a4.53,4.53,0,0,1,4.525-4.525h4.525A4.53,4.53,0,0,1,15.085,53.7a.754.754,0,0,0,1.509,0,4.53,4.53,0,0,1,4.525-4.525h6.034A4.53,4.53,0,0,1,31.678,53.7a.754.754,0,0,0,1.508,0,4.53,4.53,0,0,1,4.525-4.525h4.525A4.525,4.525,0,0,1,46.763,53.7Z" transform="translate(0 -9.957)" fill="#202020"/>
        <path id="Trazado_991502" data-name="Trazado 991502" d="M25.975,30.221l-.754.754a.754.754,0,1,0,1.067,1.067l.754-.754a.754.754,0,1,0-1.067-1.067Z" transform="translate(-6.144 -7.372)" fill="#202020"/>
        <path id="Trazado_991503" data-name="Trazado 991503" d="M21.975,34.221l-.754.754a.754.754,0,1,0,1.067,1.067l.754-.754a.754.754,0,1,0-1.067-1.067Z" transform="translate(-5.161 -8.355)" fill="#202020"/>
        <path id="Trazado_991504" data-name="Trazado 991504" d="M36.221,30.221a.754.754,0,0,0,0,1.067l.754.754a.754.754,0,1,0,1.067-1.067l-.754-.754a.754.754,0,0,0-1.067,0Z" transform="translate(-8.847 -7.373)" fill="#202020"/>
        <path id="Trazado_991505" data-name="Trazado 991505" d="M40.221,34.221a.754.754,0,0,0,0,1.067l.754.754a.754.754,0,1,0,1.067-1.067l-.754-.754A.754.754,0,0,0,40.221,34.221Z" transform="translate(-9.83 -8.356)" fill="#202020"/>
        <path id="Trazado_991506" data-name="Trazado 991506" d="M32.508,31.754a.754.754,0,1,0-1.508,0v.754a.754.754,0,0,0,1.508,0Z" transform="translate(-7.618 -7.618)" fill="#202020"/>
        <path id="Trazado_991507" data-name="Trazado 991507" d="M31.754,36a.754.754,0,0,0-.754.754v1.508a.754.754,0,0,0,1.508,0V36.754A.754.754,0,0,0,31.754,36Z" transform="translate(-7.618 -8.847)" fill="#202020"/>
        <path id="Trazado_991508" data-name="Trazado 991508" d="M1.886,6.788h2.64v3.771a3.764,3.764,0,0,0,6.361,2.732l2.719,3.595a3.76,3.76,0,0,0,2.187,3.135,6.835,6.835,0,0,0-2.322,2.626l-.363.735H12.068a.754.754,0,1,0,0,1.508h1.509a.754.754,0,0,0,.679-.419l.572-1.152a5.391,5.391,0,0,1,4.783-2.954h1.616a3,3,0,0,0,5.82,0h1.616a5.391,5.391,0,0,1,4.786,2.953l.572,1.154a.754.754,0,0,0,.676.419H36.2a.754.754,0,0,0,0-1.508H35.163l-.366-.737a6.84,6.84,0,0,0-2.321-2.624,3.76,3.76,0,0,0,2.187-3.135l2.72-3.595a3.765,3.765,0,0,0,6.363-2.732V6.788h2.64a1.886,1.886,0,1,0,0-3.771H42.238V2.263A2.263,2.263,0,0,0,39.975,0a2.208,2.208,0,0,0-1.59.659,2.221,2.221,0,0,0-.673,1.6v.754H33.564a1.886,1.886,0,0,0,0,3.771h2.1L31.854,9.5a4.962,4.962,0,0,0-3.947-1.961H20.365a5.078,5.078,0,0,0-2.355.591,5.136,5.136,0,0,0-1.592,1.373L12.612,6.788h2.1a1.886,1.886,0,1,0,0-3.771H10.559V2.263A2.208,2.208,0,0,0,9.9.673,2.221,2.221,0,0,0,8.3,0,2.263,2.263,0,0,0,6.034,2.263v.754H1.886a1.886,1.886,0,1,0,0,3.771Zm8.674,3.771a2.263,2.263,0,1,1-4.525,0V6.788h4.525ZM24.136,21.119a1.5,1.5,0,0,1-1.3-.754h2.6A1.5,1.5,0,0,1,24.136,21.119Zm6.788-2.263H17.348a2.263,2.263,0,0,1-2.124-1.508H33.048A2.263,2.263,0,0,1,30.924,18.856Zm-8.3-4.525a1.508,1.508,0,1,1,1.508,1.508A1.508,1.508,0,0,1,22.627,14.331Zm19.61-3.771a2.263,2.263,0,0,1-4.525,0V6.788h4.525Zm-3.017-8.3a.735.735,0,0,1,.231-.537.722.722,0,0,1,.523-.217.754.754,0,0,1,.754.754v.754H39.221ZM33.564,5.28a.377.377,0,0,1,0-.754H46.386a.377.377,0,0,1,0,.754Zm-18,5.471L14.457,12.4a.754.754,0,0,0,1.255.837l1.765-2.64a3.579,3.579,0,0,1,1.247-1.138,3.538,3.538,0,0,1,1.64-.412h7.542A3.47,3.47,0,0,1,30.8,10.606l1.761,2.635a.754.754,0,1,0,1.255-.837L32.709,10.75l3.5-2.5v2.306a3.762,3.762,0,0,0,.282,1.421l-2.922,3.859h-2.64V14.331a.754.754,0,1,0-1.508,0v1.508H26.734a2.986,2.986,0,0,0,.419-1.509,3.017,3.017,0,0,0-6.034,0,2.986,2.986,0,0,0,.419,1.508H18.856V14.331a.754.754,0,1,0-1.508,0v1.508h-2.64l-2.92-3.859a3.762,3.762,0,0,0,.281-1.421V8.254ZM7.542,2.263A.754.754,0,0,1,8.3,1.508a.735.735,0,0,1,.537.231.722.722,0,0,1,.217.523v.754H7.542ZM1.886,4.525H14.708a.377.377,0,0,1,0,.754H1.886a.377.377,0,1,1,0-.754Z" transform="translate(0 0)" fill="#202020"/>
      </g>
    </g>
  </g>
</svg>
