<svg xmlns="http://www.w3.org/2000/svg" xmlns:xlink="http://www.w3.org/1999/xlink" width="105.781" height="105.781" viewBox="0 0 105.781 105.781">
  <defs>
    <filter id="Trazado_985595" x="0" y="0" width="105.781" height="105.781" filterUnits="userSpaceOnUse">
      <feOffset dy="3" input="SourceAlpha"/>
      <feGaussianBlur stdDeviation="3" result="blur"/>
      <feFlood flood-opacity="0.161"/>
      <feComposite operator="in" in2="blur"/>
      <feComposite in="SourceGraphic"/>
    </filter>
  </defs>
  <g id="Grupo_1165650" data-name="Grupo 1165650" transform="translate(-1167.051 -2112)">
    <g id="Grupo_1163823" data-name="Grupo 1163823" transform="translate(-1 1003)">
      <g transform="matrix(1, 0, 0, 1, 1168.05, 1109)" filter="url(#Trazado_985595)">
        <g id="Trazado_985595-2" data-name="Trazado 985595" transform="translate(9 6)" fill="#f3d02c">
          <path d="M 43.8906364440918 85.28125762939453 C 38.30183792114258 85.28125762939453 32.88154220581055 84.18724060058594 27.78030395507812 82.02960205078125 C 22.85183715820312 79.94503021240234 18.42508888244629 76.96026611328125 14.62304973602295 73.15821838378906 C 10.82099628448486 69.35617828369141 7.836236476898193 64.92942810058594 5.751663208007812 60.00096130371094 C 3.59402322769165 54.89972305297852 2.500009775161743 49.47942733764648 2.500009775161743 43.89062881469727 C 2.500009775161743 38.30183029174805 3.59402322769165 32.88153457641602 5.751663208007812 27.78029632568359 C 7.836236476898193 22.85182952880859 10.82099628448486 18.42508125305176 14.62304973602295 14.62304210662842 C 18.42508888244629 10.82098865509033 22.85183715820312 7.836228847503662 27.78030395507812 5.751655578613281 C 32.88154220581055 3.594015598297119 38.30183792114258 2.500002145767212 43.8906364440918 2.500002145767212 C 49.47943496704102 2.500002145767212 54.89973068237305 3.594015598297119 60.00096893310547 5.751655578613281 C 64.92943572998047 7.836228847503662 69.35618591308594 10.82098865509033 73.15822601318359 14.62304210662842 C 76.96027374267578 18.42508125305176 79.94503784179688 22.85182952880859 82.02960968017578 27.78029632568359 C 84.18724822998047 32.88153457641602 85.28126525878906 38.30183029174805 85.28126525878906 43.89062881469727 C 85.28126525878906 49.47942733764648 84.18724822998047 54.89972305297852 82.02960968017578 60.00096130371094 C 79.94503784179688 64.92942810058594 76.96027374267578 69.35617828369141 73.15822601318359 73.15821838378906 C 69.35618591308594 76.96026611328125 64.92943572998047 79.94503021240234 60.00096893310547 82.02960205078125 C 54.89973068237305 84.18724060058594 49.47943496704102 85.28125762939453 43.8906364440918 85.28125762939453 Z" stroke="none"/>
          <path d="M 43.8906364440918 4.999992370605469 C 38.63823699951172 4.999992370605469 33.54560470581055 6.027565002441406 28.75418472290039 8.054161071777344 C 24.12371826171875 10.0126953125 19.96407318115234 12.81754302978516 16.39080047607422 16.39079284667969 C 12.81755065917969 19.96406555175781 10.01270294189453 24.12371063232422 8.054168701171875 28.75417709350586 C 6.027572631835938 33.54559707641602 5 38.63822937011719 5 43.89062881469727 C 5 49.14302825927734 6.027572631835938 54.23566055297852 8.054168701171875 59.02707672119141 C 10.01270294189453 63.65754699707031 12.81755065917969 67.81719970703125 16.39080047607422 71.39046478271484 C 19.96407318115234 74.96371459960938 24.12371826171875 77.76856231689453 28.75418472290039 79.72709655761719 C 33.54560470581055 81.75369262695312 38.63823699951172 82.78126525878906 43.8906364440918 82.78126525878906 C 49.14303588867188 82.78126525878906 54.23566818237305 81.75369262695312 59.02708435058594 79.72709655761719 C 63.65755462646484 77.76856231689453 67.81719970703125 74.96371459960938 71.39047241210938 71.39046478271484 C 74.96372222900391 67.81719970703125 77.76856994628906 63.65754699707031 79.72710418701172 59.02707672119141 C 81.75370025634766 54.23566055297852 82.78127288818359 49.14302825927734 82.78127288818359 43.89062881469727 C 82.78127288818359 38.63822937011719 81.75370025634766 33.54559707641602 79.72710418701172 28.75417709350586 C 77.76856994628906 24.12371063232422 74.96372222900391 19.96406555175781 71.39047241210938 16.39079284667969 C 67.81719970703125 12.81754302978516 63.65755462646484 10.0126953125 59.02708435058594 8.054161071777344 C 54.23566818237305 6.027565002441406 49.14303588867188 4.999992370605469 43.8906364440918 4.999992370605469 M 43.8906364440918 -7.62939453125e-06 C 68.13075256347656 -7.62939453125e-06 87.78127288818359 19.6505126953125 87.78127288818359 43.89062881469727 C 87.78127288818359 68.13074493408203 68.13075256347656 87.78126525878906 43.8906364440918 87.78126525878906 C 19.65052032470703 87.78126525878906 0 68.13074493408203 0 43.89062881469727 C 0 19.6505126953125 19.65052032470703 -7.62939453125e-06 43.8906364440918 -7.62939453125e-06 Z" stroke="none" fill="#fff"/>
        </g>
      </g>
    </g>
    <g id="investigacion" transform="translate(1195.052 2135.999)">
      <path id="Trazado_992018" data-name="Trazado 992018" d="M392.422,264.954a1.484,1.484,0,0,1-2.1,0l-9.719-9.719,2.1-2.1,9.719,9.719A1.484,1.484,0,0,1,392.422,264.954Zm0,0" transform="translate(-342.969 -228.105)" fill="#484b63"/>
      <path id="Trazado_992019" data-name="Trazado 992019" d="M7.5,62.5H38.649v43.708H7.5Zm0,0" transform="translate(-6.759 -56.319)" fill="#d8d5ed"/>
      <path id="Trazado_992020" data-name="Trazado 992020" d="M40,307.727h5.933v16.02H40Zm0,0" transform="translate(-36.045 -277.296)" fill="#ff2c5c"/>
      <path id="Trazado_992021" data-name="Trazado 992021" d="M134,247.727h5.933V269.68H134Zm0,0" transform="translate(-120.75 -223.23)" fill="#ffd659"/>
      <path id="Trazado_992022" data-name="Trazado 992022" d="M230,269.727h5.933V289.5H230Zm0,0" transform="translate(-207.257 -243.054)" fill="#4fc6f5"/>
      <path id="Trazado_992023" data-name="Trazado 992023" d="M70,307.727h2.967v16.02H70Zm0,0" transform="translate(-63.079 -277.296)" fill="#e62753"/>
      <path id="Trazado_992024" data-name="Trazado 992024" d="M164,247.727h2.967V269.68H164Zm0,0" transform="translate(-147.783 -223.23)" fill="#ffbd54"/>
      <path id="Trazado_992025" data-name="Trazado 992025" d="M260,269.727h2.967V289.5H260Zm0,0" transform="translate(-234.29 -243.054)" fill="#3bb3e3"/>
      <path id="Trazado_992026" data-name="Trazado 992026" d="M163.754,12.109a15.723,15.723,0,1,0,0,22.235A15.723,15.723,0,0,0,163.754,12.109Zm0,0" transform="translate(-123.375 -6.761)" fill="#50536e"/>
      <path id="Trazado_992027" data-name="Trazado 992027" d="M188.743,59.331a12.756,12.756,0,1,1,0-18.04A12.771,12.771,0,0,1,188.743,59.331Zm0,0" transform="translate(-150.462 -33.846)" fill="#b5fcff"/>
      <path id="Trazado_992028" data-name="Trazado 992028" d="M291.417,41.3a12.737,12.737,0,0,0-10.5-3.644,12.75,12.75,0,0,1,0,25.328,12.752,12.752,0,0,0,10.5-21.684Zm0,0" transform="translate(-253.136 -33.85)" fill="#71f6fc"/>
      <path id="Trazado_992029" data-name="Trazado 992029" d="M49.979,34.033l-7.609-7.61a16.47,16.47,0,0,0,.66-19,.742.742,0,1,0-1.239.815,15,15,0,1,1-1.937-2.376l.041.041a.742.742,0,0,0,1.053-1.045L40.9,4.816a16.483,16.483,0,0,0-23.285,0q-.3.3-.586.616H.741A.742.742,0,0,0,0,6.174v3.28a.742.742,0,1,0,1.483,0V6.916H15.844a16.337,16.337,0,0,0-1.462,2.5H5.141a.742.742,0,1,0,0,1.483h8.626a16.431,16.431,0,0,0-.532,1.813H5.141a.742.742,0,1,0,0,1.483h7.82A16.573,16.573,0,0,0,12.811,16H5.141a.742.742,0,0,0,0,1.484h7.7a16.481,16.481,0,0,0,1.66,6.264H13.25a.742.742,0,0,0-.742.742V46.45a.742.742,0,0,0,.742.742h5.933a.742.742,0,0,0,.742-.742V30.025A16.341,16.341,0,0,0,22,31.241V46.45a.742.742,0,0,0,.742.742h5.933a.742.742,0,0,0,.742-.742V32.918a16.733,16.733,0,0,0,1.731-.107V44.268a.742.742,0,1,0,1.483,0v-11.7a16.353,16.353,0,0,0,6.591-3l7.607,7.608a2.225,2.225,0,0,0,3.148-3.147ZM18.442,45.708h-4.45V25.236h1.336A16.474,16.474,0,0,0,17.619,28.1q.4.4.823.768Zm5.044,0V31.879a16.509,16.509,0,0,0,4.45.986V45.708ZM48.93,36.13a.742.742,0,0,1-1.05,0l-7.513-7.514c.182-.166.361-.336.537-.512s.346-.354.513-.537l7.513,7.514a.742.742,0,0,1,0,1.049Zm0,0"/>
      <path id="Trazado_992030" data-name="Trazado 992030" d="M31.891,155.406a.742.742,0,0,0-.742.742v1.681H1.483V121.351a.742.742,0,0,0-1.483,0v37.22a.742.742,0,0,0,.742.742h31.15a.741.741,0,0,0,.742-.742v-2.423A.741.741,0,0,0,31.891,155.406Zm0,0" transform="translate(-0.001 -108.682)"/>
      <path id="Trazado_992031" data-name="Trazado 992031" d="M32.5,300.937v16.022a.742.742,0,0,0,.742.742h5.934a.742.742,0,0,0,.742-.742V300.937a.742.742,0,0,0-.742-.742H33.242A.742.742,0,0,0,32.5,300.937Zm1.483.742h4.45v14.538h-4.45Zm0,0" transform="translate(-29.287 -270.509)"/>
      <path id="Trazado_992032" data-name="Trazado 992032" d="M50.787,196.664a.742.742,0,0,0,0-1.484H45.242a.742.742,0,0,0,0,1.484Zm0,0" transform="translate(-40.1 -175.879)"/>
      <path id="Trazado_992033" data-name="Trazado 992033" d="M172.969,29.988a13.478,13.478,0,1,0,9.545,3.948A13.406,13.406,0,0,0,172.969,29.988Zm8.5,21.991a12.032,12.032,0,1,1,3.513-8.5A11.932,11.932,0,0,1,181.465,51.979Zm0,0" transform="translate(-143.707 -27.022)"/>
    </g>
  </g>
</svg>
