<svg xmlns="http://www.w3.org/2000/svg" xmlns:xlink="http://www.w3.org/1999/xlink" width="514" height="396.585" viewBox="0 0 514 396.585">
  <defs>
    <filter id="Trazado_991291" x="5.068" y="43.333" width="483.32" height="283.844" filterUnits="userSpaceOnUse">
      <feOffset dy="3" input="SourceAlpha"/>
      <feGaussianBlur stdDeviation="3" result="blur"/>
      <feFlood flood-opacity="0.161"/>
      <feComposite operator="in" in2="blur"/>
      <feComposite in="SourceGraphic"/>
    </filter>
    <filter id="Trazado_991298" x="14.513" y="80.343" width="115.832" height="60.753" filterUnits="userSpaceOnUse">
      <feOffset dy="3" input="SourceAlpha"/>
      <feGaussianBlur stdDeviation="3" result="blur-2"/>
      <feFlood flood-opacity="0.161"/>
      <feComposite operator="in" in2="blur-2"/>
      <feComposite in="SourceGraphic"/>
    </filter>
    <filter id="Trazado_991299" x="253.072" y="65.399" width="144.781" height="67.364" filterUnits="userSpaceOnUse">
      <feOffset dy="3" input="SourceAlpha"/>
      <feGaussianBlur stdDeviation="3" result="blur-3"/>
      <feFlood flood-opacity="0.161"/>
      <feComposite operator="in" in2="blur-3"/>
      <feComposite in="SourceGraphic"/>
    </filter>
    <filter id="Trazado_991300" x="417.296" y="157.063" width="96.704" height="47.687" filterUnits="userSpaceOnUse">
      <feOffset dy="3" input="SourceAlpha"/>
      <feGaussianBlur stdDeviation="3" result="blur-4"/>
      <feFlood flood-opacity="0.161"/>
      <feComposite operator="in" in2="blur-4"/>
      <feComposite in="SourceGraphic"/>
    </filter>
    <clipPath id="clip-path">
      <path id="Trazado_991307" data-name="Trazado 991307" d="M471.408,268.214c10-16.231,20.219-33.042,23.042-51.9.81-5.417.943-11.177-1.4-16.129s-7.731-8.792-13.124-7.832c-5.678,1.012-9.273,6.592-11.566,11.884A72.084,72.084,0,0,0,471.408,268.214Z" transform="translate(-462.308 -192.209)"/>
    </clipPath>
    <clipPath id="clip-path-4">
      <path id="Trazado_991319" data-name="Trazado 991319" d="M478.31,270.039c2.195-17.715,7.381-35.89,19.721-48.789a21.806,21.806,0,0,1,7.964-5.744c3.1-1.135,6.818-1.015,9.442.988a9.9,9.9,0,0,1,3.549,7.194,20.2,20.2,0,0,1-1.392,8.09c-3.183,9.024-9.33,16.775-16.5,23.112A110.285,110.285,0,0,1,478.31,270.039Z" transform="translate(-478.31 -214.786)"/>
    </clipPath>
    <clipPath id="clip-path-7">
      <path id="Trazado_991329" data-name="Trazado 991329" d="M382.9,278.95a49.515,49.515,0,0,1-14.674-44.361c1.325-7.2,4.952-14.74,11.778-17.378,3.631-1.4,7.68-1.22,11.435-2.245,6.239-1.705,11.044-6.516,16.275-10.318,9.638-7.011,21.769-10.907,33.607-9.533s23.164,8.378,28.623,18.973c5.234,10.158,4.771,22.416,1.81,33.453-3.028,11.286-8.789,22.2-18.071,29.3-9.414,7.2-21.69,9.881-33.539,9.555S393.424,288.755,382.9,278.95Z" transform="translate(-367.462 -194.841)"/>
    </clipPath>
    <clipPath id="clip-path-9">
      <path id="Trazado_991351" data-name="Trazado 991351" d="M128.757,275.4a28.826,28.826,0,0,1-16.73-18.634c-1.091-3.874-1.833-8.614-5.513-10.246-2.8-1.241-6.225.11-8.226,2.431s-2.867,5.393-3.5,8.392c-3.837,18.21-.938,37.64,7.375,54.289,3.611,7.23,8.321,14.08,14.763,18.96s14.8,7.609,22.738,6.116c8.766-1.646,16.223-8.51,19.069-16.965a29.314,29.314,0,0,0-3.865-25.518C148.967,285.652,139.653,279.779,128.757,275.4Z" transform="translate(-93.119 -246.048)"/>
    </clipPath>
    <clipPath id="clip-path-11">
      <path id="Trazado_991361" data-name="Trazado 991361" d="M213.85,277.673a28.825,28.825,0,0,1-14.361-20.515c-.616-3.977-.782-8.773-4.237-10.836-2.631-1.57-6.193-.642-8.459,1.421s-3.5,5.009-4.484,7.909c-6,17.615-5.468,37.253.778,54.783,2.713,7.612,6.563,14.98,12.37,20.6s13.769,9.336,21.834,8.813c8.9-.577,17.131-6.492,20.975-14.542a29.311,29.311,0,0,0-.761-25.8C232.678,290.286,224.14,283.334,213.85,277.673Z" transform="translate(-178.091 -245.533)"/>
    </clipPath>
    <clipPath id="clip-path-13">
      <path id="Trazado_991381" data-name="Trazado 991381" d="M215.927,164.967a71.746,71.746,0,0,1-22.665,18.178c-6.818-9.461-15.149-16.5-18.922-30.673l20.763-19.04q1.778-1.631,3.571-3.26Z" transform="translate(-174.341 -130.173)"/>
    </clipPath>
    <clipPath id="clip-path-14">
      <path id="Trazado_991403" data-name="Trazado 991403" d="M246.088,117.7a11.286,11.286,0,0,1,17.456-4.523l.127.105c4.2,3.528,6.35,9.072,6.7,14.549s-.924,10.932-2.6,16.158A110.892,110.892,0,0,1,248.4,179.7c-8.73-8.164-19.448-12.894-24.987-26.283C231.521,143.583,240.828,130.235,246.088,117.7Z" transform="translate(-223.408 -110.699)"/>
    </clipPath>
  </defs>
  <g id="OBJECTS" transform="translate(-34.472 -33.595)">
    <g id="Grupo_1165256" data-name="Grupo 1165256" transform="translate(34.472 82.928)">
      <g id="Grupo_1165255" data-name="Grupo 1165255" transform="translate(0 0)">
        <g transform="matrix(1, 0, 0, 1, 0, -49.33)" filter="url(#Trazado_991291)">
          <path id="Trazado_991291-2" data-name="Trazado 991291" d="M482.761,341.832c20.353-33.778,32.993-72.783,32.264-112.212s-15.554-79.137-43.706-106.75-70-41.786-108.511-33.308c-40.888,9-74.838,41.333-116.544,44.982-38.741,3.389-76.779-18.878-115.268-13.315-31.058,4.489-57.714,27.554-70.661,56.14S47.1,239.2,55.162,269.53s23.994,58.044,42.44,83.432Z" transform="translate(-35.67 -37.79)" fill="#c3cdf9"/>
        </g>
        <g id="Grupo_1165254" data-name="Grupo 1165254" transform="translate(0 243.344)">
          <path id="Trazado_991292" data-name="Trazado 991292" d="M34.472,403.087h0a51.954,51.954,0,0,1,51.954-51.954H469a51.954,51.954,0,0,1,0,103.908H86.426A51.953,51.953,0,0,1,34.472,403.087Z" transform="translate(-34.472 -351.133)" fill="#f3a299"/>
          <path id="Trazado_991293" data-name="Trazado 991293" d="M206.169,428.137H117.515a6.4,6.4,0,0,1-6.4-6.4h0a6.4,6.4,0,0,1,6.4-6.4h88.653a6.4,6.4,0,0,1,6.4,6.4h0A6.4,6.4,0,0,1,206.169,428.137Z" transform="translate(-40.473 -356.16)" fill="#e6847a"/>
          <path id="Trazado_991294" data-name="Trazado 991294" d="M481.672,417.511H348.116a6.306,6.306,0,0,1-6.306-6.306h0a6.306,6.306,0,0,1,6.306-6.306H481.672a6.306,6.306,0,0,1,6.306,6.306h0A6.308,6.308,0,0,1,481.672,417.511Z" transform="translate(-58.535 -355.342)" fill="#e6847a"/>
          <g id="Grupo_1165253" data-name="Grupo 1165253" transform="translate(26.626 6.797)">
            <path id="Trazado_991295" data-name="Trazado 991295" d="M479.732,379.1H433.82v.016c1.868-9.59-8.315-6.385-8.315-6.385s1.682-14.947-3.8-14.2-4.7,15.6-4.7,15.6-2.148-11.491-6.84-9.529,0,14.512,0,14.512V379.1H386.855s3.363-5.918-.841-8.44-8.128,1.962-8.128,1.962,1.215-8.595-3.456-9.012-5.615,9.947-5.615,9.947-2.325-7.847-5.689-6.82-1.028,9.172-1.028,9.172-1.4-4.221-4.951-3.193-3.55,6.385-3.55,6.385H326.74v-.018s2.454-5.637-.1-8.627-6.168.888-6.168.888-1-8.113-4.235-7.739-3.394,8.719-3.394,8.719-2.71-3.488-5.327-2.491.623,9.25.623,9.25v.018H281.133v.016c1.868-9.59-8.315-6.385-8.315-6.385s1.681-14.947-3.8-14.2-4.705,15.6-4.705,15.6-2.148-11.491-6.84-9.529,0,14.512,0,14.512V379.1H230.4v-.018s2.454-5.637-.1-8.627-6.168.888-6.168.888-1-8.113-4.235-7.739-3.394,8.719-3.394,8.719-2.71-3.488-5.327-2.491.623,9.25.623,9.25v.018H147.062s3.363-5.918-.841-8.44-8.128,1.962-8.128,1.962,1.215-8.595-3.456-9.012-5.615,9.947-5.615,9.947-2.325-7.847-5.689-6.82-1.028,9.172-1.028,9.172-1.4-4.22-4.951-3.193-3.55,6.385-3.55,6.385H81.1" transform="translate(-64.749 -358.508)" fill="none" stroke="#e6847a" stroke-linecap="round" stroke-linejoin="round" stroke-miterlimit="10" stroke-width="1.5"/>
            <path id="Trazado_991296" data-name="Trazado 991296" d="M479.732,440.594h-4.673c1.868-9.59-8.315-6.385-8.315-6.385s1.681-14.947-3.8-14.2-4.7,15.6-4.7,15.6-2.148-11.491-6.84-9.53,0,14.512,0,14.512H426.678s2.454-5.637-.1-8.627-6.168.888-6.168.888-1-8.113-4.235-7.739-3.394,8.719-3.394,8.719-2.71-3.488-5.327-2.491.623,9.249.623,9.249H376.687v.006s3.363-5.917-.841-8.44-8.128,1.962-8.128,1.962,1.215-8.595-3.456-9.012-5.615,9.947-5.615,9.947-2.325-7.847-5.689-6.82-1.028,9.172-1.028,9.172-1.4-4.22-4.951-3.193-3.55,6.385-3.55,6.385v-.006H307.814c1.868-9.59-8.315-6.385-8.315-6.385s1.681-14.947-3.8-14.2-4.7,15.6-4.7,15.6-2.148-11.491-6.84-9.53,0,14.512,0,14.512H244.721s3.363-5.917-.841-8.44-8.128,1.962-8.128,1.962,1.215-8.595-3.456-9.012-5.615,9.947-5.615,9.947-2.325-7.847-5.689-6.82-1.028,9.172-1.028,9.172-1.4-4.22-4.951-3.193-3.55,6.385-3.55,6.385H178.507s2.454-5.637-.1-8.627-6.168.888-6.168.888-1-8.113-4.235-7.739-3.394,8.719-3.394,8.719-2.711-3.488-5.327-2.491.623,9.249.623,9.249H127.215c1.868-9.59-8.315-6.385-8.315-6.385s1.682-14.947-3.8-14.2-4.7,15.6-4.7,15.6-2.148-11.491-6.84-9.529,0,14.512,0,14.512H81.107" transform="translate(-64.75 -363.321)" fill="none" stroke="#e6847a" stroke-linecap="round" stroke-linejoin="round" stroke-miterlimit="10" stroke-width="1.5"/>
            <path id="Trazado_991297" data-name="Trazado 991297" d="M63.36,409.848H82.543s-3.239-8.253-.623-9.25,5.327,2.491,5.327,2.491.155-8.346,3.394-8.719,4.235,7.74,4.235,7.74,3.617-3.878,6.168-.888.1,8.627.1,8.627h24.9v.006s0-5.357,3.55-6.385,4.951,3.193,4.951,3.193-2.336-8.144,1.028-9.172,5.689,6.82,5.689,6.82.944-10.364,5.615-9.947,3.456,9.012,3.456,9.012,3.924-4.484,8.128-1.962.841,8.44.841,8.44v-.006h52.139s-4.691-12.551,0-14.512,6.84,9.53,6.84,9.53-.773-14.854,4.7-15.6,3.8,14.2,3.8,14.2,10.183-3.206,8.315,6.385h34.118s-3.239-8.253-.623-9.25,5.327,2.491,5.327,2.491.155-8.346,3.394-8.719,4.235,7.74,4.235,7.74,3.617-3.878,6.168-.888.1,8.627.1,8.627h29.013s-2.454-5.637.1-8.627,6.168.888,6.168.888,1-8.113,4.235-7.74,3.394,8.719,3.394,8.719,2.71-3.488,5.327-2.491-.623,9.25-.623,9.25h40.419v-.009s-4.691-12.551,0-14.513,6.84,9.53,6.84,9.53-.773-14.854,4.7-15.6,3.8,14.2,3.8,14.2,10.183-3.206,8.315,6.385v.009h44.152v.006s0-5.357,3.55-6.385,4.951,3.193,4.951,3.193-2.336-8.144,1.028-9.172,5.689,6.82,5.689,6.82.944-10.364,5.615-9.947,3.456,9.012,3.456,9.012,3.924-4.484,8.128-1.962.841,8.44.841,8.44v-.006h8.344" transform="translate(-63.36 -360.913)" fill="none" stroke="#e6847a" stroke-linecap="round" stroke-linejoin="round" stroke-miterlimit="10" stroke-width="1.5"/>
          </g>
        </g>
      </g>
      <g transform="matrix(1, 0, 0, 1, 0, -49.33)" filter="url(#Trazado_991298)">
        <path id="Trazado_991298-2" data-name="Trazado 991298" d="M62.225,169.356l92.16.667a4.729,4.729,0,0,0,2.133-.315c1.585-.778,1.7-3.279.422-4.5a4.322,4.322,0,0,0-4.939-.366,6.643,6.643,0,0,0-12.416-4.572,8.655,8.655,0,0,0-5.739-6.415c-2.867-.913-6.2-.152-7.843,2.235a7.242,7.242,0,0,0-3.453-6.284,6.314,6.314,0,0,0-7,.226,17.2,17.2,0,0,0-25.6-20.1,17.811,17.811,0,0,0-7.189,19.133,11.919,11.919,0,0,0-6.939-1.423c-2.364.406-4.6,2.391-4.543,4.789.053,2.282,2.028,4.641.866,6.607a3.853,3.853,0,0,1-3.521,1.491,27.021,27.021,0,0,0-4-.226,5.43,5.43,0,0,0-4.377,3.51A4.678,4.678,0,0,0,62.225,169.356Z" transform="translate(-36.47 -40.93)" fill="#fff"/>
      </g>
      <g transform="matrix(1, 0, 0, 1, 0, -49.33)" filter="url(#Trazado_991299)">
        <path id="Trazado_991299-2" data-name="Trazado 991299" d="M318.806,160.423c41.668-.677,83.338-1.353,124.564-2.583a14.381,14.381,0,0,0-1.9-17.732c-4.632-4.488-12.532-5.079-18.726-.526a13.576,13.576,0,0,0-3.7-13.533,12.85,12.85,0,0,0-14.067-2.166c-.779-6.214-6.186-11.333-12.334-12.522s-12.687,1.218-17.205,5.553-7.135,10.4-8.177,17.935a15.622,15.622,0,0,0-13.838.722,17.779,17.779,0,0,0-8.153,11.837,6.523,6.523,0,0,0-6.595-1.666,6.968,6.968,0,0,0-4.5,5.651,4.072,4.072,0,0,0-4.732-1.225,4.327,4.327,0,0,0-2.4,4.4,10.823,10.823,0,0,0-3.682-.934,4.469,4.469,0,0,0-3.458,1.313C319.056,155.894,318.837,157.441,318.806,160.423Z" transform="translate(-56.73 -39.66)" fill="#fff"/>
      </g>
      <g transform="matrix(1, 0, 0, 1, 0, -49.33)" filter="url(#Trazado_991300)">
        <path id="Trazado_991300-2" data-name="Trazado 991300" d="M575.426,238.9a713.943,713.943,0,0,1-78.248.418,4.748,4.748,0,0,1,6.622-5.665,6.974,6.974,0,0,1,10.438-5.335c-.858-4.155,3.483-8.449,7.629-7.55a8.309,8.309,0,0,1,14.405-7.328,10.225,10.225,0,0,1,17.105,9.917c4.1-1.705,9.411,1.477,9.841,5.9a8.057,8.057,0,0,1,8.808-.666C574.738,230.149,576.338,233.441,575.426,238.9Z" transform="translate(-70.68 -47.45)" fill="#fff"/>
      </g>
    </g>
    <g id="Grupo_1165278" data-name="Grupo 1165278" transform="translate(272.044 157.366)">
      <g id="Grupo_1165262" data-name="Grupo 1165262" transform="translate(156.768)">
        <path id="Trazado_991301" data-name="Trazado 991301" d="M479.975,194.094a26.139,26.139,0,0,1-3.694-21.175c.569-2.162,1.752-4.544,3.947-4.976a4.4,4.4,0,0,1,3.905,1.453,9.47,9.47,0,0,1,1.992,3.822c1.94,6.387,1.033,13.249.124,19.863C486.205,193.08,486.163,193.08,479.975,194.094Z" transform="translate(-463.338 -167.879)" fill="#16736e"/>
        <path id="Trazado_991302" data-name="Trazado 991302" d="M487.207,195.622a32.87,32.87,0,0,1,9.99-9.231,8.421,8.421,0,0,1,2.8-1.183,3.07,3.07,0,0,1,3.75,3.831,7.792,7.792,0,0,1-1.495,3.031,24.569,24.569,0,0,1-10.2,8.018C492.052,200.045,492.052,200,487.207,195.622Z" transform="translate(-464.258 -169.231)" fill="#16736e"/>
        <path id="Trazado_991303" data-name="Trazado 991303" d="M477.058,196.388a32.854,32.854,0,0,1-5.644-3.684,11.031,11.031,0,0,1-3.645-5.555,3.587,3.587,0,0,1,.412-3.092,2.978,2.978,0,0,1,2.842-.887,7.19,7.19,0,0,1,2.789,1.353,26.9,26.9,0,0,1,7.966,8.979C480.536,194.23,479.293,194.958,477.058,196.388Z" transform="translate(-462.723 -169.072)" fill="#248a85"/>
        <path id="Trazado_991304" data-name="Trazado 991304" d="M485.154,194.646a26.967,26.967,0,0,1,3.474-14.748,7.544,7.544,0,0,1,2.982-3.235,3.174,3.174,0,0,1,4,.809c.711,1.115.38,2.572,0,3.837a106.117,106.117,0,0,1-6.161,15.773C489.447,197.038,489.447,197,485.154,194.646Z" transform="translate(-464.094 -168.539)" fill="#248a85"/>
        <g id="Grupo_1165261" data-name="Grupo 1165261" transform="translate(0 22.425)">
          <path id="Trazado_991305" data-name="Trazado 991305" d="M471.408,268.214c10-16.231,20.219-33.042,23.042-51.9.81-5.417.943-11.177-1.4-16.129s-7.731-8.792-13.124-7.832c-5.678,1.012-9.273,6.592-11.566,11.884A72.084,72.084,0,0,0,471.408,268.214Z" transform="translate(-462.308 -192.209)" fill="#e58a1e"/>
          <g id="Grupo_1165260" data-name="Grupo 1165260">
            <g id="Grupo_1165257" data-name="Grupo 1165257" clip-path="url(#clip-path)">
              <path id="Trazado_991306" data-name="Trazado 991306" d="M469.448,199.416a62.666,62.666,0,0,0,30.212,9.338" transform="translate(-462.867 -192.774)" fill="none" stroke="#fe6545" stroke-linecap="round" stroke-linejoin="round" stroke-miterlimit="10" stroke-width="1.5"/>
            </g>
            <g id="Grupo_1165258" data-name="Grupo 1165258" clip-path="url(#clip-path)">
              <path id="Trazado_991308" data-name="Trazado 991308" d="M464.416,215.339a76.375,76.375,0,0,0,32.408,8.3" transform="translate(-462.473 -194.02)" fill="none" stroke="#fe6545" stroke-linecap="round" stroke-linejoin="round" stroke-miterlimit="10" stroke-width="1.5"/>
            </g>
            <g id="Grupo_1165259" data-name="Grupo 1165259" clip-path="url(#clip-path)">
              <path id="Trazado_991310" data-name="Trazado 991310" d="M494.013,236.086a51.41,51.41,0,0,1-35.9-1.43" transform="translate(-461.98 -195.533)" fill="none" stroke="#fe6545" stroke-linecap="round" stroke-linejoin="round" stroke-miterlimit="10" stroke-width="1.5"/>
            </g>
          </g>
          <path id="Trazado_991312" data-name="Trazado 991312" d="M471.408,268.979c9.494-15.408,19.171-31.342,22.543-49.046a40.163,40.163,0,0,0-10.624,19.6c2.87-21.3-8.239-33.2-13.5-37.549-.538,1-1.024,2.018-1.462,3.028A72.084,72.084,0,0,0,471.408,268.979Z" transform="translate(-462.308 -192.974)" fill="#2e2854" opacity="0.21"/>
        </g>
      </g>
      <g id="Grupo_1165268" data-name="Grupo 1165268" transform="translate(171.516 22.367)">
        <path id="Trazado_991313" data-name="Trazado 991313" d="M508.023,219.414a24.844,24.844,0,0,1-3.526-14.038,6.547,6.547,0,0,1,.566-2.652,2.676,2.676,0,0,1,2.109-1.536c1.432-.08,2.49,1.307,3.09,2.61a25.586,25.586,0,0,1,1.955,10.047,6.563,6.563,0,0,1-.592,3.49A5.346,5.346,0,0,1,508.023,219.414Z" transform="translate(-480.358 -192.854)" fill="#16736e"/>
        <path id="Trazado_991314" data-name="Trazado 991314" d="M514.987,217.766a20.233,20.233,0,0,1,9.865-12.462c1.642-.879,3.9-1.437,5.194-.1a3.227,3.227,0,0,1,.643,3.013,8.1,8.1,0,0,1-1.519,2.811,36.619,36.619,0,0,1-10.241,9.307A39.062,39.062,0,0,1,514.987,217.766Z" transform="translate(-481.182 -193.106)" fill="#16736e"/>
        <path id="Trazado_991315" data-name="Trazado 991315" d="M511.063,216.386a45.9,45.9,0,0,1,1.062-12.532,18.413,18.413,0,0,1,6.652-10.424c1.305-.936,2.995-1.659,4.489-1.071a3.9,3.9,0,0,1,2.214,3.307,9.934,9.934,0,0,1-.7,4.1c-2.164,6.413-5.642,12.289-9.094,18.111C513.7,217.281,511.722,216.686,511.063,216.386Z" transform="translate(-480.873 -192.147)" fill="#248a85"/>
        <path id="Trazado_991316" data-name="Trazado 991316" d="M518.205,221.274a17.4,17.4,0,0,1,9.018-4.264c1.124-.169,2.473-.134,3.136.79.875,1.221-.15,2.909-1.309,3.866a12.505,12.505,0,0,1-8,2.836C520.245,223.617,519.436,222.731,518.205,221.274Z" transform="translate(-481.434 -194.087)" fill="#248a85"/>
        <g id="Grupo_1165267" data-name="Grupo 1165267" transform="translate(0 20.867)">
          <path id="Trazado_991317" data-name="Trazado 991317" d="M478.31,270.039c2.195-17.715,7.381-35.89,19.721-48.789a21.806,21.806,0,0,1,7.964-5.744c3.1-1.135,6.818-1.015,9.442.988a9.9,9.9,0,0,1,3.549,7.194,20.2,20.2,0,0,1-1.392,8.09c-3.183,9.024-9.33,16.775-16.5,23.112A110.285,110.285,0,0,1,478.31,270.039Z" transform="translate(-478.31 -214.786)" fill="#e58a1e"/>
          <g id="Grupo_1165266" data-name="Grupo 1165266">
            <g id="Grupo_1165263" data-name="Grupo 1165263" clip-path="url(#clip-path-4)">
              <path id="Trazado_991318" data-name="Trazado 991318" d="M501.356,219.279c3.265,2.012,5.74,5.052,8.55,7.661s6.286,4.912,10.12,4.847" transform="translate(-480.114 -215.138)" fill="none" stroke="#fe6545" stroke-linecap="round" stroke-linejoin="round" stroke-miterlimit="10" stroke-width="1.5"/>
            </g>
            <g id="Grupo_1165264" data-name="Grupo 1165264" clip-path="url(#clip-path-4)">
              <path id="Trazado_991320" data-name="Trazado 991320" d="M494.716,226.843a43.264,43.264,0,0,0,24.333,11.026" transform="translate(-479.595 -215.73)" fill="none" stroke="#fe6545" stroke-linecap="round" stroke-linejoin="round" stroke-miterlimit="10" stroke-width="1.5"/>
            </g>
            <g id="Grupo_1165265" data-name="Grupo 1165265" clip-path="url(#clip-path-4)">
              <path id="Trazado_991322" data-name="Trazado 991322" d="M488.259,236.141a45.269,45.269,0,0,0,27.358,9.734" transform="translate(-479.089 -216.458)" fill="none" stroke="#fe6545" stroke-linecap="round" stroke-linejoin="round" stroke-miterlimit="10" stroke-width="1.5"/>
            </g>
          </g>
          <path id="Trazado_991324" data-name="Trazado 991324" d="M512.668,243.788c-8.093-.951-17.108-1.632-26.562-2.106-4.18,9.544-6.51,20.078-7.8,30.461a110.247,110.247,0,0,0,22.785-15.149A64.884,64.884,0,0,0,512.668,243.788Z" transform="translate(-478.31 -216.892)" fill="#2e2854" opacity="0.21"/>
        </g>
      </g>
      <g id="Grupo_1165273" data-name="Grupo 1165273" transform="translate(69.347 16.093)">
        <path id="Trazado_991325" data-name="Trazado 991325" d="M413.2,205.394a38.448,38.448,0,0,1-5.992-17.374,23.6,23.6,0,0,1,6.85-2.681,44.346,44.346,0,0,0,4.447,19.024A37.06,37.06,0,0,0,413.2,205.394Z" transform="translate(-370.574 -185.339)" fill="#248a85"/>
        <g id="Grupo_1165272" data-name="Grupo 1165272" transform="translate(0 8.758)">
          <path id="Trazado_991326" data-name="Trazado 991326" d="M382.9,278.95a49.515,49.515,0,0,1-14.674-44.361c1.325-7.2,4.952-14.74,11.778-17.378,3.631-1.4,7.68-1.22,11.435-2.245,6.239-1.705,11.044-6.516,16.275-10.318,9.638-7.011,21.769-10.907,33.607-9.533s23.164,8.378,28.623,18.973c5.234,10.158,4.771,22.416,1.81,33.453-3.028,11.286-8.789,22.2-18.071,29.3-9.414,7.2-21.69,9.881-33.539,9.555S393.424,288.755,382.9,278.95Z" transform="translate(-367.462 -194.841)" fill="#87c699"/>
          <path id="Trazado_991327" data-name="Trazado 991327" d="M471.752,251.13a65.3,65.3,0,0,0,1.844-9.706c-41.622-1.823-90.278.142-105.914.879A49.622,49.622,0,0,0,382.9,282.538c10.527,9.8,25.395,7.124,37.244,7.45s24.125-2.353,33.539-9.555C462.963,273.332,468.725,262.416,471.752,251.13Z" transform="translate(-367.464 -198.429)" fill="#2e2854" opacity="0.21"/>
          <g id="Grupo_1165271" data-name="Grupo 1165271">
            <g id="Grupo_1165269" data-name="Grupo 1165269" clip-path="url(#clip-path-7)">
              <path id="Trazado_991328" data-name="Trazado 991328" d="M402.385,208.6a54.843,54.843,0,0,0-2.46,51.051c5.522,11.543,15.172,21.2,18.147,33.64" transform="translate(-369.601 -195.918)" fill="none" stroke="#2e2854" stroke-linecap="round" stroke-linejoin="round" stroke-miterlimit="10" stroke-width="1.5"/>
            </g>
            <g id="Grupo_1165270" data-name="Grupo 1165270" clip-path="url(#clip-path-7)">
              <path id="Trazado_991330" data-name="Trazado 991330" d="M429.393,192.978c21.53,26.119,27.589,64.108,15.253,95.631" transform="translate(-372.311 -194.695)" fill="none" stroke="#2e2854" stroke-linecap="round" stroke-linejoin="round" stroke-miterlimit="10" stroke-width="1.5"/>
            </g>
          </g>
        </g>
      </g>
      <g id="Grupo_1165277" data-name="Grupo 1165277" transform="translate(0 71.965)">
        <path id="Trazado_991332" data-name="Trazado 991332" d="M341.168,256.966l-46.132,2.342a2.916,2.916,0,0,0-2.739,3.51l.04.164a10.748,10.748,0,0,0,10.314,8.049c13.684.221,27.366.433,41.036.547C342.993,267.415,342.3,263.252,341.168,256.966Z" transform="translate(-292.224 -246.819)" fill="#b34170"/>
        <path id="Trazado_991333" data-name="Trazado 991333" d="M382.017,400.82l-5.274-52.906,14.193,4.858-1.549,47.9a2.226,2.226,0,0,1-2.226,2.155h-2.927A2.227,2.227,0,0,1,382.017,400.82Z" transform="translate(-298.842 -253.94)" fill="#b34170"/>
        <g id="Grupo_1165275" data-name="Grupo 1165275" transform="translate(41.455)">
          <g id="Grupo_1165274" data-name="Grupo 1165274" transform="translate(5.176 5.208)">
            <path id="Trazado_991334" data-name="Trazado 991334" d="M505.763,253.695a449.544,449.544,0,0,1-30.008,117.881c-29.389-5.3-57.355-12.412-84.263-22.418-9.622-3.579-19.344-7.674-26.826-14.744-9.879-9.333-14.784-22.881-17.21-36.305s-2.7-27.17-4.639-42.113C396.174,251.629,449.744,249.911,505.763,253.695Z" transform="translate(-342.816 -251.608)" fill="#d24d84"/>
            <path id="Trazado_991335" data-name="Trazado 991335" d="M342.816,256c.211,1.633.4,3.246.572,4.853,9.978.952,48.574.862,76.656-.489,27.371-1.316,71.772-1.044,85.15-2.03.192-1.545.392-3.088.568-4.634C449.744,249.911,396.174,251.629,342.816,256Z" transform="translate(-342.816 -251.608)" fill="#2e2854" opacity="0.15"/>
            <path id="Trazado_991336" data-name="Trazado 991336" d="M476.078,375.082a449.115,449.115,0,0,0,21.87-69.9c-16.34,13.073-58.991,42.813-95.456,30.314-32.818-11.249-48.954-29.478-55.55-39.094.25,1.746.524,3.485.838,5.219,2.426,13.424,7.331,26.973,17.21,36.305,7.482,7.069,17.2,11.165,26.826,14.744C418.722,362.67,446.687,369.786,476.078,375.082Z" transform="translate(-343.139 -255.115)" fill="#2e2854" opacity="0.15"/>
          </g>
          <path id="Trazado_991337" data-name="Trazado 991337" d="M425.764,246.564c-27.389.547-54.828.337-82.024,3.631a9.847,9.847,0,0,0-5.064,1.6c-1.4,1.116-2.045,3.394-.842,4.725.939,1.038,2.522,1.095,3.921,1.076l164.507-2.2a5.174,5.174,0,0,0,2.547-.472c1.859-1.076,1.555-4.091-.046-5.523s-3.9-1.709-6.034-1.907C477.946,245.185,453.07,246.02,425.764,246.564Z" transform="translate(-337.201 -245.958)" fill="#d24d84"/>
        </g>
        <g id="Grupo_1165276" data-name="Grupo 1165276" transform="translate(138.795 98.833)">
          <path id="Trazado_991338" data-name="Trazado 991338" d="M479.936,400.333c11.517-6.3,16.336-22.444,10.161-34.028s-22.262-16.582-33.915-10.536-16.828,22.078-10.908,33.8S467.443,407.168,479.936,400.333Z" transform="translate(-442.809 -353.186)" fill="#2e2854"/>
          <path id="Trazado_991339" data-name="Trazado 991339" d="M476.471,386.534a9.844,9.844,0,1,0-13.947,1.676A10.227,10.227,0,0,0,476.471,386.534Z" transform="translate(-444.074 -354.566)" fill="#fff"/>
          <path id="Trazado_991340" data-name="Trazado 991340" d="M473.33,380.405a3.981,3.981,0,1,1-6.863-2.261C468.286,376.2,472.9,376.707,473.33,380.405Z" transform="translate(-444.588 -355.053)" fill="#2e2854"/>
        </g>
      </g>
    </g>
    <g id="Grupo_1165294" data-name="Grupo 1165294" transform="translate(80.697 205.449)">
      <g id="Grupo_1165280" data-name="Grupo 1165280" transform="translate(27.438 18.41)">
        <path id="Trazado_991341" data-name="Trazado 991341" d="M152.486,258.083a17.557,17.557,0,0,1-17.161-11.145,28.549,28.549,0,0,0-1.622-4.3,4.588,4.588,0,0,0-3.59-2.552,42.192,42.192,0,0,1,11.64.817,17.235,17.235,0,0,1,9.776,6.015A10.047,10.047,0,0,1,152.486,258.083Z" transform="translate(-115.623 -240.021)" fill="#248a85"/>
        <path id="Trazado_991342" data-name="Trazado 991342" d="M155.988,258.268a19.035,19.035,0,0,1,26.066-16.915,11.018,11.018,0,0,0-7.887,6.927c-.846,2.369-.867,5.029-2.1,7.223a9,9,0,0,1-7.225,4.242C161.943,259.953,159.055,259.015,155.988,258.268Z" transform="translate(-117.649 -240.023)" fill="#248a85"/>
        <g id="Grupo_1165279" data-name="Grupo 1165279" transform="translate(0 14.32)">
          <path id="Trazado_991343" data-name="Trazado 991343" d="M186.071,318.837c-3.076,10.42-14.116,17.435-25.2,17.947s-21.859-4.585-30.05-11.9a49.482,49.482,0,0,1-14.92-23.009,37.425,37.425,0,0,1,2.207-26.907c6.608-13.06,22.277-20.873,37.078-19.183s27.937,12.367,33.1,26.034S188.522,310.536,186.071,318.837Z" transform="translate(-114.392 -255.557)" fill="#a166ff"/>
          <path id="Trazado_991344" data-name="Trazado 991344" d="M120.427,272.447a31.455,31.455,0,0,0-2.313,3.845,37.425,37.425,0,0,0-2.207,26.907,49.485,49.485,0,0,0,14.92,23.009c8.19,7.315,18.97,12.411,30.05,11.9s22.121-7.528,25.2-17.947c1.933-6.549,5.406-17.3,4.254-28.253C148.7,300.063,127.185,280.365,120.427,272.447Z" transform="translate(-114.393 -256.88)" fill="#2e2854" opacity="0.21"/>
        </g>
      </g>
      <g id="Grupo_1165286" data-name="Grupo 1165286" transform="translate(6.292)">
        <g id="Grupo_1165281" data-name="Grupo 1165281">
          <path id="Trazado_991345" data-name="Trazado 991345" d="M102.783,249.71a10.607,10.607,0,0,1-9.092-5.237,17.457,17.457,0,0,1-2.164-10.6,52.044,52.044,0,0,1,2.416-10.709,22.971,22.971,0,0,1,9.071,11.326A21.29,21.29,0,0,1,102.783,249.71Z" transform="translate(-91.451 -220.291)" fill="#248a85"/>
          <path id="Trazado_991346" data-name="Trazado 991346" d="M103.285,247.7c-2.453-5.421-.2-12.107,4.083-16.237s10.177-6.135,16-7.351a45.483,45.483,0,0,1-8.227,18.263,15.472,15.472,0,0,1-4.132,4.065C109.35,247.456,107.267,247.921,103.285,247.7Z" transform="translate(-92.298 -220.366)" fill="#248a85"/>
          <path id="Trazado_991347" data-name="Trazado 991347" d="M105.009,247.125a21.537,21.537,0,0,1,2.351-27.078c-.931,4.675-.08,9.493.1,14.255S106.98,244.242,105.009,247.125Z" transform="translate(-92.222 -220.047)" fill="#16736e"/>
        </g>
        <g id="Grupo_1165285" data-name="Grupo 1165285" transform="translate(1.537 23.966)">
          <path id="Trazado_991348" data-name="Trazado 991348" d="M128.757,275.4a28.826,28.826,0,0,1-16.73-18.634c-1.091-3.874-1.833-8.614-5.513-10.246-2.8-1.241-6.225.11-8.226,2.431s-2.867,5.393-3.5,8.392c-3.837,18.21-.938,37.64,7.375,54.289,3.611,7.23,8.321,14.08,14.763,18.96s14.8,7.609,22.738,6.116c8.766-1.646,16.223-8.51,19.069-16.965a29.314,29.314,0,0,0-3.865-25.518C148.967,285.652,139.653,279.779,128.757,275.4Z" transform="translate(-93.119 -246.048)" fill="#87c699"/>
          <path id="Trazado_991349" data-name="Trazado 991349" d="M139.667,338.238c8.766-1.646,16.223-8.51,19.069-16.965a26.487,26.487,0,0,0,1.19-5.4c-6.349,1.595-19.227,2.937-37.215-4.515-18.213-7.546-25.875-31.609-29.025-45.774a84.785,84.785,0,0,0,8.479,47.574c3.611,7.23,8.321,14.08,14.763,18.96S131.724,339.729,139.667,338.238Z" transform="translate(-93.119 -247.578)" fill="#2e2854" opacity="0.21"/>
          <g id="Grupo_1165284" data-name="Grupo 1165284">
            <g id="Grupo_1165282" data-name="Grupo 1165282" clip-path="url(#clip-path-9)">
              <path id="Trazado_991350" data-name="Trazado 991350" d="M102.874,244.809c-1.55,17.355-.843,35.265,5.236,51.522s16.015,32.9,31.991,38.8" transform="translate(-93.828 -245.951)" fill="none" stroke="#2e2854" stroke-linecap="round" stroke-linejoin="round" stroke-miterlimit="10" stroke-width="1.5"/>
            </g>
            <g id="Grupo_1165283" data-name="Grupo 1165283" clip-path="url(#clip-path-9)">
              <path id="Trazado_991352" data-name="Trazado 991352" d="M107.589,244.692c2.093,12.632,5.291,25.61,13.3,35.438,6.77,8.313,16.734,14.058,21.263,23.846,3.691,7.978,3.1,17.262,2.436,26.075" transform="translate(-94.252 -245.942)" fill="none" stroke="#2e2854" stroke-linecap="round" stroke-linejoin="round" stroke-miterlimit="10" stroke-width="1.5"/>
            </g>
          </g>
        </g>
        <path id="Trazado_991354" data-name="Trazado 991354" d="M158.2,332.577a21.522,21.522,0,0,1-32.1,9.654l7.767-1.274a46.509,46.509,0,0,1-3.067-8.976,34.94,34.94,0,0,1,7.392,5.505,35.383,35.383,0,0,1,2.907-9.946,41.482,41.482,0,0,1,3.332,8.272,39.918,39.918,0,0,1,7.178-8.739l-.31,8.458A58.192,58.192,0,0,1,158.2,332.577Z" transform="translate(-94.163 -228.427)" fill="#16736e"/>
      </g>
      <g id="Grupo_1165292" data-name="Grupo 1165292" transform="translate(86.149 0.045)">
        <g id="Grupo_1165287" data-name="Grupo 1165287" transform="translate(3.266)">
          <path id="Trazado_991355" data-name="Trazado 991355" d="M191.354,248.956a10.607,10.607,0,0,1-8.394-6.294,17.448,17.448,0,0,1-.871-10.779,52.012,52.012,0,0,1,3.69-10.34,22.97,22.97,0,0,1,7.639,12.337A21.289,21.289,0,0,1,191.354,248.956Z" transform="translate(-181.634 -220.209)" fill="#248a85"/>
          <path id="Trazado_991356" data-name="Trazado 991356" d="M192.037,247.216c-1.781-5.677,1.263-12.042,6.01-15.626s10.843-4.863,16.771-5.368a45.5,45.5,0,0,1-10.368,17.138,15.475,15.475,0,0,1-4.592,3.538C198.087,247.7,195.964,247.911,192.037,247.216Z" transform="translate(-182.409 -220.576)" fill="#248a85"/>
          <path id="Trazado_991357" data-name="Trazado 991357" d="M193.851,246.694a21.54,21.54,0,0,1,5.6-26.6c-1.488,4.528-1.224,9.413-1.618,14.164S196.156,244.07,193.851,246.694Z" transform="translate(-182.405 -220.096)" fill="#16736e"/>
        </g>
        <g id="Grupo_1165291" data-name="Grupo 1165291" transform="translate(0 23.446)">
          <path id="Trazado_991358" data-name="Trazado 991358" d="M213.85,277.673a28.825,28.825,0,0,1-14.361-20.515c-.616-3.977-.782-8.773-4.237-10.836-2.631-1.57-6.193-.642-8.459,1.421s-3.5,5.009-4.484,7.909c-6,17.615-5.468,37.253.778,54.783,2.713,7.612,6.563,14.98,12.37,20.6s13.769,9.336,21.834,8.813c8.9-.577,17.131-6.492,20.975-14.542a29.311,29.311,0,0,0-.761-25.8C232.678,290.286,224.14,283.334,213.85,277.673Z" transform="translate(-178.091 -245.533)" fill="#87c699"/>
          <path id="Trazado_991359" data-name="Trazado 991359" d="M217.291,341.264c8.9-.577,17.131-6.493,20.975-14.542a26.5,26.5,0,0,0,1.832-5.214c-6.5.818-19.441.6-36.4-8.968-17.17-9.686-21.877-34.5-23.3-48.939a84.777,84.777,0,0,0,2.682,48.249c2.714,7.612,6.563,14.98,12.37,20.6S209.226,341.787,217.291,341.264Z" transform="translate(-178.091 -246.948)" fill="#2e2854" opacity="0.21"/>
          <g id="Grupo_1165290" data-name="Grupo 1165290">
            <g id="Grupo_1165288" data-name="Grupo 1165288" clip-path="url(#clip-path-11)">
              <path id="Trazado_991360" data-name="Trazado 991360" d="M191.942,244.082c-3.631,17.041-5.089,34.907-1.013,51.779s11.931,34.592,27.081,42.37" transform="translate(-178.904 -245.42)" fill="none" stroke="#2e2854" stroke-linecap="round" stroke-linejoin="round" stroke-miterlimit="10" stroke-width="1.5"/>
            </g>
            <g id="Grupo_1165289" data-name="Grupo 1165289" clip-path="url(#clip-path-11)">
              <path id="Trazado_991362" data-name="Trazado 991362" d="M196.872,244.528c.555,12.792,2.165,26.06,8.927,36.782,5.718,9.069,14.917,15.972,18.233,26.235,2.7,8.365,1,17.51-.725,26.178" transform="translate(-179.561 -245.455)" fill="none" stroke="#2e2854" stroke-linecap="round" stroke-linejoin="round" stroke-miterlimit="10" stroke-width="1.5"/>
            </g>
          </g>
        </g>
        <path id="Trazado_991364" data-name="Trazado 991364" d="M236.361,338.065a21.522,21.522,0,0,1-33.035,5.714l7.865-.328a46.539,46.539,0,0,1-1.963-9.28,34.934,34.934,0,0,1,6.675,6.357A35.4,35.4,0,0,1,219.988,331a41.472,41.472,0,0,1,2.311,8.614,39.906,39.906,0,0,1,8.179-7.81l-1.327,8.359A58.221,58.221,0,0,1,236.361,338.065Z" transform="translate(-180.066 -228.779)" fill="#16736e"/>
      </g>
      <g id="Grupo_1165293" data-name="Grupo 1165293" transform="translate(0 44.911)">
        <path id="Trazado_991365" data-name="Trazado 991365" d="M89.309,275.238l-.478,66.155,11.8,1.595,1.434-67.272Z" transform="translate(-84.953 -269.279)" fill="#ab3767"/>
        <path id="Trazado_991366" data-name="Trazado 991366" d="M238.7,277.659l13.231.319-3.985,64.4-10.2.8Z" transform="translate(-96.612 -269.469)" fill="#ab3767"/>
        <path id="Trazado_991367" data-name="Trazado 991367" d="M86.474,351.077q76.207-1.376,152.432-.948.241-5.829.482-11.661-76.46-.534-152.828-5A139.193,139.193,0,0,0,86.474,351.077Z" transform="translate(-84.749 -273.839)" fill="#d24d84"/>
        <path id="Trazado_991368" data-name="Trazado 991368" d="M239.155,302.767l.442,13.7c-51.411-.737-102.151-.33-153.115.663a97.026,97.026,0,0,1,0-13.871C137.962,303.19,189.443,303.124,239.155,302.767Z" transform="translate(-84.75 -271.435)" fill="#d24d84"/>
        <path id="Trazado_991369" data-name="Trazado 991369" d="M85.031,269.394q-.2,6.909-.407,13.818l157.009,3.12q.742-6.475,1.484-12.945A1489.759,1489.759,0,0,0,85.031,269.394Z" transform="translate(-84.624 -268.773)" fill="#d24d84"/>
        <path id="Trazado_991370" data-name="Trazado 991370" d="M95.547,312.47a2.919,2.919,0,1,1,2.122-4.829C98.953,309.121,98.207,312.393,95.547,312.47Z" transform="translate(-85.247 -271.746)" fill="#2e2854"/>
        <path id="Trazado_991371" data-name="Trazado 991371" d="M96.013,279.146a3.283,3.283,0,1,1,1.443-5.615C99.121,275.05,98.541,278.536,96.013,279.146Z" transform="translate(-85.2 -269.087)" fill="#2e2854"/>
        <path id="Trazado_991372" data-name="Trazado 991372" d="M96.311,346.813a2.682,2.682,0,1,0-3.679-2.955A2.824,2.824,0,0,0,96.311,346.813Z" transform="translate(-85.248 -274.486)" fill="#2e2854"/>
        <path id="Trazado_991373" data-name="Trazado 991373" d="M246.192,282.845a2.875,2.875,0,1,1-1.377-4.986C246.722,278.21,248.11,281.159,246.192,282.845Z" transform="translate(-96.901 -269.481)" fill="#2e2854"/>
        <path id="Trazado_991374" data-name="Trazado 991374" d="M245.21,312.638a2.712,2.712,0,1,1-1.309-4.931C245.627,307.858,247.787,310.856,245.21,312.638Z" transform="translate(-96.865 -271.821)" fill="#2e2854"/>
        <path id="Trazado_991375" data-name="Trazado 991375" d="M244.925,347.643a2.57,2.57,0,1,1,.035-4.851C246.5,343.345,247.784,346.663,244.925,347.643Z" transform="translate(-96.908 -274.558)" fill="#2e2854"/>
      </g>
    </g>
    <g id="Grupo_1165319" data-name="Grupo 1165319" transform="translate(112.219 33.595)">
      <g id="Grupo_1165303" data-name="Grupo 1165303" transform="translate(26.649 67.279)">
        <g id="Grupo_1165299" data-name="Grupo 1165299" transform="translate(0 21.738)">
          <g id="Grupo_1165295" data-name="Grupo 1165295" transform="translate(0 22.3)">
            <path id="Trazado_991376" data-name="Trazado 991376" d="M147.736,176.853l24.522-22.486,12.225,15.065,2.136,9.026a190.8,190.8,0,0,1-28.611,13.131Z" transform="translate(-147.736 -154.367)" fill="#9e4950"/>
            <path id="Trazado_991377" data-name="Trazado 991377" d="M158.641,193.222a190.614,190.614,0,0,0,28.611-13.131l-1.156-4.886c-10.512,7.448-23.25,11.9-30.269,13.98Z" transform="translate(-148.369 -155.998)" fill="#2e2854" opacity="0.21"/>
          </g>
          <g id="Grupo_1165298" data-name="Grupo 1165298" transform="translate(24.522)">
            <path id="Trazado_991378" data-name="Trazado 991378" d="M215.927,164.967a71.746,71.746,0,0,1-22.665,18.178,275.026,275.026,0,0,1-18.922-30.673l20.763-19.04q1.778-1.631,3.571-3.26Z" transform="translate(-174.341 -130.173)" fill="#fff"/>
            <path id="Trazado_991379" data-name="Trazado 991379" d="M194.6,185.862a71.736,71.736,0,0,0,22.665-18.178l-1.4-2.815c-7.186,5.482-20.195,13.77-24.445,16.452C192.472,182.854,193.528,184.374,194.6,185.862Z" transform="translate(-175.679 -132.89)" fill="#d8d8ef"/>
            <g id="Grupo_1165297" data-name="Grupo 1165297">
              <g id="Grupo_1165296" data-name="Grupo 1165296" clip-path="url(#clip-path-13)">
                <path id="Trazado_991380" data-name="Trazado 991380" d="M179.888,148.174a297.455,297.455,0,0,0,20.529,33.694" transform="translate(-174.775 -131.582)" fill="none" stroke="#2e2854" stroke-linecap="round" stroke-linejoin="round" stroke-miterlimit="10" stroke-width="1.5"/>
              </g>
            </g>
          </g>
        </g>
        <g id="Grupo_1165300" data-name="Grupo 1165300" transform="translate(105.844 106.848)">
          <path id="Trazado_991382" data-name="Trazado 991382" d="M262.577,251.46c-.14,17.653,1.888,35.847,10.31,51.362,10.57,19.467,23.281,29.543,43.142,43.065,7.907-7.188,19.041-18.04,24.292-28.261-20.544-29.466-31.1-59.311-34.036-95.112Z" transform="translate(-262.571 -222.513)" fill="#fe6545"/>
          <path id="Trazado_991383" data-name="Trazado 991383" d="M351.5,395.084a78.783,78.783,0,0,0-7.166,6.012h17.346l19.865-26.565S343.874,325.7,344.864,325.7a129.77,129.77,0,0,0-24.292,28.261c11.326,9.671,22.652,19.341,34.019,29.729A53.172,53.172,0,0,1,351.5,395.084Z" transform="translate(-267.112 -230.592)" fill="#2e2854"/>
          <path id="Trazado_991384" data-name="Trazado 991384" d="M263.776,273.03c9.782-.044,34.217-2.174,46.931-21.252a208.487,208.487,0,0,1-4.418-29.265l-43.71,28.947A155.538,155.538,0,0,0,263.776,273.03Z" transform="translate(-262.571 -222.513)" fill="#2e2854" opacity="0.21"/>
        </g>
        <g id="Grupo_1165301" data-name="Grupo 1165301" transform="translate(48.856)">
          <path id="Trazado_991385" data-name="Trazado 991385" d="M282.118,139.169c-6.185-12.508-14.01-25.654-27.063-30.584a33.467,33.467,0,0,0-15.216-1.8l-13.291,18.671-21.342-1.074h0q-2.255,1.947-4.464,3.949,16.017,44.4,32.031,88.791l46.624-3.357L303.2,191.091A359.826,359.826,0,0,0,282.118,139.169Z" transform="translate(-200.742 -106.589)" fill="#fe6545"/>
          <path id="Trazado_991386" data-name="Trazado 991386" d="M219.1,177.069l7.331,20.321c4.578-3.234,12.77-9.439,17.666-15.621l4.7,2.813s20.616-16.882,21.1-49.8l-14.59-4.612Z" transform="translate(-202.179 -108.435)" fill="#2e2854" opacity="0.21"/>
          <path id="Trazado_991387" data-name="Trazado 991387" d="M248.268,132.186a147.542,147.542,0,0,0-8.051-25.387,47.831,47.831,0,0,0-16.579,4.962A89.754,89.754,0,0,0,205.584,124.4c2.522,6.285,5.059,12.592,8.232,19.745C224.963,140.17,236.108,136.2,248.268,132.186Z" transform="translate(-201.121 -106.605)" fill="#fff"/>
          <path id="Trazado_991388" data-name="Trazado 991388" d="M212.676,119.139c6.1,3.658,12.253,7.363,18.775,11.387a147.668,147.668,0,0,0,4.54-22.9,49.658,49.658,0,0,0-11.8,4.2A74.709,74.709,0,0,0,212.676,119.139Z" transform="translate(-201.676 -106.67)" fill="#9e4950"/>
        </g>
        <g id="Grupo_1165302" data-name="Grupo 1165302" transform="translate(22.063 84.502)">
          <path id="Trazado_991389" data-name="Trazado 991389" d="M210.562,346.829c5.414-4.821,7.846-12.194,8.8-19.381s.655-14.5,1.739-21.668a57.8,57.8,0,0,1,32.527-43.132c8.08-3.691,16.895-5.433,25.293-8.329s16.751-7.268,21.687-14.654c7.941-11.883,4.918-27.757.65-41.395l-44.96,9.763c-18.152,5.116-37.121,10.691-50.6,23.886-10.284,10.069-16.341,23.65-21,37.269-4.4,12.873-7.78,26.192-8.537,39.775s-.433,26.185,5.418,38.465l13.5,5.046Z" transform="translate(-172.002 -198.269)" fill="#fe6545"/>
          <path id="Trazado_991390" data-name="Trazado 991390" d="M171.673,413.851h40.694c-.364-18-.748-37.861-2.037-54.58-9.9-1.591-20.048-1.595-29.077.673.263,13.344.935,28.448,1.2,41.793C179.1,406.066,175.194,410.069,171.673,413.851Z" transform="translate(-171.673 -210.787)" fill="#2e2854"/>
          <path id="Trazado_991391" data-name="Trazado 991391" d="M277.525,205.584A20.946,20.946,0,0,0,301.3,216.93" transform="translate(-179.961 -198.842)" fill="none" stroke="#2e2854" stroke-linecap="round" stroke-linejoin="round" stroke-miterlimit="10" stroke-width="1.5"/>
          <path id="Trazado_991392" data-name="Trazado 991392" d="M267.837,217.188s-60.2,12.859-71.627,58.929-2.73,75.13-2.73,75.13" transform="translate(-173.132 -199.75)" fill="none" stroke="#2e2854" stroke-linecap="round" stroke-linejoin="round" stroke-miterlimit="10" stroke-width="1.5"/>
          <path id="Trazado_991393" data-name="Trazado 991393" d="M256.3,208.86c-18.152,5.116-37.121,10.691-50.6,23.886-10.284,10.069-16.341,23.65-21,37.269-4.4,12.873-7.78,26.192-8.537,39.775s-.433,26.185,5.418,38.465" transform="translate(-172.001 -199.098)" fill="none" stroke="#2e2854" stroke-linecap="round" stroke-linejoin="round" stroke-miterlimit="10" stroke-width="1.5"/>
        </g>
      </g>
      <g id="Grupo_1165309" data-name="Grupo 1165309" transform="translate(0 53.288)">
        <path id="Trazado_991394" data-name="Trazado 991394" d="M169.684,202.091a13.608,13.608,0,0,0-4.678-2.38c-1.723-.367-5.312.182-6.128,3.637l5.879,4.36,4.927-3.425v-2.192Z" transform="translate(-121.959 -99.881)" fill="#9e4950"/>
        <path id="Trazado_991395" data-name="Trazado 991395" d="M162.412,176.149c1.579-.979,1.159-3.636-.38-4.677s-3.593-.858-5.384-.363a18.225,18.225,0,0,0-9.3,6.136l9.4,2.758Z" transform="translate(-121.057 -97.619)" fill="#9e4950"/>
        <path id="Trazado_991396" data-name="Trazado 991396" d="M176.931,359.05c-2.911-9.152-8.921-16.335-16.2-19.852a2.306,2.306,0,0,0-.248-.112,23.469,23.469,0,0,0-6.969-2.077c-.33-.042-.663-.065-.995-.093,2.35-39.8,4.384-80.345,6.351-119.588,2.03-40.5,4.129-82.386,6.575-123.418a2.361,2.361,0,0,0-4.715-.281c-2.448,41.056-4.548,82.949-6.578,123.463-1.972,39.354-4.012,80.022-6.37,119.919a26.851,26.851,0,0,0-7.777,2.2c-.043.017-.084.035-.126.054a30.1,30.1,0,0,0-9.572,6.948c-5.125,5.549-8.678,13.314-10.278,22.458a112.176,112.176,0,0,0-1.177,20.778,2.362,2.362,0,0,0,4.723-.064,108.128,108.128,0,0,1,1.106-19.9c1.443-8.247,4.589-15.186,9.1-20.066a25.752,25.752,0,0,1,4.625-3.943l-.764,44.459a2.362,2.362,0,0,0,2.321,2.4H140a2.362,2.362,0,0,0,2.361-2.321L143.17,343a20.06,20.06,0,0,1,9.739-1.3,18.312,18.312,0,0,1,4.369,1.154l-.465,47.1a2.362,2.362,0,0,0,2.338,2.384h.024A2.362,2.362,0,0,0,161.537,390l.439-44.534a30.539,30.539,0,0,1,10.454,15.017c2.819,8.86,2.448,18.274,1.725,28.773a2.362,2.362,0,0,0,2.194,2.518c.055,0,.111.006.165.006a2.362,2.362,0,0,0,2.354-2.2C179.6,378.993,180,368.692,176.931,359.05Z" transform="translate(-118.823 -91.41)" fill="#2e2854"/>
        <g id="Grupo_1165307" data-name="Grupo 1165307" transform="translate(28.826 17.779)">
          <path id="Trazado_991397" data-name="Trazado 991397" d="M242.627,177.012c-9.375,9.929-20.8,17.758-32.91,24.071s-24.921,11.16-37.807,15.676a33.214,33.214,0,0,1-7.835,2.032,11.455,11.455,0,0,1-7.739-1.782c-2.86-2.058-4.15-5.612-5.284-8.948-.8-2.349-1.559-5.081-.235-7.179,1.363-2.16,4.286-1.591,6.838-1.49s6.524,1.443,8.782.249l3.679-1.871c15-9.961,29.332-20.843,41.535-33.889q3.108-3.322,6.016-6.84l19.4,6.982Z" transform="translate(-150.098 -114.327)" fill="#9e4950"/>
          <path id="Trazado_991398" data-name="Trazado 991398" d="M242.869,178.191l-2.607-6.088c-11.107,11.557-39.976,32.066-60.629,38.839-16.52,5.418-23.7,4.18-26.448,3.039a10.228,10.228,0,0,0,11.131,5.991,33.258,33.258,0,0,0,7.835-2.032c12.886-4.516,25.7-9.362,37.807-15.676S233.494,188.119,242.869,178.191Z" transform="translate(-150.34 -115.507)" fill="#2e2854" opacity="0.21"/>
          <path id="Trazado_991399" data-name="Trazado 991399" d="M242.627,178.708c-9.375,9.929-20.8,17.758-32.91,24.071s-24.921,11.16-37.807,15.676a33.213,33.213,0,0,1-7.835,2.032,11.455,11.455,0,0,1-7.739-1.782c-2.86-2.058-4.15-5.612-5.284-8.948-.8-2.349-1.559-5.081-.235-7.179,1.363-2.16,4.286-1.591,6.838-1.49,1.869.074,4.5.814,6.664.735" transform="translate(-150.098 -116.024)" fill="none" stroke="#2e2854" stroke-linecap="round" stroke-linejoin="round" stroke-miterlimit="10" stroke-width="1.5"/>
          <g id="Grupo_1165306" data-name="Grupo 1165306" transform="translate(67.57)">
            <path id="Trazado_991400" data-name="Trazado 991400" d="M246.088,117.7a11.286,11.286,0,0,1,17.456-4.523l.127.105c4.2,3.528,6.35,9.072,6.7,14.549s-.924,10.932-2.6,16.158A110.892,110.892,0,0,1,248.4,179.7c-8.73-8.164-19.448-12.894-24.987-26.283C231.521,143.583,240.828,130.235,246.088,117.7Z" transform="translate(-223.408 -110.699)" fill="#fff"/>
            <path id="Trazado_991401" data-name="Trazado 991401" d="M272.011,128.8a24.429,24.429,0,0,0-1.07-5.746c-.572,27.613-20.638,47.536-26.573,52.835,1.933,1.516,3.844,3.07,5.668,4.776a110.883,110.883,0,0,0,19.378-35.707C271.086,139.729,272.36,134.275,272.011,128.8Z" transform="translate(-225.049 -111.666)" fill="#d8d8ef"/>
            <g id="Grupo_1165305" data-name="Grupo 1165305">
              <g id="Grupo_1165304" data-name="Grupo 1165304" clip-path="url(#clip-path-14)">
                <path id="Trazado_991402" data-name="Trazado 991402" d="M227.8,150.464a81.794,81.794,0,0,0,27.518,26.089" transform="translate(-223.752 -113.812)" fill="none" stroke="#2e2854" stroke-linecap="round" stroke-linejoin="round" stroke-miterlimit="10" stroke-width="1.5"/>
              </g>
            </g>
          </g>
        </g>
        <g id="Grupo_1165308" data-name="Grupo 1165308" transform="translate(22.636 76.437)">
          <path id="Trazado_991404" data-name="Trazado 991404" d="M147.039,177.529a16.617,16.617,0,0,0-2.1,17.434,8.124,8.124,0,0,0,3.041,3.627,8.441,8.441,0,0,0,5.231.771,18.426,18.426,0,0,0,16.267-19.3,6.8,6.8,0,0,0-1.14-3.814c-1.493-1.95-4.372-2.183-6.774-1.671s-4.708,1.587-7.164,1.638Z" transform="translate(-143.382 -174.34)" fill="#9e4950"/>
          <path id="Trazado_991405" data-name="Trazado 991405" d="M145.108,180.549a16.666,16.666,0,0,0-.171,14.414,8.124,8.124,0,0,0,3.041,3.627,8.441,8.441,0,0,0,5.231.771,18.426,18.426,0,0,0,16.267-19.3,6.8,6.8,0,0,0-1.14-3.814c-1.493-1.95-4.372-2.183-6.774-1.671s-4.708,1.587-7.164,1.638" transform="translate(-143.382 -174.34)" fill="none" stroke="#2e2854" stroke-linecap="round" stroke-linejoin="round" stroke-miterlimit="10" stroke-width="1.5"/>
        </g>
      </g>
      <g id="Grupo_1165318" data-name="Grupo 1165318" transform="translate(32.047)">
        <g id="Grupo_1165310" data-name="Grupo 1165310">
          <path id="Trazado_991406" data-name="Trazado 991406" d="M240.006,50.34a74.992,74.992,0,0,0-9.4-10.38,25.133,25.133,0,0,0-12.4-6.149c-5.621-.837-11.273.9-16.66,2.713C196.4,38.249,191.2,40.106,186.893,43.4s-7.636,8.3-7.2,14.263A199.489,199.489,0,0,0,240.006,50.34Z" transform="translate(-155.633 -33.595)" fill="#c8d9d3"/>
          <path id="Trazado_991407" data-name="Trazado 991407" d="M210.788,75.664c-15.744,1.145-31.257,5.643-47.006,4.564a17.359,17.359,0,0,1-6.182-1.265,6.666,6.666,0,0,1-3.937-4.662c-.606-3.626,2.727-6.614,5.816-8.607,11.54-7.445,24.655-12.245,38.09-15.079s27.216-3.743,40.948-3.8c5.519-.021,11.107.1,16.431,1.56,2.952.806,6.082,2.3,7.174,5.16a7.409,7.409,0,0,1-1.015,6.569,16.254,16.254,0,0,1-5.1,4.574C244.564,71.873,224.27,74.684,210.788,75.664Z" transform="translate(-153.592 -34.63)" fill="#a2bab2"/>
        </g>
        <g id="Grupo_1165312" data-name="Grupo 1165312" transform="translate(20.309 40.256)">
          <path id="Trazado_991408" data-name="Trazado 991408" d="M188.461,77.5a10.565,10.565,0,0,0-7.18,19.689,10.93,10.93,0,0,0,13.544-3.376Z" transform="translate(-175.626 -77.271)" fill="#9e4950"/>
          <g id="Grupo_1165311" data-name="Grupo 1165311" transform="translate(5.145 6.099)">
            <path id="Trazado_991409" data-name="Trazado 991409" d="M181.208,89.57a7.566,7.566,0,0,1,7.069-5.682" transform="translate(-181.208 -83.888)" fill="none" stroke="#2e2854" stroke-linecap="round" stroke-linejoin="round" stroke-miterlimit="10" stroke-width="1.5"/>
            <path id="Trazado_991410" data-name="Trazado 991410" d="M187.69,90.637a10.085,10.085,0,0,1-4.29-4.377" transform="translate(-181.38 -84.074)" fill="none" stroke="#2e2854" stroke-linecap="round" stroke-linejoin="round" stroke-miterlimit="10" stroke-width="1.5"/>
          </g>
        </g>
        <g id="Grupo_1165314" data-name="Grupo 1165314" transform="translate(80.712 29.763)">
          <path id="Trazado_991411" data-name="Trazado 991411" d="M242.006,67.32A10.565,10.565,0,0,1,255.074,83.7,10.93,10.93,0,0,1,241.16,84.81Z" transform="translate(-241.16 -65.886)" fill="#9e4950"/>
          <g id="Grupo_1165313" data-name="Grupo 1165313" transform="translate(3.299 6.472)">
            <path id="Trazado_991412" data-name="Trazado 991412" d="M253.249,76.374a7.568,7.568,0,0,0-8.51-3.139" transform="translate(-244.739 -72.907)" fill="none" stroke="#2e2854" stroke-linecap="round" stroke-linejoin="round" stroke-miterlimit="10" stroke-width="1.5"/>
            <path id="Trazado_991413" data-name="Trazado 991413" d="M247.785,79.283a10.085,10.085,0,0,0,2.675-5.514" transform="translate(-244.978 -72.974)" fill="none" stroke="#2e2854" stroke-linecap="round" stroke-linejoin="round" stroke-miterlimit="10" stroke-width="1.5"/>
          </g>
        </g>
        <g id="Grupo_1165315" data-name="Grupo 1165315" transform="translate(57.6 61.408)">
          <path id="Trazado_991414" data-name="Trazado 991414" d="M216.085,104.3c1.39,4.175,2.78,8.351,4.512,13.284A29.189,29.189,0,0,0,231.21,113.5q-2.381-6.64-4.761-13.282Z" transform="translate(-216.085 -100.219)" fill="#9e4950"/>
          <path id="Trazado_991415" data-name="Trazado 991415" d="M217.621,108.9a30.086,30.086,0,0,0,11.114-2.305q-1.142-3.187-2.285-6.374L216.085,104.3C216.591,105.82,217.1,107.342,217.621,108.9Z" transform="translate(-216.085 -100.219)" fill="#235859" opacity="0.15"/>
        </g>
        <path id="Trazado_991416" data-name="Trazado 991416" d="M237.958,78.535a4.277,4.277,0,0,0,2.518-3.679,12.572,12.572,0,0,0-.694-4.622l-4.2-14.949A73.548,73.548,0,0,0,184.1,66.048,36.142,36.142,0,0,1,187.5,78.827a25.593,25.593,0,0,0,.3,3.826,5.327,5.327,0,0,0,1.856,3.266,4.215,4.215,0,0,0,4.017.354C207.478,81.541,222.928,83.912,237.958,78.535Z" transform="translate(-155.981 -35.218)" fill="#2e2854"/>
        <g id="Grupo_1165317" data-name="Grupo 1165317" transform="translate(33.762 25.805)">
          <path id="Trazado_991417" data-name="Trazado 991417" d="M230.8,66.827a15.367,15.367,0,0,0,.386,4.639,5.2,5.2,0,0,0,2.878,3.475,3.184,3.184,0,0,0,3.994-1.406,24.059,24.059,0,0,1-11.016,26.811,24.436,24.436,0,0,1-28.591-4.014c-5.966-6.062-8.245-14.855-8.227-23.689a6.586,6.586,0,0,0,9.135-5.569,5.948,5.948,0,0,0,5.326.451,6.446,6.446,0,0,0,3.592-4.062,7.066,7.066,0,0,0,6.6,2.656c2.46-.389,4.638-2.214,6.395-4.527A10.106,10.106,0,0,0,230.8,66.827Z" transform="translate(-190.222 -61.592)" fill="#9e4950"/>
          <g id="Grupo_1165316" data-name="Grupo 1165316" transform="translate(2.631 9.756)">
            <path id="Trazado_991418" data-name="Trazado 991418" d="M193.076,79.025a4.678,4.678,0,0,1,6.292-1.529" transform="translate(-193.076 -72.543)" fill="none" stroke="#2e2854" stroke-linecap="round" stroke-linejoin="round" stroke-miterlimit="10" stroke-width="1.5"/>
            <path id="Trazado_991419" data-name="Trazado 991419" d="M217.18,74.865a6.194,6.194,0,0,1,8.074-1.919" transform="translate(-194.963 -72.176)" fill="none" stroke="#2e2854" stroke-linecap="round" stroke-linejoin="round" stroke-miterlimit="10" stroke-width="1.5"/>
            <path id="Trazado_991420" data-name="Trazado 991420" d="M207.907,74.022a30.292,30.292,0,0,1-1.223,4.892,5.325,5.325,0,0,0,2.9.654" transform="translate(-194.141 -72.321)" fill="none" stroke="#2e2854" stroke-linecap="round" stroke-linejoin="round" stroke-miterlimit="10" stroke-width="1.5"/>
            <path id="Trazado_991421" data-name="Trazado 991421" d="M209.869,88.776a23.619,23.619,0,0,0,11.312-7.931" transform="translate(-194.391 -72.855)" fill="none" stroke="#2e2854" stroke-linecap="round" stroke-linejoin="round" stroke-miterlimit="10" stroke-width="1.5"/>
          </g>
          <path id="Trazado_991422" data-name="Trazado 991422" d="M235.149,87.765a4.985,4.985,0,1,0-2.835,7.748C237.02,94.333,236.551,89.712,235.149,87.765Z" transform="translate(-193.035 -63.482)" fill="#ab575e"/>
          <path id="Trazado_991423" data-name="Trazado 991423" d="M204.4,94.882a5.156,5.156,0,0,0-6.425-1.468,4.84,4.84,0,0,0-1.886,1.9,24.519,24.519,0,0,0,2.823,3.464,22.024,22.024,0,0,0,4.147,3.277C206.137,100.365,205.628,96.593,204.4,94.882Z" transform="translate(-190.681 -64.039)" fill="#ab575e"/>
        </g>
      </g>
    </g>
  </g>
</svg>
