<svg xmlns="http://www.w3.org/2000/svg" width="205.804" height="236.306" viewBox="0 0 205.804 236.306">
  <g id="OBJECTS" transform="translate(-54.971 -16.986)">
    <g id="Grupo_1166233" data-name="Grupo 1166233" transform="translate(45.734 22.292)">
      <ellipse id="Elipse_11825" data-name="Elipse 11825" cx="95.673" cy="92.835" rx="95.673" ry="92.835" transform="translate(14.542 -5.306)" fill="#cbf0f5"/>
      <g id="Grupo_1166200" data-name="Grupo 1166200" transform="translate(16.092 122.522)">
        <path id="Trazado_992596" data-name="Trazado 992596" d="M76.805,282.122c-1.405-3.476-2.835-3.625-3.444-6.9-.523-2.813.38-3.524-.246-6.342-.1-.432-1.424-6.141-4.428-6.453-2.286-.237-4.685,2.74-5.657,5.007-1.167,2.72-.069,3.929-1.23,8.233-.541,2.007-.829,1.926-1.6,4.228-.9,2.7-2.105,6.29-1.476,9.9a14.344,14.344,0,0,0,4.784,7.975,4.349,4.349,0,0,0,2.789,1.081l4.686.133a4.345,4.345,0,0,0,3.027-1.063,12.745,12.745,0,0,0,2.67-3.341C79.647,289.149,77.253,283.229,76.805,282.122Z" transform="translate(-58.55 -262.416)" fill="#48a070"/>
        <g id="Grupo_1166199" data-name="Grupo 1166199" transform="translate(4.654 2.2)">
          <path id="Trazado_992597" data-name="Trazado 992597" d="M76.745,301.238l-.028,0a.2.2,0,0,1-.17-.225c.463-3.3.363-6.98,0-13.048-.353-5.883,0-21.019,0-21.172a.2.2,0,1,1,.4.009c0,.152-.353,15.272,0,21.138.366,6.095.466,9.8,0,13.128A.2.2,0,0,1,76.745,301.238Z" transform="translate(-71.653 -266.596)" fill="#84bfa1"/>
          <path id="Trazado_992598" data-name="Trazado 992598" d="M72.777,318.837a.2.2,0,0,1-.159-.079l-5.186-6.9a.2.2,0,0,1,.318-.24l5.186,6.9a.2.2,0,0,1-.039.279A.2.2,0,0,1,72.777,318.837Z" transform="translate(-67.392 -287.883)" fill="#84bfa1"/>
          <path id="Trazado_992599" data-name="Trazado 992599" d="M72.67,291.485a.2.2,0,0,1-.153-.072l-4.369-5.23a.2.2,0,0,1,.306-.255l4.369,5.23a.2.2,0,0,1-.153.327Z" transform="translate(-67.728 -275.719)" fill="#84bfa1"/>
          <path id="Trazado_992600" data-name="Trazado 992600" d="M76.669,297.423a.2.2,0,0,1-.153-.327l4.369-5.23a.2.2,0,0,1,.306.255l-4.369,5.23A.2.2,0,0,1,76.669,297.423Z" transform="translate(-71.691 -278.531)" fill="#84bfa1"/>
          <path id="Trazado_992601" data-name="Trazado 992601" d="M76.669,280.867a.2.2,0,0,1-.153-.327l3.3-5.147a.2.2,0,0,1,.306.255l-3.3,5.147A.2.2,0,0,1,76.669,280.867Z" transform="translate(-71.691 -270.729)" fill="#84bfa1"/>
        </g>
      </g>
      <g id="Grupo_1166201" data-name="Grupo 1166201" transform="translate(10.076 147.171)">
        <path id="Trazado_992602" data-name="Trazado 992602" d="M65.148,317c5.535,2.837,7.658,10.8,4.1,15.3-3.154,3.988-10.26,3.89-14.543,1.022a12.1,12.1,0,0,1-5.224-8.634c-.134-1.8.375-2.432.01-4.884a22.34,22.34,0,0,0-1.829-5.79c-1.272-2.852-2.136-3.571-1.887-5.095,0,0,.394-2.143,3.512-1.874s5.217,4.369,6.225,5.305C59.018,315.609,61.873,315.323,65.148,317Z" transform="translate(-45.734 -307.024)" fill="#84bfa1"/>
        <path id="Trazado_992603" data-name="Trazado 992603" d="M57.1,322.813a25.053,25.053,0,0,1,5.26,3,88.226,88.226,0,0,0-6.7-9.01.175.175,0,0,1,.262-.233c.029.033,1.263,1.429,3.153,3.957a39.965,39.965,0,0,0-.442-4.4.175.175,0,0,1,.138-.205h0a.175.175,0,0,1,.205.138,44.645,44.645,0,0,1,.475,4.978c1.1,1.484,2.382,3.316,3.769,5.453a.182.182,0,0,1,.033.05c.754,1.163,1.536,2.416,2.333,3.754a37.492,37.492,0,0,0-.011-6.934.175.175,0,0,1,.349-.033,34.311,34.311,0,0,1-.063,7.43c1.18,2,2.387,4.184,3.574,6.53a.175.175,0,0,1-.077.235.184.184,0,0,1-.045.016.175.175,0,0,1-.19-.093,116.254,116.254,0,0,0-6.175-10.733,25.085,25.085,0,0,0-5.978-3.569.176.176,0,0,1,.132-.326Z" transform="translate(-50.415 -311.234)" fill="#45836a"/>
      </g>
      <path id="Trazado_992604" data-name="Trazado 992604" d="M122.369,248.128h0l-.119-.59c-.475-.9-5.194-9.466-15.458-10.977-10.824-1.594-18.032,6.1-18.594,6.721a20.5,20.5,0,0,0-13.217,6.5c-6.832,7.6-4.7,17.428-4.48,18.37a22.764,22.764,0,0,0-7.617,8.737,23.945,23.945,0,0,0-.9,17.922,9.988,9.988,0,0,0-6.721,1.792c-6.944,5.322-5.853,23.338,4.256,30.243,5.188,3.544,11.226,3.119,14.113,2.688h65.142l-.1-.472h10.058V274.5A26.373,26.373,0,0,0,122.369,248.128Z" transform="translate(-41.604 -117.42)" fill="#5aa880"/>
      <path id="Trazado_992605" data-name="Trazado 992605" d="M175.449,317.655A14.2,14.2,0,0,0,165.4,310.52c-7.036-1.036-11.72,3.965-12.086,4.368a13.326,13.326,0,0,0-8.591,4.223c-4.441,4.942-3.056,11.328-2.912,11.94a14.8,14.8,0,0,0-4.951,5.679,15.566,15.566,0,0,0-.583,11.649,6.492,6.492,0,0,0-4.368,1.165c-4.513,3.459-3.8,15.169,2.767,19.657a13,13,0,0,0,9.173,1.747h42.34Z" transform="translate(-85.188 -158.738)" fill="#45836a"/>
      <g id="Grupo_1166202" data-name="Grupo 1166202" transform="translate(54.922 142.769)">
        <path id="Trazado_992606" data-name="Trazado 992606" d="M160.488,297.315a5.318,5.318,0,1,1-6.622-3.567A5.318,5.318,0,0,1,160.488,297.315Z" transform="translate(-150.075 -293.522)" fill="#e25740"/>
        <path id="Trazado_992607" data-name="Trazado 992607" d="M153.962,297.462a2.823,2.823,0,0,0-.578.911,3.742,3.742,0,0,0-.251,1,2.466,2.466,0,0,0,.017.514,2.68,2.68,0,0,1,0,.507,4.341,4.341,0,0,1-.082.533,2.471,2.471,0,0,1-.159.59l-.088.022a2,2,0,0,1-.576-1.1,2.467,2.467,0,0,1,.182-1.22,3.439,3.439,0,0,1,.571-1.083,2.707,2.707,0,0,1,.917-.753Z" transform="translate(-151.09 -295.352)" fill="#ea725e"/>
      </g>
      <g id="Grupo_1166203" data-name="Grupo 1166203" transform="translate(12.403 184.077)">
        <path id="Trazado_992608" data-name="Trazado 992608" d="M79.711,375.791a5.318,5.318,0,1,1-6.622-3.567A5.318,5.318,0,0,1,79.711,375.791Z" transform="translate(-69.297 -371.999)" fill="#e25740"/>
        <path id="Trazado_992609" data-name="Trazado 992609" d="M73.185,375.939a2.823,2.823,0,0,0-.578.911,3.742,3.742,0,0,0-.251,1,2.467,2.467,0,0,0,.017.514,2.6,2.6,0,0,1,0,.507,4.352,4.352,0,0,1-.082.533,2.448,2.448,0,0,1-.159.59l-.088.022a2,2,0,0,1-.576-1.1,2.467,2.467,0,0,1,.182-1.22,3.439,3.439,0,0,1,.571-1.083,2.7,2.7,0,0,1,.917-.753Z" transform="translate(-70.312 -373.828)" fill="#ea725e"/>
      </g>
      <g id="Grupo_1166204" data-name="Grupo 1166204" transform="translate(64.776 160.429)">
        <path id="Trazado_992610" data-name="Trazado 992610" d="M179.208,330.865a5.318,5.318,0,1,1-6.622-3.567A5.318,5.318,0,0,1,179.208,330.865Z" transform="translate(-168.794 -327.073)" fill="#e25740"/>
        <path id="Trazado_992611" data-name="Trazado 992611" d="M172.682,331.013a2.823,2.823,0,0,0-.578.911,3.741,3.741,0,0,0-.251,1,2.466,2.466,0,0,0,.017.514,2.6,2.6,0,0,1,0,.507,4.345,4.345,0,0,1-.082.533,2.472,2.472,0,0,1-.159.59l-.088.022a2,2,0,0,1-.576-1.1,2.467,2.467,0,0,1,.182-1.22,3.439,3.439,0,0,1,.571-1.083,2.707,2.707,0,0,1,.917-.753Z" transform="translate(-169.809 -328.903)" fill="#ea725e"/>
      </g>
      <g id="Grupo_1166205" data-name="Grupo 1166205" transform="translate(33.585 134.79)">
        <path id="Trazado_992612" data-name="Trazado 992612" d="M119.951,282.156a5.318,5.318,0,1,1-6.621-3.567A5.318,5.318,0,0,1,119.951,282.156Z" transform="translate(-109.538 -278.364)" fill="#e25740"/>
        <path id="Trazado_992613" data-name="Trazado 992613" d="M113.424,282.3a2.829,2.829,0,0,0-.578.911,3.742,3.742,0,0,0-.251,1,2.469,2.469,0,0,0,.017.514,2.594,2.594,0,0,1,0,.507,4.348,4.348,0,0,1-.082.533,2.447,2.447,0,0,1-.159.59l-.088.022a2,2,0,0,1-.576-1.1,2.467,2.467,0,0,1,.182-1.22,3.439,3.439,0,0,1,.571-1.083,2.7,2.7,0,0,1,.917-.753Z" transform="translate(-110.552 -280.194)" fill="#ea725e"/>
      </g>
      <g id="Grupo_1166206" data-name="Grupo 1166206" transform="translate(53.733 123.729)">
        <path id="Trazado_992614" data-name="Trazado 992614" d="M158.228,261.144a5.318,5.318,0,1,1-6.622-3.567A5.318,5.318,0,0,1,158.228,261.144Z" transform="translate(-147.815 -257.352)" fill="#cc4b2e"/>
        <path id="Trazado_992615" data-name="Trazado 992615" d="M151.7,261.292a2.824,2.824,0,0,0-.578.911,3.742,3.742,0,0,0-.251,1,2.466,2.466,0,0,0,.017.514,2.636,2.636,0,0,1,0,.507,4.337,4.337,0,0,1-.082.533,2.471,2.471,0,0,1-.159.59l-.088.022a2,2,0,0,1-.576-1.1,2.467,2.467,0,0,1,.182-1.22,3.439,3.439,0,0,1,.571-1.083,2.7,2.7,0,0,1,.917-.753Z" transform="translate(-148.83 -259.182)" fill="#ea725e"/>
      </g>
      <g id="Grupo_1166207" data-name="Grupo 1166207" transform="translate(26.567 160.429)">
        <path id="Trazado_992616" data-name="Trazado 992616" d="M106.618,330.865A5.318,5.318,0,1,1,100,327.3,5.318,5.318,0,0,1,106.618,330.865Z" transform="translate(-96.205 -327.073)" fill="#cc4b2e"/>
        <path id="Trazado_992617" data-name="Trazado 992617" d="M100.092,331.013a2.823,2.823,0,0,0-.578.911,3.741,3.741,0,0,0-.251,1,2.467,2.467,0,0,0,.017.514,2.681,2.681,0,0,1,0,.507,4.349,4.349,0,0,1-.082.533,2.447,2.447,0,0,1-.159.59l-.088.022a2,2,0,0,1-.576-1.1,2.467,2.467,0,0,1,.182-1.22,3.439,3.439,0,0,1,.571-1.083,2.7,2.7,0,0,1,.917-.753Z" transform="translate(-97.22 -328.903)" fill="#ea725e"/>
      </g>
      <g id="Grupo_1166208" data-name="Grupo 1166208" transform="translate(80.455 176.691)">
        <path id="Trazado_992618" data-name="Trazado 992618" d="M209,361.76a5.318,5.318,0,1,1-6.622-3.567A5.318,5.318,0,0,1,209,361.76Z" transform="translate(-198.582 -357.967)" fill="#cc4b2e"/>
        <path id="Trazado_992619" data-name="Trazado 992619" d="M202.469,361.907a2.823,2.823,0,0,0-.578.911,3.741,3.741,0,0,0-.251,1,2.467,2.467,0,0,0,.017.514,2.594,2.594,0,0,1,0,.507,4.349,4.349,0,0,1-.082.533,2.47,2.47,0,0,1-.159.59l-.088.022a2,2,0,0,1-.576-1.1,2.467,2.467,0,0,1,.182-1.22,3.439,3.439,0,0,1,.571-1.083,2.707,2.707,0,0,1,.917-.753Z" transform="translate(-199.597 -359.797)" fill="#ea725e"/>
      </g>
      <g id="Grupo_1166209" data-name="Grupo 1166209" transform="translate(30.603 152.55)">
        <path id="Trazado_992620" data-name="Trazado 992620" d="M114.361,318.68a5.318,5.318,0,1,1-3.911-6.424A5.318,5.318,0,0,1,114.361,318.68Z" transform="translate(-103.874 -312.105)" fill="#e25740"/>
        <path id="Trazado_992621" data-name="Trazado 992621" d="M110.241,314.51a2.824,2.824,0,0,0-.959.494,3.739,3.739,0,0,0-.724.739,2.514,2.514,0,0,0-.245.452,2.58,2.58,0,0,1-.258.436,4.335,4.335,0,0,1-.34.419,2.477,2.477,0,0,1-.435.429l-.087-.025a2,2,0,0,1,.059-1.241,2.46,2.46,0,0,1,.773-.96,3.434,3.434,0,0,1,1.04-.646,2.7,2.7,0,0,1,1.172-.186Z" transform="translate(-105.411 -313.197)" fill="#ea725e"/>
      </g>
      <g id="Grupo_1166211" data-name="Grupo 1166211" transform="translate(195.6 136.292)">
        <path id="Trazado_992622" data-name="Trazado 992622" d="M428.452,326.01c5.043-1.563,5.866-11.283,6.132-14.427.454-5.356-.876-5.136-.221-10.314s2.193-7.03,2.366-12.673c.095-3.109.19-6.192-1.454-7.111-2.592-1.45-7.767,3.462-8.353,4.019-6.284,5.968-7.636,13.957-8.606,20.2-1.13,7.27-1.941,12.488,1.388,16.534C421.685,324.639,425.4,326.957,428.452,326.01Z" transform="translate(-417.332 -281.218)" fill="#84bfa1"/>
        <g id="Grupo_1166210" data-name="Grupo 1166210" transform="translate(4.652 1.522)">
          <path id="Trazado_992623" data-name="Trazado 992623" d="M428.653,324.5a.227.227,0,0,1-.191-.251,164.673,164.673,0,0,1,10.482-40,.226.226,0,1,1,.416.178A164.133,164.133,0,0,0,428.912,324.3a.227.227,0,0,1-.252.2Z" transform="translate(-427.255 -284.109)" fill="#48a070"/>
          <path id="Trazado_992624" data-name="Trazado 992624" d="M438.571,299.235l-.015,0a.226.226,0,0,1-.168-.158c-1.021-3.537-2.029-8.865-2.039-8.918a.226.226,0,0,1,.445-.084c.01.051.943,4.983,1.919,8.488a27.246,27.246,0,0,1,6.108-4.95.226.226,0,1,1,.216.4,27.528,27.528,0,0,0-6.262,5.154A.227.227,0,0,1,438.571,299.235Z" transform="translate(-430.988 -286.846)" fill="#48a070"/>
          <path id="Trazado_992625" data-name="Trazado 992625" d="M434.048,308.858l-.024,0a.228.228,0,0,1-.138-.107,59.811,59.811,0,0,1-3.844-9.109.227.227,0,1,1,.431-.139,60.285,60.285,0,0,0,3.694,8.824l6.692-3.943a.226.226,0,0,1,.23.39l-6.892,4.06A.23.23,0,0,1,434.048,308.858Z" transform="translate(-427.998 -291.323)" fill="#48a070"/>
          <path id="Trazado_992626" data-name="Trazado 992626" d="M430.852,318.235a.228.228,0,0,1-.143-.083c-1.695-2.128-4.41-9.317-4.525-9.622a.226.226,0,0,1,.424-.16c.027.073,2.679,7.094,4.34,9.349.848-.455,4.527-2.393,6.365-2.708a.226.226,0,0,1,.077.446c-1.968.337-6.352,2.727-6.4,2.751A.223.223,0,0,1,430.852,318.235Z" transform="translate(-426.169 -295.531)" fill="#48a070"/>
        </g>
      </g>
      <g id="Grupo_1166213" data-name="Grupo 1166213" transform="translate(188.752 127.951)">
        <path id="Trazado_992627" data-name="Trazado 992627" d="M420.86,309.964c4.353-2.987,2.26-12.515,1.583-15.6-1.153-5.25-2.358-4.646-3.267-9.785s.012-7.365-1.495-12.805c-.83-3-1.654-5.971-3.5-6.362-2.906-.617-6.392,5.608-6.787,6.313-4.235,7.561-3.158,15.593-2.237,21.838,1.074,7.278,1.845,12.5,6.224,15.381C413.991,310.659,418.225,311.772,420.86,309.964Z" transform="translate(-404.321 -265.372)" fill="#48a070"/>
        <g id="Grupo_1166212" data-name="Grupo 1166212" transform="translate(1.36 1.645)">
          <path id="Trazado_992628" data-name="Trazado 992628" d="M422.546,310.2a.227.227,0,0,1-.256-.183A164.645,164.645,0,0,1,420.45,268.7a.227.227,0,0,1,.451.047,164.126,164.126,0,0,0,1.834,41.184.227.227,0,0,1-.182.264Z" transform="translate(-413.062 -268.497)" fill="#2d724a"/>
          <path id="Trazado_992629" data-name="Trazado 992629" d="M416.028,285.916l-.015,0a.227.227,0,0,1-.207-.1c-2.022-3.076-4.564-7.866-4.589-7.914a.226.226,0,0,1,.4-.212c.024.046,2.377,4.479,4.347,7.538a27.25,27.25,0,0,1,4.367-6.537.226.226,0,0,1,.325.315,27.539,27.539,0,0,0-4.454,6.778A.228.228,0,0,1,416.028,285.916Z" transform="translate(-408.934 -272.795)" fill="#2d724a"/>
          <path id="Trazado_992630" data-name="Trazado 992630" d="M414.561,296.446l-.024,0a.227.227,0,0,1-.164-.061,59.755,59.755,0,0,1-6.37-7.561.227.227,0,0,1,.371-.261,60.318,60.318,0,0,0,6.142,7.334l5.224-5.749a.227.227,0,1,1,.335.3l-5.38,5.919A.226.226,0,0,1,414.561,296.446Z" transform="translate(-407.405 -277.956)" fill="#2d724a"/>
          <path id="Trazado_992631" data-name="Trazado 992631" d="M414.285,306.352a.225.225,0,0,1-.161-.037c-2.249-1.531-6.972-7.592-7.172-7.849a.226.226,0,0,1,.357-.278c.048.061,4.661,5.982,6.915,7.643.675-.686,3.615-3.626,5.277-4.472a.227.227,0,0,1,.206.4c-1.78.9-5.258,4.486-5.293,4.523A.231.231,0,0,1,414.285,306.352Z" transform="translate(-406.904 -282.518)" fill="#2d724a"/>
        </g>
      </g>
      <path id="Trazado_992632" data-name="Trazado 992632" d="M291.661,63.955c-1.578,3.508-9.991,3.142-18.791-.817s-14.655-10.012-13.077-13.519,9.991-3.142,18.791.817S293.239,60.447,291.661,63.955Z" transform="translate(-146.996 -34.094)" fill="#774615"/>
      <ellipse id="Elipse_11826" data-name="Elipse 11826" cx="14.834" cy="40.468" rx="14.834" ry="40.468" transform="matrix(0.41, -0.912, 0.912, 0.41, 80.215, 27.057)" fill="#9d6729"/>
      <path id="Trazado_992633" data-name="Trazado 992633" d="M231.477,85.1c-.783-.54-6.064-4.3-6.351-10.557-.315-6.877,5.638-11.833,10.31-13.609,4.424-1.681,8.349-.757,12.371.247,3.846.961,16.816,4.2,20.949,14.1,3.018,7.229-1.408,11.455,2.969,20.7.879,1.857,2.153,3.575,4.7,7.011,8.229,11.1,12.086,12.638,14.516,17.568,2.048,4.155,3.174,10.9-1.484,22.1a11.554,11.554,0,0,1,2.392,8c-.7,5.884-8.079,8.888-12.371,10.64-11.228,4.58-40.348,11.328-51.218-5.526-6.136-9.514-3.182-21.472-1.732-26.146-4.439-4.485-5.092-7.92-4.948-10.145.224-3.486,2.431-4.445,6.681-11.877,2.505-4.381,4-7.042,4.619-10.64A22.21,22.21,0,0,0,231.477,85.1Z" transform="translate(-129.011 -40.155)" fill="#351008"/>
      <path id="Trazado_992634" data-name="Trazado 992634" d="M217.481,206.6h-12.52c.267-.665.547-1.367.842-2.1l0,0c2.915-7.206,7.111-17.173,10.234-22.948l.014-.018a27.947,27.947,0,0,1,2.137-3.476,3.741,3.741,0,0,1,.729-.706v0a9.028,9.028,0,0,1,1.032-.674c.122-.073.254-.145.39-.217,0,0,.009,0,.014,0,.136-.073.281-.145.43-.217s.3-.145.453-.217.317-.145.48-.213q.407-.183.842-.353c.136-.054.272-.108.412-.163.1-.041.195-.077.3-.113s.222-.086.335-.127c.217-.082.435-.163.661-.24.792-.285,1.616-.557,2.449-.824,1.186-.376,2.39-.738,3.54-1.077-2.738,5.445-9.161,18.363-11.678,24.528A18.173,18.173,0,0,0,217.481,206.6Z" transform="translate(-121.148 -93.625)" fill="#f2e7d6"/>
      <path id="Trazado_992635" data-name="Trazado 992635" d="M201.019,226.854a.511.511,0,0,1-.979,0c-1.759-5.839-7.256-25.951.49-25.951S202.778,221.016,201.019,226.854Z" transform="translate(-117.142 -106.887)" fill="#84bfa1"/>
      <path id="Trazado_992636" data-name="Trazado 992636" d="M206.02,220.447a.511.511,0,0,1-.926-.316c.218-6.094,1.5-26.9,8.833-24.406S209.568,215.488,206.02,220.447Z" transform="translate(-121.21 -104.336)" fill="#5aa880"/>
      <path id="Trazado_992637" data-name="Trazado 992637" d="M194.759,226.749a.511.511,0,0,0,.863-.462c-1.206-5.977-5.856-26.3-12.684-22.646S190.452,222.433,194.759,226.749Z" transform="translate(-109.858 -107.977)" fill="#45836a"/>
      <path id="Trazado_992638" data-name="Trazado 992638" d="M213.73,233.733a.511.511,0,0,0,.979,0c1.759-5.839,7.256-25.951-.49-25.951S211.972,227.894,213.73,233.733Z" transform="translate(-123.626 -110.145)" fill="#84bfa1"/>
      <path id="Trazado_992639" data-name="Trazado 992639" d="M205.184,237.389a.511.511,0,0,0,.926-.316c-.218-6.094-1.5-26.9-8.833-24.406S201.636,232.429,205.184,237.389Z" transform="translate(-116.386 -112.36)" fill="#5aa880"/>
      <path id="Trazado_992640" data-name="Trazado 992640" d="M222.012,226.744a.511.511,0,0,1-.956-.212c-.452-6.081-1.459-26.907,6.1-25.228S224.995,221.426,222.012,226.744Z" transform="translate(-128.624 -107.031)" fill="#45836a"/>
      <path id="Trazado_992641" data-name="Trazado 992641" d="M272.627,304.241h-59.4l-1.123-6.355a107.479,107.479,0,0,1-1.394-11.415c-.946-14.127-.883-32.812,2.779-41.633,4.268-10.289,9.9-11.646,9.9-21.645s-1.553-12.325-1.553-12.325-4.01-7.83-.778-15.761c2.517-6.165,8.939-19.083,11.678-24.528,1.1-.322,2.15-.629,3.087-.914l-4.858,17.163a.613.613,0,0,0,.59.78H251.88a.613.613,0,0,0,.59-.447l5.361-19.165,2.933,1.331-2.241,13.726A88.19,88.19,0,0,0,257.369,196a216.846,216.846,0,0,0,.86,23.584,12.321,12.321,0,0,0,3.368,7.478A15.516,15.516,0,0,0,264.444,235c.145.2.3.407.457.606,3.965,5.011,4.8,8.143,6.993,29.752A233.368,233.368,0,0,1,272.627,304.241Z" transform="translate(-123.626 -91.301)" fill="#ffb552"/>
      <path id="Trazado_992642" data-name="Trazado 992642" d="M271.387,124.177l.032.014-5.359,19.164a.615.615,0,0,1-.593.448H245.14a.61.61,0,0,1-.588-.779l4.857-17.164c2.087-.634,3.635-1.177,3.969-1.6.453-.566.552-2.141.507-3.852-.05-1.779-.258-3.7-.394-4.784a.972.972,0,0,0-.955-.86,21.925,21.925,0,0,1-2.349-.149h-.014a18.721,18.721,0,0,1-5.626-1.516c-2.313-1.077-3.969-5.762-4.875-11.628-.24-1.557-.425-3.2-.557-4.88a76.037,76.037,0,0,1-.158-9.247c.014-.348.032-.693.054-1.036.009-.122.014-.244.027-.366a23.108,23.108,0,0,1,2.851-10A15.11,15.11,0,0,0,247.8,88.187s-1.027-7.908.543-12.678c0,0,3.983,8.876,11.954,10.958,0,0,1.064,3.264,5.875,5.54l0,0c.145-.163,3.82-4.241,6.255.629,2.091,4.178-2.087,8.623-5.423,9.415a30.3,30.3,0,0,0,1.036,17.6l.706,1.765A5.106,5.106,0,0,0,271.387,124.177Z" transform="translate(-137.214 -47.497)" fill="#f08f64"/>
      <path id="Trazado_992643" data-name="Trazado 992643" d="M322.195,201.322l-11.787,3.485c-1.4,4.635-3.485,11.32-5.4,16.489a16.567,16.567,0,0,0-.991,6.961,12.322,12.322,0,0,1-3.368-7.478,231.534,231.534,0,0,1-.643-30.8l3.177-19.458,8.939,4.065s3.4,1.809,6.473,10.021a107.447,107.447,0,0,1,4.441,15.263A1.22,1.22,0,0,1,322.195,201.322Z" transform="translate(-166.051 -92.497)" fill="#f2e7d6"/>
      <path id="Trazado_992644" data-name="Trazado 992644" d="M241.829,209.952a1.474,1.474,0,1,1-1.474-1.474A1.474,1.474,0,0,1,241.829,209.952Z" transform="translate(-137.213 -110.475)" fill="#e29437"/>
      <path id="Trazado_992645" data-name="Trazado 992645" d="M293.243,209.952a1.474,1.474,0,1,1-1.474-1.474A1.474,1.474,0,0,1,293.243,209.952Z" transform="translate(-161.564 -110.475)" fill="#e29437"/>
      <path id="Trazado_992646" data-name="Trazado 992646" d="M251.778,230.844h0c-5.813,0-9.754-4.713-8.8-10.526l.026-.158a1.766,1.766,0,0,1,1.678-1.442h18.169a1.192,1.192,0,0,1,1.205,1.442l-.026.158A12.9,12.9,0,0,1,251.778,230.844Z" transform="translate(-139.086 -115.324)" fill="#e29437"/>
      <path id="Trazado_992647" data-name="Trazado 992647" d="M272.864,272.9H235.708a.453.453,0,1,1,0-.905h37.157a.453.453,0,0,1,0,.905Z" transform="translate(-135.496 -140.56)" fill="#e29437"/>
      <path id="Trazado_992648" data-name="Trazado 992648" d="M219.074,358.226a.453.453,0,0,1-.451-.417c-.016-.206-1.63-20.785-2.068-36.414-.428-15.251,1.818-22.278,6.111-29.91,3.843-6.831,3.71-9.95,3.709-9.981a.455.455,0,0,1,.452-.482h37.157a.453.453,0,1,1,0,.905H227.266c-.085,1.146-.631,4.346-3.811,10-4.214,7.49-6.417,14.4-6,29.441.437,15.605,2.049,36.163,2.066,36.369a.453.453,0,0,1-.416.487A.258.258,0,0,1,219.074,358.226Z" transform="translate(-126.614 -144.833)" fill="#e29437"/>
      <path id="Trazado_992649" data-name="Trazado 992649" d="M249.316,311.747a.457.457,0,0,1-.225-.06l-3.537-2.021a8.3,8.3,0,0,1-4.171-7.187V284.911a.453.453,0,1,1,.905,0v17.569a7.388,7.388,0,0,0,3.715,6.4l2.86,1.634v-25.6a.453.453,0,1,1,.905,0v26.384a.451.451,0,0,1-.453.452Z" transform="translate(-138.399 -146.461)" fill="#e29437"/>
      <path id="Trazado_992650" data-name="Trazado 992650" d="M298.113,358.226a.453.453,0,0,1-.451-.423c-.007-.11-.737-11.124-.737-20.772,0-9.391-1.151-36.445-3.285-44.021-2.123-7.54-1.511-11.447-1.484-11.61a.452.452,0,0,1,.893.148c-.006.038-.6,3.9,1.463,11.217,2.156,7.655,3.318,34.84,3.318,44.267,0,9.617.728,20.6.735,20.711a.453.453,0,0,1-.422.482Z" transform="translate(-162.397 -144.834)" fill="#e29437"/>
      <path id="Trazado_992651" data-name="Trazado 992651" d="M258.984,382.045a.452.452,0,0,1-.452-.442l-.717-31.128a64.734,64.734,0,0,0-2.206-15.323.453.453,0,0,1,.874-.235,65.682,65.682,0,0,1,2.237,15.537l.717,31.128a.453.453,0,0,1-.442.463Z" transform="translate(-145.129 -170.2)" fill="#e29437"/>
      <path id="Trazado_992652" data-name="Trazado 992652" d="M213.4,255.835c0,8.614-4.183,10.813-8.07,17.843a17.412,17.412,0,0,1-16.213-17.372V238.522a1.607,1.607,0,0,1,1.607-1.607h19.251c.059.484.131.951.217,1.394s.176.869.276,1.268q.109.448.231.855c.041.154.086.3.131.444q.047.156.1.3t.1.285c.063.186.127.357.185.521a15.152,15.152,0,0,0,.643,1.53S213.4,245.836,213.4,255.835Z" transform="translate(-113.646 -123.943)" fill="#a06926"/>
      <path id="Trazado_992653" data-name="Trazado 992653" d="M192.877,275.227a12.751,12.751,0,0,0-1.951-2.854c-1.054-1.148-2.531-2.313-3.957-1.932-1.841.491-1.109,3.2-.5,4.783a16.9,16.9,0,0,1,.688,2.359c.305,1.361,1.082,3.364,3,3.129,2.873-.351,4.369-2.251,3.312-4.329Z" transform="translate(-112.072 -139.787)" fill="#f08f64"/>
      <path id="Trazado_992654" data-name="Trazado 992654" d="M208.991,272.949a.221.221,0,0,1-.127-.039c-5.525-3.761-5.542-12.072-5.542-12.156V239.359a.226.226,0,0,1,.453,0v21.4c0,.082.021,8.156,5.344,11.78a.226.226,0,0,1-.128.413Z" transform="translate(-120.371 -124.994)" fill="#c9a875"/>
      <path id="Trazado_992655" data-name="Trazado 992655" d="M207.842,249.857a.452.452,0,0,1,.774-.466,3.718,3.718,0,0,0,6.138.344.446.446,0,0,1,.534-.552.442.442,0,0,1,.348.063.447.447,0,0,1,.181.493,3.708,3.708,0,0,0,5.3.611c.077.258.163.566.249.942a4.611,4.611,0,0,1-6.079-.774,4.622,4.622,0,0,1-7.441-.661Z" transform="translate(-122.481 -129.747)" fill="#222221"/>
      <path id="Trazado_992656" data-name="Trazado 992656" d="M221.362,251.292a4.611,4.611,0,0,1-6.079-.774,4.622,4.622,0,0,1-7.441-.661.452.452,0,0,1,.774-.466,3.718,3.718,0,0,0,6.138.344.446.446,0,0,1,.534-.552.442.442,0,0,1,.348.063.447.447,0,0,1,.181.493,3.708,3.708,0,0,0,5.3.611C221.189,250.609,221.276,250.916,221.362,251.292Z" transform="translate(-122.48 -129.747)" fill="#c9a875"/>
      <g id="Grupo_1166214" data-name="Grupo 1166214" transform="translate(83.677 131.891)">
        <path id="Trazado_992657" data-name="Trazado 992657" d="M211.8,275.787a4.631,4.631,0,0,0,3.481-1.584,4.61,4.61,0,0,0,6.916.045c.027-.439.041-.9.041-1.376a.444.444,0,0,0-.53.552,3.707,3.707,0,0,1-5.893,0,.444.444,0,0,0-.53-.552.446.446,0,0,0-.534.552,3.716,3.716,0,0,1-6.138-.348.453.453,0,1,0-.774.471A4.6,4.6,0,0,0,211.8,275.787Z" transform="translate(-206.157 -272.858)" fill="#c9a875"/>
        <path id="Trazado_992658" data-name="Trazado 992658" d="M219.332,285.711c-.2.462-.43.91-.674,1.344h0a4.5,4.5,0,0,1-1.435.231,4.629,4.629,0,0,1-3.481-1.58,4.615,4.615,0,0,1-6.957,0,4.7,4.7,0,0,1-1.851,1.285c-.086-.3-.158-.6-.226-.883a3.728,3.728,0,0,0,1.548-1.181.452.452,0,0,1,.181-.489,1.019,1.019,0,0,1,.706,0,.442.442,0,0,1,.176.489,3.707,3.707,0,0,0,5.893,0,.448.448,0,0,1,.186-.489.434.434,0,0,1,.348-.063.443.443,0,0,1,.53.556,3.711,3.711,0,0,0,2.947,1.453A3.662,3.662,0,0,0,219.332,285.711Z" transform="translate(-204.702 -278.305)" fill="#c9a875"/>
      </g>
      <path id="Trazado_992659" data-name="Trazado 992659" d="M220.1,261.369a.424.424,0,0,0-.2.073.452.452,0,0,0-.181.489,3.707,3.707,0,0,1-5.893,0,.442.442,0,0,0-.53-.552.436.436,0,0,0-.348.063.448.448,0,0,0-.186.489,3.707,3.707,0,0,1-5.893,0,.442.442,0,0,0-.53-.552.446.446,0,0,0-.534.552,3.723,3.723,0,0,1-2.05,1.344v.928a4.643,4.643,0,0,0,2.58-1.494,4.615,4.615,0,0,0,6.957,0,4.619,4.619,0,0,0,6.917.045C220.17,262.264,220.138,261.8,220.1,261.369Z" transform="translate(-120.573 -135.524)" fill="#c9a875"/>
      <path id="Trazado_992660" data-name="Trazado 992660" d="M275.044,177.856l-3.906,13.973a.615.615,0,0,1-.593.448H250.218a.61.61,0,0,1-.589-.779l3.789-13.394a17.173,17.173,0,0,0,10.664,3.372A16.946,16.946,0,0,0,275.044,177.856Z" transform="translate(-142.292 -95.971)" fill="#f2e7d6"/>
      <path id="Trazado_992661" data-name="Trazado 992661" d="M251.8,99.269a11.415,11.415,0,0,1,1.63,3.71,10.5,10.5,0,0,1,.145,2.04c0,.669-.019,1.334-.056,2-.07,1.327-.171,2.648-.286,3.969l-.022.247a1.018,1.018,0,0,0,0,.185.9.9,0,0,0,.091.331.885.885,0,0,0,.2.277l.362.332c.481.454.955.916,1.4,1.414a.228.228,0,0,1-.3.341c-.554-.371-1.076-.778-1.591-1.192-.129-.107-.254-.2-.385-.32a1.67,1.67,0,0,1-.391-.508,1.634,1.634,0,0,1-.165-.621,1.749,1.749,0,0,1,.008-.311l.024-.246c.127-1.312.24-2.627.321-3.94.037-.656.081-1.312.1-1.965a9.929,9.929,0,0,0-.078-1.912,11.481,11.481,0,0,0-1.384-3.583l-.006-.011a.225.225,0,0,1,.385-.234Z" transform="translate(-143.134 -58.701)" fill="#a54625"/>
      <path id="Trazado_992662" data-name="Trazado 992662" d="M254.146,130.362a18.632,18.632,0,0,0,2.119-.127,17.355,17.355,0,0,0,2.091-.366,13.051,13.051,0,0,0,2.01-.644,10.99,10.99,0,0,0,1.852-.992l.011-.007a.226.226,0,0,1,.261.369,9.326,9.326,0,0,1-1.9,1.144,12.46,12.46,0,0,1-2.095.706,14.787,14.787,0,0,1-4.376.368.226.226,0,0,1,.017-.452Z" transform="translate(-144.331 -72.448)" fill="#a54625"/>
      <path id="Trazado_992663" data-name="Trazado 992663" d="M268.233,108.746a1.727,1.727,0,0,1-.615-.108c-.921-.349-1.5-1.552-1.465-3.065a.668.668,0,0,1,.693-.665.679.679,0,0,1,.665.693c-.021,1,.328,1.668.588,1.766a.867.867,0,0,0,.618-.114,3.284,3.284,0,0,0,1.509-2.04.679.679,0,0,1,1.3.386,4.584,4.584,0,0,1-2.208,2.871A2.455,2.455,0,0,1,268.233,108.746Z" transform="translate(-150.129 -61.335)" fill="#511c0e"/>
      <path id="Trazado_992664" data-name="Trazado 992664" d="M244.144,108.746a1.727,1.727,0,0,1-.615-.108c-.921-.349-1.5-1.552-1.465-3.065a.679.679,0,0,1,.678-.665h.014a.679.679,0,0,1,.664.693c-.021,1,.328,1.668.588,1.766a.867.867,0,0,0,.618-.114,3.285,3.285,0,0,0,1.509-2.04.679.679,0,0,1,1.3.386,4.582,4.582,0,0,1-2.208,2.871A2.444,2.444,0,0,1,244.144,108.746Z" transform="translate(-138.72 -61.335)" fill="#511c0e"/>
      <circle id="Elipse_11827" data-name="Elipse 11827" cx="3.079" cy="3.079" r="3.079" transform="translate(121.212 46.732)" fill="#d8503d"/>
      <path id="Trazado_992665" data-name="Trazado 992665" d="M244.524,117.013a3.082,3.082,0,0,1-4.644,2.652c-.24-1.557-.425-3.2-.557-4.879a3.044,3.044,0,0,1,2.123-.855A3.082,3.082,0,0,1,244.524,117.013Z" transform="translate(-137.422 -65.695)" fill="#d8503d"/>
      <path id="Trazado_992666" data-name="Trazado 992666" d="M295.806,111.086a4.359,4.359,0,0,0-.836.715,6.748,6.748,0,0,0-.7.9,9.883,9.883,0,0,0-.567,1.011c-.168.353-.316.718-.47,1.087l0,.007a.227.227,0,0,1-.433-.128c.037-.2.087-.407.133-.612s.124-.4.2-.6a5.861,5.861,0,0,1,.561-1.142,4.745,4.745,0,0,1,.823-1,3.038,3.038,0,0,1,1.149-.668.225.225,0,0,1,.183.406Z" transform="translate(-162.747 -64.141)" fill="#a54625"/>
      <path id="Trazado_992667" data-name="Trazado 992667" d="M263.057,95.734a1.639,1.639,0,0,1,1.11-.915,7.586,7.586,0,0,1,1.318-.144,10.1,10.1,0,0,1,2.566.274,12.465,12.465,0,0,1,2.382.837c.379.174.737.391,1.1.582.349.225.694.454,1.03.693a.228.228,0,0,1-.194.406l-.014,0c-.391-.111-.773-.233-1.15-.356l-1.14-.322a18.5,18.5,0,0,0-2.273-.454,12.144,12.144,0,0,0-2.245-.112,9.909,9.909,0,0,0-1.083.13,2.288,2.288,0,0,1-1.2-.216L263.2,96.1a.277.277,0,0,1-.14-.365S263.057,95.735,263.057,95.734Z" transform="translate(-148.652 -56.572)" fill="#511c0e"/>
      <path id="Trazado_992668" data-name="Trazado 992668" d="M244.217,96.1l-.073.032a2.32,2.32,0,0,1-1.2.217,9.342,9.342,0,0,0-1.082-.131,12.566,12.566,0,0,0-2.245.108c-.2.023-.4.05-.6.086.014-.348.032-.693.054-1.036.009-.122.014-.244.027-.366.086-.023.172-.045.258-.063a10.31,10.31,0,0,1,2.567-.276,7.673,7.673,0,0,1,1.317.145,1.627,1.627,0,0,1,1.109.914l0,0A.279.279,0,0,1,244.217,96.1Z" transform="translate(-137.279 -56.572)" fill="#511c0e"/>
      <path id="Trazado_992669" data-name="Trazado 992669" d="M290.829,256.553c-5.617,1.72-15.39,3.743-30.8,4.06a4.507,4.507,0,0,0-2.141.6,19.081,19.081,0,0,1-8.025,2.589,15.663,15.663,0,0,1-2.947-.131,17.475,17.475,0,0,1-2.336-.475c-3.3-.914-5.911-2.77-4.517-5.2.045-.082.1-.167.158-.254,2.3-3.395,11.1-4.9,13.185-5.21a7.377,7.377,0,0,0-2.738-2.589l-.118-.063s3.173-1.508,8.269,2.489l22.405-7.437L279.417,233.8l12.176-3.558,4.133,17.825A7.175,7.175,0,0,1,290.829,256.553Z" transform="translate(-137.591 -120.782)" fill="#f08f64"/>
      <path id="Trazado_992670" data-name="Trazado 992670" d="M253.582,269.468c-2.082.312-10.881,1.815-13.185,5.21-.059.086-.113.172-.158.254a7.175,7.175,0,0,1-.186-1.63,7.31,7.31,0,0,1,10.673-6.486l.118.063A7.375,7.375,0,0,1,253.582,269.468Z" transform="translate(-137.768 -137.717)" fill="#cc4b2e"/>
      <path id="Trazado_992671" data-name="Trazado 992671" d="M245.846,270.182a2.835,2.835,0,0,0-.747.777,3.739,3.739,0,0,0-.445.933,2.5,2.5,0,0,0-.086.507,2.624,2.624,0,0,1-.1.5,4.346,4.346,0,0,1-.186.506,2.473,2.473,0,0,1-.273.547l-.091,0a2,2,0,0,1-.346-1.193,2.461,2.461,0,0,1,.421-1.159,3.439,3.439,0,0,1,.775-.948,2.705,2.705,0,0,1,1.049-.556Z" transform="translate(-139.433 -139.659)" fill="#ea725e"/>
      <path id="Trazado_992672" data-name="Trazado 992672" d="M252.1,260.633s-.525-8.593,2.628-7.487S252.1,260.633,252.1,260.633Z" transform="translate(-143.458 -131.584)" fill="#5aa880"/>
      <path id="Trazado_992673" data-name="Trazado 992673" d="M249.386,262.156s.407-6.675-2.041-5.816S249.386,262.156,249.386,262.156Z" transform="translate(-140.876 -133.107)" fill="#5aa880"/>
      <path id="Trazado_992674" data-name="Trazado 992674" d="M221.24,174.95l-20.907,30.517,0,0-1.435,2.1H193.4l17.164-25.049.014-.018,2.865-4.182v0a9.025,9.025,0,0,1,1.032-.674c.122-.073.254-.145.39-.217,0,0,.009,0,.014,0,.136-.073.281-.145.43-.217s.3-.145.453-.217.317-.145.48-.213q.407-.183.842-.353c.136-.054.272-.108.412-.163.1-.041.195-.077.3-.113s.222-.086.335-.127c.217-.082.435-.163.661-.24C219.584,175.488,220.408,175.217,221.24,174.95Z" transform="translate(-115.674 -94.595)" fill="#7f4e18"/>
      <path id="Trazado_992675" data-name="Trazado 992675" d="M349.808,337.455a48.582,48.582,0,0,1-9.555,16.793H244.661a8.4,8.4,0,0,1-1.4-5.921c.62-2.521,2.892-4,4.037-4.639-5.264-10.139-3.63-21.3,2.947-26.837,4.676-3.943,10.551-3.938,12.814-3.811,1.24-10.1,7.288-18.6,15.928-21.989a24.916,24.916,0,0,1,15.928-.521c4.576-8.5,13.068-13.882,21.994-13.678,11.791.267,18.617,10.162,20.088,12.293a30.344,30.344,0,0,1,5.192,15.412,10.13,10.13,0,0,1,5.368,1.557C355.294,311.23,353.017,327.9,349.808,337.455Z" transform="translate(-139.244 -142.856)" fill="#5aa880"/>
      <path id="Trazado_992676" data-name="Trazado 992676" d="M322.5,371.394a29.522,29.522,0,0,1-5.8,10.2h-58.06a5.1,5.1,0,0,1-.85-3.6,4.8,4.8,0,0,1,2.452-2.818c-3.2-6.158-2.2-12.935,1.79-16.3a11.231,11.231,0,0,1,7.783-2.315c.753-6.136,4.426-11.3,9.674-13.355a15.136,15.136,0,0,1,9.674-.316c2.779-5.16,7.937-8.431,13.358-8.308,7.161.162,11.307,6.172,12.2,7.467a18.434,18.434,0,0,1,3.154,9.361,6.15,6.15,0,0,1,3.26.946C325.83,355.465,324.447,365.588,322.5,371.394Z" transform="translate(-146.14 -170.201)" fill="#78ba93"/>
      <g id="Grupo_1166215" data-name="Grupo 1166215" transform="translate(173.26 141.562)">
        <circle id="Elipse_11828" data-name="Elipse 11828" cx="5.318" cy="5.318" r="5.318" transform="translate(0)" fill="#cc4b2e"/>
        <path id="Trazado_992677" data-name="Trazado 992677" d="M380.031,294.079a2.832,2.832,0,0,0-.815.706,3.745,3.745,0,0,0-.529.889,2.482,2.482,0,0,0-.132.5,2.627,2.627,0,0,1-.148.485,4.309,4.309,0,0,1-.232.487,2.471,2.471,0,0,1-.322.52l-.091,0a2,2,0,0,1-.235-1.22,2.468,2.468,0,0,1,.525-1.116,3.428,3.428,0,0,1,.859-.873,2.7,2.7,0,0,1,1.095-.458Z" transform="translate(-376.134 -292.538)" fill="#ea725e"/>
      </g>
      <g id="Grupo_1166216" data-name="Grupo 1166216" transform="translate(151.703 171.371)">
        <path id="Trazado_992678" data-name="Trazado 992678" d="M344.352,351.653a5.318,5.318,0,1,1-6.622-3.567A5.318,5.318,0,0,1,344.352,351.653Z" transform="translate(-333.938 -347.861)" fill="#e25740"/>
        <path id="Trazado_992679" data-name="Trazado 992679" d="M337.826,351.8a2.822,2.822,0,0,0-.578.911,3.739,3.739,0,0,0-.251,1,2.467,2.467,0,0,0,.017.514,2.638,2.638,0,0,1,0,.507,4.341,4.341,0,0,1-.082.533,2.472,2.472,0,0,1-.159.59l-.088.022a2,2,0,0,1-.576-1.1,2.468,2.468,0,0,1,.182-1.22,3.439,3.439,0,0,1,.571-1.083,2.7,2.7,0,0,1,.917-.753Z" transform="translate(-334.953 -349.691)" fill="#ea725e"/>
      </g>
      <g id="Grupo_1166217" data-name="Grupo 1166217" transform="translate(137.31 153.476)">
        <path id="Trazado_992680" data-name="Trazado 992680" d="M317.008,317.656a5.318,5.318,0,1,1-6.622-3.567A5.318,5.318,0,0,1,317.008,317.656Z" transform="translate(-306.594 -313.864)" fill="#cc4b2e"/>
        <path id="Trazado_992681" data-name="Trazado 992681" d="M310.481,317.8a2.823,2.823,0,0,0-.578.911,3.742,3.742,0,0,0-.251,1,2.468,2.468,0,0,0,.017.514,2.6,2.6,0,0,1,0,.507,4.334,4.334,0,0,1-.082.533,2.471,2.471,0,0,1-.159.59l-.088.022a2,2,0,0,1-.576-1.1,2.467,2.467,0,0,1,.182-1.22,3.439,3.439,0,0,1,.571-1.083,2.707,2.707,0,0,1,.917-.753Z" transform="translate(-307.609 -315.694)" fill="#ea725e"/>
      </g>
      <g id="Grupo_1166218" data-name="Grupo 1166218" transform="translate(174.149 168.149)">
        <path id="Trazado_992682" data-name="Trazado 992682" d="M386.994,345.531a5.318,5.318,0,1,1-6.622-3.567A5.318,5.318,0,0,1,386.994,345.531Z" transform="translate(-376.58 -341.739)" fill="#cc4b2e"/>
        <path id="Trazado_992683" data-name="Trazado 992683" d="M380.468,345.68a2.828,2.828,0,0,0-.578.911,3.742,3.742,0,0,0-.251,1,2.468,2.468,0,0,0,.017.514,2.635,2.635,0,0,1,0,.507,4.348,4.348,0,0,1-.082.533,2.471,2.471,0,0,1-.159.59l-.088.022a2,2,0,0,1-.576-1.1,2.467,2.467,0,0,1,.182-1.22,3.439,3.439,0,0,1,.571-1.083,2.7,2.7,0,0,1,.917-.753Z" transform="translate(-377.595 -343.57)" fill="#ea725e"/>
      </g>
      <g id="Grupo_1166219" data-name="Grupo 1166219" transform="translate(197.901 170.661)">
        <path id="Trazado_992684" data-name="Trazado 992684" d="M432.116,350.3a5.318,5.318,0,1,1-6.621-3.567A5.318,5.318,0,0,1,432.116,350.3Z" transform="translate(-421.703 -346.513)" fill="#e25740"/>
        <path id="Trazado_992685" data-name="Trazado 992685" d="M425.59,350.454a2.824,2.824,0,0,0-.578.911,3.742,3.742,0,0,0-.251,1,2.466,2.466,0,0,0,.017.514,2.638,2.638,0,0,1,0,.507,4.339,4.339,0,0,1-.082.533,2.469,2.469,0,0,1-.159.59l-.088.022a2,2,0,0,1-.576-1.1,2.467,2.467,0,0,1,.182-1.22,3.44,3.44,0,0,1,.571-1.083,2.7,2.7,0,0,1,.917-.753Z" transform="translate(-422.718 -348.343)" fill="#ea725e"/>
      </g>
      <g id="Grupo_1166220" data-name="Grupo 1166220" transform="translate(179.469 148.156)">
        <path id="Trazado_992686" data-name="Trazado 992686" d="M397.1,307.55a5.318,5.318,0,1,1-6.621-3.567A5.318,5.318,0,0,1,397.1,307.55Z" transform="translate(-386.687 -303.758)" fill="#e25740"/>
        <path id="Trazado_992687" data-name="Trazado 992687" d="M390.574,307.7a2.828,2.828,0,0,0-.578.911,3.738,3.738,0,0,0-.251,1,2.467,2.467,0,0,0,.017.514,2.6,2.6,0,0,1,0,.507,4.354,4.354,0,0,1-.082.533,2.474,2.474,0,0,1-.159.59l-.088.022a2,2,0,0,1-.576-1.1,2.461,2.461,0,0,1,.182-1.22,3.44,3.44,0,0,1,.571-1.083,2.707,2.707,0,0,1,.917-.753Z" transform="translate(-387.702 -305.588)" fill="#ea725e"/>
      </g>
      <g id="Grupo_1166221" data-name="Grupo 1166221" transform="translate(149.257 193.233)">
        <path id="Trazado_992688" data-name="Trazado 992688" d="M339.778,395.969a5.318,5.318,0,1,1-3.911-6.424A5.318,5.318,0,0,1,339.778,395.969Z" transform="translate(-329.291 -389.394)" fill="#e25740"/>
        <path id="Trazado_992689" data-name="Trazado 992689" d="M335.657,391.8a2.824,2.824,0,0,0-.959.494,3.738,3.738,0,0,0-.724.739,2.482,2.482,0,0,0-.245.452,2.579,2.579,0,0,1-.258.436,4.329,4.329,0,0,1-.34.419,2.478,2.478,0,0,1-.435.429l-.087-.025a2,2,0,0,1,.06-1.241,2.46,2.46,0,0,1,.773-.96,3.433,3.433,0,0,1,1.04-.646,2.7,2.7,0,0,1,1.172-.186Z" transform="translate(-330.828 -390.485)" fill="#ea725e"/>
      </g>
      <g id="Grupo_1166222" data-name="Grupo 1166222" transform="translate(130.462 182.933)">
        <path id="Trazado_992690" data-name="Trazado 992690" d="M304.07,376.4a5.318,5.318,0,1,1-3.911-6.424A5.318,5.318,0,0,1,304.07,376.4Z" transform="translate(-293.583 -369.826)" fill="#cc4b2e"/>
        <path id="Trazado_992691" data-name="Trazado 992691" d="M299.949,372.231a2.833,2.833,0,0,0-.959.493,3.739,3.739,0,0,0-.724.738,2.485,2.485,0,0,0-.245.452,2.578,2.578,0,0,1-.258.436,4.336,4.336,0,0,1-.34.419,2.477,2.477,0,0,1-.435.429l-.087-.025a2,2,0,0,1,.059-1.241,2.469,2.469,0,0,1,.773-.96,3.445,3.445,0,0,1,1.04-.646,2.7,2.7,0,0,1,1.172-.186Z" transform="translate(-295.12 -370.917)" fill="#ea725e"/>
      </g>
      <line id="Línea_585" data-name="Línea 585" y1="7.038" x2="4.035" transform="translate(31.887 190.806)" fill="none" stroke="#222221" stroke-miterlimit="10" stroke-width="0.86"/>
      <g id="Grupo_1166224" data-name="Grupo 1166224" transform="translate(52.831 177.459)">
        <path id="Trazado_992692" data-name="Trazado 992692" d="M164.356,379.134c-1.405-3.476-2.835-3.625-3.444-6.9-.523-2.813.38-3.524-.246-6.342-.1-.432-1.424-6.141-4.428-6.453-2.286-.237-4.685,2.74-5.657,5.007-1.167,2.72-.069,3.929-1.23,8.233-.541,2.007-.828,1.925-1.6,4.228-.9,2.7-2.106,6.29-1.476,9.9a14.344,14.344,0,0,0,4.784,7.975,4.349,4.349,0,0,0,2.789,1.081l4.686.133a4.344,4.344,0,0,0,3.027-1.063,12.744,12.744,0,0,0,2.67-3.341C167.2,386.161,164.8,380.242,164.356,379.134Z" transform="translate(-146.101 -359.428)" fill="#5aa880"/>
        <g id="Grupo_1166223" data-name="Grupo 1166223" transform="translate(4.653 2.2)">
          <path id="Trazado_992693" data-name="Trazado 992693" d="M164.3,398.25l-.028,0a.2.2,0,0,1-.169-.225c.463-3.3.363-6.98,0-13.048-.353-5.883,0-21.019,0-21.172a.2.2,0,0,1,.4.01c0,.152-.352,15.272,0,21.138.366,6.095.466,9.8,0,13.128A.2.2,0,0,1,164.3,398.25Z" transform="translate(-159.203 -363.608)" fill="#84bfa1"/>
          <path id="Trazado_992694" data-name="Trazado 992694" d="M160.327,415.85a.2.2,0,0,1-.159-.079l-5.186-6.9a.2.2,0,0,1,.318-.24l5.186,6.9a.2.2,0,0,1-.159.319Z" transform="translate(-154.942 -384.896)" fill="#84bfa1"/>
          <path id="Trazado_992695" data-name="Trazado 992695" d="M160.22,388.5a.2.2,0,0,1-.153-.072L155.7,383.2a.2.2,0,0,1,.306-.255l4.369,5.23a.2.2,0,0,1-.153.327Z" transform="translate(-155.278 -372.731)" fill="#84bfa1"/>
          <path id="Trazado_992696" data-name="Trazado 992696" d="M164.218,394.435a.2.2,0,0,1-.153-.327l4.369-5.23a.2.2,0,0,1,.306.255l-4.369,5.23A.2.2,0,0,1,164.218,394.435Z" transform="translate(-159.241 -375.543)" fill="#84bfa1"/>
          <path id="Trazado_992697" data-name="Trazado 992697" d="M164.218,377.88a.2.2,0,0,1-.153-.327l3.3-5.147a.2.2,0,0,1,.306.255l-3.3,5.147A.2.2,0,0,1,164.218,377.88Z" transform="translate(-159.241 -367.741)" fill="#84bfa1"/>
        </g>
      </g>
      <g id="Grupo_1166225" data-name="Grupo 1166225" transform="translate(64.461 184.783)">
        <path id="Trazado_992698" data-name="Trazado 992698" d="M186.868,391.536c2.959,5.471.2,13.241-5.276,14.936-4.857,1.5-10.66-2.6-12.569-7.386a12.1,12.1,0,0,1,.578-10.074c.91-1.561,1.686-1.793,2.772-4.022a22.344,22.344,0,0,0,1.768-5.809c.565-3.071.26-4.154,1.327-5.268,0,0,1.538-1.543,3.956.442s1.83,6.555,2.131,7.9C182.6,386.919,185.117,388.3,186.868,391.536Z" transform="translate(-168.196 -373.341)" fill="#84bfa1"/>
        <path id="Trazado_992699" data-name="Trazado 992699" d="M181.723,391.364a25.034,25.034,0,0,1,2.64,5.448,88.375,88.375,0,0,0-.426-11.22.175.175,0,1,1,.347-.044c.005.043.233,1.893.361,5.047a40,40,0,0,0,2.128-3.881.175.175,0,0,1,.23-.091h0a.175.175,0,0,1,.091.231,44.559,44.559,0,0,1-2.426,4.373c.063,1.844.088,4.082.022,6.629a.173.173,0,0,1,0,.059c-.037,1.385-.1,2.861-.2,4.416a37.476,37.476,0,0,0,3.915-5.723.175.175,0,1,1,.306.171,34.332,34.332,0,0,1-4.256,6.091c-.16,2.318-.4,4.8-.749,7.406a.175.175,0,0,1-.2.151.173.173,0,0,1-.046-.013.176.176,0,0,1-.1-.184,116.137,116.137,0,0,0,.982-12.344,25.082,25.082,0,0,0-2.909-6.325.176.176,0,0,1,.049-.243A.177.177,0,0,1,181.723,391.364Z" transform="translate(-174.45 -379.05)" fill="#45836a"/>
      </g>
      <path id="Trazado_992700" data-name="Trazado 992700" d="M104.774,180.7a5.746,5.746,0,0,1-1.452-3.753,16.214,16.214,0,0,0-1.463-5.962c-.583-1.293-3.3-7.317-8.71-7.542-3.958-.165-6.773,2.88-7.329,3.505a10.229,10.229,0,0,0-7.86.106c-4.627,2.214-5.358,7.683-5.523,8.923l-.015.114a6.021,6.021,0,0,1-2.254,4.036,4.709,4.709,0,0,0-1.873,3.764h0a4.727,4.727,0,0,0,4.727,4.727H101.29a4.727,4.727,0,0,0,4.727-4.727h0A4.708,4.708,0,0,0,104.774,180.7Z" transform="translate(-56.418 -89.144)" fill="#c8e2aa"/>
      <path id="Trazado_992701" data-name="Trazado 992701" d="M405.584,129.224a7.457,7.457,0,0,0-5.3-1.986,7.328,7.328,0,0,0-3.973-4.966,7.111,7.111,0,0,0-5.3-.111,9.836,9.836,0,0,0-11.366.331,9.993,9.993,0,0,0-3.421,7.835,7.046,7.046,0,0,0-4.745,2.979,6.063,6.063,0,0,0-.79,3.391,2.78,2.78,0,0,0,1.254,5.262h32.4a2.781,2.781,0,0,0,2.625-1.867h0C409.473,136.393,407.973,131.66,405.584,129.224Z" transform="translate(-198.92 -68.815)" fill="#c8e2aa"/>
      <path id="Trazado_992702" data-name="Trazado 992702" d="M269.155,149.647c-1,1.571-3.395,3.327-5.1,4.454-.05-1.779-.258-3.7-.394-4.784a.972.972,0,0,0-.955-.86,21.917,21.917,0,0,1-2.349-.149c.326,0,5.989-.063,9.727-1.657C270.083,146.65,270.793,147.081,269.155,149.647Z" transform="translate(-147.384 -81.192)" fill="#d96a3c"/>
      <path id="Trazado_992703" data-name="Trazado 992703" d="M307.059,230.1a1.868,1.868,0,0,1-1.8-1.379l-2.119-7.828a.226.226,0,1,1,.436-.118L305.7,228.6a1.412,1.412,0,0,0,1.792.976l3.715-1.189a.226.226,0,1,1,.138.431l-3.715,1.189A1.849,1.849,0,0,1,307.059,230.1Z" transform="translate(-167.646 -116.218)" fill="#e5d4bd"/>
      <g id="Grupo_1166226" data-name="Grupo 1166226" transform="translate(95.765 174.764)">
        <path id="Trazado_992704" data-name="Trazado 992704" d="M245.115,354.312l.817.074a1.024,1.024,0,0,1,.992,1.056L244.8,376.656a.894.894,0,0,1-1.014.735h0a.9.9,0,0,1-.866-.882l1.031-21.31A1.02,1.02,0,0,1,245.115,354.312Z" transform="translate(-234.888 -354.307)" fill="#351008"/>
        <path id="Trazado_992705" data-name="Trazado 992705" d="M241.233,410.924l-12.824-1.168-.738-13.977a3.73,3.73,0,0,1,4.063-3.911l9.461.862a3.731,3.731,0,0,1,3.29,4.581Z" transform="translate(-227.666 -372.089)" fill="#97a29c"/>
        <path id="Trazado_992706" data-name="Trazado 992706" d="M230.268,412.283c-.279-3.52-.509-7.042-.731-10.565-.026-.444-.063-.873-.079-1.328a3.261,3.261,0,0,1,.263-1.368,3.358,3.358,0,0,1,2.008-1.853,3.414,3.414,0,0,1,1.39-.161l1.319.115,2.637.23,2.636.25,1.318.125a3.417,3.417,0,0,1,1.338.409,3.361,3.361,0,0,1,1.64,2.186,3.276,3.276,0,0,1,.012,1.394c-.1.445-.212.861-.317,1.292l-1.291,5.135-1.338,5.124,1.122-5.175,1.169-5.164c.094-.428.2-.866.284-1.285a2.935,2.935,0,0,0-1.479-3.145,2.993,2.993,0,0,0-1.178-.35l-1.319-.115-2.637-.231-2.636-.251-1.318-.125a3,3,0,0,0-1.222.132,2.938,2.938,0,0,0-2.023,2.826c0,.427.033.878.047,1.315C230.033,405.227,230.175,408.754,230.268,412.283Z" transform="translate(-228.514 -374.525)" fill="#c5d3cb"/>
      </g>
      <g id="Grupo_1166228" data-name="Grupo 1166228" transform="translate(22.707 176.692)">
        <path id="Trazado_992707" data-name="Trazado 992707" d="M105.522,374.058c-2.213-2.841-3.573-2.6-5-5.465-1.223-2.46-.576-3.355-1.9-5.793-.2-.374-2.931-5.3-5.787-4.8-2.173.382-3.607,3.763-3.908,6.113-.362,2.819.969,3.647,1.03,7.928.028,2-.258,2-.364,4.326-.124,2.728-.29,6.364,1.242,9.534a13.78,13.78,0,0,0,6.517,6.108,4.176,4.176,0,0,0,2.86.264l4.364-1.111a4.173,4.173,0,0,0,2.516-1.778,12.239,12.239,0,0,0,1.587-3.789C110,379.8,106.226,374.963,105.522,374.058Z" transform="translate(-88.872 -357.969)" fill="#45836a"/>
        <g id="Grupo_1166227" data-name="Grupo 1166227" transform="translate(2.539 2.152)">
          <path id="Trazado_992708" data-name="Trazado 992708" d="M105.812,394.06l-.026.006a.191.191,0,0,1-.216-.163c-.44-3.166-1.5-6.542-3.435-12.052-1.874-5.341-5.534-19.413-5.571-19.555a.192.192,0,0,1,.371-.1c.036.141,3.693,14.2,5.561,19.524,1.941,5.533,3.008,8.928,3.452,12.126A.192.192,0,0,1,105.812,394.06Z" transform="translate(-95.051 -362.056)" fill="#84bfa1"/>
          <path id="Trazado_992709" data-name="Trazado 992709" d="M106.646,411.4a.191.191,0,0,1-.168-.032l-6.6-5.006a.191.191,0,0,1,.231-.305l6.6,5.006a.191.191,0,0,1,.037.268A.186.186,0,0,1,106.646,411.4Z" transform="translate(-96.586 -382.876)" fill="#84bfa1"/>
          <path id="Trazado_992710" data-name="Trazado 992710" d="M99.351,386.161a.191.191,0,0,1-.161-.026l-5.411-3.68a.191.191,0,1,1,.216-.316l5.411,3.68a.191.191,0,0,1-.055.342Z" transform="translate(-93.696 -371.552)" fill="#84bfa1"/>
          <path id="Trazado_992711" data-name="Trazado 992711" d="M105.845,389.558a.2.2,0,0,1-.13-.009.191.191,0,0,1-.1-.253l2.66-5.98a.191.191,0,1,1,.35.155l-2.66,5.98A.192.192,0,0,1,105.845,389.558Z" transform="translate(-99.335 -372.072)" fill="#84bfa1"/>
          <path id="Trazado_992712" data-name="Trazado 992712" d="M101.47,374.522a.191.191,0,0,1-.227-.262l1.69-5.621a.191.191,0,1,1,.35.155l-1.69,5.621A.193.193,0,0,1,101.47,374.522Z" transform="translate(-97.262 -365.12)" fill="#84bfa1"/>
        </g>
      </g>
      <g id="Grupo_1166229" data-name="Grupo 1166229" transform="translate(32.594 175.543)">
        <path id="Trazado_992713" data-name="Trazado 992713" d="M110.312,374.658c-4.557,5.658-3.033,15.168,2.9,18.275,5.261,2.755,12.8-.728,16-5.824a14.13,14.13,0,0,0,1.468-11.695c-.714-1.986-1.557-2.417-2.333-5.206a26.116,26.116,0,0,1-.8-7.047c0-3.647.581-4.826-.41-6.333,0,0-1.44-2.1-4.638-.33s-3.489,7.142-4.119,8.62C116.189,370.257,113.007,371.311,110.312,374.658Z" transform="translate(-107.655 -355.788)" fill="#84bfa1"/>
        <path id="Trazado_992714" data-name="Trazado 992714" d="M131.68,376.759a29.276,29.276,0,0,0-4.186,5.7,103.1,103.1,0,0,1,2.865-12.8.2.2,0,0,0-.39-.124c-.016.049-.668,2.125-1.483,5.721a46.793,46.793,0,0,1-1.623-4.908.2.2,0,0,0-.245-.153h0a.2.2,0,0,0-.153.246,52,52,0,0,0,1.861,5.536c-.463,2.1-.965,4.671-1.429,7.61a.2.2,0,0,0-.011.068c-.251,1.6-.49,3.308-.7,5.115a43.8,43.8,0,0,1-3.286-7.4.2.2,0,0,0-.388.131c.074.22,1.829,5.384,3.6,7.9-.307,2.7-.557,5.6-.708,8.666a.2.2,0,0,0,.194.214.2.2,0,0,0,.056,0,.206.206,0,0,0,.159-.189,135.767,135.767,0,0,1,1.485-14.388,29.289,29.289,0,0,1,4.681-6.65.2.2,0,0,0-.295-.285Z" transform="translate(-114.685 -362.231)" fill="#45836a"/>
      </g>
      <g id="Grupo_1166231" data-name="Grupo 1166231" transform="translate(166.731 176.692)">
        <path id="Trazado_992715" data-name="Trazado 992715" d="M379.136,374.058c-2.213-2.841-3.573-2.6-5-5.465-1.223-2.46-.576-3.355-1.9-5.793-.2-.374-2.931-5.3-5.788-4.8-2.173.382-3.607,3.763-3.908,6.113-.362,2.819.969,3.647,1.03,7.928.028,2-.258,2-.364,4.326-.124,2.728-.29,6.364,1.242,9.534a13.78,13.78,0,0,0,6.517,6.108,4.176,4.176,0,0,0,2.86.264l4.364-1.111a4.173,4.173,0,0,0,2.516-1.778A12.239,12.239,0,0,0,382.3,385.6C383.61,379.8,379.841,374.963,379.136,374.058Z" transform="translate(-362.487 -357.969)" fill="#45836a"/>
        <g id="Grupo_1166230" data-name="Grupo 1166230" transform="translate(2.539 2.152)">
          <path id="Trazado_992716" data-name="Trazado 992716" d="M379.427,394.06l-.026.006a.191.191,0,0,1-.216-.163c-.44-3.166-1.5-6.542-3.435-12.052-1.874-5.341-5.534-19.413-5.571-19.555a.192.192,0,0,1,.371-.1c.036.141,3.693,14.2,5.561,19.524,1.941,5.533,3.008,8.928,3.453,12.126A.193.193,0,0,1,379.427,394.06Z" transform="translate(-368.666 -362.056)" fill="#84bfa1"/>
          <path id="Trazado_992717" data-name="Trazado 992717" d="M380.261,411.4a.192.192,0,0,1-.168-.032l-6.6-5.006a.191.191,0,0,1,.231-.305l6.6,5.006a.191.191,0,0,1,.037.268A.187.187,0,0,1,380.261,411.4Z" transform="translate(-370.2 -382.876)" fill="#84bfa1"/>
          <path id="Trazado_992718" data-name="Trazado 992718" d="M372.965,386.161a.191.191,0,0,1-.161-.026l-5.411-3.68a.191.191,0,1,1,.216-.316l5.411,3.68a.191.191,0,0,1-.055.342Z" transform="translate(-367.31 -371.552)" fill="#84bfa1"/>
          <path id="Trazado_992719" data-name="Trazado 992719" d="M379.459,389.558a.2.2,0,0,1-.13-.009.191.191,0,0,1-.1-.253l2.66-5.98a.191.191,0,1,1,.35.155l-2.66,5.98A.192.192,0,0,1,379.459,389.558Z" transform="translate(-372.949 -372.072)" fill="#84bfa1"/>
          <path id="Trazado_992720" data-name="Trazado 992720" d="M375.084,374.522a.191.191,0,0,1-.227-.262l1.69-5.621a.191.191,0,1,1,.35.155l-1.69,5.621A.193.193,0,0,1,375.084,374.522Z" transform="translate(-370.877 -365.12)" fill="#84bfa1"/>
        </g>
      </g>
      <g id="Grupo_1166232" data-name="Grupo 1166232" transform="translate(176.617 175.543)">
        <path id="Trazado_992721" data-name="Trazado 992721" d="M383.926,374.658c-4.557,5.658-3.033,15.168,2.9,18.275,5.261,2.755,12.8-.728,16-5.824a14.13,14.13,0,0,0,1.468-11.695c-.714-1.986-1.558-2.417-2.333-5.206a26.115,26.115,0,0,1-.8-7.047c0-3.647.581-4.826-.41-6.333,0,0-1.44-2.1-4.638-.33s-3.489,7.142-4.119,8.62C389.8,370.257,386.621,371.311,383.926,374.658Z" transform="translate(-381.269 -355.788)" fill="#84bfa1"/>
        <path id="Trazado_992722" data-name="Trazado 992722" d="M405.294,376.759a29.254,29.254,0,0,0-4.186,5.7,103.108,103.108,0,0,1,2.865-12.8.2.2,0,0,0-.39-.124c-.016.049-.668,2.125-1.483,5.721a46.781,46.781,0,0,1-1.623-4.908.2.2,0,0,0-.245-.153h0a.2.2,0,0,0-.153.246,51.991,51.991,0,0,0,1.861,5.536c-.463,2.1-.965,4.671-1.429,7.61a.206.206,0,0,0-.011.068c-.251,1.6-.49,3.308-.7,5.115a43.8,43.8,0,0,1-3.286-7.4.2.2,0,1,0-.388.131c.074.22,1.829,5.384,3.6,7.9-.307,2.7-.557,5.6-.708,8.666a.2.2,0,0,0,.194.214.2.2,0,0,0,.056,0,.205.205,0,0,0,.159-.189,135.761,135.761,0,0,1,1.485-14.388,29.288,29.288,0,0,1,4.681-6.65.2.2,0,0,0-.295-.285Z" transform="translate(-388.299 -362.231)" fill="#45836a"/>
      </g>
      <path id="Trazado_992723" data-name="Trazado 992723" d="M264.006,421.73l-2.041,19.087a1.173,1.173,0,0,1-1.168,1.045H82.617a1.173,1.173,0,0,1-1.168-1.045L79.408,421.73a1.172,1.172,0,0,1,1.168-1.294H262.838A1.173,1.173,0,0,1,264.006,421.73Z" transform="translate(-61.68 -210.863)" fill="#ad712f"/>
      <path id="Trazado_992724" data-name="Trazado 992724" d="M283.93,421.73l-2.041,19.087a1.173,1.173,0,0,1-1.168,1.045H124.685a1.179,1.179,0,0,1-1.167-1.045l-2.041-19.087a1.172,1.172,0,0,1,1.168-1.294H282.763A1.172,1.172,0,0,1,283.93,421.73Z" transform="translate(-81.604 -210.863)" fill="#895b20"/>
      <line id="Línea_586" data-name="Línea 586" x2="19.473" transform="translate(19.873 216.871)" fill="none" stroke="#351008" stroke-linecap="round" stroke-linejoin="round" stroke-miterlimit="10" stroke-width="0.86"/>
      <line id="Línea_587" data-name="Línea 587" x2="157.334" transform="translate(41.695 216.871)" fill="none" stroke="#351008" stroke-linecap="round" stroke-linejoin="round" stroke-miterlimit="10" stroke-width="0.86"/>
      <line id="Línea_588" data-name="Línea 588" x2="19.473" transform="translate(19.873 223.257)" fill="none" stroke="#351008" stroke-linecap="round" stroke-linejoin="round" stroke-miterlimit="10" stroke-width="0.86"/>
      <line id="Línea_589" data-name="Línea 589" x2="156.429" transform="translate(42.6 223.257)" fill="none" stroke="#351008" stroke-linecap="round" stroke-linejoin="round" stroke-miterlimit="10" stroke-width="0.86"/>
      <path id="Trazado_992725" data-name="Trazado 992725" d="M129,426.749c0,.527-.291.954-.65.954s-.65-.427-.65-.954.291-.954.65-.954S129,426.222,129,426.749Z" transform="translate(-84.554 -213.401)" fill="none" stroke="#351008" stroke-linecap="round" stroke-linejoin="round" stroke-miterlimit="10" stroke-width="0.86"/>
      <path id="Trazado_992726" data-name="Trazado 992726" d="M130.233,439.931c0,.527-.291.955-.65.955s-.65-.427-.65-.955.291-.954.65-.954S130.233,439.4,130.233,439.931Z" transform="translate(-85.139 -219.645)" fill="none" stroke="#351008" stroke-linecap="round" stroke-linejoin="round" stroke-miterlimit="10" stroke-width="0.86"/>
      <path id="Trazado_992727" data-name="Trazado 992727" d="M130.836,451.216c0,.527-.291.955-.65.955s-.65-.427-.65-.955.291-.954.65-.954S130.836,450.689,130.836,451.216Z" transform="translate(-85.425 -224.99)" fill="none" stroke="#351008" stroke-linecap="round" stroke-linejoin="round" stroke-miterlimit="10" stroke-width="0.86"/>
      <path id="Trazado_992728" data-name="Trazado 992728" d="M84.789,426.749c0,.527-.291.954-.65.954s-.65-.427-.65-.954.291-.954.65-.954S84.789,426.222,84.789,426.749Z" transform="translate(-63.616 -213.401)" fill="none" stroke="#351008" stroke-linecap="round" stroke-linejoin="round" stroke-miterlimit="10" stroke-width="0.86"/>
      <path id="Trazado_992729" data-name="Trazado 992729" d="M86.025,439.931c0,.527-.291.955-.65.955s-.65-.427-.65-.955.291-.954.65-.954S86.025,439.4,86.025,439.931Z" transform="translate(-64.201 -219.645)" fill="none" stroke="#351008" stroke-linecap="round" stroke-linejoin="round" stroke-miterlimit="10" stroke-width="0.86"/>
      <path id="Trazado_992730" data-name="Trazado 992730" d="M86.627,451.216c0,.527-.291.955-.65.955s-.65-.427-.65-.955.291-.954.65-.954S86.627,450.689,86.627,451.216Z" transform="translate(-64.486 -224.99)" fill="none" stroke="#351008" stroke-linecap="round" stroke-linejoin="round" stroke-miterlimit="10" stroke-width="0.86"/>
      <path id="Trazado_992731" data-name="Trazado 992731" d="M116.24,426.749c0,.527.291.954.65.954s.65-.427.65-.954-.291-.954-.65-.954S116.24,426.222,116.24,426.749Z" transform="translate(-79.127 -213.401)" fill="none" stroke="#351008" stroke-linecap="round" stroke-linejoin="round" stroke-miterlimit="10" stroke-width="0.86"/>
      <path id="Trazado_992732" data-name="Trazado 992732" d="M116.959,439.931c0,.527.291.955.65.955s.65-.427.65-.955-.291-.954-.65-.954S116.959,439.4,116.959,439.931Z" transform="translate(-79.468 -219.645)" fill="none" stroke="#351008" stroke-linecap="round" stroke-linejoin="round" stroke-miterlimit="10" stroke-width="0.86"/>
      <path id="Trazado_992733" data-name="Trazado 992733" d="M117.935,451.216c0,.527.291.955.65.955s.65-.427.65-.955-.291-.954-.65-.954S117.935,450.689,117.935,451.216Z" transform="translate(-79.93 -224.99)" fill="none" stroke="#351008" stroke-linecap="round" stroke-linejoin="round" stroke-miterlimit="10" stroke-width="0.86"/>
      <path id="Trazado_992734" data-name="Trazado 992734" d="M422.014,426.749c0,.527-.291.954-.65.954s-.65-.427-.65-.954.291-.954.65-.954S422.014,426.222,422.014,426.749Z" transform="translate(-223.334 -213.401)" fill="none" stroke="#351008" stroke-linecap="round" stroke-linejoin="round" stroke-miterlimit="10" stroke-width="0.86"/>
      <path id="Trazado_992735" data-name="Trazado 992735" d="M420.435,439.931c0,.527-.291.955-.65.955s-.65-.427-.65-.955.291-.954.65-.954S420.435,439.4,420.435,439.931Z" transform="translate(-222.586 -219.645)" fill="none" stroke="#351008" stroke-linecap="round" stroke-linejoin="round" stroke-miterlimit="10" stroke-width="0.86"/>
      <path id="Trazado_992736" data-name="Trazado 992736" d="M419.459,451.216c0,.527-.291.955-.65.955s-.65-.427-.65-.955.291-.954.65-.954S419.459,450.689,419.459,451.216Z" transform="translate(-222.124 -224.99)" fill="none" stroke="#351008" stroke-linecap="round" stroke-linejoin="round" stroke-miterlimit="10" stroke-width="0.86"/>
    </g>
  </g>
</svg>
